<?xml version="1.0" encoding="iso-8859-1"?>
<!-- Uploaded to: SVG Repo, www.svgrepo.com, Generator: SVG Repo Mixer Tools -->
<svg height="800px" width="800px" version="1.1" id="Layer_1" xmlns="http://www.w3.org/2000/svg" xmlns:xlink="http://www.w3.org/1999/xlink"
	 viewBox="0 0 512 512" xml:space="preserve">
<circle style="fill:#263A7A;" cx="256" cy="256" r="256"/>
<path style="fill:#121149;" d="M260.951,511.938c127.678-2.424,232.47-98.307,248.82-222.098L369.778,149.845l-21.93,146.068
	L209.294,157.36l-47.533,167.596l14.155,14.155l-47.644,40.146L260.951,511.938z"/>
<path style="fill:#38C6D9;" d="M170.667,398.222L170.667,398.222c-31.418,0-56.889-25.471-56.889-56.889V199.111
	c0-31.418,25.471-56.889,56.889-56.889l0,0c31.418,0,56.889,25.471,56.889,56.889v142.222
	C227.556,372.752,202.085,398.222,170.667,398.222z"/>
<path style="fill:#FFEDB5;" d="M223.461,247.724l-45.037-39.726v-37.331c0-4.284-3.474-7.758-7.758-7.758
	c-4.284,0-7.758,3.474-7.758,7.758v37.331l-45.037,39.726v26.257l46.932-41.396c1.422,1.657,3.506,2.729,5.863,2.729
	c2.357,0,4.441-1.072,5.863-2.729l46.932,41.396V247.724z"/>
<path style="fill:#02B2B2;" d="M341.333,398.222L341.333,398.222c-31.418,0-56.889-25.471-56.889-56.889V199.111
	c0-31.418,25.471-56.889,56.889-56.889l0,0c31.418,0,56.889,25.471,56.889,56.889v142.222
	C398.222,372.752,372.752,398.222,341.333,398.222z"/>
<path style="fill:#FEE187;" d="M394.128,247.724l-45.037-39.726v-37.331c0-4.284-3.474-7.758-7.758-7.758s-7.758,3.474-7.758,7.758
	v37.331l-45.037,39.726v26.257l46.932-41.396c1.422,1.657,3.506,2.729,5.863,2.729c2.357,0,4.441-1.072,5.863-2.729l46.932,41.396
	V247.724z"/>
</svg>