<?xml version="1.0" encoding="UTF-8" standalone="no"?>
<!DOCTYPE svg PUBLIC "-//W3C//DTD SVG 1.1//EN"
 "http://www.w3.org/Graphics/SVG/1.1/DTD/svg11.dtd">
<!-- Generated by graphviz version 12.2.0 (20241103.1931)
 -->
<!-- Title: include/Sandals/NonlinearSolver/NonlinearSolver.hxx Pages: 1 -->
<svg width="187pt" height="160pt"
 viewBox="0.00 0.00 186.50 160.25" xmlns="http://www.w3.org/2000/svg" xmlns:xlink="http://www.w3.org/1999/xlink">
<g id="graph0" class="graph" transform="scale(1 1) rotate(0) translate(4 156.25)">
<title>include/Sandals/NonlinearSolver/NonlinearSolver.hxx</title>
<!-- Node1 -->
<g id="Node000001" class="node">
<title>Node1</title>
<g id="a_Node000001"><a xlink:title=" ">
<polygon fill="#999999" stroke="#666666" points="133.75,-152.25 0,-152.25 0,-121.75 133.75,-121.75 133.75,-152.25"/>
<text text-anchor="start" x="8" y="-138.75" font-family="Helvetica,sans-Serif" font-size="10.00">include/Sandals/Nonlinear</text>
<text text-anchor="middle" x="66.88" y="-127.5" font-family="Helvetica,sans-Serif" font-size="10.00">Solver/NonlinearSolver.hxx</text>
</a>
</g>
</g>
<!-- Node2 -->
<g id="Node000002" class="node">
<title>Node2</title>
<g id="a_Node000002"><a xlink:href="_sandals_8hh.html" target="_top" xlink:title=" ">
<polygon fill="white" stroke="#666666" points="116.12,-19.25 17.62,-19.25 17.62,0 116.12,0 116.12,-19.25"/>
<text text-anchor="middle" x="66.88" y="-5.75" font-family="Helvetica,sans-Serif" font-size="10.00">include/Sandals.hh</text>
</a>
</g>
</g>
<!-- Node1&#45;&gt;Node2 -->
<g id="edge1_Node000001_Node000002" class="edge">
<title>Node1&#45;&gt;Node2</title>
<g id="a_edge1_Node000001_Node000002"><a xlink:title=" ">
<path fill="none" stroke="#63b8ff" d="M50.73,-111.73C46.32,-103.79 42.13,-94.7 39.88,-85.75 36.57,-72.6 36.23,-68.31 39.88,-55.25 43.67,-41.64 52.87,-28.05 59.47,-19.5"/>
<polygon fill="#63b8ff" stroke="#63b8ff" points="47.61,-113.33 55.75,-120.11 53.62,-109.73 47.61,-113.33"/>
</a>
</g>
</g>
<!-- Node3 -->
<g id="Node000003" class="node">
<title>Node3</title>
<g id="a_Node000003"><a xlink:href="_newton_8hxx.html" target="_top" xlink:title=" ">
<polygon fill="white" stroke="#666666" points="178.5,-85.75 49.25,-85.75 49.25,-55.25 178.5,-55.25 178.5,-85.75"/>
<text text-anchor="start" x="57.25" y="-72.25" font-family="Helvetica,sans-Serif" font-size="10.00">include/Sandals/Nonlinear</text>
<text text-anchor="middle" x="113.88" y="-61" font-family="Helvetica,sans-Serif" font-size="10.00">Solver/Newton.hxx</text>
</a>
</g>
</g>
<!-- Node1&#45;&gt;Node3 -->
<g id="edge2_Node000001_Node000003" class="edge">
<title>Node1&#45;&gt;Node3</title>
<g id="a_edge2_Node000001_Node000003"><a xlink:title=" ">
<path fill="none" stroke="#63b8ff" d="M84.13,-112.32C90.54,-103.53 97.61,-93.82 103.25,-86.08"/>
<polygon fill="#63b8ff" stroke="#63b8ff" points="81.49,-110 78.43,-120.14 87.15,-114.12 81.49,-110"/>
</a>
</g>
</g>
<!-- Node3&#45;&gt;Node2 -->
<g id="edge3_Node000003_Node000002" class="edge">
<title>Node3&#45;&gt;Node2</title>
<g id="a_edge3_Node000003_Node000002"><a xlink:title=" ">
<path fill="none" stroke="#63b8ff" d="M95.2,-46.11C87.81,-36.84 79.75,-26.75 74.12,-19.7"/>
<polygon fill="#63b8ff" stroke="#63b8ff" points="92.34,-48.13 101.31,-53.76 97.81,-43.76 92.34,-48.13"/>
</a>
</g>
</g>
</g>
</svg>
