<?xml version="1.0" encoding="UTF-8" standalone="no"?>
<!DOCTYPE svg PUBLIC "-//W3C//DTD SVG 1.1//EN"
 "http://www.w3.org/Graphics/SVG/1.1/DTD/svg11.dtd">
<!-- Generated by graphviz version 12.2.0 (20241103.1931)
 -->
<!-- Title: Sandals::NonlinearSolver&lt; N &gt; Pages: 1 -->
<svg width="409pt" height="83pt"
 viewBox="0.00 0.00 409.25 82.50" xmlns="http://www.w3.org/2000/svg" xmlns:xlink="http://www.w3.org/1999/xlink">
<g id="graph0" class="graph" transform="scale(1 1) rotate(0) translate(4 78.5)">
<title>Sandals::NonlinearSolver&lt; N &gt;</title>
<!-- Node1 -->
<g id="Node000001" class="node">
<title>Node1</title>
<g id="a_Node000001"><a xlink:title="Nonlinear solver base class container. Nonlinear solver base class container for a problem of the for...">
<polygon fill="#999999" stroke="#666666" points="282.88,-74.5 131.12,-74.5 131.12,-55.25 282.88,-55.25 282.88,-74.5"/>
<text text-anchor="middle" x="207" y="-61" font-family="Helvetica,sans-Serif" font-size="10.00">Sandals::NonlinearSolver&lt; N &gt;</text>
</a>
</g>
</g>
<!-- Node2 -->
<g id="Node000002" class="node">
<title>Node2</title>
<g id="a_Node000002"><a xlink:href="class_sandals_1_1_newton.html" target="_top" xlink:title=" ">
<polygon fill="white" stroke="#666666" points="130,-19.25 0,-19.25 0,0 130,0 130,-19.25"/>
<text text-anchor="middle" x="65" y="-5.75" font-family="Helvetica,sans-Serif" font-size="10.00">Sandals::Newton&lt; N *S &gt;</text>
</a>
</g>
</g>
<!-- Node1&#45;&gt;Node2 -->
<g id="edge1_Node000001_Node000002" class="edge">
<title>Node1&#45;&gt;Node2</title>
<g id="a_edge1_Node000001_Node000002"><a xlink:title=" ">
<path fill="none" stroke="#63b8ff" d="M172.46,-50.92C146.68,-41.25 112.09,-28.29 89.21,-19.7"/>
<polygon fill="#63b8ff" stroke="#63b8ff" points="170.9,-54.08 181.49,-54.31 173.36,-47.52 170.9,-54.08"/>
</a>
</g>
</g>
<!-- Node3 -->
<g id="Node000003" class="node">
<title>Node3</title>
<g id="a_Node000003"><a xlink:href="class_sandals_1_1_broyden.html" target="_top" xlink:title="Broyden solver class container.">
<polygon fill="white" stroke="#666666" points="266.38,-19.25 147.62,-19.25 147.62,0 266.38,0 266.38,-19.25"/>
<text text-anchor="middle" x="207" y="-5.75" font-family="Helvetica,sans-Serif" font-size="10.00">Sandals::Broyden&lt; N &gt;</text>
</a>
</g>
</g>
<!-- Node1&#45;&gt;Node3 -->
<g id="edge2_Node000001_Node000003" class="edge">
<title>Node1&#45;&gt;Node3</title>
<g id="a_edge2_Node000001_Node000003"><a xlink:title=" ">
<path fill="none" stroke="#63b8ff" d="M207,-43.63C207,-35.34 207,-26.17 207,-19.61"/>
<polygon fill="#63b8ff" stroke="#63b8ff" points="203.5,-43.57 207,-53.57 210.5,-43.57 203.5,-43.57"/>
</a>
</g>
</g>
<!-- Node4 -->
<g id="Node000004" class="node">
<title>Node4</title>
<g id="a_Node000004"><a xlink:href="class_sandals_1_1_newton.html" target="_top" xlink:title="Class container for a dumped Newton&#39;s method with affine invariant step. Class container for a dumped...">
<polygon fill="white" stroke="#666666" points="401.25,-19.25 284.75,-19.25 284.75,0 401.25,0 401.25,-19.25"/>
<text text-anchor="middle" x="343" y="-5.75" font-family="Helvetica,sans-Serif" font-size="10.00">Sandals::Newton&lt; N &gt;</text>
</a>
</g>
</g>
<!-- Node1&#45;&gt;Node4 -->
<g id="edge3_Node000001_Node000004" class="edge">
<title>Node1&#45;&gt;Node4</title>
<g id="a_edge3_Node000001_Node000004"><a xlink:title=" ">
<path fill="none" stroke="#63b8ff" d="M240.74,-50.66C265.36,-41.02 298.09,-28.21 319.82,-19.7"/>
<polygon fill="#63b8ff" stroke="#63b8ff" points="239.52,-47.38 231.48,-54.29 242.07,-53.9 239.52,-47.38"/>
</a>
</g>
</g>
</g>
</svg>
