<?xml version="1.0" encoding="UTF-8" standalone="no"?>
<!DOCTYPE svg PUBLIC "-//W3C//DTD SVG 1.1//EN"
 "http://www.w3.org/Graphics/SVG/1.1/DTD/svg11.dtd">
<!-- Generated by graphviz version 12.2.1 (20241206.2353)
 -->
<!-- Title: include/Sandals/BVP.hh Pages: 1 -->
<svg width="790pt" height="370pt"
 viewBox="0.00 0.00 789.75 370.00" xmlns="http://www.w3.org/2000/svg" xmlns:xlink="http://www.w3.org/1999/xlink">
<g id="graph0" class="graph" transform="scale(1 1) rotate(0) translate(4 366)">
<title>include/Sandals/BVP.hh</title>
<!-- Node1 -->
<g id="Node000001" class="node">
<title>Node1</title>
<g id="a_Node000001"><a xlink:title=" ">
<polygon fill="#999999" stroke="#666666" points="268,-362 147.75,-362 147.75,-342.75 268,-342.75 268,-362"/>
<text text-anchor="middle" x="207.88" y="-348.5" font-family="Helvetica,sans-Serif" font-size="10.00">include/Sandals/BVP.hh</text>
</a>
</g>
</g>
<!-- Node2 -->
<g id="Node000002" class="node">
<title>Node2</title>
<g id="a_Node000002"><a xlink:href="_runge_kutta_8hh.html" target="_top" xlink:title=" ">
<polygon fill="white" stroke="#666666" points="267.62,-306.75 148.12,-306.75 148.12,-287.5 267.62,-287.5 267.62,-306.75"/>
<text text-anchor="middle" x="207.88" y="-293.25" font-family="Helvetica,sans-Serif" font-size="10.00">Sandals/RungeKutta.hh</text>
</a>
</g>
</g>
<!-- Node1&#45;&gt;Node2 -->
<g id="edge1_Node000001_Node000002" class="edge">
<title>Node1&#45;&gt;Node2</title>
<g id="a_edge1_Node000001_Node000002"><a xlink:title=" ">
<path fill="none" stroke="#63b8ff" d="M207.88,-342.58C207.88,-336.07 207.88,-326.92 207.88,-318.62"/>
<polygon fill="#63b8ff" stroke="#63b8ff" points="211.38,-318.62 207.88,-308.62 204.38,-318.62 211.38,-318.62"/>
</a>
</g>
</g>
<!-- Node3 -->
<g id="Node000003" class="node">
<title>Node3</title>
<g id="a_Node000003"><a xlink:title=" ">
<polygon fill="#e0e0e0" stroke="#999999" points="49.75,-251.5 0,-251.5 0,-232.25 49.75,-232.25 49.75,-251.5"/>
<text text-anchor="middle" x="24.88" y="-238" font-family="Helvetica,sans-Serif" font-size="10.00">optional</text>
</a>
</g>
</g>
<!-- Node2&#45;&gt;Node3 -->
<g id="edge2_Node000002_Node000003" class="edge">
<title>Node2&#45;&gt;Node3</title>
<g id="a_edge2_Node000002_Node000003"><a xlink:title=" ">
<path fill="none" stroke="#63b8ff" d="M176.83,-287.09C144.77,-277.76 94.77,-263.21 60.96,-253.38"/>
<polygon fill="#63b8ff" stroke="#63b8ff" points="62.2,-250.09 51.62,-250.66 60.24,-256.81 62.2,-250.09"/>
</a>
</g>
</g>
<!-- Node4 -->
<g id="Node000004" class="node">
<title>Node4</title>
<g id="a_Node000004"><a xlink:href="_sandals_8hh.html" target="_top" xlink:title=" ">
<polygon fill="white" stroke="#666666" points="398.25,-85.75 333.5,-85.75 333.5,-66.5 398.25,-66.5 398.25,-85.75"/>
<text text-anchor="middle" x="365.88" y="-72.25" font-family="Helvetica,sans-Serif" font-size="10.00">Sandals.hh</text>
</a>
</g>
</g>
<!-- Node2&#45;&gt;Node4 -->
<g id="edge3_Node000002_Node000004" class="edge">
<title>Node2&#45;&gt;Node4</title>
<g id="a_edge3_Node000002_Node000004"><a xlink:title=" ">
<path fill="none" stroke="#63b8ff" d="M193.23,-287.16C181.89,-279.31 166.95,-266.78 159.88,-251.5 135.63,-199.13 118.53,-166.58 154.88,-121.75 175.51,-96.29 266.58,-84.79 322.11,-80.05"/>
<polygon fill="#63b8ff" stroke="#63b8ff" points="322.19,-83.56 331.88,-79.27 321.63,-76.58 322.19,-83.56"/>
</a>
</g>
</g>
<!-- Node15 -->
<g id="Node000015" class="node">
<title>Node15</title>
<g id="a_Node000015"><a xlink:href="_implicit_8hh.html" target="_top" xlink:title=" ">
<polygon fill="white" stroke="#666666" points="299.88,-141 163.88,-141 163.88,-121.75 299.88,-121.75 299.88,-141"/>
<text text-anchor="middle" x="231.88" y="-127.5" font-family="Helvetica,sans-Serif" font-size="10.00">Sandals/System/Implicit.hh</text>
</a>
</g>
</g>
<!-- Node2&#45;&gt;Node15 -->
<g id="edge14_Node000002_Node000015" class="edge">
<title>Node2&#45;&gt;Node15</title>
<g id="a_edge14_Node000002_Node000015"><a xlink:title=" ">
<path fill="none" stroke="#63b8ff" d="M195.26,-287.14C185.17,-279.11 171.76,-266.33 165.88,-251.5 162.72,-243.55 164.46,-240.69 165.88,-232.25 170.16,-206.64 170.83,-198.84 184.88,-177 191.74,-166.32 201.68,-156.39 210.65,-148.62"/>
<polygon fill="#63b8ff" stroke="#63b8ff" points="212.81,-151.38 218.32,-142.32 208.37,-145.97 212.81,-151.38"/>
</a>
</g>
</g>
<!-- Node16 -->
<g id="Node000016" class="node">
<title>Node16</title>
<g id="a_Node000016"><a xlink:href="_explicit_8hh.html" target="_top" xlink:title=" ">
<polygon fill="white" stroke="#666666" points="330.25,-196.25 193.5,-196.25 193.5,-177 330.25,-177 330.25,-196.25"/>
<text text-anchor="middle" x="261.88" y="-182.75" font-family="Helvetica,sans-Serif" font-size="10.00">Sandals/System/Explicit.hh</text>
</a>
</g>
</g>
<!-- Node2&#45;&gt;Node16 -->
<g id="edge16_Node000002_Node000016" class="edge">
<title>Node2&#45;&gt;Node16</title>
<g id="a_edge16_Node000002_Node000016"><a xlink:title=" ">
<path fill="none" stroke="#63b8ff" d="M196.81,-287.28C182.59,-274.8 161.05,-251.4 172.88,-232.25 181.95,-217.55 197.5,-207.53 213.09,-200.77"/>
<polygon fill="#63b8ff" stroke="#63b8ff" points="214.35,-204.03 222.4,-197.14 211.81,-197.51 214.35,-204.03"/>
</a>
</g>
</g>
<!-- Node17 -->
<g id="Node000017" class="node">
<title>Node17</title>
<g id="a_Node000017"><a xlink:href="_semi_explicit_8hh.html" target="_top" xlink:title=" ">
<polygon fill="white" stroke="#666666" points="341.5,-251.5 182.25,-251.5 182.25,-232.25 341.5,-232.25 341.5,-251.5"/>
<text text-anchor="middle" x="261.88" y="-238" font-family="Helvetica,sans-Serif" font-size="10.00">Sandals/System/SemiExplicit.hh</text>
</a>
</g>
</g>
<!-- Node2&#45;&gt;Node17 -->
<g id="edge19_Node000002_Node000017" class="edge">
<title>Node2&#45;&gt;Node17</title>
<g id="a_edge19_Node000002_Node000017"><a xlink:title=" ">
<path fill="none" stroke="#63b8ff" d="M216.79,-287.33C224.33,-279.9 235.34,-269.04 244.6,-259.91"/>
<polygon fill="#63b8ff" stroke="#63b8ff" points="247.02,-262.44 251.69,-252.92 242.11,-257.45 247.02,-262.44"/>
</a>
</g>
</g>
<!-- Node18 -->
<g id="Node000018" class="node">
<title>Node18</title>
<g id="a_Node000018"><a xlink:href="_linear_8hh.html" target="_top" xlink:title=" ">
<polygon fill="white" stroke="#666666" points="489.88,-251.5 359.88,-251.5 359.88,-232.25 489.88,-232.25 489.88,-251.5"/>
<text text-anchor="middle" x="424.88" y="-238" font-family="Helvetica,sans-Serif" font-size="10.00">Sandals/System/Linear.hh</text>
</a>
</g>
</g>
<!-- Node2&#45;&gt;Node18 -->
<g id="edge22_Node000002_Node000018" class="edge">
<title>Node2&#45;&gt;Node18</title>
<g id="a_edge22_Node000002_Node000018"><a xlink:title=" ">
<path fill="none" stroke="#63b8ff" d="M244.69,-287.09C281.08,-278.16 336.96,-264.45 376.83,-254.66"/>
<polygon fill="#63b8ff" stroke="#63b8ff" points="377.54,-258.1 386.41,-252.31 375.87,-251.3 377.54,-258.1"/>
</a>
</g>
</g>
<!-- Node19 -->
<g id="Node000019" class="node">
<title>Node19</title>
<g id="a_Node000019"><a xlink:href="_tableau_8hh.html" target="_top" xlink:title=" ">
<polygon fill="white" stroke="#666666" points="558.62,-141 457.12,-141 457.12,-121.75 558.62,-121.75 558.62,-141"/>
<text text-anchor="middle" x="507.88" y="-127.5" font-family="Helvetica,sans-Serif" font-size="10.00">Sandals/Tableau.hh</text>
</a>
</g>
</g>
<!-- Node2&#45;&gt;Node19 -->
<g id="edge25_Node000002_Node000019" class="edge">
<title>Node2&#45;&gt;Node19</title>
<g id="a_edge25_Node000002_Node000019"><a xlink:title=" ">
<path fill="none" stroke="#63b8ff" d="M268.04,-295.39C344.02,-293.09 468.53,-284.27 498.88,-251.5 523.58,-224.82 518.67,-178.82 513.12,-152.47"/>
<polygon fill="#63b8ff" stroke="#63b8ff" points="516.53,-151.68 510.82,-142.75 509.72,-153.29 516.53,-151.68"/>
</a>
</g>
</g>
<!-- Node20 -->
<g id="Node000020" class="node">
<title>Node20</title>
<g id="a_Node000020"><a xlink:href="_solution_8hh.html" target="_top" xlink:title=" ">
<polygon fill="white" stroke="#666666" points="649.38,-196.25 546.38,-196.25 546.38,-177 649.38,-177 649.38,-196.25"/>
<text text-anchor="middle" x="597.88" y="-182.75" font-family="Helvetica,sans-Serif" font-size="10.00">Sandals/Solution.hh</text>
</a>
</g>
</g>
<!-- Node2&#45;&gt;Node20 -->
<g id="edge27_Node000002_Node000020" class="edge">
<title>Node2&#45;&gt;Node20</title>
<g id="a_edge27_Node000002_Node000020"><a xlink:title=" ">
<path fill="none" stroke="#63b8ff" d="M267.81,-292.33C348.32,-286.48 486.56,-273.55 531.88,-251.5 553.75,-240.85 573,-220.21 584.97,-205.26"/>
<polygon fill="#63b8ff" stroke="#63b8ff" points="587.52,-207.69 590.83,-197.63 581.97,-203.43 587.52,-207.69"/>
</a>
</g>
</g>
<!-- Node5 -->
<g id="Node000005" class="node">
<title>Node5</title>
<g id="a_Node000005"><a xlink:title=" ">
<polygon fill="#e0e0e0" stroke="#999999" points="119.62,-24.88 66.12,-24.88 66.12,-5.63 119.62,-5.63 119.62,-24.88"/>
<text text-anchor="middle" x="92.88" y="-11.38" font-family="Helvetica,sans-Serif" font-size="10.00">iostream</text>
</a>
</g>
</g>
<!-- Node4&#45;&gt;Node5 -->
<g id="edge4_Node000004_Node000005" class="edge">
<title>Node4&#45;&gt;Node5</title>
<g id="a_edge4_Node000004_Node000005"><a xlink:title=" ">
<path fill="none" stroke="#63b8ff" d="M333.22,-70.99C287.08,-64.69 200.47,-51.2 128.88,-30.5 127.49,-30.1 126.09,-29.67 124.69,-29.21"/>
<polygon fill="#63b8ff" stroke="#63b8ff" points="125.98,-25.96 115.39,-25.88 123.62,-32.55 125.98,-25.96"/>
</a>
</g>
</g>
<!-- Node6 -->
<g id="Node000006" class="node">
<title>Node6</title>
<g id="a_Node000006"><a xlink:title=" ">
<polygon fill="#e0e0e0" stroke="#999999" points="177.88,-24.88 137.88,-24.88 137.88,-5.63 177.88,-5.63 177.88,-24.88"/>
<text text-anchor="middle" x="157.88" y="-11.38" font-family="Helvetica,sans-Serif" font-size="10.00">string</text>
</a>
</g>
</g>
<!-- Node4&#45;&gt;Node6 -->
<g id="edge5_Node000004_Node000006" class="edge">
<title>Node4&#45;&gt;Node6</title>
<g id="a_edge5_Node000004_Node000006"><a xlink:title=" ">
<path fill="none" stroke="#63b8ff" d="M333.25,-69.16C296.88,-62.02 236.66,-48.7 186.88,-30.5 186.25,-30.27 185.62,-30.03 184.99,-29.79"/>
<polygon fill="#63b8ff" stroke="#63b8ff" points="186.74,-26.73 176.17,-25.92 183.92,-33.14 186.74,-26.73"/>
</a>
</g>
</g>
<!-- Node7 -->
<g id="Node000007" class="node">
<title>Node7</title>
<g id="a_Node000007"><a xlink:title=" ">
<polygon fill="#e0e0e0" stroke="#999999" points="239.38,-24.88 196.38,-24.88 196.38,-5.63 239.38,-5.63 239.38,-24.88"/>
<text text-anchor="middle" x="217.88" y="-11.38" font-family="Helvetica,sans-Serif" font-size="10.00">cmath</text>
</a>
</g>
</g>
<!-- Node4&#45;&gt;Node7 -->
<g id="edge6_Node000004_Node000007" class="edge">
<title>Node4&#45;&gt;Node7</title>
<g id="a_edge6_Node000004_Node000007"><a xlink:title=" ">
<path fill="none" stroke="#63b8ff" d="M340.58,-66.03C316.75,-57.33 280.14,-43.63 248.88,-30.5 248.4,-30.3 247.92,-30.1 247.43,-29.89"/>
<polygon fill="#63b8ff" stroke="#63b8ff" points="249.08,-26.79 238.52,-25.95 246.25,-33.2 249.08,-26.79"/>
</a>
</g>
</g>
<!-- Node8 -->
<g id="Node000008" class="node">
<title>Node8</title>
<g id="a_Node000008"><a xlink:title=" ">
<polygon fill="#e0e0e0" stroke="#999999" points="300.38,-24.88 257.38,-24.88 257.38,-5.63 300.38,-5.63 300.38,-24.88"/>
<text text-anchor="middle" x="278.88" y="-11.38" font-family="Helvetica,sans-Serif" font-size="10.00">vector</text>
</a>
</g>
</g>
<!-- Node4&#45;&gt;Node8 -->
<g id="edge7_Node000004_Node000008" class="edge">
<title>Node4&#45;&gt;Node8</title>
<g id="a_edge7_Node000004_Node000008"><a xlink:title=" ">
<path fill="none" stroke="#63b8ff" d="M352.66,-66.18C339.12,-57.02 317.8,-42.59 301.56,-31.6"/>
<polygon fill="#63b8ff" stroke="#63b8ff" points="303.71,-28.83 293.47,-26.12 299.79,-34.63 303.71,-28.83"/>
</a>
</g>
</g>
<!-- Node9 -->
<g id="Node000009" class="node">
<title>Node9</title>
<g id="a_Node000009"><a xlink:title=" ">
<polygon fill="#e0e0e0" stroke="#999999" points="353.25,-24.88 318.5,-24.88 318.5,-5.63 353.25,-5.63 353.25,-24.88"/>
<text text-anchor="middle" x="335.88" y="-11.38" font-family="Helvetica,sans-Serif" font-size="10.00">map</text>
</a>
</g>
</g>
<!-- Node4&#45;&gt;Node9 -->
<g id="edge8_Node000004_Node000009" class="edge">
<title>Node4&#45;&gt;Node9</title>
<g id="a_edge8_Node000004_Node000009"><a xlink:title=" ">
<path fill="none" stroke="#63b8ff" d="M361.32,-66.18C357.18,-58.06 350.93,-45.79 345.66,-35.45"/>
<polygon fill="#63b8ff" stroke="#63b8ff" points="348.82,-33.95 341.16,-26.62 342.58,-37.12 348.82,-33.95"/>
</a>
</g>
</g>
<!-- Node10 -->
<g id="Node000010" class="node">
<title>Node10</title>
<g id="a_Node000010"><a xlink:title=" ">
<polygon fill="#e0e0e0" stroke="#999999" points="422.5,-24.88 371.25,-24.88 371.25,-5.63 422.5,-5.63 422.5,-24.88"/>
<text text-anchor="middle" x="396.88" y="-11.38" font-family="Helvetica,sans-Serif" font-size="10.00">memory</text>
</a>
</g>
</g>
<!-- Node4&#45;&gt;Node10 -->
<g id="edge9_Node000004_Node000010" class="edge">
<title>Node4&#45;&gt;Node10</title>
<g id="a_edge9_Node000004_Node000010"><a xlink:title=" ">
<path fill="none" stroke="#63b8ff" d="M370.58,-66.18C374.86,-58.06 381.32,-45.79 386.76,-35.45"/>
<polygon fill="#63b8ff" stroke="#63b8ff" points="389.86,-37.09 391.42,-26.62 383.66,-33.83 389.86,-37.09"/>
</a>
</g>
</g>
<!-- Node11 -->
<g id="Node000011" class="node">
<title>Node11</title>
<g id="a_Node000011"><a xlink:title=" ">
<polygon fill="#e0e0e0" stroke="#999999" points="485.5,-24.88 440.25,-24.88 440.25,-5.63 485.5,-5.63 485.5,-24.88"/>
<text text-anchor="middle" x="462.88" y="-11.38" font-family="Helvetica,sans-Serif" font-size="10.00">chrono</text>
</a>
</g>
</g>
<!-- Node4&#45;&gt;Node11 -->
<g id="edge10_Node000004_Node000011" class="edge">
<title>Node4&#45;&gt;Node11</title>
<g id="a_edge10_Node000004_Node000011"><a xlink:title=" ">
<path fill="none" stroke="#63b8ff" d="M380.61,-66.18C395.92,-56.89 420.14,-42.19 438.35,-31.14"/>
<polygon fill="#63b8ff" stroke="#63b8ff" points="439.98,-34.24 446.71,-26.06 436.35,-28.26 439.98,-34.24"/>
</a>
</g>
</g>
<!-- Node12 -->
<g id="Node000012" class="node">
<title>Node12</title>
<g id="a_Node000012"><a xlink:title=" ">
<polygon fill="#e0e0e0" stroke="#999999" points="576,-24.88 503.75,-24.88 503.75,-5.63 576,-5.63 576,-24.88"/>
<text text-anchor="middle" x="539.88" y="-11.38" font-family="Helvetica,sans-Serif" font-size="10.00">Eigen/Dense</text>
</a>
</g>
</g>
<!-- Node4&#45;&gt;Node12 -->
<g id="edge11_Node000004_Node000012" class="edge">
<title>Node4&#45;&gt;Node12</title>
<g id="a_edge11_Node000004_Node000012"><a xlink:title=" ">
<path fill="none" stroke="#63b8ff" d="M392.68,-66.05C422.06,-56.11 469.39,-40.1 502.43,-28.92"/>
<polygon fill="#63b8ff" stroke="#63b8ff" points="503.25,-32.34 511.6,-25.82 501.01,-25.71 503.25,-32.34"/>
</a>
</g>
</g>
<!-- Node13 -->
<g id="Node000013" class="node">
<title>Node13</title>
<g id="a_Node000013"><a xlink:title=" ">
<polygon fill="#e0e0e0" stroke="#999999" points="660,-24.88 593.75,-24.88 593.75,-5.63 660,-5.63 660,-24.88"/>
<text text-anchor="middle" x="626.88" y="-11.38" font-family="Helvetica,sans-Serif" font-size="10.00">Optimist.hh</text>
</a>
</g>
</g>
<!-- Node4&#45;&gt;Node13 -->
<g id="edge12_Node000004_Node000013" class="edge">
<title>Node4&#45;&gt;Node13</title>
<g id="a_edge12_Node000004_Node000013"><a xlink:title=" ">
<path fill="none" stroke="#63b8ff" d="M398.46,-69.81C441.5,-62.49 519.51,-48.17 584.88,-30.5 586.85,-29.97 588.87,-29.39 590.9,-28.78"/>
<polygon fill="#63b8ff" stroke="#63b8ff" points="591.79,-32.17 600.27,-25.82 589.68,-25.5 591.79,-32.17"/>
</a>
</g>
</g>
<!-- Node14 -->
<g id="Node000014" class="node">
<title>Node14</title>
<g id="a_Node000014"><a xlink:title=" ">
<polygon fill="#e0e0e0" stroke="#999999" points="781.75,-30.5 678,-30.5 678,0 781.75,0 781.75,-30.5"/>
<text text-anchor="start" x="686" y="-17" font-family="Helvetica,sans-Serif" font-size="10.00">Optimist/RootFinder</text>
<text text-anchor="middle" x="729.88" y="-5.75" font-family="Helvetica,sans-Serif" font-size="10.00">/Newton.hh</text>
</a>
</g>
</g>
<!-- Node4&#45;&gt;Node14 -->
<g id="edge13_Node000004_Node000014" class="edge">
<title>Node4&#45;&gt;Node14</title>
<g id="a_edge13_Node000004_Node000014"><a xlink:title=" ">
<path fill="none" stroke="#63b8ff" d="M398.31,-71.25C451.96,-64.64 562.78,-50.18 666.4,-30.87"/>
<polygon fill="#63b8ff" stroke="#63b8ff" points="667.03,-34.31 676.21,-29.02 665.73,-27.44 667.03,-34.31"/>
</a>
</g>
</g>
<!-- Node15&#45;&gt;Node4 -->
<g id="edge15_Node000015_Node000004" class="edge">
<title>Node15&#45;&gt;Node4</title>
<g id="a_edge15_Node000015_Node000004"><a xlink:title=" ">
<path fill="none" stroke="#63b8ff" d="M254.61,-121.34C275.97,-112.85 308.22,-100.04 332.5,-90.39"/>
<polygon fill="#63b8ff" stroke="#63b8ff" points="333.63,-93.71 341.63,-86.76 331.04,-87.2 333.63,-93.71"/>
</a>
</g>
</g>
<!-- Node16&#45;&gt;Node4 -->
<g id="edge17_Node000016_Node000004" class="edge">
<title>Node16&#45;&gt;Node4</title>
<g id="a_edge17_Node000016_Node000004"><a xlink:title=" ">
<path fill="none" stroke="#63b8ff" d="M271.82,-176.62C281.5,-167.77 296.5,-153.76 308.88,-141 323.69,-125.72 339.77,-107.54 351.07,-94.49"/>
<polygon fill="#63b8ff" stroke="#63b8ff" points="353.5,-97.02 357.37,-87.16 348.19,-92.46 353.5,-97.02"/>
</a>
</g>
</g>
<!-- Node16&#45;&gt;Node15 -->
<g id="edge18_Node000016_Node000015" class="edge">
<title>Node16&#45;&gt;Node15</title>
<g id="a_edge18_Node000016_Node000015"><a xlink:title=" ">
<path fill="none" stroke="#63b8ff" d="M256.92,-176.83C252.99,-169.86 247.36,-159.87 242.44,-151.12"/>
<polygon fill="#63b8ff" stroke="#63b8ff" points="245.64,-149.67 237.68,-142.68 239.54,-153.11 245.64,-149.67"/>
</a>
</g>
</g>
<!-- Node17&#45;&gt;Node4 -->
<g id="edge20_Node000017_Node000004" class="edge">
<title>Node17&#45;&gt;Node4</title>
<g id="a_edge20_Node000017_Node000004"><a xlink:title=" ">
<path fill="none" stroke="#63b8ff" d="M288.56,-231.81C305.47,-224.71 326.42,-213.18 338.88,-196.25 360.49,-166.87 365.25,-123.19 366.04,-97.69"/>
<polygon fill="#63b8ff" stroke="#63b8ff" points="369.54,-97.73 366.15,-87.7 362.54,-97.66 369.54,-97.73"/>
</a>
</g>
</g>
<!-- Node17&#45;&gt;Node16 -->
<g id="edge21_Node000017_Node000016" class="edge">
<title>Node17&#45;&gt;Node16</title>
<g id="a_edge21_Node000017_Node000016"><a xlink:title=" ">
<path fill="none" stroke="#63b8ff" d="M261.88,-232.08C261.88,-225.57 261.88,-216.42 261.88,-208.12"/>
<polygon fill="#63b8ff" stroke="#63b8ff" points="265.38,-208.12 261.88,-198.12 258.38,-208.12 265.38,-208.12"/>
</a>
</g>
</g>
<!-- Node18&#45;&gt;Node4 -->
<g id="edge23_Node000018_Node000004" class="edge">
<title>Node18&#45;&gt;Node4</title>
<g id="a_edge23_Node000018_Node000004"><a xlink:title=" ">
<path fill="none" stroke="#63b8ff" d="M421.7,-232.07C412.5,-206.53 385.63,-131.95 372.82,-96.4"/>
<polygon fill="#63b8ff" stroke="#63b8ff" points="376.26,-95.62 369.58,-87.4 369.67,-97.99 376.26,-95.62"/>
</a>
</g>
</g>
<!-- Node18&#45;&gt;Node16 -->
<g id="edge24_Node000018_Node000016" class="edge">
<title>Node18&#45;&gt;Node16</title>
<g id="a_edge24_Node000018_Node000016"><a xlink:title=" ">
<path fill="none" stroke="#63b8ff" d="M397.22,-231.84C370.65,-223.16 330.24,-209.96 300.49,-200.24"/>
<polygon fill="#63b8ff" stroke="#63b8ff" points="301.69,-196.95 291.1,-197.17 299.52,-203.6 301.69,-196.95"/>
</a>
</g>
</g>
<!-- Node19&#45;&gt;Node4 -->
<g id="edge26_Node000019_Node000004" class="edge">
<title>Node19&#45;&gt;Node4</title>
<g id="a_edge26_Node000019_Node000004"><a xlink:title=" ">
<path fill="none" stroke="#63b8ff" d="M483.79,-121.34C460.94,-112.77 426.36,-99.81 400.55,-90.13"/>
<polygon fill="#63b8ff" stroke="#63b8ff" points="402.09,-86.97 391.5,-86.73 399.63,-93.52 402.09,-86.97"/>
</a>
</g>
</g>
<!-- Node20&#45;&gt;Node4 -->
<g id="edge28_Node000020_Node000004" class="edge">
<title>Node20&#45;&gt;Node4</title>
<g id="a_edge28_Node000020_Node000004"><a xlink:title=" ">
<path fill="none" stroke="#63b8ff" d="M596.27,-176.65C593.28,-162.67 585.48,-135.83 567.88,-121.75 543.88,-102.56 461.76,-89.09 409.91,-82.27"/>
<polygon fill="#63b8ff" stroke="#63b8ff" points="410.56,-78.82 400.2,-81.02 409.67,-85.77 410.56,-78.82"/>
</a>
</g>
</g>
</g>
</svg>
