<?xml version="1.0" encoding="UTF-8" standalone="no"?>
<!DOCTYPE svg PUBLIC "-//W3C//DTD SVG 1.1//EN"
 "http://www.w3.org/Graphics/SVG/1.1/DTD/svg11.dtd">
<!-- Generated by graphviz version 12.2.1 (20241206.2353)
 -->
<!-- Title: include/Sandals/RungeKutta/Heun3.hh Pages: 1 -->
<svg width="741pt" height="381pt"
 viewBox="0.00 0.00 740.71 381.25" xmlns="http://www.w3.org/2000/svg" xmlns:xlink="http://www.w3.org/1999/xlink">
<g id="graph0" class="graph" transform="scale(1 1) rotate(0) translate(4 377.25)">
<title>include/Sandals/RungeKutta/Heun3.hh</title>
<!-- Node1 -->
<g id="Node000001" class="node">
<title>Node1</title>
<g id="a_Node000001"><a xlink:title=" ">
<polygon fill="#999999" stroke="#666666" points="236.71,-373.25 96.96,-373.25 96.96,-342.75 236.71,-342.75 236.71,-373.25"/>
<text text-anchor="start" x="104.96" y="-359.75" font-family="Helvetica,sans-Serif" font-size="10.00">include/Sandals/RungeKutta</text>
<text text-anchor="middle" x="166.84" y="-348.5" font-family="Helvetica,sans-Serif" font-size="10.00">/Heun3.hh</text>
</a>
</g>
</g>
<!-- Node2 -->
<g id="Node000002" class="node">
<title>Node2</title>
<g id="a_Node000002"><a xlink:href="_sandals_8hh.html" target="_top" xlink:title=" ">
<polygon fill="white" stroke="#666666" points="349.21,-85.75 284.46,-85.75 284.46,-66.5 349.21,-66.5 349.21,-85.75"/>
<text text-anchor="middle" x="316.84" y="-72.25" font-family="Helvetica,sans-Serif" font-size="10.00">Sandals.hh</text>
</a>
</g>
</g>
<!-- Node1&#45;&gt;Node2 -->
<g id="edge1_Node000001_Node000002" class="edge">
<title>Node1&#45;&gt;Node2</title>
<g id="a_edge1_Node000001_Node000002"><a xlink:title=" ">
<path fill="none" stroke="#63b8ff" d="M107.38,-342.27C59.75,-326.5 0.84,-296.21 0.84,-242.88 0.84,-242.88 0.84,-242.88 0.84,-185.62 0.84,-156.01 -2.52,-141.18 19.84,-121.75 56.82,-89.61 199.58,-80.61 272.87,-78.1"/>
<polygon fill="#63b8ff" stroke="#63b8ff" points="272.61,-81.61 282.5,-77.79 272.39,-74.61 272.61,-81.61"/>
</a>
</g>
</g>
<!-- Node13 -->
<g id="Node000013" class="node">
<title>Node13</title>
<g id="a_Node000013"><a xlink:href="_runge_kutta_8hh.html" target="_top" xlink:title=" ">
<polygon fill="white" stroke="#666666" points="401.59,-306.75 282.09,-306.75 282.09,-287.5 401.59,-287.5 401.59,-306.75"/>
<text text-anchor="middle" x="341.84" y="-293.25" font-family="Helvetica,sans-Serif" font-size="10.00">Sandals/RungeKutta.hh</text>
</a>
</g>
</g>
<!-- Node1&#45;&gt;Node13 -->
<g id="edge12_Node000001_Node000013" class="edge">
<title>Node1&#45;&gt;Node13</title>
<g id="a_edge12_Node000001_Node000013"><a xlink:title=" ">
<path fill="none" stroke="#63b8ff" d="M210.55,-342.3C239.29,-332.63 276.52,-320.1 303.99,-310.86"/>
<polygon fill="#63b8ff" stroke="#63b8ff" points="304.95,-314.23 313.31,-307.72 302.71,-307.59 304.95,-314.23"/>
</a>
</g>
</g>
<!-- Node3 -->
<g id="Node000003" class="node">
<title>Node3</title>
<g id="a_Node000003"><a xlink:title=" ">
<polygon fill="#e0e0e0" stroke="#999999" points="70.59,-24.88 17.09,-24.88 17.09,-5.63 70.59,-5.63 70.59,-24.88"/>
<text text-anchor="middle" x="43.84" y="-11.38" font-family="Helvetica,sans-Serif" font-size="10.00">iostream</text>
</a>
</g>
</g>
<!-- Node2&#45;&gt;Node3 -->
<g id="edge2_Node000002_Node000003" class="edge">
<title>Node2&#45;&gt;Node3</title>
<g id="a_edge2_Node000002_Node000003"><a xlink:title=" ">
<path fill="none" stroke="#63b8ff" d="M284.18,-70.99C238.05,-64.69 151.43,-51.2 79.84,-30.5 78.46,-30.1 77.06,-29.67 75.65,-29.21"/>
<polygon fill="#63b8ff" stroke="#63b8ff" points="76.95,-25.96 66.35,-25.88 74.59,-32.55 76.95,-25.96"/>
</a>
</g>
</g>
<!-- Node4 -->
<g id="Node000004" class="node">
<title>Node4</title>
<g id="a_Node000004"><a xlink:title=" ">
<polygon fill="#e0e0e0" stroke="#999999" points="128.84,-24.88 88.84,-24.88 88.84,-5.63 128.84,-5.63 128.84,-24.88"/>
<text text-anchor="middle" x="108.84" y="-11.38" font-family="Helvetica,sans-Serif" font-size="10.00">string</text>
</a>
</g>
</g>
<!-- Node2&#45;&gt;Node4 -->
<g id="edge3_Node000002_Node000004" class="edge">
<title>Node2&#45;&gt;Node4</title>
<g id="a_edge3_Node000002_Node000004"><a xlink:title=" ">
<path fill="none" stroke="#63b8ff" d="M284.21,-69.16C247.85,-62.02 187.62,-48.7 137.84,-30.5 137.21,-30.27 136.58,-30.03 135.95,-29.79"/>
<polygon fill="#63b8ff" stroke="#63b8ff" points="137.7,-26.73 127.14,-25.92 134.88,-33.14 137.7,-26.73"/>
</a>
</g>
</g>
<!-- Node5 -->
<g id="Node000005" class="node">
<title>Node5</title>
<g id="a_Node000005"><a xlink:title=" ">
<polygon fill="#e0e0e0" stroke="#999999" points="190.34,-24.88 147.34,-24.88 147.34,-5.63 190.34,-5.63 190.34,-24.88"/>
<text text-anchor="middle" x="168.84" y="-11.38" font-family="Helvetica,sans-Serif" font-size="10.00">cmath</text>
</a>
</g>
</g>
<!-- Node2&#45;&gt;Node5 -->
<g id="edge4_Node000002_Node000005" class="edge">
<title>Node2&#45;&gt;Node5</title>
<g id="a_edge4_Node000002_Node000005"><a xlink:title=" ">
<path fill="none" stroke="#63b8ff" d="M291.28,-66.14C267.22,-57.53 230.28,-43.88 198.84,-30.5 198.36,-30.3 197.88,-30.09 197.4,-29.88"/>
<polygon fill="#63b8ff" stroke="#63b8ff" points="199.07,-26.79 188.51,-25.86 196.18,-33.17 199.07,-26.79"/>
</a>
</g>
</g>
<!-- Node6 -->
<g id="Node000006" class="node">
<title>Node6</title>
<g id="a_Node000006"><a xlink:title=" ">
<polygon fill="#e0e0e0" stroke="#999999" points="251.34,-24.88 208.34,-24.88 208.34,-5.63 251.34,-5.63 251.34,-24.88"/>
<text text-anchor="middle" x="229.84" y="-11.38" font-family="Helvetica,sans-Serif" font-size="10.00">vector</text>
</a>
</g>
</g>
<!-- Node2&#45;&gt;Node6 -->
<g id="edge5_Node000002_Node000006" class="edge">
<title>Node2&#45;&gt;Node6</title>
<g id="a_edge5_Node000002_Node000006"><a xlink:title=" ">
<path fill="none" stroke="#63b8ff" d="M303.63,-66.18C290.08,-57.02 268.77,-42.59 252.52,-31.6"/>
<polygon fill="#63b8ff" stroke="#63b8ff" points="254.67,-28.83 244.43,-26.12 250.75,-34.63 254.67,-28.83"/>
</a>
</g>
</g>
<!-- Node7 -->
<g id="Node000007" class="node">
<title>Node7</title>
<g id="a_Node000007"><a xlink:title=" ">
<polygon fill="#e0e0e0" stroke="#999999" points="304.21,-24.88 269.46,-24.88 269.46,-5.63 304.21,-5.63 304.21,-24.88"/>
<text text-anchor="middle" x="286.84" y="-11.38" font-family="Helvetica,sans-Serif" font-size="10.00">map</text>
</a>
</g>
</g>
<!-- Node2&#45;&gt;Node7 -->
<g id="edge6_Node000002_Node000007" class="edge">
<title>Node2&#45;&gt;Node7</title>
<g id="a_edge6_Node000002_Node000007"><a xlink:title=" ">
<path fill="none" stroke="#63b8ff" d="M312.28,-66.18C308.14,-58.06 301.89,-45.79 296.62,-35.45"/>
<polygon fill="#63b8ff" stroke="#63b8ff" points="299.78,-33.95 292.13,-26.62 293.55,-37.12 299.78,-33.95"/>
</a>
</g>
</g>
<!-- Node8 -->
<g id="Node000008" class="node">
<title>Node8</title>
<g id="a_Node000008"><a xlink:title=" ">
<polygon fill="#e0e0e0" stroke="#999999" points="373.46,-24.88 322.21,-24.88 322.21,-5.63 373.46,-5.63 373.46,-24.88"/>
<text text-anchor="middle" x="347.84" y="-11.38" font-family="Helvetica,sans-Serif" font-size="10.00">memory</text>
</a>
</g>
</g>
<!-- Node2&#45;&gt;Node8 -->
<g id="edge7_Node000002_Node000008" class="edge">
<title>Node2&#45;&gt;Node8</title>
<g id="a_edge7_Node000002_Node000008"><a xlink:title=" ">
<path fill="none" stroke="#63b8ff" d="M321.55,-66.18C325.83,-58.06 332.28,-45.79 337.73,-35.45"/>
<polygon fill="#63b8ff" stroke="#63b8ff" points="340.82,-37.09 342.38,-26.62 334.63,-33.83 340.82,-37.09"/>
</a>
</g>
</g>
<!-- Node9 -->
<g id="Node000009" class="node">
<title>Node9</title>
<g id="a_Node000009"><a xlink:title=" ">
<polygon fill="#e0e0e0" stroke="#999999" points="436.46,-24.88 391.21,-24.88 391.21,-5.63 436.46,-5.63 436.46,-24.88"/>
<text text-anchor="middle" x="413.84" y="-11.38" font-family="Helvetica,sans-Serif" font-size="10.00">chrono</text>
</a>
</g>
</g>
<!-- Node2&#45;&gt;Node9 -->
<g id="edge8_Node000002_Node000009" class="edge">
<title>Node2&#45;&gt;Node9</title>
<g id="a_edge8_Node000002_Node000009"><a xlink:title=" ">
<path fill="none" stroke="#63b8ff" d="M331.57,-66.18C346.88,-56.89 371.11,-42.19 389.31,-31.14"/>
<polygon fill="#63b8ff" stroke="#63b8ff" points="390.94,-34.24 397.67,-26.06 387.31,-28.26 390.94,-34.24"/>
</a>
</g>
</g>
<!-- Node10 -->
<g id="Node000010" class="node">
<title>Node10</title>
<g id="a_Node000010"><a xlink:title=" ">
<polygon fill="#e0e0e0" stroke="#999999" points="526.96,-24.88 454.71,-24.88 454.71,-5.63 526.96,-5.63 526.96,-24.88"/>
<text text-anchor="middle" x="490.84" y="-11.38" font-family="Helvetica,sans-Serif" font-size="10.00">Eigen/Dense</text>
</a>
</g>
</g>
<!-- Node2&#45;&gt;Node10 -->
<g id="edge9_Node000002_Node000010" class="edge">
<title>Node2&#45;&gt;Node10</title>
<g id="a_edge9_Node000002_Node000010"><a xlink:title=" ">
<path fill="none" stroke="#63b8ff" d="M343.65,-66.05C373.02,-56.11 420.36,-40.1 453.39,-28.92"/>
<polygon fill="#63b8ff" stroke="#63b8ff" points="454.22,-32.34 462.57,-25.82 451.97,-25.71 454.22,-32.34"/>
</a>
</g>
</g>
<!-- Node11 -->
<g id="Node000011" class="node">
<title>Node11</title>
<g id="a_Node000011"><a xlink:title=" ">
<polygon fill="#e0e0e0" stroke="#999999" points="610.96,-24.88 544.71,-24.88 544.71,-5.63 610.96,-5.63 610.96,-24.88"/>
<text text-anchor="middle" x="577.84" y="-11.38" font-family="Helvetica,sans-Serif" font-size="10.00">Optimist.hh</text>
</a>
</g>
</g>
<!-- Node2&#45;&gt;Node11 -->
<g id="edge10_Node000002_Node000011" class="edge">
<title>Node2&#45;&gt;Node11</title>
<g id="a_edge10_Node000002_Node000011"><a xlink:title=" ">
<path fill="none" stroke="#63b8ff" d="M349.42,-69.81C392.47,-62.49 470.48,-48.17 535.84,-30.5 537.82,-29.97 539.84,-29.39 541.87,-28.78"/>
<polygon fill="#63b8ff" stroke="#63b8ff" points="542.76,-32.17 551.24,-25.82 540.65,-25.5 542.76,-32.17"/>
</a>
</g>
</g>
<!-- Node12 -->
<g id="Node000012" class="node">
<title>Node12</title>
<g id="a_Node000012"><a xlink:title=" ">
<polygon fill="#e0e0e0" stroke="#999999" points="732.71,-30.5 628.96,-30.5 628.96,0 732.71,0 732.71,-30.5"/>
<text text-anchor="start" x="636.96" y="-17" font-family="Helvetica,sans-Serif" font-size="10.00">Optimist/RootFinder</text>
<text text-anchor="middle" x="680.84" y="-5.75" font-family="Helvetica,sans-Serif" font-size="10.00">/Newton.hh</text>
</a>
</g>
</g>
<!-- Node2&#45;&gt;Node12 -->
<g id="edge11_Node000002_Node000012" class="edge">
<title>Node2&#45;&gt;Node12</title>
<g id="a_edge11_Node000002_Node000012"><a xlink:title=" ">
<path fill="none" stroke="#63b8ff" d="M349.27,-71.25C402.93,-64.64 513.74,-50.18 617.36,-30.87"/>
<polygon fill="#63b8ff" stroke="#63b8ff" points="617.99,-34.31 627.17,-29.02 616.69,-27.44 617.99,-34.31"/>
</a>
</g>
</g>
<!-- Node13&#45;&gt;Node2 -->
<g id="edge14_Node000013_Node000002" class="edge">
<title>Node13&#45;&gt;Node2</title>
<g id="a_edge14_Node000013_Node000002"><a xlink:title=" ">
<path fill="none" stroke="#63b8ff" d="M401.81,-293.78C494.92,-287.43 659.35,-263.94 616.84,-177 599.28,-141.08 582.24,-138.3 545.84,-121.75 485.34,-94.23 408.31,-83.66 360.8,-79.61"/>
<polygon fill="#63b8ff" stroke="#63b8ff" points="361.14,-76.13 350.89,-78.83 360.59,-83.1 361.14,-76.13"/>
</a>
</g>
</g>
<!-- Node14 -->
<g id="Node000014" class="node">
<title>Node14</title>
<g id="a_Node000014"><a xlink:title=" ">
<polygon fill="#e0e0e0" stroke="#999999" points="489.71,-251.5 439.96,-251.5 439.96,-232.25 489.71,-232.25 489.71,-251.5"/>
<text text-anchor="middle" x="464.84" y="-238" font-family="Helvetica,sans-Serif" font-size="10.00">optional</text>
</a>
</g>
</g>
<!-- Node13&#45;&gt;Node14 -->
<g id="edge13_Node000013_Node000014" class="edge">
<title>Node13&#45;&gt;Node14</title>
<g id="a_edge13_Node000013_Node000014"><a xlink:title=" ">
<path fill="none" stroke="#63b8ff" d="M362.7,-287.09C382.14,-278.68 411.38,-266.02 433.6,-256.4"/>
<polygon fill="#63b8ff" stroke="#63b8ff" points="434.7,-259.74 442.48,-252.55 431.92,-253.31 434.7,-259.74"/>
</a>
</g>
</g>
<!-- Node15 -->
<g id="Node000015" class="node">
<title>Node15</title>
<g id="a_Node000015"><a xlink:href="_implicit_8hh.html" target="_top" xlink:title=" ">
<polygon fill="white" stroke="#666666" points="514.84,-141 378.84,-141 378.84,-121.75 514.84,-121.75 514.84,-141"/>
<text text-anchor="middle" x="446.84" y="-127.5" font-family="Helvetica,sans-Serif" font-size="10.00">Sandals/System/Implicit.hh</text>
</a>
</g>
</g>
<!-- Node13&#45;&gt;Node15 -->
<g id="edge15_Node000013_Node000015" class="edge">
<title>Node13&#45;&gt;Node15</title>
<g id="a_edge15_Node000013_Node000015"><a xlink:title=" ">
<path fill="none" stroke="#63b8ff" d="M400.3,-287.01C439.73,-279.53 486.71,-267.55 498.84,-251.5 511.44,-234.82 478.57,-179.9 459.45,-150.82"/>
<polygon fill="#63b8ff" stroke="#63b8ff" points="462.45,-149.01 453.97,-142.65 456.63,-152.91 462.45,-149.01"/>
</a>
</g>
</g>
<!-- Node16 -->
<g id="Node000016" class="node">
<title>Node16</title>
<g id="a_Node000016"><a xlink:href="_explicit_8hh.html" target="_top" xlink:title=" ">
<polygon fill="white" stroke="#666666" points="323.21,-196.25 186.46,-196.25 186.46,-177 323.21,-177 323.21,-196.25"/>
<text text-anchor="middle" x="254.84" y="-182.75" font-family="Helvetica,sans-Serif" font-size="10.00">Sandals/System/Explicit.hh</text>
</a>
</g>
</g>
<!-- Node13&#45;&gt;Node16 -->
<g id="edge17_Node000013_Node000016" class="edge">
<title>Node13&#45;&gt;Node16</title>
<g id="a_edge17_Node000013_Node000016"><a xlink:title=" ">
<path fill="none" stroke="#63b8ff" d="M303.78,-287.16C284.99,-280.6 264.01,-269.59 252.84,-251.5 244.81,-238.49 246,-220.98 248.82,-207.58"/>
<polygon fill="#63b8ff" stroke="#63b8ff" points="252.14,-208.7 251.26,-198.14 245.37,-206.95 252.14,-208.7"/>
</a>
</g>
</g>
<!-- Node17 -->
<g id="Node000017" class="node">
<title>Node17</title>
<g id="a_Node000017"><a xlink:href="_semi_explicit_8hh.html" target="_top" xlink:title=" ">
<polygon fill="white" stroke="#666666" points="421.46,-251.5 262.21,-251.5 262.21,-232.25 421.46,-232.25 421.46,-251.5"/>
<text text-anchor="middle" x="341.84" y="-238" font-family="Helvetica,sans-Serif" font-size="10.00">Sandals/System/SemiExplicit.hh</text>
</a>
</g>
</g>
<!-- Node13&#45;&gt;Node17 -->
<g id="edge20_Node000013_Node000017" class="edge">
<title>Node13&#45;&gt;Node17</title>
<g id="a_edge20_Node000013_Node000017"><a xlink:title=" ">
<path fill="none" stroke="#63b8ff" d="M341.84,-287.33C341.84,-280.82 341.84,-271.67 341.84,-263.37"/>
<polygon fill="#63b8ff" stroke="#63b8ff" points="345.34,-263.37 341.84,-253.37 338.34,-263.37 345.34,-263.37"/>
</a>
</g>
</g>
<!-- Node18 -->
<g id="Node000018" class="node">
<title>Node18</title>
<g id="a_Node000018"><a xlink:href="_linear_8hh.html" target="_top" xlink:title=" ">
<polygon fill="white" stroke="#666666" points="205.84,-251.5 75.84,-251.5 75.84,-232.25 205.84,-232.25 205.84,-251.5"/>
<text text-anchor="middle" x="140.84" y="-238" font-family="Helvetica,sans-Serif" font-size="10.00">Sandals/System/Linear.hh</text>
</a>
</g>
</g>
<!-- Node13&#45;&gt;Node18 -->
<g id="edge23_Node000013_Node000018" class="edge">
<title>Node13&#45;&gt;Node18</title>
<g id="a_edge23_Node000013_Node000018"><a xlink:title=" ">
<path fill="none" stroke="#63b8ff" d="M307.74,-287.09C274.25,-278.22 222.94,-264.62 186.05,-254.85"/>
<polygon fill="#63b8ff" stroke="#63b8ff" points="187.13,-251.52 176.57,-252.34 185.34,-258.28 187.13,-251.52"/>
</a>
</g>
</g>
<!-- Node19 -->
<g id="Node000019" class="node">
<title>Node19</title>
<g id="a_Node000019"><a xlink:href="_tableau_8hh.html" target="_top" xlink:title=" ">
<polygon fill="white" stroke="#666666" points="130.59,-141 29.09,-141 29.09,-121.75 130.59,-121.75 130.59,-141"/>
<text text-anchor="middle" x="79.84" y="-127.5" font-family="Helvetica,sans-Serif" font-size="10.00">Sandals/Tableau.hh</text>
</a>
</g>
</g>
<!-- Node13&#45;&gt;Node19 -->
<g id="edge26_Node000013_Node000019" class="edge">
<title>Node13&#45;&gt;Node19</title>
<g id="a_edge26_Node000013_Node000019"><a xlink:title=" ">
<path fill="none" stroke="#63b8ff" d="M281.78,-295.12C209.34,-292.49 93.87,-283.27 66.84,-251.5 43,-223.48 58.3,-177.33 70.04,-151.47"/>
<polygon fill="#63b8ff" stroke="#63b8ff" points="73.02,-153.33 74.22,-142.81 66.72,-150.29 73.02,-153.33"/>
</a>
</g>
</g>
<!-- Node20 -->
<g id="Node000020" class="node">
<title>Node20</title>
<g id="a_Node000020"><a xlink:href="_solution_8hh.html" target="_top" xlink:title=" ">
<polygon fill="white" stroke="#666666" points="607.34,-196.25 504.34,-196.25 504.34,-177 607.34,-177 607.34,-196.25"/>
<text text-anchor="middle" x="555.84" y="-182.75" font-family="Helvetica,sans-Serif" font-size="10.00">Sandals/Solution.hh</text>
</a>
</g>
</g>
<!-- Node13&#45;&gt;Node20 -->
<g id="edge28_Node000013_Node000020" class="edge">
<title>Node13&#45;&gt;Node20</title>
<g id="a_edge28_Node000013_Node000020"><a xlink:title=" ">
<path fill="none" stroke="#63b8ff" d="M401.81,-288.29C449.97,-280.88 512.62,-268.39 531.84,-251.5 544.5,-240.37 550.5,-221.88 553.34,-207.64"/>
<polygon fill="#63b8ff" stroke="#63b8ff" points="556.75,-208.45 554.86,-198.02 549.84,-207.35 556.75,-208.45"/>
</a>
</g>
</g>
<!-- Node15&#45;&gt;Node2 -->
<g id="edge16_Node000015_Node000002" class="edge">
<title>Node15&#45;&gt;Node2</title>
<g id="a_edge16_Node000015_Node000002"><a xlink:title=" ">
<path fill="none" stroke="#63b8ff" d="M424.79,-121.34C404.15,-112.89 373.06,-100.15 349.54,-90.52"/>
<polygon fill="#63b8ff" stroke="#63b8ff" points="350.98,-87.33 340.4,-86.78 348.33,-93.81 350.98,-87.33"/>
</a>
</g>
</g>
<!-- Node16&#45;&gt;Node2 -->
<g id="edge18_Node000016_Node000002" class="edge">
<title>Node16&#45;&gt;Node2</title>
<g id="a_edge18_Node000016_Node000002"><a xlink:title=" ">
<path fill="none" stroke="#63b8ff" d="M259.91,-176.75C269.95,-159.18 292.53,-119.66 306.04,-96.02"/>
<polygon fill="#63b8ff" stroke="#63b8ff" points="309.02,-97.86 310.94,-87.44 302.94,-94.39 309.02,-97.86"/>
</a>
</g>
</g>
<!-- Node16&#45;&gt;Node15 -->
<g id="edge19_Node000016_Node000015" class="edge">
<title>Node16&#45;&gt;Node15</title>
<g id="a_edge19_Node000016_Node000015"><a xlink:title=" ">
<path fill="none" stroke="#63b8ff" d="M287.41,-176.59C319.27,-167.76 368,-154.24 403.19,-144.48"/>
<polygon fill="#63b8ff" stroke="#63b8ff" points="403.95,-147.9 412.65,-141.86 402.08,-141.16 403.95,-147.9"/>
</a>
</g>
</g>
<!-- Node17&#45;&gt;Node2 -->
<g id="edge21_Node000017_Node000002" class="edge">
<title>Node17&#45;&gt;Node2</title>
<g id="a_edge21_Node000017_Node000002"><a xlink:title=" ">
<path fill="none" stroke="#63b8ff" d="M340.5,-232.07C336.63,-206.75 325.41,-133.25 319.93,-97.34"/>
<polygon fill="#63b8ff" stroke="#63b8ff" points="323.39,-96.83 318.42,-87.47 316.47,-97.88 323.39,-96.83"/>
</a>
</g>
</g>
<!-- Node17&#45;&gt;Node16 -->
<g id="edge22_Node000017_Node000016" class="edge">
<title>Node17&#45;&gt;Node16</title>
<g id="a_edge22_Node000017_Node000016"><a xlink:title=" ">
<path fill="none" stroke="#63b8ff" d="M327.08,-231.84C313.96,-223.81 294.52,-211.91 279.11,-202.48"/>
<polygon fill="#63b8ff" stroke="#63b8ff" points="281.32,-199.73 270.96,-197.49 277.66,-205.7 281.32,-199.73"/>
</a>
</g>
</g>
<!-- Node18&#45;&gt;Node2 -->
<g id="edge24_Node000018_Node000002" class="edge">
<title>Node18&#45;&gt;Node2</title>
<g id="a_edge24_Node000018_Node000002"><a xlink:title=" ">
<path fill="none" stroke="#63b8ff" d="M144.59,-231.85C150.35,-218.73 162.35,-194.09 177.84,-177 211.22,-140.17 260.33,-108.83 290.35,-91.53"/>
<polygon fill="#63b8ff" stroke="#63b8ff" points="291.82,-94.72 298.8,-86.75 288.38,-88.63 291.82,-94.72"/>
</a>
</g>
</g>
<!-- Node18&#45;&gt;Node16 -->
<g id="edge25_Node000018_Node000016" class="edge">
<title>Node18&#45;&gt;Node16</title>
<g id="a_edge25_Node000018_Node000016"><a xlink:title=" ">
<path fill="none" stroke="#63b8ff" d="M160.18,-231.84C177.95,-223.54 204.56,-211.11 225.04,-201.54"/>
<polygon fill="#63b8ff" stroke="#63b8ff" points="226.46,-204.75 234.03,-197.34 223.49,-198.4 226.46,-204.75"/>
</a>
</g>
</g>
<!-- Node19&#45;&gt;Node2 -->
<g id="edge27_Node000019_Node000002" class="edge">
<title>Node19&#45;&gt;Node2</title>
<g id="a_edge27_Node000019_Node000002"><a xlink:title=" ">
<path fill="none" stroke="#63b8ff" d="M120.31,-121.28C162.79,-111.74 229.34,-96.78 273.03,-86.97"/>
<polygon fill="#63b8ff" stroke="#63b8ff" points="273.7,-90.41 282.69,-84.8 272.16,-83.58 273.7,-90.41"/>
</a>
</g>
</g>
<!-- Node20&#45;&gt;Node2 -->
<g id="edge29_Node000020_Node000002" class="edge">
<title>Node20&#45;&gt;Node2</title>
<g id="a_edge29_Node000020_Node000002"><a xlink:title=" ">
<path fill="none" stroke="#63b8ff" d="M553.95,-176.63C550.52,-162.61 541.88,-135.73 523.84,-121.75 498.8,-102.34 413.65,-88.84 360.68,-82.09"/>
<polygon fill="#63b8ff" stroke="#63b8ff" points="361.43,-78.65 351.07,-80.9 360.57,-85.6 361.43,-78.65"/>
</a>
</g>
</g>
</g>
</svg>
