<?xml version="1.0" encoding="UTF-8" standalone="no"?>
<!DOCTYPE svg PUBLIC "-//W3C//DTD SVG 1.1//EN"
 "http://www.w3.org/Graphics/SVG/1.1/DTD/svg11.dtd">
<!-- Generated by graphviz version 12.2.1 (20241206.2353)
 -->
<!-- Title: include/Sandals/System/Implicit.hh Pages: 1 -->
<svg width="724pt" height="160pt"
 viewBox="0.00 0.00 723.62 160.25" xmlns="http://www.w3.org/2000/svg" xmlns:xlink="http://www.w3.org/1999/xlink">
<g id="graph0" class="graph" transform="scale(1 1) rotate(0) translate(4 156.25)">
<title>include/Sandals/System/Implicit.hh</title>
<!-- Node1 -->
<g id="Node000001" class="node">
<title>Node1</title>
<g id="a_Node000001"><a xlink:title=" ">
<polygon fill="#999999" stroke="#666666" points="360.62,-152.25 238.88,-152.25 238.88,-121.75 360.62,-121.75 360.62,-152.25"/>
<text text-anchor="start" x="246.88" y="-138.75" font-family="Helvetica,sans-Serif" font-size="10.00">include/Sandals/System</text>
<text text-anchor="middle" x="299.75" y="-127.5" font-family="Helvetica,sans-Serif" font-size="10.00">/Implicit.hh</text>
</a>
</g>
</g>
<!-- Node2 -->
<g id="Node000002" class="node">
<title>Node2</title>
<g id="a_Node000002"><a xlink:href="_sandals_8hh.html" target="_top" xlink:title=" ">
<polygon fill="white" stroke="#666666" points="332.12,-85.75 267.38,-85.75 267.38,-66.5 332.12,-66.5 332.12,-85.75"/>
<text text-anchor="middle" x="299.75" y="-72.25" font-family="Helvetica,sans-Serif" font-size="10.00">Sandals.hh</text>
</a>
</g>
</g>
<!-- Node1&#45;&gt;Node2 -->
<g id="edge1_Node000001_Node000002" class="edge">
<title>Node1&#45;&gt;Node2</title>
<g id="a_edge1_Node000001_Node000002"><a xlink:title=" ">
<path fill="none" stroke="#63b8ff" d="M299.75,-121.45C299.75,-114.21 299.75,-105.34 299.75,-97.44"/>
<polygon fill="#63b8ff" stroke="#63b8ff" points="303.25,-97.71 299.75,-87.71 296.25,-97.71 303.25,-97.71"/>
</a>
</g>
</g>
<!-- Node3 -->
<g id="Node000003" class="node">
<title>Node3</title>
<g id="a_Node000003"><a xlink:title=" ">
<polygon fill="#e0e0e0" stroke="#999999" points="53.5,-24.88 0,-24.88 0,-5.63 53.5,-5.63 53.5,-24.88"/>
<text text-anchor="middle" x="26.75" y="-11.38" font-family="Helvetica,sans-Serif" font-size="10.00">iostream</text>
</a>
</g>
</g>
<!-- Node2&#45;&gt;Node3 -->
<g id="edge2_Node000002_Node000003" class="edge">
<title>Node2&#45;&gt;Node3</title>
<g id="a_edge2_Node000002_Node000003"><a xlink:title=" ">
<path fill="none" stroke="#63b8ff" d="M267.09,-70.99C220.96,-64.69 134.34,-51.2 62.75,-30.5 61.37,-30.1 59.97,-29.67 58.56,-29.21"/>
<polygon fill="#63b8ff" stroke="#63b8ff" points="59.86,-25.96 49.26,-25.88 57.5,-32.55 59.86,-25.96"/>
</a>
</g>
</g>
<!-- Node4 -->
<g id="Node000004" class="node">
<title>Node4</title>
<g id="a_Node000004"><a xlink:title=" ">
<polygon fill="#e0e0e0" stroke="#999999" points="111.75,-24.88 71.75,-24.88 71.75,-5.63 111.75,-5.63 111.75,-24.88"/>
<text text-anchor="middle" x="91.75" y="-11.38" font-family="Helvetica,sans-Serif" font-size="10.00">string</text>
</a>
</g>
</g>
<!-- Node2&#45;&gt;Node4 -->
<g id="edge3_Node000002_Node000004" class="edge">
<title>Node2&#45;&gt;Node4</title>
<g id="a_edge3_Node000002_Node000004"><a xlink:title=" ">
<path fill="none" stroke="#63b8ff" d="M267.12,-69.16C230.76,-62.02 170.53,-48.7 120.75,-30.5 120.12,-30.27 119.49,-30.03 118.86,-29.79"/>
<polygon fill="#63b8ff" stroke="#63b8ff" points="120.61,-26.73 110.05,-25.92 117.8,-33.14 120.61,-26.73"/>
</a>
</g>
</g>
<!-- Node5 -->
<g id="Node000005" class="node">
<title>Node5</title>
<g id="a_Node000005"><a xlink:title=" ">
<polygon fill="#e0e0e0" stroke="#999999" points="173.25,-24.88 130.25,-24.88 130.25,-5.63 173.25,-5.63 173.25,-24.88"/>
<text text-anchor="middle" x="151.75" y="-11.38" font-family="Helvetica,sans-Serif" font-size="10.00">cmath</text>
</a>
</g>
</g>
<!-- Node2&#45;&gt;Node5 -->
<g id="edge4_Node000002_Node000005" class="edge">
<title>Node2&#45;&gt;Node5</title>
<g id="a_edge4_Node000002_Node000005"><a xlink:title=" ">
<path fill="none" stroke="#63b8ff" d="M274.19,-66.14C250.13,-57.53 213.19,-43.88 181.75,-30.5 181.27,-30.3 180.79,-30.09 180.31,-29.88"/>
<polygon fill="#63b8ff" stroke="#63b8ff" points="181.98,-26.79 171.42,-25.86 179.09,-33.17 181.98,-26.79"/>
</a>
</g>
</g>
<!-- Node6 -->
<g id="Node000006" class="node">
<title>Node6</title>
<g id="a_Node000006"><a xlink:title=" ">
<polygon fill="#e0e0e0" stroke="#999999" points="234.25,-24.88 191.25,-24.88 191.25,-5.63 234.25,-5.63 234.25,-24.88"/>
<text text-anchor="middle" x="212.75" y="-11.38" font-family="Helvetica,sans-Serif" font-size="10.00">vector</text>
</a>
</g>
</g>
<!-- Node2&#45;&gt;Node6 -->
<g id="edge5_Node000002_Node000006" class="edge">
<title>Node2&#45;&gt;Node6</title>
<g id="a_edge5_Node000002_Node000006"><a xlink:title=" ">
<path fill="none" stroke="#63b8ff" d="M286.54,-66.18C273,-57.02 251.68,-42.59 235.43,-31.6"/>
<polygon fill="#63b8ff" stroke="#63b8ff" points="237.58,-28.83 227.34,-26.12 233.66,-34.63 237.58,-28.83"/>
</a>
</g>
</g>
<!-- Node7 -->
<g id="Node000007" class="node">
<title>Node7</title>
<g id="a_Node000007"><a xlink:title=" ">
<polygon fill="#e0e0e0" stroke="#999999" points="287.12,-24.88 252.38,-24.88 252.38,-5.63 287.12,-5.63 287.12,-24.88"/>
<text text-anchor="middle" x="269.75" y="-11.38" font-family="Helvetica,sans-Serif" font-size="10.00">map</text>
</a>
</g>
</g>
<!-- Node2&#45;&gt;Node7 -->
<g id="edge6_Node000002_Node000007" class="edge">
<title>Node2&#45;&gt;Node7</title>
<g id="a_edge6_Node000002_Node000007"><a xlink:title=" ">
<path fill="none" stroke="#63b8ff" d="M295.19,-66.18C291.05,-58.06 284.8,-45.79 279.54,-35.45"/>
<polygon fill="#63b8ff" stroke="#63b8ff" points="282.7,-33.95 275.04,-26.62 276.46,-37.12 282.7,-33.95"/>
</a>
</g>
</g>
<!-- Node8 -->
<g id="Node000008" class="node">
<title>Node8</title>
<g id="a_Node000008"><a xlink:title=" ">
<polygon fill="#e0e0e0" stroke="#999999" points="356.38,-24.88 305.12,-24.88 305.12,-5.63 356.38,-5.63 356.38,-24.88"/>
<text text-anchor="middle" x="330.75" y="-11.38" font-family="Helvetica,sans-Serif" font-size="10.00">memory</text>
</a>
</g>
</g>
<!-- Node2&#45;&gt;Node8 -->
<g id="edge7_Node000002_Node000008" class="edge">
<title>Node2&#45;&gt;Node8</title>
<g id="a_edge7_Node000002_Node000008"><a xlink:title=" ">
<path fill="none" stroke="#63b8ff" d="M304.46,-66.18C308.74,-58.06 315.19,-45.79 320.64,-35.45"/>
<polygon fill="#63b8ff" stroke="#63b8ff" points="323.73,-37.09 325.29,-26.62 317.54,-33.83 323.73,-37.09"/>
</a>
</g>
</g>
<!-- Node9 -->
<g id="Node000009" class="node">
<title>Node9</title>
<g id="a_Node000009"><a xlink:title=" ">
<polygon fill="#e0e0e0" stroke="#999999" points="419.38,-24.88 374.12,-24.88 374.12,-5.63 419.38,-5.63 419.38,-24.88"/>
<text text-anchor="middle" x="396.75" y="-11.38" font-family="Helvetica,sans-Serif" font-size="10.00">chrono</text>
</a>
</g>
</g>
<!-- Node2&#45;&gt;Node9 -->
<g id="edge8_Node000002_Node000009" class="edge">
<title>Node2&#45;&gt;Node9</title>
<g id="a_edge8_Node000002_Node000009"><a xlink:title=" ">
<path fill="none" stroke="#63b8ff" d="M314.48,-66.18C329.79,-56.89 354.02,-42.19 372.22,-31.14"/>
<polygon fill="#63b8ff" stroke="#63b8ff" points="373.85,-34.24 380.59,-26.06 370.22,-28.26 373.85,-34.24"/>
</a>
</g>
</g>
<!-- Node10 -->
<g id="Node000010" class="node">
<title>Node10</title>
<g id="a_Node000010"><a xlink:title=" ">
<polygon fill="#e0e0e0" stroke="#999999" points="509.88,-24.88 437.62,-24.88 437.62,-5.63 509.88,-5.63 509.88,-24.88"/>
<text text-anchor="middle" x="473.75" y="-11.38" font-family="Helvetica,sans-Serif" font-size="10.00">Eigen/Dense</text>
</a>
</g>
</g>
<!-- Node2&#45;&gt;Node10 -->
<g id="edge9_Node000002_Node000010" class="edge">
<title>Node2&#45;&gt;Node10</title>
<g id="a_edge9_Node000002_Node000010"><a xlink:title=" ">
<path fill="none" stroke="#63b8ff" d="M326.56,-66.05C355.93,-56.11 403.27,-40.1 436.31,-28.92"/>
<polygon fill="#63b8ff" stroke="#63b8ff" points="437.13,-32.34 445.48,-25.82 434.89,-25.71 437.13,-32.34"/>
</a>
</g>
</g>
<!-- Node11 -->
<g id="Node000011" class="node">
<title>Node11</title>
<g id="a_Node000011"><a xlink:title=" ">
<polygon fill="#e0e0e0" stroke="#999999" points="593.88,-24.88 527.62,-24.88 527.62,-5.63 593.88,-5.63 593.88,-24.88"/>
<text text-anchor="middle" x="560.75" y="-11.38" font-family="Helvetica,sans-Serif" font-size="10.00">Optimist.hh</text>
</a>
</g>
</g>
<!-- Node2&#45;&gt;Node11 -->
<g id="edge10_Node000002_Node000011" class="edge">
<title>Node2&#45;&gt;Node11</title>
<g id="a_edge10_Node000002_Node000011"><a xlink:title=" ">
<path fill="none" stroke="#63b8ff" d="M332.33,-69.81C375.38,-62.49 453.39,-48.17 518.75,-30.5 520.73,-29.97 522.75,-29.39 524.78,-28.78"/>
<polygon fill="#63b8ff" stroke="#63b8ff" points="525.67,-32.17 534.15,-25.82 523.56,-25.5 525.67,-32.17"/>
</a>
</g>
</g>
<!-- Node12 -->
<g id="Node000012" class="node">
<title>Node12</title>
<g id="a_Node000012"><a xlink:title=" ">
<polygon fill="#e0e0e0" stroke="#999999" points="715.62,-30.5 611.88,-30.5 611.88,0 715.62,0 715.62,-30.5"/>
<text text-anchor="start" x="619.88" y="-17" font-family="Helvetica,sans-Serif" font-size="10.00">Optimist/RootFinder</text>
<text text-anchor="middle" x="663.75" y="-5.75" font-family="Helvetica,sans-Serif" font-size="10.00">/Newton.hh</text>
</a>
</g>
</g>
<!-- Node2&#45;&gt;Node12 -->
<g id="edge11_Node000002_Node000012" class="edge">
<title>Node2&#45;&gt;Node12</title>
<g id="a_edge11_Node000002_Node000012"><a xlink:title=" ">
<path fill="none" stroke="#63b8ff" d="M332.19,-71.25C385.84,-64.64 496.66,-50.18 600.27,-30.87"/>
<polygon fill="#63b8ff" stroke="#63b8ff" points="600.9,-34.31 610.08,-29.02 599.6,-27.44 600.9,-34.31"/>
</a>
</g>
</g>
</g>
</svg>
