<?xml version="1.0" encoding="UTF-8" standalone="no"?>
<!DOCTYPE svg PUBLIC "-//W3C//DTD SVG 1.1//EN"
 "http://www.w3.org/Graphics/SVG/1.1/DTD/svg11.dtd">
<!-- Generated by graphviz version 12.2.1 (20241206.2353)
 -->
<!-- Title: include/Sandals/RungeKutta.hh Pages: 1 -->
<svg width="724pt" height="315pt"
 viewBox="0.00 0.00 723.62 314.75" xmlns="http://www.w3.org/2000/svg" xmlns:xlink="http://www.w3.org/1999/xlink">
<g id="graph0" class="graph" transform="scale(1 1) rotate(0) translate(4 310.75)">
<title>include/Sandals/RungeKutta.hh</title>
<!-- Node1 -->
<g id="Node000001" class="node">
<title>Node1</title>
<g id="a_Node000001"><a xlink:title=" ">
<polygon fill="#999999" stroke="#666666" points="272.38,-306.75 119.12,-306.75 119.12,-287.5 272.38,-287.5 272.38,-306.75"/>
<text text-anchor="middle" x="195.75" y="-293.25" font-family="Helvetica,sans-Serif" font-size="10.00">include/Sandals/RungeKutta.hh</text>
</a>
</g>
</g>
<!-- Node2 -->
<g id="Node000002" class="node">
<title>Node2</title>
<g id="a_Node000002"><a xlink:href="_sandals_8hh.html" target="_top" xlink:title=" ">
<polygon fill="white" stroke="#666666" points="332.12,-85.75 267.38,-85.75 267.38,-66.5 332.12,-66.5 332.12,-85.75"/>
<text text-anchor="middle" x="299.75" y="-72.25" font-family="Helvetica,sans-Serif" font-size="10.00">Sandals.hh</text>
</a>
</g>
</g>
<!-- Node1&#45;&gt;Node2 -->
<g id="edge1_Node000001_Node000002" class="edge">
<title>Node1&#45;&gt;Node2</title>
<g id="a_edge1_Node000001_Node000002"><a xlink:title=" ">
<path fill="none" stroke="#63b8ff" d="M142.74,-287.03C122.32,-280.65 100.97,-269.84 88.75,-251.5 56.77,-203.51 52.44,-166.55 88.75,-121.75 109.39,-96.29 200.46,-84.79 255.99,-80.05"/>
<polygon fill="#63b8ff" stroke="#63b8ff" points="256.07,-83.56 265.75,-79.27 255.5,-76.58 256.07,-83.56"/>
</a>
</g>
</g>
<!-- Node13 -->
<g id="Node000013" class="node">
<title>Node13</title>
<g id="a_Node000013"><a xlink:href="_implicit_8hh.html" target="_top" xlink:title=" ">
<polygon fill="white" stroke="#666666" points="233.75,-141 97.75,-141 97.75,-121.75 233.75,-121.75 233.75,-141"/>
<text text-anchor="middle" x="165.75" y="-127.5" font-family="Helvetica,sans-Serif" font-size="10.00">Sandals/System/Implicit.hh</text>
</a>
</g>
</g>
<!-- Node1&#45;&gt;Node13 -->
<g id="edge12_Node000001_Node000013" class="edge">
<title>Node1&#45;&gt;Node13</title>
<g id="a_edge12_Node000001_Node000013"><a xlink:title=" ">
<path fill="none" stroke="#63b8ff" d="M151.11,-287.01C131.54,-280.56 110.4,-269.68 98.75,-251.5 75.75,-215.6 118.05,-171.41 145.31,-148.25"/>
<polygon fill="#63b8ff" stroke="#63b8ff" points="147.17,-151.25 152.69,-142.2 142.73,-145.83 147.17,-151.25"/>
</a>
</g>
</g>
<!-- Node14 -->
<g id="Node000014" class="node">
<title>Node14</title>
<g id="a_Node000014"><a xlink:href="_explicit_8hh.html" target="_top" xlink:title=" ">
<polygon fill="white" stroke="#666666" points="264.12,-196.25 127.38,-196.25 127.38,-177 264.12,-177 264.12,-196.25"/>
<text text-anchor="middle" x="195.75" y="-182.75" font-family="Helvetica,sans-Serif" font-size="10.00">Sandals/System/Explicit.hh</text>
</a>
</g>
</g>
<!-- Node1&#45;&gt;Node14 -->
<g id="edge14_Node000001_Node000014" class="edge">
<title>Node1&#45;&gt;Node14</title>
<g id="a_edge14_Node000001_Node000014"><a xlink:title=" ">
<path fill="none" stroke="#63b8ff" d="M157.69,-287.16C138.9,-280.6 117.92,-269.59 106.75,-251.5 92.43,-228.29 122.07,-211.04 150.92,-200.36"/>
<polygon fill="#63b8ff" stroke="#63b8ff" points="151.7,-203.79 160,-197.22 149.41,-197.18 151.7,-203.79"/>
</a>
</g>
</g>
<!-- Node15 -->
<g id="Node000015" class="node">
<title>Node15</title>
<g id="a_Node000015"><a xlink:href="_semi_explicit_8hh.html" target="_top" xlink:title=" ">
<polygon fill="white" stroke="#666666" points="275.38,-251.5 116.12,-251.5 116.12,-232.25 275.38,-232.25 275.38,-251.5"/>
<text text-anchor="middle" x="195.75" y="-238" font-family="Helvetica,sans-Serif" font-size="10.00">Sandals/System/SemiExplicit.hh</text>
</a>
</g>
</g>
<!-- Node1&#45;&gt;Node15 -->
<g id="edge17_Node000001_Node000015" class="edge">
<title>Node1&#45;&gt;Node15</title>
<g id="a_edge17_Node000001_Node000015"><a xlink:title=" ">
<path fill="none" stroke="#63b8ff" d="M195.75,-287.33C195.75,-280.82 195.75,-271.67 195.75,-263.37"/>
<polygon fill="#63b8ff" stroke="#63b8ff" points="199.25,-263.37 195.75,-253.37 192.25,-263.37 199.25,-263.37"/>
</a>
</g>
</g>
<!-- Node16 -->
<g id="Node000016" class="node">
<title>Node16</title>
<g id="a_Node000016"><a xlink:href="_linear_8hh.html" target="_top" xlink:title=" ">
<polygon fill="white" stroke="#666666" points="423.75,-251.5 293.75,-251.5 293.75,-232.25 423.75,-232.25 423.75,-251.5"/>
<text text-anchor="middle" x="358.75" y="-238" font-family="Helvetica,sans-Serif" font-size="10.00">Sandals/System/Linear.hh</text>
</a>
</g>
</g>
<!-- Node1&#45;&gt;Node16 -->
<g id="edge20_Node000001_Node000016" class="edge">
<title>Node1&#45;&gt;Node16</title>
<g id="a_edge20_Node000001_Node000016"><a xlink:title=" ">
<path fill="none" stroke="#63b8ff" d="M223.4,-287.09C249.98,-278.41 290.39,-265.21 320.14,-255.49"/>
<polygon fill="#63b8ff" stroke="#63b8ff" points="321.11,-258.85 329.52,-252.42 318.93,-252.2 321.11,-258.85"/>
</a>
</g>
</g>
<!-- Node17 -->
<g id="Node000017" class="node">
<title>Node17</title>
<g id="a_Node000017"><a xlink:href="_tableau_8hh.html" target="_top" xlink:title=" ">
<polygon fill="white" stroke="#666666" points="488.5,-141 387,-141 387,-121.75 488.5,-121.75 488.5,-141"/>
<text text-anchor="middle" x="437.75" y="-127.5" font-family="Helvetica,sans-Serif" font-size="10.00">Sandals/Tableau.hh</text>
</a>
</g>
</g>
<!-- Node1&#45;&gt;Node17 -->
<g id="edge23_Node000001_Node000017" class="edge">
<title>Node1&#45;&gt;Node17</title>
<g id="a_edge23_Node000001_Node000017"><a xlink:title=" ">
<path fill="none" stroke="#63b8ff" d="M272.82,-291.77C333.85,-286.56 412.13,-275.32 432.75,-251.5 456.49,-224.07 450.07,-178.37 443.66,-152.27"/>
<polygon fill="#63b8ff" stroke="#63b8ff" points="447.13,-151.69 441.13,-142.95 440.37,-153.52 447.13,-151.69"/>
</a>
</g>
</g>
<!-- Node18 -->
<g id="Node000018" class="node">
<title>Node18</title>
<g id="a_Node000018"><a xlink:href="_solution_8hh.html" target="_top" xlink:title=" ">
<polygon fill="white" stroke="#666666" points="583.25,-196.25 480.25,-196.25 480.25,-177 583.25,-177 583.25,-196.25"/>
<text text-anchor="middle" x="531.75" y="-182.75" font-family="Helvetica,sans-Serif" font-size="10.00">Sandals/Solution.hh</text>
</a>
</g>
</g>
<!-- Node1&#45;&gt;Node18 -->
<g id="edge25_Node000001_Node000018" class="edge">
<title>Node1&#45;&gt;Node18</title>
<g id="a_edge25_Node000001_Node000018"><a xlink:title=" ">
<path fill="none" stroke="#63b8ff" d="M272.84,-295.51C329.01,-292.25 405.49,-281.84 465.75,-251.5 487.48,-240.56 506.75,-219.97 518.78,-205.12"/>
<polygon fill="#63b8ff" stroke="#63b8ff" points="521.29,-207.59 524.66,-197.54 515.76,-203.3 521.29,-207.59"/>
</a>
</g>
</g>
<!-- Node3 -->
<g id="Node000003" class="node">
<title>Node3</title>
<g id="a_Node000003"><a xlink:title=" ">
<polygon fill="#e0e0e0" stroke="#999999" points="53.5,-24.88 0,-24.88 0,-5.63 53.5,-5.63 53.5,-24.88"/>
<text text-anchor="middle" x="26.75" y="-11.38" font-family="Helvetica,sans-Serif" font-size="10.00">iostream</text>
</a>
</g>
</g>
<!-- Node2&#45;&gt;Node3 -->
<g id="edge2_Node000002_Node000003" class="edge">
<title>Node2&#45;&gt;Node3</title>
<g id="a_edge2_Node000002_Node000003"><a xlink:title=" ">
<path fill="none" stroke="#63b8ff" d="M267.09,-70.99C220.96,-64.69 134.34,-51.2 62.75,-30.5 61.37,-30.1 59.97,-29.67 58.56,-29.21"/>
<polygon fill="#63b8ff" stroke="#63b8ff" points="59.86,-25.96 49.26,-25.88 57.5,-32.55 59.86,-25.96"/>
</a>
</g>
</g>
<!-- Node4 -->
<g id="Node000004" class="node">
<title>Node4</title>
<g id="a_Node000004"><a xlink:title=" ">
<polygon fill="#e0e0e0" stroke="#999999" points="111.75,-24.88 71.75,-24.88 71.75,-5.63 111.75,-5.63 111.75,-24.88"/>
<text text-anchor="middle" x="91.75" y="-11.38" font-family="Helvetica,sans-Serif" font-size="10.00">string</text>
</a>
</g>
</g>
<!-- Node2&#45;&gt;Node4 -->
<g id="edge3_Node000002_Node000004" class="edge">
<title>Node2&#45;&gt;Node4</title>
<g id="a_edge3_Node000002_Node000004"><a xlink:title=" ">
<path fill="none" stroke="#63b8ff" d="M267.12,-69.16C230.76,-62.02 170.53,-48.7 120.75,-30.5 120.12,-30.27 119.49,-30.03 118.86,-29.79"/>
<polygon fill="#63b8ff" stroke="#63b8ff" points="120.61,-26.73 110.05,-25.92 117.8,-33.14 120.61,-26.73"/>
</a>
</g>
</g>
<!-- Node5 -->
<g id="Node000005" class="node">
<title>Node5</title>
<g id="a_Node000005"><a xlink:title=" ">
<polygon fill="#e0e0e0" stroke="#999999" points="173.25,-24.88 130.25,-24.88 130.25,-5.63 173.25,-5.63 173.25,-24.88"/>
<text text-anchor="middle" x="151.75" y="-11.38" font-family="Helvetica,sans-Serif" font-size="10.00">cmath</text>
</a>
</g>
</g>
<!-- Node2&#45;&gt;Node5 -->
<g id="edge4_Node000002_Node000005" class="edge">
<title>Node2&#45;&gt;Node5</title>
<g id="a_edge4_Node000002_Node000005"><a xlink:title=" ">
<path fill="none" stroke="#63b8ff" d="M274.45,-66.03C250.62,-57.33 214.02,-43.63 182.75,-30.5 182.27,-30.3 181.79,-30.1 181.31,-29.89"/>
<polygon fill="#63b8ff" stroke="#63b8ff" points="182.96,-26.79 172.39,-25.95 180.13,-33.2 182.96,-26.79"/>
</a>
</g>
</g>
<!-- Node6 -->
<g id="Node000006" class="node">
<title>Node6</title>
<g id="a_Node000006"><a xlink:title=" ">
<polygon fill="#e0e0e0" stroke="#999999" points="234.25,-24.88 191.25,-24.88 191.25,-5.63 234.25,-5.63 234.25,-24.88"/>
<text text-anchor="middle" x="212.75" y="-11.38" font-family="Helvetica,sans-Serif" font-size="10.00">vector</text>
</a>
</g>
</g>
<!-- Node2&#45;&gt;Node6 -->
<g id="edge5_Node000002_Node000006" class="edge">
<title>Node2&#45;&gt;Node6</title>
<g id="a_edge5_Node000002_Node000006"><a xlink:title=" ">
<path fill="none" stroke="#63b8ff" d="M286.54,-66.18C273,-57.02 251.68,-42.59 235.43,-31.6"/>
<polygon fill="#63b8ff" stroke="#63b8ff" points="237.58,-28.83 227.34,-26.12 233.66,-34.63 237.58,-28.83"/>
</a>
</g>
</g>
<!-- Node7 -->
<g id="Node000007" class="node">
<title>Node7</title>
<g id="a_Node000007"><a xlink:title=" ">
<polygon fill="#e0e0e0" stroke="#999999" points="287.12,-24.88 252.38,-24.88 252.38,-5.63 287.12,-5.63 287.12,-24.88"/>
<text text-anchor="middle" x="269.75" y="-11.38" font-family="Helvetica,sans-Serif" font-size="10.00">map</text>
</a>
</g>
</g>
<!-- Node2&#45;&gt;Node7 -->
<g id="edge6_Node000002_Node000007" class="edge">
<title>Node2&#45;&gt;Node7</title>
<g id="a_edge6_Node000002_Node000007"><a xlink:title=" ">
<path fill="none" stroke="#63b8ff" d="M295.19,-66.18C291.05,-58.06 284.8,-45.79 279.54,-35.45"/>
<polygon fill="#63b8ff" stroke="#63b8ff" points="282.7,-33.95 275.04,-26.62 276.46,-37.12 282.7,-33.95"/>
</a>
</g>
</g>
<!-- Node8 -->
<g id="Node000008" class="node">
<title>Node8</title>
<g id="a_Node000008"><a xlink:title=" ">
<polygon fill="#e0e0e0" stroke="#999999" points="356.38,-24.88 305.12,-24.88 305.12,-5.63 356.38,-5.63 356.38,-24.88"/>
<text text-anchor="middle" x="330.75" y="-11.38" font-family="Helvetica,sans-Serif" font-size="10.00">memory</text>
</a>
</g>
</g>
<!-- Node2&#45;&gt;Node8 -->
<g id="edge7_Node000002_Node000008" class="edge">
<title>Node2&#45;&gt;Node8</title>
<g id="a_edge7_Node000002_Node000008"><a xlink:title=" ">
<path fill="none" stroke="#63b8ff" d="M304.46,-66.18C308.74,-58.06 315.19,-45.79 320.64,-35.45"/>
<polygon fill="#63b8ff" stroke="#63b8ff" points="323.73,-37.09 325.29,-26.62 317.54,-33.83 323.73,-37.09"/>
</a>
</g>
</g>
<!-- Node9 -->
<g id="Node000009" class="node">
<title>Node9</title>
<g id="a_Node000009"><a xlink:title=" ">
<polygon fill="#e0e0e0" stroke="#999999" points="419.38,-24.88 374.12,-24.88 374.12,-5.63 419.38,-5.63 419.38,-24.88"/>
<text text-anchor="middle" x="396.75" y="-11.38" font-family="Helvetica,sans-Serif" font-size="10.00">chrono</text>
</a>
</g>
</g>
<!-- Node2&#45;&gt;Node9 -->
<g id="edge8_Node000002_Node000009" class="edge">
<title>Node2&#45;&gt;Node9</title>
<g id="a_edge8_Node000002_Node000009"><a xlink:title=" ">
<path fill="none" stroke="#63b8ff" d="M314.48,-66.18C329.79,-56.89 354.02,-42.19 372.22,-31.14"/>
<polygon fill="#63b8ff" stroke="#63b8ff" points="373.85,-34.24 380.59,-26.06 370.22,-28.26 373.85,-34.24"/>
</a>
</g>
</g>
<!-- Node10 -->
<g id="Node000010" class="node">
<title>Node10</title>
<g id="a_Node000010"><a xlink:title=" ">
<polygon fill="#e0e0e0" stroke="#999999" points="509.88,-24.88 437.62,-24.88 437.62,-5.63 509.88,-5.63 509.88,-24.88"/>
<text text-anchor="middle" x="473.75" y="-11.38" font-family="Helvetica,sans-Serif" font-size="10.00">Eigen/Dense</text>
</a>
</g>
</g>
<!-- Node2&#45;&gt;Node10 -->
<g id="edge9_Node000002_Node000010" class="edge">
<title>Node2&#45;&gt;Node10</title>
<g id="a_edge9_Node000002_Node000010"><a xlink:title=" ">
<path fill="none" stroke="#63b8ff" d="M326.56,-66.05C355.93,-56.11 403.27,-40.1 436.31,-28.92"/>
<polygon fill="#63b8ff" stroke="#63b8ff" points="437.13,-32.34 445.48,-25.82 434.89,-25.71 437.13,-32.34"/>
</a>
</g>
</g>
<!-- Node11 -->
<g id="Node000011" class="node">
<title>Node11</title>
<g id="a_Node000011"><a xlink:title=" ">
<polygon fill="#e0e0e0" stroke="#999999" points="593.88,-24.88 527.62,-24.88 527.62,-5.63 593.88,-5.63 593.88,-24.88"/>
<text text-anchor="middle" x="560.75" y="-11.38" font-family="Helvetica,sans-Serif" font-size="10.00">Optimist.hh</text>
</a>
</g>
</g>
<!-- Node2&#45;&gt;Node11 -->
<g id="edge10_Node000002_Node000011" class="edge">
<title>Node2&#45;&gt;Node11</title>
<g id="a_edge10_Node000002_Node000011"><a xlink:title=" ">
<path fill="none" stroke="#63b8ff" d="M332.33,-69.81C375.38,-62.49 453.39,-48.17 518.75,-30.5 520.73,-29.97 522.75,-29.39 524.78,-28.78"/>
<polygon fill="#63b8ff" stroke="#63b8ff" points="525.67,-32.17 534.15,-25.82 523.56,-25.5 525.67,-32.17"/>
</a>
</g>
</g>
<!-- Node12 -->
<g id="Node000012" class="node">
<title>Node12</title>
<g id="a_Node000012"><a xlink:title=" ">
<polygon fill="#e0e0e0" stroke="#999999" points="715.62,-30.5 611.88,-30.5 611.88,0 715.62,0 715.62,-30.5"/>
<text text-anchor="start" x="619.88" y="-17" font-family="Helvetica,sans-Serif" font-size="10.00">Optimist/RootFinder</text>
<text text-anchor="middle" x="663.75" y="-5.75" font-family="Helvetica,sans-Serif" font-size="10.00">/Newton.hh</text>
</a>
</g>
</g>
<!-- Node2&#45;&gt;Node12 -->
<g id="edge11_Node000002_Node000012" class="edge">
<title>Node2&#45;&gt;Node12</title>
<g id="a_edge11_Node000002_Node000012"><a xlink:title=" ">
<path fill="none" stroke="#63b8ff" d="M332.19,-71.25C385.84,-64.64 496.66,-50.18 600.27,-30.87"/>
<polygon fill="#63b8ff" stroke="#63b8ff" points="600.9,-34.31 610.08,-29.02 599.6,-27.44 600.9,-34.31"/>
</a>
</g>
</g>
<!-- Node13&#45;&gt;Node2 -->
<g id="edge13_Node000013_Node000002" class="edge">
<title>Node13&#45;&gt;Node2</title>
<g id="a_edge13_Node000013_Node000002"><a xlink:title=" ">
<path fill="none" stroke="#63b8ff" d="M188.48,-121.34C209.85,-112.85 242.09,-100.04 266.38,-90.39"/>
<polygon fill="#63b8ff" stroke="#63b8ff" points="267.5,-93.71 275.5,-86.76 264.91,-87.2 267.5,-93.71"/>
</a>
</g>
</g>
<!-- Node14&#45;&gt;Node2 -->
<g id="edge15_Node000014_Node000002" class="edge">
<title>Node14&#45;&gt;Node2</title>
<g id="a_edge15_Node000014_Node000002"><a xlink:title=" ">
<path fill="none" stroke="#63b8ff" d="M205.7,-176.62C215.37,-167.77 230.37,-153.76 242.75,-141 257.57,-125.72 273.65,-107.54 284.94,-94.49"/>
<polygon fill="#63b8ff" stroke="#63b8ff" points="287.38,-97.02 291.24,-87.16 282.07,-92.46 287.38,-97.02"/>
</a>
</g>
</g>
<!-- Node14&#45;&gt;Node13 -->
<g id="edge16_Node000014_Node000013" class="edge">
<title>Node14&#45;&gt;Node13</title>
<g id="a_edge16_Node000014_Node000013"><a xlink:title=" ">
<path fill="none" stroke="#63b8ff" d="M190.8,-176.83C186.87,-169.86 181.24,-159.87 176.31,-151.12"/>
<polygon fill="#63b8ff" stroke="#63b8ff" points="179.51,-149.67 171.55,-142.68 173.41,-153.11 179.51,-149.67"/>
</a>
</g>
</g>
<!-- Node15&#45;&gt;Node2 -->
<g id="edge18_Node000015_Node000002" class="edge">
<title>Node15&#45;&gt;Node2</title>
<g id="a_edge18_Node000015_Node000002"><a xlink:title=" ">
<path fill="none" stroke="#63b8ff" d="M222.44,-231.81C239.35,-224.71 260.3,-213.18 272.75,-196.25 294.36,-166.87 299.12,-123.19 299.92,-97.69"/>
<polygon fill="#63b8ff" stroke="#63b8ff" points="303.42,-97.73 300.02,-87.7 296.42,-97.66 303.42,-97.73"/>
</a>
</g>
</g>
<!-- Node15&#45;&gt;Node14 -->
<g id="edge19_Node000015_Node000014" class="edge">
<title>Node15&#45;&gt;Node14</title>
<g id="a_edge19_Node000015_Node000014"><a xlink:title=" ">
<path fill="none" stroke="#63b8ff" d="M195.75,-232.08C195.75,-225.57 195.75,-216.42 195.75,-208.12"/>
<polygon fill="#63b8ff" stroke="#63b8ff" points="199.25,-208.12 195.75,-198.12 192.25,-208.12 199.25,-208.12"/>
</a>
</g>
</g>
<!-- Node16&#45;&gt;Node2 -->
<g id="edge21_Node000016_Node000002" class="edge">
<title>Node16&#45;&gt;Node2</title>
<g id="a_edge21_Node000016_Node000002"><a xlink:title=" ">
<path fill="none" stroke="#63b8ff" d="M355.58,-232.07C346.37,-206.53 319.5,-131.95 306.7,-96.4"/>
<polygon fill="#63b8ff" stroke="#63b8ff" points="310.13,-95.62 303.45,-87.4 303.55,-97.99 310.13,-95.62"/>
</a>
</g>
</g>
<!-- Node16&#45;&gt;Node14 -->
<g id="edge22_Node000016_Node000014" class="edge">
<title>Node16&#45;&gt;Node14</title>
<g id="a_edge22_Node000016_Node000014"><a xlink:title=" ">
<path fill="none" stroke="#63b8ff" d="M331.1,-231.84C304.52,-223.16 264.11,-209.96 234.36,-200.24"/>
<polygon fill="#63b8ff" stroke="#63b8ff" points="235.57,-196.95 224.98,-197.17 233.39,-203.6 235.57,-196.95"/>
</a>
</g>
</g>
<!-- Node17&#45;&gt;Node2 -->
<g id="edge24_Node000017_Node000002" class="edge">
<title>Node17&#45;&gt;Node2</title>
<g id="a_edge24_Node000017_Node000002"><a xlink:title=" ">
<path fill="none" stroke="#63b8ff" d="M414.34,-121.34C392.23,-112.81 358.83,-99.92 333.78,-90.26"/>
<polygon fill="#63b8ff" stroke="#63b8ff" points="335.28,-87.08 324.69,-86.75 332.76,-93.61 335.28,-87.08"/>
</a>
</g>
</g>
<!-- Node18&#45;&gt;Node2 -->
<g id="edge26_Node000018_Node000002" class="edge">
<title>Node18&#45;&gt;Node2</title>
<g id="a_edge26_Node000018_Node000002"><a xlink:title=" ">
<path fill="none" stroke="#63b8ff" d="M529.56,-176.64C525.65,-162.63 516.13,-135.77 497.75,-121.75 452.97,-87.59 386.92,-78.69 343.61,-76.82"/>
<polygon fill="#63b8ff" stroke="#63b8ff" points="343.93,-73.33 333.82,-76.52 343.71,-80.33 343.93,-73.33"/>
</a>
</g>
</g>
</g>
</svg>
