<?xml version="1.0" encoding="UTF-8" standalone="no"?>
<!DOCTYPE svg PUBLIC "-//W3C//DTD SVG 1.1//EN"
 "http://www.w3.org/Graphics/SVG/1.1/DTD/svg11.dtd">
<!-- Generated by graphviz version 12.2.1 (20241206.2353)
 -->
<!-- Title: include/Sandals/RungeKutta/SSPIRK33.hh Pages: 1 -->
<svg width="767pt" height="381pt"
 viewBox="0.00 0.00 766.88 381.25" xmlns="http://www.w3.org/2000/svg" xmlns:xlink="http://www.w3.org/1999/xlink">
<g id="graph0" class="graph" transform="scale(1 1) rotate(0) translate(4 377.25)">
<title>include/Sandals/RungeKutta/SSPIRK33.hh</title>
<!-- Node1 -->
<g id="Node000001" class="node">
<title>Node1</title>
<g id="a_Node000001"><a xlink:title=" ">
<polygon fill="#999999" stroke="#666666" points="196.88,-373.25 57.12,-373.25 57.12,-342.75 196.88,-342.75 196.88,-373.25"/>
<text text-anchor="start" x="65.12" y="-359.75" font-family="Helvetica,sans-Serif" font-size="10.00">include/Sandals/RungeKutta</text>
<text text-anchor="middle" x="127" y="-348.5" font-family="Helvetica,sans-Serif" font-size="10.00">/SSPIRK33.hh</text>
</a>
</g>
</g>
<!-- Node2 -->
<g id="Node000002" class="node">
<title>Node2</title>
<g id="a_Node000002"><a xlink:href="_sandals_8hh.html" target="_top" xlink:title=" ">
<polygon fill="white" stroke="#666666" points="375.38,-85.75 310.62,-85.75 310.62,-66.5 375.38,-66.5 375.38,-85.75"/>
<text text-anchor="middle" x="343" y="-72.25" font-family="Helvetica,sans-Serif" font-size="10.00">Sandals.hh</text>
</a>
</g>
</g>
<!-- Node1&#45;&gt;Node2 -->
<g id="edge1_Node000001_Node000002" class="edge">
<title>Node1&#45;&gt;Node2</title>
<g id="a_edge1_Node000001_Node000002"><a xlink:title=" ">
<path fill="none" stroke="#63b8ff" d="M89.92,-342.37C52.44,-324.86 0,-291.64 0,-242.88 0,-242.88 0,-242.88 0,-185.62 0,-123.56 206.74,-92.47 299.21,-81.66"/>
<polygon fill="#63b8ff" stroke="#63b8ff" points="299.38,-85.17 308.92,-80.56 298.59,-78.21 299.38,-85.17"/>
</a>
</g>
</g>
<!-- Node13 -->
<g id="Node000013" class="node">
<title>Node13</title>
<g id="a_Node000013"><a xlink:href="_runge_kutta_8hh.html" target="_top" xlink:title=" ">
<polygon fill="white" stroke="#666666" points="359.75,-306.75 240.25,-306.75 240.25,-287.5 359.75,-287.5 359.75,-306.75"/>
<text text-anchor="middle" x="300" y="-293.25" font-family="Helvetica,sans-Serif" font-size="10.00">Sandals/RungeKutta.hh</text>
</a>
</g>
</g>
<!-- Node1&#45;&gt;Node13 -->
<g id="edge12_Node000001_Node000013" class="edge">
<title>Node1&#45;&gt;Node13</title>
<g id="a_edge12_Node000001_Node000013"><a xlink:title=" ">
<path fill="none" stroke="#63b8ff" d="M170.21,-342.3C198.62,-332.63 235.43,-320.1 262.59,-310.86"/>
<polygon fill="#63b8ff" stroke="#63b8ff" points="263.44,-314.26 271.78,-307.73 261.19,-307.64 263.44,-314.26"/>
</a>
</g>
</g>
<!-- Node3 -->
<g id="Node000003" class="node">
<title>Node3</title>
<g id="a_Node000003"><a xlink:title=" ">
<polygon fill="#e0e0e0" stroke="#999999" points="96.75,-24.88 43.25,-24.88 43.25,-5.63 96.75,-5.63 96.75,-24.88"/>
<text text-anchor="middle" x="70" y="-11.38" font-family="Helvetica,sans-Serif" font-size="10.00">iostream</text>
</a>
</g>
</g>
<!-- Node2&#45;&gt;Node3 -->
<g id="edge2_Node000002_Node000003" class="edge">
<title>Node2&#45;&gt;Node3</title>
<g id="a_edge2_Node000002_Node000003"><a xlink:title=" ">
<path fill="none" stroke="#63b8ff" d="M310.34,-70.99C264.21,-64.69 177.59,-51.2 106,-30.5 104.62,-30.1 103.22,-29.67 101.81,-29.21"/>
<polygon fill="#63b8ff" stroke="#63b8ff" points="103.11,-25.96 92.51,-25.88 100.75,-32.55 103.11,-25.96"/>
</a>
</g>
</g>
<!-- Node4 -->
<g id="Node000004" class="node">
<title>Node4</title>
<g id="a_Node000004"><a xlink:title=" ">
<polygon fill="#e0e0e0" stroke="#999999" points="155,-24.88 115,-24.88 115,-5.63 155,-5.63 155,-24.88"/>
<text text-anchor="middle" x="135" y="-11.38" font-family="Helvetica,sans-Serif" font-size="10.00">string</text>
</a>
</g>
</g>
<!-- Node2&#45;&gt;Node4 -->
<g id="edge3_Node000002_Node000004" class="edge">
<title>Node2&#45;&gt;Node4</title>
<g id="a_edge3_Node000002_Node000004"><a xlink:title=" ">
<path fill="none" stroke="#63b8ff" d="M310.37,-69.16C274.01,-62.02 213.78,-48.7 164,-30.5 163.37,-30.27 162.74,-30.03 162.11,-29.79"/>
<polygon fill="#63b8ff" stroke="#63b8ff" points="163.86,-26.73 153.3,-25.92 161.05,-33.14 163.86,-26.73"/>
</a>
</g>
</g>
<!-- Node5 -->
<g id="Node000005" class="node">
<title>Node5</title>
<g id="a_Node000005"><a xlink:title=" ">
<polygon fill="#e0e0e0" stroke="#999999" points="216.5,-24.88 173.5,-24.88 173.5,-5.63 216.5,-5.63 216.5,-24.88"/>
<text text-anchor="middle" x="195" y="-11.38" font-family="Helvetica,sans-Serif" font-size="10.00">cmath</text>
</a>
</g>
</g>
<!-- Node2&#45;&gt;Node5 -->
<g id="edge4_Node000002_Node000005" class="edge">
<title>Node2&#45;&gt;Node5</title>
<g id="a_edge4_Node000002_Node000005"><a xlink:title=" ">
<path fill="none" stroke="#63b8ff" d="M317.44,-66.14C293.38,-57.53 256.44,-43.88 225,-30.5 224.52,-30.3 224.04,-30.09 223.56,-29.88"/>
<polygon fill="#63b8ff" stroke="#63b8ff" points="225.23,-26.79 214.67,-25.86 222.34,-33.17 225.23,-26.79"/>
</a>
</g>
</g>
<!-- Node6 -->
<g id="Node000006" class="node">
<title>Node6</title>
<g id="a_Node000006"><a xlink:title=" ">
<polygon fill="#e0e0e0" stroke="#999999" points="277.5,-24.88 234.5,-24.88 234.5,-5.63 277.5,-5.63 277.5,-24.88"/>
<text text-anchor="middle" x="256" y="-11.38" font-family="Helvetica,sans-Serif" font-size="10.00">vector</text>
</a>
</g>
</g>
<!-- Node2&#45;&gt;Node6 -->
<g id="edge5_Node000002_Node000006" class="edge">
<title>Node2&#45;&gt;Node6</title>
<g id="a_edge5_Node000002_Node000006"><a xlink:title=" ">
<path fill="none" stroke="#63b8ff" d="M329.79,-66.18C316.25,-57.02 294.93,-42.59 278.68,-31.6"/>
<polygon fill="#63b8ff" stroke="#63b8ff" points="280.83,-28.83 270.59,-26.12 276.91,-34.63 280.83,-28.83"/>
</a>
</g>
</g>
<!-- Node7 -->
<g id="Node000007" class="node">
<title>Node7</title>
<g id="a_Node000007"><a xlink:title=" ">
<polygon fill="#e0e0e0" stroke="#999999" points="330.38,-24.88 295.62,-24.88 295.62,-5.63 330.38,-5.63 330.38,-24.88"/>
<text text-anchor="middle" x="313" y="-11.38" font-family="Helvetica,sans-Serif" font-size="10.00">map</text>
</a>
</g>
</g>
<!-- Node2&#45;&gt;Node7 -->
<g id="edge6_Node000002_Node000007" class="edge">
<title>Node2&#45;&gt;Node7</title>
<g id="a_edge6_Node000002_Node000007"><a xlink:title=" ">
<path fill="none" stroke="#63b8ff" d="M338.44,-66.18C334.3,-58.06 328.05,-45.79 322.79,-35.45"/>
<polygon fill="#63b8ff" stroke="#63b8ff" points="325.95,-33.95 318.29,-26.62 319.71,-37.12 325.95,-33.95"/>
</a>
</g>
</g>
<!-- Node8 -->
<g id="Node000008" class="node">
<title>Node8</title>
<g id="a_Node000008"><a xlink:title=" ">
<polygon fill="#e0e0e0" stroke="#999999" points="399.62,-24.88 348.38,-24.88 348.38,-5.63 399.62,-5.63 399.62,-24.88"/>
<text text-anchor="middle" x="374" y="-11.38" font-family="Helvetica,sans-Serif" font-size="10.00">memory</text>
</a>
</g>
</g>
<!-- Node2&#45;&gt;Node8 -->
<g id="edge7_Node000002_Node000008" class="edge">
<title>Node2&#45;&gt;Node8</title>
<g id="a_edge7_Node000002_Node000008"><a xlink:title=" ">
<path fill="none" stroke="#63b8ff" d="M347.71,-66.18C351.99,-58.06 358.44,-45.79 363.89,-35.45"/>
<polygon fill="#63b8ff" stroke="#63b8ff" points="366.98,-37.09 368.54,-26.62 360.79,-33.83 366.98,-37.09"/>
</a>
</g>
</g>
<!-- Node9 -->
<g id="Node000009" class="node">
<title>Node9</title>
<g id="a_Node000009"><a xlink:title=" ">
<polygon fill="#e0e0e0" stroke="#999999" points="462.62,-24.88 417.38,-24.88 417.38,-5.63 462.62,-5.63 462.62,-24.88"/>
<text text-anchor="middle" x="440" y="-11.38" font-family="Helvetica,sans-Serif" font-size="10.00">chrono</text>
</a>
</g>
</g>
<!-- Node2&#45;&gt;Node9 -->
<g id="edge8_Node000002_Node000009" class="edge">
<title>Node2&#45;&gt;Node9</title>
<g id="a_edge8_Node000002_Node000009"><a xlink:title=" ">
<path fill="none" stroke="#63b8ff" d="M357.73,-66.18C373.04,-56.89 397.27,-42.19 415.47,-31.14"/>
<polygon fill="#63b8ff" stroke="#63b8ff" points="417.1,-34.24 423.84,-26.06 413.47,-28.26 417.1,-34.24"/>
</a>
</g>
</g>
<!-- Node10 -->
<g id="Node000010" class="node">
<title>Node10</title>
<g id="a_Node000010"><a xlink:title=" ">
<polygon fill="#e0e0e0" stroke="#999999" points="553.12,-24.88 480.88,-24.88 480.88,-5.63 553.12,-5.63 553.12,-24.88"/>
<text text-anchor="middle" x="517" y="-11.38" font-family="Helvetica,sans-Serif" font-size="10.00">Eigen/Dense</text>
</a>
</g>
</g>
<!-- Node2&#45;&gt;Node10 -->
<g id="edge9_Node000002_Node000010" class="edge">
<title>Node2&#45;&gt;Node10</title>
<g id="a_edge9_Node000002_Node000010"><a xlink:title=" ">
<path fill="none" stroke="#63b8ff" d="M369.81,-66.05C399.18,-56.11 446.52,-40.1 479.56,-28.92"/>
<polygon fill="#63b8ff" stroke="#63b8ff" points="480.38,-32.34 488.73,-25.82 478.14,-25.71 480.38,-32.34"/>
</a>
</g>
</g>
<!-- Node11 -->
<g id="Node000011" class="node">
<title>Node11</title>
<g id="a_Node000011"><a xlink:title=" ">
<polygon fill="#e0e0e0" stroke="#999999" points="637.12,-24.88 570.88,-24.88 570.88,-5.63 637.12,-5.63 637.12,-24.88"/>
<text text-anchor="middle" x="604" y="-11.38" font-family="Helvetica,sans-Serif" font-size="10.00">Optimist.hh</text>
</a>
</g>
</g>
<!-- Node2&#45;&gt;Node11 -->
<g id="edge10_Node000002_Node000011" class="edge">
<title>Node2&#45;&gt;Node11</title>
<g id="a_edge10_Node000002_Node000011"><a xlink:title=" ">
<path fill="none" stroke="#63b8ff" d="M375.58,-69.81C418.63,-62.49 496.64,-48.17 562,-30.5 563.98,-29.97 566,-29.39 568.03,-28.78"/>
<polygon fill="#63b8ff" stroke="#63b8ff" points="568.92,-32.17 577.4,-25.82 566.81,-25.5 568.92,-32.17"/>
</a>
</g>
</g>
<!-- Node12 -->
<g id="Node000012" class="node">
<title>Node12</title>
<g id="a_Node000012"><a xlink:title=" ">
<polygon fill="#e0e0e0" stroke="#999999" points="758.88,-30.5 655.12,-30.5 655.12,0 758.88,0 758.88,-30.5"/>
<text text-anchor="start" x="663.12" y="-17" font-family="Helvetica,sans-Serif" font-size="10.00">Optimist/RootFinder</text>
<text text-anchor="middle" x="707" y="-5.75" font-family="Helvetica,sans-Serif" font-size="10.00">/Newton.hh</text>
</a>
</g>
</g>
<!-- Node2&#45;&gt;Node12 -->
<g id="edge11_Node000002_Node000012" class="edge">
<title>Node2&#45;&gt;Node12</title>
<g id="a_edge11_Node000002_Node000012"><a xlink:title=" ">
<path fill="none" stroke="#63b8ff" d="M375.44,-71.25C429.09,-64.64 539.91,-50.18 643.52,-30.87"/>
<polygon fill="#63b8ff" stroke="#63b8ff" points="644.15,-34.31 653.33,-29.02 642.85,-27.44 644.15,-34.31"/>
</a>
</g>
</g>
<!-- Node13&#45;&gt;Node2 -->
<g id="edge13_Node000013_Node000002" class="edge">
<title>Node13&#45;&gt;Node2</title>
<g id="a_edge13_Node000013_Node000002"><a xlink:title=" ">
<path fill="none" stroke="#63b8ff" d="M360.15,-295.42C428.53,-290.88 536.45,-271.41 581,-196.25 626.53,-119.44 467.71,-90.71 387.1,-81.24"/>
<polygon fill="#63b8ff" stroke="#63b8ff" points="387.64,-77.78 377.31,-80.15 386.86,-84.74 387.64,-77.78"/>
</a>
</g>
</g>
<!-- Node14 -->
<g id="Node000014" class="node">
<title>Node14</title>
<g id="a_Node000014"><a xlink:href="_implicit_8hh.html" target="_top" xlink:title=" ">
<polygon fill="white" stroke="#666666" points="296,-141 160,-141 160,-121.75 296,-121.75 296,-141"/>
<text text-anchor="middle" x="228" y="-127.5" font-family="Helvetica,sans-Serif" font-size="10.00">Sandals/System/Implicit.hh</text>
</a>
</g>
</g>
<!-- Node13&#45;&gt;Node14 -->
<g id="edge14_Node000013_Node000014" class="edge">
<title>Node13&#45;&gt;Node14</title>
<g id="a_edge14_Node000013_Node000014"><a xlink:title=" ">
<path fill="none" stroke="#63b8ff" d="M283.2,-287.21C257.26,-272.35 208.41,-239.82 189,-196.25 181.45,-179.31 194.45,-161.4 207.42,-148.87"/>
<polygon fill="#63b8ff" stroke="#63b8ff" points="209.45,-151.75 214.6,-142.49 204.8,-146.52 209.45,-151.75"/>
</a>
</g>
</g>
<!-- Node15 -->
<g id="Node000015" class="node">
<title>Node15</title>
<g id="a_Node000015"><a xlink:href="_explicit_8hh.html" target="_top" xlink:title=" ">
<polygon fill="white" stroke="#666666" points="334.38,-196.25 197.62,-196.25 197.62,-177 334.38,-177 334.38,-196.25"/>
<text text-anchor="middle" x="266" y="-182.75" font-family="Helvetica,sans-Serif" font-size="10.00">Sandals/System/Explicit.hh</text>
</a>
</g>
</g>
<!-- Node13&#45;&gt;Node15 -->
<g id="edge16_Node000013_Node000015" class="edge">
<title>Node13&#45;&gt;Node15</title>
<g id="a_edge16_Node000013_Node000015"><a xlink:title=" ">
<path fill="none" stroke="#63b8ff" d="M292.93,-287.14C286.57,-278.52 277.53,-264.88 273,-251.5 268.22,-237.39 266.52,-220.63 265.99,-207.82"/>
<polygon fill="#63b8ff" stroke="#63b8ff" points="269.5,-208.01 265.81,-198.08 262.5,-208.14 269.5,-208.01"/>
</a>
</g>
</g>
<!-- Node16 -->
<g id="Node000016" class="node">
<title>Node16</title>
<g id="a_Node000016"><a xlink:href="_semi_explicit_8hh.html" target="_top" xlink:title=" ">
<polygon fill="white" stroke="#666666" points="187.62,-251.5 28.38,-251.5 28.38,-232.25 187.62,-232.25 187.62,-251.5"/>
<text text-anchor="middle" x="108" y="-238" font-family="Helvetica,sans-Serif" font-size="10.00">Sandals/System/SemiExplicit.hh</text>
</a>
</g>
</g>
<!-- Node13&#45;&gt;Node16 -->
<g id="edge19_Node000013_Node000016" class="edge">
<title>Node13&#45;&gt;Node16</title>
<g id="a_edge19_Node000013_Node000016"><a xlink:title=" ">
<path fill="none" stroke="#63b8ff" d="M267.43,-287.09C235.57,-278.26 186.84,-264.74 151.64,-254.98"/>
<polygon fill="#63b8ff" stroke="#63b8ff" points="152.76,-251.66 142.19,-252.36 150.89,-258.4 152.76,-251.66"/>
</a>
</g>
</g>
<!-- Node17 -->
<g id="Node000017" class="node">
<title>Node17</title>
<g id="a_Node000017"><a xlink:href="_linear_8hh.html" target="_top" xlink:title=" ">
<polygon fill="white" stroke="#666666" points="412,-251.5 282,-251.5 282,-232.25 412,-232.25 412,-251.5"/>
<text text-anchor="middle" x="347" y="-238" font-family="Helvetica,sans-Serif" font-size="10.00">Sandals/System/Linear.hh</text>
</a>
</g>
</g>
<!-- Node13&#45;&gt;Node17 -->
<g id="edge22_Node000013_Node000017" class="edge">
<title>Node13&#45;&gt;Node17</title>
<g id="a_edge22_Node000013_Node000017"><a xlink:title=" ">
<path fill="none" stroke="#63b8ff" d="M307.76,-287.33C314.19,-280.05 323.51,-269.48 331.46,-260.48"/>
<polygon fill="#63b8ff" stroke="#63b8ff" points="334.08,-262.81 338.07,-252.99 328.83,-258.18 334.08,-262.81"/>
</a>
</g>
</g>
<!-- Node18 -->
<g id="Node000018" class="node">
<title>Node18</title>
<g id="a_Node000018"><a xlink:href="_tableau_8hh.html" target="_top" xlink:title=" ">
<polygon fill="white" stroke="#666666" points="491.75,-141 390.25,-141 390.25,-121.75 491.75,-121.75 491.75,-141"/>
<text text-anchor="middle" x="441" y="-127.5" font-family="Helvetica,sans-Serif" font-size="10.00">Sandals/Tableau.hh</text>
</a>
</g>
</g>
<!-- Node13&#45;&gt;Node18 -->
<g id="edge25_Node000013_Node000018" class="edge">
<title>Node13&#45;&gt;Node18</title>
<g id="a_edge25_Node000013_Node000018"><a xlink:title=" ">
<path fill="none" stroke="#63b8ff" d="M360.03,-287.03C382.29,-280.67 405.79,-269.86 421,-251.5 444.23,-223.46 445.15,-178.64 443.33,-152.72"/>
<polygon fill="#63b8ff" stroke="#63b8ff" points="446.83,-152.5 442.42,-142.87 439.86,-153.15 446.83,-152.5"/>
</a>
</g>
</g>
<!-- Node19 -->
<g id="Node000019" class="node">
<title>Node19</title>
<g id="a_Node000019"><a xlink:href="_solution_8hh.html" target="_top" xlink:title=" ">
<polygon fill="white" stroke="#666666" points="571.5,-196.25 468.5,-196.25 468.5,-177 571.5,-177 571.5,-196.25"/>
<text text-anchor="middle" x="520" y="-182.75" font-family="Helvetica,sans-Serif" font-size="10.00">Sandals/Solution.hh</text>
</a>
</g>
</g>
<!-- Node13&#45;&gt;Node19 -->
<g id="edge27_Node000013_Node000019" class="edge">
<title>Node13&#45;&gt;Node19</title>
<g id="a_edge27_Node000013_Node000019"><a xlink:title=" ">
<path fill="none" stroke="#63b8ff" d="M354.61,-287.06C385.28,-280.36 423.42,-269.24 454,-251.5 474.82,-239.43 494.03,-219.38 506.3,-204.97"/>
<polygon fill="#63b8ff" stroke="#63b8ff" points="508.69,-207.57 512.34,-197.62 503.28,-203.12 508.69,-207.57"/>
</a>
</g>
</g>
<!-- Node14&#45;&gt;Node2 -->
<g id="edge15_Node000014_Node000002" class="edge">
<title>Node14&#45;&gt;Node2</title>
<g id="a_edge15_Node000014_Node000002"><a xlink:title=" ">
<path fill="none" stroke="#63b8ff" d="M247.51,-121.34C265.52,-113 292.52,-100.5 313.23,-90.91"/>
<polygon fill="#63b8ff" stroke="#63b8ff" points="314.42,-94.22 322.02,-86.84 311.48,-87.86 314.42,-94.22"/>
</a>
</g>
</g>
<!-- Node15&#45;&gt;Node2 -->
<g id="edge17_Node000015_Node000002" class="edge">
<title>Node15&#45;&gt;Node2</title>
<g id="a_edge17_Node000015_Node000002"><a xlink:title=" ">
<path fill="none" stroke="#63b8ff" d="M274.57,-176.8C282.84,-168.07 295.46,-154.16 305,-141 315.43,-126.62 325.63,-109.23 332.83,-96.23"/>
<polygon fill="#63b8ff" stroke="#63b8ff" points="335.9,-97.91 337.6,-87.45 329.75,-94.57 335.9,-97.91"/>
</a>
</g>
</g>
<!-- Node15&#45;&gt;Node14 -->
<g id="edge18_Node000015_Node000014" class="edge">
<title>Node15&#45;&gt;Node14</title>
<g id="a_edge18_Node000015_Node000014"><a xlink:title=" ">
<path fill="none" stroke="#63b8ff" d="M259.73,-176.83C254.64,-169.71 247.3,-159.43 240.97,-150.55"/>
<polygon fill="#63b8ff" stroke="#63b8ff" points="243.95,-148.7 235.29,-142.59 238.25,-152.76 243.95,-148.7"/>
</a>
</g>
</g>
<!-- Node16&#45;&gt;Node2 -->
<g id="edge20_Node000016_Node000002" class="edge">
<title>Node16&#45;&gt;Node2</title>
<g id="a_edge20_Node000016_Node000002"><a xlink:title=" ">
<path fill="none" stroke="#63b8ff" d="M108.45,-231.81C110.07,-209.5 117.47,-151.54 151,-121.75 172.61,-102.55 249.33,-89.26 299,-82.43"/>
<polygon fill="#63b8ff" stroke="#63b8ff" points="299.43,-85.91 308.88,-81.12 298.51,-78.97 299.43,-85.91"/>
</a>
</g>
</g>
<!-- Node16&#45;&gt;Node15 -->
<g id="edge21_Node000016_Node000015" class="edge">
<title>Node16&#45;&gt;Node15</title>
<g id="a_edge21_Node000016_Node000015"><a xlink:title=" ">
<path fill="none" stroke="#63b8ff" d="M134.8,-231.84C160.45,-223.2 199.39,-210.07 228.19,-200.37"/>
<polygon fill="#63b8ff" stroke="#63b8ff" points="229.27,-203.7 237.63,-197.19 227.04,-197.06 229.27,-203.7"/>
</a>
</g>
</g>
<!-- Node17&#45;&gt;Node2 -->
<g id="edge23_Node000017_Node000002" class="edge">
<title>Node17&#45;&gt;Node2</title>
<g id="a_edge23_Node000017_Node000002"><a xlink:title=" ">
<path fill="none" stroke="#63b8ff" d="M346.78,-232.07C346.17,-206.75 344.37,-133.25 343.49,-97.34"/>
<polygon fill="#63b8ff" stroke="#63b8ff" points="347,-97.4 343.25,-87.49 340,-97.57 347,-97.4"/>
</a>
</g>
</g>
<!-- Node17&#45;&gt;Node15 -->
<g id="edge24_Node000017_Node000015" class="edge">
<title>Node17&#45;&gt;Node15</title>
<g id="a_edge24_Node000017_Node000015"><a xlink:title=" ">
<path fill="none" stroke="#63b8ff" d="M333.26,-231.84C321.27,-223.96 303.63,-212.36 289.42,-203.02"/>
<polygon fill="#63b8ff" stroke="#63b8ff" points="291.35,-200.1 281.07,-197.53 287.51,-205.95 291.35,-200.1"/>
</a>
</g>
</g>
<!-- Node18&#45;&gt;Node2 -->
<g id="edge26_Node000018_Node000002" class="edge">
<title>Node18&#45;&gt;Node2</title>
<g id="a_edge26_Node000018_Node000002"><a xlink:title=" ">
<path fill="none" stroke="#63b8ff" d="M424.38,-121.34C409.31,-113.16 386.86,-100.96 369.35,-91.44"/>
<polygon fill="#63b8ff" stroke="#63b8ff" points="371.49,-88.62 361.04,-86.93 368.15,-94.77 371.49,-88.62"/>
</a>
</g>
</g>
<!-- Node19&#45;&gt;Node2 -->
<g id="edge28_Node000019_Node000002" class="edge">
<title>Node19&#45;&gt;Node2</title>
<g id="a_edge28_Node000019_Node000002"><a xlink:title=" ">
<path fill="none" stroke="#63b8ff" d="M519.93,-176.86C519.34,-163.16 516.16,-136.7 501,-121.75 470.82,-91.99 422.4,-81.75 387.1,-78.39"/>
<polygon fill="#63b8ff" stroke="#63b8ff" points="387.44,-74.9 377.19,-77.61 386.89,-81.88 387.44,-74.9"/>
</a>
</g>
</g>
</g>
</svg>
