<?xml version="1.0" encoding="UTF-8" standalone="no"?>
<!DOCTYPE svg PUBLIC "-//W3C//DTD SVG 1.1//EN"
 "http://www.w3.org/Graphics/SVG/1.1/DTD/svg11.dtd">
<!-- Generated by graphviz version 12.2.0 (20241103.1931)
 -->
<!-- Title: include/Sandals.hh Pages: 1 -->
<svg width="3469pt" height="94pt"
 viewBox="0.00 0.00 3468.75 93.75" xmlns="http://www.w3.org/2000/svg" xmlns:xlink="http://www.w3.org/1999/xlink">
<g id="graph0" class="graph" transform="scale(1 1) rotate(0) translate(4 89.75)">
<title>include/Sandals.hh</title>
<!-- Node1 -->
<g id="Node000001" class="node">
<title>Node1</title>
<g id="a_Node000001"><a xlink:title=" ">
<polygon fill="#999999" stroke="#666666" points="1568,-85.75 1469.5,-85.75 1469.5,-66.5 1568,-66.5 1568,-85.75"/>
<text text-anchor="middle" x="1518.75" y="-72.25" font-family="Helvetica,sans-Serif" font-size="10.00">include/Sandals.hh</text>
</a>
</g>
</g>
<!-- Node2 -->
<g id="Node000002" class="node">
<title>Node2</title>
<g id="a_Node000002"><a xlink:title=" ">
<polygon fill="#e0e0e0" stroke="#999999" points="53.5,-24.88 0,-24.88 0,-5.63 53.5,-5.63 53.5,-24.88"/>
<text text-anchor="middle" x="26.75" y="-11.38" font-family="Helvetica,sans-Serif" font-size="10.00">iostream</text>
</a>
</g>
</g>
<!-- Node1&#45;&gt;Node2 -->
<g id="edge1_Node000001_Node000002" class="edge">
<title>Node1&#45;&gt;Node2</title>
<g id="a_edge1_Node000001_Node000002"><a xlink:title=" ">
<path fill="none" stroke="#63b8ff" d="M1469.22,-74.62C1230.29,-72.06 202.68,-59.42 62.75,-30.5 60.85,-30.11 58.92,-29.62 56.99,-29.07"/>
<polygon fill="#63b8ff" stroke="#63b8ff" points="58.2,-25.79 47.61,-25.85 55.93,-32.41 58.2,-25.79"/>
</a>
</g>
</g>
<!-- Node3 -->
<g id="Node000003" class="node">
<title>Node3</title>
<g id="a_Node000003"><a xlink:title=" ">
<polygon fill="#e0e0e0" stroke="#999999" points="111.75,-24.88 71.75,-24.88 71.75,-5.63 111.75,-5.63 111.75,-24.88"/>
<text text-anchor="middle" x="91.75" y="-11.38" font-family="Helvetica,sans-Serif" font-size="10.00">string</text>
</a>
</g>
</g>
<!-- Node1&#45;&gt;Node3 -->
<g id="edge2_Node000001_Node000003" class="edge">
<title>Node1&#45;&gt;Node3</title>
<g id="a_edge2_Node000001_Node000003"><a xlink:title=" ">
<path fill="none" stroke="#63b8ff" d="M1469.22,-74.78C1236.04,-73.01 253.51,-63.6 120.75,-30.5 119.75,-30.25 118.74,-29.96 117.74,-29.65"/>
<polygon fill="#63b8ff" stroke="#63b8ff" points="119.22,-26.47 108.64,-25.93 116.58,-32.95 119.22,-26.47"/>
</a>
</g>
</g>
<!-- Node4 -->
<g id="Node000004" class="node">
<title>Node4</title>
<g id="a_Node000004"><a xlink:title=" ">
<polygon fill="#e0e0e0" stroke="#999999" points="173.25,-24.88 130.25,-24.88 130.25,-5.63 173.25,-5.63 173.25,-24.88"/>
<text text-anchor="middle" x="151.75" y="-11.38" font-family="Helvetica,sans-Serif" font-size="10.00">cmath</text>
</a>
</g>
</g>
<!-- Node1&#45;&gt;Node4 -->
<g id="edge3_Node000001_Node000004" class="edge">
<title>Node1&#45;&gt;Node4</title>
<g id="a_edge3_Node000001_Node000004"><a xlink:title=" ">
<path fill="none" stroke="#63b8ff" d="M1469.14,-74.67C1242.18,-72.41 308.48,-61.3 181.75,-30.5 180.57,-30.21 179.39,-29.88 178.2,-29.51"/>
<polygon fill="#63b8ff" stroke="#63b8ff" points="179.8,-26.37 169.21,-25.92 177.2,-32.87 179.8,-26.37"/>
</a>
</g>
</g>
<!-- Node5 -->
<g id="Node000005" class="node">
<title>Node5</title>
<g id="a_Node000005"><a xlink:title=" ">
<polygon fill="#e0e0e0" stroke="#999999" points="234.25,-24.88 191.25,-24.88 191.25,-5.63 234.25,-5.63 234.25,-24.88"/>
<text text-anchor="middle" x="212.75" y="-11.38" font-family="Helvetica,sans-Serif" font-size="10.00">vector</text>
</a>
</g>
</g>
<!-- Node1&#45;&gt;Node5 -->
<g id="edge4_Node000001_Node000005" class="edge">
<title>Node1&#45;&gt;Node5</title>
<g id="a_edge4_Node000001_Node000005"><a xlink:title=" ">
<path fill="none" stroke="#63b8ff" d="M1469.25,-74.55C1249.1,-71.81 364.37,-59.11 243.75,-30.5 242.54,-30.21 241.32,-29.88 240.1,-29.5"/>
<polygon fill="#63b8ff" stroke="#63b8ff" points="241.37,-26.24 230.78,-25.9 238.84,-32.77 241.37,-26.24"/>
</a>
</g>
</g>
<!-- Node6 -->
<g id="Node000006" class="node">
<title>Node6</title>
<g id="a_Node000006"><a xlink:title=" ">
<polygon fill="#e0e0e0" stroke="#999999" points="287.12,-24.88 252.38,-24.88 252.38,-5.63 287.12,-5.63 287.12,-24.88"/>
<text text-anchor="middle" x="269.75" y="-11.38" font-family="Helvetica,sans-Serif" font-size="10.00">map</text>
</a>
</g>
</g>
<!-- Node1&#45;&gt;Node6 -->
<g id="edge5_Node000001_Node000006" class="edge">
<title>Node1&#45;&gt;Node6</title>
<g id="a_edge5_Node000001_Node000006"><a xlink:title=" ">
<path fill="none" stroke="#63b8ff" d="M1469.13,-74.62C1254.43,-72.25 411.16,-61.07 296.75,-30.5 295.94,-30.28 295.13,-30.04 294.33,-29.78"/>
<polygon fill="#63b8ff" stroke="#63b8ff" points="296.07,-26.72 285.5,-25.95 293.28,-33.14 296.07,-26.72"/>
</a>
</g>
</g>
<!-- Node7 -->
<g id="Node000007" class="node">
<title>Node7</title>
<g id="a_Node000007"><a xlink:title=" ">
<polygon fill="#e0e0e0" stroke="#999999" points="356,-24.88 305.5,-24.88 305.5,-5.63 356,-5.63 356,-24.88"/>
<text text-anchor="middle" x="330.75" y="-11.38" font-family="Helvetica,sans-Serif" font-size="10.00">numeric</text>
</a>
</g>
</g>
<!-- Node1&#45;&gt;Node7 -->
<g id="edge6_Node000001_Node000007" class="edge">
<title>Node1&#45;&gt;Node7</title>
<g id="a_edge6_Node000001_Node000007"><a xlink:title=" ">
<path fill="none" stroke="#63b8ff" d="M1469.15,-75.55C1276.78,-76.86 579.97,-78.12 364.75,-30.5 363.11,-30.14 361.45,-29.7 359.79,-29.2"/>
<polygon fill="#63b8ff" stroke="#63b8ff" points="361.08,-25.95 350.49,-25.85 358.7,-32.53 361.08,-25.95"/>
</a>
</g>
</g>
<!-- Node8 -->
<g id="Node000008" class="node">
<title>Node8</title>
<g id="a_Node000008"><a xlink:title=" ">
<polygon fill="#e0e0e0" stroke="#999999" points="445.88,-24.88 373.62,-24.88 373.62,-5.63 445.88,-5.63 445.88,-24.88"/>
<text text-anchor="middle" x="409.75" y="-11.38" font-family="Helvetica,sans-Serif" font-size="10.00">Eigen/Dense</text>
</a>
</g>
</g>
<!-- Node1&#45;&gt;Node8 -->
<g id="edge7_Node000001_Node000008" class="edge">
<title>Node1&#45;&gt;Node8</title>
<g id="a_edge7_Node000001_Node000008"><a xlink:title=" ">
<path fill="none" stroke="#63b8ff" d="M1469.13,-74.78C1286.69,-73.25 653.45,-65.49 454.75,-30.5 451.57,-29.94 448.31,-29.22 445.06,-28.39"/>
<polygon fill="#63b8ff" stroke="#63b8ff" points="446.25,-25.09 435.67,-25.7 444.32,-31.82 446.25,-25.09"/>
</a>
</g>
</g>
<!-- Node9 -->
<g id="Node000009" class="node">
<title>Node9</title>
<g id="a_Node000009"><a xlink:href="_nonlinear_solver_8hxx.html" target="_top" xlink:title=" ">
<polygon fill="white" stroke="#666666" points="587.38,-30.5 464.12,-30.5 464.12,0 587.38,0 587.38,-30.5"/>
<text text-anchor="start" x="472.12" y="-17" font-family="Helvetica,sans-Serif" font-size="10.00">Sandals/NonlinearSolver</text>
<text text-anchor="middle" x="525.75" y="-5.75" font-family="Helvetica,sans-Serif" font-size="10.00">/NonlinearSolver.hxx</text>
</a>
</g>
</g>
<!-- Node1&#45;&gt;Node9 -->
<g id="edge8_Node000001_Node000009" class="edge">
<title>Node1&#45;&gt;Node9</title>
<g id="a_edge8_Node000001_Node000009"><a xlink:title=" ">
<path fill="none" stroke="#63b8ff" d="M1469.49,-75.38C1332.69,-75.52 936.49,-72.14 598.74,-30.75"/>
<polygon fill="#63b8ff" stroke="#63b8ff" points="599.36,-27.3 589,-29.54 598.5,-34.24 599.36,-27.3"/>
</a>
</g>
</g>
<!-- Node10 -->
<g id="Node000010" class="node">
<title>Node10</title>
<g id="a_Node000010"><a xlink:href="_newton_8hxx.html" target="_top" xlink:title=" ">
<polygon fill="white" stroke="#666666" points="728.38,-30.5 605.12,-30.5 605.12,0 728.38,0 728.38,-30.5"/>
<text text-anchor="start" x="613.12" y="-17" font-family="Helvetica,sans-Serif" font-size="10.00">Sandals/NonlinearSolver</text>
<text text-anchor="middle" x="666.75" y="-5.75" font-family="Helvetica,sans-Serif" font-size="10.00">/Newton.hxx</text>
</a>
</g>
</g>
<!-- Node1&#45;&gt;Node10 -->
<g id="edge9_Node000001_Node000010" class="edge">
<title>Node1&#45;&gt;Node10</title>
<g id="a_edge9_Node000001_Node000010"><a xlink:title=" ">
<path fill="none" stroke="#63b8ff" d="M1469.11,-74.76C1346.72,-73.34 1020.61,-66.35 739.74,-30.76"/>
<polygon fill="#63b8ff" stroke="#63b8ff" points="740.37,-27.32 730.01,-29.52 739.48,-34.26 740.37,-27.32"/>
</a>
</g>
</g>
<!-- Node11 -->
<g id="Node000011" class="node">
<title>Node11</title>
<g id="a_Node000011"><a xlink:href="_broyden_8hxx.html" target="_top" xlink:title=" ">
<polygon fill="white" stroke="#666666" points="869.38,-30.5 746.12,-30.5 746.12,0 869.38,0 869.38,-30.5"/>
<text text-anchor="start" x="754.12" y="-17" font-family="Helvetica,sans-Serif" font-size="10.00">Sandals/NonlinearSolver</text>
<text text-anchor="middle" x="807.75" y="-5.75" font-family="Helvetica,sans-Serif" font-size="10.00">/Broyden.hxx</text>
</a>
</g>
</g>
<!-- Node1&#45;&gt;Node11 -->
<g id="edge10_Node000001_Node000011" class="edge">
<title>Node1&#45;&gt;Node11</title>
<g id="a_edge10_Node000001_Node000011"><a xlink:title=" ">
<path fill="none" stroke="#63b8ff" d="M1469.06,-73.89C1362.83,-70.76 1105.62,-60.65 880.87,-30.81"/>
<polygon fill="#63b8ff" stroke="#63b8ff" points="881.39,-27.35 871.01,-29.48 880.46,-34.29 881.39,-27.35"/>
</a>
</g>
</g>
<!-- Node12 -->
<g id="Node000012" class="node">
<title>Node12</title>
<g id="a_Node000012"><a xlink:href="_implicit_8hxx.html" target="_top" xlink:title=" ">
<polygon fill="white" stroke="#666666" points="1028.38,-24.88 887.12,-24.88 887.12,-5.63 1028.38,-5.63 1028.38,-24.88"/>
<text text-anchor="middle" x="957.75" y="-11.38" font-family="Helvetica,sans-Serif" font-size="10.00">Sandals/System/Implicit.hxx</text>
</a>
</g>
</g>
<!-- Node1&#45;&gt;Node12 -->
<g id="edge11_Node000001_Node000012" class="edge">
<title>Node1&#45;&gt;Node12</title>
<g id="a_edge11_Node000001_Node000012"><a xlink:title=" ">
<path fill="none" stroke="#63b8ff" d="M1469.09,-71.9C1381.65,-65.9 1194.62,-51.71 1037.75,-30.5 1030.78,-29.56 1023.49,-28.44 1016.26,-27.25"/>
<polygon fill="#63b8ff" stroke="#63b8ff" points="1016.96,-23.82 1006.52,-25.6 1015.79,-30.72 1016.96,-23.82"/>
</a>
</g>
</g>
<!-- Node13 -->
<g id="Node000013" class="node">
<title>Node13</title>
<g id="a_Node000013"><a xlink:href="_explicit_8hxx.html" target="_top" xlink:title=" ">
<polygon fill="white" stroke="#666666" points="1188.75,-24.88 1046.75,-24.88 1046.75,-5.63 1188.75,-5.63 1188.75,-24.88"/>
<text text-anchor="middle" x="1117.75" y="-11.38" font-family="Helvetica,sans-Serif" font-size="10.00">Sandals/System/Explicit.hxx</text>
</a>
</g>
</g>
<!-- Node1&#45;&gt;Node13 -->
<g id="edge12_Node000001_Node000013" class="edge">
<title>Node1&#45;&gt;Node13</title>
<g id="a_edge12_Node000001_Node000013"><a xlink:title=" ">
<path fill="none" stroke="#63b8ff" d="M1469.17,-68.83C1406.03,-60.67 1293.61,-45.7 1197.75,-30.5 1191.41,-29.5 1184.8,-28.4 1178.21,-27.27"/>
<polygon fill="#63b8ff" stroke="#63b8ff" points="1179.15,-23.88 1168.69,-25.62 1177.95,-30.78 1179.15,-23.88"/>
</a>
</g>
</g>
<!-- Node14 -->
<g id="Node000014" class="node">
<title>Node14</title>
<g id="a_Node000014"><a xlink:href="_linear_8hxx.html" target="_top" xlink:title=" ">
<polygon fill="white" stroke="#666666" points="1342.38,-24.88 1207.12,-24.88 1207.12,-5.63 1342.38,-5.63 1342.38,-24.88"/>
<text text-anchor="middle" x="1274.75" y="-11.38" font-family="Helvetica,sans-Serif" font-size="10.00">Sandals/System/Linear.hxx</text>
</a>
</g>
</g>
<!-- Node1&#45;&gt;Node14 -->
<g id="edge13_Node000001_Node000014" class="edge">
<title>Node1&#45;&gt;Node14</title>
<g id="a_edge13_Node000001_Node000014"><a xlink:title=" ">
<path fill="none" stroke="#63b8ff" d="M1481.16,-66.05C1438.8,-55.83 1369.81,-39.19 1323.38,-27.98"/>
<polygon fill="#63b8ff" stroke="#63b8ff" points="1324.4,-24.63 1313.85,-25.69 1322.75,-31.43 1324.4,-24.63"/>
</a>
</g>
</g>
<!-- Node15 -->
<g id="Node000015" class="node">
<title>Node15</title>
<g id="a_Node000015"><a xlink:href="_semi_explicit_8hxx.html" target="_top" xlink:title=" ">
<polygon fill="white" stroke="#666666" points="1525,-24.88 1360.5,-24.88 1360.5,-5.63 1525,-5.63 1525,-24.88"/>
<text text-anchor="middle" x="1442.75" y="-11.38" font-family="Helvetica,sans-Serif" font-size="10.00">Sandals/System/SemiExplicit.hxx</text>
</a>
</g>
</g>
<!-- Node1&#45;&gt;Node15 -->
<g id="edge14_Node000001_Node000015" class="edge">
<title>Node1&#45;&gt;Node15</title>
<g id="a_edge14_Node000001_Node000015"><a xlink:title=" ">
<path fill="none" stroke="#63b8ff" d="M1507.21,-66.18C1495.6,-57.19 1477.46,-43.14 1463.37,-32.23"/>
<polygon fill="#63b8ff" stroke="#63b8ff" points="1465.65,-29.56 1455.6,-26.2 1461.36,-35.09 1465.65,-29.56"/>
</a>
</g>
</g>
<!-- Node16 -->
<g id="Node000016" class="node">
<title>Node16</title>
<g id="a_Node000016"><a xlink:href="_tableau_8hxx.html" target="_top" xlink:title=" ">
<polygon fill="white" stroke="#666666" points="1648.75,-30.5 1542.75,-30.5 1542.75,0 1648.75,0 1648.75,-30.5"/>
<text text-anchor="start" x="1550.75" y="-17" font-family="Helvetica,sans-Serif" font-size="10.00">Sandals/RungeKutta</text>
<text text-anchor="middle" x="1595.75" y="-5.75" font-family="Helvetica,sans-Serif" font-size="10.00">/Tableau.hxx</text>
</a>
</g>
</g>
<!-- Node1&#45;&gt;Node16 -->
<g id="edge15_Node000001_Node000016" class="edge">
<title>Node1&#45;&gt;Node16</title>
<g id="a_edge15_Node000001_Node000016"><a xlink:title=" ">
<path fill="none" stroke="#63b8ff" d="M1530.44,-66.18C1540.33,-58.62 1554.9,-47.49 1567.76,-37.65"/>
<polygon fill="#63b8ff" stroke="#63b8ff" points="1569.72,-40.56 1575.54,-31.7 1565.47,-35 1569.72,-40.56"/>
</a>
</g>
</g>
<!-- Node17 -->
<g id="Node000017" class="node">
<title>Node17</title>
<g id="a_Node000017"><a xlink:href="_solution_8hxx.html" target="_top" xlink:title=" ">
<polygon fill="white" stroke="#666666" points="1772.75,-30.5 1666.75,-30.5 1666.75,0 1772.75,0 1772.75,-30.5"/>
<text text-anchor="start" x="1674.75" y="-17" font-family="Helvetica,sans-Serif" font-size="10.00">Sandals/RungeKutta</text>
<text text-anchor="middle" x="1719.75" y="-5.75" font-family="Helvetica,sans-Serif" font-size="10.00">/Solution.hxx</text>
</a>
</g>
</g>
<!-- Node1&#45;&gt;Node17 -->
<g id="edge16_Node000001_Node000017" class="edge">
<title>Node1&#45;&gt;Node17</title>
<g id="a_edge16_Node000001_Node000017"><a xlink:title=" ">
<path fill="none" stroke="#63b8ff" d="M1549.72,-66.05C1578.66,-57.58 1622.69,-44.68 1658.69,-34.13"/>
<polygon fill="#63b8ff" stroke="#63b8ff" points="1659.52,-37.54 1668.13,-31.37 1657.55,-30.82 1659.52,-37.54"/>
</a>
</g>
</g>
<!-- Node18 -->
<g id="Node000018" class="node">
<title>Node18</title>
<g id="a_Node000018"><a xlink:href="_runge_kutta_8hxx.html" target="_top" xlink:title=" ">
<polygon fill="white" stroke="#666666" points="1896.75,-30.5 1790.75,-30.5 1790.75,0 1896.75,0 1896.75,-30.5"/>
<text text-anchor="start" x="1798.75" y="-17" font-family="Helvetica,sans-Serif" font-size="10.00">Sandals/RungeKutta</text>
<text text-anchor="middle" x="1843.75" y="-5.75" font-family="Helvetica,sans-Serif" font-size="10.00">/RungeKutta.hxx</text>
</a>
</g>
</g>
<!-- Node1&#45;&gt;Node18 -->
<g id="edge17_Node000001_Node000018" class="edge">
<title>Node1&#45;&gt;Node18</title>
<g id="a_edge17_Node000001_Node000018"><a xlink:title=" ">
<path fill="none" stroke="#63b8ff" d="M1568.35,-67.59C1618.96,-59.7 1700.03,-46.53 1779.2,-30.94"/>
<polygon fill="#63b8ff" stroke="#63b8ff" points="1779.75,-34.4 1788.87,-29.02 1778.38,-27.54 1779.75,-34.4"/>
</a>
</g>
</g>
<!-- Node19 -->
<g id="Node000019" class="node">
<title>Node19</title>
<g id="a_Node000019"><a xlink:href="_r_k4_8hxx.html" target="_top" xlink:title=" ">
<polygon fill="white" stroke="#666666" points="2020.75,-30.5 1914.75,-30.5 1914.75,0 2020.75,0 2020.75,-30.5"/>
<text text-anchor="start" x="1922.75" y="-17" font-family="Helvetica,sans-Serif" font-size="10.00">Sandals/RungeKutta</text>
<text text-anchor="middle" x="1967.75" y="-5.75" font-family="Helvetica,sans-Serif" font-size="10.00">/Tableau/RK4.hxx</text>
</a>
</g>
</g>
<!-- Node1&#45;&gt;Node19 -->
<g id="edge18_Node000001_Node000019" class="edge">
<title>Node1&#45;&gt;Node19</title>
<g id="a_edge18_Node000001_Node000019"><a xlink:title=" ">
<path fill="none" stroke="#63b8ff" d="M1568.48,-71.17C1640.3,-65.07 1777.39,-51.97 1903.4,-30.78"/>
<polygon fill="#63b8ff" stroke="#63b8ff" points="1903.63,-34.29 1912.9,-29.16 1902.45,-27.39 1903.63,-34.29"/>
</a>
</g>
</g>
<!-- Node20 -->
<g id="Node000020" class="node">
<title>Node20</title>
<g id="a_Node000020"><a xlink:href="_heun2_8hxx.html" target="_top" xlink:title=" ">
<polygon fill="white" stroke="#666666" points="2144.75,-30.5 2038.75,-30.5 2038.75,0 2144.75,0 2144.75,-30.5"/>
<text text-anchor="start" x="2046.75" y="-17" font-family="Helvetica,sans-Serif" font-size="10.00">Sandals/RungeKutta</text>
<text text-anchor="middle" x="2091.75" y="-5.75" font-family="Helvetica,sans-Serif" font-size="10.00">/Tableau/Heun2.hxx</text>
</a>
</g>
</g>
<!-- Node1&#45;&gt;Node20 -->
<g id="edge19_Node000001_Node000020" class="edge">
<title>Node1&#45;&gt;Node20</title>
<g id="a_edge19_Node000001_Node000020"><a xlink:title=" ">
<path fill="none" stroke="#63b8ff" d="M1568.36,-73.08C1658.06,-68.89 1853.31,-57.5 2027.25,-30.75"/>
<polygon fill="#63b8ff" stroke="#63b8ff" points="2027.57,-34.24 2036.91,-29.24 2026.49,-27.32 2027.57,-34.24"/>
</a>
</g>
</g>
<!-- Node21 -->
<g id="Node000021" class="node">
<title>Node21</title>
<g id="a_Node000021"><a xlink:href="_heun3_8hxx.html" target="_top" xlink:title=" ">
<polygon fill="white" stroke="#666666" points="2268.75,-30.5 2162.75,-30.5 2162.75,0 2268.75,0 2268.75,-30.5"/>
<text text-anchor="start" x="2170.75" y="-17" font-family="Helvetica,sans-Serif" font-size="10.00">Sandals/RungeKutta</text>
<text text-anchor="middle" x="2215.75" y="-5.75" font-family="Helvetica,sans-Serif" font-size="10.00">/Tableau/Heun3.hxx</text>
</a>
</g>
</g>
<!-- Node1&#45;&gt;Node21 -->
<g id="edge20_Node000001_Node000021" class="edge">
<title>Node1&#45;&gt;Node21</title>
<g id="a_edge20_Node000001_Node000021"><a xlink:title=" ">
<path fill="none" stroke="#63b8ff" d="M1568.44,-74.26C1674.04,-71.86 1928.68,-63.07 2151.18,-30.72"/>
<polygon fill="#63b8ff" stroke="#63b8ff" points="2151.54,-34.21 2160.92,-29.28 2150.52,-27.28 2151.54,-34.21"/>
</a>
</g>
</g>
<!-- Node22 -->
<g id="Node000022" class="node">
<title>Node22</title>
<g id="a_Node000022"><a xlink:href="_r_k_f45_8hxx.html" target="_top" xlink:title=" ">
<polygon fill="white" stroke="#666666" points="2392.75,-30.5 2286.75,-30.5 2286.75,0 2392.75,0 2392.75,-30.5"/>
<text text-anchor="start" x="2294.75" y="-17" font-family="Helvetica,sans-Serif" font-size="10.00">Sandals/RungeKutta</text>
<text text-anchor="middle" x="2339.75" y="-5.75" font-family="Helvetica,sans-Serif" font-size="10.00">/Tableau/RKF45.hxx</text>
</a>
</g>
</g>
<!-- Node1&#45;&gt;Node22 -->
<g id="edge21_Node000001_Node000022" class="edge">
<title>Node1&#45;&gt;Node22</title>
<g id="a_edge21_Node000001_Node000022"><a xlink:title=" ">
<path fill="none" stroke="#63b8ff" d="M1568.32,-75.07C1688.21,-74.32 2003.4,-68.71 2275.15,-30.7"/>
<polygon fill="#63b8ff" stroke="#63b8ff" points="2275.51,-34.18 2284.92,-29.32 2274.53,-27.25 2275.51,-34.18"/>
</a>
</g>
</g>
<!-- Node23 -->
<g id="Node000023" class="node">
<title>Node23</title>
<g id="a_Node000023"><a xlink:href="_explicit_euler_8hxx.html" target="_top" xlink:title=" ">
<polygon fill="white" stroke="#666666" points="2539,-30.5 2410.5,-30.5 2410.5,0 2539,0 2539,-30.5"/>
<text text-anchor="start" x="2418.5" y="-17" font-family="Helvetica,sans-Serif" font-size="10.00">Sandals/RungeKutta</text>
<text text-anchor="middle" x="2474.75" y="-5.75" font-family="Helvetica,sans-Serif" font-size="10.00">/Tableau/ExplicitEuler.hxx</text>
</a>
</g>
</g>
<!-- Node1&#45;&gt;Node23 -->
<g id="edge22_Node000001_Node000023" class="edge">
<title>Node1&#45;&gt;Node23</title>
<g id="a_edge22_Node000001_Node000023"><a xlink:title=" ">
<path fill="none" stroke="#63b8ff" d="M1568.26,-75.09C1701.19,-74.46 2077.04,-69.22 2398.92,-30.72"/>
<polygon fill="#63b8ff" stroke="#63b8ff" points="2399.33,-34.2 2408.84,-29.52 2398.49,-27.25 2399.33,-34.2"/>
</a>
</g>
</g>
<!-- Node24 -->
<g id="Node000024" class="node">
<title>Node24</title>
<g id="a_Node000024"><a xlink:href="_implicit_euler_8hxx.html" target="_top" xlink:title=" ">
<polygon fill="white" stroke="#666666" points="2684.62,-30.5 2556.88,-30.5 2556.88,0 2684.62,0 2684.62,-30.5"/>
<text text-anchor="start" x="2564.88" y="-17" font-family="Helvetica,sans-Serif" font-size="10.00">Sandals/RungeKutta</text>
<text text-anchor="middle" x="2620.75" y="-5.75" font-family="Helvetica,sans-Serif" font-size="10.00">/Tableau/ImplicitEuler.hxx</text>
</a>
</g>
</g>
<!-- Node1&#45;&gt;Node24 -->
<g id="edge23_Node000001_Node000024" class="edge">
<title>Node1&#45;&gt;Node24</title>
<g id="a_edge23_Node000001_Node000024"><a xlink:title=" ">
<path fill="none" stroke="#63b8ff" d="M1568.49,-75.59C1716.08,-76.43 2164.43,-74.94 2545.49,-30.63"/>
<polygon fill="#63b8ff" stroke="#63b8ff" points="2545.72,-34.13 2555.24,-29.48 2544.9,-27.18 2545.72,-34.13"/>
</a>
</g>
</g>
<!-- Node25 -->
<g id="Node000025" class="node">
<title>Node25</title>
<g id="a_Node000025"><a xlink:href="_radau_i_i_a3_8hxx.html" target="_top" xlink:title=" ">
<polygon fill="white" stroke="#666666" points="2823.25,-30.5 2702.25,-30.5 2702.25,0 2823.25,0 2823.25,-30.5"/>
<text text-anchor="start" x="2710.25" y="-17" font-family="Helvetica,sans-Serif" font-size="10.00">Sandals/RungeKutta</text>
<text text-anchor="middle" x="2762.75" y="-5.75" font-family="Helvetica,sans-Serif" font-size="10.00">/Tableau/RadauIIA3.hxx</text>
</a>
</g>
</g>
<!-- Node1&#45;&gt;Node25 -->
<g id="edge24_Node000001_Node000025" class="edge">
<title>Node1&#45;&gt;Node25</title>
<g id="a_edge24_Node000001_Node000025"><a xlink:title=" ">
<path fill="none" stroke="#63b8ff" d="M1568.37,-74.34C1759.45,-71.13 2448.7,-58 2690.7,-30.7"/>
<polygon fill="#63b8ff" stroke="#63b8ff" points="2690.86,-34.21 2700.38,-29.57 2690.04,-27.25 2690.86,-34.21"/>
</a>
</g>
</g>
<!-- Node26 -->
<g id="Node000026" class="node">
<title>Node26</title>
<g id="a_Node000026"><a xlink:href="_radau_i_i_a5_8hxx.html" target="_top" xlink:title=" ">
<polygon fill="white" stroke="#666666" points="2962.25,-30.5 2841.25,-30.5 2841.25,0 2962.25,0 2962.25,-30.5"/>
<text text-anchor="start" x="2849.25" y="-17" font-family="Helvetica,sans-Serif" font-size="10.00">Sandals/RungeKutta</text>
<text text-anchor="middle" x="2901.75" y="-5.75" font-family="Helvetica,sans-Serif" font-size="10.00">/Tableau/RadauIIA5.hxx</text>
</a>
</g>
</g>
<!-- Node1&#45;&gt;Node26 -->
<g id="edge25_Node000001_Node000026" class="edge">
<title>Node1&#45;&gt;Node26</title>
<g id="a_edge25_Node000001_Node000026"><a xlink:title=" ">
<path fill="none" stroke="#63b8ff" d="M1568.46,-74.57C1773.92,-72.08 2558.38,-60.87 2829.53,-30.71"/>
<polygon fill="#63b8ff" stroke="#63b8ff" points="2829.85,-34.2 2839.39,-29.58 2829.05,-27.25 2829.85,-34.2"/>
</a>
</g>
</g>
<!-- Node27 -->
<g id="Node000027" class="node">
<title>Node27</title>
<g id="a_Node000027"><a xlink:href="_gauss_legendre2_8hxx.html" target="_top" xlink:title=" ">
<polygon fill="white" stroke="#666666" points="3128.75,-30.5 2980.75,-30.5 2980.75,0 3128.75,0 3128.75,-30.5"/>
<text text-anchor="start" x="2988.75" y="-17" font-family="Helvetica,sans-Serif" font-size="10.00">Sandals/RungeKutta</text>
<text text-anchor="middle" x="3054.75" y="-5.75" font-family="Helvetica,sans-Serif" font-size="10.00">/Tableau/GaussLegendre2.hxx</text>
</a>
</g>
</g>
<!-- Node1&#45;&gt;Node27 -->
<g id="edge26_Node000001_Node000027" class="edge">
<title>Node1&#45;&gt;Node27</title>
<g id="a_edge26_Node000001_Node000027"><a xlink:title=" ">
<path fill="none" stroke="#63b8ff" d="M1568.37,-74.53C1787.18,-71.77 2667.91,-59.13 2969.27,-30.61"/>
<polygon fill="#63b8ff" stroke="#63b8ff" points="2969.49,-34.11 2979.1,-29.65 2968.81,-27.14 2969.49,-34.11"/>
</a>
</g>
</g>
<!-- Node28 -->
<g id="Node000028" class="node">
<title>Node28</title>
<g id="a_Node000028"><a xlink:href="_gauss_legendre4_8hxx.html" target="_top" xlink:title=" ">
<polygon fill="white" stroke="#666666" points="3294.75,-30.5 3146.75,-30.5 3146.75,0 3294.75,0 3294.75,-30.5"/>
<text text-anchor="start" x="3154.75" y="-17" font-family="Helvetica,sans-Serif" font-size="10.00">Sandals/RungeKutta</text>
<text text-anchor="middle" x="3220.75" y="-5.75" font-family="Helvetica,sans-Serif" font-size="10.00">/Tableau/GaussLegendre4.hxx</text>
</a>
</g>
</g>
<!-- Node1&#45;&gt;Node28 -->
<g id="edge27_Node000001_Node000028" class="edge">
<title>Node1&#45;&gt;Node28</title>
<g id="a_edge27_Node000001_Node000028"><a xlink:title=" ">
<path fill="none" stroke="#63b8ff" d="M1568.39,-74.71C1802.59,-72.61 2799.35,-62.03 3135.42,-30.6"/>
<polygon fill="#63b8ff" stroke="#63b8ff" points="3135.48,-34.11 3145.1,-29.66 3134.81,-27.14 3135.48,-34.11"/>
</a>
</g>
</g>
<!-- Node29 -->
<g id="Node000029" class="node">
<title>Node29</title>
<g id="a_Node000029"><a xlink:href="_gauss_legendre6_8hxx.html" target="_top" xlink:title=" ">
<polygon fill="white" stroke="#666666" points="3460.75,-30.5 3312.75,-30.5 3312.75,0 3460.75,0 3460.75,-30.5"/>
<text text-anchor="start" x="3320.75" y="-17" font-family="Helvetica,sans-Serif" font-size="10.00">Sandals/RungeKutta</text>
<text text-anchor="middle" x="3386.75" y="-5.75" font-family="Helvetica,sans-Serif" font-size="10.00">/Tableau/GaussLegendre6.hxx</text>
</a>
</g>
</g>
<!-- Node1&#45;&gt;Node29 -->
<g id="edge28_Node000001_Node000029" class="edge">
<title>Node1&#45;&gt;Node29</title>
<g id="a_edge28_Node000001_Node000029"><a xlink:title=" ">
<path fill="none" stroke="#63b8ff" d="M1568.38,-74.86C1817.1,-73.37 2930.23,-64.95 3301.32,-30.6"/>
<polygon fill="#63b8ff" stroke="#63b8ff" points="3301.48,-34.1 3311.1,-29.67 3300.82,-27.13 3301.48,-34.1"/>
</a>
</g>
</g>
</g>
</svg>
