<?xml version="1.0" encoding="UTF-8" standalone="no"?>
<!DOCTYPE svg PUBLIC "-//W3C//DTD SVG 1.1//EN"
 "http://www.w3.org/Graphics/SVG/1.1/DTD/svg11.dtd">
<!-- Generated by graphviz version 12.2.0 (20241103.1931)
 -->
<!-- Title: include/Sandals.hh Pages: 1 -->
<svg width="2973pt" height="94pt"
 viewBox="0.00 0.00 2972.75 93.75" xmlns="http://www.w3.org/2000/svg" xmlns:xlink="http://www.w3.org/1999/xlink">
<g id="graph0" class="graph" transform="scale(1 1) rotate(0) translate(4 89.75)">
<title>include/Sandals.hh</title>
<!-- Node1 -->
<g id="Node000001" class="node">
<title>Node1</title>
<g id="a_Node000001"><a xlink:title=" ">
<polygon fill="#999999" stroke="#666666" points="1245,-85.75 1146.5,-85.75 1146.5,-66.5 1245,-66.5 1245,-85.75"/>
<text text-anchor="middle" x="1195.75" y="-72.25" font-family="Helvetica,sans-Serif" font-size="10.00">include/Sandals.hh</text>
</a>
</g>
</g>
<!-- Node2 -->
<g id="Node000002" class="node">
<title>Node2</title>
<g id="a_Node000002"><a xlink:title=" ">
<polygon fill="#e0e0e0" stroke="#999999" points="53.5,-24.88 0,-24.88 0,-5.63 53.5,-5.63 53.5,-24.88"/>
<text text-anchor="middle" x="26.75" y="-11.38" font-family="Helvetica,sans-Serif" font-size="10.00">iostream</text>
</a>
</g>
</g>
<!-- Node1&#45;&gt;Node2 -->
<g id="edge1_Node000001_Node000002" class="edge">
<title>Node1&#45;&gt;Node2</title>
<g id="a_edge1_Node000001_Node000002"><a xlink:title=" ">
<path fill="none" stroke="#63b8ff" d="M1146.11,-75.38C955.98,-76.04 274.13,-75.14 62.75,-30.5 60.85,-30.1 58.92,-29.61 56.99,-29.05"/>
<polygon fill="#63b8ff" stroke="#63b8ff" points="58.21,-25.77 47.62,-25.82 55.93,-32.38 58.21,-25.77"/>
</a>
</g>
</g>
<!-- Node3 -->
<g id="Node000003" class="node">
<title>Node3</title>
<g id="a_Node000003"><a xlink:title=" ">
<polygon fill="#e0e0e0" stroke="#999999" points="111.75,-24.88 71.75,-24.88 71.75,-5.63 111.75,-5.63 111.75,-24.88"/>
<text text-anchor="middle" x="91.75" y="-11.38" font-family="Helvetica,sans-Serif" font-size="10.00">string</text>
</a>
</g>
</g>
<!-- Node1&#45;&gt;Node3 -->
<g id="edge2_Node000001_Node000003" class="edge">
<title>Node1&#45;&gt;Node3</title>
<g id="a_edge2_Node000001_Node000003"><a xlink:title=" ">
<path fill="none" stroke="#63b8ff" d="M1146.24,-74.27C948.42,-70.7 220.71,-55.93 120.75,-30.5 119.75,-30.25 118.75,-29.95 117.74,-29.63"/>
<polygon fill="#63b8ff" stroke="#63b8ff" points="119.23,-26.46 108.65,-25.91 116.57,-32.94 119.23,-26.46"/>
</a>
</g>
</g>
<!-- Node4 -->
<g id="Node000004" class="node">
<title>Node4</title>
<g id="a_Node000004"><a xlink:title=" ">
<polygon fill="#e0e0e0" stroke="#999999" points="173.25,-24.88 130.25,-24.88 130.25,-5.63 173.25,-5.63 173.25,-24.88"/>
<text text-anchor="middle" x="151.75" y="-11.38" font-family="Helvetica,sans-Serif" font-size="10.00">cmath</text>
</a>
</g>
</g>
<!-- Node1&#45;&gt;Node4 -->
<g id="edge3_Node000001_Node000004" class="edge">
<title>Node1&#45;&gt;Node4</title>
<g id="a_edge3_Node000001_Node000004"><a xlink:title=" ">
<path fill="none" stroke="#63b8ff" d="M1146.16,-75.54C968.94,-76.62 367.61,-76.72 181.75,-30.5 180.57,-30.21 179.39,-29.87 178.21,-29.49"/>
<polygon fill="#63b8ff" stroke="#63b8ff" points="179.8,-26.36 169.22,-25.88 177.2,-32.86 179.8,-26.36"/>
</a>
</g>
</g>
<!-- Node5 -->
<g id="Node000005" class="node">
<title>Node5</title>
<g id="a_Node000005"><a xlink:title=" ">
<polygon fill="#e0e0e0" stroke="#999999" points="234.25,-24.88 191.25,-24.88 191.25,-5.63 234.25,-5.63 234.25,-24.88"/>
<text text-anchor="middle" x="212.75" y="-11.38" font-family="Helvetica,sans-Serif" font-size="10.00">vector</text>
</a>
</g>
</g>
<!-- Node1&#45;&gt;Node5 -->
<g id="edge4_Node000001_Node000005" class="edge">
<title>Node1&#45;&gt;Node5</title>
<g id="a_edge4_Node000001_Node000005"><a xlink:title=" ">
<path fill="none" stroke="#63b8ff" d="M1146,-75.29C975.75,-75.48 417.37,-72.78 243.75,-30.5 242.54,-30.21 241.32,-29.86 240.1,-29.48"/>
<polygon fill="#63b8ff" stroke="#63b8ff" points="241.38,-26.23 230.79,-25.86 238.84,-32.75 241.38,-26.23"/>
</a>
</g>
</g>
<!-- Node6 -->
<g id="Node000006" class="node">
<title>Node6</title>
<g id="a_Node000006"><a xlink:title=" ">
<polygon fill="#e0e0e0" stroke="#999999" points="287.12,-24.88 252.38,-24.88 252.38,-5.63 287.12,-5.63 287.12,-24.88"/>
<text text-anchor="middle" x="269.75" y="-11.38" font-family="Helvetica,sans-Serif" font-size="10.00">map</text>
</a>
</g>
</g>
<!-- Node1&#45;&gt;Node6 -->
<g id="edge5_Node000001_Node000006" class="edge">
<title>Node1&#45;&gt;Node6</title>
<g id="a_edge5_Node000001_Node000006"><a xlink:title=" ">
<path fill="none" stroke="#63b8ff" d="M1146.14,-75.48C982.13,-76.2 458.67,-74.89 296.75,-30.5 295.94,-30.28 295.14,-30.03 294.33,-29.76"/>
<polygon fill="#63b8ff" stroke="#63b8ff" points="296.07,-26.7 285.51,-25.91 293.28,-33.12 296.07,-26.7"/>
</a>
</g>
</g>
<!-- Node7 -->
<g id="Node000007" class="node">
<title>Node7</title>
<g id="a_Node000007"><a xlink:title=" ">
<polygon fill="#e0e0e0" stroke="#999999" points="356,-24.88 305.5,-24.88 305.5,-5.63 356,-5.63 356,-24.88"/>
<text text-anchor="middle" x="330.75" y="-11.38" font-family="Helvetica,sans-Serif" font-size="10.00">numeric</text>
</a>
</g>
</g>
<!-- Node1&#45;&gt;Node7 -->
<g id="edge6_Node000001_Node000007" class="edge">
<title>Node1&#45;&gt;Node7</title>
<g id="a_edge6_Node000001_Node000007"><a xlink:title=" ">
<path fill="none" stroke="#63b8ff" d="M1146.26,-74.68C990.97,-72.95 514.82,-64.89 364.75,-30.5 363.11,-30.12 361.45,-29.68 359.79,-29.17"/>
<polygon fill="#63b8ff" stroke="#63b8ff" points="361.09,-25.92 350.5,-25.79 358.7,-32.5 361.09,-25.92"/>
</a>
</g>
</g>
<!-- Node8 -->
<g id="Node000008" class="node">
<title>Node8</title>
<g id="a_Node000008"><a xlink:title=" ">
<polygon fill="#e0e0e0" stroke="#999999" points="445.88,-24.88 373.62,-24.88 373.62,-5.63 445.88,-5.63 445.88,-24.88"/>
<text text-anchor="middle" x="409.75" y="-11.38" font-family="Helvetica,sans-Serif" font-size="10.00">Eigen/Dense</text>
</a>
</g>
</g>
<!-- Node1&#45;&gt;Node8 -->
<g id="edge7_Node000001_Node000008" class="edge">
<title>Node1&#45;&gt;Node8</title>
<g id="a_edge7_Node000001_Node000008"><a xlink:title=" ">
<path fill="none" stroke="#63b8ff" d="M1146.23,-73.73C1002.67,-69.45 588.04,-55.23 454.75,-30.5 451.76,-29.94 448.68,-29.25 445.62,-28.47"/>
<polygon fill="#63b8ff" stroke="#63b8ff" points="446.73,-25.15 436.16,-25.77 444.81,-31.88 446.73,-25.15"/>
</a>
</g>
</g>
<!-- Node9 -->
<g id="Node000009" class="node">
<title>Node9</title>
<g id="a_Node000009"><a xlink:href="_nonlinear_solver_8hxx.html" target="_top" xlink:title=" ">
<polygon fill="white" stroke="#666666" points="587.38,-30.5 464.12,-30.5 464.12,0 587.38,0 587.38,-30.5"/>
<text text-anchor="start" x="472.12" y="-17" font-family="Helvetica,sans-Serif" font-size="10.00">Sandals/NonlinearSolver</text>
<text text-anchor="middle" x="525.75" y="-5.75" font-family="Helvetica,sans-Serif" font-size="10.00">/NonlinearSolver.hxx</text>
</a>
</g>
</g>
<!-- Node1&#45;&gt;Node9 -->
<g id="edge8_Node000001_Node000009" class="edge">
<title>Node1&#45;&gt;Node9</title>
<g id="a_edge8_Node000001_Node000009"><a xlink:title=" ">
<path fill="none" stroke="#63b8ff" d="M1146.14,-73.56C1044.95,-69.91 807.35,-59 598.69,-30.8"/>
<polygon fill="#63b8ff" stroke="#63b8ff" points="599.4,-27.36 589.01,-29.47 598.45,-34.3 599.4,-27.36"/>
</a>
</g>
</g>
<!-- Node10 -->
<g id="Node000010" class="node">
<title>Node10</title>
<g id="a_Node000010"><a xlink:href="_newton_8hxx.html" target="_top" xlink:title=" ">
<polygon fill="white" stroke="#666666" points="728.38,-30.5 605.12,-30.5 605.12,0 728.38,0 728.38,-30.5"/>
<text text-anchor="start" x="613.12" y="-17" font-family="Helvetica,sans-Serif" font-size="10.00">Sandals/NonlinearSolver</text>
<text text-anchor="middle" x="666.75" y="-5.75" font-family="Helvetica,sans-Serif" font-size="10.00">/Newton.hxx</text>
</a>
</g>
</g>
<!-- Node1&#45;&gt;Node10 -->
<g id="edge9_Node000001_Node000010" class="edge">
<title>Node1&#45;&gt;Node10</title>
<g id="a_edge9_Node000001_Node000010"><a xlink:title=" ">
<path fill="none" stroke="#63b8ff" d="M1146.3,-72.01C1063.93,-66.45 893.25,-53.37 739.56,-30.83"/>
<polygon fill="#63b8ff" stroke="#63b8ff" points="740.43,-27.42 730.02,-29.41 739.4,-34.34 740.43,-27.42"/>
</a>
</g>
</g>
<!-- Node11 -->
<g id="Node000011" class="node">
<title>Node11</title>
<g id="a_Node000011"><a xlink:href="_broyden_8hxx.html" target="_top" xlink:title=" ">
<polygon fill="white" stroke="#666666" points="869.38,-30.5 746.12,-30.5 746.12,0 869.38,0 869.38,-30.5"/>
<text text-anchor="start" x="754.12" y="-17" font-family="Helvetica,sans-Serif" font-size="10.00">Sandals/NonlinearSolver</text>
<text text-anchor="middle" x="807.75" y="-5.75" font-family="Helvetica,sans-Serif" font-size="10.00">/Broyden.hxx</text>
</a>
</g>
</g>
<!-- Node1&#45;&gt;Node11 -->
<g id="edge10_Node000001_Node000011" class="edge">
<title>Node1&#45;&gt;Node11</title>
<g id="a_edge10_Node000001_Node000011"><a xlink:title=" ">
<path fill="none" stroke="#63b8ff" d="M1146.03,-69.11C1085.58,-61.58 980.22,-47.78 880.71,-30.95"/>
<polygon fill="#63b8ff" stroke="#63b8ff" points="881.49,-27.53 871.04,-29.3 880.31,-34.43 881.49,-27.53"/>
</a>
</g>
</g>
<!-- Node12 -->
<g id="Node000012" class="node">
<title>Node12</title>
<g id="a_Node000012"><a xlink:href="_implicit_8hxx.html" target="_top" xlink:title=" ">
<polygon fill="white" stroke="#666666" points="1028.38,-24.88 887.12,-24.88 887.12,-5.63 1028.38,-5.63 1028.38,-24.88"/>
<text text-anchor="middle" x="957.75" y="-11.38" font-family="Helvetica,sans-Serif" font-size="10.00">Sandals/System/Implicit.hxx</text>
</a>
</g>
</g>
<!-- Node1&#45;&gt;Node12 -->
<g id="edge11_Node000001_Node000012" class="edge">
<title>Node1&#45;&gt;Node12</title>
<g id="a_edge11_Node000001_Node000012"><a xlink:title=" ">
<path fill="none" stroke="#63b8ff" d="M1159.08,-66.05C1117.85,-55.86 1050.76,-39.26 1005.47,-28.06"/>
<polygon fill="#63b8ff" stroke="#63b8ff" points="1006.47,-24.7 995.93,-25.69 1004.79,-31.49 1006.47,-24.7"/>
</a>
</g>
</g>
<!-- Node13 -->
<g id="Node000013" class="node">
<title>Node13</title>
<g id="a_Node000013"><a xlink:href="_explicit_8hxx.html" target="_top" xlink:title=" ">
<polygon fill="white" stroke="#666666" points="1188.75,-24.88 1046.75,-24.88 1046.75,-5.63 1188.75,-5.63 1188.75,-24.88"/>
<text text-anchor="middle" x="1117.75" y="-11.38" font-family="Helvetica,sans-Serif" font-size="10.00">Sandals/System/Explicit.hxx</text>
</a>
</g>
</g>
<!-- Node1&#45;&gt;Node13 -->
<g id="edge12_Node000001_Node000013" class="edge">
<title>Node1&#45;&gt;Node13</title>
<g id="a_edge12_Node000001_Node000013"><a xlink:title=" ">
<path fill="none" stroke="#63b8ff" d="M1183.9,-66.18C1171.88,-57.11 1153.01,-42.87 1138.5,-31.91"/>
<polygon fill="#63b8ff" stroke="#63b8ff" points="1141.01,-29.42 1130.92,-26.19 1136.79,-35.01 1141.01,-29.42"/>
</a>
</g>
</g>
<!-- Node14 -->
<g id="Node000014" class="node">
<title>Node14</title>
<g id="a_Node000014"><a xlink:href="_linear_8hxx.html" target="_top" xlink:title=" ">
<polygon fill="white" stroke="#666666" points="1342.38,-24.88 1207.12,-24.88 1207.12,-5.63 1342.38,-5.63 1342.38,-24.88"/>
<text text-anchor="middle" x="1274.75" y="-11.38" font-family="Helvetica,sans-Serif" font-size="10.00">Sandals/System/Linear.hxx</text>
</a>
</g>
</g>
<!-- Node1&#45;&gt;Node14 -->
<g id="edge13_Node000001_Node000014" class="edge">
<title>Node1&#45;&gt;Node14</title>
<g id="a_edge13_Node000001_Node000014"><a xlink:title=" ">
<path fill="none" stroke="#63b8ff" d="M1207.75,-66.18C1219.93,-57.11 1239.04,-42.87 1253.73,-31.91"/>
<polygon fill="#63b8ff" stroke="#63b8ff" points="1255.5,-34.96 1261.43,-26.18 1251.32,-29.35 1255.5,-34.96"/>
</a>
</g>
</g>
<!-- Node15 -->
<g id="Node000015" class="node">
<title>Node15</title>
<g id="a_Node000015"><a xlink:href="_semi_explicit_8hxx.html" target="_top" xlink:title=" ">
<polygon fill="white" stroke="#666666" points="1525,-24.88 1360.5,-24.88 1360.5,-5.63 1525,-5.63 1525,-24.88"/>
<text text-anchor="middle" x="1442.75" y="-11.38" font-family="Helvetica,sans-Serif" font-size="10.00">Sandals/System/SemiExplicit.hxx</text>
</a>
</g>
</g>
<!-- Node1&#45;&gt;Node15 -->
<g id="edge14_Node000001_Node000015" class="edge">
<title>Node1&#45;&gt;Node15</title>
<g id="a_edge14_Node000001_Node000015"><a xlink:title=" ">
<path fill="none" stroke="#63b8ff" d="M1233.8,-66.05C1276.68,-55.83 1346.52,-39.19 1393.52,-27.98"/>
<polygon fill="#63b8ff" stroke="#63b8ff" points="1394.27,-31.4 1403.18,-25.68 1392.64,-24.6 1394.27,-31.4"/>
</a>
</g>
</g>
<!-- Node16 -->
<g id="Node000016" class="node">
<title>Node16</title>
<g id="a_Node000016"><a xlink:href="_runge_kutta_8hxx.html" target="_top" xlink:title=" ">
<polygon fill="white" stroke="#666666" points="1648.75,-30.5 1542.75,-30.5 1542.75,0 1648.75,0 1648.75,-30.5"/>
<text text-anchor="start" x="1550.75" y="-17" font-family="Helvetica,sans-Serif" font-size="10.00">Sandals/RungeKutta</text>
<text text-anchor="middle" x="1595.75" y="-5.75" font-family="Helvetica,sans-Serif" font-size="10.00">/RungeKutta.hxx</text>
</a>
</g>
</g>
<!-- Node1&#45;&gt;Node16 -->
<g id="edge15_Node000001_Node000016" class="edge">
<title>Node1&#45;&gt;Node16</title>
<g id="a_edge15_Node000001_Node000016"><a xlink:title=" ">
<path fill="none" stroke="#63b8ff" d="M1245.24,-70.08C1309.1,-63.23 1423.87,-49.83 1531.34,-30.83"/>
<polygon fill="#63b8ff" stroke="#63b8ff" points="1531.67,-34.33 1540.89,-29.12 1530.43,-27.44 1531.67,-34.33"/>
</a>
</g>
</g>
<!-- Node17 -->
<g id="Node000017" class="node">
<title>Node17</title>
<g id="a_Node000017"><a xlink:href="_r_k4_8hxx.html" target="_top" xlink:title=" ">
<polygon fill="white" stroke="#666666" points="1772.75,-30.5 1666.75,-30.5 1666.75,0 1772.75,0 1772.75,-30.5"/>
<text text-anchor="start" x="1674.75" y="-17" font-family="Helvetica,sans-Serif" font-size="10.00">Sandals/RungeKutta</text>
<text text-anchor="middle" x="1719.75" y="-5.75" font-family="Helvetica,sans-Serif" font-size="10.00">/Tableau/RK4.hxx</text>
</a>
</g>
</g>
<!-- Node1&#45;&gt;Node17 -->
<g id="edge16_Node000001_Node000017" class="edge">
<title>Node1&#45;&gt;Node17</title>
<g id="a_edge16_Node000001_Node000017"><a xlink:title=" ">
<path fill="none" stroke="#63b8ff" d="M1245.25,-72.46C1328.12,-67.53 1500.3,-55.33 1655.28,-30.76"/>
<polygon fill="#63b8ff" stroke="#63b8ff" points="1655.59,-34.26 1664.91,-29.21 1654.48,-27.35 1655.59,-34.26"/>
</a>
</g>
</g>
<!-- Node18 -->
<g id="Node000018" class="node">
<title>Node18</title>
<g id="a_Node000018"><a xlink:href="_r_k_f45_8hxx.html" target="_top" xlink:title=" ">
<polygon fill="white" stroke="#666666" points="1896.75,-30.5 1790.75,-30.5 1790.75,0 1896.75,0 1896.75,-30.5"/>
<text text-anchor="start" x="1798.75" y="-17" font-family="Helvetica,sans-Serif" font-size="10.00">Sandals/RungeKutta</text>
<text text-anchor="middle" x="1843.75" y="-5.75" font-family="Helvetica,sans-Serif" font-size="10.00">/Tableau/RKF45.hxx</text>
</a>
</g>
</g>
<!-- Node1&#45;&gt;Node18 -->
<g id="edge17_Node000001_Node000018" class="edge">
<title>Node1&#45;&gt;Node18</title>
<g id="a_edge17_Node000001_Node000018"><a xlink:title=" ">
<path fill="none" stroke="#63b8ff" d="M1245.42,-73.85C1344.96,-70.76 1576,-60.86 1779.23,-30.73"/>
<polygon fill="#63b8ff" stroke="#63b8ff" points="1779.55,-34.22 1788.92,-29.27 1778.51,-27.3 1779.55,-34.22"/>
</a>
</g>
</g>
<!-- Node19 -->
<g id="Node000019" class="node">
<title>Node19</title>
<g id="a_Node000019"><a xlink:href="_explicit_euler_8hxx.html" target="_top" xlink:title=" ">
<polygon fill="white" stroke="#666666" points="2043,-30.5 1914.5,-30.5 1914.5,0 2043,0 2043,-30.5"/>
<text text-anchor="start" x="1922.5" y="-17" font-family="Helvetica,sans-Serif" font-size="10.00">Sandals/RungeKutta</text>
<text text-anchor="middle" x="1978.75" y="-5.75" font-family="Helvetica,sans-Serif" font-size="10.00">/Tableau/ExplicitEuler.hxx</text>
</a>
</g>
</g>
<!-- Node1&#45;&gt;Node19 -->
<g id="edge18_Node000001_Node000019" class="edge">
<title>Node1&#45;&gt;Node19</title>
<g id="a_edge18_Node000001_Node000019"><a xlink:title=" ">
<path fill="none" stroke="#63b8ff" d="M1245.46,-74.22C1359.82,-71.66 1650.54,-62.45 1903.1,-30.72"/>
<polygon fill="#63b8ff" stroke="#63b8ff" points="1903.36,-34.22 1912.84,-29.49 1902.47,-27.28 1903.36,-34.22"/>
</a>
</g>
</g>
<!-- Node20 -->
<g id="Node000020" class="node">
<title>Node20</title>
<g id="a_Node000020"><a xlink:href="_implicit_euler_8hxx.html" target="_top" xlink:title=" ">
<polygon fill="white" stroke="#666666" points="2188.62,-30.5 2060.88,-30.5 2060.88,0 2188.62,0 2188.62,-30.5"/>
<text text-anchor="start" x="2068.88" y="-17" font-family="Helvetica,sans-Serif" font-size="10.00">Sandals/RungeKutta</text>
<text text-anchor="middle" x="2124.75" y="-5.75" font-family="Helvetica,sans-Serif" font-size="10.00">/Tableau/ImplicitEuler.hxx</text>
</a>
</g>
</g>
<!-- Node1&#45;&gt;Node20 -->
<g id="edge19_Node000001_Node000020" class="edge">
<title>Node1&#45;&gt;Node20</title>
<g id="a_edge19_Node000001_Node000020"><a xlink:title=" ">
<path fill="none" stroke="#63b8ff" d="M1245.18,-74.97C1375.29,-74.06 1738.11,-68.17 2049.68,-30.62"/>
<polygon fill="#63b8ff" stroke="#63b8ff" points="2049.73,-34.14 2059.23,-29.46 2048.88,-27.19 2049.73,-34.14"/>
</a>
</g>
</g>
<!-- Node21 -->
<g id="Node000021" class="node">
<title>Node21</title>
<g id="a_Node000021"><a xlink:href="_radau_i_i_a3_8hxx.html" target="_top" xlink:title=" ">
<polygon fill="white" stroke="#666666" points="2327.25,-30.5 2206.25,-30.5 2206.25,0 2327.25,0 2327.25,-30.5"/>
<text text-anchor="start" x="2214.25" y="-17" font-family="Helvetica,sans-Serif" font-size="10.00">Sandals/RungeKutta</text>
<text text-anchor="middle" x="2266.75" y="-5.75" font-family="Helvetica,sans-Serif" font-size="10.00">/Tableau/RadauIIA3.hxx</text>
</a>
</g>
</g>
<!-- Node1&#45;&gt;Node21 -->
<g id="edge20_Node000001_Node000021" class="edge">
<title>Node1&#45;&gt;Node21</title>
<g id="a_edge20_Node000001_Node000021"><a xlink:title=" ">
<path fill="none" stroke="#63b8ff" d="M1245.25,-75.7C1390.05,-76.79 1825.41,-75.86 2194.7,-30.75"/>
<polygon fill="#63b8ff" stroke="#63b8ff" points="2194.89,-34.25 2204.38,-29.55 2194.03,-27.31 2194.89,-34.25"/>
</a>
</g>
</g>
<!-- Node22 -->
<g id="Node000022" class="node">
<title>Node22</title>
<g id="a_Node000022"><a xlink:href="_radau_i_i_a5_8hxx.html" target="_top" xlink:title=" ">
<polygon fill="white" stroke="#666666" points="2466.25,-30.5 2345.25,-30.5 2345.25,0 2466.25,0 2466.25,-30.5"/>
<text text-anchor="start" x="2353.25" y="-17" font-family="Helvetica,sans-Serif" font-size="10.00">Sandals/RungeKutta</text>
<text text-anchor="middle" x="2405.75" y="-5.75" font-family="Helvetica,sans-Serif" font-size="10.00">/Tableau/RadauIIA5.hxx</text>
</a>
</g>
</g>
<!-- Node1&#45;&gt;Node22 -->
<g id="edge21_Node000001_Node000022" class="edge">
<title>Node1&#45;&gt;Node22</title>
<g id="a_edge21_Node000001_Node000022"><a xlink:title=" ">
<path fill="none" stroke="#63b8ff" d="M1245.22,-74.27C1432.49,-70.89 2098.71,-57.31 2333.69,-30.7"/>
<polygon fill="#63b8ff" stroke="#63b8ff" points="2333.86,-34.21 2343.38,-29.56 2333.04,-27.26 2333.86,-34.21"/>
</a>
</g>
</g>
<!-- Node23 -->
<g id="Node000023" class="node">
<title>Node23</title>
<g id="a_Node000023"><a xlink:href="_gauss_legendre2_8hxx.html" target="_top" xlink:title=" ">
<polygon fill="white" stroke="#666666" points="2632.75,-30.5 2484.75,-30.5 2484.75,0 2632.75,0 2632.75,-30.5"/>
<text text-anchor="start" x="2492.75" y="-17" font-family="Helvetica,sans-Serif" font-size="10.00">Sandals/RungeKutta</text>
<text text-anchor="middle" x="2558.75" y="-5.75" font-family="Helvetica,sans-Serif" font-size="10.00">/Tableau/GaussLegendre2.hxx</text>
</a>
</g>
</g>
<!-- Node1&#45;&gt;Node23 -->
<g id="edge22_Node000001_Node000023" class="edge">
<title>Node1&#45;&gt;Node23</title>
<g id="a_edge22_Node000001_Node000023"><a xlink:title=" ">
<path fill="none" stroke="#63b8ff" d="M1245.18,-74.3C1446.82,-70.78 2208.51,-56.13 2473.5,-30.6"/>
<polygon fill="#63b8ff" stroke="#63b8ff" points="2473.5,-34.12 2483.1,-29.64 2472.8,-27.15 2473.5,-34.12"/>
</a>
</g>
</g>
<!-- Node24 -->
<g id="Node000024" class="node">
<title>Node24</title>
<g id="a_Node000024"><a xlink:href="_gauss_legendre4_8hxx.html" target="_top" xlink:title=" ">
<polygon fill="white" stroke="#666666" points="2798.75,-30.5 2650.75,-30.5 2650.75,0 2798.75,0 2798.75,-30.5"/>
<text text-anchor="start" x="2658.75" y="-17" font-family="Helvetica,sans-Serif" font-size="10.00">Sandals/RungeKutta</text>
<text text-anchor="middle" x="2724.75" y="-5.75" font-family="Helvetica,sans-Serif" font-size="10.00">/Tableau/GaussLegendre4.hxx</text>
</a>
</g>
</g>
<!-- Node1&#45;&gt;Node24 -->
<g id="edge23_Node000001_Node000024" class="edge">
<title>Node1&#45;&gt;Node24</title>
<g id="a_edge23_Node000001_Node000024"><a xlink:title=" ">
<path fill="none" stroke="#63b8ff" d="M1245.13,-74.52C1462.89,-71.74 2339.37,-59.02 2639.33,-30.61"/>
<polygon fill="#63b8ff" stroke="#63b8ff" points="2639.49,-34.11 2649.1,-29.65 2638.81,-27.14 2639.49,-34.11"/>
</a>
</g>
</g>
<!-- Node25 -->
<g id="Node000025" class="node">
<title>Node25</title>
<g id="a_Node000025"><a xlink:href="_gauss_legendre6_8hxx.html" target="_top" xlink:title=" ">
<polygon fill="white" stroke="#666666" points="2964.75,-30.5 2816.75,-30.5 2816.75,0 2964.75,0 2964.75,-30.5"/>
<text text-anchor="start" x="2824.75" y="-17" font-family="Helvetica,sans-Serif" font-size="10.00">Sandals/RungeKutta</text>
<text text-anchor="middle" x="2890.75" y="-5.75" font-family="Helvetica,sans-Serif" font-size="10.00">/Tableau/GaussLegendre6.hxx</text>
</a>
</g>
</g>
<!-- Node1&#45;&gt;Node25 -->
<g id="edge24_Node000001_Node000025" class="edge">
<title>Node1&#45;&gt;Node25</title>
<g id="a_edge24_Node000001_Node000025"><a xlink:title=" ">
<path fill="none" stroke="#63b8ff" d="M1245.17,-74.71C1478.36,-72.58 2470.81,-61.91 2805.46,-30.59"/>
<polygon fill="#63b8ff" stroke="#63b8ff" points="2805.49,-34.11 2815.1,-29.66 2804.81,-27.14 2805.49,-34.11"/>
</a>
</g>
</g>
</g>
</svg>
