<?xml version="1.0" encoding="UTF-8" standalone="no"?>
<!DOCTYPE svg PUBLIC "-//W3C//DTD SVG 1.1//EN"
 "http://www.w3.org/Graphics/SVG/1.1/DTD/svg11.dtd">
<!-- Generated by graphviz version 12.2.1 (20241206.2353)
 -->
<!-- Title: include/Sandals.hh Pages: 1 -->
<svg width="6083pt" height="94pt"
 viewBox="0.00 0.00 6082.75 93.75" xmlns="http://www.w3.org/2000/svg" xmlns:xlink="http://www.w3.org/1999/xlink">
<g id="graph0" class="graph" transform="scale(1 1) rotate(0) translate(4 89.75)">
<title>include/Sandals.hh</title>
<!-- Node1 -->
<g id="Node000001" class="node">
<title>Node1</title>
<g id="a_Node000001"><a xlink:title=" ">
<polygon fill="#999999" stroke="#666666" points="2532,-85.75 2433.5,-85.75 2433.5,-66.5 2532,-66.5 2532,-85.75"/>
<text text-anchor="middle" x="2482.75" y="-72.25" font-family="Helvetica,sans-Serif" font-size="10.00">include/Sandals.hh</text>
</a>
</g>
</g>
<!-- Node2 -->
<g id="Node000002" class="node">
<title>Node2</title>
<g id="a_Node000002"><a xlink:title=" ">
<polygon fill="#e0e0e0" stroke="#999999" points="53.5,-24.88 0,-24.88 0,-5.63 53.5,-5.63 53.5,-24.88"/>
<text text-anchor="middle" x="26.75" y="-11.38" font-family="Helvetica,sans-Serif" font-size="10.00">iostream</text>
</a>
</g>
</g>
<!-- Node1&#45;&gt;Node2 -->
<g id="edge1_Node000001_Node000002" class="edge">
<title>Node1&#45;&gt;Node2</title>
<g id="a_edge1_Node000001_Node000002"><a xlink:title=" ">
<path fill="none" stroke="#63b8ff" d="M2433.21,-75.27C2109.6,-76.11 302.69,-78.56 62.75,-30.5 60.71,-30.09 58.64,-29.57 56.58,-28.98"/>
<polygon fill="#63b8ff" stroke="#63b8ff" points="57.82,-25.71 47.22,-25.75 55.53,-32.32 57.82,-25.71"/>
</a>
</g>
</g>
<!-- Node3 -->
<g id="Node000003" class="node">
<title>Node3</title>
<g id="a_Node000003"><a xlink:title=" ">
<polygon fill="#e0e0e0" stroke="#999999" points="111.75,-24.88 71.75,-24.88 71.75,-5.63 111.75,-5.63 111.75,-24.88"/>
<text text-anchor="middle" x="91.75" y="-11.38" font-family="Helvetica,sans-Serif" font-size="10.00">string</text>
</a>
</g>
</g>
<!-- Node1&#45;&gt;Node3 -->
<g id="edge2_Node000001_Node000003" class="edge">
<title>Node1&#45;&gt;Node3</title>
<g id="a_edge2_Node000001_Node000003"><a xlink:title=" ">
<path fill="none" stroke="#63b8ff" d="M2433.12,-74.8C2103.25,-72.56 237,-58.68 120.75,-30.5 119.58,-30.22 118.4,-29.88 117.22,-29.5"/>
<polygon fill="#63b8ff" stroke="#63b8ff" points="118.91,-26.41 108.33,-25.83 116.24,-32.88 118.91,-26.41"/>
</a>
</g>
</g>
<!-- Node4 -->
<g id="Node000004" class="node">
<title>Node4</title>
<g id="a_Node000004"><a xlink:title=" ">
<polygon fill="#e0e0e0" stroke="#999999" points="173.25,-24.88 130.25,-24.88 130.25,-5.63 173.25,-5.63 173.25,-24.88"/>
<text text-anchor="middle" x="151.75" y="-11.38" font-family="Helvetica,sans-Serif" font-size="10.00">cmath</text>
</a>
</g>
</g>
<!-- Node1&#45;&gt;Node4 -->
<g id="edge3_Node000001_Node000004" class="edge">
<title>Node1&#45;&gt;Node4</title>
<g id="a_edge3_Node000001_Node000004"><a xlink:title=" ">
<path fill="none" stroke="#63b8ff" d="M2433.11,-74.76C2108.22,-72.26 295.02,-57.19 181.75,-30.5 180.54,-30.22 179.33,-29.88 178.11,-29.5"/>
<polygon fill="#63b8ff" stroke="#63b8ff" points="179.47,-26.27 168.89,-25.81 176.88,-32.77 179.47,-26.27"/>
</a>
</g>
</g>
<!-- Node5 -->
<g id="Node000005" class="node">
<title>Node5</title>
<g id="a_Node000005"><a xlink:title=" ">
<polygon fill="#e0e0e0" stroke="#999999" points="234.25,-24.88 191.25,-24.88 191.25,-5.63 234.25,-5.63 234.25,-24.88"/>
<text text-anchor="middle" x="212.75" y="-11.38" font-family="Helvetica,sans-Serif" font-size="10.00">vector</text>
</a>
</g>
</g>
<!-- Node1&#45;&gt;Node5 -->
<g id="edge4_Node000001_Node000005" class="edge">
<title>Node1&#45;&gt;Node5</title>
<g id="a_edge4_Node000001_Node000005"><a xlink:title=" ">
<path fill="none" stroke="#63b8ff" d="M2433.2,-75.35C2123.83,-76.6 463.55,-80.9 243.75,-30.5 242.35,-30.18 240.94,-29.79 239.54,-29.35"/>
<polygon fill="#63b8ff" stroke="#63b8ff" points="241.03,-26.18 230.45,-25.8 238.49,-32.7 241.03,-26.18"/>
</a>
</g>
</g>
<!-- Node6 -->
<g id="Node000006" class="node">
<title>Node6</title>
<g id="a_Node000006"><a xlink:title=" ">
<polygon fill="#e0e0e0" stroke="#999999" points="287.12,-24.88 252.38,-24.88 252.38,-5.63 287.12,-5.63 287.12,-24.88"/>
<text text-anchor="middle" x="269.75" y="-11.38" font-family="Helvetica,sans-Serif" font-size="10.00">map</text>
</a>
</g>
</g>
<!-- Node1&#45;&gt;Node6 -->
<g id="edge5_Node000001_Node000006" class="edge">
<title>Node1&#45;&gt;Node6</title>
<g id="a_edge5_Node000001_Node000006"><a xlink:title=" ">
<path fill="none" stroke="#63b8ff" d="M2433.06,-74.76C2117.6,-72.36 403.5,-58.1 296.75,-30.5 295.92,-30.29 295.09,-30.04 294.26,-29.77"/>
<polygon fill="#63b8ff" stroke="#63b8ff" points="295.77,-26.61 285.21,-25.85 292.99,-33.04 295.77,-26.61"/>
</a>
</g>
</g>
<!-- Node7 -->
<g id="Node000007" class="node">
<title>Node7</title>
<g id="a_Node000007"><a xlink:title=" ">
<polygon fill="#e0e0e0" stroke="#999999" points="356,-24.88 305.5,-24.88 305.5,-5.63 356,-5.63 356,-24.88"/>
<text text-anchor="middle" x="330.75" y="-11.38" font-family="Helvetica,sans-Serif" font-size="10.00">numeric</text>
</a>
</g>
</g>
<!-- Node1&#45;&gt;Node7 -->
<g id="edge6_Node000001_Node000007" class="edge">
<title>Node1&#45;&gt;Node7</title>
<g id="a_edge6_Node000001_Node000007"><a xlink:title=" ">
<path fill="none" stroke="#63b8ff" d="M2433.02,-75.19C2133.23,-75.44 572.75,-74.61 364.75,-30.5 362.98,-30.13 361.19,-29.66 359.41,-29.13"/>
<polygon fill="#63b8ff" stroke="#63b8ff" points="360.71,-25.88 350.12,-25.76 358.32,-32.46 360.71,-25.88"/>
</a>
</g>
</g>
<!-- Node8 -->
<g id="Node000008" class="node">
<title>Node8</title>
<g id="a_Node000008"><a xlink:title=" ">
<polygon fill="#e0e0e0" stroke="#999999" points="419.38,-24.88 374.12,-24.88 374.12,-5.63 419.38,-5.63 419.38,-24.88"/>
<text text-anchor="middle" x="396.75" y="-11.38" font-family="Helvetica,sans-Serif" font-size="10.00">chrono</text>
</a>
</g>
</g>
<!-- Node1&#45;&gt;Node8 -->
<g id="edge7_Node000001_Node000008" class="edge">
<title>Node1&#45;&gt;Node8</title>
<g id="a_edge7_Node000001_Node000008"><a xlink:title=" ">
<path fill="none" stroke="#63b8ff" d="M2433.08,-75.22C2138.79,-75.63 629.64,-75.49 428.75,-30.5 427.16,-30.14 425.54,-29.7 423.93,-29.2"/>
<polygon fill="#63b8ff" stroke="#63b8ff" points="425.59,-26.09 415,-25.78 423.09,-32.63 425.59,-26.09"/>
</a>
</g>
</g>
<!-- Node9 -->
<g id="Node000009" class="node">
<title>Node9</title>
<g id="a_Node000009"><a xlink:title=" ">
<polygon fill="#e0e0e0" stroke="#999999" points="509.88,-24.88 437.62,-24.88 437.62,-5.63 509.88,-5.63 509.88,-24.88"/>
<text text-anchor="middle" x="473.75" y="-11.38" font-family="Helvetica,sans-Serif" font-size="10.00">Eigen/Dense</text>
</a>
</g>
</g>
<!-- Node1&#45;&gt;Node9 -->
<g id="edge8_Node000001_Node000009" class="edge">
<title>Node1&#45;&gt;Node9</title>
<g id="a_edge8_Node000001_Node000009"><a xlink:title=" ">
<path fill="none" stroke="#63b8ff" d="M2433.01,-74.84C2146.48,-73.07 712.42,-62.69 518.75,-30.5 515.38,-29.94 511.92,-29.19 508.48,-28.31"/>
<polygon fill="#63b8ff" stroke="#63b8ff" points="509.76,-25.04 499.18,-25.64 507.83,-31.77 509.76,-25.04"/>
</a>
</g>
</g>
<!-- Node10 -->
<g id="Node000010" class="node">
<title>Node10</title>
<g id="a_Node000010"><a xlink:href="_tic_toc_8hxx.html" target="_top" xlink:title=" ">
<polygon fill="white" stroke="#666666" points="629.88,-24.88 527.62,-24.88 527.62,-5.63 629.88,-5.63 629.88,-24.88"/>
<text text-anchor="middle" x="578.75" y="-11.38" font-family="Helvetica,sans-Serif" font-size="10.00">Sandals/TicToc.hxx</text>
</a>
</g>
</g>
<!-- Node1&#45;&gt;Node10 -->
<g id="edge9_Node000001_Node000010" class="edge">
<title>Node1&#45;&gt;Node10</title>
<g id="a_edge9_Node000001_Node000010"><a xlink:title=" ">
<path fill="none" stroke="#63b8ff" d="M2433.13,-75.33C2176.75,-76.15 1000.2,-77.27 638.75,-30.5 633.45,-29.81 627.94,-28.86 622.51,-27.76"/>
<polygon fill="#63b8ff" stroke="#63b8ff" points="623.53,-24.4 613.01,-25.67 622.02,-31.23 623.53,-24.4"/>
</a>
</g>
</g>
<!-- Node11 -->
<g id="Node000011" class="node">
<title>Node11</title>
<g id="a_Node000011"><a xlink:href="_nonlinear_solver_8hxx.html" target="_top" xlink:title=" ">
<polygon fill="white" stroke="#666666" points="771.38,-30.5 648.12,-30.5 648.12,0 771.38,0 771.38,-30.5"/>
<text text-anchor="start" x="656.12" y="-17" font-family="Helvetica,sans-Serif" font-size="10.00">Sandals/NonlinearSolver</text>
<text text-anchor="middle" x="709.75" y="-5.75" font-family="Helvetica,sans-Serif" font-size="10.00">/NonlinearSolver.hxx</text>
</a>
</g>
</g>
<!-- Node1&#45;&gt;Node11 -->
<g id="edge10_Node000001_Node000011" class="edge">
<title>Node1&#45;&gt;Node11</title>
<g id="a_edge10_Node000001_Node000011"><a xlink:title=" ">
<path fill="none" stroke="#63b8ff" d="M2433.38,-75C2192.19,-74.19 1135.59,-68.56 783.1,-30.73"/>
<polygon fill="#63b8ff" stroke="#63b8ff" points="783.7,-27.27 773.38,-29.65 782.93,-34.23 783.7,-27.27"/>
</a>
</g>
</g>
<!-- Node12 -->
<g id="Node000012" class="node">
<title>Node12</title>
<g id="a_Node000012"><a xlink:href="_newton_8hxx.html" target="_top" xlink:title=" ">
<polygon fill="white" stroke="#666666" points="912.38,-30.5 789.12,-30.5 789.12,0 912.38,0 912.38,-30.5"/>
<text text-anchor="start" x="797.12" y="-17" font-family="Helvetica,sans-Serif" font-size="10.00">Sandals/NonlinearSolver</text>
<text text-anchor="middle" x="850.75" y="-5.75" font-family="Helvetica,sans-Serif" font-size="10.00">/Newton.hxx</text>
</a>
</g>
</g>
<!-- Node1&#45;&gt;Node12 -->
<g id="edge11_Node000001_Node000012" class="edge">
<title>Node1&#45;&gt;Node12</title>
<g id="a_edge11_Node000001_Node000012"><a xlink:title=" ">
<path fill="none" stroke="#63b8ff" d="M2433.31,-74.86C2204.59,-73.46 1246.93,-65.63 924.09,-30.73"/>
<polygon fill="#63b8ff" stroke="#63b8ff" points="924.7,-27.27 914.38,-29.64 923.93,-34.23 924.7,-27.27"/>
</a>
</g>
</g>
<!-- Node13 -->
<g id="Node000013" class="node">
<title>Node13</title>
<g id="a_Node000013"><a xlink:href="_broyden_8hxx.html" target="_top" xlink:title=" ">
<polygon fill="white" stroke="#666666" points="1053.38,-30.5 930.12,-30.5 930.12,0 1053.38,0 1053.38,-30.5"/>
<text text-anchor="start" x="938.12" y="-17" font-family="Helvetica,sans-Serif" font-size="10.00">Sandals/NonlinearSolver</text>
<text text-anchor="middle" x="991.75" y="-5.75" font-family="Helvetica,sans-Serif" font-size="10.00">/Broyden.hxx</text>
</a>
</g>
</g>
<!-- Node1&#45;&gt;Node13 -->
<g id="edge12_Node000001_Node000013" class="edge">
<title>Node1&#45;&gt;Node13</title>
<g id="a_edge12_Node000001_Node000013"><a xlink:title=" ">
<path fill="none" stroke="#63b8ff" d="M2433.1,-74.69C2217.19,-72.65 1357.92,-62.71 1064.89,-30.71"/>
<polygon fill="#63b8ff" stroke="#63b8ff" points="1065.71,-27.28 1055.38,-29.64 1064.92,-34.24 1065.71,-27.28"/>
</a>
</g>
</g>
<!-- Node14 -->
<g id="Node000014" class="node">
<title>Node14</title>
<g id="a_Node000014"><a xlink:href="_implicit_8hxx.html" target="_top" xlink:title=" ">
<polygon fill="white" stroke="#666666" points="1212.38,-24.88 1071.12,-24.88 1071.12,-5.63 1212.38,-5.63 1212.38,-24.88"/>
<text text-anchor="middle" x="1141.75" y="-11.38" font-family="Helvetica,sans-Serif" font-size="10.00">Sandals/System/Implicit.hxx</text>
</a>
</g>
</g>
<!-- Node1&#45;&gt;Node14 -->
<g id="edge13_Node000001_Node000014" class="edge">
<title>Node1&#45;&gt;Node14</title>
<g id="a_edge13_Node000001_Node000014"><a xlink:title=" ">
<path fill="none" stroke="#63b8ff" d="M2433.02,-74.3C2229.93,-70.8 1462.87,-56.11 1221.75,-30.5 1213.93,-29.67 1205.73,-28.53 1197.67,-27.24"/>
<polygon fill="#63b8ff" stroke="#63b8ff" points="1198.38,-23.81 1187.93,-25.61 1197.22,-30.72 1198.38,-23.81"/>
</a>
</g>
</g>
<!-- Node15 -->
<g id="Node000015" class="node">
<title>Node15</title>
<g id="a_Node000015"><a xlink:href="_explicit_8hxx.html" target="_top" xlink:title=" ">
<polygon fill="white" stroke="#666666" points="1372.75,-24.88 1230.75,-24.88 1230.75,-5.63 1372.75,-5.63 1372.75,-24.88"/>
<text text-anchor="middle" x="1301.75" y="-11.38" font-family="Helvetica,sans-Serif" font-size="10.00">Sandals/System/Explicit.hxx</text>
</a>
</g>
</g>
<!-- Node1&#45;&gt;Node15 -->
<g id="edge14_Node000001_Node000015" class="edge">
<title>Node1&#45;&gt;Node15</title>
<g id="a_edge14_Node000001_Node000015"><a xlink:title=" ">
<path fill="none" stroke="#63b8ff" d="M2433.19,-75.51C2277.71,-76.19 1785.88,-74.48 1381.75,-30.5 1373.93,-29.65 1365.73,-28.49 1357.67,-27.21"/>
<polygon fill="#63b8ff" stroke="#63b8ff" points="1358.38,-23.78 1347.94,-25.57 1357.22,-30.68 1358.38,-23.78"/>
</a>
</g>
</g>
<!-- Node16 -->
<g id="Node000016" class="node">
<title>Node16</title>
<g id="a_Node000016"><a xlink:href="_tableau_8hxx.html" target="_top" xlink:title=" ">
<polygon fill="white" stroke="#666666" points="1497.12,-24.88 1390.38,-24.88 1390.38,-5.63 1497.12,-5.63 1497.12,-24.88"/>
<text text-anchor="middle" x="1443.75" y="-11.38" font-family="Helvetica,sans-Serif" font-size="10.00">Sandals/Tableau.hxx</text>
</a>
</g>
</g>
<!-- Node1&#45;&gt;Node16 -->
<g id="edge15_Node000001_Node000016" class="edge">
<title>Node1&#45;&gt;Node16</title>
<g id="a_edge15_Node000001_Node000016"><a xlink:title=" ">
<path fill="none" stroke="#63b8ff" d="M2433.21,-74.02C2260.95,-69.99 1688.72,-55.04 1506.75,-30.5 1501.34,-29.77 1495.71,-28.8 1490.14,-27.71"/>
<polygon fill="#63b8ff" stroke="#63b8ff" points="1490.86,-24.29 1480.35,-25.66 1489.42,-31.14 1490.86,-24.29"/>
</a>
</g>
</g>
<!-- Node17 -->
<g id="Node000017" class="node">
<title>Node17</title>
<g id="a_Node000017"><a xlink:href="_solution_8hxx.html" target="_top" xlink:title=" ">
<polygon fill="white" stroke="#666666" points="1623.88,-24.88 1515.62,-24.88 1515.62,-5.63 1623.88,-5.63 1623.88,-24.88"/>
<text text-anchor="middle" x="1569.75" y="-11.38" font-family="Helvetica,sans-Serif" font-size="10.00">Sandals/Solution.hxx</text>
</a>
</g>
</g>
<!-- Node1&#45;&gt;Node17 -->
<g id="edge16_Node000001_Node000017" class="edge">
<title>Node1&#45;&gt;Node17</title>
<g id="a_edge16_Node000001_Node000017"><a xlink:title=" ">
<path fill="none" stroke="#63b8ff" d="M2433.19,-75.39C2302.06,-75.48 1935.37,-71.71 1633.75,-30.5 1628.18,-29.74 1622.38,-28.74 1616.65,-27.63"/>
<polygon fill="#63b8ff" stroke="#63b8ff" points="1617.76,-24.28 1607.26,-25.68 1616.34,-31.14 1617.76,-24.28"/>
</a>
</g>
</g>
<!-- Node18 -->
<g id="Node000018" class="node">
<title>Node18</title>
<g id="a_Node000018"><a xlink:href="_runge_kutta_8hxx.html" target="_top" xlink:title=" ">
<polygon fill="white" stroke="#666666" points="1767.12,-24.88 1642.38,-24.88 1642.38,-5.63 1767.12,-5.63 1767.12,-24.88"/>
<text text-anchor="middle" x="1704.75" y="-11.38" font-family="Helvetica,sans-Serif" font-size="10.00">Sandals/RungeKutta.hxx</text>
</a>
</g>
</g>
<!-- Node1&#45;&gt;Node18 -->
<g id="edge17_Node000001_Node000018" class="edge">
<title>Node1&#45;&gt;Node18</title>
<g id="a_edge17_Node000001_Node000018"><a xlink:title=" ">
<path fill="none" stroke="#63b8ff" d="M2433.24,-74.3C2317.65,-71.86 2021.16,-62.72 1775.75,-30.5 1769.36,-29.66 1762.69,-28.59 1756.09,-27.41"/>
<polygon fill="#63b8ff" stroke="#63b8ff" points="1757.11,-24.04 1746.63,-25.62 1755.81,-30.91 1757.11,-24.04"/>
</a>
</g>
</g>
<!-- Node19 -->
<g id="Node000019" class="node">
<title>Node19</title>
<g id="a_Node000019"><a xlink:href="_chebyshev51_8hxx.html" target="_top" xlink:title=" ">
<polygon fill="white" stroke="#666666" points="1954.62,-24.88 1784.88,-24.88 1784.88,-5.63 1954.62,-5.63 1954.62,-24.88"/>
<text text-anchor="middle" x="1869.75" y="-11.38" font-family="Helvetica,sans-Serif" font-size="10.00">Sandals/Tableau/Chebyshev51.hxx</text>
</a>
</g>
</g>
<!-- Node1&#45;&gt;Node19 -->
<g id="edge18_Node000001_Node000019" class="edge">
<title>Node1&#45;&gt;Node19</title>
<g id="a_edge18_Node000001_Node000019"><a xlink:title=" ">
<path fill="none" stroke="#63b8ff" d="M2433.26,-71.94C2340.83,-65.75 2135.73,-50.91 1963.75,-30.5 1955.11,-29.47 1946.04,-28.27 1937.08,-27"/>
<polygon fill="#63b8ff" stroke="#63b8ff" points="1937.73,-23.55 1927.34,-25.58 1936.73,-30.48 1937.73,-23.55"/>
</a>
</g>
</g>
<!-- Node20 -->
<g id="Node000020" class="node">
<title>Node20</title>
<g id="a_Node000020"><a xlink:href="_explicit_euler_8hxx.html" target="_top" xlink:title=" ">
<polygon fill="white" stroke="#666666" points="2096.38,-30.5 1973.12,-30.5 1973.12,0 2096.38,0 2096.38,-30.5"/>
<text text-anchor="start" x="1981.12" y="-17" font-family="Helvetica,sans-Serif" font-size="10.00">Sandals/Tableau/Explicit</text>
<text text-anchor="middle" x="2034.75" y="-5.75" font-family="Helvetica,sans-Serif" font-size="10.00">Euler.hxx</text>
</a>
</g>
</g>
<!-- Node1&#45;&gt;Node20 -->
<g id="edge19_Node000001_Node000020" class="edge">
<title>Node1&#45;&gt;Node20</title>
<g id="a_edge19_Node000001_Node000020"><a xlink:title=" ">
<path fill="none" stroke="#63b8ff" d="M2433.17,-70.54C2363.04,-63.77 2230.63,-49.95 2107.75,-30.73"/>
<polygon fill="#63b8ff" stroke="#63b8ff" points="2108.57,-27.32 2098.15,-29.21 2107.48,-34.23 2108.57,-27.32"/>
</a>
</g>
</g>
<!-- Node21 -->
<g id="Node000021" class="node">
<title>Node21</title>
<g id="a_Node000021"><a xlink:href="_fehlberg45_8hxx.html" target="_top" xlink:title=" ">
<polygon fill="white" stroke="#666666" points="2272.62,-24.88 2114.88,-24.88 2114.88,-5.63 2272.62,-5.63 2272.62,-24.88"/>
<text text-anchor="middle" x="2193.75" y="-11.38" font-family="Helvetica,sans-Serif" font-size="10.00">Sandals/Tableau/Fehlberg45.hxx</text>
</a>
</g>
</g>
<!-- Node1&#45;&gt;Node21 -->
<g id="edge20_Node000001_Node000021" class="edge">
<title>Node1&#45;&gt;Node21</title>
<g id="a_edge20_Node000001_Node000021"><a xlink:title=" ">
<path fill="none" stroke="#63b8ff" d="M2438.23,-66.05C2387.42,-55.7 2304.27,-38.76 2249.27,-27.56"/>
<polygon fill="#63b8ff" stroke="#63b8ff" points="2250.3,-24.2 2239.81,-25.63 2248.91,-31.06 2250.3,-24.2"/>
</a>
</g>
</g>
<!-- Node22 -->
<g id="Node000022" class="node">
<title>Node22</title>
<g id="a_Node000022"><a xlink:href="_gauss_legendre2_8hxx.html" target="_top" xlink:title=" ">
<polygon fill="white" stroke="#666666" points="2474.38,-24.88 2291.12,-24.88 2291.12,-5.63 2474.38,-5.63 2474.38,-24.88"/>
<text text-anchor="middle" x="2382.75" y="-11.38" font-family="Helvetica,sans-Serif" font-size="10.00">Sandals/Tableau/GaussLegendre2.hxx</text>
</a>
</g>
</g>
<!-- Node1&#45;&gt;Node22 -->
<g id="edge21_Node000001_Node000022" class="edge">
<title>Node1&#45;&gt;Node22</title>
<g id="a_edge21_Node000001_Node000022"><a xlink:title=" ">
<path fill="none" stroke="#63b8ff" d="M2467.56,-66.18C2451.7,-56.85 2426.57,-42.05 2407.77,-30.98"/>
<polygon fill="#63b8ff" stroke="#63b8ff" points="2409.78,-28.1 2399.39,-26.04 2406.23,-34.13 2409.78,-28.1"/>
</a>
</g>
</g>
<!-- Node23 -->
<g id="Node000023" class="node">
<title>Node23</title>
<g id="a_Node000023"><a xlink:href="_gauss_legendre4_8hxx.html" target="_top" xlink:title=" ">
<polygon fill="white" stroke="#666666" points="2675.38,-24.88 2492.12,-24.88 2492.12,-5.63 2675.38,-5.63 2675.38,-24.88"/>
<text text-anchor="middle" x="2583.75" y="-11.38" font-family="Helvetica,sans-Serif" font-size="10.00">Sandals/Tableau/GaussLegendre4.hxx</text>
</a>
</g>
</g>
<!-- Node1&#45;&gt;Node23 -->
<g id="edge22_Node000001_Node000023" class="edge">
<title>Node1&#45;&gt;Node23</title>
<g id="a_edge22_Node000001_Node000023"><a xlink:title=" ">
<path fill="none" stroke="#63b8ff" d="M2498.09,-66.18C2514.11,-56.85 2539.49,-42.05 2558.48,-30.98"/>
<polygon fill="#63b8ff" stroke="#63b8ff" points="2560.08,-34.1 2566.96,-26.04 2556.56,-28.05 2560.08,-34.1"/>
</a>
</g>
</g>
<!-- Node24 -->
<g id="Node000024" class="node">
<title>Node24</title>
<g id="a_Node000024"><a xlink:href="_gauss_legendre6_8hxx.html" target="_top" xlink:title=" ">
<polygon fill="white" stroke="#666666" points="2876.38,-24.88 2693.12,-24.88 2693.12,-5.63 2876.38,-5.63 2876.38,-24.88"/>
<text text-anchor="middle" x="2784.75" y="-11.38" font-family="Helvetica,sans-Serif" font-size="10.00">Sandals/Tableau/GaussLegendre6.hxx</text>
</a>
</g>
</g>
<!-- Node1&#45;&gt;Node24 -->
<g id="edge23_Node000001_Node000024" class="edge">
<title>Node1&#45;&gt;Node24</title>
<g id="a_edge23_Node000001_Node000024"><a xlink:title=" ">
<path fill="none" stroke="#63b8ff" d="M2529.28,-66.05C2582.48,-55.68 2669.63,-38.69 2727.09,-27.49"/>
<polygon fill="#63b8ff" stroke="#63b8ff" points="2727.54,-30.97 2736.69,-25.62 2726.2,-24.1 2727.54,-30.97"/>
</a>
</g>
</g>
<!-- Node25 -->
<g id="Node000025" class="node">
<title>Node25</title>
<g id="a_Node000025"><a xlink:href="_heun2_8hxx.html" target="_top" xlink:title=" ">
<polygon fill="white" stroke="#666666" points="3032.88,-24.88 2894.62,-24.88 2894.62,-5.63 3032.88,-5.63 3032.88,-24.88"/>
<text text-anchor="middle" x="2963.75" y="-11.38" font-family="Helvetica,sans-Serif" font-size="10.00">Sandals/Tableau/Heun2.hxx</text>
</a>
</g>
</g>
<!-- Node1&#45;&gt;Node25 -->
<g id="edge24_Node000001_Node000025" class="edge">
<title>Node1&#45;&gt;Node25</title>
<g id="a_edge24_Node000001_Node000025"><a xlink:title=" ">
<path fill="none" stroke="#63b8ff" d="M2532.21,-70.78C2608.36,-63.83 2758.81,-49.1 2885.75,-30.5 2892.29,-29.54 2899.13,-28.44 2905.92,-27.28"/>
<polygon fill="#63b8ff" stroke="#63b8ff" points="2906.49,-30.74 2915.74,-25.56 2905.29,-23.84 2906.49,-30.74"/>
</a>
</g>
</g>
<!-- Node26 -->
<g id="Node000026" class="node">
<title>Node26</title>
<g id="a_Node000026"><a xlink:href="_heun3_8hxx.html" target="_top" xlink:title=" ">
<polygon fill="white" stroke="#666666" points="3188.88,-24.88 3050.62,-24.88 3050.62,-5.63 3188.88,-5.63 3188.88,-24.88"/>
<text text-anchor="middle" x="3119.75" y="-11.38" font-family="Helvetica,sans-Serif" font-size="10.00">Sandals/Tableau/Heun3.hxx</text>
</a>
</g>
</g>
<!-- Node1&#45;&gt;Node26 -->
<g id="edge25_Node000001_Node000026" class="edge">
<title>Node1&#45;&gt;Node26</title>
<g id="a_edge25_Node000001_Node000026"><a xlink:title=" ">
<path fill="none" stroke="#63b8ff" d="M2532.28,-72.85C2630.02,-68 2854.47,-55.02 3041.75,-30.5 3048.74,-29.59 3056.05,-28.47 3063.27,-27.26"/>
<polygon fill="#63b8ff" stroke="#63b8ff" points="3063.76,-30.73 3073.01,-25.57 3062.56,-23.83 3063.76,-30.73"/>
</a>
</g>
</g>
<!-- Node27 -->
<g id="Node000027" class="node">
<title>Node27</title>
<g id="a_Node000027"><a xlink:href="_lobatto_i_i_i_a2_8hxx.html" target="_top" xlink:title=" ">
<polygon fill="white" stroke="#666666" points="3370.25,-24.88 3207.25,-24.88 3207.25,-5.63 3370.25,-5.63 3370.25,-24.88"/>
<text text-anchor="middle" x="3288.75" y="-11.38" font-family="Helvetica,sans-Serif" font-size="10.00">Sandals/Tableau/LobattoIIIA2.hxx</text>
</a>
</g>
</g>
<!-- Node1&#45;&gt;Node27 -->
<g id="edge26_Node000001_Node000027" class="edge">
<title>Node1&#45;&gt;Node27</title>
<g id="a_edge26_Node000001_Node000027"><a xlink:title=" ">
<path fill="none" stroke="#63b8ff" d="M2532.3,-73.62C2648.7,-69.74 2948.62,-57.72 3197.75,-30.5 3206.47,-29.55 3215.63,-28.35 3224.64,-27.05"/>
<polygon fill="#63b8ff" stroke="#63b8ff" points="3225.06,-30.53 3234.43,-25.6 3224.03,-23.61 3225.06,-30.53"/>
</a>
</g>
</g>
<!-- Node28 -->
<g id="Node000028" class="node">
<title>Node28</title>
<g id="a_Node000028"><a xlink:href="_implicit_euler_8hxx.html" target="_top" xlink:title=" ">
<polygon fill="white" stroke="#666666" points="3511,-30.5 3388.5,-30.5 3388.5,0 3511,0 3511,-30.5"/>
<text text-anchor="start" x="3396.5" y="-17" font-family="Helvetica,sans-Serif" font-size="10.00">Sandals/Tableau/Implicit</text>
<text text-anchor="middle" x="3449.75" y="-5.75" font-family="Helvetica,sans-Serif" font-size="10.00">Euler.hxx</text>
</a>
</g>
</g>
<!-- Node1&#45;&gt;Node28 -->
<g id="edge27_Node000001_Node000028" class="edge">
<title>Node1&#45;&gt;Node28</title>
<g id="a_edge27_Node000001_Node000028"><a xlink:title=" ">
<path fill="none" stroke="#63b8ff" d="M2532.08,-75.28C2666.34,-75.15 3049.62,-71.06 3377.24,-30.68"/>
<polygon fill="#63b8ff" stroke="#63b8ff" points="3377.39,-34.19 3386.87,-29.48 3376.52,-27.24 3377.39,-34.19"/>
</a>
</g>
</g>
<!-- Node29 -->
<g id="Node000029" class="node">
<title>Node29</title>
<g id="a_Node000029"><a xlink:href="_m_t_e22_8hxx.html" target="_top" xlink:title=" ">
<polygon fill="white" stroke="#666666" points="3670.38,-24.88 3529.12,-24.88 3529.12,-5.63 3670.38,-5.63 3670.38,-24.88"/>
<text text-anchor="middle" x="3599.75" y="-11.38" font-family="Helvetica,sans-Serif" font-size="10.00">Sandals/Tableau/MTE22.hxx</text>
</a>
</g>
</g>
<!-- Node1&#45;&gt;Node29 -->
<g id="edge28_Node000001_Node000029" class="edge">
<title>Node1&#45;&gt;Node29</title>
<g id="a_edge28_Node000001_Node000029"><a xlink:title=" ">
<path fill="none" stroke="#63b8ff" d="M2532.31,-75.33C2681.86,-75.45 3141.58,-72.13 3519.75,-30.5 3527.47,-29.65 3535.57,-28.51 3543.53,-27.24"/>
<polygon fill="#63b8ff" stroke="#63b8ff" points="3543.86,-30.73 3553.14,-25.62 3542.7,-23.83 3543.86,-30.73"/>
</a>
</g>
</g>
<!-- Node30 -->
<g id="Node000030" class="node">
<title>Node30</title>
<g id="a_Node000030"><a xlink:href="_radau_i_i_a3_8hxx.html" target="_top" xlink:title=" ">
<polygon fill="white" stroke="#666666" points="3844.88,-24.88 3688.62,-24.88 3688.62,-5.63 3844.88,-5.63 3844.88,-24.88"/>
<text text-anchor="middle" x="3766.75" y="-11.38" font-family="Helvetica,sans-Serif" font-size="10.00">Sandals/Tableau/RadauIIA3.hxx</text>
</a>
</g>
</g>
<!-- Node1&#45;&gt;Node30 -->
<g id="edge29_Node000001_Node000030" class="edge">
<title>Node1&#45;&gt;Node30</title>
<g id="a_edge29_Node000001_Node000030"><a xlink:title=" ">
<path fill="none" stroke="#63b8ff" d="M2532.21,-75.49C2696.11,-76.24 3236.16,-74.92 3679.75,-30.5 3688.53,-29.62 3697.77,-28.41 3706.81,-27.07"/>
<polygon fill="#63b8ff" stroke="#63b8ff" points="3707.28,-30.54 3716.62,-25.55 3706.2,-23.63 3707.28,-30.54"/>
</a>
</g>
</g>
<!-- Node31 -->
<g id="Node000031" class="node">
<title>Node31</title>
<g id="a_Node000031"><a xlink:href="_radau_i_i_a5_8hxx.html" target="_top" xlink:title=" ">
<polygon fill="white" stroke="#666666" points="4018.88,-24.88 3862.62,-24.88 3862.62,-5.63 4018.88,-5.63 4018.88,-24.88"/>
<text text-anchor="middle" x="3940.75" y="-11.38" font-family="Helvetica,sans-Serif" font-size="10.00">Sandals/Tableau/RadauIIA5.hxx</text>
</a>
</g>
</g>
<!-- Node1&#45;&gt;Node31 -->
<g id="edge30_Node000001_Node000031" class="edge">
<title>Node1&#45;&gt;Node31</title>
<g id="a_edge30_Node000001_Node000031"><a xlink:title=" ">
<path fill="none" stroke="#63b8ff" d="M2532.41,-74.37C2746.24,-71.01 3589.62,-56.32 3853.75,-30.5 3862.53,-29.64 3871.77,-28.45 3880.82,-27.11"/>
<polygon fill="#63b8ff" stroke="#63b8ff" points="3881.28,-30.58 3890.63,-25.59 3880.21,-23.66 3881.28,-30.58"/>
</a>
</g>
</g>
<!-- Node32 -->
<g id="Node000032" class="node">
<title>Node32</title>
<g id="a_Node000032"><a xlink:href="_ralston2_8hxx.html" target="_top" xlink:title=" ">
<polygon fill="white" stroke="#666666" points="4186.12,-24.88 4037.38,-24.88 4037.38,-5.63 4186.12,-5.63 4186.12,-24.88"/>
<text text-anchor="middle" x="4111.75" y="-11.38" font-family="Helvetica,sans-Serif" font-size="10.00">Sandals/Tableau/Ralston2.hxx</text>
</a>
</g>
</g>
<!-- Node1&#45;&gt;Node32 -->
<g id="edge31_Node000001_Node000032" class="edge">
<title>Node1&#45;&gt;Node32</title>
<g id="a_edge31_Node000001_Node000032"><a xlink:title=" ">
<path fill="none" stroke="#63b8ff" d="M2532.4,-74.62C2762.59,-72.15 3727.5,-60.16 4027.75,-30.5 4036.25,-29.66 4045.18,-28.48 4053.92,-27.14"/>
<polygon fill="#63b8ff" stroke="#63b8ff" points="4054.44,-30.61 4063.76,-25.56 4053.33,-23.69 4054.44,-30.61"/>
</a>
</g>
</g>
<!-- Node33 -->
<g id="Node000033" class="node">
<title>Node33</title>
<g id="a_Node000033"><a xlink:href="_ralston3_8hxx.html" target="_top" xlink:title=" ">
<polygon fill="white" stroke="#666666" points="4353.12,-24.88 4204.38,-24.88 4204.38,-5.63 4353.12,-5.63 4353.12,-24.88"/>
<text text-anchor="middle" x="4278.75" y="-11.38" font-family="Helvetica,sans-Serif" font-size="10.00">Sandals/Tableau/Ralston3.hxx</text>
</a>
</g>
</g>
<!-- Node1&#45;&gt;Node33 -->
<g id="edge32_Node000001_Node000033" class="edge">
<title>Node1&#45;&gt;Node33</title>
<g id="a_edge32_Node000001_Node000033"><a xlink:title=" ">
<path fill="none" stroke="#63b8ff" d="M2532.36,-74.78C2777.34,-72.95 3859.62,-63.13 4194.75,-30.5 4203.25,-29.67 4212.18,-28.49 4220.92,-27.17"/>
<polygon fill="#63b8ff" stroke="#63b8ff" points="4221.44,-30.63 4230.76,-25.59 4220.33,-23.72 4221.44,-30.63"/>
</a>
</g>
</g>
<!-- Node34 -->
<g id="Node000034" class="node">
<title>Node34</title>
<g id="a_Node000034"><a xlink:href="_ralston4_8hxx.html" target="_top" xlink:title=" ">
<polygon fill="white" stroke="#666666" points="4520.12,-24.88 4371.38,-24.88 4371.38,-5.63 4520.12,-5.63 4520.12,-24.88"/>
<text text-anchor="middle" x="4445.75" y="-11.38" font-family="Helvetica,sans-Serif" font-size="10.00">Sandals/Tableau/Ralston4.hxx</text>
</a>
</g>
</g>
<!-- Node1&#45;&gt;Node34 -->
<g id="edge33_Node000001_Node000034" class="edge">
<title>Node1&#45;&gt;Node34</title>
<g id="a_edge33_Node000001_Node000034"><a xlink:title=" ">
<path fill="none" stroke="#63b8ff" d="M2532.4,-74.92C2791.62,-73.68 3991.67,-66.1 4361.75,-30.5 4370.25,-29.68 4379.18,-28.51 4387.93,-27.18"/>
<polygon fill="#63b8ff" stroke="#63b8ff" points="4388.44,-30.64 4397.76,-25.61 4387.33,-23.73 4388.44,-30.64"/>
</a>
</g>
</g>
<!-- Node35 -->
<g id="Node000035" class="node">
<title>Node35</title>
<g id="a_Node000035"><a xlink:href="_r_k4_8hxx.html" target="_top" xlink:title=" ">
<polygon fill="white" stroke="#666666" points="4667.38,-24.88 4538.12,-24.88 4538.12,-5.63 4667.38,-5.63 4667.38,-24.88"/>
<text text-anchor="middle" x="4602.75" y="-11.38" font-family="Helvetica,sans-Serif" font-size="10.00">Sandals/Tableau/RK4.hxx</text>
</a>
</g>
</g>
<!-- Node1&#45;&gt;Node35 -->
<g id="edge34_Node000001_Node000035" class="edge">
<title>Node1&#45;&gt;Node35</title>
<g id="a_edge34_Node000001_Node000035"><a xlink:title=" ">
<path fill="none" stroke="#63b8ff" d="M2532.28,-75.18C2804.8,-75.29 4124,-73.57 4528.75,-30.5 4536.01,-29.73 4543.61,-28.62 4551.08,-27.35"/>
<polygon fill="#63b8ff" stroke="#63b8ff" points="4551.52,-30.83 4560.73,-25.6 4550.27,-23.94 4551.52,-30.83"/>
</a>
</g>
</g>
<!-- Node36 -->
<g id="Node000036" class="node">
<title>Node36</title>
<g id="a_Node000036"><a xlink:href="_s_s_p_i_r_k33_8hxx.html" target="_top" xlink:title=" ">
<polygon fill="white" stroke="#666666" points="4843.62,-24.88 4685.88,-24.88 4685.88,-5.63 4843.62,-5.63 4843.62,-24.88"/>
<text text-anchor="middle" x="4764.75" y="-11.38" font-family="Helvetica,sans-Serif" font-size="10.00">Sandals/Tableau/SSPIRK33.hxx</text>
</a>
</g>
</g>
<!-- Node1&#45;&gt;Node36 -->
<g id="edge35_Node000001_Node000036" class="edge">
<title>Node1&#45;&gt;Node36</title>
<g id="a_edge35_Node000001_Node000036"><a xlink:title=" ">
<path fill="none" stroke="#63b8ff" d="M2532.08,-75.06C2815.6,-74.56 4240.17,-70.09 4676.75,-30.5 4685.95,-29.67 4695.65,-28.44 4705.12,-27.06"/>
<polygon fill="#63b8ff" stroke="#63b8ff" points="4705.64,-30.52 4714.99,-25.54 4704.58,-23.6 4705.64,-30.52"/>
</a>
</g>
</g>
<!-- Node37 -->
<g id="Node000037" class="node">
<title>Node37</title>
<g id="a_Node000037"><a xlink:href="_s_s_p_r_k22_8hxx.html" target="_top" xlink:title=" ">
<polygon fill="white" stroke="#666666" points="5016.12,-24.88 4861.38,-24.88 4861.38,-5.63 5016.12,-5.63 5016.12,-24.88"/>
<text text-anchor="middle" x="4938.75" y="-11.38" font-family="Helvetica,sans-Serif" font-size="10.00">Sandals/Tableau/SSPRK22.hxx</text>
</a>
</g>
</g>
<!-- Node1&#45;&gt;Node37 -->
<g id="edge36_Node000001_Node000037" class="edge">
<title>Node1&#45;&gt;Node37</title>
<g id="a_edge36_Node000001_Node000037"><a xlink:title=" ">
<path fill="none" stroke="#63b8ff" d="M2532.12,-75.17C2828.91,-75.32 4379.16,-73.96 4852.75,-30.5 4861.75,-29.67 4871.23,-28.46 4880.48,-27.08"/>
<polygon fill="#63b8ff" stroke="#63b8ff" points="4880.77,-30.58 4890.1,-25.57 4879.68,-23.66 4880.77,-30.58"/>
</a>
</g>
</g>
<!-- Node38 -->
<g id="Node000038" class="node">
<title>Node38</title>
<g id="a_Node000038"><a xlink:href="_s_s_p_r_k22star_8hxx.html" target="_top" xlink:title=" ">
<polygon fill="white" stroke="#666666" points="5205,-24.88 5034.5,-24.88 5034.5,-5.63 5205,-5.63 5205,-24.88"/>
<text text-anchor="middle" x="5119.75" y="-11.38" font-family="Helvetica,sans-Serif" font-size="10.00">Sandals/Tableau/SSPRK22star.hxx</text>
</a>
</g>
</g>
<!-- Node1&#45;&gt;Node38 -->
<g id="edge37_Node000001_Node000038" class="edge">
<title>Node1&#45;&gt;Node38</title>
<g id="a_edge37_Node000001_Node000038"><a xlink:title=" ">
<path fill="none" stroke="#63b8ff" d="M2532.38,-75.14C2842.27,-75.13 4514.65,-73.05 5024.75,-30.5 5035,-29.64 5045.83,-28.37 5056.36,-26.94"/>
<polygon fill="#63b8ff" stroke="#63b8ff" points="5056.73,-30.42 5066.13,-25.54 5055.74,-23.49 5056.73,-30.42"/>
</a>
</g>
</g>
<!-- Node39 -->
<g id="Node000039" class="node">
<title>Node39</title>
<g id="a_Node000039"><a xlink:href="_s_s_p_r_k33_8hxx.html" target="_top" xlink:title=" ">
<polygon fill="white" stroke="#666666" points="5378.12,-24.88 5223.38,-24.88 5223.38,-5.63 5378.12,-5.63 5378.12,-24.88"/>
<text text-anchor="middle" x="5300.75" y="-11.38" font-family="Helvetica,sans-Serif" font-size="10.00">Sandals/Tableau/SSPRK33.hxx</text>
</a>
</g>
</g>
<!-- Node1&#45;&gt;Node39 -->
<g id="edge38_Node000001_Node000039" class="edge">
<title>Node1&#45;&gt;Node39</title>
<g id="a_edge38_Node000001_Node000039"><a xlink:title=" ">
<path fill="none" stroke="#63b8ff" d="M2532.38,-75.31C2855.48,-76.33 4663.96,-79.75 5213.75,-30.5 5222.85,-29.68 5232.44,-28.47 5241.8,-27.1"/>
<polygon fill="#63b8ff" stroke="#63b8ff" points="5242.21,-30.58 5251.55,-25.58 5241.13,-23.66 5242.21,-30.58"/>
</a>
</g>
</g>
<!-- Node40 -->
<g id="Node000040" class="node">
<title>Node40</title>
<g id="a_Node000040"><a xlink:href="_s_s_p_r_k42_8hxx.html" target="_top" xlink:title=" ">
<polygon fill="white" stroke="#666666" points="5551.12,-24.88 5396.38,-24.88 5396.38,-5.63 5551.12,-5.63 5551.12,-24.88"/>
<text text-anchor="middle" x="5473.75" y="-11.38" font-family="Helvetica,sans-Serif" font-size="10.00">Sandals/Tableau/SSPRK42.hxx</text>
</a>
</g>
</g>
<!-- Node1&#45;&gt;Node40 -->
<g id="edge39_Node000001_Node000040" class="edge">
<title>Node1&#45;&gt;Node40</title>
<g id="a_edge39_Node000001_Node000040"><a xlink:title=" ">
<path fill="none" stroke="#63b8ff" d="M2532.5,-74.8C2892.41,-72.41 5091.76,-56.78 5386.75,-30.5 5395.85,-29.69 5405.45,-28.48 5414.8,-27.1"/>
<polygon fill="#63b8ff" stroke="#63b8ff" points="5415.21,-30.58 5424.55,-25.59 5414.13,-23.67 5415.21,-30.58"/>
</a>
</g>
</g>
<!-- Node41 -->
<g id="Node000041" class="node">
<title>Node41</title>
<g id="a_Node000041"><a xlink:href="_s_s_p_r_k43_8hxx.html" target="_top" xlink:title=" ">
<polygon fill="white" stroke="#666666" points="5724.12,-24.88 5569.38,-24.88 5569.38,-5.63 5724.12,-5.63 5724.12,-24.88"/>
<text text-anchor="middle" x="5646.75" y="-11.38" font-family="Helvetica,sans-Serif" font-size="10.00">Sandals/Tableau/SSPRK43.hxx</text>
</a>
</g>
</g>
<!-- Node1&#45;&gt;Node41 -->
<g id="edge40_Node000001_Node000041" class="edge">
<title>Node1&#45;&gt;Node41</title>
<g id="a_edge40_Node000001_Node000041"><a xlink:title=" ">
<path fill="none" stroke="#63b8ff" d="M2532.46,-74.85C2904.4,-72.72 5246.35,-58.29 5559.75,-30.5 5568.85,-29.69 5578.45,-28.49 5587.8,-27.11"/>
<polygon fill="#63b8ff" stroke="#63b8ff" points="5588.21,-30.59 5597.55,-25.6 5587.13,-23.67 5588.21,-30.59"/>
</a>
</g>
</g>
<!-- Node42 -->
<g id="Node000042" class="node">
<title>Node42</title>
<g id="a_Node000042"><a xlink:href="_s_s_p_r_k93_8hxx.html" target="_top" xlink:title=" ">
<polygon fill="white" stroke="#666666" points="5897.12,-24.88 5742.38,-24.88 5742.38,-5.63 5897.12,-5.63 5897.12,-24.88"/>
<text text-anchor="middle" x="5819.75" y="-11.38" font-family="Helvetica,sans-Serif" font-size="10.00">Sandals/Tableau/SSPRK93.hxx</text>
</a>
</g>
</g>
<!-- Node1&#45;&gt;Node42 -->
<g id="edge41_Node000001_Node000042" class="edge">
<title>Node1&#45;&gt;Node42</title>
<g id="a_edge41_Node000001_Node000042"><a xlink:title=" ">
<path fill="none" stroke="#63b8ff" d="M2532.48,-74.89C2916.28,-73.01 5400.93,-59.79 5732.75,-30.5 5741.85,-29.7 5751.45,-28.49 5760.8,-27.12"/>
<polygon fill="#63b8ff" stroke="#63b8ff" points="5761.21,-30.6 5770.55,-25.61 5760.13,-23.68 5761.21,-30.6"/>
</a>
</g>
</g>
<!-- Node43 -->
<g id="Node000043" class="node">
<title>Node43</title>
<g id="a_Node000043"><a xlink:href="_s_s_p_r_k104_8hxx.html" target="_top" xlink:title=" ">
<polygon fill="white" stroke="#666666" points="6074.75,-24.88 5914.75,-24.88 5914.75,-5.63 6074.75,-5.63 6074.75,-24.88"/>
<text text-anchor="middle" x="5994.75" y="-11.38" font-family="Helvetica,sans-Serif" font-size="10.00">Sandals/Tableau/SSPRK104.hxx</text>
</a>
</g>
</g>
<!-- Node1&#45;&gt;Node43 -->
<g id="edge42_Node000001_Node000043" class="edge">
<title>Node1&#45;&gt;Node43</title>
<g id="a_edge42_Node000001_Node000043"><a xlink:title=" ">
<path fill="none" stroke="#63b8ff" d="M2532.27,-74.92C2926.86,-73.2 5555.38,-60.67 5905.75,-30.5 5915.27,-29.68 5925.32,-28.44 5935.1,-27.03"/>
<polygon fill="#63b8ff" stroke="#63b8ff" points="5935.55,-30.5 5944.91,-25.53 5934.5,-23.58 5935.55,-30.5"/>
</a>
</g>
</g>
</g>
</svg>
