<?xml version="1.0" encoding="UTF-8" standalone="no"?>
<!DOCTYPE svg PUBLIC "-//W3C//DTD SVG 1.1//EN"
 "http://www.w3.org/Graphics/SVG/1.1/DTD/svg11.dtd">
<!-- Generated by graphviz version 12.2.1 (20241206.2353)
 -->
<!-- Title: include/Sandals.hh Pages: 1 -->
<svg width="6202pt" height="94pt"
 viewBox="0.00 0.00 6201.75 93.75" xmlns="http://www.w3.org/2000/svg" xmlns:xlink="http://www.w3.org/1999/xlink">
<g id="graph0" class="graph" transform="scale(1 1) rotate(0) translate(4 89.75)">
<title>include/Sandals.hh</title>
<!-- Node1 -->
<g id="Node000001" class="node">
<title>Node1</title>
<g id="a_Node000001"><a xlink:title=" ">
<polygon fill="#999999" stroke="#666666" points="2551,-85.75 2452.5,-85.75 2452.5,-66.5 2551,-66.5 2551,-85.75"/>
<text text-anchor="middle" x="2501.75" y="-72.25" font-family="Helvetica,sans-Serif" font-size="10.00">include/Sandals.hh</text>
</a>
</g>
</g>
<!-- Node2 -->
<g id="Node000002" class="node">
<title>Node2</title>
<g id="a_Node000002"><a xlink:title=" ">
<polygon fill="#e0e0e0" stroke="#999999" points="53.5,-24.88 0,-24.88 0,-5.63 53.5,-5.63 53.5,-24.88"/>
<text text-anchor="middle" x="26.75" y="-11.38" font-family="Helvetica,sans-Serif" font-size="10.00">iostream</text>
</a>
</g>
</g>
<!-- Node1&#45;&gt;Node2 -->
<g id="edge1_Node000001_Node000002" class="edge">
<title>Node1&#45;&gt;Node2</title>
<g id="a_edge1_Node000001_Node000002"><a xlink:title=" ">
<path fill="none" stroke="#63b8ff" d="M2452.08,-75.28C2126.64,-76.17 304.64,-78.93 62.75,-30.5 60.71,-30.09 58.64,-29.58 56.58,-28.98"/>
<polygon fill="#63b8ff" stroke="#63b8ff" points="57.82,-25.71 47.22,-25.75 55.53,-32.32 57.82,-25.71"/>
</a>
</g>
</g>
<!-- Node3 -->
<g id="Node000003" class="node">
<title>Node3</title>
<g id="a_Node000003"><a xlink:title=" ">
<polygon fill="#e0e0e0" stroke="#999999" points="111.75,-24.88 71.75,-24.88 71.75,-5.63 111.75,-5.63 111.75,-24.88"/>
<text text-anchor="middle" x="91.75" y="-11.38" font-family="Helvetica,sans-Serif" font-size="10.00">string</text>
</a>
</g>
</g>
<!-- Node1&#45;&gt;Node3 -->
<g id="edge2_Node000001_Node000003" class="edge">
<title>Node1&#45;&gt;Node3</title>
<g id="a_edge2_Node000001_Node000003"><a xlink:title=" ">
<path fill="none" stroke="#63b8ff" d="M2452.26,-74.81C2121.21,-72.61 238,-58.91 120.75,-30.5 119.58,-30.22 118.4,-29.88 117.22,-29.5"/>
<polygon fill="#63b8ff" stroke="#63b8ff" points="118.91,-26.41 108.33,-25.83 116.24,-32.88 118.91,-26.41"/>
</a>
</g>
</g>
<!-- Node4 -->
<g id="Node000004" class="node">
<title>Node4</title>
<g id="a_Node000004"><a xlink:title=" ">
<polygon fill="#e0e0e0" stroke="#999999" points="173.25,-24.88 130.25,-24.88 130.25,-5.63 173.25,-5.63 173.25,-24.88"/>
<text text-anchor="middle" x="151.75" y="-11.38" font-family="Helvetica,sans-Serif" font-size="10.00">cmath</text>
</a>
</g>
</g>
<!-- Node1&#45;&gt;Node4 -->
<g id="edge3_Node000001_Node000004" class="edge">
<title>Node1&#45;&gt;Node4</title>
<g id="a_edge3_Node000001_Node000004"><a xlink:title=" ">
<path fill="none" stroke="#63b8ff" d="M2452.23,-74.76C2126.09,-72.32 296.02,-57.42 181.75,-30.5 180.54,-30.22 179.33,-29.88 178.11,-29.5"/>
<polygon fill="#63b8ff" stroke="#63b8ff" points="179.47,-26.27 168.89,-25.81 176.88,-32.77 179.47,-26.27"/>
</a>
</g>
</g>
<!-- Node5 -->
<g id="Node000005" class="node">
<title>Node5</title>
<g id="a_Node000005"><a xlink:title=" ">
<polygon fill="#e0e0e0" stroke="#999999" points="234.25,-24.88 191.25,-24.88 191.25,-5.63 234.25,-5.63 234.25,-24.88"/>
<text text-anchor="middle" x="212.75" y="-11.38" font-family="Helvetica,sans-Serif" font-size="10.00">vector</text>
</a>
</g>
</g>
<!-- Node1&#45;&gt;Node5 -->
<g id="edge4_Node000001_Node000005" class="edge">
<title>Node1&#45;&gt;Node5</title>
<g id="a_edge4_Node000001_Node000005"><a xlink:title=" ">
<path fill="none" stroke="#63b8ff" d="M2452.03,-75.36C2140.68,-76.67 465.47,-81.32 243.75,-30.5 242.35,-30.18 240.94,-29.79 239.54,-29.36"/>
<polygon fill="#63b8ff" stroke="#63b8ff" points="241.03,-26.18 230.45,-25.8 238.49,-32.7 241.03,-26.18"/>
</a>
</g>
</g>
<!-- Node6 -->
<g id="Node000006" class="node">
<title>Node6</title>
<g id="a_Node000006"><a xlink:title=" ">
<polygon fill="#e0e0e0" stroke="#999999" points="287.12,-24.88 252.38,-24.88 252.38,-5.63 287.12,-5.63 287.12,-24.88"/>
<text text-anchor="middle" x="269.75" y="-11.38" font-family="Helvetica,sans-Serif" font-size="10.00">map</text>
</a>
</g>
</g>
<!-- Node1&#45;&gt;Node6 -->
<g id="edge5_Node000001_Node000006" class="edge">
<title>Node1&#45;&gt;Node6</title>
<g id="a_edge5_Node000001_Node000006"><a xlink:title=" ">
<path fill="none" stroke="#63b8ff" d="M2452.11,-74.79C2135.08,-72.58 403.31,-59.21 295.75,-30.5 295.08,-30.32 294.41,-30.12 293.74,-29.91"/>
<polygon fill="#63b8ff" stroke="#63b8ff" points="295.2,-26.72 284.64,-25.86 292.36,-33.12 295.2,-26.72"/>
</a>
</g>
</g>
<!-- Node7 -->
<g id="Node000007" class="node">
<title>Node7</title>
<g id="a_Node000007"><a xlink:title=" ">
<polygon fill="#e0e0e0" stroke="#999999" points="356.38,-24.88 305.12,-24.88 305.12,-5.63 356.38,-5.63 356.38,-24.88"/>
<text text-anchor="middle" x="330.75" y="-11.38" font-family="Helvetica,sans-Serif" font-size="10.00">memory</text>
</a>
</g>
</g>
<!-- Node1&#45;&gt;Node7 -->
<g id="edge6_Node000001_Node000007" class="edge">
<title>Node1&#45;&gt;Node7</title>
<g id="a_edge6_Node000001_Node000007"><a xlink:title=" ">
<path fill="none" stroke="#63b8ff" d="M2452.06,-75.2C2150.8,-75.52 574.74,-75.01 364.75,-30.5 362.98,-30.13 361.19,-29.66 359.41,-29.13"/>
<polygon fill="#63b8ff" stroke="#63b8ff" points="360.71,-25.88 350.12,-25.76 358.32,-32.46 360.71,-25.88"/>
</a>
</g>
</g>
<!-- Node8 -->
<g id="Node000008" class="node">
<title>Node8</title>
<g id="a_Node000008"><a xlink:title=" ">
<polygon fill="#e0e0e0" stroke="#999999" points="419.38,-24.88 374.12,-24.88 374.12,-5.63 419.38,-5.63 419.38,-24.88"/>
<text text-anchor="middle" x="396.75" y="-11.38" font-family="Helvetica,sans-Serif" font-size="10.00">chrono</text>
</a>
</g>
</g>
<!-- Node1&#45;&gt;Node8 -->
<g id="edge7_Node000001_Node000008" class="edge">
<title>Node1&#45;&gt;Node8</title>
<g id="a_edge7_Node000001_Node000008"><a xlink:title=" ">
<path fill="none" stroke="#63b8ff" d="M2452.11,-75.23C2156.26,-75.7 631.62,-75.92 428.75,-30.5 427.16,-30.14 425.54,-29.7 423.93,-29.2"/>
<polygon fill="#63b8ff" stroke="#63b8ff" points="425.59,-26.09 415,-25.79 423.09,-32.63 425.59,-26.09"/>
</a>
</g>
</g>
<!-- Node9 -->
<g id="Node000009" class="node">
<title>Node9</title>
<g id="a_Node000009"><a xlink:title=" ">
<polygon fill="#e0e0e0" stroke="#999999" points="509.88,-24.88 437.62,-24.88 437.62,-5.63 509.88,-5.63 509.88,-24.88"/>
<text text-anchor="middle" x="473.75" y="-11.38" font-family="Helvetica,sans-Serif" font-size="10.00">Eigen/Dense</text>
</a>
</g>
</g>
<!-- Node1&#45;&gt;Node9 -->
<g id="edge8_Node000001_Node000009" class="edge">
<title>Node1&#45;&gt;Node9</title>
<g id="a_edge8_Node000001_Node000009"><a xlink:title=" ">
<path fill="none" stroke="#63b8ff" d="M2452,-74.85C2163.8,-73.14 714.4,-63 518.75,-30.5 515.38,-29.94 511.92,-29.19 508.48,-28.31"/>
<polygon fill="#63b8ff" stroke="#63b8ff" points="509.76,-25.04 499.18,-25.65 507.83,-31.77 509.76,-25.04"/>
</a>
</g>
</g>
<!-- Node10 -->
<g id="Node000010" class="node">
<title>Node10</title>
<g id="a_Node000010"><a xlink:title=" ">
<polygon fill="#e0e0e0" stroke="#999999" points="593.88,-24.88 527.62,-24.88 527.62,-5.63 593.88,-5.63 593.88,-24.88"/>
<text text-anchor="middle" x="560.75" y="-11.38" font-family="Helvetica,sans-Serif" font-size="10.00">Optimist.hh</text>
</a>
</g>
</g>
<!-- Node1&#45;&gt;Node10 -->
<g id="edge9_Node000001_Node000010" class="edge">
<title>Node1&#45;&gt;Node10</title>
<g id="a_edge9_Node000001_Node000010"><a xlink:title=" ">
<path fill="none" stroke="#63b8ff" d="M2452.29,-74.86C2172.03,-73.23 789.37,-63.55 602.75,-30.5 599.9,-29.99 596.98,-29.33 594.07,-28.56"/>
<polygon fill="#63b8ff" stroke="#63b8ff" points="595.12,-25.23 584.54,-25.67 593.09,-31.92 595.12,-25.23"/>
</a>
</g>
</g>
<!-- Node11 -->
<g id="Node000011" class="node">
<title>Node11</title>
<g id="a_Node000011"><a xlink:title=" ">
<polygon fill="#e0e0e0" stroke="#999999" points="715.62,-30.5 611.88,-30.5 611.88,0 715.62,0 715.62,-30.5"/>
<text text-anchor="start" x="619.88" y="-17" font-family="Helvetica,sans-Serif" font-size="10.00">Optimist/RootFinder</text>
<text text-anchor="middle" x="663.75" y="-5.75" font-family="Helvetica,sans-Serif" font-size="10.00">/Newton.hh</text>
</a>
</g>
</g>
<!-- Node1&#45;&gt;Node11 -->
<g id="edge10_Node000001_Node000011" class="edge">
<title>Node1&#45;&gt;Node11</title>
<g id="a_edge10_Node000001_Node000011"><a xlink:title=" ">
<path fill="none" stroke="#63b8ff" d="M2452.3,-75.25C2204.48,-75.66 1095.44,-75.01 727.07,-30.56"/>
<polygon fill="#63b8ff" stroke="#63b8ff" points="727.72,-27.11 717.37,-29.35 726.86,-34.06 727.72,-27.11"/>
</a>
</g>
</g>
<!-- Node12 -->
<g id="Node000012" class="node">
<title>Node12</title>
<g id="a_Node000012"><a xlink:href="_tic_toc_8hxx.html" target="_top" xlink:title=" ">
<polygon fill="white" stroke="#666666" points="835.88,-24.88 733.62,-24.88 733.62,-5.63 835.88,-5.63 835.88,-24.88"/>
<text text-anchor="middle" x="784.75" y="-11.38" font-family="Helvetica,sans-Serif" font-size="10.00">Sandals/TicToc.hxx</text>
</a>
</g>
</g>
<!-- Node1&#45;&gt;Node12 -->
<g id="edge11_Node000001_Node000012" class="edge">
<title>Node1&#45;&gt;Node12</title>
<g id="a_edge11_Node000001_Node000012"><a xlink:title=" ">
<path fill="none" stroke="#63b8ff" d="M2452.1,-75.17C2211.72,-75.16 1167.19,-72.67 844.75,-30.5 839.46,-29.81 833.95,-28.84 828.51,-27.74"/>
<polygon fill="#63b8ff" stroke="#63b8ff" points="829.53,-24.38 819.01,-25.65 828.02,-31.22 829.53,-24.38"/>
</a>
</g>
</g>
<!-- Node13 -->
<g id="Node000013" class="node">
<title>Node13</title>
<g id="a_Node000013"><a xlink:href="_implicit_8hxx.html" target="_top" xlink:title=" ">
<polygon fill="white" stroke="#666666" points="995.38,-24.88 854.12,-24.88 854.12,-5.63 995.38,-5.63 995.38,-24.88"/>
<text text-anchor="middle" x="924.75" y="-11.38" font-family="Helvetica,sans-Serif" font-size="10.00">Sandals/System/Implicit.hxx</text>
</a>
</g>
</g>
<!-- Node1&#45;&gt;Node13 -->
<g id="edge12_Node000001_Node000013" class="edge">
<title>Node1&#45;&gt;Node13</title>
<g id="a_edge12_Node000001_Node000013"><a xlink:title=" ">
<path fill="none" stroke="#63b8ff" d="M2452.14,-74.62C2226.42,-72.19 1294.9,-60.5 1004.75,-30.5 996.74,-29.67 988.33,-28.51 980.09,-27.19"/>
<polygon fill="#63b8ff" stroke="#63b8ff" points="980.95,-23.79 970.51,-25.58 979.79,-30.69 980.95,-23.79"/>
</a>
</g>
</g>
<!-- Node14 -->
<g id="Node000014" class="node">
<title>Node14</title>
<g id="a_Node000014"><a xlink:href="_explicit_8hxx.html" target="_top" xlink:title=" ">
<polygon fill="white" stroke="#666666" points="1155.75,-24.88 1013.75,-24.88 1013.75,-5.63 1155.75,-5.63 1155.75,-24.88"/>
<text text-anchor="middle" x="1084.75" y="-11.38" font-family="Helvetica,sans-Serif" font-size="10.00">Sandals/System/Explicit.hxx</text>
</a>
</g>
</g>
<!-- Node1&#45;&gt;Node14 -->
<g id="edge13_Node000001_Node000014" class="edge">
<title>Node1&#45;&gt;Node14</title>
<g id="a_edge13_Node000001_Node000014"><a xlink:title=" ">
<path fill="none" stroke="#63b8ff" d="M2452.26,-74.42C2241.98,-71.29 1421.71,-57.53 1164.75,-30.5 1156.93,-29.68 1148.72,-28.54 1140.67,-27.26"/>
<polygon fill="#63b8ff" stroke="#63b8ff" points="1141.37,-23.83 1130.93,-25.62 1140.22,-30.73 1141.37,-23.83"/>
</a>
</g>
</g>
<!-- Node15 -->
<g id="Node000015" class="node">
<title>Node15</title>
<g id="a_Node000015"><a xlink:href="_semi_explicit_8hxx.html" target="_top" xlink:title=" ">
<polygon fill="white" stroke="#666666" points="1338,-24.88 1173.5,-24.88 1173.5,-5.63 1338,-5.63 1338,-24.88"/>
<text text-anchor="middle" x="1255.75" y="-11.38" font-family="Helvetica,sans-Serif" font-size="10.00">Sandals/System/SemiExplicit.hxx</text>
</a>
</g>
</g>
<!-- Node1&#45;&gt;Node15 -->
<g id="edge14_Node000001_Node000015" class="edge">
<title>Node1&#45;&gt;Node15</title>
<g id="a_edge14_Node000001_Node000015"><a xlink:title=" ">
<path fill="none" stroke="#63b8ff" d="M2452.08,-75.27C2291.67,-75.31 1773.17,-71.98 1346.75,-30.5 1337.58,-29.61 1327.94,-28.4 1318.49,-27.05"/>
<polygon fill="#63b8ff" stroke="#63b8ff" points="1319.01,-23.59 1308.61,-25.59 1317.99,-30.52 1319.01,-23.59"/>
</a>
</g>
</g>
<!-- Node16 -->
<g id="Node000016" class="node">
<title>Node16</title>
<g id="a_Node000016"><a xlink:href="_linear_8hxx.html" target="_top" xlink:title=" ">
<polygon fill="white" stroke="#666666" points="1491.38,-24.88 1356.12,-24.88 1356.12,-5.63 1491.38,-5.63 1491.38,-24.88"/>
<text text-anchor="middle" x="1423.75" y="-11.38" font-family="Helvetica,sans-Serif" font-size="10.00">Sandals/System/Linear.hxx</text>
</a>
</g>
</g>
<!-- Node1&#45;&gt;Node16 -->
<g id="edge15_Node000001_Node000016" class="edge">
<title>Node1&#45;&gt;Node16</title>
<g id="a_edge15_Node000001_Node000016"><a xlink:title=" ">
<path fill="none" stroke="#63b8ff" d="M2452.08,-75.34C2305.82,-75.44 1864.13,-72.02 1500.75,-30.5 1493.48,-29.67 1485.87,-28.56 1478.38,-27.32"/>
<polygon fill="#63b8ff" stroke="#63b8ff" points="1479.11,-23.9 1468.66,-25.63 1477.91,-30.79 1479.11,-23.9"/>
</a>
</g>
</g>
<!-- Node17 -->
<g id="Node000017" class="node">
<title>Node17</title>
<g id="a_Node000017"><a xlink:href="_tableau_8hxx.html" target="_top" xlink:title=" ">
<polygon fill="white" stroke="#666666" points="1616.12,-24.88 1509.38,-24.88 1509.38,-5.63 1616.12,-5.63 1616.12,-24.88"/>
<text text-anchor="middle" x="1562.75" y="-11.38" font-family="Helvetica,sans-Serif" font-size="10.00">Sandals/Tableau.hxx</text>
</a>
</g>
</g>
<!-- Node1&#45;&gt;Node17 -->
<g id="edge16_Node000001_Node000017" class="edge">
<title>Node1&#45;&gt;Node17</title>
<g id="a_edge16_Node000001_Node000017"><a xlink:title=" ">
<path fill="none" stroke="#63b8ff" d="M2452.08,-75.57C2318.04,-76.12 1938.03,-73.45 1625.75,-30.5 1620.34,-29.76 1614.71,-28.78 1609.14,-27.69"/>
<polygon fill="#63b8ff" stroke="#63b8ff" points="1609.86,-24.26 1599.36,-25.63 1608.42,-31.11 1609.86,-24.26"/>
</a>
</g>
</g>
<!-- Node18 -->
<g id="Node000018" class="node">
<title>Node18</title>
<g id="a_Node000018"><a xlink:href="_solution_8hxx.html" target="_top" xlink:title=" ">
<polygon fill="white" stroke="#666666" points="1742.88,-24.88 1634.62,-24.88 1634.62,-5.63 1742.88,-5.63 1742.88,-24.88"/>
<text text-anchor="middle" x="1688.75" y="-11.38" font-family="Helvetica,sans-Serif" font-size="10.00">Sandals/Solution.hxx</text>
</a>
</g>
</g>
<!-- Node1&#45;&gt;Node18 -->
<g id="edge17_Node000001_Node000018" class="edge">
<title>Node1&#45;&gt;Node18</title>
<g id="a_edge17_Node000001_Node000018"><a xlink:title=" ">
<path fill="none" stroke="#63b8ff" d="M2452.41,-74.9C2332.15,-73.76 2014.63,-67.22 1752.75,-30.5 1747.19,-29.72 1741.39,-28.71 1735.65,-27.59"/>
<polygon fill="#63b8ff" stroke="#63b8ff" points="1736.77,-24.25 1726.26,-25.64 1735.34,-31.1 1736.77,-24.25"/>
</a>
</g>
</g>
<!-- Node19 -->
<g id="Node000019" class="node">
<title>Node19</title>
<g id="a_Node000019"><a xlink:href="_runge_kutta_8hxx.html" target="_top" xlink:title=" ">
<polygon fill="white" stroke="#666666" points="1886.12,-24.88 1761.38,-24.88 1761.38,-5.63 1886.12,-5.63 1886.12,-24.88"/>
<text text-anchor="middle" x="1823.75" y="-11.38" font-family="Helvetica,sans-Serif" font-size="10.00">Sandals/RungeKutta.hxx</text>
</a>
</g>
</g>
<!-- Node1&#45;&gt;Node19 -->
<g id="edge18_Node000001_Node000019" class="edge">
<title>Node1&#45;&gt;Node19</title>
<g id="a_edge18_Node000001_Node000019"><a xlink:title=" ">
<path fill="none" stroke="#63b8ff" d="M2452.36,-73.58C2348.64,-69.88 2100.74,-58.63 1894.75,-30.5 1888.6,-29.66 1882.18,-28.61 1875.83,-27.47"/>
<polygon fill="#63b8ff" stroke="#63b8ff" points="1876.49,-24.04 1866.01,-25.62 1875.19,-30.91 1876.49,-24.04"/>
</a>
</g>
</g>
<!-- Node20 -->
<g id="Node000020" class="node">
<title>Node20</title>
<g id="a_Node000020"><a xlink:href="_chebyshev51_8hxx.html" target="_top" xlink:title=" ">
<polygon fill="white" stroke="#666666" points="2073.62,-24.88 1903.88,-24.88 1903.88,-5.63 2073.62,-5.63 2073.62,-24.88"/>
<text text-anchor="middle" x="1988.75" y="-11.38" font-family="Helvetica,sans-Serif" font-size="10.00">Sandals/Tableau/Chebyshev51.hxx</text>
</a>
</g>
</g>
<!-- Node1&#45;&gt;Node20 -->
<g id="edge19_Node000001_Node000020" class="edge">
<title>Node1&#45;&gt;Node20</title>
<g id="a_edge19_Node000001_Node000020"><a xlink:title=" ">
<path fill="none" stroke="#63b8ff" d="M2452,-70.55C2373.44,-63.15 2215.89,-47.67 2082.75,-30.5 2074.44,-29.43 2065.73,-28.22 2057.11,-26.97"/>
<polygon fill="#63b8ff" stroke="#63b8ff" points="2057.76,-23.53 2047.36,-25.54 2056.74,-30.46 2057.76,-23.53"/>
</a>
</g>
</g>
<!-- Node21 -->
<g id="Node000021" class="node">
<title>Node21</title>
<g id="a_Node000021"><a xlink:href="_explicit_euler_8hxx.html" target="_top" xlink:title=" ">
<polygon fill="white" stroke="#666666" points="2215.38,-30.5 2092.12,-30.5 2092.12,0 2215.38,0 2215.38,-30.5"/>
<text text-anchor="start" x="2100.12" y="-17" font-family="Helvetica,sans-Serif" font-size="10.00">Sandals/Tableau/Explicit</text>
<text text-anchor="middle" x="2153.75" y="-5.75" font-family="Helvetica,sans-Serif" font-size="10.00">Euler.hxx</text>
</a>
</g>
</g>
<!-- Node1&#45;&gt;Node21 -->
<g id="edge20_Node000001_Node000021" class="edge">
<title>Node1&#45;&gt;Node21</title>
<g id="a_edge20_Node000001_Node000021"><a xlink:title=" ">
<path fill="none" stroke="#63b8ff" d="M2452.11,-67.72C2398.94,-59.65 2311.78,-46.05 2226.83,-30.83"/>
<polygon fill="#63b8ff" stroke="#63b8ff" points="2227.63,-27.42 2217.17,-29.09 2226.39,-34.31 2227.63,-27.42"/>
</a>
</g>
</g>
<!-- Node22 -->
<g id="Node000022" class="node">
<title>Node22</title>
<g id="a_Node000022"><a xlink:href="_fehlberg45_8hxx.html" target="_top" xlink:title=" ">
<polygon fill="white" stroke="#666666" points="2391.62,-24.88 2233.88,-24.88 2233.88,-5.63 2391.62,-5.63 2391.62,-24.88"/>
<text text-anchor="middle" x="2312.75" y="-11.38" font-family="Helvetica,sans-Serif" font-size="10.00">Sandals/Tableau/Fehlberg45.hxx</text>
</a>
</g>
</g>
<!-- Node1&#45;&gt;Node22 -->
<g id="edge21_Node000001_Node000022" class="edge">
<title>Node1&#45;&gt;Node22</title>
<g id="a_edge21_Node000001_Node000022"><a xlink:title=" ">
<path fill="none" stroke="#63b8ff" d="M2472.63,-66.05C2440.45,-56.03 2388.41,-39.82 2352.49,-28.63"/>
<polygon fill="#63b8ff" stroke="#63b8ff" points="2353.93,-25.41 2343.35,-25.78 2351.85,-32.1 2353.93,-25.41"/>
</a>
</g>
</g>
<!-- Node23 -->
<g id="Node000023" class="node">
<title>Node23</title>
<g id="a_Node000023"><a xlink:href="_gauss_legendre2_8hxx.html" target="_top" xlink:title=" ">
<polygon fill="white" stroke="#666666" points="2593.38,-24.88 2410.12,-24.88 2410.12,-5.63 2593.38,-5.63 2593.38,-24.88"/>
<text text-anchor="middle" x="2501.75" y="-11.38" font-family="Helvetica,sans-Serif" font-size="10.00">Sandals/Tableau/GaussLegendre2.hxx</text>
</a>
</g>
</g>
<!-- Node1&#45;&gt;Node23 -->
<g id="edge22_Node000001_Node000023" class="edge">
<title>Node1&#45;&gt;Node23</title>
<g id="a_edge22_Node000001_Node000023"><a xlink:title=" ">
<path fill="none" stroke="#63b8ff" d="M2501.75,-66.18C2501.75,-58.4 2501.75,-46.83 2501.75,-36.78"/>
<polygon fill="#63b8ff" stroke="#63b8ff" points="2505.25,-36.79 2501.75,-26.79 2498.25,-36.79 2505.25,-36.79"/>
</a>
</g>
</g>
<!-- Node24 -->
<g id="Node000024" class="node">
<title>Node24</title>
<g id="a_Node000024"><a xlink:href="_gauss_legendre4_8hxx.html" target="_top" xlink:title=" ">
<polygon fill="white" stroke="#666666" points="2794.38,-24.88 2611.12,-24.88 2611.12,-5.63 2794.38,-5.63 2794.38,-24.88"/>
<text text-anchor="middle" x="2702.75" y="-11.38" font-family="Helvetica,sans-Serif" font-size="10.00">Sandals/Tableau/GaussLegendre4.hxx</text>
</a>
</g>
</g>
<!-- Node1&#45;&gt;Node24 -->
<g id="edge23_Node000001_Node000024" class="edge">
<title>Node1&#45;&gt;Node24</title>
<g id="a_edge23_Node000001_Node000024"><a xlink:title=" ">
<path fill="none" stroke="#63b8ff" d="M2532.72,-66.05C2567.09,-55.99 2622.76,-39.68 2660.98,-28.49"/>
<polygon fill="#63b8ff" stroke="#63b8ff" points="2661.68,-31.93 2670.3,-25.76 2659.72,-25.21 2661.68,-31.93"/>
</a>
</g>
</g>
<!-- Node25 -->
<g id="Node000025" class="node">
<title>Node25</title>
<g id="a_Node000025"><a xlink:href="_gauss_legendre6_8hxx.html" target="_top" xlink:title=" ">
<polygon fill="white" stroke="#666666" points="2995.38,-24.88 2812.12,-24.88 2812.12,-5.63 2995.38,-5.63 2995.38,-24.88"/>
<text text-anchor="middle" x="2903.75" y="-11.38" font-family="Helvetica,sans-Serif" font-size="10.00">Sandals/Tableau/GaussLegendre6.hxx</text>
</a>
</g>
</g>
<!-- Node1&#45;&gt;Node25 -->
<g id="edge24_Node000001_Node000025" class="edge">
<title>Node1&#45;&gt;Node25</title>
<g id="a_edge24_Node000001_Node000025"><a xlink:title=" ">
<path fill="none" stroke="#63b8ff" d="M2551.45,-67.85C2621.47,-57.59 2749.63,-38.82 2830.56,-26.97"/>
<polygon fill="#63b8ff" stroke="#63b8ff" points="2830.77,-30.48 2840.16,-25.56 2829.76,-23.55 2830.77,-30.48"/>
</a>
</g>
</g>
<!-- Node26 -->
<g id="Node000026" class="node">
<title>Node26</title>
<g id="a_Node000026"><a xlink:href="_heun2_8hxx.html" target="_top" xlink:title=" ">
<polygon fill="white" stroke="#666666" points="3151.88,-24.88 3013.62,-24.88 3013.62,-5.63 3151.88,-5.63 3151.88,-24.88"/>
<text text-anchor="middle" x="3082.75" y="-11.38" font-family="Helvetica,sans-Serif" font-size="10.00">Sandals/Tableau/Heun2.hxx</text>
</a>
</g>
</g>
<!-- Node1&#45;&gt;Node26 -->
<g id="edge25_Node000001_Node000026" class="edge">
<title>Node1&#45;&gt;Node26</title>
<g id="a_edge25_Node000001_Node000026"><a xlink:title=" ">
<path fill="none" stroke="#63b8ff" d="M2551.18,-72.26C2641.53,-66.68 2839.25,-52.91 3004.75,-30.5 3011.64,-29.57 3018.85,-28.45 3025.99,-27.25"/>
<polygon fill="#63b8ff" stroke="#63b8ff" points="3026.34,-30.74 3035.59,-25.58 3025.14,-23.85 3026.34,-30.74"/>
</a>
</g>
</g>
<!-- Node27 -->
<g id="Node000027" class="node">
<title>Node27</title>
<g id="a_Node000027"><a xlink:href="_heun3_8hxx.html" target="_top" xlink:title=" ">
<polygon fill="white" stroke="#666666" points="3307.88,-24.88 3169.62,-24.88 3169.62,-5.63 3307.88,-5.63 3307.88,-24.88"/>
<text text-anchor="middle" x="3238.75" y="-11.38" font-family="Helvetica,sans-Serif" font-size="10.00">Sandals/Tableau/Heun3.hxx</text>
</a>
</g>
</g>
<!-- Node1&#45;&gt;Node27 -->
<g id="edge26_Node000001_Node000027" class="edge">
<title>Node1&#45;&gt;Node27</title>
<g id="a_edge26_Node000001_Node000027"><a xlink:title=" ">
<path fill="none" stroke="#63b8ff" d="M2551.12,-73.69C2661.02,-70.08 2934.03,-58.79 3160.75,-30.5 3167.92,-29.61 3175.42,-28.48 3182.82,-27.25"/>
<polygon fill="#63b8ff" stroke="#63b8ff" points="3183.18,-30.75 3192.43,-25.59 3181.98,-23.85 3183.18,-30.75"/>
</a>
</g>
</g>
<!-- Node28 -->
<g id="Node000028" class="node">
<title>Node28</title>
<g id="a_Node000028"><a xlink:href="_lobatto_i_i_i_a2_8hxx.html" target="_top" xlink:title=" ">
<polygon fill="white" stroke="#666666" points="3489.25,-24.88 3326.25,-24.88 3326.25,-5.63 3489.25,-5.63 3489.25,-24.88"/>
<text text-anchor="middle" x="3407.75" y="-11.38" font-family="Helvetica,sans-Serif" font-size="10.00">Sandals/Tableau/LobattoIIIA2.hxx</text>
</a>
</g>
</g>
<!-- Node1&#45;&gt;Node28 -->
<g id="edge27_Node000001_Node000028" class="edge">
<title>Node1&#45;&gt;Node28</title>
<g id="a_edge27_Node000001_Node000028"><a xlink:title=" ">
<path fill="none" stroke="#63b8ff" d="M2551.04,-74.15C2678.17,-71.27 3027.5,-60.99 3316.75,-30.5 3325.68,-29.56 3335.07,-28.34 3344.3,-27.02"/>
<polygon fill="#63b8ff" stroke="#63b8ff" points="3344.54,-30.52 3353.92,-25.59 3343.51,-23.6 3344.54,-30.52"/>
</a>
</g>
</g>
<!-- Node29 -->
<g id="Node000029" class="node">
<title>Node29</title>
<g id="a_Node000029"><a xlink:href="_implicit_euler_8hxx.html" target="_top" xlink:title=" ">
<polygon fill="white" stroke="#666666" points="3630,-30.5 3507.5,-30.5 3507.5,0 3630,0 3630,-30.5"/>
<text text-anchor="start" x="3515.5" y="-17" font-family="Helvetica,sans-Serif" font-size="10.00">Sandals/Tableau/Implicit</text>
<text text-anchor="middle" x="3568.75" y="-5.75" font-family="Helvetica,sans-Serif" font-size="10.00">Euler.hxx</text>
</a>
</g>
</g>
<!-- Node1&#45;&gt;Node29 -->
<g id="edge28_Node000001_Node000029" class="edge">
<title>Node1&#45;&gt;Node29</title>
<g id="a_edge28_Node000001_Node000029"><a xlink:title=" ">
<path fill="none" stroke="#63b8ff" d="M2551.25,-75.63C2695.54,-76.54 3128.21,-75.14 3495.97,-30.7"/>
<polygon fill="#63b8ff" stroke="#63b8ff" points="3496.38,-34.18 3505.88,-29.49 3495.53,-27.23 3496.38,-34.18"/>
</a>
</g>
</g>
<!-- Node30 -->
<g id="Node000030" class="node">
<title>Node30</title>
<g id="a_Node000030"><a xlink:href="_m_t_e22_8hxx.html" target="_top" xlink:title=" ">
<polygon fill="white" stroke="#666666" points="3789.38,-24.88 3648.12,-24.88 3648.12,-5.63 3789.38,-5.63 3789.38,-24.88"/>
<text text-anchor="middle" x="3718.75" y="-11.38" font-family="Helvetica,sans-Serif" font-size="10.00">Sandals/Tableau/MTE22.hxx</text>
</a>
</g>
</g>
<!-- Node1&#45;&gt;Node30 -->
<g id="edge29_Node000001_Node000030" class="edge">
<title>Node1&#45;&gt;Node30</title>
<g id="a_edge29_Node000001_Node000030"><a xlink:title=" ">
<path fill="none" stroke="#63b8ff" d="M2551.24,-75.6C2709.9,-76.6 3219.92,-75.8 3638.75,-30.5 3646.57,-29.65 3654.77,-28.5 3662.83,-27.22"/>
<polygon fill="#63b8ff" stroke="#63b8ff" points="3663.28,-30.69 3672.56,-25.58 3662.12,-23.78 3663.28,-30.69"/>
</a>
</g>
</g>
<!-- Node31 -->
<g id="Node000031" class="node">
<title>Node31</title>
<g id="a_Node000031"><a xlink:href="_radau_i_i_a3_8hxx.html" target="_top" xlink:title=" ">
<polygon fill="white" stroke="#666666" points="3963.88,-24.88 3807.62,-24.88 3807.62,-5.63 3963.88,-5.63 3963.88,-24.88"/>
<text text-anchor="middle" x="3885.75" y="-11.38" font-family="Helvetica,sans-Serif" font-size="10.00">Sandals/Tableau/RadauIIA3.hxx</text>
</a>
</g>
</g>
<!-- Node1&#45;&gt;Node31 -->
<g id="edge30_Node000001_Node000031" class="edge">
<title>Node1&#45;&gt;Node31</title>
<g id="a_edge30_Node000001_Node000031"><a xlink:title=" ">
<path fill="none" stroke="#63b8ff" d="M2551.49,-74.27C2758.17,-70.57 3550.01,-55.05 3798.75,-30.5 3807.53,-29.63 3816.77,-28.43 3825.82,-27.1"/>
<polygon fill="#63b8ff" stroke="#63b8ff" points="3826.28,-30.57 3835.62,-25.57 3825.21,-23.65 3826.28,-30.57"/>
</a>
</g>
</g>
<!-- Node32 -->
<g id="Node000032" class="node">
<title>Node32</title>
<g id="a_Node000032"><a xlink:href="_radau_i_i_a5_8hxx.html" target="_top" xlink:title=" ">
<polygon fill="white" stroke="#666666" points="4137.88,-24.88 3981.62,-24.88 3981.62,-5.63 4137.88,-5.63 4137.88,-24.88"/>
<text text-anchor="middle" x="4059.75" y="-11.38" font-family="Helvetica,sans-Serif" font-size="10.00">Sandals/Tableau/RadauIIA5.hxx</text>
</a>
</g>
</g>
<!-- Node1&#45;&gt;Node32 -->
<g id="edge31_Node000001_Node000032" class="edge">
<title>Node1&#45;&gt;Node32</title>
<g id="a_edge31_Node000001_Node000032"><a xlink:title=" ">
<path fill="none" stroke="#63b8ff" d="M2551.23,-74.5C2774.29,-71.56 3687.76,-58.04 3972.75,-30.5 3981.74,-29.63 3991.21,-28.41 4000.45,-27.03"/>
<polygon fill="#63b8ff" stroke="#63b8ff" points="4000.74,-30.53 4010.08,-25.54 3999.66,-23.62 4000.74,-30.53"/>
</a>
</g>
</g>
<!-- Node33 -->
<g id="Node000033" class="node">
<title>Node33</title>
<g id="a_Node000033"><a xlink:href="_ralston2_8hxx.html" target="_top" xlink:title=" ">
<polygon fill="white" stroke="#666666" points="4305.12,-24.88 4156.38,-24.88 4156.38,-5.63 4305.12,-5.63 4305.12,-24.88"/>
<text text-anchor="middle" x="4230.75" y="-11.38" font-family="Helvetica,sans-Serif" font-size="10.00">Sandals/Tableau/Ralston2.hxx</text>
</a>
</g>
</g>
<!-- Node1&#45;&gt;Node33 -->
<g id="edge32_Node000001_Node000033" class="edge">
<title>Node1&#45;&gt;Node33</title>
<g id="a_edge32_Node000001_Node000033"><a xlink:title=" ">
<path fill="none" stroke="#63b8ff" d="M2551.39,-74.72C2790.55,-72.64 3825.63,-61.94 4146.75,-30.5 4155.25,-29.67 4164.18,-28.49 4172.92,-27.16"/>
<polygon fill="#63b8ff" stroke="#63b8ff" points="4173.44,-30.62 4182.76,-25.58 4172.33,-23.71 4173.44,-30.62"/>
</a>
</g>
</g>
<!-- Node34 -->
<g id="Node000034" class="node">
<title>Node34</title>
<g id="a_Node000034"><a xlink:href="_ralston3_8hxx.html" target="_top" xlink:title=" ">
<polygon fill="white" stroke="#666666" points="4472.12,-24.88 4323.38,-24.88 4323.38,-5.63 4472.12,-5.63 4472.12,-24.88"/>
<text text-anchor="middle" x="4397.75" y="-11.38" font-family="Helvetica,sans-Serif" font-size="10.00">Sandals/Tableau/Ralston3.hxx</text>
</a>
</g>
</g>
<!-- Node1&#45;&gt;Node34 -->
<g id="edge33_Node000001_Node000034" class="edge">
<title>Node1&#45;&gt;Node34</title>
<g id="a_edge33_Node000001_Node000034"><a xlink:title=" ">
<path fill="none" stroke="#63b8ff" d="M2551.29,-74.87C2804.68,-73.4 3957.66,-64.91 4313.75,-30.5 4322.25,-29.68 4331.18,-28.5 4339.93,-27.18"/>
<polygon fill="#63b8ff" stroke="#63b8ff" points="4340.44,-30.64 4349.76,-25.6 4339.33,-23.73 4340.44,-30.64"/>
</a>
</g>
</g>
<!-- Node35 -->
<g id="Node000035" class="node">
<title>Node35</title>
<g id="a_Node000035"><a xlink:href="_ralston4_8hxx.html" target="_top" xlink:title=" ">
<polygon fill="white" stroke="#666666" points="4639.12,-24.88 4490.38,-24.88 4490.38,-5.63 4639.12,-5.63 4639.12,-24.88"/>
<text text-anchor="middle" x="4564.75" y="-11.38" font-family="Helvetica,sans-Serif" font-size="10.00">Sandals/Tableau/Ralston4.hxx</text>
</a>
</g>
</g>
<!-- Node1&#45;&gt;Node35 -->
<g id="edge34_Node000001_Node000035" class="edge">
<title>Node1&#45;&gt;Node35</title>
<g id="a_edge34_Node000001_Node000035"><a xlink:title=" ">
<path fill="none" stroke="#63b8ff" d="M2551.38,-74.99C2818.73,-74.09 4089.68,-67.88 4480.75,-30.5 4489.45,-29.67 4498.6,-28.46 4507.54,-27.1"/>
<polygon fill="#63b8ff" stroke="#63b8ff" points="4507.89,-30.59 4517.2,-25.54 4506.77,-23.68 4507.89,-30.59"/>
</a>
</g>
</g>
<!-- Node36 -->
<g id="Node000036" class="node">
<title>Node36</title>
<g id="a_Node000036"><a xlink:href="_r_k4_8hxx.html" target="_top" xlink:title=" ">
<polygon fill="white" stroke="#666666" points="4786.38,-24.88 4657.12,-24.88 4657.12,-5.63 4786.38,-5.63 4786.38,-24.88"/>
<text text-anchor="middle" x="4721.75" y="-11.38" font-family="Helvetica,sans-Serif" font-size="10.00">Sandals/Tableau/RK4.hxx</text>
</a>
</g>
</g>
<!-- Node1&#45;&gt;Node36 -->
<g id="edge35_Node000001_Node000036" class="edge">
<title>Node1&#45;&gt;Node36</title>
<g id="a_edge35_Node000001_Node000036"><a xlink:title=" ">
<path fill="none" stroke="#63b8ff" d="M2551.39,-75.24C2831.98,-75.69 4222.05,-75.59 4647.75,-30.5 4655.01,-29.73 4662.62,-28.62 4670.08,-27.35"/>
<polygon fill="#63b8ff" stroke="#63b8ff" points="4670.52,-30.83 4679.73,-25.61 4669.27,-23.94 4670.52,-30.83"/>
</a>
</g>
</g>
<!-- Node37 -->
<g id="Node000037" class="node">
<title>Node37</title>
<g id="a_Node000037"><a xlink:href="_s_s_p_i_r_k33_8hxx.html" target="_top" xlink:title=" ">
<polygon fill="white" stroke="#666666" points="4962.62,-24.88 4804.88,-24.88 4804.88,-5.63 4962.62,-5.63 4962.62,-24.88"/>
<text text-anchor="middle" x="4883.75" y="-11.38" font-family="Helvetica,sans-Serif" font-size="10.00">Sandals/Tableau/SSPIRK33.hxx</text>
</a>
</g>
</g>
<!-- Node1&#45;&gt;Node37 -->
<g id="edge36_Node000001_Node000037" class="edge">
<title>Node1&#45;&gt;Node37</title>
<g id="a_edge36_Node000001_Node000037"><a xlink:title=" ">
<path fill="none" stroke="#63b8ff" d="M2551.41,-75.11C2843.29,-74.9 4338.27,-71.78 4795.75,-30.5 4804.96,-29.67 4814.65,-28.45 4824.12,-27.07"/>
<polygon fill="#63b8ff" stroke="#63b8ff" points="4824.64,-30.53 4833.99,-25.55 4823.58,-23.61 4824.64,-30.53"/>
</a>
</g>
</g>
<!-- Node38 -->
<g id="Node000038" class="node">
<title>Node38</title>
<g id="a_Node000038"><a xlink:href="_s_s_p_r_k22_8hxx.html" target="_top" xlink:title=" ">
<polygon fill="white" stroke="#666666" points="5135.12,-24.88 4980.38,-24.88 4980.38,-5.63 5135.12,-5.63 5135.12,-24.88"/>
<text text-anchor="middle" x="5057.75" y="-11.38" font-family="Helvetica,sans-Serif" font-size="10.00">Sandals/Tableau/SSPRK22.hxx</text>
</a>
</g>
</g>
<!-- Node1&#45;&gt;Node38 -->
<g id="edge37_Node000001_Node000038" class="edge">
<title>Node1&#45;&gt;Node38</title>
<g id="a_edge37_Node000001_Node000038"><a xlink:title=" ">
<path fill="none" stroke="#63b8ff" d="M2551.21,-75.22C2855.52,-75.64 4477.1,-75.7 4971.75,-30.5 4980.75,-29.68 4990.23,-28.46 4999.48,-27.08"/>
<polygon fill="#63b8ff" stroke="#63b8ff" points="4999.77,-30.58 5009.1,-25.57 4998.68,-23.67 4999.77,-30.58"/>
</a>
</g>
</g>
<!-- Node39 -->
<g id="Node000039" class="node">
<title>Node39</title>
<g id="a_Node000039"><a xlink:href="_s_s_p_r_k22star_8hxx.html" target="_top" xlink:title=" ">
<polygon fill="white" stroke="#666666" points="5324,-24.88 5153.5,-24.88 5153.5,-5.63 5324,-5.63 5324,-24.88"/>
<text text-anchor="middle" x="5238.75" y="-11.38" font-family="Helvetica,sans-Serif" font-size="10.00">Sandals/Tableau/SSPRK22star.hxx</text>
</a>
</g>
</g>
<!-- Node1&#45;&gt;Node39 -->
<g id="edge38_Node000001_Node000039" class="edge">
<title>Node1&#45;&gt;Node39</title>
<g id="a_edge38_Node000001_Node000039"><a xlink:title=" ">
<path fill="none" stroke="#63b8ff" d="M2551.27,-75.18C2867.91,-75.41 4612.43,-74.64 5143.75,-30.5 5154,-29.65 5164.83,-28.38 5175.36,-26.94"/>
<polygon fill="#63b8ff" stroke="#63b8ff" points="5175.73,-30.43 5185.13,-25.55 5174.74,-23.5 5175.73,-30.43"/>
</a>
</g>
</g>
<!-- Node40 -->
<g id="Node000040" class="node">
<title>Node40</title>
<g id="a_Node000040"><a xlink:href="_s_s_p_r_k33_8hxx.html" target="_top" xlink:title=" ">
<polygon fill="white" stroke="#666666" points="5497.12,-24.88 5342.38,-24.88 5342.38,-5.63 5497.12,-5.63 5497.12,-24.88"/>
<text text-anchor="middle" x="5419.75" y="-11.38" font-family="Helvetica,sans-Serif" font-size="10.00">Sandals/Tableau/SSPRK33.hxx</text>
</a>
</g>
</g>
<!-- Node1&#45;&gt;Node40 -->
<g id="edge39_Node000001_Node000040" class="edge">
<title>Node1&#45;&gt;Node40</title>
<g id="a_edge39_Node000001_Node000040"><a xlink:title=" ">
<path fill="none" stroke="#63b8ff" d="M2551.32,-75.34C2881.07,-76.61 4761.75,-81.49 5332.75,-30.5 5341.85,-29.69 5351.44,-28.48 5360.8,-27.1"/>
<polygon fill="#63b8ff" stroke="#63b8ff" points="5361.21,-30.58 5370.55,-25.59 5360.13,-23.66 5361.21,-30.58"/>
</a>
</g>
</g>
<!-- Node41 -->
<g id="Node000041" class="node">
<title>Node41</title>
<g id="a_Node000041"><a xlink:href="_s_s_p_r_k42_8hxx.html" target="_top" xlink:title=" ">
<polygon fill="white" stroke="#666666" points="5670.12,-24.88 5515.38,-24.88 5515.38,-5.63 5670.12,-5.63 5670.12,-24.88"/>
<text text-anchor="middle" x="5592.75" y="-11.38" font-family="Helvetica,sans-Serif" font-size="10.00">Sandals/Tableau/SSPRK42.hxx</text>
</a>
</g>
</g>
<!-- Node1&#45;&gt;Node41 -->
<g id="edge40_Node000001_Node000041" class="edge">
<title>Node1&#45;&gt;Node41</title>
<g id="a_edge40_Node000001_Node000041"><a xlink:title=" ">
<path fill="none" stroke="#63b8ff" d="M2551.44,-74.83C2918.25,-72.59 5200.11,-57.65 5505.75,-30.5 5514.85,-29.69 5524.45,-28.48 5533.8,-27.11"/>
<polygon fill="#63b8ff" stroke="#63b8ff" points="5534.21,-30.59 5543.55,-25.6 5533.13,-23.67 5534.21,-30.59"/>
</a>
</g>
</g>
<!-- Node42 -->
<g id="Node000042" class="node">
<title>Node42</title>
<g id="a_Node000042"><a xlink:href="_s_s_p_r_k43_8hxx.html" target="_top" xlink:title=" ">
<polygon fill="white" stroke="#666666" points="5843.12,-24.88 5688.38,-24.88 5688.38,-5.63 5843.12,-5.63 5843.12,-24.88"/>
<text text-anchor="middle" x="5765.75" y="-11.38" font-family="Helvetica,sans-Serif" font-size="10.00">Sandals/Tableau/SSPRK43.hxx</text>
</a>
</g>
</g>
<!-- Node1&#45;&gt;Node42 -->
<g id="edge41_Node000001_Node000042" class="edge">
<title>Node1&#45;&gt;Node42</title>
<g id="a_edge41_Node000001_Node000042"><a xlink:title=" ">
<path fill="none" stroke="#63b8ff" d="M2551.26,-74.87C2929.4,-72.9 5354.65,-59.16 5678.75,-30.5 5687.85,-29.69 5697.45,-28.49 5706.8,-27.12"/>
<polygon fill="#63b8ff" stroke="#63b8ff" points="5707.21,-30.59 5716.55,-25.6 5706.13,-23.68 5707.21,-30.59"/>
</a>
</g>
</g>
<!-- Node43 -->
<g id="Node000043" class="node">
<title>Node43</title>
<g id="a_Node000043"><a xlink:href="_s_s_p_r_k93_8hxx.html" target="_top" xlink:title=" ">
<polygon fill="white" stroke="#666666" points="6016.12,-24.88 5861.38,-24.88 5861.38,-5.63 6016.12,-5.63 6016.12,-24.88"/>
<text text-anchor="middle" x="5938.75" y="-11.38" font-family="Helvetica,sans-Serif" font-size="10.00">Sandals/Tableau/SSPRK93.hxx</text>
</a>
</g>
</g>
<!-- Node1&#45;&gt;Node43 -->
<g id="edge42_Node000001_Node000043" class="edge">
<title>Node1&#45;&gt;Node43</title>
<g id="a_edge42_Node000001_Node000043"><a xlink:title=" ">
<path fill="none" stroke="#63b8ff" d="M2551.45,-74.91C2941.83,-73.17 5509.27,-60.66 5851.75,-30.5 5860.96,-29.69 5870.67,-28.47 5880.14,-27.07"/>
<polygon fill="#63b8ff" stroke="#63b8ff" points="5880.66,-30.53 5890.01,-25.54 5879.59,-23.62 5880.66,-30.53"/>
</a>
</g>
</g>
<!-- Node44 -->
<g id="Node000044" class="node">
<title>Node44</title>
<g id="a_Node000044"><a xlink:href="_s_s_p_r_k104_8hxx.html" target="_top" xlink:title=" ">
<polygon fill="white" stroke="#666666" points="6193.75,-24.88 6033.75,-24.88 6033.75,-5.63 6193.75,-5.63 6193.75,-24.88"/>
<text text-anchor="middle" x="6113.75" y="-11.38" font-family="Helvetica,sans-Serif" font-size="10.00">Sandals/Tableau/SSPRK104.hxx</text>
</a>
</g>
</g>
<!-- Node1&#45;&gt;Node44 -->
<g id="edge43_Node000001_Node000044" class="edge">
<title>Node1&#45;&gt;Node44</title>
<g id="a_edge43_Node000001_Node000044"><a xlink:title=" ">
<path fill="none" stroke="#63b8ff" d="M2551.44,-74.94C2953.12,-73.35 5663.75,-61.52 6024.75,-30.5 6034.27,-29.68 6044.32,-28.44 6054.1,-27.03"/>
<polygon fill="#63b8ff" stroke="#63b8ff" points="6054.55,-30.5 6063.91,-25.53 6053.5,-23.58 6054.55,-30.5"/>
</a>
</g>
</g>
</g>
</svg>
