<?xml version="1.0" encoding="UTF-8" standalone="no"?>
<!DOCTYPE svg PUBLIC "-//W3C//DTD SVG 1.1//EN"
 "http://www.w3.org/Graphics/SVG/1.1/DTD/svg11.dtd">
<!-- Generated by graphviz version 12.2.1 (20241206.2353)
 -->
<!-- Title: include/Sandals.hh Pages: 1 -->
<svg width="6080pt" height="94pt"
 viewBox="0.00 0.00 6079.75 93.75" xmlns="http://www.w3.org/2000/svg" xmlns:xlink="http://www.w3.org/1999/xlink">
<g id="graph0" class="graph" transform="scale(1 1) rotate(0) translate(4 89.75)">
<title>include/Sandals.hh</title>
<!-- Node1 -->
<g id="Node000001" class="node">
<title>Node1</title>
<g id="a_Node000001"><a xlink:title=" ">
<polygon fill="#999999" stroke="#666666" points="2529,-85.75 2430.5,-85.75 2430.5,-66.5 2529,-66.5 2529,-85.75"/>
<text text-anchor="middle" x="2479.75" y="-72.25" font-family="Helvetica,sans-Serif" font-size="10.00">include/Sandals.hh</text>
</a>
</g>
</g>
<!-- Node2 -->
<g id="Node000002" class="node">
<title>Node2</title>
<g id="a_Node000002"><a xlink:title=" ">
<polygon fill="#e0e0e0" stroke="#999999" points="53.5,-24.88 0,-24.88 0,-5.63 53.5,-5.63 53.5,-24.88"/>
<text text-anchor="middle" x="26.75" y="-11.38" font-family="Helvetica,sans-Serif" font-size="10.00">iostream</text>
</a>
</g>
</g>
<!-- Node1&#45;&gt;Node2 -->
<g id="edge1_Node000001_Node000002" class="edge">
<title>Node1&#45;&gt;Node2</title>
<g id="a_edge1_Node000001_Node000002"><a xlink:title=" ">
<path fill="none" stroke="#63b8ff" d="M2430.01,-75.27C2106.09,-76.1 302.33,-78.49 62.75,-30.5 60.71,-30.09 58.64,-29.57 56.58,-28.98"/>
<polygon fill="#63b8ff" stroke="#63b8ff" points="57.82,-25.71 47.22,-25.75 55.53,-32.32 57.82,-25.71"/>
</a>
</g>
</g>
<!-- Node3 -->
<g id="Node000003" class="node">
<title>Node3</title>
<g id="a_Node000003"><a xlink:title=" ">
<polygon fill="#e0e0e0" stroke="#999999" points="111.75,-24.88 71.75,-24.88 71.75,-5.63 111.75,-5.63 111.75,-24.88"/>
<text text-anchor="middle" x="91.75" y="-11.38" font-family="Helvetica,sans-Serif" font-size="10.00">string</text>
</a>
</g>
</g>
<!-- Node1&#45;&gt;Node3 -->
<g id="edge2_Node000001_Node000003" class="edge">
<title>Node1&#45;&gt;Node3</title>
<g id="a_edge2_Node000001_Node000003"><a xlink:title=" ">
<path fill="none" stroke="#63b8ff" d="M2430.19,-74.8C2100.73,-72.55 236.85,-58.64 120.75,-30.5 119.58,-30.22 118.4,-29.88 117.22,-29.5"/>
<polygon fill="#63b8ff" stroke="#63b8ff" points="118.91,-26.41 108.33,-25.83 116.24,-32.88 118.91,-26.41"/>
</a>
</g>
</g>
<!-- Node4 -->
<g id="Node000004" class="node">
<title>Node4</title>
<g id="a_Node000004"><a xlink:title=" ">
<polygon fill="#e0e0e0" stroke="#999999" points="173.25,-24.88 130.25,-24.88 130.25,-5.63 173.25,-5.63 173.25,-24.88"/>
<text text-anchor="middle" x="151.75" y="-11.38" font-family="Helvetica,sans-Serif" font-size="10.00">cmath</text>
</a>
</g>
</g>
<!-- Node1&#45;&gt;Node4 -->
<g id="edge3_Node000001_Node000004" class="edge">
<title>Node1&#45;&gt;Node4</title>
<g id="a_edge3_Node000001_Node000004"><a xlink:title=" ">
<path fill="none" stroke="#63b8ff" d="M2430.17,-74.75C2105.7,-72.26 294.87,-57.16 181.75,-30.5 180.54,-30.22 179.33,-29.88 178.11,-29.5"/>
<polygon fill="#63b8ff" stroke="#63b8ff" points="179.47,-26.27 168.89,-25.81 176.88,-32.77 179.47,-26.27"/>
</a>
</g>
</g>
<!-- Node5 -->
<g id="Node000005" class="node">
<title>Node5</title>
<g id="a_Node000005"><a xlink:title=" ">
<polygon fill="#e0e0e0" stroke="#999999" points="234.25,-24.88 191.25,-24.88 191.25,-5.63 234.25,-5.63 234.25,-24.88"/>
<text text-anchor="middle" x="212.75" y="-11.38" font-family="Helvetica,sans-Serif" font-size="10.00">vector</text>
</a>
</g>
</g>
<!-- Node1&#45;&gt;Node5 -->
<g id="edge4_Node000001_Node000005" class="edge">
<title>Node1&#45;&gt;Node5</title>
<g id="a_edge4_Node000001_Node000005"><a xlink:title=" ">
<path fill="none" stroke="#63b8ff" d="M2430.02,-75.35C2120.42,-76.59 463.19,-80.82 243.75,-30.5 242.35,-30.18 240.94,-29.79 239.54,-29.35"/>
<polygon fill="#63b8ff" stroke="#63b8ff" points="241.03,-26.18 230.45,-25.8 238.49,-32.7 241.03,-26.18"/>
</a>
</g>
</g>
<!-- Node6 -->
<g id="Node000006" class="node">
<title>Node6</title>
<g id="a_Node000006"><a xlink:title=" ">
<polygon fill="#e0e0e0" stroke="#999999" points="287.12,-24.88 252.38,-24.88 252.38,-5.63 287.12,-5.63 287.12,-24.88"/>
<text text-anchor="middle" x="269.75" y="-11.38" font-family="Helvetica,sans-Serif" font-size="10.00">map</text>
</a>
</g>
</g>
<!-- Node1&#45;&gt;Node6 -->
<g id="edge5_Node000001_Node000006" class="edge">
<title>Node1&#45;&gt;Node6</title>
<g id="a_edge5_Node000001_Node000006"><a xlink:title=" ">
<path fill="none" stroke="#63b8ff" d="M2430.1,-74.78C2114.89,-72.51 402.18,-58.92 295.75,-30.5 295.08,-30.32 294.41,-30.12 293.74,-29.91"/>
<polygon fill="#63b8ff" stroke="#63b8ff" points="295.2,-26.72 284.64,-25.86 292.36,-33.12 295.2,-26.72"/>
</a>
</g>
</g>
<!-- Node7 -->
<g id="Node000007" class="node">
<title>Node7</title>
<g id="a_Node000007"><a xlink:title=" ">
<polygon fill="#e0e0e0" stroke="#999999" points="356.38,-24.88 305.12,-24.88 305.12,-5.63 356.38,-5.63 356.38,-24.88"/>
<text text-anchor="middle" x="330.75" y="-11.38" font-family="Helvetica,sans-Serif" font-size="10.00">memory</text>
</a>
</g>
</g>
<!-- Node1&#45;&gt;Node7 -->
<g id="edge6_Node000001_Node000007" class="edge">
<title>Node1&#45;&gt;Node7</title>
<g id="a_edge6_Node000001_Node000007"><a xlink:title=" ">
<path fill="none" stroke="#63b8ff" d="M2430.09,-75.19C2130.73,-75.43 572.46,-74.55 364.75,-30.5 362.98,-30.13 361.19,-29.66 359.41,-29.13"/>
<polygon fill="#63b8ff" stroke="#63b8ff" points="360.71,-25.88 350.12,-25.76 358.32,-32.46 360.71,-25.88"/>
</a>
</g>
</g>
<!-- Node8 -->
<g id="Node000008" class="node">
<title>Node8</title>
<g id="a_Node000008"><a xlink:title=" ">
<polygon fill="#e0e0e0" stroke="#999999" points="419.38,-24.88 374.12,-24.88 374.12,-5.63 419.38,-5.63 419.38,-24.88"/>
<text text-anchor="middle" x="396.75" y="-11.38" font-family="Helvetica,sans-Serif" font-size="10.00">chrono</text>
</a>
</g>
</g>
<!-- Node1&#45;&gt;Node8 -->
<g id="edge7_Node000001_Node000008" class="edge">
<title>Node1&#45;&gt;Node8</title>
<g id="a_edge7_Node000001_Node000008"><a xlink:title=" ">
<path fill="none" stroke="#63b8ff" d="M2430.16,-75.22C2136.29,-75.62 629.35,-75.43 428.75,-30.5 427.16,-30.14 425.54,-29.7 423.93,-29.2"/>
<polygon fill="#63b8ff" stroke="#63b8ff" points="425.59,-26.09 415,-25.78 423.09,-32.63 425.59,-26.09"/>
</a>
</g>
</g>
<!-- Node9 -->
<g id="Node000009" class="node">
<title>Node9</title>
<g id="a_Node000009"><a xlink:title=" ">
<polygon fill="#e0e0e0" stroke="#999999" points="509.88,-24.88 437.62,-24.88 437.62,-5.63 509.88,-5.63 509.88,-24.88"/>
<text text-anchor="middle" x="473.75" y="-11.38" font-family="Helvetica,sans-Serif" font-size="10.00">Eigen/Dense</text>
</a>
</g>
</g>
<!-- Node1&#45;&gt;Node9 -->
<g id="edge8_Node000001_Node000009" class="edge">
<title>Node1&#45;&gt;Node9</title>
<g id="a_edge8_Node000001_Node000009"><a xlink:title=" ">
<path fill="none" stroke="#63b8ff" d="M2430.09,-74.84C2143.99,-73.07 712.12,-62.64 518.75,-30.5 515.38,-29.94 511.92,-29.19 508.48,-28.31"/>
<polygon fill="#63b8ff" stroke="#63b8ff" points="509.76,-25.04 499.18,-25.64 507.83,-31.77 509.76,-25.04"/>
</a>
</g>
</g>
<!-- Node10 -->
<g id="Node000010" class="node">
<title>Node10</title>
<g id="a_Node000010"><a xlink:title=" ">
<polygon fill="#e0e0e0" stroke="#999999" points="593.88,-24.88 527.62,-24.88 527.62,-5.63 593.88,-5.63 593.88,-24.88"/>
<text text-anchor="middle" x="560.75" y="-11.38" font-family="Helvetica,sans-Serif" font-size="10.00">Optimist.hh</text>
</a>
</g>
</g>
<!-- Node1&#45;&gt;Node10 -->
<g id="edge9_Node000001_Node000010" class="edge">
<title>Node1&#45;&gt;Node10</title>
<g id="a_edge9_Node000001_Node000010"><a xlink:title=" ">
<path fill="none" stroke="#63b8ff" d="M2430.41,-74.84C2152.36,-73.14 787.1,-63.18 602.75,-30.5 599.9,-29.99 596.98,-29.33 594.07,-28.56"/>
<polygon fill="#63b8ff" stroke="#63b8ff" points="595.12,-25.23 584.54,-25.67 593.09,-31.92 595.12,-25.23"/>
</a>
</g>
</g>
<!-- Node11 -->
<g id="Node000011" class="node">
<title>Node11</title>
<g id="a_Node000011"><a xlink:href="_tic_toc_8hxx.html" target="_top" xlink:title=" ">
<polygon fill="white" stroke="#666666" points="713.88,-24.88 611.62,-24.88 611.62,-5.63 713.88,-5.63 713.88,-24.88"/>
<text text-anchor="middle" x="662.75" y="-11.38" font-family="Helvetica,sans-Serif" font-size="10.00">Sandals/TicToc.hxx</text>
</a>
</g>
</g>
<!-- Node1&#45;&gt;Node11 -->
<g id="edge10_Node000001_Node000011" class="edge">
<title>Node1&#45;&gt;Node11</title>
<g id="a_edge10_Node000001_Node000011"><a xlink:title=" ">
<path fill="none" stroke="#63b8ff" d="M2430.03,-75.26C2180.81,-75.7 1066,-75.13 722.75,-30.5 717.45,-29.81 711.95,-28.85 706.51,-27.75"/>
<polygon fill="#63b8ff" stroke="#63b8ff" points="707.53,-24.39 697.01,-25.66 706.02,-31.23 707.53,-24.39"/>
</a>
</g>
</g>
<!-- Node12 -->
<g id="Node000012" class="node">
<title>Node12</title>
<g id="a_Node000012"><a xlink:href="_implicit_8hxx.html" target="_top" xlink:title=" ">
<polygon fill="white" stroke="#666666" points="873.38,-24.88 732.12,-24.88 732.12,-5.63 873.38,-5.63 873.38,-24.88"/>
<text text-anchor="middle" x="802.75" y="-11.38" font-family="Helvetica,sans-Serif" font-size="10.00">Sandals/System/Implicit.hxx</text>
</a>
</g>
</g>
<!-- Node1&#45;&gt;Node12 -->
<g id="edge11_Node000001_Node000012" class="edge">
<title>Node1&#45;&gt;Node12</title>
<g id="a_edge11_Node000001_Node000012"><a xlink:title=" ">
<path fill="none" stroke="#63b8ff" d="M2430,-74.73C2194.9,-72.71 1193.68,-62.36 882.75,-30.5 874.83,-29.69 866.52,-28.54 858.37,-27.25"/>
<polygon fill="#63b8ff" stroke="#63b8ff" points="858.95,-23.8 848.51,-25.59 857.79,-30.7 858.95,-23.8"/>
</a>
</g>
</g>
<!-- Node13 -->
<g id="Node000013" class="node">
<title>Node13</title>
<g id="a_Node000013"><a xlink:href="_explicit_8hxx.html" target="_top" xlink:title=" ">
<polygon fill="white" stroke="#666666" points="1033.75,-24.88 891.75,-24.88 891.75,-5.63 1033.75,-5.63 1033.75,-24.88"/>
<text text-anchor="middle" x="962.75" y="-11.38" font-family="Helvetica,sans-Serif" font-size="10.00">Sandals/System/Explicit.hxx</text>
</a>
</g>
</g>
<!-- Node1&#45;&gt;Node13 -->
<g id="edge12_Node000001_Node000013" class="edge">
<title>Node1&#45;&gt;Node13</title>
<g id="a_edge12_Node000001_Node000013"><a xlink:title=" ">
<path fill="none" stroke="#63b8ff" d="M2430.3,-74.55C2210.48,-71.87 1320.49,-59.39 1042.75,-30.5 1034.74,-29.67 1026.33,-28.5 1018.09,-27.18"/>
<polygon fill="#63b8ff" stroke="#63b8ff" points="1018.95,-23.78 1008.51,-25.57 1017.79,-30.68 1018.95,-23.78"/>
</a>
</g>
</g>
<!-- Node14 -->
<g id="Node000014" class="node">
<title>Node14</title>
<g id="a_Node000014"><a xlink:href="_semi_explicit_8hxx.html" target="_top" xlink:title=" ">
<polygon fill="white" stroke="#666666" points="1216,-24.88 1051.5,-24.88 1051.5,-5.63 1216,-5.63 1216,-24.88"/>
<text text-anchor="middle" x="1133.75" y="-11.38" font-family="Helvetica,sans-Serif" font-size="10.00">Sandals/System/SemiExplicit.hxx</text>
</a>
</g>
</g>
<!-- Node1&#45;&gt;Node14 -->
<g id="edge13_Node000001_Node000014" class="edge">
<title>Node1&#45;&gt;Node14</title>
<g id="a_edge13_Node000001_Node000014"><a xlink:title=" ">
<path fill="none" stroke="#63b8ff" d="M2430.28,-75.49C2261.39,-76.29 1692.17,-75.25 1224.75,-30.5 1215.37,-29.6 1205.48,-28.36 1195.82,-26.99"/>
<polygon fill="#63b8ff" stroke="#63b8ff" points="1196.53,-23.55 1186.13,-25.54 1195.5,-30.48 1196.53,-23.55"/>
</a>
</g>
</g>
<!-- Node15 -->
<g id="Node000015" class="node">
<title>Node15</title>
<g id="a_Node000015"><a xlink:href="_linear_8hxx.html" target="_top" xlink:title=" ">
<polygon fill="white" stroke="#666666" points="1369.38,-24.88 1234.12,-24.88 1234.12,-5.63 1369.38,-5.63 1369.38,-24.88"/>
<text text-anchor="middle" x="1301.75" y="-11.38" font-family="Helvetica,sans-Serif" font-size="10.00">Sandals/System/Linear.hxx</text>
</a>
</g>
</g>
<!-- Node1&#45;&gt;Node15 -->
<g id="edge14_Node000001_Node000015" class="edge">
<title>Node1&#45;&gt;Node15</title>
<g id="a_edge14_Node000001_Node000015"><a xlink:title=" ">
<path fill="none" stroke="#63b8ff" d="M2430.18,-75.62C2274.66,-76.65 1782.73,-75.83 1378.75,-30.5 1371.31,-29.66 1363.5,-28.53 1355.83,-27.26"/>
<polygon fill="#63b8ff" stroke="#63b8ff" points="1356.7,-23.86 1346.25,-25.59 1355.5,-30.76 1356.7,-23.86"/>
</a>
</g>
</g>
<!-- Node16 -->
<g id="Node000016" class="node">
<title>Node16</title>
<g id="a_Node000016"><a xlink:href="_tableau_8hxx.html" target="_top" xlink:title=" ">
<polygon fill="white" stroke="#666666" points="1494.12,-24.88 1387.38,-24.88 1387.38,-5.63 1494.12,-5.63 1494.12,-24.88"/>
<text text-anchor="middle" x="1440.75" y="-11.38" font-family="Helvetica,sans-Serif" font-size="10.00">Sandals/Tableau.hxx</text>
</a>
</g>
</g>
<!-- Node1&#45;&gt;Node16 -->
<g id="edge15_Node000001_Node000016" class="edge">
<title>Node1&#45;&gt;Node16</title>
<g id="a_edge15_Node000001_Node000016"><a xlink:title=" ">
<path fill="none" stroke="#63b8ff" d="M2430.21,-74.02C2257.95,-69.99 1685.72,-55.04 1503.75,-30.5 1498.34,-29.77 1492.71,-28.8 1487.14,-27.71"/>
<polygon fill="#63b8ff" stroke="#63b8ff" points="1487.86,-24.29 1477.35,-25.66 1486.42,-31.14 1487.86,-24.29"/>
</a>
</g>
</g>
<!-- Node17 -->
<g id="Node000017" class="node">
<title>Node17</title>
<g id="a_Node000017"><a xlink:href="_solution_8hxx.html" target="_top" xlink:title=" ">
<polygon fill="white" stroke="#666666" points="1620.88,-24.88 1512.62,-24.88 1512.62,-5.63 1620.88,-5.63 1620.88,-24.88"/>
<text text-anchor="middle" x="1566.75" y="-11.38" font-family="Helvetica,sans-Serif" font-size="10.00">Sandals/Solution.hxx</text>
</a>
</g>
</g>
<!-- Node1&#45;&gt;Node17 -->
<g id="edge16_Node000001_Node000017" class="edge">
<title>Node1&#45;&gt;Node17</title>
<g id="a_edge16_Node000001_Node000017"><a xlink:title=" ">
<path fill="none" stroke="#63b8ff" d="M2430.19,-75.39C2299.06,-75.48 1932.37,-71.71 1630.75,-30.5 1625.18,-29.74 1619.38,-28.74 1613.65,-27.63"/>
<polygon fill="#63b8ff" stroke="#63b8ff" points="1614.76,-24.28 1604.26,-25.68 1613.34,-31.14 1614.76,-24.28"/>
</a>
</g>
</g>
<!-- Node18 -->
<g id="Node000018" class="node">
<title>Node18</title>
<g id="a_Node000018"><a xlink:href="_runge_kutta_8hxx.html" target="_top" xlink:title=" ">
<polygon fill="white" stroke="#666666" points="1764.12,-24.88 1639.38,-24.88 1639.38,-5.63 1764.12,-5.63 1764.12,-24.88"/>
<text text-anchor="middle" x="1701.75" y="-11.38" font-family="Helvetica,sans-Serif" font-size="10.00">Sandals/RungeKutta.hxx</text>
</a>
</g>
</g>
<!-- Node1&#45;&gt;Node18 -->
<g id="edge17_Node000001_Node000018" class="edge">
<title>Node1&#45;&gt;Node18</title>
<g id="a_edge17_Node000001_Node000018"><a xlink:title=" ">
<path fill="none" stroke="#63b8ff" d="M2430.24,-74.3C2314.65,-71.86 2018.16,-62.72 1772.75,-30.5 1766.36,-29.66 1759.69,-28.59 1753.09,-27.41"/>
<polygon fill="#63b8ff" stroke="#63b8ff" points="1754.11,-24.04 1743.63,-25.62 1752.81,-30.91 1754.11,-24.04"/>
</a>
</g>
</g>
<!-- Node19 -->
<g id="Node000019" class="node">
<title>Node19</title>
<g id="a_Node000019"><a xlink:href="_chebyshev51_8hxx.html" target="_top" xlink:title=" ">
<polygon fill="white" stroke="#666666" points="1951.62,-24.88 1781.88,-24.88 1781.88,-5.63 1951.62,-5.63 1951.62,-24.88"/>
<text text-anchor="middle" x="1866.75" y="-11.38" font-family="Helvetica,sans-Serif" font-size="10.00">Sandals/Tableau/Chebyshev51.hxx</text>
</a>
</g>
</g>
<!-- Node1&#45;&gt;Node19 -->
<g id="edge18_Node000001_Node000019" class="edge">
<title>Node1&#45;&gt;Node19</title>
<g id="a_edge18_Node000001_Node000019"><a xlink:title=" ">
<path fill="none" stroke="#63b8ff" d="M2430.26,-71.94C2337.83,-65.75 2132.73,-50.91 1960.75,-30.5 1952.11,-29.47 1943.04,-28.27 1934.08,-27"/>
<polygon fill="#63b8ff" stroke="#63b8ff" points="1934.73,-23.55 1924.34,-25.58 1933.73,-30.48 1934.73,-23.55"/>
</a>
</g>
</g>
<!-- Node20 -->
<g id="Node000020" class="node">
<title>Node20</title>
<g id="a_Node000020"><a xlink:href="_explicit_euler_8hxx.html" target="_top" xlink:title=" ">
<polygon fill="white" stroke="#666666" points="2093.38,-30.5 1970.12,-30.5 1970.12,0 2093.38,0 2093.38,-30.5"/>
<text text-anchor="start" x="1978.12" y="-17" font-family="Helvetica,sans-Serif" font-size="10.00">Sandals/Tableau/Explicit</text>
<text text-anchor="middle" x="2031.75" y="-5.75" font-family="Helvetica,sans-Serif" font-size="10.00">Euler.hxx</text>
</a>
</g>
</g>
<!-- Node1&#45;&gt;Node20 -->
<g id="edge19_Node000001_Node000020" class="edge">
<title>Node1&#45;&gt;Node20</title>
<g id="a_edge19_Node000001_Node000020"><a xlink:title=" ">
<path fill="none" stroke="#63b8ff" d="M2430.17,-70.54C2360.04,-63.77 2227.63,-49.95 2104.75,-30.73"/>
<polygon fill="#63b8ff" stroke="#63b8ff" points="2105.57,-27.32 2095.15,-29.21 2104.48,-34.23 2105.57,-27.32"/>
</a>
</g>
</g>
<!-- Node21 -->
<g id="Node000021" class="node">
<title>Node21</title>
<g id="a_Node000021"><a xlink:href="_fehlberg45_8hxx.html" target="_top" xlink:title=" ">
<polygon fill="white" stroke="#666666" points="2269.62,-24.88 2111.88,-24.88 2111.88,-5.63 2269.62,-5.63 2269.62,-24.88"/>
<text text-anchor="middle" x="2190.75" y="-11.38" font-family="Helvetica,sans-Serif" font-size="10.00">Sandals/Tableau/Fehlberg45.hxx</text>
</a>
</g>
</g>
<!-- Node1&#45;&gt;Node21 -->
<g id="edge20_Node000001_Node000021" class="edge">
<title>Node1&#45;&gt;Node21</title>
<g id="a_edge20_Node000001_Node000021"><a xlink:title=" ">
<path fill="none" stroke="#63b8ff" d="M2435.23,-66.05C2384.42,-55.7 2301.27,-38.76 2246.27,-27.56"/>
<polygon fill="#63b8ff" stroke="#63b8ff" points="2247.3,-24.2 2236.81,-25.63 2245.91,-31.06 2247.3,-24.2"/>
</a>
</g>
</g>
<!-- Node22 -->
<g id="Node000022" class="node">
<title>Node22</title>
<g id="a_Node000022"><a xlink:href="_gauss_legendre2_8hxx.html" target="_top" xlink:title=" ">
<polygon fill="white" stroke="#666666" points="2471.38,-24.88 2288.12,-24.88 2288.12,-5.63 2471.38,-5.63 2471.38,-24.88"/>
<text text-anchor="middle" x="2379.75" y="-11.38" font-family="Helvetica,sans-Serif" font-size="10.00">Sandals/Tableau/GaussLegendre2.hxx</text>
</a>
</g>
</g>
<!-- Node1&#45;&gt;Node22 -->
<g id="edge21_Node000001_Node000022" class="edge">
<title>Node1&#45;&gt;Node22</title>
<g id="a_edge21_Node000001_Node000022"><a xlink:title=" ">
<path fill="none" stroke="#63b8ff" d="M2464.56,-66.18C2448.7,-56.85 2423.57,-42.05 2404.77,-30.98"/>
<polygon fill="#63b8ff" stroke="#63b8ff" points="2406.78,-28.1 2396.39,-26.04 2403.23,-34.13 2406.78,-28.1"/>
</a>
</g>
</g>
<!-- Node23 -->
<g id="Node000023" class="node">
<title>Node23</title>
<g id="a_Node000023"><a xlink:href="_gauss_legendre4_8hxx.html" target="_top" xlink:title=" ">
<polygon fill="white" stroke="#666666" points="2672.38,-24.88 2489.12,-24.88 2489.12,-5.63 2672.38,-5.63 2672.38,-24.88"/>
<text text-anchor="middle" x="2580.75" y="-11.38" font-family="Helvetica,sans-Serif" font-size="10.00">Sandals/Tableau/GaussLegendre4.hxx</text>
</a>
</g>
</g>
<!-- Node1&#45;&gt;Node23 -->
<g id="edge22_Node000001_Node000023" class="edge">
<title>Node1&#45;&gt;Node23</title>
<g id="a_edge22_Node000001_Node000023"><a xlink:title=" ">
<path fill="none" stroke="#63b8ff" d="M2495.09,-66.18C2511.11,-56.85 2536.49,-42.05 2555.48,-30.98"/>
<polygon fill="#63b8ff" stroke="#63b8ff" points="2557.08,-34.1 2563.96,-26.04 2553.56,-28.05 2557.08,-34.1"/>
</a>
</g>
</g>
<!-- Node24 -->
<g id="Node000024" class="node">
<title>Node24</title>
<g id="a_Node000024"><a xlink:href="_gauss_legendre6_8hxx.html" target="_top" xlink:title=" ">
<polygon fill="white" stroke="#666666" points="2873.38,-24.88 2690.12,-24.88 2690.12,-5.63 2873.38,-5.63 2873.38,-24.88"/>
<text text-anchor="middle" x="2781.75" y="-11.38" font-family="Helvetica,sans-Serif" font-size="10.00">Sandals/Tableau/GaussLegendre6.hxx</text>
</a>
</g>
</g>
<!-- Node1&#45;&gt;Node24 -->
<g id="edge23_Node000001_Node000024" class="edge">
<title>Node1&#45;&gt;Node24</title>
<g id="a_edge23_Node000001_Node000024"><a xlink:title=" ">
<path fill="none" stroke="#63b8ff" d="M2526.28,-66.05C2579.48,-55.68 2666.63,-38.69 2724.09,-27.49"/>
<polygon fill="#63b8ff" stroke="#63b8ff" points="2724.54,-30.97 2733.69,-25.62 2723.2,-24.1 2724.54,-30.97"/>
</a>
</g>
</g>
<!-- Node25 -->
<g id="Node000025" class="node">
<title>Node25</title>
<g id="a_Node000025"><a xlink:href="_heun2_8hxx.html" target="_top" xlink:title=" ">
<polygon fill="white" stroke="#666666" points="3029.88,-24.88 2891.62,-24.88 2891.62,-5.63 3029.88,-5.63 3029.88,-24.88"/>
<text text-anchor="middle" x="2960.75" y="-11.38" font-family="Helvetica,sans-Serif" font-size="10.00">Sandals/Tableau/Heun2.hxx</text>
</a>
</g>
</g>
<!-- Node1&#45;&gt;Node25 -->
<g id="edge24_Node000001_Node000025" class="edge">
<title>Node1&#45;&gt;Node25</title>
<g id="a_edge24_Node000001_Node000025"><a xlink:title=" ">
<path fill="none" stroke="#63b8ff" d="M2529.21,-70.78C2605.36,-63.83 2755.81,-49.1 2882.75,-30.5 2889.29,-29.54 2896.13,-28.44 2902.92,-27.28"/>
<polygon fill="#63b8ff" stroke="#63b8ff" points="2903.49,-30.74 2912.74,-25.56 2902.29,-23.84 2903.49,-30.74"/>
</a>
</g>
</g>
<!-- Node26 -->
<g id="Node000026" class="node">
<title>Node26</title>
<g id="a_Node000026"><a xlink:href="_heun3_8hxx.html" target="_top" xlink:title=" ">
<polygon fill="white" stroke="#666666" points="3185.88,-24.88 3047.62,-24.88 3047.62,-5.63 3185.88,-5.63 3185.88,-24.88"/>
<text text-anchor="middle" x="3116.75" y="-11.38" font-family="Helvetica,sans-Serif" font-size="10.00">Sandals/Tableau/Heun3.hxx</text>
</a>
</g>
</g>
<!-- Node1&#45;&gt;Node26 -->
<g id="edge25_Node000001_Node000026" class="edge">
<title>Node1&#45;&gt;Node26</title>
<g id="a_edge25_Node000001_Node000026"><a xlink:title=" ">
<path fill="none" stroke="#63b8ff" d="M2529.28,-72.85C2627.02,-68 2851.47,-55.02 3038.75,-30.5 3045.74,-29.59 3053.05,-28.47 3060.27,-27.26"/>
<polygon fill="#63b8ff" stroke="#63b8ff" points="3060.76,-30.73 3070.01,-25.57 3059.56,-23.83 3060.76,-30.73"/>
</a>
</g>
</g>
<!-- Node27 -->
<g id="Node000027" class="node">
<title>Node27</title>
<g id="a_Node000027"><a xlink:href="_lobatto_i_i_i_a2_8hxx.html" target="_top" xlink:title=" ">
<polygon fill="white" stroke="#666666" points="3367.25,-24.88 3204.25,-24.88 3204.25,-5.63 3367.25,-5.63 3367.25,-24.88"/>
<text text-anchor="middle" x="3285.75" y="-11.38" font-family="Helvetica,sans-Serif" font-size="10.00">Sandals/Tableau/LobattoIIIA2.hxx</text>
</a>
</g>
</g>
<!-- Node1&#45;&gt;Node27 -->
<g id="edge26_Node000001_Node000027" class="edge">
<title>Node1&#45;&gt;Node27</title>
<g id="a_edge26_Node000001_Node000027"><a xlink:title=" ">
<path fill="none" stroke="#63b8ff" d="M2529.3,-73.62C2645.7,-69.74 2945.62,-57.72 3194.75,-30.5 3203.47,-29.55 3212.63,-28.35 3221.64,-27.05"/>
<polygon fill="#63b8ff" stroke="#63b8ff" points="3222.06,-30.53 3231.43,-25.6 3221.03,-23.61 3222.06,-30.53"/>
</a>
</g>
</g>
<!-- Node28 -->
<g id="Node000028" class="node">
<title>Node28</title>
<g id="a_Node000028"><a xlink:href="_implicit_euler_8hxx.html" target="_top" xlink:title=" ">
<polygon fill="white" stroke="#666666" points="3508,-30.5 3385.5,-30.5 3385.5,0 3508,0 3508,-30.5"/>
<text text-anchor="start" x="3393.5" y="-17" font-family="Helvetica,sans-Serif" font-size="10.00">Sandals/Tableau/Implicit</text>
<text text-anchor="middle" x="3446.75" y="-5.75" font-family="Helvetica,sans-Serif" font-size="10.00">Euler.hxx</text>
</a>
</g>
</g>
<!-- Node1&#45;&gt;Node28 -->
<g id="edge27_Node000001_Node000028" class="edge">
<title>Node1&#45;&gt;Node28</title>
<g id="a_edge27_Node000001_Node000028"><a xlink:title=" ">
<path fill="none" stroke="#63b8ff" d="M2529.08,-75.28C2663.34,-75.15 3046.62,-71.06 3374.24,-30.68"/>
<polygon fill="#63b8ff" stroke="#63b8ff" points="3374.39,-34.19 3383.87,-29.48 3373.52,-27.24 3374.39,-34.19"/>
</a>
</g>
</g>
<!-- Node29 -->
<g id="Node000029" class="node">
<title>Node29</title>
<g id="a_Node000029"><a xlink:href="_m_t_e22_8hxx.html" target="_top" xlink:title=" ">
<polygon fill="white" stroke="#666666" points="3667.38,-24.88 3526.12,-24.88 3526.12,-5.63 3667.38,-5.63 3667.38,-24.88"/>
<text text-anchor="middle" x="3596.75" y="-11.38" font-family="Helvetica,sans-Serif" font-size="10.00">Sandals/Tableau/MTE22.hxx</text>
</a>
</g>
</g>
<!-- Node1&#45;&gt;Node29 -->
<g id="edge28_Node000001_Node000029" class="edge">
<title>Node1&#45;&gt;Node29</title>
<g id="a_edge28_Node000001_Node000029"><a xlink:title=" ">
<path fill="none" stroke="#63b8ff" d="M2529.31,-75.33C2678.86,-75.45 3138.58,-72.13 3516.75,-30.5 3524.47,-29.65 3532.57,-28.51 3540.53,-27.24"/>
<polygon fill="#63b8ff" stroke="#63b8ff" points="3540.86,-30.73 3550.14,-25.62 3539.7,-23.83 3540.86,-30.73"/>
</a>
</g>
</g>
<!-- Node30 -->
<g id="Node000030" class="node">
<title>Node30</title>
<g id="a_Node000030"><a xlink:href="_radau_i_i_a3_8hxx.html" target="_top" xlink:title=" ">
<polygon fill="white" stroke="#666666" points="3841.88,-24.88 3685.62,-24.88 3685.62,-5.63 3841.88,-5.63 3841.88,-24.88"/>
<text text-anchor="middle" x="3763.75" y="-11.38" font-family="Helvetica,sans-Serif" font-size="10.00">Sandals/Tableau/RadauIIA3.hxx</text>
</a>
</g>
</g>
<!-- Node1&#45;&gt;Node30 -->
<g id="edge29_Node000001_Node000030" class="edge">
<title>Node1&#45;&gt;Node30</title>
<g id="a_edge29_Node000001_Node000030"><a xlink:title=" ">
<path fill="none" stroke="#63b8ff" d="M2529.21,-75.49C2693.11,-76.24 3233.16,-74.92 3676.75,-30.5 3685.53,-29.62 3694.77,-28.41 3703.81,-27.07"/>
<polygon fill="#63b8ff" stroke="#63b8ff" points="3704.28,-30.54 3713.62,-25.55 3703.2,-23.63 3704.28,-30.54"/>
</a>
</g>
</g>
<!-- Node31 -->
<g id="Node000031" class="node">
<title>Node31</title>
<g id="a_Node000031"><a xlink:href="_radau_i_i_a5_8hxx.html" target="_top" xlink:title=" ">
<polygon fill="white" stroke="#666666" points="4015.88,-24.88 3859.62,-24.88 3859.62,-5.63 4015.88,-5.63 4015.88,-24.88"/>
<text text-anchor="middle" x="3937.75" y="-11.38" font-family="Helvetica,sans-Serif" font-size="10.00">Sandals/Tableau/RadauIIA5.hxx</text>
</a>
</g>
</g>
<!-- Node1&#45;&gt;Node31 -->
<g id="edge30_Node000001_Node000031" class="edge">
<title>Node1&#45;&gt;Node31</title>
<g id="a_edge30_Node000001_Node000031"><a xlink:title=" ">
<path fill="none" stroke="#63b8ff" d="M2529.41,-74.37C2743.24,-71.01 3586.62,-56.32 3850.75,-30.5 3859.53,-29.64 3868.77,-28.45 3877.82,-27.11"/>
<polygon fill="#63b8ff" stroke="#63b8ff" points="3878.28,-30.58 3887.63,-25.59 3877.21,-23.66 3878.28,-30.58"/>
</a>
</g>
</g>
<!-- Node32 -->
<g id="Node000032" class="node">
<title>Node32</title>
<g id="a_Node000032"><a xlink:href="_ralston2_8hxx.html" target="_top" xlink:title=" ">
<polygon fill="white" stroke="#666666" points="4183.12,-24.88 4034.38,-24.88 4034.38,-5.63 4183.12,-5.63 4183.12,-24.88"/>
<text text-anchor="middle" x="4108.75" y="-11.38" font-family="Helvetica,sans-Serif" font-size="10.00">Sandals/Tableau/Ralston2.hxx</text>
</a>
</g>
</g>
<!-- Node1&#45;&gt;Node32 -->
<g id="edge31_Node000001_Node000032" class="edge">
<title>Node1&#45;&gt;Node32</title>
<g id="a_edge31_Node000001_Node000032"><a xlink:title=" ">
<path fill="none" stroke="#63b8ff" d="M2529.4,-74.62C2759.59,-72.15 3724.5,-60.16 4024.75,-30.5 4033.25,-29.66 4042.18,-28.48 4050.92,-27.14"/>
<polygon fill="#63b8ff" stroke="#63b8ff" points="4051.44,-30.61 4060.76,-25.56 4050.33,-23.69 4051.44,-30.61"/>
</a>
</g>
</g>
<!-- Node33 -->
<g id="Node000033" class="node">
<title>Node33</title>
<g id="a_Node000033"><a xlink:href="_ralston3_8hxx.html" target="_top" xlink:title=" ">
<polygon fill="white" stroke="#666666" points="4350.12,-24.88 4201.38,-24.88 4201.38,-5.63 4350.12,-5.63 4350.12,-24.88"/>
<text text-anchor="middle" x="4275.75" y="-11.38" font-family="Helvetica,sans-Serif" font-size="10.00">Sandals/Tableau/Ralston3.hxx</text>
</a>
</g>
</g>
<!-- Node1&#45;&gt;Node33 -->
<g id="edge32_Node000001_Node000033" class="edge">
<title>Node1&#45;&gt;Node33</title>
<g id="a_edge32_Node000001_Node000033"><a xlink:title=" ">
<path fill="none" stroke="#63b8ff" d="M2529.36,-74.78C2774.34,-72.95 3856.62,-63.13 4191.75,-30.5 4200.25,-29.67 4209.18,-28.49 4217.92,-27.17"/>
<polygon fill="#63b8ff" stroke="#63b8ff" points="4218.44,-30.63 4227.76,-25.59 4217.33,-23.72 4218.44,-30.63"/>
</a>
</g>
</g>
<!-- Node34 -->
<g id="Node000034" class="node">
<title>Node34</title>
<g id="a_Node000034"><a xlink:href="_ralston4_8hxx.html" target="_top" xlink:title=" ">
<polygon fill="white" stroke="#666666" points="4517.12,-24.88 4368.38,-24.88 4368.38,-5.63 4517.12,-5.63 4517.12,-24.88"/>
<text text-anchor="middle" x="4442.75" y="-11.38" font-family="Helvetica,sans-Serif" font-size="10.00">Sandals/Tableau/Ralston4.hxx</text>
</a>
</g>
</g>
<!-- Node1&#45;&gt;Node34 -->
<g id="edge33_Node000001_Node000034" class="edge">
<title>Node1&#45;&gt;Node34</title>
<g id="a_edge33_Node000001_Node000034"><a xlink:title=" ">
<path fill="none" stroke="#63b8ff" d="M2529.4,-74.92C2788.62,-73.68 3988.67,-66.1 4358.75,-30.5 4367.25,-29.68 4376.18,-28.51 4384.93,-27.18"/>
<polygon fill="#63b8ff" stroke="#63b8ff" points="4385.44,-30.64 4394.76,-25.61 4384.33,-23.73 4385.44,-30.64"/>
</a>
</g>
</g>
<!-- Node35 -->
<g id="Node000035" class="node">
<title>Node35</title>
<g id="a_Node000035"><a xlink:href="_r_k4_8hxx.html" target="_top" xlink:title=" ">
<polygon fill="white" stroke="#666666" points="4664.38,-24.88 4535.12,-24.88 4535.12,-5.63 4664.38,-5.63 4664.38,-24.88"/>
<text text-anchor="middle" x="4599.75" y="-11.38" font-family="Helvetica,sans-Serif" font-size="10.00">Sandals/Tableau/RK4.hxx</text>
</a>
</g>
</g>
<!-- Node1&#45;&gt;Node35 -->
<g id="edge34_Node000001_Node000035" class="edge">
<title>Node1&#45;&gt;Node35</title>
<g id="a_edge34_Node000001_Node000035"><a xlink:title=" ">
<path fill="none" stroke="#63b8ff" d="M2529.28,-75.18C2801.8,-75.29 4121,-73.57 4525.75,-30.5 4533.01,-29.73 4540.61,-28.62 4548.08,-27.35"/>
<polygon fill="#63b8ff" stroke="#63b8ff" points="4548.52,-30.83 4557.73,-25.6 4547.27,-23.94 4548.52,-30.83"/>
</a>
</g>
</g>
<!-- Node36 -->
<g id="Node000036" class="node">
<title>Node36</title>
<g id="a_Node000036"><a xlink:href="_s_s_p_i_r_k33_8hxx.html" target="_top" xlink:title=" ">
<polygon fill="white" stroke="#666666" points="4840.62,-24.88 4682.88,-24.88 4682.88,-5.63 4840.62,-5.63 4840.62,-24.88"/>
<text text-anchor="middle" x="4761.75" y="-11.38" font-family="Helvetica,sans-Serif" font-size="10.00">Sandals/Tableau/SSPIRK33.hxx</text>
</a>
</g>
</g>
<!-- Node1&#45;&gt;Node36 -->
<g id="edge35_Node000001_Node000036" class="edge">
<title>Node1&#45;&gt;Node36</title>
<g id="a_edge35_Node000001_Node000036"><a xlink:title=" ">
<path fill="none" stroke="#63b8ff" d="M2529.08,-75.06C2812.6,-74.56 4237.17,-70.09 4673.75,-30.5 4682.95,-29.67 4692.65,-28.44 4702.12,-27.06"/>
<polygon fill="#63b8ff" stroke="#63b8ff" points="4702.64,-30.52 4711.99,-25.54 4701.58,-23.6 4702.64,-30.52"/>
</a>
</g>
</g>
<!-- Node37 -->
<g id="Node000037" class="node">
<title>Node37</title>
<g id="a_Node000037"><a xlink:href="_s_s_p_r_k22_8hxx.html" target="_top" xlink:title=" ">
<polygon fill="white" stroke="#666666" points="5013.12,-24.88 4858.38,-24.88 4858.38,-5.63 5013.12,-5.63 5013.12,-24.88"/>
<text text-anchor="middle" x="4935.75" y="-11.38" font-family="Helvetica,sans-Serif" font-size="10.00">Sandals/Tableau/SSPRK22.hxx</text>
</a>
</g>
</g>
<!-- Node1&#45;&gt;Node37 -->
<g id="edge36_Node000001_Node000037" class="edge">
<title>Node1&#45;&gt;Node37</title>
<g id="a_edge36_Node000001_Node000037"><a xlink:title=" ">
<path fill="none" stroke="#63b8ff" d="M2529.12,-75.17C2825.91,-75.32 4376.16,-73.96 4849.75,-30.5 4858.75,-29.67 4868.23,-28.46 4877.48,-27.08"/>
<polygon fill="#63b8ff" stroke="#63b8ff" points="4877.77,-30.58 4887.1,-25.57 4876.68,-23.66 4877.77,-30.58"/>
</a>
</g>
</g>
<!-- Node38 -->
<g id="Node000038" class="node">
<title>Node38</title>
<g id="a_Node000038"><a xlink:href="_s_s_p_r_k22star_8hxx.html" target="_top" xlink:title=" ">
<polygon fill="white" stroke="#666666" points="5202,-24.88 5031.5,-24.88 5031.5,-5.63 5202,-5.63 5202,-24.88"/>
<text text-anchor="middle" x="5116.75" y="-11.38" font-family="Helvetica,sans-Serif" font-size="10.00">Sandals/Tableau/SSPRK22star.hxx</text>
</a>
</g>
</g>
<!-- Node1&#45;&gt;Node38 -->
<g id="edge37_Node000001_Node000038" class="edge">
<title>Node1&#45;&gt;Node38</title>
<g id="a_edge37_Node000001_Node000038"><a xlink:title=" ">
<path fill="none" stroke="#63b8ff" d="M2529.38,-75.14C2839.27,-75.13 4511.65,-73.05 5021.75,-30.5 5032,-29.64 5042.83,-28.37 5053.36,-26.94"/>
<polygon fill="#63b8ff" stroke="#63b8ff" points="5053.73,-30.42 5063.13,-25.54 5052.74,-23.49 5053.73,-30.42"/>
</a>
</g>
</g>
<!-- Node39 -->
<g id="Node000039" class="node">
<title>Node39</title>
<g id="a_Node000039"><a xlink:href="_s_s_p_r_k33_8hxx.html" target="_top" xlink:title=" ">
<polygon fill="white" stroke="#666666" points="5375.12,-24.88 5220.38,-24.88 5220.38,-5.63 5375.12,-5.63 5375.12,-24.88"/>
<text text-anchor="middle" x="5297.75" y="-11.38" font-family="Helvetica,sans-Serif" font-size="10.00">Sandals/Tableau/SSPRK33.hxx</text>
</a>
</g>
</g>
<!-- Node1&#45;&gt;Node39 -->
<g id="edge38_Node000001_Node000039" class="edge">
<title>Node1&#45;&gt;Node39</title>
<g id="a_edge38_Node000001_Node000039"><a xlink:title=" ">
<path fill="none" stroke="#63b8ff" d="M2529.38,-75.31C2852.48,-76.33 4660.96,-79.75 5210.75,-30.5 5219.85,-29.68 5229.44,-28.47 5238.8,-27.1"/>
<polygon fill="#63b8ff" stroke="#63b8ff" points="5239.21,-30.58 5248.55,-25.58 5238.13,-23.66 5239.21,-30.58"/>
</a>
</g>
</g>
<!-- Node40 -->
<g id="Node000040" class="node">
<title>Node40</title>
<g id="a_Node000040"><a xlink:href="_s_s_p_r_k42_8hxx.html" target="_top" xlink:title=" ">
<polygon fill="white" stroke="#666666" points="5548.12,-24.88 5393.38,-24.88 5393.38,-5.63 5548.12,-5.63 5548.12,-24.88"/>
<text text-anchor="middle" x="5470.75" y="-11.38" font-family="Helvetica,sans-Serif" font-size="10.00">Sandals/Tableau/SSPRK42.hxx</text>
</a>
</g>
</g>
<!-- Node1&#45;&gt;Node40 -->
<g id="edge39_Node000001_Node000040" class="edge">
<title>Node1&#45;&gt;Node40</title>
<g id="a_edge39_Node000001_Node000040"><a xlink:title=" ">
<path fill="none" stroke="#63b8ff" d="M2529.5,-74.8C2889.41,-72.41 5088.76,-56.78 5383.75,-30.5 5392.85,-29.69 5402.45,-28.48 5411.8,-27.1"/>
<polygon fill="#63b8ff" stroke="#63b8ff" points="5412.21,-30.58 5421.55,-25.59 5411.13,-23.67 5412.21,-30.58"/>
</a>
</g>
</g>
<!-- Node41 -->
<g id="Node000041" class="node">
<title>Node41</title>
<g id="a_Node000041"><a xlink:href="_s_s_p_r_k43_8hxx.html" target="_top" xlink:title=" ">
<polygon fill="white" stroke="#666666" points="5721.12,-24.88 5566.38,-24.88 5566.38,-5.63 5721.12,-5.63 5721.12,-24.88"/>
<text text-anchor="middle" x="5643.75" y="-11.38" font-family="Helvetica,sans-Serif" font-size="10.00">Sandals/Tableau/SSPRK43.hxx</text>
</a>
</g>
</g>
<!-- Node1&#45;&gt;Node41 -->
<g id="edge40_Node000001_Node000041" class="edge">
<title>Node1&#45;&gt;Node41</title>
<g id="a_edge40_Node000001_Node000041"><a xlink:title=" ">
<path fill="none" stroke="#63b8ff" d="M2529.46,-74.85C2901.4,-72.72 5243.35,-58.29 5556.75,-30.5 5565.85,-29.69 5575.45,-28.49 5584.8,-27.11"/>
<polygon fill="#63b8ff" stroke="#63b8ff" points="5585.21,-30.59 5594.55,-25.6 5584.13,-23.67 5585.21,-30.59"/>
</a>
</g>
</g>
<!-- Node42 -->
<g id="Node000042" class="node">
<title>Node42</title>
<g id="a_Node000042"><a xlink:href="_s_s_p_r_k93_8hxx.html" target="_top" xlink:title=" ">
<polygon fill="white" stroke="#666666" points="5894.12,-24.88 5739.38,-24.88 5739.38,-5.63 5894.12,-5.63 5894.12,-24.88"/>
<text text-anchor="middle" x="5816.75" y="-11.38" font-family="Helvetica,sans-Serif" font-size="10.00">Sandals/Tableau/SSPRK93.hxx</text>
</a>
</g>
</g>
<!-- Node1&#45;&gt;Node42 -->
<g id="edge41_Node000001_Node000042" class="edge">
<title>Node1&#45;&gt;Node42</title>
<g id="a_edge41_Node000001_Node000042"><a xlink:title=" ">
<path fill="none" stroke="#63b8ff" d="M2529.48,-74.89C2913.28,-73.01 5397.93,-59.79 5729.75,-30.5 5738.85,-29.7 5748.45,-28.49 5757.8,-27.12"/>
<polygon fill="#63b8ff" stroke="#63b8ff" points="5758.21,-30.6 5767.55,-25.61 5757.13,-23.68 5758.21,-30.6"/>
</a>
</g>
</g>
<!-- Node43 -->
<g id="Node000043" class="node">
<title>Node43</title>
<g id="a_Node000043"><a xlink:href="_s_s_p_r_k104_8hxx.html" target="_top" xlink:title=" ">
<polygon fill="white" stroke="#666666" points="6071.75,-24.88 5911.75,-24.88 5911.75,-5.63 6071.75,-5.63 6071.75,-24.88"/>
<text text-anchor="middle" x="5991.75" y="-11.38" font-family="Helvetica,sans-Serif" font-size="10.00">Sandals/Tableau/SSPRK104.hxx</text>
</a>
</g>
</g>
<!-- Node1&#45;&gt;Node43 -->
<g id="edge42_Node000001_Node000043" class="edge">
<title>Node1&#45;&gt;Node43</title>
<g id="a_edge42_Node000001_Node000043"><a xlink:title=" ">
<path fill="none" stroke="#63b8ff" d="M2529.27,-74.92C2923.86,-73.2 5552.38,-60.67 5902.75,-30.5 5912.27,-29.68 5922.32,-28.44 5932.1,-27.03"/>
<polygon fill="#63b8ff" stroke="#63b8ff" points="5932.55,-30.5 5941.91,-25.53 5931.5,-23.58 5932.55,-30.5"/>
</a>
</g>
</g>
</g>
</svg>
