<?xml version="1.0" encoding="UTF-8" standalone="no"?>
<!DOCTYPE svg PUBLIC "-//W3C//DTD SVG 1.1//EN"
 "http://www.w3.org/Graphics/SVG/1.1/DTD/svg11.dtd">
<!-- Generated by graphviz version 12.2.1 (20241206.2353)
 -->
<!-- Title: include/Sandals.hh Pages: 1 -->
<svg width="6266pt" height="94pt"
 viewBox="0.00 0.00 6265.75 93.75" xmlns="http://www.w3.org/2000/svg" xmlns:xlink="http://www.w3.org/1999/xlink">
<g id="graph0" class="graph" transform="scale(1 1) rotate(0) translate(4 89.75)">
<title>include/Sandals.hh</title>
<!-- Node1 -->
<g id="Node000001" class="node">
<title>Node1</title>
<g id="a_Node000001"><a xlink:title=" ">
<polygon fill="#999999" stroke="#666666" points="2615,-85.75 2516.5,-85.75 2516.5,-66.5 2615,-66.5 2615,-85.75"/>
<text text-anchor="middle" x="2565.75" y="-72.25" font-family="Helvetica,sans-Serif" font-size="10.00">include/Sandals.hh</text>
</a>
</g>
</g>
<!-- Node2 -->
<g id="Node000002" class="node">
<title>Node2</title>
<g id="a_Node000002"><a xlink:title=" ">
<polygon fill="#e0e0e0" stroke="#999999" points="53.5,-24.88 0,-24.88 0,-5.63 53.5,-5.63 53.5,-24.88"/>
<text text-anchor="middle" x="26.75" y="-11.38" font-family="Helvetica,sans-Serif" font-size="10.00">iostream</text>
</a>
</g>
</g>
<!-- Node1&#45;&gt;Node2 -->
<g id="edge1_Node000001_Node000002" class="edge">
<title>Node1&#45;&gt;Node2</title>
<g id="a_edge1_Node000001_Node000002"><a xlink:title=" ">
<path fill="none" stroke="#63b8ff" d="M2516.12,-75.31C2185.82,-76.38 311.33,-80.21 62.75,-30.5 60.71,-30.09 58.64,-29.58 56.58,-28.98"/>
<polygon fill="#63b8ff" stroke="#63b8ff" points="57.82,-25.71 47.22,-25.75 55.53,-32.32 57.82,-25.71"/>
</a>
</g>
</g>
<!-- Node3 -->
<g id="Node000003" class="node">
<title>Node3</title>
<g id="a_Node000003"><a xlink:title=" ">
<polygon fill="#e0e0e0" stroke="#999999" points="111.75,-24.88 71.75,-24.88 71.75,-5.63 111.75,-5.63 111.75,-24.88"/>
<text text-anchor="middle" x="91.75" y="-11.38" font-family="Helvetica,sans-Serif" font-size="10.00">string</text>
</a>
</g>
</g>
<!-- Node1&#45;&gt;Node3 -->
<g id="edge2_Node000001_Node000003" class="edge">
<title>Node1&#45;&gt;Node3</title>
<g id="a_edge2_Node000001_Node000003"><a xlink:title=" ">
<path fill="none" stroke="#63b8ff" d="M2516.01,-74.83C2179.13,-72.77 241.28,-59.68 120.75,-30.5 119.58,-30.22 118.4,-29.88 117.22,-29.5"/>
<polygon fill="#63b8ff" stroke="#63b8ff" points="118.91,-26.41 108.33,-25.83 116.24,-32.88 118.91,-26.41"/>
</a>
</g>
</g>
<!-- Node4 -->
<g id="Node000004" class="node">
<title>Node4</title>
<g id="a_Node000004"><a xlink:title=" ">
<polygon fill="#e0e0e0" stroke="#999999" points="173.25,-24.88 130.25,-24.88 130.25,-5.63 173.25,-5.63 173.25,-24.88"/>
<text text-anchor="middle" x="151.75" y="-11.38" font-family="Helvetica,sans-Serif" font-size="10.00">cmath</text>
</a>
</g>
</g>
<!-- Node1&#45;&gt;Node4 -->
<g id="edge3_Node000001_Node000004" class="edge">
<title>Node1&#45;&gt;Node4</title>
<g id="a_edge3_Node000001_Node000004"><a xlink:title=" ">
<path fill="none" stroke="#63b8ff" d="M2516.2,-74.79C2184.77,-72.48 299.33,-58.17 181.75,-30.5 180.54,-30.22 179.33,-29.88 178.11,-29.5"/>
<polygon fill="#63b8ff" stroke="#63b8ff" points="179.47,-26.27 168.89,-25.82 176.88,-32.78 179.47,-26.27"/>
</a>
</g>
</g>
<!-- Node5 -->
<g id="Node000005" class="node">
<title>Node5</title>
<g id="a_Node000005"><a xlink:title=" ">
<polygon fill="#e0e0e0" stroke="#999999" points="234.25,-24.88 191.25,-24.88 191.25,-5.63 234.25,-5.63 234.25,-24.88"/>
<text text-anchor="middle" x="212.75" y="-11.38" font-family="Helvetica,sans-Serif" font-size="10.00">vector</text>
</a>
</g>
</g>
<!-- Node1&#45;&gt;Node5 -->
<g id="edge4_Node000001_Node000005" class="edge">
<title>Node1&#45;&gt;Node5</title>
<g id="a_edge4_Node000001_Node000005"><a xlink:title=" ">
<path fill="none" stroke="#63b8ff" d="M2516.19,-74.75C2189.79,-72.19 358.28,-56.72 243.75,-30.5 242.35,-30.18 240.94,-29.79 239.54,-29.36"/>
<polygon fill="#63b8ff" stroke="#63b8ff" points="241.03,-26.18 230.45,-25.8 238.49,-32.7 241.03,-26.18"/>
</a>
</g>
</g>
<!-- Node6 -->
<g id="Node000006" class="node">
<title>Node6</title>
<g id="a_Node000006"><a xlink:title=" ">
<polygon fill="#e0e0e0" stroke="#999999" points="287.12,-24.88 252.38,-24.88 252.38,-5.63 287.12,-5.63 287.12,-24.88"/>
<text text-anchor="middle" x="269.75" y="-11.38" font-family="Helvetica,sans-Serif" font-size="10.00">map</text>
</a>
</g>
</g>
<!-- Node1&#45;&gt;Node6 -->
<g id="edge5_Node000001_Node000006" class="edge">
<title>Node1&#45;&gt;Node6</title>
<g id="a_edge5_Node000001_Node000006"><a xlink:title=" ">
<path fill="none" stroke="#63b8ff" d="M2516.01,-74.8C2193.44,-72.6 407.77,-59.16 296.75,-30.5 295.92,-30.29 295.09,-30.04 294.26,-29.77"/>
<polygon fill="#63b8ff" stroke="#63b8ff" points="295.77,-26.62 285.21,-25.85 292.99,-33.04 295.77,-26.62"/>
</a>
</g>
</g>
<!-- Node7 -->
<g id="Node000007" class="node">
<title>Node7</title>
<g id="a_Node000007"><a xlink:title=" ">
<polygon fill="#e0e0e0" stroke="#999999" points="356,-24.88 305.5,-24.88 305.5,-5.63 356,-5.63 356,-24.88"/>
<text text-anchor="middle" x="330.75" y="-11.38" font-family="Helvetica,sans-Serif" font-size="10.00">numeric</text>
</a>
</g>
</g>
<!-- Node1&#45;&gt;Node7 -->
<g id="edge6_Node000001_Node000007" class="edge">
<title>Node1&#45;&gt;Node7</title>
<g id="a_edge6_Node000001_Node000007"><a xlink:title=" ">
<path fill="none" stroke="#63b8ff" d="M2516.07,-75.23C2209.56,-75.76 581.39,-76.35 364.75,-30.5 362.98,-30.13 361.19,-29.66 359.41,-29.13"/>
<polygon fill="#63b8ff" stroke="#63b8ff" points="360.71,-25.88 350.12,-25.76 358.32,-32.46 360.71,-25.88"/>
</a>
</g>
</g>
<!-- Node8 -->
<g id="Node000008" class="node">
<title>Node8</title>
<g id="a_Node000008"><a xlink:title=" ">
<polygon fill="#e0e0e0" stroke="#999999" points="419.38,-24.88 374.12,-24.88 374.12,-5.63 419.38,-5.63 419.38,-24.88"/>
<text text-anchor="middle" x="396.75" y="-11.38" font-family="Helvetica,sans-Serif" font-size="10.00">chrono</text>
</a>
</g>
</g>
<!-- Node1&#45;&gt;Node8 -->
<g id="edge7_Node000001_Node000008" class="edge">
<title>Node1&#45;&gt;Node8</title>
<g id="a_edge7_Node000001_Node000008"><a xlink:title=" ">
<path fill="none" stroke="#63b8ff" d="M2516.05,-75.27C2214.7,-75.96 638.23,-77.33 428.75,-30.5 427.15,-30.14 425.54,-29.7 423.93,-29.21"/>
<polygon fill="#63b8ff" stroke="#63b8ff" points="425.59,-26.09 415,-25.79 423.09,-32.63 425.59,-26.09"/>
</a>
</g>
</g>
<!-- Node9 -->
<g id="Node000009" class="node">
<title>Node9</title>
<g id="a_Node000009"><a xlink:title=" ">
<polygon fill="#e0e0e0" stroke="#999999" points="509.88,-24.88 437.62,-24.88 437.62,-5.63 509.88,-5.63 509.88,-24.88"/>
<text text-anchor="middle" x="473.75" y="-11.38" font-family="Helvetica,sans-Serif" font-size="10.00">Eigen/Dense</text>
</a>
</g>
</g>
<!-- Node1&#45;&gt;Node9 -->
<g id="edge8_Node000001_Node000009" class="edge">
<title>Node1&#45;&gt;Node9</title>
<g id="a_edge8_Node000001_Node000009"><a xlink:title=" ">
<path fill="none" stroke="#63b8ff" d="M2516.32,-74.89C2223.39,-73.38 721.16,-64.05 518.75,-30.5 515.38,-29.94 511.92,-29.19 508.48,-28.32"/>
<polygon fill="#63b8ff" stroke="#63b8ff" points="509.76,-25.04 499.18,-25.65 507.83,-31.77 509.76,-25.04"/>
</a>
</g>
</g>
<!-- Node10 -->
<g id="Node000010" class="node">
<title>Node10</title>
<g id="a_Node000010"><a xlink:href="_tic_toc_8hxx.html" target="_top" xlink:title=" ">
<polygon fill="white" stroke="#666666" points="629.88,-24.88 527.62,-24.88 527.62,-5.63 629.88,-5.63 629.88,-24.88"/>
<text text-anchor="middle" x="578.75" y="-11.38" font-family="Helvetica,sans-Serif" font-size="10.00">Sandals/TicToc.hxx</text>
</a>
</g>
</g>
<!-- Node1&#45;&gt;Node10 -->
<g id="edge9_Node000001_Node000010" class="edge">
<title>Node1&#45;&gt;Node10</title>
<g id="a_edge9_Node000001_Node000010"><a xlink:title=" ">
<path fill="none" stroke="#63b8ff" d="M2516.08,-75.39C2252.74,-76.56 1017.52,-79.31 638.75,-30.5 633.45,-29.82 627.94,-28.86 622.5,-27.76"/>
<polygon fill="#63b8ff" stroke="#63b8ff" points="623.53,-24.4 613.01,-25.67 622.02,-31.24 623.53,-24.4"/>
</a>
</g>
</g>
<!-- Node11 -->
<g id="Node000011" class="node">
<title>Node11</title>
<g id="a_Node000011"><a xlink:href="_nonlinear_solver_8hxx.html" target="_top" xlink:title=" ">
<polygon fill="white" stroke="#666666" points="771.38,-30.5 648.12,-30.5 648.12,0 771.38,0 771.38,-30.5"/>
<text text-anchor="start" x="656.12" y="-17" font-family="Helvetica,sans-Serif" font-size="10.00">Sandals/NonlinearSolver</text>
<text text-anchor="middle" x="709.75" y="-5.75" font-family="Helvetica,sans-Serif" font-size="10.00">/NonlinearSolver.hxx</text>
</a>
</g>
</g>
<!-- Node1&#45;&gt;Node11 -->
<g id="edge10_Node000001_Node000011" class="edge">
<title>Node1&#45;&gt;Node11</title>
<g id="a_edge10_Node000001_Node000011"><a xlink:title=" ">
<path fill="none" stroke="#63b8ff" d="M2516.07,-75.06C2267.11,-74.58 1152.92,-70.27 783.12,-30.73"/>
<polygon fill="#63b8ff" stroke="#63b8ff" points="783.7,-27.27 773.38,-29.65 782.93,-34.23 783.7,-27.27"/>
</a>
</g>
</g>
<!-- Node12 -->
<g id="Node000012" class="node">
<title>Node12</title>
<g id="a_Node000012"><a xlink:href="_newton_8hxx.html" target="_top" xlink:title=" ">
<polygon fill="white" stroke="#666666" points="912.38,-30.5 789.12,-30.5 789.12,0 912.38,0 912.38,-30.5"/>
<text text-anchor="start" x="797.12" y="-17" font-family="Helvetica,sans-Serif" font-size="10.00">Sandals/NonlinearSolver</text>
<text text-anchor="middle" x="850.75" y="-5.75" font-family="Helvetica,sans-Serif" font-size="10.00">/Newton.hxx</text>
</a>
</g>
</g>
<!-- Node1&#45;&gt;Node12 -->
<g id="edge11_Node000001_Node000012" class="edge">
<title>Node1&#45;&gt;Node12</title>
<g id="a_edge11_Node000001_Node000012"><a xlink:title=" ">
<path fill="none" stroke="#63b8ff" d="M2516.09,-74.94C2279.51,-73.89 1264.47,-67.34 924.2,-30.74"/>
<polygon fill="#63b8ff" stroke="#63b8ff" points="924.7,-27.27 914.38,-29.65 923.93,-34.23 924.7,-27.27"/>
</a>
</g>
</g>
<!-- Node13 -->
<g id="Node000013" class="node">
<title>Node13</title>
<g id="a_Node000013"><a xlink:href="_broyden_8hxx.html" target="_top" xlink:title=" ">
<polygon fill="white" stroke="#666666" points="1053.38,-30.5 930.12,-30.5 930.12,0 1053.38,0 1053.38,-30.5"/>
<text text-anchor="start" x="938.12" y="-17" font-family="Helvetica,sans-Serif" font-size="10.00">Sandals/NonlinearSolver</text>
<text text-anchor="middle" x="991.75" y="-5.75" font-family="Helvetica,sans-Serif" font-size="10.00">/Broyden.hxx</text>
</a>
</g>
</g>
<!-- Node1&#45;&gt;Node13 -->
<g id="edge12_Node000001_Node000013" class="edge">
<title>Node1&#45;&gt;Node13</title>
<g id="a_edge12_Node000001_Node000013"><a xlink:title=" ">
<path fill="none" stroke="#63b8ff" d="M2516.27,-74.8C2292.84,-73.14 1375.8,-64.43 1065.11,-30.73"/>
<polygon fill="#63b8ff" stroke="#63b8ff" points="1065.71,-27.28 1055.38,-29.64 1064.93,-34.23 1065.71,-27.28"/>
</a>
</g>
</g>
<!-- Node14 -->
<g id="Node000014" class="node">
<title>Node14</title>
<g id="a_Node000014"><a xlink:href="_implicit_8hxx.html" target="_top" xlink:title=" ">
<polygon fill="white" stroke="#666666" points="1212.38,-24.88 1071.12,-24.88 1071.12,-5.63 1212.38,-5.63 1212.38,-24.88"/>
<text text-anchor="middle" x="1141.75" y="-11.38" font-family="Helvetica,sans-Serif" font-size="10.00">Sandals/System/Implicit.hxx</text>
</a>
</g>
</g>
<!-- Node1&#45;&gt;Node14 -->
<g id="edge13_Node000001_Node000014" class="edge">
<title>Node1&#45;&gt;Node14</title>
<g id="a_edge13_Node000001_Node000014"><a xlink:title=" ">
<path fill="none" stroke="#63b8ff" d="M2516.35,-74.43C2305.54,-71.33 1480.2,-57.67 1221.75,-30.5 1213.93,-29.68 1205.72,-28.54 1197.67,-27.26"/>
<polygon fill="#63b8ff" stroke="#63b8ff" points="1198.37,-23.83 1187.93,-25.62 1197.22,-30.73 1198.37,-23.83"/>
</a>
</g>
</g>
<!-- Node15 -->
<g id="Node000015" class="node">
<title>Node15</title>
<g id="a_Node000015"><a xlink:href="_explicit_8hxx.html" target="_top" xlink:title=" ">
<polygon fill="white" stroke="#666666" points="1372.75,-24.88 1230.75,-24.88 1230.75,-5.63 1372.75,-5.63 1372.75,-24.88"/>
<text text-anchor="middle" x="1301.75" y="-11.38" font-family="Helvetica,sans-Serif" font-size="10.00">Sandals/System/Explicit.hxx</text>
</a>
</g>
</g>
<!-- Node1&#45;&gt;Node15 -->
<g id="edge14_Node000001_Node000015" class="edge">
<title>Node1&#45;&gt;Node15</title>
<g id="a_edge14_Node000001_Node000015"><a xlink:title=" ">
<path fill="none" stroke="#63b8ff" d="M2516.23,-75.71C2353.36,-77.11 1819.69,-77.53 1381.75,-30.5 1373.93,-29.66 1365.73,-28.51 1357.67,-27.23"/>
<polygon fill="#63b8ff" stroke="#63b8ff" points="1358.38,-23.8 1347.94,-25.59 1357.22,-30.7 1358.38,-23.8"/>
</a>
</g>
</g>
<!-- Node16 -->
<g id="Node000016" class="node">
<title>Node16</title>
<g id="a_Node000016"><a xlink:href="_semi_explicit_8hxx.html" target="_top" xlink:title=" ">
<polygon fill="white" stroke="#666666" points="1555,-24.88 1390.5,-24.88 1390.5,-5.63 1555,-5.63 1555,-24.88"/>
<text text-anchor="middle" x="1472.75" y="-11.38" font-family="Helvetica,sans-Serif" font-size="10.00">Sandals/System/SemiExplicit.hxx</text>
</a>
</g>
</g>
<!-- Node1&#45;&gt;Node16 -->
<g id="edge15_Node000001_Node000016" class="edge">
<title>Node1&#45;&gt;Node16</title>
<g id="a_edge15_Node000001_Node000016"><a xlink:title=" ">
<path fill="none" stroke="#63b8ff" d="M2516.14,-74.83C2370.02,-73.54 1928.7,-66.69 1564.75,-30.5 1555.39,-29.57 1545.52,-28.32 1535.87,-26.96"/>
<polygon fill="#63b8ff" stroke="#63b8ff" points="1536.58,-23.52 1526.18,-25.53 1535.56,-30.45 1536.58,-23.52"/>
</a>
</g>
</g>
<!-- Node17 -->
<g id="Node000017" class="node">
<title>Node17</title>
<g id="a_Node000017"><a xlink:href="_tableau_8hxx.html" target="_top" xlink:title=" ">
<polygon fill="white" stroke="#666666" points="1680.12,-24.88 1573.38,-24.88 1573.38,-5.63 1680.12,-5.63 1680.12,-24.88"/>
<text text-anchor="middle" x="1626.75" y="-11.38" font-family="Helvetica,sans-Serif" font-size="10.00">Sandals/Tableau.hxx</text>
</a>
</g>
</g>
<!-- Node1&#45;&gt;Node17 -->
<g id="edge16_Node000001_Node000017" class="edge">
<title>Node1&#45;&gt;Node17</title>
<g id="a_edge16_Node000001_Node000017"><a xlink:title=" ">
<path fill="none" stroke="#63b8ff" d="M2516.08,-75.57C2382.04,-76.12 2002.03,-73.45 1689.75,-30.5 1684.34,-29.76 1678.71,-28.78 1673.14,-27.69"/>
<polygon fill="#63b8ff" stroke="#63b8ff" points="1673.86,-24.26 1663.36,-25.63 1672.42,-31.11 1673.86,-24.26"/>
</a>
</g>
</g>
<!-- Node18 -->
<g id="Node000018" class="node">
<title>Node18</title>
<g id="a_Node000018"><a xlink:href="_solution_8hxx.html" target="_top" xlink:title=" ">
<polygon fill="white" stroke="#666666" points="1806.88,-24.88 1698.62,-24.88 1698.62,-5.63 1806.88,-5.63 1806.88,-24.88"/>
<text text-anchor="middle" x="1752.75" y="-11.38" font-family="Helvetica,sans-Serif" font-size="10.00">Sandals/Solution.hxx</text>
</a>
</g>
</g>
<!-- Node1&#45;&gt;Node18 -->
<g id="edge17_Node000001_Node000018" class="edge">
<title>Node1&#45;&gt;Node18</title>
<g id="a_edge17_Node000001_Node000018"><a xlink:title=" ">
<path fill="none" stroke="#63b8ff" d="M2516.41,-74.9C2396.15,-73.76 2078.63,-67.22 1816.75,-30.5 1811.19,-29.72 1805.39,-28.71 1799.65,-27.59"/>
<polygon fill="#63b8ff" stroke="#63b8ff" points="1800.77,-24.25 1790.26,-25.64 1799.34,-31.1 1800.77,-24.25"/>
</a>
</g>
</g>
<!-- Node19 -->
<g id="Node000019" class="node">
<title>Node19</title>
<g id="a_Node000019"><a xlink:href="_runge_kutta_8hxx.html" target="_top" xlink:title=" ">
<polygon fill="white" stroke="#666666" points="1950.12,-24.88 1825.38,-24.88 1825.38,-5.63 1950.12,-5.63 1950.12,-24.88"/>
<text text-anchor="middle" x="1887.75" y="-11.38" font-family="Helvetica,sans-Serif" font-size="10.00">Sandals/RungeKutta.hxx</text>
</a>
</g>
</g>
<!-- Node1&#45;&gt;Node19 -->
<g id="edge18_Node000001_Node000019" class="edge">
<title>Node1&#45;&gt;Node19</title>
<g id="a_edge18_Node000001_Node000019"><a xlink:title=" ">
<path fill="none" stroke="#63b8ff" d="M2516.36,-73.58C2412.64,-69.88 2164.74,-58.63 1958.75,-30.5 1952.6,-29.66 1946.18,-28.61 1939.83,-27.47"/>
<polygon fill="#63b8ff" stroke="#63b8ff" points="1940.49,-24.04 1930.01,-25.62 1939.19,-30.91 1940.49,-24.04"/>
</a>
</g>
</g>
<!-- Node20 -->
<g id="Node000020" class="node">
<title>Node20</title>
<g id="a_Node000020"><a xlink:href="_chebyshev51_8hxx.html" target="_top" xlink:title=" ">
<polygon fill="white" stroke="#666666" points="2137.62,-24.88 1967.88,-24.88 1967.88,-5.63 2137.62,-5.63 2137.62,-24.88"/>
<text text-anchor="middle" x="2052.75" y="-11.38" font-family="Helvetica,sans-Serif" font-size="10.00">Sandals/Tableau/Chebyshev51.hxx</text>
</a>
</g>
</g>
<!-- Node1&#45;&gt;Node20 -->
<g id="edge19_Node000001_Node000020" class="edge">
<title>Node1&#45;&gt;Node20</title>
<g id="a_edge19_Node000001_Node000020"><a xlink:title=" ">
<path fill="none" stroke="#63b8ff" d="M2516,-70.55C2437.44,-63.15 2279.89,-47.67 2146.75,-30.5 2138.44,-29.43 2129.73,-28.22 2121.11,-26.97"/>
<polygon fill="#63b8ff" stroke="#63b8ff" points="2121.76,-23.53 2111.36,-25.54 2120.74,-30.46 2121.76,-23.53"/>
</a>
</g>
</g>
<!-- Node21 -->
<g id="Node000021" class="node">
<title>Node21</title>
<g id="a_Node000021"><a xlink:href="_explicit_euler_8hxx.html" target="_top" xlink:title=" ">
<polygon fill="white" stroke="#666666" points="2279.38,-30.5 2156.12,-30.5 2156.12,0 2279.38,0 2279.38,-30.5"/>
<text text-anchor="start" x="2164.12" y="-17" font-family="Helvetica,sans-Serif" font-size="10.00">Sandals/Tableau/Explicit</text>
<text text-anchor="middle" x="2217.75" y="-5.75" font-family="Helvetica,sans-Serif" font-size="10.00">Euler.hxx</text>
</a>
</g>
</g>
<!-- Node1&#45;&gt;Node21 -->
<g id="edge20_Node000001_Node000021" class="edge">
<title>Node1&#45;&gt;Node21</title>
<g id="a_edge20_Node000001_Node000021"><a xlink:title=" ">
<path fill="none" stroke="#63b8ff" d="M2516.11,-67.72C2462.94,-59.65 2375.78,-46.05 2290.83,-30.83"/>
<polygon fill="#63b8ff" stroke="#63b8ff" points="2291.63,-27.42 2281.17,-29.09 2290.39,-34.31 2291.63,-27.42"/>
</a>
</g>
</g>
<!-- Node22 -->
<g id="Node000022" class="node">
<title>Node22</title>
<g id="a_Node000022"><a xlink:href="_fehlberg45_8hxx.html" target="_top" xlink:title=" ">
<polygon fill="white" stroke="#666666" points="2455.62,-24.88 2297.88,-24.88 2297.88,-5.63 2455.62,-5.63 2455.62,-24.88"/>
<text text-anchor="middle" x="2376.75" y="-11.38" font-family="Helvetica,sans-Serif" font-size="10.00">Sandals/Tableau/Fehlberg45.hxx</text>
</a>
</g>
</g>
<!-- Node1&#45;&gt;Node22 -->
<g id="edge21_Node000001_Node000022" class="edge">
<title>Node1&#45;&gt;Node22</title>
<g id="a_edge21_Node000001_Node000022"><a xlink:title=" ">
<path fill="none" stroke="#63b8ff" d="M2536.63,-66.05C2504.45,-56.03 2452.41,-39.82 2416.49,-28.63"/>
<polygon fill="#63b8ff" stroke="#63b8ff" points="2417.93,-25.41 2407.35,-25.78 2415.85,-32.1 2417.93,-25.41"/>
</a>
</g>
</g>
<!-- Node23 -->
<g id="Node000023" class="node">
<title>Node23</title>
<g id="a_Node000023"><a xlink:href="_gauss_legendre2_8hxx.html" target="_top" xlink:title=" ">
<polygon fill="white" stroke="#666666" points="2657.38,-24.88 2474.12,-24.88 2474.12,-5.63 2657.38,-5.63 2657.38,-24.88"/>
<text text-anchor="middle" x="2565.75" y="-11.38" font-family="Helvetica,sans-Serif" font-size="10.00">Sandals/Tableau/GaussLegendre2.hxx</text>
</a>
</g>
</g>
<!-- Node1&#45;&gt;Node23 -->
<g id="edge22_Node000001_Node000023" class="edge">
<title>Node1&#45;&gt;Node23</title>
<g id="a_edge22_Node000001_Node000023"><a xlink:title=" ">
<path fill="none" stroke="#63b8ff" d="M2565.75,-66.18C2565.75,-58.4 2565.75,-46.83 2565.75,-36.78"/>
<polygon fill="#63b8ff" stroke="#63b8ff" points="2569.25,-36.79 2565.75,-26.79 2562.25,-36.79 2569.25,-36.79"/>
</a>
</g>
</g>
<!-- Node24 -->
<g id="Node000024" class="node">
<title>Node24</title>
<g id="a_Node000024"><a xlink:href="_gauss_legendre4_8hxx.html" target="_top" xlink:title=" ">
<polygon fill="white" stroke="#666666" points="2858.38,-24.88 2675.12,-24.88 2675.12,-5.63 2858.38,-5.63 2858.38,-24.88"/>
<text text-anchor="middle" x="2766.75" y="-11.38" font-family="Helvetica,sans-Serif" font-size="10.00">Sandals/Tableau/GaussLegendre4.hxx</text>
</a>
</g>
</g>
<!-- Node1&#45;&gt;Node24 -->
<g id="edge23_Node000001_Node000024" class="edge">
<title>Node1&#45;&gt;Node24</title>
<g id="a_edge23_Node000001_Node000024"><a xlink:title=" ">
<path fill="none" stroke="#63b8ff" d="M2596.72,-66.05C2631.09,-55.99 2686.76,-39.68 2724.98,-28.49"/>
<polygon fill="#63b8ff" stroke="#63b8ff" points="2725.68,-31.93 2734.3,-25.76 2723.72,-25.21 2725.68,-31.93"/>
</a>
</g>
</g>
<!-- Node25 -->
<g id="Node000025" class="node">
<title>Node25</title>
<g id="a_Node000025"><a xlink:href="_gauss_legendre6_8hxx.html" target="_top" xlink:title=" ">
<polygon fill="white" stroke="#666666" points="3059.38,-24.88 2876.12,-24.88 2876.12,-5.63 3059.38,-5.63 3059.38,-24.88"/>
<text text-anchor="middle" x="2967.75" y="-11.38" font-family="Helvetica,sans-Serif" font-size="10.00">Sandals/Tableau/GaussLegendre6.hxx</text>
</a>
</g>
</g>
<!-- Node1&#45;&gt;Node25 -->
<g id="edge24_Node000001_Node000025" class="edge">
<title>Node1&#45;&gt;Node25</title>
<g id="a_edge24_Node000001_Node000025"><a xlink:title=" ">
<path fill="none" stroke="#63b8ff" d="M2615.45,-67.85C2685.47,-57.59 2813.63,-38.82 2894.56,-26.97"/>
<polygon fill="#63b8ff" stroke="#63b8ff" points="2894.77,-30.48 2904.16,-25.56 2893.76,-23.55 2894.77,-30.48"/>
</a>
</g>
</g>
<!-- Node26 -->
<g id="Node000026" class="node">
<title>Node26</title>
<g id="a_Node000026"><a xlink:href="_heun2_8hxx.html" target="_top" xlink:title=" ">
<polygon fill="white" stroke="#666666" points="3215.88,-24.88 3077.62,-24.88 3077.62,-5.63 3215.88,-5.63 3215.88,-24.88"/>
<text text-anchor="middle" x="3146.75" y="-11.38" font-family="Helvetica,sans-Serif" font-size="10.00">Sandals/Tableau/Heun2.hxx</text>
</a>
</g>
</g>
<!-- Node1&#45;&gt;Node26 -->
<g id="edge25_Node000001_Node000026" class="edge">
<title>Node1&#45;&gt;Node26</title>
<g id="a_edge25_Node000001_Node000026"><a xlink:title=" ">
<path fill="none" stroke="#63b8ff" d="M2615.18,-72.26C2705.53,-66.68 2903.25,-52.91 3068.75,-30.5 3075.64,-29.57 3082.85,-28.45 3089.99,-27.25"/>
<polygon fill="#63b8ff" stroke="#63b8ff" points="3090.34,-30.74 3099.59,-25.58 3089.14,-23.85 3090.34,-30.74"/>
</a>
</g>
</g>
<!-- Node27 -->
<g id="Node000027" class="node">
<title>Node27</title>
<g id="a_Node000027"><a xlink:href="_heun3_8hxx.html" target="_top" xlink:title=" ">
<polygon fill="white" stroke="#666666" points="3371.88,-24.88 3233.62,-24.88 3233.62,-5.63 3371.88,-5.63 3371.88,-24.88"/>
<text text-anchor="middle" x="3302.75" y="-11.38" font-family="Helvetica,sans-Serif" font-size="10.00">Sandals/Tableau/Heun3.hxx</text>
</a>
</g>
</g>
<!-- Node1&#45;&gt;Node27 -->
<g id="edge26_Node000001_Node000027" class="edge">
<title>Node1&#45;&gt;Node27</title>
<g id="a_edge26_Node000001_Node000027"><a xlink:title=" ">
<path fill="none" stroke="#63b8ff" d="M2615.12,-73.69C2725.02,-70.08 2998.03,-58.79 3224.75,-30.5 3231.92,-29.61 3239.42,-28.48 3246.82,-27.25"/>
<polygon fill="#63b8ff" stroke="#63b8ff" points="3247.18,-30.75 3256.43,-25.59 3245.98,-23.85 3247.18,-30.75"/>
</a>
</g>
</g>
<!-- Node28 -->
<g id="Node000028" class="node">
<title>Node28</title>
<g id="a_Node000028"><a xlink:href="_lobatto_i_i_i_a2_8hxx.html" target="_top" xlink:title=" ">
<polygon fill="white" stroke="#666666" points="3553.25,-24.88 3390.25,-24.88 3390.25,-5.63 3553.25,-5.63 3553.25,-24.88"/>
<text text-anchor="middle" x="3471.75" y="-11.38" font-family="Helvetica,sans-Serif" font-size="10.00">Sandals/Tableau/LobattoIIIA2.hxx</text>
</a>
</g>
</g>
<!-- Node1&#45;&gt;Node28 -->
<g id="edge27_Node000001_Node000028" class="edge">
<title>Node1&#45;&gt;Node28</title>
<g id="a_edge27_Node000001_Node000028"><a xlink:title=" ">
<path fill="none" stroke="#63b8ff" d="M2615.04,-74.15C2742.17,-71.27 3091.5,-60.99 3380.75,-30.5 3389.68,-29.56 3399.07,-28.34 3408.3,-27.02"/>
<polygon fill="#63b8ff" stroke="#63b8ff" points="3408.54,-30.52 3417.92,-25.59 3407.51,-23.6 3408.54,-30.52"/>
</a>
</g>
</g>
<!-- Node29 -->
<g id="Node000029" class="node">
<title>Node29</title>
<g id="a_Node000029"><a xlink:href="_implicit_euler_8hxx.html" target="_top" xlink:title=" ">
<polygon fill="white" stroke="#666666" points="3694,-30.5 3571.5,-30.5 3571.5,0 3694,0 3694,-30.5"/>
<text text-anchor="start" x="3579.5" y="-17" font-family="Helvetica,sans-Serif" font-size="10.00">Sandals/Tableau/Implicit</text>
<text text-anchor="middle" x="3632.75" y="-5.75" font-family="Helvetica,sans-Serif" font-size="10.00">Euler.hxx</text>
</a>
</g>
</g>
<!-- Node1&#45;&gt;Node29 -->
<g id="edge28_Node000001_Node000029" class="edge">
<title>Node1&#45;&gt;Node29</title>
<g id="a_edge28_Node000001_Node000029"><a xlink:title=" ">
<path fill="none" stroke="#63b8ff" d="M2615.25,-75.63C2759.54,-76.54 3192.21,-75.14 3559.97,-30.7"/>
<polygon fill="#63b8ff" stroke="#63b8ff" points="3560.38,-34.18 3569.88,-29.49 3559.53,-27.23 3560.38,-34.18"/>
</a>
</g>
</g>
<!-- Node30 -->
<g id="Node000030" class="node">
<title>Node30</title>
<g id="a_Node000030"><a xlink:href="_m_t_e22_8hxx.html" target="_top" xlink:title=" ">
<polygon fill="white" stroke="#666666" points="3853.38,-24.88 3712.12,-24.88 3712.12,-5.63 3853.38,-5.63 3853.38,-24.88"/>
<text text-anchor="middle" x="3782.75" y="-11.38" font-family="Helvetica,sans-Serif" font-size="10.00">Sandals/Tableau/MTE22.hxx</text>
</a>
</g>
</g>
<!-- Node1&#45;&gt;Node30 -->
<g id="edge29_Node000001_Node000030" class="edge">
<title>Node1&#45;&gt;Node30</title>
<g id="a_edge29_Node000001_Node000030"><a xlink:title=" ">
<path fill="none" stroke="#63b8ff" d="M2615.24,-75.6C2773.9,-76.6 3283.92,-75.8 3702.75,-30.5 3710.57,-29.65 3718.77,-28.5 3726.83,-27.22"/>
<polygon fill="#63b8ff" stroke="#63b8ff" points="3727.28,-30.69 3736.56,-25.58 3726.12,-23.78 3727.28,-30.69"/>
</a>
</g>
</g>
<!-- Node31 -->
<g id="Node000031" class="node">
<title>Node31</title>
<g id="a_Node000031"><a xlink:href="_radau_i_i_a3_8hxx.html" target="_top" xlink:title=" ">
<polygon fill="white" stroke="#666666" points="4027.88,-24.88 3871.62,-24.88 3871.62,-5.63 4027.88,-5.63 4027.88,-24.88"/>
<text text-anchor="middle" x="3949.75" y="-11.38" font-family="Helvetica,sans-Serif" font-size="10.00">Sandals/Tableau/RadauIIA3.hxx</text>
</a>
</g>
</g>
<!-- Node1&#45;&gt;Node31 -->
<g id="edge30_Node000001_Node000031" class="edge">
<title>Node1&#45;&gt;Node31</title>
<g id="a_edge30_Node000001_Node000031"><a xlink:title=" ">
<path fill="none" stroke="#63b8ff" d="M2615.49,-74.27C2822.17,-70.57 3614.01,-55.05 3862.75,-30.5 3871.53,-29.63 3880.77,-28.43 3889.82,-27.1"/>
<polygon fill="#63b8ff" stroke="#63b8ff" points="3890.28,-30.57 3899.62,-25.57 3889.21,-23.65 3890.28,-30.57"/>
</a>
</g>
</g>
<!-- Node32 -->
<g id="Node000032" class="node">
<title>Node32</title>
<g id="a_Node000032"><a xlink:href="_radau_i_i_a5_8hxx.html" target="_top" xlink:title=" ">
<polygon fill="white" stroke="#666666" points="4201.88,-24.88 4045.62,-24.88 4045.62,-5.63 4201.88,-5.63 4201.88,-24.88"/>
<text text-anchor="middle" x="4123.75" y="-11.38" font-family="Helvetica,sans-Serif" font-size="10.00">Sandals/Tableau/RadauIIA5.hxx</text>
</a>
</g>
</g>
<!-- Node1&#45;&gt;Node32 -->
<g id="edge31_Node000001_Node000032" class="edge">
<title>Node1&#45;&gt;Node32</title>
<g id="a_edge31_Node000001_Node000032"><a xlink:title=" ">
<path fill="none" stroke="#63b8ff" d="M2615.23,-74.5C2838.29,-71.56 3751.76,-58.04 4036.75,-30.5 4045.74,-29.63 4055.21,-28.41 4064.45,-27.03"/>
<polygon fill="#63b8ff" stroke="#63b8ff" points="4064.74,-30.53 4074.08,-25.54 4063.66,-23.62 4064.74,-30.53"/>
</a>
</g>
</g>
<!-- Node33 -->
<g id="Node000033" class="node">
<title>Node33</title>
<g id="a_Node000033"><a xlink:href="_ralston2_8hxx.html" target="_top" xlink:title=" ">
<polygon fill="white" stroke="#666666" points="4369.12,-24.88 4220.38,-24.88 4220.38,-5.63 4369.12,-5.63 4369.12,-24.88"/>
<text text-anchor="middle" x="4294.75" y="-11.38" font-family="Helvetica,sans-Serif" font-size="10.00">Sandals/Tableau/Ralston2.hxx</text>
</a>
</g>
</g>
<!-- Node1&#45;&gt;Node33 -->
<g id="edge32_Node000001_Node000033" class="edge">
<title>Node1&#45;&gt;Node33</title>
<g id="a_edge32_Node000001_Node000033"><a xlink:title=" ">
<path fill="none" stroke="#63b8ff" d="M2615.39,-74.72C2854.55,-72.64 3889.63,-61.94 4210.75,-30.5 4219.25,-29.67 4228.18,-28.49 4236.92,-27.16"/>
<polygon fill="#63b8ff" stroke="#63b8ff" points="4237.44,-30.62 4246.76,-25.58 4236.33,-23.71 4237.44,-30.62"/>
</a>
</g>
</g>
<!-- Node34 -->
<g id="Node000034" class="node">
<title>Node34</title>
<g id="a_Node000034"><a xlink:href="_ralston3_8hxx.html" target="_top" xlink:title=" ">
<polygon fill="white" stroke="#666666" points="4536.12,-24.88 4387.38,-24.88 4387.38,-5.63 4536.12,-5.63 4536.12,-24.88"/>
<text text-anchor="middle" x="4461.75" y="-11.38" font-family="Helvetica,sans-Serif" font-size="10.00">Sandals/Tableau/Ralston3.hxx</text>
</a>
</g>
</g>
<!-- Node1&#45;&gt;Node34 -->
<g id="edge33_Node000001_Node000034" class="edge">
<title>Node1&#45;&gt;Node34</title>
<g id="a_edge33_Node000001_Node000034"><a xlink:title=" ">
<path fill="none" stroke="#63b8ff" d="M2615.29,-74.87C2868.68,-73.4 4021.66,-64.91 4377.75,-30.5 4386.25,-29.68 4395.18,-28.5 4403.93,-27.18"/>
<polygon fill="#63b8ff" stroke="#63b8ff" points="4404.44,-30.64 4413.76,-25.6 4403.33,-23.73 4404.44,-30.64"/>
</a>
</g>
</g>
<!-- Node35 -->
<g id="Node000035" class="node">
<title>Node35</title>
<g id="a_Node000035"><a xlink:href="_ralston4_8hxx.html" target="_top" xlink:title=" ">
<polygon fill="white" stroke="#666666" points="4703.12,-24.88 4554.38,-24.88 4554.38,-5.63 4703.12,-5.63 4703.12,-24.88"/>
<text text-anchor="middle" x="4628.75" y="-11.38" font-family="Helvetica,sans-Serif" font-size="10.00">Sandals/Tableau/Ralston4.hxx</text>
</a>
</g>
</g>
<!-- Node1&#45;&gt;Node35 -->
<g id="edge34_Node000001_Node000035" class="edge">
<title>Node1&#45;&gt;Node35</title>
<g id="a_edge34_Node000001_Node000035"><a xlink:title=" ">
<path fill="none" stroke="#63b8ff" d="M2615.38,-74.99C2882.73,-74.09 4153.68,-67.88 4544.75,-30.5 4553.45,-29.67 4562.6,-28.46 4571.54,-27.1"/>
<polygon fill="#63b8ff" stroke="#63b8ff" points="4571.89,-30.59 4581.2,-25.54 4570.77,-23.68 4571.89,-30.59"/>
</a>
</g>
</g>
<!-- Node36 -->
<g id="Node000036" class="node">
<title>Node36</title>
<g id="a_Node000036"><a xlink:href="_r_k4_8hxx.html" target="_top" xlink:title=" ">
<polygon fill="white" stroke="#666666" points="4850.38,-24.88 4721.12,-24.88 4721.12,-5.63 4850.38,-5.63 4850.38,-24.88"/>
<text text-anchor="middle" x="4785.75" y="-11.38" font-family="Helvetica,sans-Serif" font-size="10.00">Sandals/Tableau/RK4.hxx</text>
</a>
</g>
</g>
<!-- Node1&#45;&gt;Node36 -->
<g id="edge35_Node000001_Node000036" class="edge">
<title>Node1&#45;&gt;Node36</title>
<g id="a_edge35_Node000001_Node000036"><a xlink:title=" ">
<path fill="none" stroke="#63b8ff" d="M2615.39,-75.24C2895.98,-75.69 4286.05,-75.59 4711.75,-30.5 4719.01,-29.73 4726.62,-28.62 4734.08,-27.35"/>
<polygon fill="#63b8ff" stroke="#63b8ff" points="4734.52,-30.83 4743.73,-25.61 4733.27,-23.94 4734.52,-30.83"/>
</a>
</g>
</g>
<!-- Node37 -->
<g id="Node000037" class="node">
<title>Node37</title>
<g id="a_Node000037"><a xlink:href="_s_s_p_i_r_k33_8hxx.html" target="_top" xlink:title=" ">
<polygon fill="white" stroke="#666666" points="5026.62,-24.88 4868.88,-24.88 4868.88,-5.63 5026.62,-5.63 5026.62,-24.88"/>
<text text-anchor="middle" x="4947.75" y="-11.38" font-family="Helvetica,sans-Serif" font-size="10.00">Sandals/Tableau/SSPIRK33.hxx</text>
</a>
</g>
</g>
<!-- Node1&#45;&gt;Node37 -->
<g id="edge36_Node000001_Node000037" class="edge">
<title>Node1&#45;&gt;Node37</title>
<g id="a_edge36_Node000001_Node000037"><a xlink:title=" ">
<path fill="none" stroke="#63b8ff" d="M2615.41,-75.11C2907.29,-74.9 4402.27,-71.78 4859.75,-30.5 4868.96,-29.67 4878.65,-28.45 4888.12,-27.07"/>
<polygon fill="#63b8ff" stroke="#63b8ff" points="4888.64,-30.53 4897.99,-25.55 4887.58,-23.61 4888.64,-30.53"/>
</a>
</g>
</g>
<!-- Node38 -->
<g id="Node000038" class="node">
<title>Node38</title>
<g id="a_Node000038"><a xlink:href="_s_s_p_r_k22_8hxx.html" target="_top" xlink:title=" ">
<polygon fill="white" stroke="#666666" points="5199.12,-24.88 5044.38,-24.88 5044.38,-5.63 5199.12,-5.63 5199.12,-24.88"/>
<text text-anchor="middle" x="5121.75" y="-11.38" font-family="Helvetica,sans-Serif" font-size="10.00">Sandals/Tableau/SSPRK22.hxx</text>
</a>
</g>
</g>
<!-- Node1&#45;&gt;Node38 -->
<g id="edge37_Node000001_Node000038" class="edge">
<title>Node1&#45;&gt;Node38</title>
<g id="a_edge37_Node000001_Node000038"><a xlink:title=" ">
<path fill="none" stroke="#63b8ff" d="M2615.21,-75.22C2919.52,-75.64 4541.1,-75.7 5035.75,-30.5 5044.75,-29.68 5054.23,-28.46 5063.48,-27.08"/>
<polygon fill="#63b8ff" stroke="#63b8ff" points="5063.77,-30.58 5073.1,-25.57 5062.68,-23.67 5063.77,-30.58"/>
</a>
</g>
</g>
<!-- Node39 -->
<g id="Node000039" class="node">
<title>Node39</title>
<g id="a_Node000039"><a xlink:href="_s_s_p_r_k22star_8hxx.html" target="_top" xlink:title=" ">
<polygon fill="white" stroke="#666666" points="5388,-24.88 5217.5,-24.88 5217.5,-5.63 5388,-5.63 5388,-24.88"/>
<text text-anchor="middle" x="5302.75" y="-11.38" font-family="Helvetica,sans-Serif" font-size="10.00">Sandals/Tableau/SSPRK22star.hxx</text>
</a>
</g>
</g>
<!-- Node1&#45;&gt;Node39 -->
<g id="edge38_Node000001_Node000039" class="edge">
<title>Node1&#45;&gt;Node39</title>
<g id="a_edge38_Node000001_Node000039"><a xlink:title=" ">
<path fill="none" stroke="#63b8ff" d="M2615.27,-75.18C2931.91,-75.41 4676.43,-74.64 5207.75,-30.5 5218,-29.65 5228.83,-28.38 5239.36,-26.94"/>
<polygon fill="#63b8ff" stroke="#63b8ff" points="5239.73,-30.43 5249.13,-25.55 5238.74,-23.5 5239.73,-30.43"/>
</a>
</g>
</g>
<!-- Node40 -->
<g id="Node000040" class="node">
<title>Node40</title>
<g id="a_Node000040"><a xlink:href="_s_s_p_r_k33_8hxx.html" target="_top" xlink:title=" ">
<polygon fill="white" stroke="#666666" points="5561.12,-24.88 5406.38,-24.88 5406.38,-5.63 5561.12,-5.63 5561.12,-24.88"/>
<text text-anchor="middle" x="5483.75" y="-11.38" font-family="Helvetica,sans-Serif" font-size="10.00">Sandals/Tableau/SSPRK33.hxx</text>
</a>
</g>
</g>
<!-- Node1&#45;&gt;Node40 -->
<g id="edge39_Node000001_Node000040" class="edge">
<title>Node1&#45;&gt;Node40</title>
<g id="a_edge39_Node000001_Node000040"><a xlink:title=" ">
<path fill="none" stroke="#63b8ff" d="M2615.32,-75.34C2945.07,-76.61 4825.75,-81.49 5396.75,-30.5 5405.85,-29.69 5415.44,-28.48 5424.8,-27.1"/>
<polygon fill="#63b8ff" stroke="#63b8ff" points="5425.21,-30.58 5434.55,-25.59 5424.13,-23.66 5425.21,-30.58"/>
</a>
</g>
</g>
<!-- Node41 -->
<g id="Node000041" class="node">
<title>Node41</title>
<g id="a_Node000041"><a xlink:href="_s_s_p_r_k42_8hxx.html" target="_top" xlink:title=" ">
<polygon fill="white" stroke="#666666" points="5734.12,-24.88 5579.38,-24.88 5579.38,-5.63 5734.12,-5.63 5734.12,-24.88"/>
<text text-anchor="middle" x="5656.75" y="-11.38" font-family="Helvetica,sans-Serif" font-size="10.00">Sandals/Tableau/SSPRK42.hxx</text>
</a>
</g>
</g>
<!-- Node1&#45;&gt;Node41 -->
<g id="edge40_Node000001_Node000041" class="edge">
<title>Node1&#45;&gt;Node41</title>
<g id="a_edge40_Node000001_Node000041"><a xlink:title=" ">
<path fill="none" stroke="#63b8ff" d="M2615.44,-74.83C2982.25,-72.59 5264.11,-57.65 5569.75,-30.5 5578.85,-29.69 5588.45,-28.48 5597.8,-27.11"/>
<polygon fill="#63b8ff" stroke="#63b8ff" points="5598.21,-30.59 5607.55,-25.6 5597.13,-23.67 5598.21,-30.59"/>
</a>
</g>
</g>
<!-- Node42 -->
<g id="Node000042" class="node">
<title>Node42</title>
<g id="a_Node000042"><a xlink:href="_s_s_p_r_k43_8hxx.html" target="_top" xlink:title=" ">
<polygon fill="white" stroke="#666666" points="5907.12,-24.88 5752.38,-24.88 5752.38,-5.63 5907.12,-5.63 5907.12,-24.88"/>
<text text-anchor="middle" x="5829.75" y="-11.38" font-family="Helvetica,sans-Serif" font-size="10.00">Sandals/Tableau/SSPRK43.hxx</text>
</a>
</g>
</g>
<!-- Node1&#45;&gt;Node42 -->
<g id="edge41_Node000001_Node000042" class="edge">
<title>Node1&#45;&gt;Node42</title>
<g id="a_edge41_Node000001_Node000042"><a xlink:title=" ">
<path fill="none" stroke="#63b8ff" d="M2615.26,-74.87C2993.4,-72.9 5418.65,-59.16 5742.75,-30.5 5751.85,-29.69 5761.45,-28.49 5770.8,-27.12"/>
<polygon fill="#63b8ff" stroke="#63b8ff" points="5771.21,-30.59 5780.55,-25.6 5770.13,-23.68 5771.21,-30.59"/>
</a>
</g>
</g>
<!-- Node43 -->
<g id="Node000043" class="node">
<title>Node43</title>
<g id="a_Node000043"><a xlink:href="_s_s_p_r_k93_8hxx.html" target="_top" xlink:title=" ">
<polygon fill="white" stroke="#666666" points="6080.12,-24.88 5925.38,-24.88 5925.38,-5.63 6080.12,-5.63 6080.12,-24.88"/>
<text text-anchor="middle" x="6002.75" y="-11.38" font-family="Helvetica,sans-Serif" font-size="10.00">Sandals/Tableau/SSPRK93.hxx</text>
</a>
</g>
</g>
<!-- Node1&#45;&gt;Node43 -->
<g id="edge42_Node000001_Node000043" class="edge">
<title>Node1&#45;&gt;Node43</title>
<g id="a_edge42_Node000001_Node000043"><a xlink:title=" ">
<path fill="none" stroke="#63b8ff" d="M2615.45,-74.91C3005.83,-73.17 5573.27,-60.66 5915.75,-30.5 5924.96,-29.69 5934.67,-28.47 5944.14,-27.07"/>
<polygon fill="#63b8ff" stroke="#63b8ff" points="5944.66,-30.53 5954.01,-25.54 5943.59,-23.62 5944.66,-30.53"/>
</a>
</g>
</g>
<!-- Node44 -->
<g id="Node000044" class="node">
<title>Node44</title>
<g id="a_Node000044"><a xlink:href="_s_s_p_r_k104_8hxx.html" target="_top" xlink:title=" ">
<polygon fill="white" stroke="#666666" points="6257.75,-24.88 6097.75,-24.88 6097.75,-5.63 6257.75,-5.63 6257.75,-24.88"/>
<text text-anchor="middle" x="6177.75" y="-11.38" font-family="Helvetica,sans-Serif" font-size="10.00">Sandals/Tableau/SSPRK104.hxx</text>
</a>
</g>
</g>
<!-- Node1&#45;&gt;Node44 -->
<g id="edge43_Node000001_Node000044" class="edge">
<title>Node1&#45;&gt;Node44</title>
<g id="a_edge43_Node000001_Node000044"><a xlink:title=" ">
<path fill="none" stroke="#63b8ff" d="M2615.44,-74.94C3017.12,-73.35 5727.75,-61.52 6088.75,-30.5 6098.27,-29.68 6108.32,-28.44 6118.1,-27.03"/>
<polygon fill="#63b8ff" stroke="#63b8ff" points="6118.55,-30.5 6127.91,-25.53 6117.5,-23.58 6118.55,-30.5"/>
</a>
</g>
</g>
</g>
</svg>
