<?xml version="1.0" encoding="UTF-8" standalone="no"?>
<!DOCTYPE svg PUBLIC "-//W3C//DTD SVG 1.1//EN"
 "http://www.w3.org/Graphics/SVG/1.1/DTD/svg11.dtd">
<!-- Generated by graphviz version 12.2.0 (20241103.1931)
 -->
<!-- Title: include/Sandals.hh Pages: 1 -->
<svg width="6236pt" height="94pt"
 viewBox="0.00 0.00 6235.75 93.75" xmlns="http://www.w3.org/2000/svg" xmlns:xlink="http://www.w3.org/1999/xlink">
<g id="graph0" class="graph" transform="scale(1 1) rotate(0) translate(4 89.75)">
<title>include/Sandals.hh</title>
<!-- Node1 -->
<g id="Node000001" class="node">
<title>Node1</title>
<g id="a_Node000001"><a xlink:title=" ">
<polygon fill="#999999" stroke="#666666" points="2685,-85.75 2586.5,-85.75 2586.5,-66.5 2685,-66.5 2685,-85.75"/>
<text text-anchor="middle" x="2635.75" y="-72.25" font-family="Helvetica,sans-Serif" font-size="10.00">include/Sandals.hh</text>
</a>
</g>
</g>
<!-- Node2 -->
<g id="Node000002" class="node">
<title>Node2</title>
<g id="a_Node000002"><a xlink:title=" ">
<polygon fill="#e0e0e0" stroke="#999999" points="53.5,-24.88 0,-24.88 0,-5.63 53.5,-5.63 53.5,-24.88"/>
<text text-anchor="middle" x="26.75" y="-11.38" font-family="Helvetica,sans-Serif" font-size="10.00">iostream</text>
</a>
</g>
</g>
<!-- Node1&#45;&gt;Node2 -->
<g id="edge1_Node000001_Node000002" class="edge">
<title>Node1&#45;&gt;Node2</title>
<g id="a_edge1_Node000001_Node000002"><a xlink:title=" ">
<path fill="none" stroke="#63b8ff" d="M2586.08,-75.33C2250.36,-76.6 318.64,-81.61 62.75,-30.5 60.71,-30.09 58.64,-29.58 56.58,-28.98"/>
<polygon fill="#63b8ff" stroke="#63b8ff" points="57.82,-25.71 47.22,-25.75 55.53,-32.33 57.82,-25.71"/>
</a>
</g>
</g>
<!-- Node3 -->
<g id="Node000003" class="node">
<title>Node3</title>
<g id="a_Node000003"><a xlink:title=" ">
<polygon fill="#e0e0e0" stroke="#999999" points="111.75,-24.88 71.75,-24.88 71.75,-5.63 111.75,-5.63 111.75,-24.88"/>
<text text-anchor="middle" x="91.75" y="-11.38" font-family="Helvetica,sans-Serif" font-size="10.00">string</text>
</a>
</g>
</g>
<!-- Node1&#45;&gt;Node3 -->
<g id="edge2_Node000001_Node000003" class="edge">
<title>Node1&#45;&gt;Node3</title>
<g id="a_edge2_Node000001_Node000003"><a xlink:title=" ">
<path fill="none" stroke="#63b8ff" d="M2586.25,-74.86C2244.47,-72.95 244.94,-60.53 120.75,-30.5 119.58,-30.22 118.4,-29.88 117.22,-29.5"/>
<polygon fill="#63b8ff" stroke="#63b8ff" points="118.91,-26.41 108.33,-25.83 116.24,-32.88 118.91,-26.41"/>
</a>
</g>
</g>
<!-- Node4 -->
<g id="Node000004" class="node">
<title>Node4</title>
<g id="a_Node000004"><a xlink:title=" ">
<polygon fill="#e0e0e0" stroke="#999999" points="173.25,-24.88 130.25,-24.88 130.25,-5.63 173.25,-5.63 173.25,-24.88"/>
<text text-anchor="middle" x="151.75" y="-11.38" font-family="Helvetica,sans-Serif" font-size="10.00">cmath</text>
</a>
</g>
</g>
<!-- Node1&#45;&gt;Node4 -->
<g id="edge3_Node000001_Node000004" class="edge">
<title>Node1&#45;&gt;Node4</title>
<g id="a_edge3_Node000001_Node000004"><a xlink:title=" ">
<path fill="none" stroke="#63b8ff" d="M2586.11,-74.82C2248.78,-72.66 302.95,-58.98 181.75,-30.5 180.54,-30.22 179.33,-29.88 178.11,-29.5"/>
<polygon fill="#63b8ff" stroke="#63b8ff" points="179.47,-26.28 168.89,-25.82 176.88,-32.78 179.47,-26.28"/>
</a>
</g>
</g>
<!-- Node5 -->
<g id="Node000005" class="node">
<title>Node5</title>
<g id="a_Node000005"><a xlink:title=" ">
<polygon fill="#e0e0e0" stroke="#999999" points="234.25,-24.88 191.25,-24.88 191.25,-5.63 234.25,-5.63 234.25,-24.88"/>
<text text-anchor="middle" x="212.75" y="-11.38" font-family="Helvetica,sans-Serif" font-size="10.00">vector</text>
</a>
</g>
</g>
<!-- Node1&#45;&gt;Node5 -->
<g id="edge4_Node000001_Node000005" class="edge">
<title>Node1&#45;&gt;Node5</title>
<g id="a_edge4_Node000001_Node000005"><a xlink:title=" ">
<path fill="none" stroke="#63b8ff" d="M2586.04,-74.78C2253.52,-72.37 361.9,-57.51 243.75,-30.5 242.35,-30.18 240.94,-29.79 239.54,-29.36"/>
<polygon fill="#63b8ff" stroke="#63b8ff" points="241.03,-26.18 230.45,-25.8 238.49,-32.7 241.03,-26.18"/>
</a>
</g>
</g>
<!-- Node6 -->
<g id="Node000006" class="node">
<title>Node6</title>
<g id="a_Node000006"><a xlink:title=" ">
<polygon fill="#e0e0e0" stroke="#999999" points="287.12,-24.88 252.38,-24.88 252.38,-5.63 287.12,-5.63 287.12,-24.88"/>
<text text-anchor="middle" x="269.75" y="-11.38" font-family="Helvetica,sans-Serif" font-size="10.00">map</text>
</a>
</g>
</g>
<!-- Node1&#45;&gt;Node6 -->
<g id="edge5_Node000001_Node000006" class="edge">
<title>Node1&#45;&gt;Node6</title>
<g id="a_edge5_Node000001_Node000006"><a xlink:title=" ">
<path fill="none" stroke="#63b8ff" d="M2586.07,-74.83C2257.89,-72.79 411.39,-60.06 296.75,-30.5 295.92,-30.29 295.09,-30.04 294.26,-29.78"/>
<polygon fill="#63b8ff" stroke="#63b8ff" points="295.77,-26.62 285.21,-25.85 292.99,-33.04 295.77,-26.62"/>
</a>
</g>
</g>
<!-- Node7 -->
<g id="Node000007" class="node">
<title>Node7</title>
<g id="a_Node000007"><a xlink:title=" ">
<polygon fill="#e0e0e0" stroke="#999999" points="356,-24.88 305.5,-24.88 305.5,-5.63 356,-5.63 356,-24.88"/>
<text text-anchor="middle" x="330.75" y="-11.38" font-family="Helvetica,sans-Serif" font-size="10.00">numeric</text>
</a>
</g>
</g>
<!-- Node1&#45;&gt;Node7 -->
<g id="edge6_Node000001_Node000007" class="edge">
<title>Node1&#45;&gt;Node7</title>
<g id="a_edge6_Node000001_Node000007"><a xlink:title=" ">
<path fill="none" stroke="#63b8ff" d="M2586.02,-75.27C2273.67,-76.02 588.65,-77.82 364.75,-30.5 362.98,-30.13 361.19,-29.66 359.4,-29.13"/>
<polygon fill="#63b8ff" stroke="#63b8ff" points="360.71,-25.88 350.12,-25.77 358.33,-32.46 360.71,-25.88"/>
</a>
</g>
</g>
<!-- Node8 -->
<g id="Node000008" class="node">
<title>Node8</title>
<g id="a_Node000008"><a xlink:title=" ">
<polygon fill="#e0e0e0" stroke="#999999" points="445.88,-24.88 373.62,-24.88 373.62,-5.63 445.88,-5.63 445.88,-24.88"/>
<text text-anchor="middle" x="409.75" y="-11.38" font-family="Helvetica,sans-Serif" font-size="10.00">Eigen/Dense</text>
</a>
</g>
</g>
<!-- Node1&#45;&gt;Node8 -->
<g id="edge7_Node000001_Node000008" class="edge">
<title>Node1&#45;&gt;Node8</title>
<g id="a_edge7_Node000001_Node000008"><a xlink:title=" ">
<path fill="none" stroke="#63b8ff" d="M2586.08,-74.96C2281.4,-73.83 671.13,-66.21 454.75,-30.5 451.38,-29.94 447.92,-29.19 444.48,-28.32"/>
<polygon fill="#63b8ff" stroke="#63b8ff" points="445.76,-25.05 435.18,-25.66 443.83,-31.78 445.76,-25.05"/>
</a>
</g>
</g>
<!-- Node9 -->
<g id="Node000009" class="node">
<title>Node9</title>
<g id="a_Node000009"><a xlink:href="_nonlinear_solver_8hxx.html" target="_top" xlink:title=" ">
<polygon fill="white" stroke="#666666" points="587.38,-30.5 464.12,-30.5 464.12,0 587.38,0 587.38,-30.5"/>
<text text-anchor="start" x="472.12" y="-17" font-family="Helvetica,sans-Serif" font-size="10.00">Sandals/NonlinearSolver</text>
<text text-anchor="middle" x="525.75" y="-5.75" font-family="Helvetica,sans-Serif" font-size="10.00">/NonlinearSolver.hxx</text>
</a>
</g>
</g>
<!-- Node1&#45;&gt;Node9 -->
<g id="edge8_Node000001_Node000009" class="edge">
<title>Node1&#45;&gt;Node9</title>
<g id="a_edge8_Node000001_Node000009"><a xlink:title=" ">
<path fill="none" stroke="#63b8ff" d="M2586.36,-75.24C2317.05,-75.71 1022.76,-75.6 599.23,-30.73"/>
<polygon fill="#63b8ff" stroke="#63b8ff" points="599.7,-27.26 589.38,-29.66 598.94,-34.22 599.7,-27.26"/>
</a>
</g>
</g>
<!-- Node10 -->
<g id="Node000010" class="node">
<title>Node10</title>
<g id="a_Node000010"><a xlink:href="_newton_8hxx.html" target="_top" xlink:title=" ">
<polygon fill="white" stroke="#666666" points="728.38,-30.5 605.12,-30.5 605.12,0 728.38,0 728.38,-30.5"/>
<text text-anchor="start" x="613.12" y="-17" font-family="Helvetica,sans-Serif" font-size="10.00">Sandals/NonlinearSolver</text>
<text text-anchor="middle" x="666.75" y="-5.75" font-family="Helvetica,sans-Serif" font-size="10.00">/Newton.hxx</text>
</a>
</g>
</g>
<!-- Node1&#45;&gt;Node10 -->
<g id="edge9_Node000001_Node000010" class="edge">
<title>Node1&#45;&gt;Node10</title>
<g id="a_edge9_Node000001_Node000010"><a xlink:title=" ">
<path fill="none" stroke="#63b8ff" d="M2586.4,-75.15C2328.66,-75.1 1134.19,-72.65 740.29,-30.74"/>
<polygon fill="#63b8ff" stroke="#63b8ff" points="740.7,-27.27 730.38,-29.66 739.94,-34.22 740.7,-27.27"/>
</a>
</g>
</g>
<!-- Node11 -->
<g id="Node000011" class="node">
<title>Node11</title>
<g id="a_Node000011"><a xlink:href="_broyden_8hxx.html" target="_top" xlink:title=" ">
<polygon fill="white" stroke="#666666" points="869.38,-30.5 746.12,-30.5 746.12,0 869.38,0 869.38,-30.5"/>
<text text-anchor="start" x="754.12" y="-17" font-family="Helvetica,sans-Serif" font-size="10.00">Sandals/NonlinearSolver</text>
<text text-anchor="middle" x="807.75" y="-5.75" font-family="Helvetica,sans-Serif" font-size="10.00">/Broyden.hxx</text>
</a>
</g>
</g>
<!-- Node1&#45;&gt;Node11 -->
<g id="edge10_Node000001_Node000011" class="edge">
<title>Node1&#45;&gt;Node11</title>
<g id="a_edge10_Node000001_Node000011"><a xlink:title=" ">
<path fill="none" stroke="#63b8ff" d="M2586.03,-75.04C2339.41,-74.45 1245.18,-69.69 881.21,-30.74"/>
<polygon fill="#63b8ff" stroke="#63b8ff" points="881.7,-27.27 871.38,-29.65 880.93,-34.23 881.7,-27.27"/>
</a>
</g>
</g>
<!-- Node12 -->
<g id="Node000012" class="node">
<title>Node12</title>
<g id="a_Node000012"><a xlink:href="_implicit_8hxx.html" target="_top" xlink:title=" ">
<polygon fill="white" stroke="#666666" points="1028.38,-24.88 887.12,-24.88 887.12,-5.63 1028.38,-5.63 1028.38,-24.88"/>
<text text-anchor="middle" x="957.75" y="-11.38" font-family="Helvetica,sans-Serif" font-size="10.00">Sandals/System/Implicit.hxx</text>
</a>
</g>
</g>
<!-- Node1&#45;&gt;Node12 -->
<g id="edge11_Node000001_Node000012" class="edge">
<title>Node1&#45;&gt;Node12</title>
<g id="a_edge11_Node000001_Node000012"><a xlink:title=" ">
<path fill="none" stroke="#63b8ff" d="M2586.36,-74.73C2351.84,-72.72 1349.05,-62.39 1037.75,-30.5 1029.83,-29.69 1021.52,-28.54 1013.37,-27.25"/>
<polygon fill="#63b8ff" stroke="#63b8ff" points="1013.95,-23.8 1003.51,-25.59 1012.79,-30.7 1013.95,-23.8"/>
</a>
</g>
</g>
<!-- Node13 -->
<g id="Node000013" class="node">
<title>Node13</title>
<g id="a_Node000013"><a xlink:href="_explicit_8hxx.html" target="_top" xlink:title=" ">
<polygon fill="white" stroke="#666666" points="1188.75,-24.88 1046.75,-24.88 1046.75,-5.63 1188.75,-5.63 1188.75,-24.88"/>
<text text-anchor="middle" x="1117.75" y="-11.38" font-family="Helvetica,sans-Serif" font-size="10.00">Sandals/System/Explicit.hxx</text>
</a>
</g>
</g>
<!-- Node1&#45;&gt;Node13 -->
<g id="edge12_Node000001_Node000013" class="edge">
<title>Node1&#45;&gt;Node13</title>
<g id="a_edge12_Node000001_Node000013"><a xlink:title=" ">
<path fill="none" stroke="#63b8ff" d="M2586.27,-74.56C2366.29,-71.87 1475.68,-59.41 1197.75,-30.5 1189.74,-29.67 1181.33,-28.5 1173.09,-27.18"/>
<polygon fill="#63b8ff" stroke="#63b8ff" points="1173.95,-23.78 1163.51,-25.57 1172.79,-30.68 1173.95,-23.78"/>
</a>
</g>
</g>
<!-- Node14 -->
<g id="Node000014" class="node">
<title>Node14</title>
<g id="a_Node000014"><a xlink:href="_linear_8hxx.html" target="_top" xlink:title=" ">
<polygon fill="white" stroke="#666666" points="1342.38,-24.88 1207.12,-24.88 1207.12,-5.63 1342.38,-5.63 1342.38,-24.88"/>
<text text-anchor="middle" x="1274.75" y="-11.38" font-family="Helvetica,sans-Serif" font-size="10.00">Sandals/System/Linear.hxx</text>
</a>
</g>
</g>
<!-- Node1&#45;&gt;Node14 -->
<g id="edge13_Node000001_Node000014" class="edge">
<title>Node1&#45;&gt;Node14</title>
<g id="a_edge13_Node000001_Node000014"><a xlink:title=" ">
<path fill="none" stroke="#63b8ff" d="M2586.15,-74.39C2380.95,-71.17 1597.59,-57.37 1351.75,-30.5 1344.3,-29.69 1336.5,-28.56 1328.83,-27.3"/>
<polygon fill="#63b8ff" stroke="#63b8ff" points="1329.69,-23.9 1319.24,-25.63 1328.49,-30.79 1329.69,-23.9"/>
</a>
</g>
</g>
<!-- Node15 -->
<g id="Node000015" class="node">
<title>Node15</title>
<g id="a_Node000015"><a xlink:href="_semi_explicit_8hxx.html" target="_top" xlink:title=" ">
<polygon fill="white" stroke="#666666" points="1525,-24.88 1360.5,-24.88 1360.5,-5.63 1525,-5.63 1525,-24.88"/>
<text text-anchor="middle" x="1442.75" y="-11.38" font-family="Helvetica,sans-Serif" font-size="10.00">Sandals/System/SemiExplicit.hxx</text>
</a>
</g>
</g>
<!-- Node1&#45;&gt;Node15 -->
<g id="edge14_Node000001_Node000015" class="edge">
<title>Node1&#45;&gt;Node15</title>
<g id="a_edge14_Node000001_Node000015"><a xlink:title=" ">
<path fill="none" stroke="#63b8ff" d="M2586.23,-75.11C2430.87,-74.64 1939.35,-69.91 1534.75,-30.5 1525.38,-29.59 1515.52,-28.35 1505.87,-26.99"/>
<polygon fill="#63b8ff" stroke="#63b8ff" points="1506.58,-23.56 1496.18,-25.56 1505.56,-30.48 1506.58,-23.56"/>
</a>
</g>
</g>
<!-- Node16 -->
<g id="Node000016" class="node">
<title>Node16</title>
<g id="a_Node000016"><a xlink:href="_tableau_8hxx.html" target="_top" xlink:title=" ">
<polygon fill="white" stroke="#666666" points="1650.12,-24.88 1543.38,-24.88 1543.38,-5.63 1650.12,-5.63 1650.12,-24.88"/>
<text text-anchor="middle" x="1596.75" y="-11.38" font-family="Helvetica,sans-Serif" font-size="10.00">Sandals/Tableau.hxx</text>
</a>
</g>
</g>
<!-- Node1&#45;&gt;Node16 -->
<g id="edge15_Node000001_Node000016" class="edge">
<title>Node1&#45;&gt;Node16</title>
<g id="a_edge15_Node000001_Node000016"><a xlink:title=" ">
<path fill="none" stroke="#63b8ff" d="M2586.21,-74.02C2413.95,-69.99 1841.72,-55.04 1659.75,-30.5 1654.34,-29.77 1648.71,-28.8 1643.14,-27.71"/>
<polygon fill="#63b8ff" stroke="#63b8ff" points="1643.86,-24.29 1633.35,-25.66 1642.42,-31.14 1643.86,-24.29"/>
</a>
</g>
</g>
<!-- Node17 -->
<g id="Node000017" class="node">
<title>Node17</title>
<g id="a_Node000017"><a xlink:href="_solution_8hxx.html" target="_top" xlink:title=" ">
<polygon fill="white" stroke="#666666" points="1776.88,-24.88 1668.62,-24.88 1668.62,-5.63 1776.88,-5.63 1776.88,-24.88"/>
<text text-anchor="middle" x="1722.75" y="-11.38" font-family="Helvetica,sans-Serif" font-size="10.00">Sandals/Solution.hxx</text>
</a>
</g>
</g>
<!-- Node1&#45;&gt;Node17 -->
<g id="edge16_Node000001_Node000017" class="edge">
<title>Node1&#45;&gt;Node17</title>
<g id="a_edge16_Node000001_Node000017"><a xlink:title=" ">
<path fill="none" stroke="#63b8ff" d="M2586.19,-75.39C2455.06,-75.48 2088.37,-71.71 1786.75,-30.5 1781.18,-29.74 1775.38,-28.74 1769.65,-27.63"/>
<polygon fill="#63b8ff" stroke="#63b8ff" points="1770.76,-24.28 1760.26,-25.68 1769.34,-31.14 1770.76,-24.28"/>
</a>
</g>
</g>
<!-- Node18 -->
<g id="Node000018" class="node">
<title>Node18</title>
<g id="a_Node000018"><a xlink:href="_runge_kutta_8hxx.html" target="_top" xlink:title=" ">
<polygon fill="white" stroke="#666666" points="1920.12,-24.88 1795.38,-24.88 1795.38,-5.63 1920.12,-5.63 1920.12,-24.88"/>
<text text-anchor="middle" x="1857.75" y="-11.38" font-family="Helvetica,sans-Serif" font-size="10.00">Sandals/RungeKutta.hxx</text>
</a>
</g>
</g>
<!-- Node1&#45;&gt;Node18 -->
<g id="edge17_Node000001_Node000018" class="edge">
<title>Node1&#45;&gt;Node18</title>
<g id="a_edge17_Node000001_Node000018"><a xlink:title=" ">
<path fill="none" stroke="#63b8ff" d="M2586.24,-74.3C2470.65,-71.86 2174.16,-62.72 1928.75,-30.5 1922.36,-29.66 1915.69,-28.59 1909.09,-27.41"/>
<polygon fill="#63b8ff" stroke="#63b8ff" points="1910.11,-24.04 1899.63,-25.62 1908.81,-30.91 1910.11,-24.04"/>
</a>
</g>
</g>
<!-- Node19 -->
<g id="Node000019" class="node">
<title>Node19</title>
<g id="a_Node000019"><a xlink:href="_chebyshev51_8hxx.html" target="_top" xlink:title=" ">
<polygon fill="white" stroke="#666666" points="2107.62,-24.88 1937.88,-24.88 1937.88,-5.63 2107.62,-5.63 2107.62,-24.88"/>
<text text-anchor="middle" x="2022.75" y="-11.38" font-family="Helvetica,sans-Serif" font-size="10.00">Sandals/Tableau/Chebyshev51.hxx</text>
</a>
</g>
</g>
<!-- Node1&#45;&gt;Node19 -->
<g id="edge18_Node000001_Node000019" class="edge">
<title>Node1&#45;&gt;Node19</title>
<g id="a_edge18_Node000001_Node000019"><a xlink:title=" ">
<path fill="none" stroke="#63b8ff" d="M2586.26,-71.94C2493.83,-65.75 2288.73,-50.91 2116.75,-30.5 2108.11,-29.47 2099.04,-28.27 2090.08,-27"/>
<polygon fill="#63b8ff" stroke="#63b8ff" points="2090.73,-23.55 2080.34,-25.58 2089.73,-30.48 2090.73,-23.55"/>
</a>
</g>
</g>
<!-- Node20 -->
<g id="Node000020" class="node">
<title>Node20</title>
<g id="a_Node000020"><a xlink:href="_explicit_euler_8hxx.html" target="_top" xlink:title=" ">
<polygon fill="white" stroke="#666666" points="2249.38,-30.5 2126.12,-30.5 2126.12,0 2249.38,0 2249.38,-30.5"/>
<text text-anchor="start" x="2134.12" y="-17" font-family="Helvetica,sans-Serif" font-size="10.00">Sandals/Tableau/Explicit</text>
<text text-anchor="middle" x="2187.75" y="-5.75" font-family="Helvetica,sans-Serif" font-size="10.00">Euler.hxx</text>
</a>
</g>
</g>
<!-- Node1&#45;&gt;Node20 -->
<g id="edge19_Node000001_Node000020" class="edge">
<title>Node1&#45;&gt;Node20</title>
<g id="a_edge19_Node000001_Node000020"><a xlink:title=" ">
<path fill="none" stroke="#63b8ff" d="M2586.17,-70.54C2516.04,-63.77 2383.63,-49.95 2260.75,-30.73"/>
<polygon fill="#63b8ff" stroke="#63b8ff" points="2261.57,-27.32 2251.15,-29.21 2260.48,-34.23 2261.57,-27.32"/>
</a>
</g>
</g>
<!-- Node21 -->
<g id="Node000021" class="node">
<title>Node21</title>
<g id="a_Node000021"><a xlink:href="_fehlberg45_8hxx.html" target="_top" xlink:title=" ">
<polygon fill="white" stroke="#666666" points="2425.62,-24.88 2267.88,-24.88 2267.88,-5.63 2425.62,-5.63 2425.62,-24.88"/>
<text text-anchor="middle" x="2346.75" y="-11.38" font-family="Helvetica,sans-Serif" font-size="10.00">Sandals/Tableau/Fehlberg45.hxx</text>
</a>
</g>
</g>
<!-- Node1&#45;&gt;Node21 -->
<g id="edge20_Node000001_Node000021" class="edge">
<title>Node1&#45;&gt;Node21</title>
<g id="a_edge20_Node000001_Node000021"><a xlink:title=" ">
<path fill="none" stroke="#63b8ff" d="M2591.23,-66.05C2540.42,-55.7 2457.27,-38.76 2402.27,-27.56"/>
<polygon fill="#63b8ff" stroke="#63b8ff" points="2403.3,-24.2 2392.81,-25.63 2401.91,-31.06 2403.3,-24.2"/>
</a>
</g>
</g>
<!-- Node22 -->
<g id="Node000022" class="node">
<title>Node22</title>
<g id="a_Node000022"><a xlink:href="_gauss_legendre2_8hxx.html" target="_top" xlink:title=" ">
<polygon fill="white" stroke="#666666" points="2627.38,-24.88 2444.12,-24.88 2444.12,-5.63 2627.38,-5.63 2627.38,-24.88"/>
<text text-anchor="middle" x="2535.75" y="-11.38" font-family="Helvetica,sans-Serif" font-size="10.00">Sandals/Tableau/GaussLegendre2.hxx</text>
</a>
</g>
</g>
<!-- Node1&#45;&gt;Node22 -->
<g id="edge21_Node000001_Node000022" class="edge">
<title>Node1&#45;&gt;Node22</title>
<g id="a_edge21_Node000001_Node000022"><a xlink:title=" ">
<path fill="none" stroke="#63b8ff" d="M2620.56,-66.18C2604.7,-56.85 2579.57,-42.05 2560.77,-30.98"/>
<polygon fill="#63b8ff" stroke="#63b8ff" points="2562.78,-28.1 2552.39,-26.04 2559.23,-34.13 2562.78,-28.1"/>
</a>
</g>
</g>
<!-- Node23 -->
<g id="Node000023" class="node">
<title>Node23</title>
<g id="a_Node000023"><a xlink:href="_gauss_legendre4_8hxx.html" target="_top" xlink:title=" ">
<polygon fill="white" stroke="#666666" points="2828.38,-24.88 2645.12,-24.88 2645.12,-5.63 2828.38,-5.63 2828.38,-24.88"/>
<text text-anchor="middle" x="2736.75" y="-11.38" font-family="Helvetica,sans-Serif" font-size="10.00">Sandals/Tableau/GaussLegendre4.hxx</text>
</a>
</g>
</g>
<!-- Node1&#45;&gt;Node23 -->
<g id="edge22_Node000001_Node000023" class="edge">
<title>Node1&#45;&gt;Node23</title>
<g id="a_edge22_Node000001_Node000023"><a xlink:title=" ">
<path fill="none" stroke="#63b8ff" d="M2651.09,-66.18C2667.11,-56.85 2692.49,-42.05 2711.48,-30.98"/>
<polygon fill="#63b8ff" stroke="#63b8ff" points="2713.08,-34.1 2719.96,-26.04 2709.56,-28.05 2713.08,-34.1"/>
</a>
</g>
</g>
<!-- Node24 -->
<g id="Node000024" class="node">
<title>Node24</title>
<g id="a_Node000024"><a xlink:href="_gauss_legendre6_8hxx.html" target="_top" xlink:title=" ">
<polygon fill="white" stroke="#666666" points="3029.38,-24.88 2846.12,-24.88 2846.12,-5.63 3029.38,-5.63 3029.38,-24.88"/>
<text text-anchor="middle" x="2937.75" y="-11.38" font-family="Helvetica,sans-Serif" font-size="10.00">Sandals/Tableau/GaussLegendre6.hxx</text>
</a>
</g>
</g>
<!-- Node1&#45;&gt;Node24 -->
<g id="edge23_Node000001_Node000024" class="edge">
<title>Node1&#45;&gt;Node24</title>
<g id="a_edge23_Node000001_Node000024"><a xlink:title=" ">
<path fill="none" stroke="#63b8ff" d="M2682.28,-66.05C2735.48,-55.68 2822.63,-38.69 2880.09,-27.49"/>
<polygon fill="#63b8ff" stroke="#63b8ff" points="2880.54,-30.97 2889.69,-25.62 2879.2,-24.1 2880.54,-30.97"/>
</a>
</g>
</g>
<!-- Node25 -->
<g id="Node000025" class="node">
<title>Node25</title>
<g id="a_Node000025"><a xlink:href="_heun2_8hxx.html" target="_top" xlink:title=" ">
<polygon fill="white" stroke="#666666" points="3185.88,-24.88 3047.62,-24.88 3047.62,-5.63 3185.88,-5.63 3185.88,-24.88"/>
<text text-anchor="middle" x="3116.75" y="-11.38" font-family="Helvetica,sans-Serif" font-size="10.00">Sandals/Tableau/Heun2.hxx</text>
</a>
</g>
</g>
<!-- Node1&#45;&gt;Node25 -->
<g id="edge24_Node000001_Node000025" class="edge">
<title>Node1&#45;&gt;Node25</title>
<g id="a_edge24_Node000001_Node000025"><a xlink:title=" ">
<path fill="none" stroke="#63b8ff" d="M2685.21,-70.78C2761.36,-63.83 2911.81,-49.1 3038.75,-30.5 3045.29,-29.54 3052.13,-28.44 3058.92,-27.28"/>
<polygon fill="#63b8ff" stroke="#63b8ff" points="3059.49,-30.74 3068.74,-25.56 3058.29,-23.84 3059.49,-30.74"/>
</a>
</g>
</g>
<!-- Node26 -->
<g id="Node000026" class="node">
<title>Node26</title>
<g id="a_Node000026"><a xlink:href="_heun3_8hxx.html" target="_top" xlink:title=" ">
<polygon fill="white" stroke="#666666" points="3341.88,-24.88 3203.62,-24.88 3203.62,-5.63 3341.88,-5.63 3341.88,-24.88"/>
<text text-anchor="middle" x="3272.75" y="-11.38" font-family="Helvetica,sans-Serif" font-size="10.00">Sandals/Tableau/Heun3.hxx</text>
</a>
</g>
</g>
<!-- Node1&#45;&gt;Node26 -->
<g id="edge25_Node000001_Node000026" class="edge">
<title>Node1&#45;&gt;Node26</title>
<g id="a_edge25_Node000001_Node000026"><a xlink:title=" ">
<path fill="none" stroke="#63b8ff" d="M2685.28,-72.85C2783.02,-68 3007.47,-55.02 3194.75,-30.5 3201.74,-29.59 3209.05,-28.47 3216.27,-27.26"/>
<polygon fill="#63b8ff" stroke="#63b8ff" points="3216.76,-30.73 3226.01,-25.57 3215.56,-23.83 3216.76,-30.73"/>
</a>
</g>
</g>
<!-- Node27 -->
<g id="Node000027" class="node">
<title>Node27</title>
<g id="a_Node000027"><a xlink:href="_lobatto_i_i_i_a2_8hxx.html" target="_top" xlink:title=" ">
<polygon fill="white" stroke="#666666" points="3523.25,-24.88 3360.25,-24.88 3360.25,-5.63 3523.25,-5.63 3523.25,-24.88"/>
<text text-anchor="middle" x="3441.75" y="-11.38" font-family="Helvetica,sans-Serif" font-size="10.00">Sandals/Tableau/LobattoIIIA2.hxx</text>
</a>
</g>
</g>
<!-- Node1&#45;&gt;Node27 -->
<g id="edge26_Node000001_Node000027" class="edge">
<title>Node1&#45;&gt;Node27</title>
<g id="a_edge26_Node000001_Node000027"><a xlink:title=" ">
<path fill="none" stroke="#63b8ff" d="M2685.3,-73.62C2801.7,-69.74 3101.62,-57.72 3350.75,-30.5 3359.47,-29.55 3368.63,-28.35 3377.64,-27.05"/>
<polygon fill="#63b8ff" stroke="#63b8ff" points="3378.06,-30.53 3387.43,-25.6 3377.03,-23.61 3378.06,-30.53"/>
</a>
</g>
</g>
<!-- Node28 -->
<g id="Node000028" class="node">
<title>Node28</title>
<g id="a_Node000028"><a xlink:href="_implicit_euler_8hxx.html" target="_top" xlink:title=" ">
<polygon fill="white" stroke="#666666" points="3664,-30.5 3541.5,-30.5 3541.5,0 3664,0 3664,-30.5"/>
<text text-anchor="start" x="3549.5" y="-17" font-family="Helvetica,sans-Serif" font-size="10.00">Sandals/Tableau/Implicit</text>
<text text-anchor="middle" x="3602.75" y="-5.75" font-family="Helvetica,sans-Serif" font-size="10.00">Euler.hxx</text>
</a>
</g>
</g>
<!-- Node1&#45;&gt;Node28 -->
<g id="edge27_Node000001_Node000028" class="edge">
<title>Node1&#45;&gt;Node28</title>
<g id="a_edge27_Node000001_Node000028"><a xlink:title=" ">
<path fill="none" stroke="#63b8ff" d="M2685.08,-75.28C2819.34,-75.15 3202.62,-71.06 3530.24,-30.68"/>
<polygon fill="#63b8ff" stroke="#63b8ff" points="3530.39,-34.19 3539.87,-29.48 3529.52,-27.24 3530.39,-34.19"/>
</a>
</g>
</g>
<!-- Node29 -->
<g id="Node000029" class="node">
<title>Node29</title>
<g id="a_Node000029"><a xlink:href="_m_t_e22_8hxx.html" target="_top" xlink:title=" ">
<polygon fill="white" stroke="#666666" points="3823.38,-24.88 3682.12,-24.88 3682.12,-5.63 3823.38,-5.63 3823.38,-24.88"/>
<text text-anchor="middle" x="3752.75" y="-11.38" font-family="Helvetica,sans-Serif" font-size="10.00">Sandals/Tableau/MTE22.hxx</text>
</a>
</g>
</g>
<!-- Node1&#45;&gt;Node29 -->
<g id="edge28_Node000001_Node000029" class="edge">
<title>Node1&#45;&gt;Node29</title>
<g id="a_edge28_Node000001_Node000029"><a xlink:title=" ">
<path fill="none" stroke="#63b8ff" d="M2685.31,-75.33C2834.86,-75.45 3294.58,-72.13 3672.75,-30.5 3680.47,-29.65 3688.57,-28.51 3696.53,-27.24"/>
<polygon fill="#63b8ff" stroke="#63b8ff" points="3696.86,-30.73 3706.14,-25.62 3695.7,-23.83 3696.86,-30.73"/>
</a>
</g>
</g>
<!-- Node30 -->
<g id="Node000030" class="node">
<title>Node30</title>
<g id="a_Node000030"><a xlink:href="_radau_i_i_a3_8hxx.html" target="_top" xlink:title=" ">
<polygon fill="white" stroke="#666666" points="3997.88,-24.88 3841.62,-24.88 3841.62,-5.63 3997.88,-5.63 3997.88,-24.88"/>
<text text-anchor="middle" x="3919.75" y="-11.38" font-family="Helvetica,sans-Serif" font-size="10.00">Sandals/Tableau/RadauIIA3.hxx</text>
</a>
</g>
</g>
<!-- Node1&#45;&gt;Node30 -->
<g id="edge29_Node000001_Node000030" class="edge">
<title>Node1&#45;&gt;Node30</title>
<g id="a_edge29_Node000001_Node000030"><a xlink:title=" ">
<path fill="none" stroke="#63b8ff" d="M2685.21,-75.49C2849.11,-76.24 3389.16,-74.92 3832.75,-30.5 3841.53,-29.62 3850.77,-28.41 3859.81,-27.07"/>
<polygon fill="#63b8ff" stroke="#63b8ff" points="3860.28,-30.54 3869.62,-25.55 3859.2,-23.63 3860.28,-30.54"/>
</a>
</g>
</g>
<!-- Node31 -->
<g id="Node000031" class="node">
<title>Node31</title>
<g id="a_Node000031"><a xlink:href="_radau_i_i_a5_8hxx.html" target="_top" xlink:title=" ">
<polygon fill="white" stroke="#666666" points="4171.88,-24.88 4015.62,-24.88 4015.62,-5.63 4171.88,-5.63 4171.88,-24.88"/>
<text text-anchor="middle" x="4093.75" y="-11.38" font-family="Helvetica,sans-Serif" font-size="10.00">Sandals/Tableau/RadauIIA5.hxx</text>
</a>
</g>
</g>
<!-- Node1&#45;&gt;Node31 -->
<g id="edge30_Node000001_Node000031" class="edge">
<title>Node1&#45;&gt;Node31</title>
<g id="a_edge30_Node000001_Node000031"><a xlink:title=" ">
<path fill="none" stroke="#63b8ff" d="M2685.41,-74.37C2899.24,-71.01 3742.62,-56.32 4006.75,-30.5 4015.53,-29.64 4024.77,-28.45 4033.82,-27.11"/>
<polygon fill="#63b8ff" stroke="#63b8ff" points="4034.28,-30.58 4043.63,-25.59 4033.21,-23.66 4034.28,-30.58"/>
</a>
</g>
</g>
<!-- Node32 -->
<g id="Node000032" class="node">
<title>Node32</title>
<g id="a_Node000032"><a xlink:href="_ralston2_8hxx.html" target="_top" xlink:title=" ">
<polygon fill="white" stroke="#666666" points="4339.12,-24.88 4190.38,-24.88 4190.38,-5.63 4339.12,-5.63 4339.12,-24.88"/>
<text text-anchor="middle" x="4264.75" y="-11.38" font-family="Helvetica,sans-Serif" font-size="10.00">Sandals/Tableau/Ralston2.hxx</text>
</a>
</g>
</g>
<!-- Node1&#45;&gt;Node32 -->
<g id="edge31_Node000001_Node000032" class="edge">
<title>Node1&#45;&gt;Node32</title>
<g id="a_edge31_Node000001_Node000032"><a xlink:title=" ">
<path fill="none" stroke="#63b8ff" d="M2685.4,-74.62C2915.59,-72.15 3880.5,-60.16 4180.75,-30.5 4189.25,-29.66 4198.18,-28.48 4206.92,-27.14"/>
<polygon fill="#63b8ff" stroke="#63b8ff" points="4207.44,-30.61 4216.76,-25.56 4206.33,-23.69 4207.44,-30.61"/>
</a>
</g>
</g>
<!-- Node33 -->
<g id="Node000033" class="node">
<title>Node33</title>
<g id="a_Node000033"><a xlink:href="_ralston3_8hxx.html" target="_top" xlink:title=" ">
<polygon fill="white" stroke="#666666" points="4506.12,-24.88 4357.38,-24.88 4357.38,-5.63 4506.12,-5.63 4506.12,-24.88"/>
<text text-anchor="middle" x="4431.75" y="-11.38" font-family="Helvetica,sans-Serif" font-size="10.00">Sandals/Tableau/Ralston3.hxx</text>
</a>
</g>
</g>
<!-- Node1&#45;&gt;Node33 -->
<g id="edge32_Node000001_Node000033" class="edge">
<title>Node1&#45;&gt;Node33</title>
<g id="a_edge32_Node000001_Node000033"><a xlink:title=" ">
<path fill="none" stroke="#63b8ff" d="M2685.36,-74.78C2930.34,-72.95 4012.62,-63.13 4347.75,-30.5 4356.25,-29.67 4365.18,-28.49 4373.92,-27.17"/>
<polygon fill="#63b8ff" stroke="#63b8ff" points="4374.44,-30.63 4383.76,-25.59 4373.33,-23.72 4374.44,-30.63"/>
</a>
</g>
</g>
<!-- Node34 -->
<g id="Node000034" class="node">
<title>Node34</title>
<g id="a_Node000034"><a xlink:href="_ralston4_8hxx.html" target="_top" xlink:title=" ">
<polygon fill="white" stroke="#666666" points="4673.12,-24.88 4524.38,-24.88 4524.38,-5.63 4673.12,-5.63 4673.12,-24.88"/>
<text text-anchor="middle" x="4598.75" y="-11.38" font-family="Helvetica,sans-Serif" font-size="10.00">Sandals/Tableau/Ralston4.hxx</text>
</a>
</g>
</g>
<!-- Node1&#45;&gt;Node34 -->
<g id="edge33_Node000001_Node000034" class="edge">
<title>Node1&#45;&gt;Node34</title>
<g id="a_edge33_Node000001_Node000034"><a xlink:title=" ">
<path fill="none" stroke="#63b8ff" d="M2685.4,-74.92C2944.62,-73.68 4144.67,-66.1 4514.75,-30.5 4523.25,-29.68 4532.18,-28.51 4540.93,-27.18"/>
<polygon fill="#63b8ff" stroke="#63b8ff" points="4541.44,-30.64 4550.76,-25.61 4540.33,-23.73 4541.44,-30.64"/>
</a>
</g>
</g>
<!-- Node35 -->
<g id="Node000035" class="node">
<title>Node35</title>
<g id="a_Node000035"><a xlink:href="_r_k4_8hxx.html" target="_top" xlink:title=" ">
<polygon fill="white" stroke="#666666" points="4820.38,-24.88 4691.12,-24.88 4691.12,-5.63 4820.38,-5.63 4820.38,-24.88"/>
<text text-anchor="middle" x="4755.75" y="-11.38" font-family="Helvetica,sans-Serif" font-size="10.00">Sandals/Tableau/RK4.hxx</text>
</a>
</g>
</g>
<!-- Node1&#45;&gt;Node35 -->
<g id="edge34_Node000001_Node000035" class="edge">
<title>Node1&#45;&gt;Node35</title>
<g id="a_edge34_Node000001_Node000035"><a xlink:title=" ">
<path fill="none" stroke="#63b8ff" d="M2685.28,-75.18C2957.8,-75.29 4277,-73.57 4681.75,-30.5 4689.01,-29.73 4696.61,-28.62 4704.08,-27.35"/>
<polygon fill="#63b8ff" stroke="#63b8ff" points="4704.52,-30.83 4713.73,-25.6 4703.27,-23.94 4704.52,-30.83"/>
</a>
</g>
</g>
<!-- Node36 -->
<g id="Node000036" class="node">
<title>Node36</title>
<g id="a_Node000036"><a xlink:href="_s_s_p_i_r_k33_8hxx.html" target="_top" xlink:title=" ">
<polygon fill="white" stroke="#666666" points="4996.62,-24.88 4838.88,-24.88 4838.88,-5.63 4996.62,-5.63 4996.62,-24.88"/>
<text text-anchor="middle" x="4917.75" y="-11.38" font-family="Helvetica,sans-Serif" font-size="10.00">Sandals/Tableau/SSPIRK33.hxx</text>
</a>
</g>
</g>
<!-- Node1&#45;&gt;Node36 -->
<g id="edge35_Node000001_Node000036" class="edge">
<title>Node1&#45;&gt;Node36</title>
<g id="a_edge35_Node000001_Node000036"><a xlink:title=" ">
<path fill="none" stroke="#63b8ff" d="M2685.08,-75.06C2968.6,-74.56 4393.17,-70.09 4829.75,-30.5 4838.95,-29.67 4848.65,-28.44 4858.12,-27.06"/>
<polygon fill="#63b8ff" stroke="#63b8ff" points="4858.64,-30.52 4867.99,-25.54 4857.58,-23.6 4858.64,-30.52"/>
</a>
</g>
</g>
<!-- Node37 -->
<g id="Node000037" class="node">
<title>Node37</title>
<g id="a_Node000037"><a xlink:href="_s_s_p_r_k22_8hxx.html" target="_top" xlink:title=" ">
<polygon fill="white" stroke="#666666" points="5169.12,-24.88 5014.38,-24.88 5014.38,-5.63 5169.12,-5.63 5169.12,-24.88"/>
<text text-anchor="middle" x="5091.75" y="-11.38" font-family="Helvetica,sans-Serif" font-size="10.00">Sandals/Tableau/SSPRK22.hxx</text>
</a>
</g>
</g>
<!-- Node1&#45;&gt;Node37 -->
<g id="edge36_Node000001_Node000037" class="edge">
<title>Node1&#45;&gt;Node37</title>
<g id="a_edge36_Node000001_Node000037"><a xlink:title=" ">
<path fill="none" stroke="#63b8ff" d="M2685.12,-75.17C2981.91,-75.32 4532.16,-73.96 5005.75,-30.5 5014.75,-29.67 5024.23,-28.46 5033.48,-27.08"/>
<polygon fill="#63b8ff" stroke="#63b8ff" points="5033.77,-30.58 5043.1,-25.57 5032.68,-23.66 5033.77,-30.58"/>
</a>
</g>
</g>
<!-- Node38 -->
<g id="Node000038" class="node">
<title>Node38</title>
<g id="a_Node000038"><a xlink:href="_s_s_p_r_k22star_8hxx.html" target="_top" xlink:title=" ">
<polygon fill="white" stroke="#666666" points="5358,-24.88 5187.5,-24.88 5187.5,-5.63 5358,-5.63 5358,-24.88"/>
<text text-anchor="middle" x="5272.75" y="-11.38" font-family="Helvetica,sans-Serif" font-size="10.00">Sandals/Tableau/SSPRK22star.hxx</text>
</a>
</g>
</g>
<!-- Node1&#45;&gt;Node38 -->
<g id="edge37_Node000001_Node000038" class="edge">
<title>Node1&#45;&gt;Node38</title>
<g id="a_edge37_Node000001_Node000038"><a xlink:title=" ">
<path fill="none" stroke="#63b8ff" d="M2685.38,-75.14C2995.27,-75.13 4667.65,-73.05 5177.75,-30.5 5188,-29.64 5198.83,-28.37 5209.36,-26.94"/>
<polygon fill="#63b8ff" stroke="#63b8ff" points="5209.73,-30.42 5219.13,-25.54 5208.74,-23.49 5209.73,-30.42"/>
</a>
</g>
</g>
<!-- Node39 -->
<g id="Node000039" class="node">
<title>Node39</title>
<g id="a_Node000039"><a xlink:href="_s_s_p_r_k33_8hxx.html" target="_top" xlink:title=" ">
<polygon fill="white" stroke="#666666" points="5531.12,-24.88 5376.38,-24.88 5376.38,-5.63 5531.12,-5.63 5531.12,-24.88"/>
<text text-anchor="middle" x="5453.75" y="-11.38" font-family="Helvetica,sans-Serif" font-size="10.00">Sandals/Tableau/SSPRK33.hxx</text>
</a>
</g>
</g>
<!-- Node1&#45;&gt;Node39 -->
<g id="edge38_Node000001_Node000039" class="edge">
<title>Node1&#45;&gt;Node39</title>
<g id="a_edge38_Node000001_Node000039"><a xlink:title=" ">
<path fill="none" stroke="#63b8ff" d="M2685.38,-75.31C3008.48,-76.33 4816.96,-79.75 5366.75,-30.5 5375.85,-29.68 5385.44,-28.47 5394.8,-27.1"/>
<polygon fill="#63b8ff" stroke="#63b8ff" points="5395.21,-30.58 5404.55,-25.58 5394.13,-23.66 5395.21,-30.58"/>
</a>
</g>
</g>
<!-- Node40 -->
<g id="Node000040" class="node">
<title>Node40</title>
<g id="a_Node000040"><a xlink:href="_s_s_p_r_k42_8hxx.html" target="_top" xlink:title=" ">
<polygon fill="white" stroke="#666666" points="5704.12,-24.88 5549.38,-24.88 5549.38,-5.63 5704.12,-5.63 5704.12,-24.88"/>
<text text-anchor="middle" x="5626.75" y="-11.38" font-family="Helvetica,sans-Serif" font-size="10.00">Sandals/Tableau/SSPRK42.hxx</text>
</a>
</g>
</g>
<!-- Node1&#45;&gt;Node40 -->
<g id="edge39_Node000001_Node000040" class="edge">
<title>Node1&#45;&gt;Node40</title>
<g id="a_edge39_Node000001_Node000040"><a xlink:title=" ">
<path fill="none" stroke="#63b8ff" d="M2685.5,-74.8C3045.41,-72.41 5244.76,-56.78 5539.75,-30.5 5548.85,-29.69 5558.45,-28.48 5567.8,-27.1"/>
<polygon fill="#63b8ff" stroke="#63b8ff" points="5568.21,-30.58 5577.55,-25.59 5567.13,-23.67 5568.21,-30.58"/>
</a>
</g>
</g>
<!-- Node41 -->
<g id="Node000041" class="node">
<title>Node41</title>
<g id="a_Node000041"><a xlink:href="_s_s_p_r_k43_8hxx.html" target="_top" xlink:title=" ">
<polygon fill="white" stroke="#666666" points="5877.12,-24.88 5722.38,-24.88 5722.38,-5.63 5877.12,-5.63 5877.12,-24.88"/>
<text text-anchor="middle" x="5799.75" y="-11.38" font-family="Helvetica,sans-Serif" font-size="10.00">Sandals/Tableau/SSPRK43.hxx</text>
</a>
</g>
</g>
<!-- Node1&#45;&gt;Node41 -->
<g id="edge40_Node000001_Node000041" class="edge">
<title>Node1&#45;&gt;Node41</title>
<g id="a_edge40_Node000001_Node000041"><a xlink:title=" ">
<path fill="none" stroke="#63b8ff" d="M2685.46,-74.85C3057.4,-72.72 5399.35,-58.29 5712.75,-30.5 5721.85,-29.69 5731.45,-28.49 5740.8,-27.11"/>
<polygon fill="#63b8ff" stroke="#63b8ff" points="5741.21,-30.59 5750.55,-25.6 5740.13,-23.67 5741.21,-30.59"/>
</a>
</g>
</g>
<!-- Node42 -->
<g id="Node000042" class="node">
<title>Node42</title>
<g id="a_Node000042"><a xlink:href="_s_s_p_r_k93_8hxx.html" target="_top" xlink:title=" ">
<polygon fill="white" stroke="#666666" points="6050.12,-24.88 5895.38,-24.88 5895.38,-5.63 6050.12,-5.63 6050.12,-24.88"/>
<text text-anchor="middle" x="5972.75" y="-11.38" font-family="Helvetica,sans-Serif" font-size="10.00">Sandals/Tableau/SSPRK93.hxx</text>
</a>
</g>
</g>
<!-- Node1&#45;&gt;Node42 -->
<g id="edge41_Node000001_Node000042" class="edge">
<title>Node1&#45;&gt;Node42</title>
<g id="a_edge41_Node000001_Node000042"><a xlink:title=" ">
<path fill="none" stroke="#63b8ff" d="M2685.48,-74.89C3069.28,-73.01 5553.93,-59.79 5885.75,-30.5 5894.85,-29.7 5904.45,-28.49 5913.8,-27.12"/>
<polygon fill="#63b8ff" stroke="#63b8ff" points="5914.21,-30.6 5923.55,-25.61 5913.13,-23.68 5914.21,-30.6"/>
</a>
</g>
</g>
<!-- Node43 -->
<g id="Node000043" class="node">
<title>Node43</title>
<g id="a_Node000043"><a xlink:href="_s_s_p_r_k104_8hxx.html" target="_top" xlink:title=" ">
<polygon fill="white" stroke="#666666" points="6227.75,-24.88 6067.75,-24.88 6067.75,-5.63 6227.75,-5.63 6227.75,-24.88"/>
<text text-anchor="middle" x="6147.75" y="-11.38" font-family="Helvetica,sans-Serif" font-size="10.00">Sandals/Tableau/SSPRK104.hxx</text>
</a>
</g>
</g>
<!-- Node1&#45;&gt;Node43 -->
<g id="edge42_Node000001_Node000043" class="edge">
<title>Node1&#45;&gt;Node43</title>
<g id="a_edge42_Node000001_Node000043"><a xlink:title=" ">
<path fill="none" stroke="#63b8ff" d="M2685.27,-74.92C3079.86,-73.2 5708.38,-60.67 6058.75,-30.5 6068.27,-29.68 6078.32,-28.44 6088.1,-27.03"/>
<polygon fill="#63b8ff" stroke="#63b8ff" points="6088.55,-30.5 6097.91,-25.53 6087.5,-23.58 6088.55,-30.5"/>
</a>
</g>
</g>
</g>
</svg>
