<?xml version="1.0" encoding="UTF-8" standalone="no"?>
<!DOCTYPE svg PUBLIC "-//W3C//DTD SVG 1.1//EN"
 "http://www.w3.org/Graphics/SVG/1.1/DTD/svg11.dtd">
<!-- Generated by graphviz version 12.2.1 (20241206.2353)
 -->
<!-- Title: include/Sandals.hh Pages: 1 -->
<svg width="6419pt" height="94pt"
 viewBox="0.00 0.00 6418.75 93.75" xmlns="http://www.w3.org/2000/svg" xmlns:xlink="http://www.w3.org/1999/xlink">
<g id="graph0" class="graph" transform="scale(1 1) rotate(0) translate(4 89.75)">
<title>include/Sandals.hh</title>
<!-- Node1 -->
<g id="Node000001" class="node">
<title>Node1</title>
<g id="a_Node000001"><a xlink:title=" ">
<polygon fill="#999999" stroke="#666666" points="2673,-85.75 2574.5,-85.75 2574.5,-66.5 2673,-66.5 2673,-85.75"/>
<text text-anchor="middle" x="2623.75" y="-72.25" font-family="Helvetica,sans-Serif" font-size="10.00">include/Sandals.hh</text>
</a>
</g>
</g>
<!-- Node2 -->
<g id="Node000002" class="node">
<title>Node2</title>
<g id="a_Node000002"><a xlink:title=" ">
<polygon fill="#e0e0e0" stroke="#999999" points="53.5,-24.88 0,-24.88 0,-5.63 53.5,-5.63 53.5,-24.88"/>
<text text-anchor="middle" x="26.75" y="-11.38" font-family="Helvetica,sans-Serif" font-size="10.00">iostream</text>
</a>
</g>
</g>
<!-- Node1&#45;&gt;Node2 -->
<g id="edge1_Node000001_Node000002" class="edge">
<title>Node1&#45;&gt;Node2</title>
<g id="a_edge1_Node000001_Node000002"><a xlink:title=" ">
<path fill="none" stroke="#63b8ff" d="M2574.05,-75.33C2239.13,-76.56 317.37,-81.36 62.75,-30.5 60.71,-30.09 58.64,-29.58 56.58,-28.98"/>
<polygon fill="#63b8ff" stroke="#63b8ff" points="57.82,-25.71 47.22,-25.75 55.53,-32.33 57.82,-25.71"/>
</a>
</g>
</g>
<!-- Node3 -->
<g id="Node000003" class="node">
<title>Node3</title>
<g id="a_Node000003"><a xlink:title=" ">
<polygon fill="#e0e0e0" stroke="#999999" points="111.75,-24.88 71.75,-24.88 71.75,-5.63 111.75,-5.63 111.75,-24.88"/>
<text text-anchor="middle" x="91.75" y="-11.38" font-family="Helvetica,sans-Serif" font-size="10.00">string</text>
</a>
</g>
</g>
<!-- Node1&#45;&gt;Node3 -->
<g id="edge2_Node000001_Node000003" class="edge">
<title>Node1&#45;&gt;Node3</title>
<g id="a_edge2_Node000001_Node000003"><a xlink:title=" ">
<path fill="none" stroke="#63b8ff" d="M2574.21,-74.85C2233.27,-72.92 244.31,-60.38 120.75,-30.5 119.58,-30.22 118.4,-29.88 117.22,-29.5"/>
<polygon fill="#63b8ff" stroke="#63b8ff" points="118.91,-26.41 108.33,-25.83 116.24,-32.88 118.91,-26.41"/>
</a>
</g>
</g>
<!-- Node4 -->
<g id="Node000004" class="node">
<title>Node4</title>
<g id="a_Node000004"><a xlink:title=" ">
<polygon fill="#e0e0e0" stroke="#999999" points="173.25,-24.88 130.25,-24.88 130.25,-5.63 173.25,-5.63 173.25,-24.88"/>
<text text-anchor="middle" x="151.75" y="-11.38" font-family="Helvetica,sans-Serif" font-size="10.00">cmath</text>
</a>
</g>
</g>
<!-- Node1&#45;&gt;Node4 -->
<g id="edge3_Node000001_Node000004" class="edge">
<title>Node1&#45;&gt;Node4</title>
<g id="a_edge3_Node000001_Node000004"><a xlink:title=" ">
<path fill="none" stroke="#63b8ff" d="M2574.08,-74.81C2237.64,-72.63 302.33,-58.84 181.75,-30.5 180.54,-30.22 179.33,-29.88 178.11,-29.5"/>
<polygon fill="#63b8ff" stroke="#63b8ff" points="179.47,-26.28 168.89,-25.82 176.88,-32.78 179.47,-26.28"/>
</a>
</g>
</g>
<!-- Node5 -->
<g id="Node000005" class="node">
<title>Node5</title>
<g id="a_Node000005"><a xlink:title=" ">
<polygon fill="#e0e0e0" stroke="#999999" points="234.25,-24.88 191.25,-24.88 191.25,-5.63 234.25,-5.63 234.25,-24.88"/>
<text text-anchor="middle" x="212.75" y="-11.38" font-family="Helvetica,sans-Serif" font-size="10.00">vector</text>
</a>
</g>
</g>
<!-- Node1&#45;&gt;Node5 -->
<g id="edge4_Node000001_Node000005" class="edge">
<title>Node1&#45;&gt;Node5</title>
<g id="a_edge4_Node000001_Node000005"><a xlink:title=" ">
<path fill="none" stroke="#63b8ff" d="M2574.02,-74.77C2242.43,-72.34 361.27,-57.37 243.75,-30.5 242.35,-30.18 240.94,-29.79 239.54,-29.36"/>
<polygon fill="#63b8ff" stroke="#63b8ff" points="241.03,-26.18 230.45,-25.8 238.49,-32.7 241.03,-26.18"/>
</a>
</g>
</g>
<!-- Node6 -->
<g id="Node000006" class="node">
<title>Node6</title>
<g id="a_Node000006"><a xlink:title=" ">
<polygon fill="#e0e0e0" stroke="#999999" points="287.12,-24.88 252.38,-24.88 252.38,-5.63 287.12,-5.63 287.12,-24.88"/>
<text text-anchor="middle" x="269.75" y="-11.38" font-family="Helvetica,sans-Serif" font-size="10.00">map</text>
</a>
</g>
</g>
<!-- Node1&#45;&gt;Node6 -->
<g id="edge5_Node000001_Node000006" class="edge">
<title>Node1&#45;&gt;Node6</title>
<g id="a_edge5_Node000001_Node000006"><a xlink:title=" ">
<path fill="none" stroke="#63b8ff" d="M2574.04,-74.85C2246.64,-72.92 409.58,-60.81 295.75,-30.5 295.08,-30.32 294.41,-30.12 293.74,-29.91"/>
<polygon fill="#63b8ff" stroke="#63b8ff" points="295.2,-26.73 284.64,-25.86 292.36,-33.12 295.2,-26.73"/>
</a>
</g>
</g>
<!-- Node7 -->
<g id="Node000007" class="node">
<title>Node7</title>
<g id="a_Node000007"><a xlink:title=" ">
<polygon fill="#e0e0e0" stroke="#999999" points="356.38,-24.88 305.12,-24.88 305.12,-5.63 356.38,-5.63 356.38,-24.88"/>
<text text-anchor="middle" x="330.75" y="-11.38" font-family="Helvetica,sans-Serif" font-size="10.00">memory</text>
</a>
</g>
</g>
<!-- Node1&#45;&gt;Node7 -->
<g id="edge6_Node000001_Node000007" class="edge">
<title>Node1&#45;&gt;Node7</title>
<g id="a_edge6_Node000001_Node000007"><a xlink:title=" ">
<path fill="none" stroke="#63b8ff" d="M2574.03,-75.26C2262.68,-75.97 587.4,-77.56 364.75,-30.5 362.98,-30.13 361.19,-29.66 359.4,-29.13"/>
<polygon fill="#63b8ff" stroke="#63b8ff" points="360.71,-25.88 350.12,-25.77 358.33,-32.46 360.71,-25.88"/>
</a>
</g>
</g>
<!-- Node8 -->
<g id="Node000008" class="node">
<title>Node8</title>
<g id="a_Node000008"><a xlink:title=" ">
<polygon fill="#e0e0e0" stroke="#999999" points="419.38,-24.88 374.12,-24.88 374.12,-5.63 419.38,-5.63 419.38,-24.88"/>
<text text-anchor="middle" x="396.75" y="-11.38" font-family="Helvetica,sans-Serif" font-size="10.00">chrono</text>
</a>
</g>
</g>
<!-- Node1&#45;&gt;Node8 -->
<g id="edge7_Node000001_Node000008" class="edge">
<title>Node1&#45;&gt;Node8</title>
<g id="a_edge7_Node000001_Node000008"><a xlink:title=" ">
<path fill="none" stroke="#63b8ff" d="M2574.2,-75.29C2268.43,-76.19 644.28,-78.61 428.75,-30.5 427.15,-30.14 425.54,-29.71 423.93,-29.21"/>
<polygon fill="#63b8ff" stroke="#63b8ff" points="425.59,-26.09 415,-25.79 423.09,-32.63 425.59,-26.09"/>
</a>
</g>
</g>
<!-- Node9 -->
<g id="Node000009" class="node">
<title>Node9</title>
<g id="a_Node000009"><a xlink:title=" ">
<polygon fill="#e0e0e0" stroke="#999999" points="509.88,-24.88 437.62,-24.88 437.62,-5.63 509.88,-5.63 509.88,-24.88"/>
<text text-anchor="middle" x="473.75" y="-11.38" font-family="Helvetica,sans-Serif" font-size="10.00">Eigen/Dense</text>
</a>
</g>
</g>
<!-- Node1&#45;&gt;Node9 -->
<g id="edge8_Node000001_Node000009" class="edge">
<title>Node1&#45;&gt;Node9</title>
<g id="a_edge8_Node000001_Node000009"><a xlink:title=" ">
<path fill="none" stroke="#63b8ff" d="M2574.37,-74.92C2276.72,-73.58 727.24,-64.99 518.75,-30.5 515.38,-29.94 511.92,-29.19 508.48,-28.32"/>
<polygon fill="#63b8ff" stroke="#63b8ff" points="509.76,-25.05 499.18,-25.65 507.83,-31.77 509.76,-25.05"/>
</a>
</g>
</g>
<!-- Node10 -->
<g id="Node000010" class="node">
<title>Node10</title>
<g id="a_Node000010"><a xlink:href="_tic_toc_8hxx.html" target="_top" xlink:title=" ">
<polygon fill="white" stroke="#666666" points="629.88,-24.88 527.62,-24.88 527.62,-5.63 629.88,-5.63 629.88,-24.88"/>
<text text-anchor="middle" x="578.75" y="-11.38" font-family="Helvetica,sans-Serif" font-size="10.00">Sandals/TicToc.hxx</text>
</a>
</g>
</g>
<!-- Node1&#45;&gt;Node10 -->
<g id="edge9_Node000001_Node000010" class="edge">
<title>Node1&#45;&gt;Node10</title>
<g id="a_edge9_Node000001_Node000010"><a xlink:title=" ">
<path fill="none" stroke="#63b8ff" d="M2574.36,-75.42C2306.9,-76.83 1029.79,-80.76 638.75,-30.5 633.45,-29.82 627.94,-28.86 622.5,-27.76"/>
<polygon fill="#63b8ff" stroke="#63b8ff" points="623.53,-24.41 613.01,-25.68 622.02,-31.24 623.53,-24.41"/>
</a>
</g>
</g>
<!-- Node11 -->
<g id="Node000011" class="node">
<title>Node11</title>
<g id="a_Node000011"><a xlink:href="_nonlinear_solver_8hxx.html" target="_top" xlink:title=" ">
<polygon fill="white" stroke="#666666" points="771.38,-30.5 648.12,-30.5 648.12,0 771.38,0 771.38,-30.5"/>
<text text-anchor="start" x="656.12" y="-17" font-family="Helvetica,sans-Serif" font-size="10.00">Sandals/NonlinearSolver</text>
<text text-anchor="middle" x="709.75" y="-5.75" font-family="Helvetica,sans-Serif" font-size="10.00">/NonlinearSolver.hxx</text>
</a>
</g>
</g>
<!-- Node1&#45;&gt;Node11 -->
<g id="edge10_Node000001_Node000011" class="edge">
<title>Node1&#45;&gt;Node11</title>
<g id="a_edge10_Node000001_Node000011"><a xlink:title=" ">
<path fill="none" stroke="#63b8ff" d="M2574.16,-75.11C2320.48,-74.85 1165.36,-71.49 783.22,-30.74"/>
<polygon fill="#63b8ff" stroke="#63b8ff" points="783.7,-27.27 773.38,-29.65 782.93,-34.23 783.7,-27.27"/>
</a>
</g>
</g>
<!-- Node12 -->
<g id="Node000012" class="node">
<title>Node12</title>
<g id="a_Node000012"><a xlink:href="_newton_8hxx.html" target="_top" xlink:title=" ">
<polygon fill="white" stroke="#666666" points="912.38,-30.5 789.12,-30.5 789.12,0 912.38,0 912.38,-30.5"/>
<text text-anchor="start" x="797.12" y="-17" font-family="Helvetica,sans-Serif" font-size="10.00">Sandals/NonlinearSolver</text>
<text text-anchor="middle" x="850.75" y="-5.75" font-family="Helvetica,sans-Serif" font-size="10.00">/Newton.hxx</text>
</a>
</g>
</g>
<!-- Node1&#45;&gt;Node12 -->
<g id="edge11_Node000001_Node000012" class="edge">
<title>Node1&#45;&gt;Node12</title>
<g id="a_edge11_Node000001_Node000012"><a xlink:title=" ">
<path fill="none" stroke="#63b8ff" d="M2574.38,-75C2333.19,-74.19 1276.59,-68.56 924.1,-30.73"/>
<polygon fill="#63b8ff" stroke="#63b8ff" points="924.7,-27.27 914.38,-29.65 923.93,-34.23 924.7,-27.27"/>
</a>
</g>
</g>
<!-- Node13 -->
<g id="Node000013" class="node">
<title>Node13</title>
<g id="a_Node000013"><a xlink:href="_broyden_8hxx.html" target="_top" xlink:title=" ">
<polygon fill="white" stroke="#666666" points="1053.38,-30.5 930.12,-30.5 930.12,0 1053.38,0 1053.38,-30.5"/>
<text text-anchor="start" x="938.12" y="-17" font-family="Helvetica,sans-Serif" font-size="10.00">Sandals/NonlinearSolver</text>
<text text-anchor="middle" x="991.75" y="-5.75" font-family="Helvetica,sans-Serif" font-size="10.00">/Broyden.hxx</text>
</a>
</g>
</g>
<!-- Node1&#45;&gt;Node13 -->
<g id="edge12_Node000001_Node000013" class="edge">
<title>Node1&#45;&gt;Node13</title>
<g id="a_edge12_Node000001_Node000013"><a xlink:title=" ">
<path fill="none" stroke="#63b8ff" d="M2574.31,-74.86C2345.59,-73.46 1387.93,-65.63 1065.09,-30.73"/>
<polygon fill="#63b8ff" stroke="#63b8ff" points="1065.7,-27.27 1055.38,-29.64 1064.93,-34.23 1065.7,-27.27"/>
</a>
</g>
</g>
<!-- Node14 -->
<g id="Node000014" class="node">
<title>Node14</title>
<g id="a_Node000014"><a xlink:href="_implicit_8hxx.html" target="_top" xlink:title=" ">
<polygon fill="white" stroke="#666666" points="1212.38,-24.88 1071.12,-24.88 1071.12,-5.63 1212.38,-5.63 1212.38,-24.88"/>
<text text-anchor="middle" x="1141.75" y="-11.38" font-family="Helvetica,sans-Serif" font-size="10.00">Sandals/System/Implicit.hxx</text>
</a>
</g>
</g>
<!-- Node1&#45;&gt;Node14 -->
<g id="edge13_Node000001_Node000014" class="edge">
<title>Node1&#45;&gt;Node14</title>
<g id="a_edge13_Node000001_Node000014"><a xlink:title=" ">
<path fill="none" stroke="#63b8ff" d="M2574.06,-74.51C2357.16,-71.66 1492.12,-58.73 1221.75,-30.5 1213.74,-29.66 1205.33,-28.49 1197.09,-27.18"/>
<polygon fill="#63b8ff" stroke="#63b8ff" points="1197.95,-23.77 1187.51,-25.56 1196.79,-30.68 1197.95,-23.77"/>
</a>
</g>
</g>
<!-- Node15 -->
<g id="Node000015" class="node">
<title>Node15</title>
<g id="a_Node000015"><a xlink:href="_explicit_8hxx.html" target="_top" xlink:title=" ">
<polygon fill="white" stroke="#666666" points="1372.75,-24.88 1230.75,-24.88 1230.75,-5.63 1372.75,-5.63 1372.75,-24.88"/>
<text text-anchor="middle" x="1301.75" y="-11.38" font-family="Helvetica,sans-Serif" font-size="10.00">Sandals/System/Explicit.hxx</text>
</a>
</g>
</g>
<!-- Node1&#45;&gt;Node15 -->
<g id="edge14_Node000001_Node000015" class="edge">
<title>Node1&#45;&gt;Node15</title>
<g id="a_edge14_Node000001_Node000015"><a xlink:title=" ">
<path fill="none" stroke="#63b8ff" d="M2574.09,-74.27C2373.03,-70.68 1618.96,-55.76 1381.75,-30.5 1373.93,-29.67 1365.73,-28.52 1357.67,-27.24"/>
<polygon fill="#63b8ff" stroke="#63b8ff" points="1358.38,-23.81 1347.93,-25.6 1357.22,-30.71 1358.38,-23.81"/>
</a>
</g>
</g>
<!-- Node16 -->
<g id="Node000016" class="node">
<title>Node16</title>
<g id="a_Node000016"><a xlink:href="_semi_explicit_8hxx.html" target="_top" xlink:title=" ">
<polygon fill="white" stroke="#666666" points="1555,-24.88 1390.5,-24.88 1390.5,-5.63 1555,-5.63 1555,-24.88"/>
<text text-anchor="middle" x="1472.75" y="-11.38" font-family="Helvetica,sans-Serif" font-size="10.00">Sandals/System/SemiExplicit.hxx</text>
</a>
</g>
</g>
<!-- Node1&#45;&gt;Node16 -->
<g id="edge15_Node000001_Node000016" class="edge">
<title>Node1&#45;&gt;Node16</title>
<g id="a_edge15_Node000001_Node000016"><a xlink:title=" ">
<path fill="none" stroke="#63b8ff" d="M2574.21,-75.03C2422.59,-74.31 1951.65,-68.91 1563.75,-30.5 1554.59,-29.59 1544.94,-28.37 1535.49,-27.03"/>
<polygon fill="#63b8ff" stroke="#63b8ff" points="1536.02,-23.57 1525.61,-25.56 1534.99,-30.49 1536.02,-23.57"/>
</a>
</g>
</g>
<!-- Node17 -->
<g id="Node000017" class="node">
<title>Node17</title>
<g id="a_Node000017"><a xlink:href="_linear_8hxx.html" target="_top" xlink:title=" ">
<polygon fill="white" stroke="#666666" points="1708.38,-24.88 1573.12,-24.88 1573.12,-5.63 1708.38,-5.63 1708.38,-24.88"/>
<text text-anchor="middle" x="1640.75" y="-11.38" font-family="Helvetica,sans-Serif" font-size="10.00">Sandals/System/Linear.hxx</text>
</a>
</g>
</g>
<!-- Node1&#45;&gt;Node17 -->
<g id="edge16_Node000001_Node000017" class="edge">
<title>Node1&#45;&gt;Node17</title>
<g id="a_edge16_Node000001_Node000017"><a xlink:title=" ">
<path fill="none" stroke="#63b8ff" d="M2574.45,-75.01C2437.86,-74.19 2043.11,-68.45 1717.75,-30.5 1710.49,-29.65 1702.88,-28.53 1695.39,-27.29"/>
<polygon fill="#63b8ff" stroke="#63b8ff" points="1696.11,-23.87 1685.66,-25.59 1694.91,-30.76 1696.11,-23.87"/>
</a>
</g>
</g>
<!-- Node18 -->
<g id="Node000018" class="node">
<title>Node18</title>
<g id="a_Node000018"><a xlink:href="_tableau_8hxx.html" target="_top" xlink:title=" ">
<polygon fill="white" stroke="#666666" points="1833.12,-24.88 1726.38,-24.88 1726.38,-5.63 1833.12,-5.63 1833.12,-24.88"/>
<text text-anchor="middle" x="1779.75" y="-11.38" font-family="Helvetica,sans-Serif" font-size="10.00">Sandals/Tableau.hxx</text>
</a>
</g>
</g>
<!-- Node1&#45;&gt;Node18 -->
<g id="edge17_Node000001_Node000018" class="edge">
<title>Node1&#45;&gt;Node18</title>
<g id="a_edge17_Node000001_Node000018"><a xlink:title=" ">
<path fill="none" stroke="#63b8ff" d="M2574.13,-75.13C2450.15,-74.52 2117.1,-69.1 1842.75,-30.5 1837.41,-29.75 1831.85,-28.78 1826.35,-27.69"/>
<polygon fill="#63b8ff" stroke="#63b8ff" points="1827.2,-24.3 1816.69,-25.66 1825.76,-31.15 1827.2,-24.3"/>
</a>
</g>
</g>
<!-- Node19 -->
<g id="Node000019" class="node">
<title>Node19</title>
<g id="a_Node000019"><a xlink:href="_solution_8hxx.html" target="_top" xlink:title=" ">
<polygon fill="white" stroke="#666666" points="1959.88,-24.88 1851.62,-24.88 1851.62,-5.63 1959.88,-5.63 1959.88,-24.88"/>
<text text-anchor="middle" x="1905.75" y="-11.38" font-family="Helvetica,sans-Serif" font-size="10.00">Sandals/Solution.hxx</text>
</a>
</g>
</g>
<!-- Node1&#45;&gt;Node19 -->
<g id="edge18_Node000001_Node000019" class="edge">
<title>Node1&#45;&gt;Node19</title>
<g id="a_edge18_Node000001_Node000019"><a xlink:title=" ">
<path fill="none" stroke="#63b8ff" d="M2574.26,-74.29C2464.75,-71.9 2193.89,-62.91 1969.75,-30.5 1964.4,-29.73 1958.83,-28.75 1953.31,-27.67"/>
<polygon fill="#63b8ff" stroke="#63b8ff" points="1954.11,-24.26 1943.61,-25.65 1952.69,-31.12 1954.11,-24.26"/>
</a>
</g>
</g>
<!-- Node20 -->
<g id="Node000020" class="node">
<title>Node20</title>
<g id="a_Node000020"><a xlink:href="_runge_kutta_8hxx.html" target="_top" xlink:title=" ">
<polygon fill="white" stroke="#666666" points="2103.12,-24.88 1978.38,-24.88 1978.38,-5.63 2103.12,-5.63 2103.12,-24.88"/>
<text text-anchor="middle" x="2040.75" y="-11.38" font-family="Helvetica,sans-Serif" font-size="10.00">Sandals/RungeKutta.hxx</text>
</a>
</g>
</g>
<!-- Node1&#45;&gt;Node20 -->
<g id="edge19_Node000001_Node000020" class="edge">
<title>Node1&#45;&gt;Node20</title>
<g id="a_edge19_Node000001_Node000020"><a xlink:title=" ">
<path fill="none" stroke="#63b8ff" d="M2574.11,-72.64C2482.42,-67.63 2280.44,-54.7 2111.75,-30.5 2105.68,-29.63 2099.35,-28.57 2093.08,-27.44"/>
<polygon fill="#63b8ff" stroke="#63b8ff" points="2093.88,-24.02 2083.4,-25.6 2092.57,-30.9 2093.88,-24.02"/>
</a>
</g>
</g>
<!-- Node21 -->
<g id="Node000021" class="node">
<title>Node21</title>
<g id="a_Node000021"><a xlink:href="_chebyshev51_8hxx.html" target="_top" xlink:title=" ">
<polygon fill="white" stroke="#666666" points="2290.62,-24.88 2120.88,-24.88 2120.88,-5.63 2290.62,-5.63 2290.62,-24.88"/>
<text text-anchor="middle" x="2205.75" y="-11.38" font-family="Helvetica,sans-Serif" font-size="10.00">Sandals/Tableau/Chebyshev51.hxx</text>
</a>
</g>
</g>
<!-- Node1&#45;&gt;Node21 -->
<g id="edge20_Node000001_Node000021" class="edge">
<title>Node1&#45;&gt;Node21</title>
<g id="a_edge20_Node000001_Node000021"><a xlink:title=" ">
<path fill="none" stroke="#63b8ff" d="M2574.04,-68.49C2510.43,-59.95 2396.83,-44.54 2299.75,-30.5 2292.09,-29.39 2284.08,-28.21 2276.11,-27.02"/>
<polygon fill="#63b8ff" stroke="#63b8ff" points="2276.81,-23.59 2266.4,-25.57 2275.77,-30.51 2276.81,-23.59"/>
</a>
</g>
</g>
<!-- Node22 -->
<g id="Node000022" class="node">
<title>Node22</title>
<g id="a_Node000022"><a xlink:href="_explicit_euler_8hxx.html" target="_top" xlink:title=" ">
<polygon fill="white" stroke="#666666" points="2432.38,-30.5 2309.12,-30.5 2309.12,0 2432.38,0 2432.38,-30.5"/>
<text text-anchor="start" x="2317.12" y="-17" font-family="Helvetica,sans-Serif" font-size="10.00">Sandals/Tableau/Explicit</text>
<text text-anchor="middle" x="2370.75" y="-5.75" font-family="Helvetica,sans-Serif" font-size="10.00">Euler.hxx</text>
</a>
</g>
</g>
<!-- Node1&#45;&gt;Node22 -->
<g id="edge21_Node000001_Node000022" class="edge">
<title>Node1&#45;&gt;Node22</title>
<g id="a_edge21_Node000001_Node000022"><a xlink:title=" ">
<path fill="none" stroke="#63b8ff" d="M2584.77,-66.05C2547.25,-57.32 2489.59,-43.9 2443.56,-33.19"/>
<polygon fill="#63b8ff" stroke="#63b8ff" points="2444.44,-29.8 2433.91,-30.95 2442.85,-36.62 2444.44,-29.8"/>
</a>
</g>
</g>
<!-- Node23 -->
<g id="Node000023" class="node">
<title>Node23</title>
<g id="a_Node000023"><a xlink:href="_fehlberg45_8hxx.html" target="_top" xlink:title=" ">
<polygon fill="white" stroke="#666666" points="2608.62,-24.88 2450.88,-24.88 2450.88,-5.63 2608.62,-5.63 2608.62,-24.88"/>
<text text-anchor="middle" x="2529.75" y="-11.38" font-family="Helvetica,sans-Serif" font-size="10.00">Sandals/Tableau/Fehlberg45.hxx</text>
</a>
</g>
</g>
<!-- Node1&#45;&gt;Node23 -->
<g id="edge22_Node000001_Node000023" class="edge">
<title>Node1&#45;&gt;Node23</title>
<g id="a_edge22_Node000001_Node000023"><a xlink:title=" ">
<path fill="none" stroke="#63b8ff" d="M2609.47,-66.18C2594.7,-56.93 2571.38,-42.32 2553.76,-31.29"/>
<polygon fill="#63b8ff" stroke="#63b8ff" points="2555.78,-28.42 2545.44,-26.08 2552.06,-34.35 2555.78,-28.42"/>
</a>
</g>
</g>
<!-- Node24 -->
<g id="Node000024" class="node">
<title>Node24</title>
<g id="a_Node000024"><a xlink:href="_gauss_legendre2_8hxx.html" target="_top" xlink:title=" ">
<polygon fill="white" stroke="#666666" points="2810.38,-24.88 2627.12,-24.88 2627.12,-5.63 2810.38,-5.63 2810.38,-24.88"/>
<text text-anchor="middle" x="2718.75" y="-11.38" font-family="Helvetica,sans-Serif" font-size="10.00">Sandals/Tableau/GaussLegendre2.hxx</text>
</a>
</g>
</g>
<!-- Node1&#45;&gt;Node24 -->
<g id="edge23_Node000001_Node000024" class="edge">
<title>Node1&#45;&gt;Node24</title>
<g id="a_edge23_Node000001_Node000024"><a xlink:title=" ">
<path fill="none" stroke="#63b8ff" d="M2638.18,-66.18C2653.1,-56.93 2676.68,-42.32 2694.48,-31.29"/>
<polygon fill="#63b8ff" stroke="#63b8ff" points="2696.24,-34.32 2702.9,-26.07 2692.56,-28.37 2696.24,-34.32"/>
</a>
</g>
</g>
<!-- Node25 -->
<g id="Node000025" class="node">
<title>Node25</title>
<g id="a_Node000025"><a xlink:href="_gauss_legendre4_8hxx.html" target="_top" xlink:title=" ">
<polygon fill="white" stroke="#666666" points="3011.38,-24.88 2828.12,-24.88 2828.12,-5.63 3011.38,-5.63 3011.38,-24.88"/>
<text text-anchor="middle" x="2919.75" y="-11.38" font-family="Helvetica,sans-Serif" font-size="10.00">Sandals/Tableau/GaussLegendre4.hxx</text>
</a>
</g>
</g>
<!-- Node1&#45;&gt;Node25 -->
<g id="edge24_Node000001_Node000025" class="edge">
<title>Node1&#45;&gt;Node25</title>
<g id="a_edge24_Node000001_Node000025"><a xlink:title=" ">
<path fill="none" stroke="#63b8ff" d="M2669.35,-66.05C2721.39,-55.7 2806.56,-38.76 2862.89,-27.56"/>
<polygon fill="#63b8ff" stroke="#63b8ff" points="2863.49,-31.01 2872.61,-25.63 2862.12,-24.14 2863.49,-31.01"/>
</a>
</g>
</g>
<!-- Node26 -->
<g id="Node000026" class="node">
<title>Node26</title>
<g id="a_Node000026"><a xlink:href="_gauss_legendre6_8hxx.html" target="_top" xlink:title=" ">
<polygon fill="white" stroke="#666666" points="3212.38,-24.88 3029.12,-24.88 3029.12,-5.63 3212.38,-5.63 3212.38,-24.88"/>
<text text-anchor="middle" x="3120.75" y="-11.38" font-family="Helvetica,sans-Serif" font-size="10.00">Sandals/Tableau/GaussLegendre6.hxx</text>
</a>
</g>
</g>
<!-- Node1&#45;&gt;Node26 -->
<g id="edge25_Node000001_Node000026" class="edge">
<title>Node1&#45;&gt;Node26</title>
<g id="a_edge25_Node000001_Node000026"><a xlink:title=" ">
<path fill="none" stroke="#63b8ff" d="M2673.32,-70.03C2748.51,-62.19 2895.88,-46.41 3020.75,-30.5 3029.43,-29.39 3038.53,-28.18 3047.56,-26.93"/>
<polygon fill="#63b8ff" stroke="#63b8ff" points="3047.99,-30.41 3057.41,-25.56 3047.02,-23.48 3047.99,-30.41"/>
</a>
</g>
</g>
<!-- Node27 -->
<g id="Node000027" class="node">
<title>Node27</title>
<g id="a_Node000027"><a xlink:href="_heun2_8hxx.html" target="_top" xlink:title=" ">
<polygon fill="white" stroke="#666666" points="3368.88,-24.88 3230.62,-24.88 3230.62,-5.63 3368.88,-5.63 3368.88,-24.88"/>
<text text-anchor="middle" x="3299.75" y="-11.38" font-family="Helvetica,sans-Serif" font-size="10.00">Sandals/Tableau/Heun2.hxx</text>
</a>
</g>
</g>
<!-- Node1&#45;&gt;Node27 -->
<g id="edge26_Node000001_Node000027" class="edge">
<title>Node1&#45;&gt;Node27</title>
<g id="a_edge26_Node000001_Node000027"><a xlink:title=" ">
<path fill="none" stroke="#63b8ff" d="M2673.15,-73.22C2775.72,-68.86 3019.1,-56.5 3221.75,-30.5 3228.74,-29.6 3236.05,-28.5 3243.28,-27.3"/>
<polygon fill="#63b8ff" stroke="#63b8ff" points="3243.76,-30.77 3253.02,-25.61 3242.57,-23.87 3243.76,-30.77"/>
</a>
</g>
</g>
<!-- Node28 -->
<g id="Node000028" class="node">
<title>Node28</title>
<g id="a_Node000028"><a xlink:href="_heun3_8hxx.html" target="_top" xlink:title=" ">
<polygon fill="white" stroke="#666666" points="3524.88,-24.88 3386.62,-24.88 3386.62,-5.63 3524.88,-5.63 3524.88,-24.88"/>
<text text-anchor="middle" x="3455.75" y="-11.38" font-family="Helvetica,sans-Serif" font-size="10.00">Sandals/Tableau/Heun3.hxx</text>
</a>
</g>
</g>
<!-- Node1&#45;&gt;Node28 -->
<g id="edge27_Node000001_Node000028" class="edge">
<title>Node1&#45;&gt;Node28</title>
<g id="a_edge27_Node000001_Node000028"><a xlink:title=" ">
<path fill="none" stroke="#63b8ff" d="M2673.34,-74.27C2794.2,-71.75 3113.46,-62.34 3377.75,-30.5 3385.01,-29.63 3392.62,-28.5 3400.11,-27.27"/>
<polygon fill="#63b8ff" stroke="#63b8ff" points="3400.59,-30.73 3409.85,-25.58 3399.4,-23.84 3400.59,-30.73"/>
</a>
</g>
</g>
<!-- Node29 -->
<g id="Node000029" class="node">
<title>Node29</title>
<g id="a_Node000029"><a xlink:href="_lobatto_i_i_i_a2_8hxx.html" target="_top" xlink:title=" ">
<polygon fill="white" stroke="#666666" points="3706.25,-24.88 3543.25,-24.88 3543.25,-5.63 3706.25,-5.63 3706.25,-24.88"/>
<text text-anchor="middle" x="3624.75" y="-11.38" font-family="Helvetica,sans-Serif" font-size="10.00">Sandals/Tableau/LobattoIIIA2.hxx</text>
</a>
</g>
</g>
<!-- Node1&#45;&gt;Node29 -->
<g id="edge28_Node000001_Node000029" class="edge">
<title>Node1&#45;&gt;Node29</title>
<g id="a_edge28_Node000001_Node000029"><a xlink:title=" ">
<path fill="none" stroke="#63b8ff" d="M2673.21,-74.55C2810.27,-72.54 3206.46,-64.05 3533.75,-30.5 3542.8,-29.57 3552.32,-28.35 3561.65,-27.02"/>
<polygon fill="#63b8ff" stroke="#63b8ff" points="3562.03,-30.5 3571.4,-25.57 3561,-23.58 3562.03,-30.5"/>
</a>
</g>
</g>
<!-- Node30 -->
<g id="Node000030" class="node">
<title>Node30</title>
<g id="a_Node000030"><a xlink:href="_implicit_euler_8hxx.html" target="_top" xlink:title=" ">
<polygon fill="white" stroke="#666666" points="3847,-30.5 3724.5,-30.5 3724.5,0 3847,0 3847,-30.5"/>
<text text-anchor="start" x="3732.5" y="-17" font-family="Helvetica,sans-Serif" font-size="10.00">Sandals/Tableau/Implicit</text>
<text text-anchor="middle" x="3785.75" y="-5.75" font-family="Helvetica,sans-Serif" font-size="10.00">Euler.hxx</text>
</a>
</g>
</g>
<!-- Node1&#45;&gt;Node30 -->
<g id="edge29_Node000001_Node000030" class="edge">
<title>Node1&#45;&gt;Node30</title>
<g id="a_edge29_Node000001_Node000030"><a xlink:title=" ">
<path fill="none" stroke="#63b8ff" d="M2673.3,-74.15C2855.3,-70.43 3487.61,-56.02 3712.64,-30.71"/>
<polygon fill="#63b8ff" stroke="#63b8ff" points="3712.97,-34.19 3722.5,-29.55 3712.16,-27.24 3712.97,-34.19"/>
</a>
</g>
</g>
<!-- Node31 -->
<g id="Node000031" class="node">
<title>Node31</title>
<g id="a_Node000031"><a xlink:href="_m_t_e22_8hxx.html" target="_top" xlink:title=" ">
<polygon fill="white" stroke="#666666" points="4006.38,-24.88 3865.12,-24.88 3865.12,-5.63 4006.38,-5.63 4006.38,-24.88"/>
<text text-anchor="middle" x="3935.75" y="-11.38" font-family="Helvetica,sans-Serif" font-size="10.00">Sandals/Tableau/MTE22.hxx</text>
</a>
</g>
</g>
<!-- Node1&#45;&gt;Node31 -->
<g id="edge30_Node000001_Node000031" class="edge">
<title>Node1&#45;&gt;Node31</title>
<g id="a_edge30_Node000001_Node000031"><a xlink:title=" ">
<path fill="none" stroke="#63b8ff" d="M2673.35,-74.26C2873.29,-70.61 3620.58,-55.58 3855.75,-30.5 3863.57,-29.67 3871.77,-28.52 3879.83,-27.24"/>
<polygon fill="#63b8ff" stroke="#63b8ff" points="3880.28,-30.71 3889.57,-25.6 3879.12,-23.81 3880.28,-30.71"/>
</a>
</g>
</g>
<!-- Node32 -->
<g id="Node000032" class="node">
<title>Node32</title>
<g id="a_Node000032"><a xlink:href="_radau_i_i_a3_8hxx.html" target="_top" xlink:title=" ">
<polygon fill="white" stroke="#666666" points="4180.88,-24.88 4024.62,-24.88 4024.62,-5.63 4180.88,-5.63 4180.88,-24.88"/>
<text text-anchor="middle" x="4102.75" y="-11.38" font-family="Helvetica,sans-Serif" font-size="10.00">Sandals/Tableau/RadauIIA3.hxx</text>
</a>
</g>
</g>
<!-- Node1&#45;&gt;Node32 -->
<g id="edge31_Node000001_Node000032" class="edge">
<title>Node1&#45;&gt;Node32</title>
<g id="a_edge31_Node000001_Node000032"><a xlink:title=" ">
<path fill="none" stroke="#63b8ff" d="M2673.44,-74.4C2889.36,-71.12 3747.28,-56.68 4015.75,-30.5 4024.53,-29.64 4033.77,-28.45 4042.82,-27.11"/>
<polygon fill="#63b8ff" stroke="#63b8ff" points="4043.28,-30.59 4052.63,-25.59 4042.21,-23.67 4043.28,-30.59"/>
</a>
</g>
</g>
<!-- Node33 -->
<g id="Node000033" class="node">
<title>Node33</title>
<g id="a_Node000033"><a xlink:href="_radau_i_i_a5_8hxx.html" target="_top" xlink:title=" ">
<polygon fill="white" stroke="#666666" points="4354.88,-24.88 4198.62,-24.88 4198.62,-5.63 4354.88,-5.63 4354.88,-24.88"/>
<text text-anchor="middle" x="4276.75" y="-11.38" font-family="Helvetica,sans-Serif" font-size="10.00">Sandals/Tableau/RadauIIA5.hxx</text>
</a>
</g>
</g>
<!-- Node1&#45;&gt;Node33 -->
<g id="edge32_Node000001_Node000033" class="edge">
<title>Node1&#45;&gt;Node33</title>
<g id="a_edge32_Node000001_Node000033"><a xlink:title=" ">
<path fill="none" stroke="#63b8ff" d="M2673.29,-74.61C2905.2,-72.05 3884.99,-59.67 4189.75,-30.5 4198.74,-29.64 4208.21,-28.42 4217.46,-27.05"/>
<polygon fill="#63b8ff" stroke="#63b8ff" points="4217.74,-30.55 4227.09,-25.55 4216.67,-23.63 4217.74,-30.55"/>
</a>
</g>
</g>
<!-- Node34 -->
<g id="Node000034" class="node">
<title>Node34</title>
<g id="a_Node000034"><a xlink:href="_ralston2_8hxx.html" target="_top" xlink:title=" ">
<polygon fill="white" stroke="#666666" points="4522.12,-24.88 4373.38,-24.88 4373.38,-5.63 4522.12,-5.63 4522.12,-24.88"/>
<text text-anchor="middle" x="4447.75" y="-11.38" font-family="Helvetica,sans-Serif" font-size="10.00">Sandals/Tableau/Ralston2.hxx</text>
</a>
</g>
</g>
<!-- Node1&#45;&gt;Node34 -->
<g id="edge33_Node000001_Node000034" class="edge">
<title>Node1&#45;&gt;Node34</title>
<g id="a_edge33_Node000001_Node000034"><a xlink:title=" ">
<path fill="none" stroke="#63b8ff" d="M2673.35,-74.81C2920.73,-73.08 4022.76,-63.63 4363.75,-30.5 4372.25,-29.67 4381.18,-28.5 4389.92,-27.17"/>
<polygon fill="#63b8ff" stroke="#63b8ff" points="4390.44,-30.63 4399.76,-25.59 4389.33,-23.72 4390.44,-30.63"/>
</a>
</g>
</g>
<!-- Node35 -->
<g id="Node000035" class="node">
<title>Node35</title>
<g id="a_Node000035"><a xlink:href="_ralston3_8hxx.html" target="_top" xlink:title=" ">
<polygon fill="white" stroke="#666666" points="4689.12,-24.88 4540.38,-24.88 4540.38,-5.63 4689.12,-5.63 4689.12,-24.88"/>
<text text-anchor="middle" x="4614.75" y="-11.38" font-family="Helvetica,sans-Serif" font-size="10.00">Sandals/Tableau/Ralston3.hxx</text>
</a>
</g>
</g>
<!-- Node1&#45;&gt;Node35 -->
<g id="edge34_Node000001_Node000035" class="edge">
<title>Node1&#45;&gt;Node35</title>
<g id="a_edge34_Node000001_Node000035"><a xlink:title=" ">
<path fill="none" stroke="#63b8ff" d="M2673.28,-74.94C2934.55,-73.8 4154.74,-66.6 4530.75,-30.5 4539.25,-29.68 4548.18,-28.51 4556.93,-27.19"/>
<polygon fill="#63b8ff" stroke="#63b8ff" points="4557.44,-30.65 4566.76,-25.61 4556.33,-23.74 4557.44,-30.65"/>
</a>
</g>
</g>
<!-- Node36 -->
<g id="Node000036" class="node">
<title>Node36</title>
<g id="a_Node000036"><a xlink:href="_ralston4_8hxx.html" target="_top" xlink:title=" ">
<polygon fill="white" stroke="#666666" points="4856.12,-24.88 4707.38,-24.88 4707.38,-5.63 4856.12,-5.63 4856.12,-24.88"/>
<text text-anchor="middle" x="4781.75" y="-11.38" font-family="Helvetica,sans-Serif" font-size="10.00">Sandals/Tableau/Ralston4.hxx</text>
</a>
</g>
</g>
<!-- Node1&#45;&gt;Node36 -->
<g id="edge35_Node000001_Node000036" class="edge">
<title>Node1&#45;&gt;Node36</title>
<g id="a_edge35_Node000001_Node000036"><a xlink:title=" ">
<path fill="none" stroke="#63b8ff" d="M2673.49,-75.04C2948.65,-74.45 4286.78,-69.57 4697.75,-30.5 4706.45,-29.67 4715.6,-28.47 4724.54,-27.11"/>
<polygon fill="#63b8ff" stroke="#63b8ff" points="4724.89,-30.6 4734.2,-25.55 4723.77,-23.69 4724.89,-30.6"/>
</a>
</g>
</g>
<!-- Node37 -->
<g id="Node000037" class="node">
<title>Node37</title>
<g id="a_Node000037"><a xlink:href="_r_k4_8hxx.html" target="_top" xlink:title=" ">
<polygon fill="white" stroke="#666666" points="5003.38,-24.88 4874.12,-24.88 4874.12,-5.63 5003.38,-5.63 5003.38,-24.88"/>
<text text-anchor="middle" x="4938.75" y="-11.38" font-family="Helvetica,sans-Serif" font-size="10.00">Sandals/Tableau/RK4.hxx</text>
</a>
</g>
</g>
<!-- Node1&#45;&gt;Node37 -->
<g id="edge36_Node000001_Node000037" class="edge">
<title>Node1&#45;&gt;Node37</title>
<g id="a_edge36_Node000001_Node000037"><a xlink:title=" ">
<path fill="none" stroke="#63b8ff" d="M2673.22,-75.29C2960.69,-76.05 4418.98,-77.51 4864.75,-30.5 4872.01,-29.73 4879.62,-28.63 4887.08,-27.36"/>
<polygon fill="#63b8ff" stroke="#63b8ff" points="4887.52,-30.84 4896.73,-25.61 4886.27,-23.95 4887.52,-30.84"/>
</a>
</g>
</g>
<!-- Node38 -->
<g id="Node000038" class="node">
<title>Node38</title>
<g id="a_Node000038"><a xlink:href="_s_s_p_i_r_k33_8hxx.html" target="_top" xlink:title=" ">
<polygon fill="white" stroke="#666666" points="5179.62,-24.88 5021.88,-24.88 5021.88,-5.63 5179.62,-5.63 5179.62,-24.88"/>
<text text-anchor="middle" x="5100.75" y="-11.38" font-family="Helvetica,sans-Serif" font-size="10.00">Sandals/Tableau/SSPIRK33.hxx</text>
</a>
</g>
</g>
<!-- Node1&#45;&gt;Node38 -->
<g id="edge37_Node000001_Node000038" class="edge">
<title>Node1&#45;&gt;Node38</title>
<g id="a_edge37_Node000001_Node000038"><a xlink:title=" ">
<path fill="none" stroke="#63b8ff" d="M2673.03,-75.16C2970.98,-75.21 4535.03,-73.42 5012.75,-30.5 5021.96,-29.67 5031.65,-28.46 5041.12,-27.08"/>
<polygon fill="#63b8ff" stroke="#63b8ff" points="5041.64,-30.54 5051,-25.56 5040.58,-23.62 5041.64,-30.54"/>
</a>
</g>
</g>
<!-- Node39 -->
<g id="Node000039" class="node">
<title>Node39</title>
<g id="a_Node000039"><a xlink:href="_s_s_p_r_k22_8hxx.html" target="_top" xlink:title=" ">
<polygon fill="white" stroke="#666666" points="5352.12,-24.88 5197.38,-24.88 5197.38,-5.63 5352.12,-5.63 5352.12,-24.88"/>
<text text-anchor="middle" x="5274.75" y="-11.38" font-family="Helvetica,sans-Serif" font-size="10.00">Sandals/Tableau/SSPRK22.hxx</text>
</a>
</g>
</g>
<!-- Node1&#45;&gt;Node39 -->
<g id="edge38_Node000001_Node000039" class="edge">
<title>Node1&#45;&gt;Node39</title>
<g id="a_edge38_Node000001_Node000039"><a xlink:title=" ">
<path fill="none" stroke="#63b8ff" d="M2673.34,-75.26C2984.76,-75.93 4674.1,-77.36 5188.75,-30.5 5197.75,-29.68 5207.23,-28.47 5216.48,-27.09"/>
<polygon fill="#63b8ff" stroke="#63b8ff" points="5216.77,-30.59 5226.1,-25.58 5215.68,-23.67 5216.77,-30.59"/>
</a>
</g>
</g>
<!-- Node40 -->
<g id="Node000040" class="node">
<title>Node40</title>
<g id="a_Node000040"><a xlink:href="_s_s_p_r_k22star_8hxx.html" target="_top" xlink:title=" ">
<polygon fill="white" stroke="#666666" points="5541,-24.88 5370.5,-24.88 5370.5,-5.63 5541,-5.63 5541,-24.88"/>
<text text-anchor="middle" x="5455.75" y="-11.38" font-family="Helvetica,sans-Serif" font-size="10.00">Sandals/Tableau/SSPRK22star.hxx</text>
</a>
</g>
</g>
<!-- Node1&#45;&gt;Node40 -->
<g id="edge39_Node000001_Node000040" class="edge">
<title>Node1&#45;&gt;Node40</title>
<g id="a_edge39_Node000001_Node000040"><a xlink:title=" ">
<path fill="none" stroke="#63b8ff" d="M2673.48,-75.22C2997.24,-75.68 4809.43,-76.14 5360.75,-30.5 5371,-29.65 5381.83,-28.38 5392.36,-26.95"/>
<polygon fill="#63b8ff" stroke="#63b8ff" points="5392.73,-30.43 5402.13,-25.55 5391.74,-23.5 5392.73,-30.43"/>
</a>
</g>
</g>
<!-- Node41 -->
<g id="Node000041" class="node">
<title>Node41</title>
<g id="a_Node000041"><a xlink:href="_s_s_p_r_k33_8hxx.html" target="_top" xlink:title=" ">
<polygon fill="white" stroke="#666666" points="5714.12,-24.88 5559.38,-24.88 5559.38,-5.63 5714.12,-5.63 5714.12,-24.88"/>
<text text-anchor="middle" x="5636.75" y="-11.38" font-family="Helvetica,sans-Serif" font-size="10.00">Sandals/Tableau/SSPRK33.hxx</text>
</a>
</g>
</g>
<!-- Node1&#45;&gt;Node41 -->
<g id="edge40_Node000001_Node000041" class="edge">
<title>Node1&#45;&gt;Node41</title>
<g id="a_edge40_Node000001_Node000041"><a xlink:title=" ">
<path fill="none" stroke="#63b8ff" d="M2673.3,-74.81C3034.15,-72.45 5252.37,-56.98 5549.75,-30.5 5558.85,-29.69 5568.45,-28.48 5577.8,-27.11"/>
<polygon fill="#63b8ff" stroke="#63b8ff" points="5578.21,-30.58 5587.55,-25.59 5577.13,-23.67 5578.21,-30.58"/>
</a>
</g>
</g>
<!-- Node42 -->
<g id="Node000042" class="node">
<title>Node42</title>
<g id="a_Node000042"><a xlink:href="_s_s_p_r_k42_8hxx.html" target="_top" xlink:title=" ">
<polygon fill="white" stroke="#666666" points="5887.12,-24.88 5732.38,-24.88 5732.38,-5.63 5887.12,-5.63 5887.12,-24.88"/>
<text text-anchor="middle" x="5809.75" y="-11.38" font-family="Helvetica,sans-Serif" font-size="10.00">Sandals/Tableau/SSPRK42.hxx</text>
</a>
</g>
</g>
<!-- Node1&#45;&gt;Node42 -->
<g id="edge41_Node000001_Node000042" class="edge">
<title>Node1&#45;&gt;Node42</title>
<g id="a_edge41_Node000001_Node000042"><a xlink:title=" ">
<path fill="none" stroke="#63b8ff" d="M2673.22,-74.86C3045.91,-72.76 5406.94,-58.48 5722.75,-30.5 5731.85,-29.69 5741.45,-28.49 5750.8,-27.11"/>
<polygon fill="#63b8ff" stroke="#63b8ff" points="5751.21,-30.59 5760.55,-25.6 5750.13,-23.67 5751.21,-30.59"/>
</a>
</g>
</g>
<!-- Node43 -->
<g id="Node000043" class="node">
<title>Node43</title>
<g id="a_Node000043"><a xlink:href="_s_s_p_r_k43_8hxx.html" target="_top" xlink:title=" ">
<polygon fill="white" stroke="#666666" points="6060.12,-24.88 5905.38,-24.88 5905.38,-5.63 6060.12,-5.63 6060.12,-24.88"/>
<text text-anchor="middle" x="5982.75" y="-11.38" font-family="Helvetica,sans-Serif" font-size="10.00">Sandals/Tableau/SSPRK43.hxx</text>
</a>
</g>
</g>
<!-- Node1&#45;&gt;Node43 -->
<g id="edge42_Node000001_Node000043" class="edge">
<title>Node1&#45;&gt;Node43</title>
<g id="a_edge42_Node000001_Node000043"><a xlink:title=" ">
<path fill="none" stroke="#63b8ff" d="M2673.2,-74.9C3057.56,-73.05 5561.51,-59.99 5895.75,-30.5 5904.85,-29.7 5914.45,-28.49 5923.8,-27.12"/>
<polygon fill="#63b8ff" stroke="#63b8ff" points="5924.21,-30.6 5933.55,-25.61 5923.13,-23.68 5924.21,-30.6"/>
</a>
</g>
</g>
<!-- Node44 -->
<g id="Node000044" class="node">
<title>Node44</title>
<g id="a_Node000044"><a xlink:href="_s_s_p_r_k93_8hxx.html" target="_top" xlink:title=" ">
<polygon fill="white" stroke="#666666" points="6233.12,-24.88 6078.38,-24.88 6078.38,-5.63 6233.12,-5.63 6233.12,-24.88"/>
<text text-anchor="middle" x="6155.75" y="-11.38" font-family="Helvetica,sans-Serif" font-size="10.00">Sandals/Tableau/SSPRK93.hxx</text>
</a>
</g>
</g>
<!-- Node1&#45;&gt;Node44 -->
<g id="edge43_Node000001_Node000044" class="edge">
<title>Node1&#45;&gt;Node44</title>
<g id="a_edge43_Node000001_Node000044"><a xlink:title=" ">
<path fill="none" stroke="#63b8ff" d="M2673.28,-74.93C3069.33,-73.33 5716.08,-61.49 6068.75,-30.5 6077.96,-29.69 6087.68,-28.47 6097.14,-27.08"/>
<polygon fill="#63b8ff" stroke="#63b8ff" points="6097.66,-30.54 6107.01,-25.54 6096.59,-23.62 6097.66,-30.54"/>
</a>
</g>
</g>
<!-- Node45 -->
<g id="Node000045" class="node">
<title>Node45</title>
<g id="a_Node000045"><a xlink:href="_s_s_p_r_k104_8hxx.html" target="_top" xlink:title=" ">
<polygon fill="white" stroke="#666666" points="6410.75,-24.88 6250.75,-24.88 6250.75,-5.63 6410.75,-5.63 6410.75,-24.88"/>
<text text-anchor="middle" x="6330.75" y="-11.38" font-family="Helvetica,sans-Serif" font-size="10.00">Sandals/Tableau/SSPRK104.hxx</text>
</a>
</g>
</g>
<!-- Node1&#45;&gt;Node45 -->
<g id="edge44_Node000001_Node000045" class="edge">
<title>Node1&#45;&gt;Node45</title>
<g id="a_edge44_Node000001_Node000045"><a xlink:title=" ">
<path fill="none" stroke="#63b8ff" d="M2673.48,-74.95C3081.41,-73.49 5870.63,-62.33 6241.75,-30.5 6251.28,-29.68 6261.32,-28.44 6271.1,-27.03"/>
<polygon fill="#63b8ff" stroke="#63b8ff" points="6271.55,-30.5 6280.91,-25.54 6270.5,-23.58 6271.55,-30.5"/>
</a>
</g>
</g>
</g>
</svg>
