<?xml version="1.0" encoding="UTF-8" standalone="no"?>
<!DOCTYPE svg PUBLIC "-//W3C//DTD SVG 1.1//EN"
 "http://www.w3.org/Graphics/SVG/1.1/DTD/svg11.dtd">
<!-- Generated by graphviz version 12.2.0 (20241103.1931)
 -->
<!-- Title: include/Sandals.hh Pages: 1 -->
<svg width="1572pt" height="94pt"
 viewBox="0.00 0.00 1571.75 93.75" xmlns="http://www.w3.org/2000/svg" xmlns:xlink="http://www.w3.org/1999/xlink">
<g id="graph0" class="graph" transform="scale(1 1) rotate(0) translate(4 89.75)">
<title>include/Sandals.hh</title>
<!-- Node1 -->
<g id="Node000001" class="node">
<title>Node1</title>
<g id="a_Node000001"><a xlink:title=" ">
<polygon fill="#999999" stroke="#666666" points="642,-85.75 543.5,-85.75 543.5,-66.5 642,-66.5 642,-85.75"/>
<text text-anchor="middle" x="592.75" y="-72.25" font-family="Helvetica,sans-Serif" font-size="10.00">include/Sandals.hh</text>
</a>
</g>
</g>
<!-- Node2 -->
<g id="Node000002" class="node">
<title>Node2</title>
<g id="a_Node000002"><a xlink:title=" ">
<polygon fill="#e0e0e0" stroke="#999999" points="53.5,-24.88 0,-24.88 0,-5.63 53.5,-5.63 53.5,-24.88"/>
<text text-anchor="middle" x="26.75" y="-11.38" font-family="Helvetica,sans-Serif" font-size="10.00">iostream</text>
</a>
</g>
</g>
<!-- Node1&#45;&gt;Node2 -->
<g id="edge1_Node000001_Node000002" class="edge">
<title>Node1&#45;&gt;Node2</title>
<g id="a_edge1_Node000001_Node000002"><a xlink:title=" ">
<path fill="none" stroke="#63b8ff" d="M543.28,-75.91C448.46,-76.34 235.16,-72.06 61.75,-30.5 60.12,-30.11 58.46,-29.65 56.8,-29.15"/>
<polygon fill="#63b8ff" stroke="#63b8ff" points="58.05,-25.88 47.45,-25.82 55.7,-32.47 58.05,-25.88"/>
</a>
</g>
</g>
<!-- Node3 -->
<g id="Node000003" class="node">
<title>Node3</title>
<g id="a_Node000003"><a xlink:title=" ">
<polygon fill="#e0e0e0" stroke="#999999" points="108.25,-24.88 71.25,-24.88 71.25,-5.63 108.25,-5.63 108.25,-24.88"/>
<text text-anchor="middle" x="89.75" y="-11.38" font-family="Helvetica,sans-Serif" font-size="10.00">tuple</text>
</a>
</g>
</g>
<!-- Node1&#45;&gt;Node3 -->
<g id="edge2_Node000001_Node000003" class="edge">
<title>Node1&#45;&gt;Node3</title>
<g id="a_edge2_Node000001_Node000003"><a xlink:title=" ">
<path fill="none" stroke="#63b8ff" d="M543.18,-72.83C438.19,-67.58 196.61,-53.36 117.75,-30.5 116.94,-30.27 116.13,-30.01 115.32,-29.73"/>
<polygon fill="#63b8ff" stroke="#63b8ff" points="116.98,-26.63 106.41,-25.92 114.23,-33.07 116.98,-26.63"/>
</a>
</g>
</g>
<!-- Node4 -->
<g id="Node000004" class="node">
<title>Node4</title>
<g id="a_Node000004"><a xlink:title=" ">
<polygon fill="#e0e0e0" stroke="#999999" points="166.75,-24.88 126.75,-24.88 126.75,-5.63 166.75,-5.63 166.75,-24.88"/>
<text text-anchor="middle" x="146.75" y="-11.38" font-family="Helvetica,sans-Serif" font-size="10.00">string</text>
</a>
</g>
</g>
<!-- Node1&#45;&gt;Node4 -->
<g id="edge3_Node000001_Node000004" class="edge">
<title>Node1&#45;&gt;Node4</title>
<g id="a_edge3_Node000001_Node000004"><a xlink:title=" ">
<path fill="none" stroke="#63b8ff" d="M543.21,-75.36C463.99,-74.52 304.61,-67.79 175.75,-30.5 174.78,-30.22 173.81,-29.91 172.84,-29.57"/>
<polygon fill="#63b8ff" stroke="#63b8ff" points="174.58,-26.51 164,-25.86 171.87,-32.96 174.58,-26.51"/>
</a>
</g>
</g>
<!-- Node5 -->
<g id="Node000005" class="node">
<title>Node5</title>
<g id="a_Node000005"><a xlink:title=" ">
<polygon fill="#e0e0e0" stroke="#999999" points="228.25,-24.88 185.25,-24.88 185.25,-5.63 228.25,-5.63 228.25,-24.88"/>
<text text-anchor="middle" x="206.75" y="-11.38" font-family="Helvetica,sans-Serif" font-size="10.00">cmath</text>
</a>
</g>
</g>
<!-- Node1&#45;&gt;Node5 -->
<g id="edge4_Node000001_Node000005" class="edge">
<title>Node1&#45;&gt;Node5</title>
<g id="a_edge4_Node000001_Node000005"><a xlink:title=" ">
<path fill="none" stroke="#63b8ff" d="M543.28,-73.66C473.8,-70.54 343.92,-60.8 237.75,-30.5 236.75,-30.22 235.75,-29.9 234.74,-29.57"/>
<polygon fill="#63b8ff" stroke="#63b8ff" points="236.09,-26.34 225.51,-25.91 233.51,-32.85 236.09,-26.34"/>
</a>
</g>
</g>
<!-- Node6 -->
<g id="Node000006" class="node">
<title>Node6</title>
<g id="a_Node000006"><a xlink:title=" ">
<polygon fill="#e0e0e0" stroke="#999999" points="281.12,-24.88 246.38,-24.88 246.38,-5.63 281.12,-5.63 281.12,-24.88"/>
<text text-anchor="middle" x="263.75" y="-11.38" font-family="Helvetica,sans-Serif" font-size="10.00">map</text>
</a>
</g>
</g>
<!-- Node1&#45;&gt;Node6 -->
<g id="edge5_Node000001_Node000006" class="edge">
<title>Node1&#45;&gt;Node6</title>
<g id="a_edge5_Node000001_Node000006"><a xlink:title=" ">
<path fill="none" stroke="#63b8ff" d="M543.2,-72.94C482.39,-69.09 376.76,-58.64 290.75,-30.5 290.25,-30.34 289.74,-30.16 289.23,-29.98"/>
<polygon fill="#63b8ff" stroke="#63b8ff" points="290.72,-26.81 280.16,-25.94 287.87,-33.2 290.72,-26.81"/>
</a>
</g>
</g>
<!-- Node7 -->
<g id="Node000007" class="node">
<title>Node7</title>
<g id="a_Node000007"><a xlink:title=" ">
<polygon fill="#e0e0e0" stroke="#999999" points="371.88,-24.88 299.62,-24.88 299.62,-5.63 371.88,-5.63 371.88,-24.88"/>
<text text-anchor="middle" x="335.75" y="-11.38" font-family="Helvetica,sans-Serif" font-size="10.00">Eigen/Dense</text>
</a>
</g>
</g>
<!-- Node1&#45;&gt;Node7 -->
<g id="edge6_Node000001_Node000007" class="edge">
<title>Node1&#45;&gt;Node7</title>
<g id="a_edge6_Node000001_Node000007"><a xlink:title=" ">
<path fill="none" stroke="#63b8ff" d="M543.16,-66.13C499.99,-57.96 435.86,-44.99 380.75,-30.5 378.46,-29.9 376.11,-29.25 373.75,-28.57"/>
<polygon fill="#63b8ff" stroke="#63b8ff" points="374.78,-25.23 364.2,-25.71 372.78,-31.94 374.78,-25.23"/>
</a>
</g>
</g>
<!-- Node8 -->
<g id="Node000008" class="node">
<title>Node8</title>
<g id="a_Node000008"><a xlink:href="_nonlinear_solver_8hxx.html" target="_top" xlink:title=" ">
<polygon fill="white" stroke="#666666" points="513.38,-30.5 390.12,-30.5 390.12,0 513.38,0 513.38,-30.5"/>
<text text-anchor="start" x="398.12" y="-17" font-family="Helvetica,sans-Serif" font-size="10.00">Sandals/NonlinearSolver</text>
<text text-anchor="middle" x="451.75" y="-5.75" font-family="Helvetica,sans-Serif" font-size="10.00">/NonlinearSolver.hxx</text>
</a>
</g>
</g>
<!-- Node1&#45;&gt;Node8 -->
<g id="edge7_Node000001_Node000008" class="edge">
<title>Node1&#45;&gt;Node8</title>
<g id="a_edge7_Node000001_Node000008"><a xlink:title=" ">
<path fill="none" stroke="#63b8ff" d="M571.03,-66.05C551.51,-57.91 522.22,-45.67 497.55,-35.37"/>
<polygon fill="#63b8ff" stroke="#63b8ff" points="498.92,-32.15 488.34,-31.53 496.22,-38.61 498.92,-32.15"/>
</a>
</g>
</g>
<!-- Node9 -->
<g id="Node000009" class="node">
<title>Node9</title>
<g id="a_Node000009"><a xlink:href="_newton_8hxx.html" target="_top" xlink:title=" ">
<polygon fill="white" stroke="#666666" points="654.38,-30.5 531.12,-30.5 531.12,0 654.38,0 654.38,-30.5"/>
<text text-anchor="start" x="539.12" y="-17" font-family="Helvetica,sans-Serif" font-size="10.00">Sandals/NonlinearSolver</text>
<text text-anchor="middle" x="592.75" y="-5.75" font-family="Helvetica,sans-Serif" font-size="10.00">/Newton.hxx</text>
</a>
</g>
</g>
<!-- Node1&#45;&gt;Node9 -->
<g id="edge8_Node000001_Node000009" class="edge">
<title>Node1&#45;&gt;Node9</title>
<g id="a_edge8_Node000001_Node000009"><a xlink:title=" ">
<path fill="none" stroke="#63b8ff" d="M592.75,-66.18C592.75,-59.73 592.75,-50.66 592.75,-42.01"/>
<polygon fill="#63b8ff" stroke="#63b8ff" points="596.25,-42.3 592.75,-32.3 589.25,-42.3 596.25,-42.3"/>
</a>
</g>
</g>
<!-- Node10 -->
<g id="Node000010" class="node">
<title>Node10</title>
<g id="a_Node000010"><a xlink:href="_broyden_8hxx.html" target="_top" xlink:title=" ">
<polygon fill="white" stroke="#666666" points="795.38,-30.5 672.12,-30.5 672.12,0 795.38,0 795.38,-30.5"/>
<text text-anchor="start" x="680.12" y="-17" font-family="Helvetica,sans-Serif" font-size="10.00">Sandals/NonlinearSolver</text>
<text text-anchor="middle" x="733.75" y="-5.75" font-family="Helvetica,sans-Serif" font-size="10.00">/Broyden.hxx</text>
</a>
</g>
</g>
<!-- Node1&#45;&gt;Node10 -->
<g id="edge9_Node000001_Node000010" class="edge">
<title>Node1&#45;&gt;Node10</title>
<g id="a_edge9_Node000001_Node000010"><a xlink:title=" ">
<path fill="none" stroke="#63b8ff" d="M614.47,-66.05C633.99,-57.91 663.28,-45.67 687.95,-35.37"/>
<polygon fill="#63b8ff" stroke="#63b8ff" points="689.28,-38.61 697.16,-31.53 686.58,-32.15 689.28,-38.61"/>
</a>
</g>
</g>
<!-- Node11 -->
<g id="Node000011" class="node">
<title>Node11</title>
<g id="a_Node000011"><a xlink:href="_implicit_8hxx.html" target="_top" xlink:title=" ">
<polygon fill="white" stroke="#666666" points="919.75,-30.5 813.75,-30.5 813.75,0 919.75,0 919.75,-30.5"/>
<text text-anchor="start" x="821.75" y="-17" font-family="Helvetica,sans-Serif" font-size="10.00">Sandals/RungeKutta</text>
<text text-anchor="middle" x="866.75" y="-5.75" font-family="Helvetica,sans-Serif" font-size="10.00">/System/Implicit.hxx</text>
</a>
</g>
</g>
<!-- Node1&#45;&gt;Node11 -->
<g id="edge10_Node000001_Node000011" class="edge">
<title>Node1&#45;&gt;Node11</title>
<g id="a_edge10_Node000001_Node000011"><a xlink:title=" ">
<path fill="none" stroke="#63b8ff" d="M637.06,-66.05C677.64,-57.68 739.65,-44.75 802.43,-30.99"/>
<polygon fill="#63b8ff" stroke="#63b8ff" points="802.84,-34.48 811.85,-28.92 801.33,-27.65 802.84,-34.48"/>
</a>
</g>
</g>
<!-- Node12 -->
<g id="Node000012" class="node">
<title>Node12</title>
<g id="a_Node000012"><a xlink:href="_explicit_8hxx.html" target="_top" xlink:title=" ">
<polygon fill="white" stroke="#666666" points="1044.12,-30.5 937.38,-30.5 937.38,0 1044.12,0 1044.12,-30.5"/>
<text text-anchor="start" x="945.38" y="-17" font-family="Helvetica,sans-Serif" font-size="10.00">Sandals/RungeKutta</text>
<text text-anchor="middle" x="990.75" y="-5.75" font-family="Helvetica,sans-Serif" font-size="10.00">/System/Explicit.hxx</text>
</a>
</g>
</g>
<!-- Node1&#45;&gt;Node12 -->
<g id="edge11_Node000001_Node000012" class="edge">
<title>Node1&#45;&gt;Node12</title>
<g id="a_edge11_Node000001_Node000012"><a xlink:title=" ">
<path fill="none" stroke="#63b8ff" d="M642.22,-70.03C705.71,-63.16 819.45,-49.76 925.79,-30.94"/>
<polygon fill="#63b8ff" stroke="#63b8ff" points="926.33,-34.4 935.56,-29.19 925.09,-27.51 926.33,-34.4"/>
</a>
</g>
</g>
<!-- Node13 -->
<g id="Node000013" class="node">
<title>Node13</title>
<g id="a_Node000013"><a xlink:href="_linear_8hxx.html" target="_top" xlink:title=" ">
<polygon fill="white" stroke="#666666" points="1167.75,-30.5 1061.75,-30.5 1061.75,0 1167.75,0 1167.75,-30.5"/>
<text text-anchor="start" x="1069.75" y="-17" font-family="Helvetica,sans-Serif" font-size="10.00">Sandals/RungeKutta</text>
<text text-anchor="middle" x="1114.75" y="-5.75" font-family="Helvetica,sans-Serif" font-size="10.00">/System/Linear.hxx</text>
</a>
</g>
</g>
<!-- Node1&#45;&gt;Node13 -->
<g id="edge12_Node000001_Node000013" class="edge">
<title>Node1&#45;&gt;Node13</title>
<g id="a_edge12_Node000001_Node000013"><a xlink:title=" ">
<path fill="none" stroke="#63b8ff" d="M642.37,-72.42C725.01,-67.45 896.19,-55.22 1050.33,-30.75"/>
<polygon fill="#63b8ff" stroke="#63b8ff" points="1050.59,-34.26 1059.91,-29.21 1049.48,-27.35 1050.59,-34.26"/>
</a>
</g>
</g>
<!-- Node14 -->
<g id="Node000014" class="node">
<title>Node14</title>
<g id="a_Node000014"><a xlink:href="_semi_explicit_8hxx.html" target="_top" xlink:title=" ">
<polygon fill="white" stroke="#666666" points="1315.38,-30.5 1186.12,-30.5 1186.12,0 1315.38,0 1315.38,-30.5"/>
<text text-anchor="start" x="1194.12" y="-17" font-family="Helvetica,sans-Serif" font-size="10.00">Sandals/RungeKutta</text>
<text text-anchor="middle" x="1250.75" y="-5.75" font-family="Helvetica,sans-Serif" font-size="10.00">/System/SemiExplicit.hxx</text>
</a>
</g>
</g>
<!-- Node1&#45;&gt;Node14 -->
<g id="edge13_Node000001_Node000014" class="edge">
<title>Node1&#45;&gt;Node14</title>
<g id="a_edge13_Node000001_Node000014"><a xlink:title=" ">
<path fill="none" stroke="#63b8ff" d="M642.17,-73.25C741.21,-69.09 971.21,-57.35 1174.65,-30.67"/>
<polygon fill="#63b8ff" stroke="#63b8ff" points="1174.89,-34.17 1184.35,-29.38 1173.97,-27.23 1174.89,-34.17"/>
</a>
</g>
</g>
<!-- Node15 -->
<g id="Node000015" class="node">
<title>Node15</title>
<g id="a_Node000015"><a xlink:href="_runge_kutta_8hxx.html" target="_top" xlink:title=" ">
<polygon fill="white" stroke="#666666" points="1439.75,-30.5 1333.75,-30.5 1333.75,0 1439.75,0 1439.75,-30.5"/>
<text text-anchor="start" x="1341.75" y="-17" font-family="Helvetica,sans-Serif" font-size="10.00">Sandals/RungeKutta</text>
<text text-anchor="middle" x="1386.75" y="-5.75" font-family="Helvetica,sans-Serif" font-size="10.00">/RungeKutta.hxx</text>
</a>
</g>
</g>
<!-- Node1&#45;&gt;Node15 -->
<g id="edge14_Node000001_Node000015" class="edge">
<title>Node1&#45;&gt;Node15</title>
<g id="a_edge14_Node000001_Node000015"><a xlink:title=" ">
<path fill="none" stroke="#63b8ff" d="M642.3,-74.92C759.16,-73.82 1061.18,-67.48 1322.2,-30.7"/>
<polygon fill="#63b8ff" stroke="#63b8ff" points="1322.52,-34.19 1331.92,-29.31 1321.53,-27.26 1322.52,-34.19"/>
</a>
</g>
</g>
<!-- Node16 -->
<g id="Node000016" class="node">
<title>Node16</title>
<g id="a_Node000016"><a xlink:href="_r_k4_8hxx.html" target="_top" xlink:title=" ">
<polygon fill="white" stroke="#666666" points="1563.75,-30.5 1457.75,-30.5 1457.75,0 1563.75,0 1563.75,-30.5"/>
<text text-anchor="start" x="1465.75" y="-17" font-family="Helvetica,sans-Serif" font-size="10.00">Sandals/RungeKutta</text>
<text text-anchor="middle" x="1510.75" y="-5.75" font-family="Helvetica,sans-Serif" font-size="10.00">/Tableau/RK4.hxx</text>
</a>
</g>
</g>
<!-- Node1&#45;&gt;Node16 -->
<g id="edge15_Node000001_Node000016" class="edge">
<title>Node1&#45;&gt;Node16</title>
<g id="a_edge15_Node000001_Node000016"><a xlink:title=" ">
<path fill="none" stroke="#63b8ff" d="M642.25,-75.54C772.54,-76 1135.77,-73.15 1446.4,-30.65"/>
<polygon fill="#63b8ff" stroke="#63b8ff" points="1446.5,-34.17 1455.93,-29.33 1445.54,-27.24 1446.5,-34.17"/>
</a>
</g>
</g>
</g>
</svg>
