<?xml version="1.0" encoding="UTF-8" standalone="no"?>
<!DOCTYPE svg PUBLIC "-//W3C//DTD SVG 1.1//EN"
 "http://www.w3.org/Graphics/SVG/1.1/DTD/svg11.dtd">
<!-- Generated by graphviz version 12.2.0 (20241103.1931)
 -->
<!-- Title: include/Sandals.hh Pages: 1 -->
<svg width="1197pt" height="160pt"
 viewBox="0.00 0.00 1196.75 160.25" xmlns="http://www.w3.org/2000/svg" xmlns:xlink="http://www.w3.org/1999/xlink">
<g id="graph0" class="graph" transform="scale(1 1) rotate(0) translate(4 156.25)">
<title>include/Sandals.hh</title>
<!-- Node1 -->
<g id="Node000001" class="node">
<title>Node1</title>
<g id="a_Node000001"><a xlink:title=" ">
<polygon fill="#999999" stroke="#666666" points="449,-152.25 350.5,-152.25 350.5,-133 449,-133 449,-152.25"/>
<text text-anchor="middle" x="399.75" y="-138.75" font-family="Helvetica,sans-Serif" font-size="10.00">include/Sandals.hh</text>
</a>
</g>
</g>
<!-- Node2 -->
<g id="Node000002" class="node">
<title>Node2</title>
<g id="a_Node000002"><a xlink:title=" ">
<polygon fill="#e0e0e0" stroke="#999999" points="53.5,-91.38 0,-91.38 0,-72.12 53.5,-72.12 53.5,-91.38"/>
<text text-anchor="middle" x="26.75" y="-77.88" font-family="Helvetica,sans-Serif" font-size="10.00">iostream</text>
</a>
</g>
</g>
<!-- Node1&#45;&gt;Node2 -->
<g id="edge1_Node000001_Node000002" class="edge">
<title>Node1&#45;&gt;Node2</title>
<g id="a_edge1_Node000001_Node000002"><a xlink:title=" ">
<path fill="none" stroke="#63b8ff" d="M350.01,-139.03C283.41,-134.67 162.02,-123.56 61.75,-97 60.16,-96.58 58.55,-96.11 56.94,-95.59"/>
<polygon fill="#63b8ff" stroke="#63b8ff" points="58.46,-92.42 47.86,-92.3 56.07,-99 58.46,-92.42"/>
</a>
</g>
</g>
<!-- Node3 -->
<g id="Node000003" class="node">
<title>Node3</title>
<g id="a_Node000003"><a xlink:title=" ">
<polygon fill="#e0e0e0" stroke="#999999" points="108.25,-91.38 71.25,-91.38 71.25,-72.12 108.25,-72.12 108.25,-91.38"/>
<text text-anchor="middle" x="89.75" y="-77.88" font-family="Helvetica,sans-Serif" font-size="10.00">tuple</text>
</a>
</g>
</g>
<!-- Node1&#45;&gt;Node3 -->
<g id="edge2_Node000001_Node000003" class="edge">
<title>Node1&#45;&gt;Node3</title>
<g id="a_edge2_Node000001_Node000003"><a xlink:title=" ">
<path fill="none" stroke="#63b8ff" d="M350,-138.48C292.79,-133.79 196.6,-122.59 117.75,-97 117.1,-96.79 116.45,-96.57 115.8,-96.33"/>
<polygon fill="#63b8ff" stroke="#63b8ff" points="117.32,-93.18 106.76,-92.39 114.53,-99.59 117.32,-93.18"/>
</a>
</g>
</g>
<!-- Node4 -->
<g id="Node000004" class="node">
<title>Node4</title>
<g id="a_Node000004"><a xlink:title=" ">
<polygon fill="#e0e0e0" stroke="#999999" points="166.75,-91.38 126.75,-91.38 126.75,-72.12 166.75,-72.12 166.75,-91.38"/>
<text text-anchor="middle" x="146.75" y="-77.88" font-family="Helvetica,sans-Serif" font-size="10.00">string</text>
</a>
</g>
</g>
<!-- Node1&#45;&gt;Node4 -->
<g id="edge3_Node000001_Node000004" class="edge">
<title>Node1&#45;&gt;Node4</title>
<g id="a_edge3_Node000001_Node000004"><a xlink:title=" ">
<path fill="none" stroke="#63b8ff" d="M350.13,-135.27C304.33,-128.57 234.83,-116.28 176.75,-97 175.95,-96.73 175.14,-96.45 174.33,-96.16"/>
<polygon fill="#63b8ff" stroke="#63b8ff" points="175.87,-93.01 165.3,-92.37 173.17,-99.46 175.87,-93.01"/>
</a>
</g>
</g>
<!-- Node5 -->
<g id="Node000005" class="node">
<title>Node5</title>
<g id="a_Node000005"><a xlink:title=" ">
<polygon fill="#e0e0e0" stroke="#999999" points="228.25,-91.38 185.25,-91.38 185.25,-72.12 228.25,-72.12 228.25,-91.38"/>
<text text-anchor="middle" x="206.75" y="-77.88" font-family="Helvetica,sans-Serif" font-size="10.00">cmath</text>
</a>
</g>
</g>
<!-- Node1&#45;&gt;Node5 -->
<g id="edge4_Node000001_Node000005" class="edge">
<title>Node1&#45;&gt;Node5</title>
<g id="a_edge4_Node000001_Node000005"><a xlink:title=" ">
<path fill="none" stroke="#63b8ff" d="M359.91,-132.56C326.76,-124.57 278.58,-111.9 237.75,-97 237.11,-96.77 236.46,-96.52 235.81,-96.27"/>
<polygon fill="#63b8ff" stroke="#63b8ff" points="237.2,-93.06 226.63,-92.42 234.5,-99.52 237.2,-93.06"/>
</a>
</g>
</g>
<!-- Node6 -->
<g id="Node000006" class="node">
<title>Node6</title>
<g id="a_Node000006"><a xlink:title=" ">
<polygon fill="#e0e0e0" stroke="#999999" points="281.12,-91.38 246.38,-91.38 246.38,-72.12 281.12,-72.12 281.12,-91.38"/>
<text text-anchor="middle" x="263.75" y="-77.88" font-family="Helvetica,sans-Serif" font-size="10.00">map</text>
</a>
</g>
</g>
<!-- Node1&#45;&gt;Node6 -->
<g id="edge5_Node000001_Node000006" class="edge">
<title>Node1&#45;&gt;Node6</title>
<g id="a_edge5_Node000001_Node000006"><a xlink:title=" ">
<path fill="none" stroke="#63b8ff" d="M375.65,-132.53C353.37,-123.95 319.46,-110.42 290.75,-97 290.64,-96.95 290.53,-96.9 290.43,-96.85"/>
<polygon fill="#63b8ff" stroke="#63b8ff" points="292.05,-93.75 281.54,-92.42 288.93,-100.01 292.05,-93.75"/>
</a>
</g>
</g>
<!-- Node7 -->
<g id="Node000007" class="node">
<title>Node7</title>
<g id="a_Node000007"><a xlink:title=" ">
<polygon fill="#e0e0e0" stroke="#999999" points="371.88,-91.38 299.62,-91.38 299.62,-72.12 371.88,-72.12 371.88,-91.38"/>
<text text-anchor="middle" x="335.75" y="-77.88" font-family="Helvetica,sans-Serif" font-size="10.00">Eigen/Dense</text>
</a>
</g>
</g>
<!-- Node1&#45;&gt;Node7 -->
<g id="edge6_Node000001_Node000007" class="edge">
<title>Node1&#45;&gt;Node7</title>
<g id="a_edge6_Node000001_Node000007"><a xlink:title=" ">
<path fill="none" stroke="#63b8ff" d="M390.03,-132.68C380.44,-123.87 365.56,-110.18 353.81,-99.36"/>
<polygon fill="#63b8ff" stroke="#63b8ff" points="356.4,-97 346.68,-92.8 351.67,-102.15 356.4,-97"/>
</a>
</g>
</g>
<!-- Node8 -->
<g id="Node000008" class="node">
<title>Node8</title>
<g id="a_Node000008"><a xlink:href="_nonlinear_solver_8hxx.html" target="_top" xlink:title=" ">
<polygon fill="white" stroke="#666666" points="506.38,-30.5 383.12,-30.5 383.12,0 506.38,0 506.38,-30.5"/>
<text text-anchor="start" x="391.12" y="-17" font-family="Helvetica,sans-Serif" font-size="10.00">Sandals/NonlinearSolver</text>
<text text-anchor="middle" x="444.75" y="-5.75" font-family="Helvetica,sans-Serif" font-size="10.00">/NonlinearSolver.hxx</text>
</a>
</g>
</g>
<!-- Node1&#45;&gt;Node8 -->
<g id="edge7_Node000001_Node000008" class="edge">
<title>Node1&#45;&gt;Node8</title>
<g id="a_edge7_Node000001_Node000008"><a xlink:title=" ">
<path fill="none" stroke="#63b8ff" d="M401.33,-132.63C404,-118.33 409.97,-89.64 418.75,-66.5 422.04,-57.82 426.45,-48.69 430.7,-40.64"/>
<polygon fill="#63b8ff" stroke="#63b8ff" points="433.63,-42.57 435.36,-32.12 427.49,-39.21 433.63,-42.57"/>
</a>
</g>
</g>
<!-- Node9 -->
<g id="Node000009" class="node">
<title>Node9</title>
<g id="a_Node000009"><a xlink:href="_newton_8hxx.html" target="_top" xlink:title=" ">
<polygon fill="white" stroke="#666666" points="551.38,-97 428.12,-97 428.12,-66.5 551.38,-66.5 551.38,-97"/>
<text text-anchor="start" x="436.12" y="-83.5" font-family="Helvetica,sans-Serif" font-size="10.00">Sandals/NonlinearSolver</text>
<text text-anchor="middle" x="489.75" y="-72.25" font-family="Helvetica,sans-Serif" font-size="10.00">/Newton.hxx</text>
</a>
</g>
</g>
<!-- Node1&#45;&gt;Node9 -->
<g id="edge8_Node000001_Node000009" class="edge">
<title>Node1&#45;&gt;Node9</title>
<g id="a_edge8_Node000001_Node000009"><a xlink:title=" ">
<path fill="none" stroke="#63b8ff" d="M413.42,-132.68C425.2,-124.98 442.66,-113.55 457.91,-103.58"/>
<polygon fill="#63b8ff" stroke="#63b8ff" points="459.82,-106.51 466.27,-98.11 455.98,-100.66 459.82,-106.51"/>
</a>
</g>
</g>
<!-- Node10 -->
<g id="Node000010" class="node">
<title>Node10</title>
<g id="a_Node000010"><a xlink:href="_broyden_8hxx.html" target="_top" xlink:title=" ">
<polygon fill="white" stroke="#666666" points="692.38,-97 569.12,-97 569.12,-66.5 692.38,-66.5 692.38,-97"/>
<text text-anchor="start" x="577.12" y="-83.5" font-family="Helvetica,sans-Serif" font-size="10.00">Sandals/NonlinearSolver</text>
<text text-anchor="middle" x="630.75" y="-72.25" font-family="Helvetica,sans-Serif" font-size="10.00">/Broyden.hxx</text>
</a>
</g>
</g>
<!-- Node1&#45;&gt;Node10 -->
<g id="edge10_Node000001_Node000010" class="edge">
<title>Node1&#45;&gt;Node10</title>
<g id="a_edge10_Node000001_Node000010"><a xlink:title=" ">
<path fill="none" stroke="#63b8ff" d="M435.34,-132.55C469.03,-123.97 520.51,-110.85 562.18,-100.23"/>
<polygon fill="#63b8ff" stroke="#63b8ff" points="562.8,-103.68 571.63,-97.82 561.07,-96.9 562.8,-103.68"/>
</a>
</g>
</g>
<!-- Node11 -->
<g id="Node000011" class="node">
<title>Node11</title>
<g id="a_Node000011"><a xlink:href="_implicit_8hxx.html" target="_top" xlink:title=" ">
<polygon fill="white" stroke="#666666" points="816.75,-97 710.75,-97 710.75,-66.5 816.75,-66.5 816.75,-97"/>
<text text-anchor="start" x="718.75" y="-83.5" font-family="Helvetica,sans-Serif" font-size="10.00">Sandals/RungeKutta</text>
<text text-anchor="middle" x="763.75" y="-72.25" font-family="Helvetica,sans-Serif" font-size="10.00">/System/Implicit.hxx</text>
</a>
</g>
</g>
<!-- Node1&#45;&gt;Node11 -->
<g id="edge11_Node000001_Node000011" class="edge">
<title>Node1&#45;&gt;Node11</title>
<g id="a_edge11_Node000001_Node000011"><a xlink:title=" ">
<path fill="none" stroke="#63b8ff" d="M449.39,-135.52C507.11,-128.14 605.49,-114.74 699.26,-97.38"/>
<polygon fill="#63b8ff" stroke="#63b8ff" points="699.7,-100.86 708.88,-95.58 698.41,-93.98 699.7,-100.86"/>
</a>
</g>
</g>
<!-- Node12 -->
<g id="Node000012" class="node">
<title>Node12</title>
<g id="a_Node000012"><a xlink:href="_explicit_8hxx.html" target="_top" xlink:title=" ">
<polygon fill="white" stroke="#666666" points="941.12,-97 834.38,-97 834.38,-66.5 941.12,-66.5 941.12,-97"/>
<text text-anchor="start" x="842.38" y="-83.5" font-family="Helvetica,sans-Serif" font-size="10.00">Sandals/RungeKutta</text>
<text text-anchor="middle" x="887.75" y="-72.25" font-family="Helvetica,sans-Serif" font-size="10.00">/System/Explicit.hxx</text>
</a>
</g>
</g>
<!-- Node1&#45;&gt;Node12 -->
<g id="edge12_Node000001_Node000012" class="edge">
<title>Node1&#45;&gt;Node12</title>
<g id="a_edge12_Node000001_Node000012"><a xlink:title=" ">
<path fill="none" stroke="#63b8ff" d="M449.21,-138.4C526.86,-132.92 682.27,-120.22 823.09,-97.32"/>
<polygon fill="#63b8ff" stroke="#63b8ff" points="823.27,-100.84 832.57,-95.76 822.13,-93.93 823.27,-100.84"/>
</a>
</g>
</g>
<!-- Node13 -->
<g id="Node000013" class="node">
<title>Node13</title>
<g id="a_Node000013"><a xlink:href="_runge_kutta_8hxx.html" target="_top" xlink:title=" ">
<polygon fill="white" stroke="#666666" points="1064.75,-97 958.75,-97 958.75,-66.5 1064.75,-66.5 1064.75,-97"/>
<text text-anchor="start" x="966.75" y="-83.5" font-family="Helvetica,sans-Serif" font-size="10.00">Sandals/RungeKutta</text>
<text text-anchor="middle" x="1011.75" y="-72.25" font-family="Helvetica,sans-Serif" font-size="10.00">/RungeKutta.hxx</text>
</a>
</g>
</g>
<!-- Node1&#45;&gt;Node13 -->
<g id="edge13_Node000001_Node000013" class="edge">
<title>Node1&#45;&gt;Node13</title>
<g id="a_edge13_Node000001_Node000013"><a xlink:title=" ">
<path fill="none" stroke="#63b8ff" d="M449.33,-140.01C544.18,-136.4 757.99,-125.76 947.14,-97.25"/>
<polygon fill="#63b8ff" stroke="#63b8ff" points="947.56,-100.73 956.91,-95.76 946.5,-93.81 947.56,-100.73"/>
</a>
</g>
</g>
<!-- Node14 -->
<g id="Node000014" class="node">
<title>Node14</title>
<g id="a_Node000014"><a xlink:href="_r_k4_8hxx.html" target="_top" xlink:title=" ">
<polygon fill="white" stroke="#666666" points="1188.75,-97 1082.75,-97 1082.75,-66.5 1188.75,-66.5 1188.75,-97"/>
<text text-anchor="start" x="1090.75" y="-83.5" font-family="Helvetica,sans-Serif" font-size="10.00">Sandals/RungeKutta</text>
<text text-anchor="middle" x="1135.75" y="-72.25" font-family="Helvetica,sans-Serif" font-size="10.00">/Tableau/RK4.hxx</text>
</a>
</g>
</g>
<!-- Node1&#45;&gt;Node14 -->
<g id="edge14_Node000001_Node000014" class="edge">
<title>Node1&#45;&gt;Node14</title>
<g id="a_edge14_Node000001_Node000014"><a xlink:title=" ">
<path fill="none" stroke="#63b8ff" d="M449.08,-141.05C559.11,-139.2 832.97,-131.37 1071.11,-97.22"/>
<polygon fill="#63b8ff" stroke="#63b8ff" points="1071.53,-100.7 1080.92,-95.8 1070.52,-93.77 1071.53,-100.7"/>
</a>
</g>
</g>
<!-- Node9&#45;&gt;Node8 -->
<g id="edge9_Node000009_Node000008" class="edge">
<title>Node9&#45;&gt;Node8</title>
<g id="a_edge9_Node000009_Node000008"><a xlink:title=" ">
<path fill="none" stroke="#63b8ff" d="M479.54,-66.11C474.19,-58.44 467.5,-48.86 461.42,-40.15"/>
<polygon fill="#63b8ff" stroke="#63b8ff" points="464.38,-38.27 455.79,-32.07 458.64,-42.27 464.38,-38.27"/>
</a>
</g>
</g>
</g>
</svg>
