<?xml version="1.0" encoding="UTF-8" standalone="no"?>
<!DOCTYPE svg PUBLIC "-//W3C//DTD SVG 1.1//EN"
 "http://www.w3.org/Graphics/SVG/1.1/DTD/svg11.dtd">
<!-- Generated by graphviz version 12.2.1 (20241206.2353)
 -->
<!-- Title: include/Sandals.hh Pages: 1 -->
<svg width="6335pt" height="94pt"
 viewBox="0.00 0.00 6334.75 93.75" xmlns="http://www.w3.org/2000/svg" xmlns:xlink="http://www.w3.org/1999/xlink">
<g id="graph0" class="graph" transform="scale(1 1) rotate(0) translate(4 89.75)">
<title>include/Sandals.hh</title>
<!-- Node1 -->
<g id="Node000001" class="node">
<title>Node1</title>
<g id="a_Node000001"><a xlink:title=" ">
<polygon fill="#999999" stroke="#666666" points="2589,-85.75 2490.5,-85.75 2490.5,-66.5 2589,-66.5 2589,-85.75"/>
<text text-anchor="middle" x="2539.75" y="-72.25" font-family="Helvetica,sans-Serif" font-size="10.00">include/Sandals.hh</text>
</a>
</g>
</g>
<!-- Node2 -->
<g id="Node000002" class="node">
<title>Node2</title>
<g id="a_Node000002"><a xlink:title=" ">
<polygon fill="#e0e0e0" stroke="#999999" points="53.5,-24.88 0,-24.88 0,-5.63 53.5,-5.63 53.5,-24.88"/>
<text text-anchor="middle" x="26.75" y="-11.38" font-family="Helvetica,sans-Serif" font-size="10.00">iostream</text>
</a>
</g>
</g>
<!-- Node1&#45;&gt;Node2 -->
<g id="edge1_Node000001_Node000002" class="edge">
<title>Node1&#45;&gt;Node2</title>
<g id="a_edge1_Node000001_Node000002"><a xlink:title=" ">
<path fill="none" stroke="#63b8ff" d="M2490.1,-75.3C2161.78,-76.29 308.62,-79.69 62.75,-30.5 60.71,-30.09 58.64,-29.58 56.58,-28.98"/>
<polygon fill="#63b8ff" stroke="#63b8ff" points="57.82,-25.71 47.22,-25.75 55.53,-32.32 57.82,-25.71"/>
</a>
</g>
</g>
<!-- Node3 -->
<g id="Node000003" class="node">
<title>Node3</title>
<g id="a_Node000003"><a xlink:title=" ">
<polygon fill="#e0e0e0" stroke="#999999" points="111.75,-24.88 71.75,-24.88 71.75,-5.63 111.75,-5.63 111.75,-24.88"/>
<text text-anchor="middle" x="91.75" y="-11.38" font-family="Helvetica,sans-Serif" font-size="10.00">string</text>
</a>
</g>
</g>
<!-- Node1&#45;&gt;Node3 -->
<g id="edge2_Node000001_Node000003" class="edge">
<title>Node1&#45;&gt;Node3</title>
<g id="a_edge2_Node000001_Node000003"><a xlink:title=" ">
<path fill="none" stroke="#63b8ff" d="M2490.01,-74.82C2155.19,-72.7 239.94,-59.36 120.75,-30.5 119.58,-30.22 118.4,-29.88 117.22,-29.5"/>
<polygon fill="#63b8ff" stroke="#63b8ff" points="118.91,-26.41 108.33,-25.83 116.24,-32.88 118.91,-26.41"/>
</a>
</g>
</g>
<!-- Node4 -->
<g id="Node000004" class="node">
<title>Node4</title>
<g id="a_Node000004"><a xlink:title=" ">
<polygon fill="#e0e0e0" stroke="#999999" points="173.25,-24.88 130.25,-24.88 130.25,-5.63 173.25,-5.63 173.25,-24.88"/>
<text text-anchor="middle" x="151.75" y="-11.38" font-family="Helvetica,sans-Serif" font-size="10.00">cmath</text>
</a>
</g>
</g>
<!-- Node1&#45;&gt;Node4 -->
<g id="edge3_Node000001_Node000004" class="edge">
<title>Node1&#45;&gt;Node4</title>
<g id="a_edge3_Node000001_Node000004"><a xlink:title=" ">
<path fill="none" stroke="#63b8ff" d="M2490.21,-74.78C2160.93,-72.42 297.98,-57.86 181.75,-30.5 180.54,-30.22 179.33,-29.88 178.11,-29.5"/>
<polygon fill="#63b8ff" stroke="#63b8ff" points="179.47,-26.27 168.89,-25.81 176.88,-32.77 179.47,-26.27"/>
</a>
</g>
</g>
<!-- Node5 -->
<g id="Node000005" class="node">
<title>Node5</title>
<g id="a_Node000005"><a xlink:title=" ">
<polygon fill="#e0e0e0" stroke="#999999" points="234.25,-24.88 191.25,-24.88 191.25,-5.63 234.25,-5.63 234.25,-24.88"/>
<text text-anchor="middle" x="212.75" y="-11.38" font-family="Helvetica,sans-Serif" font-size="10.00">vector</text>
</a>
</g>
</g>
<!-- Node1&#45;&gt;Node5 -->
<g id="edge4_Node000001_Node000005" class="edge">
<title>Node1&#45;&gt;Node5</title>
<g id="a_edge4_Node000001_Node000005"><a xlink:title=" ">
<path fill="none" stroke="#63b8ff" d="M2490.22,-74.74C2166.06,-72.12 356.94,-56.42 243.75,-30.5 242.35,-30.18 240.94,-29.79 239.54,-29.36"/>
<polygon fill="#63b8ff" stroke="#63b8ff" points="241.03,-26.18 230.45,-25.8 238.49,-32.7 241.03,-26.18"/>
</a>
</g>
</g>
<!-- Node6 -->
<g id="Node000006" class="node">
<title>Node6</title>
<g id="a_Node000006"><a xlink:title=" ">
<polygon fill="#e0e0e0" stroke="#999999" points="287.12,-24.88 252.38,-24.88 252.38,-5.63 287.12,-5.63 287.12,-24.88"/>
<text text-anchor="middle" x="269.75" y="-11.38" font-family="Helvetica,sans-Serif" font-size="10.00">map</text>
</a>
</g>
</g>
<!-- Node1&#45;&gt;Node6 -->
<g id="edge5_Node000001_Node000006" class="edge">
<title>Node1&#45;&gt;Node6</title>
<g id="a_edge5_Node000001_Node000006"><a xlink:title=" ">
<path fill="none" stroke="#63b8ff" d="M2490.06,-74.79C2169.81,-72.53 406.44,-58.83 296.75,-30.5 295.92,-30.29 295.09,-30.04 294.26,-29.77"/>
<polygon fill="#63b8ff" stroke="#63b8ff" points="295.77,-26.61 285.21,-25.85 292.99,-33.04 295.77,-26.61"/>
</a>
</g>
</g>
<!-- Node7 -->
<g id="Node000007" class="node">
<title>Node7</title>
<g id="a_Node000007"><a xlink:title=" ">
<polygon fill="#e0e0e0" stroke="#999999" points="356,-24.88 305.5,-24.88 305.5,-5.63 356,-5.63 356,-24.88"/>
<text text-anchor="middle" x="330.75" y="-11.38" font-family="Helvetica,sans-Serif" font-size="10.00">numeric</text>
</a>
</g>
</g>
<!-- Node1&#45;&gt;Node7 -->
<g id="edge6_Node000001_Node000007" class="edge">
<title>Node1&#45;&gt;Node7</title>
<g id="a_edge6_Node000001_Node000007"><a xlink:title=" ">
<path fill="none" stroke="#63b8ff" d="M2490.17,-75.22C2186.03,-75.66 578.71,-75.81 364.75,-30.5 362.98,-30.13 361.19,-29.66 359.41,-29.13"/>
<polygon fill="#63b8ff" stroke="#63b8ff" points="360.71,-25.88 350.12,-25.76 358.32,-32.46 360.71,-25.88"/>
</a>
</g>
</g>
<!-- Node8 -->
<g id="Node000008" class="node">
<title>Node8</title>
<g id="a_Node000008"><a xlink:title=" ">
<polygon fill="#e0e0e0" stroke="#999999" points="425.38,-24.88 374.12,-24.88 374.12,-5.63 425.38,-5.63 425.38,-24.88"/>
<text text-anchor="middle" x="399.75" y="-11.38" font-family="Helvetica,sans-Serif" font-size="10.00">memory</text>
</a>
</g>
</g>
<!-- Node1&#45;&gt;Node8 -->
<g id="edge7_Node000001_Node000008" class="edge">
<title>Node1&#45;&gt;Node8</title>
<g id="a_edge7_Node000001_Node000008"><a xlink:title=" ">
<path fill="none" stroke="#63b8ff" d="M2490.3,-75.18C2192.21,-75.4 640.57,-74.37 433.75,-30.5 431.98,-30.13 430.19,-29.66 428.41,-29.13"/>
<polygon fill="#63b8ff" stroke="#63b8ff" points="429.71,-25.88 419.12,-25.76 427.32,-32.46 429.71,-25.88"/>
</a>
</g>
</g>
<!-- Node9 -->
<g id="Node000009" class="node">
<title>Node9</title>
<g id="a_Node000009"><a xlink:title=" ">
<polygon fill="#e0e0e0" stroke="#999999" points="488.38,-24.88 443.12,-24.88 443.12,-5.63 488.38,-5.63 488.38,-24.88"/>
<text text-anchor="middle" x="465.75" y="-11.38" font-family="Helvetica,sans-Serif" font-size="10.00">chrono</text>
</a>
</g>
</g>
<!-- Node1&#45;&gt;Node9 -->
<g id="edge8_Node000001_Node000009" class="edge">
<title>Node1&#45;&gt;Node9</title>
<g id="a_edge8_Node000001_Node000009"><a xlink:title=" ">
<path fill="none" stroke="#63b8ff" d="M2490.37,-75.21C2197.8,-75.58 697.47,-75.24 497.75,-30.5 496.16,-30.14 494.54,-29.7 492.93,-29.2"/>
<polygon fill="#63b8ff" stroke="#63b8ff" points="494.59,-26.09 484,-25.78 492.09,-32.63 494.59,-26.09"/>
</a>
</g>
</g>
<!-- Node10 -->
<g id="Node000010" class="node">
<title>Node10</title>
<g id="a_Node000010"><a xlink:title=" ">
<polygon fill="#e0e0e0" stroke="#999999" points="578.88,-24.88 506.62,-24.88 506.62,-5.63 578.88,-5.63 578.88,-24.88"/>
<text text-anchor="middle" x="542.75" y="-11.38" font-family="Helvetica,sans-Serif" font-size="10.00">Eigen/Dense</text>
</a>
</g>
</g>
<!-- Node1&#45;&gt;Node10 -->
<g id="edge9_Node000001_Node000010" class="edge">
<title>Node1&#45;&gt;Node10</title>
<g id="a_edge9_Node000001_Node000010"><a xlink:title=" ">
<path fill="none" stroke="#63b8ff" d="M2490.32,-74.83C2205.53,-73.04 780.23,-62.5 587.75,-30.5 584.38,-29.94 580.92,-29.19 577.48,-28.31"/>
<polygon fill="#63b8ff" stroke="#63b8ff" points="578.76,-25.04 568.18,-25.64 576.83,-31.77 578.76,-25.04"/>
</a>
</g>
</g>
<!-- Node11 -->
<g id="Node000011" class="node">
<title>Node11</title>
<g id="a_Node000011"><a xlink:href="_tic_toc_8hxx.html" target="_top" xlink:title=" ">
<polygon fill="white" stroke="#666666" points="698.88,-24.88 596.62,-24.88 596.62,-5.63 698.88,-5.63 698.88,-24.88"/>
<text text-anchor="middle" x="647.75" y="-11.38" font-family="Helvetica,sans-Serif" font-size="10.00">Sandals/TicToc.hxx</text>
</a>
</g>
</g>
<!-- Node1&#45;&gt;Node11 -->
<g id="edge10_Node000001_Node000011" class="edge">
<title>Node1&#45;&gt;Node11</title>
<g id="a_edge10_Node000001_Node000011"><a xlink:title=" ">
<path fill="none" stroke="#63b8ff" d="M2490.03,-75.32C2234.46,-76.09 1066.65,-76.97 707.75,-30.5 702.45,-29.81 696.94,-28.85 691.51,-27.75"/>
<polygon fill="#63b8ff" stroke="#63b8ff" points="692.53,-24.4 682.01,-25.67 691.02,-31.23 692.53,-24.4"/>
</a>
</g>
</g>
<!-- Node12 -->
<g id="Node000012" class="node">
<title>Node12</title>
<g id="a_Node000012"><a xlink:href="_nonlinear_solver_8hxx.html" target="_top" xlink:title=" ">
<polygon fill="white" stroke="#666666" points="840.38,-30.5 717.12,-30.5 717.12,0 840.38,0 840.38,-30.5"/>
<text text-anchor="start" x="725.12" y="-17" font-family="Helvetica,sans-Serif" font-size="10.00">Sandals/NonlinearSolver</text>
<text text-anchor="middle" x="778.75" y="-5.75" font-family="Helvetica,sans-Serif" font-size="10.00">/NonlinearSolver.hxx</text>
</a>
</g>
</g>
<!-- Node1&#45;&gt;Node12 -->
<g id="edge11_Node000001_Node000012" class="edge">
<title>Node1&#45;&gt;Node12</title>
<g id="a_edge11_Node000001_Node000012"><a xlink:title=" ">
<path fill="none" stroke="#63b8ff" d="M2490.32,-74.98C2250.13,-74.13 1202.39,-68.31 852.28,-30.75"/>
<polygon fill="#63b8ff" stroke="#63b8ff" points="852.7,-27.27 842.38,-29.65 851.93,-34.23 852.7,-27.27"/>
</a>
</g>
</g>
<!-- Node13 -->
<g id="Node000013" class="node">
<title>Node13</title>
<g id="a_Node000013"><a xlink:href="_newton_8hxx.html" target="_top" xlink:title=" ">
<polygon fill="white" stroke="#666666" points="981.38,-30.5 858.12,-30.5 858.12,0 981.38,0 981.38,-30.5"/>
<text text-anchor="start" x="866.12" y="-17" font-family="Helvetica,sans-Serif" font-size="10.00">Sandals/NonlinearSolver</text>
<text text-anchor="middle" x="919.75" y="-5.75" font-family="Helvetica,sans-Serif" font-size="10.00">/Newton.hxx</text>
</a>
</g>
</g>
<!-- Node1&#45;&gt;Node13 -->
<g id="edge12_Node000001_Node000013" class="edge">
<title>Node1&#45;&gt;Node13</title>
<g id="a_edge12_Node000001_Node000013"><a xlink:title=" ">
<path fill="none" stroke="#63b8ff" d="M2490.3,-74.85C2262.65,-73.39 1313.23,-65.38 993,-30.72"/>
<polygon fill="#63b8ff" stroke="#63b8ff" points="993.7,-27.28 983.38,-29.64 992.93,-34.23 993.7,-27.28"/>
</a>
</g>
</g>
<!-- Node14 -->
<g id="Node000014" class="node">
<title>Node14</title>
<g id="a_Node000014"><a xlink:href="_broyden_8hxx.html" target="_top" xlink:title=" ">
<polygon fill="white" stroke="#666666" points="1122.38,-30.5 999.12,-30.5 999.12,0 1122.38,0 1122.38,-30.5"/>
<text text-anchor="start" x="1007.12" y="-17" font-family="Helvetica,sans-Serif" font-size="10.00">Sandals/NonlinearSolver</text>
<text text-anchor="middle" x="1060.75" y="-5.75" font-family="Helvetica,sans-Serif" font-size="10.00">/Broyden.hxx</text>
</a>
</g>
</g>
<!-- Node1&#45;&gt;Node14 -->
<g id="edge13_Node000001_Node000014" class="edge">
<title>Node1&#45;&gt;Node14</title>
<g id="a_edge13_Node000001_Node000014"><a xlink:title=" ">
<path fill="none" stroke="#63b8ff" d="M2490.16,-74.68C2275.57,-72.58 1425.09,-62.47 1134.23,-30.75"/>
<polygon fill="#63b8ff" stroke="#63b8ff" points="1134.71,-27.28 1124.38,-29.63 1133.92,-34.24 1134.71,-27.28"/>
</a>
</g>
</g>
<!-- Node15 -->
<g id="Node000015" class="node">
<title>Node15</title>
<g id="a_Node000015"><a xlink:href="_implicit_8hxx.html" target="_top" xlink:title=" ">
<polygon fill="white" stroke="#666666" points="1281.38,-24.88 1140.12,-24.88 1140.12,-5.63 1281.38,-5.63 1281.38,-24.88"/>
<text text-anchor="middle" x="1210.75" y="-11.38" font-family="Helvetica,sans-Serif" font-size="10.00">Sandals/System/Implicit.hxx</text>
</a>
</g>
</g>
<!-- Node1&#45;&gt;Node15 -->
<g id="edge14_Node000001_Node000015" class="edge">
<title>Node1&#45;&gt;Node15</title>
<g id="a_edge14_Node000001_Node000015"><a xlink:title=" ">
<path fill="none" stroke="#63b8ff" d="M2490.15,-74.29C2288.48,-70.73 1529.44,-55.89 1290.75,-30.5 1282.93,-29.67 1274.73,-28.52 1266.67,-27.24"/>
<polygon fill="#63b8ff" stroke="#63b8ff" points="1267.38,-23.81 1256.93,-25.61 1266.22,-30.71 1267.38,-23.81"/>
</a>
</g>
</g>
<!-- Node16 -->
<g id="Node000016" class="node">
<title>Node16</title>
<g id="a_Node000016"><a xlink:href="_explicit_8hxx.html" target="_top" xlink:title=" ">
<polygon fill="white" stroke="#666666" points="1441.75,-24.88 1299.75,-24.88 1299.75,-5.63 1441.75,-5.63 1441.75,-24.88"/>
<text text-anchor="middle" x="1370.75" y="-11.38" font-family="Helvetica,sans-Serif" font-size="10.00">Sandals/System/Explicit.hxx</text>
</a>
</g>
</g>
<!-- Node1&#45;&gt;Node16 -->
<g id="edge15_Node000001_Node000016" class="edge">
<title>Node1&#45;&gt;Node16</title>
<g id="a_edge15_Node000001_Node000016"><a xlink:title=" ">
<path fill="none" stroke="#63b8ff" d="M2490.19,-75.48C2335.8,-76.06 1850.01,-74.04 1450.75,-30.5 1442.93,-29.65 1434.73,-28.49 1426.68,-27.2"/>
<polygon fill="#63b8ff" stroke="#63b8ff" points="1427.38,-23.77 1416.94,-25.56 1426.22,-30.68 1427.38,-23.77"/>
</a>
</g>
</g>
<!-- Node17 -->
<g id="Node000017" class="node">
<title>Node17</title>
<g id="a_Node000017"><a xlink:href="_semi_explicit_8hxx.html" target="_top" xlink:title=" ">
<polygon fill="white" stroke="#666666" points="1624,-24.88 1459.5,-24.88 1459.5,-5.63 1624,-5.63 1624,-24.88"/>
<text text-anchor="middle" x="1541.75" y="-11.38" font-family="Helvetica,sans-Serif" font-size="10.00">Sandals/System/SemiExplicit.hxx</text>
</a>
</g>
</g>
<!-- Node1&#45;&gt;Node17 -->
<g id="edge16_Node000001_Node000017" class="edge">
<title>Node1&#45;&gt;Node17</title>
<g id="a_edge16_Node000001_Node000017"><a xlink:title=" ">
<path fill="none" stroke="#63b8ff" d="M2490.02,-74.5C2353.11,-72.38 1959.24,-63.63 1633.75,-30.5 1624.6,-29.57 1614.98,-28.35 1605.55,-27.01"/>
<polygon fill="#63b8ff" stroke="#63b8ff" points="1606.07,-23.55 1595.67,-25.56 1605.05,-30.48 1606.07,-23.55"/>
</a>
</g>
</g>
<!-- Node18 -->
<g id="Node000018" class="node">
<title>Node18</title>
<g id="a_Node000018"><a xlink:href="_tableau_8hxx.html" target="_top" xlink:title=" ">
<polygon fill="white" stroke="#666666" points="1749.12,-24.88 1642.38,-24.88 1642.38,-5.63 1749.12,-5.63 1749.12,-24.88"/>
<text text-anchor="middle" x="1695.75" y="-11.38" font-family="Helvetica,sans-Serif" font-size="10.00">Sandals/Tableau.hxx</text>
</a>
</g>
</g>
<!-- Node1&#45;&gt;Node18 -->
<g id="edge17_Node000001_Node000018" class="edge">
<title>Node1&#45;&gt;Node18</title>
<g id="a_edge17_Node000001_Node000018"><a xlink:title=" ">
<path fill="none" stroke="#63b8ff" d="M2490.13,-75.13C2366.15,-74.52 2033.1,-69.1 1758.75,-30.5 1753.41,-29.75 1747.85,-28.78 1742.35,-27.69"/>
<polygon fill="#63b8ff" stroke="#63b8ff" points="1743.2,-24.3 1732.69,-25.66 1741.76,-31.15 1743.2,-24.3"/>
</a>
</g>
</g>
<!-- Node19 -->
<g id="Node000019" class="node">
<title>Node19</title>
<g id="a_Node000019"><a xlink:href="_solution_8hxx.html" target="_top" xlink:title=" ">
<polygon fill="white" stroke="#666666" points="1875.88,-24.88 1767.62,-24.88 1767.62,-5.63 1875.88,-5.63 1875.88,-24.88"/>
<text text-anchor="middle" x="1821.75" y="-11.38" font-family="Helvetica,sans-Serif" font-size="10.00">Sandals/Solution.hxx</text>
</a>
</g>
</g>
<!-- Node1&#45;&gt;Node19 -->
<g id="edge18_Node000001_Node000019" class="edge">
<title>Node1&#45;&gt;Node19</title>
<g id="a_edge18_Node000001_Node000019"><a xlink:title=" ">
<path fill="none" stroke="#63b8ff" d="M2490.26,-74.29C2380.75,-71.9 2109.89,-62.91 1885.75,-30.5 1880.4,-29.73 1874.83,-28.75 1869.31,-27.67"/>
<polygon fill="#63b8ff" stroke="#63b8ff" points="1870.11,-24.26 1859.61,-25.65 1868.69,-31.12 1870.11,-24.26"/>
</a>
</g>
</g>
<!-- Node20 -->
<g id="Node000020" class="node">
<title>Node20</title>
<g id="a_Node000020"><a xlink:href="_runge_kutta_8hxx.html" target="_top" xlink:title=" ">
<polygon fill="white" stroke="#666666" points="2019.12,-24.88 1894.38,-24.88 1894.38,-5.63 2019.12,-5.63 2019.12,-24.88"/>
<text text-anchor="middle" x="1956.75" y="-11.38" font-family="Helvetica,sans-Serif" font-size="10.00">Sandals/RungeKutta.hxx</text>
</a>
</g>
</g>
<!-- Node1&#45;&gt;Node20 -->
<g id="edge19_Node000001_Node000020" class="edge">
<title>Node1&#45;&gt;Node20</title>
<g id="a_edge19_Node000001_Node000020"><a xlink:title=" ">
<path fill="none" stroke="#63b8ff" d="M2490.11,-72.64C2398.42,-67.63 2196.44,-54.7 2027.75,-30.5 2021.68,-29.63 2015.35,-28.57 2009.08,-27.44"/>
<polygon fill="#63b8ff" stroke="#63b8ff" points="2009.88,-24.02 1999.4,-25.6 2008.57,-30.9 2009.88,-24.02"/>
</a>
</g>
</g>
<!-- Node21 -->
<g id="Node000021" class="node">
<title>Node21</title>
<g id="a_Node000021"><a xlink:href="_chebyshev51_8hxx.html" target="_top" xlink:title=" ">
<polygon fill="white" stroke="#666666" points="2206.62,-24.88 2036.88,-24.88 2036.88,-5.63 2206.62,-5.63 2206.62,-24.88"/>
<text text-anchor="middle" x="2121.75" y="-11.38" font-family="Helvetica,sans-Serif" font-size="10.00">Sandals/Tableau/Chebyshev51.hxx</text>
</a>
</g>
</g>
<!-- Node1&#45;&gt;Node21 -->
<g id="edge20_Node000001_Node000021" class="edge">
<title>Node1&#45;&gt;Node21</title>
<g id="a_edge20_Node000001_Node000021"><a xlink:title=" ">
<path fill="none" stroke="#63b8ff" d="M2490.04,-68.49C2426.43,-59.95 2312.83,-44.54 2215.75,-30.5 2208.09,-29.39 2200.08,-28.21 2192.11,-27.02"/>
<polygon fill="#63b8ff" stroke="#63b8ff" points="2192.81,-23.59 2182.4,-25.57 2191.77,-30.51 2192.81,-23.59"/>
</a>
</g>
</g>
<!-- Node22 -->
<g id="Node000022" class="node">
<title>Node22</title>
<g id="a_Node000022"><a xlink:href="_explicit_euler_8hxx.html" target="_top" xlink:title=" ">
<polygon fill="white" stroke="#666666" points="2348.38,-30.5 2225.12,-30.5 2225.12,0 2348.38,0 2348.38,-30.5"/>
<text text-anchor="start" x="2233.12" y="-17" font-family="Helvetica,sans-Serif" font-size="10.00">Sandals/Tableau/Explicit</text>
<text text-anchor="middle" x="2286.75" y="-5.75" font-family="Helvetica,sans-Serif" font-size="10.00">Euler.hxx</text>
</a>
</g>
</g>
<!-- Node1&#45;&gt;Node22 -->
<g id="edge21_Node000001_Node000022" class="edge">
<title>Node1&#45;&gt;Node22</title>
<g id="a_edge21_Node000001_Node000022"><a xlink:title=" ">
<path fill="none" stroke="#63b8ff" d="M2500.77,-66.05C2463.25,-57.32 2405.59,-43.9 2359.56,-33.19"/>
<polygon fill="#63b8ff" stroke="#63b8ff" points="2360.44,-29.8 2349.91,-30.95 2358.85,-36.62 2360.44,-29.8"/>
</a>
</g>
</g>
<!-- Node23 -->
<g id="Node000023" class="node">
<title>Node23</title>
<g id="a_Node000023"><a xlink:href="_fehlberg45_8hxx.html" target="_top" xlink:title=" ">
<polygon fill="white" stroke="#666666" points="2524.62,-24.88 2366.88,-24.88 2366.88,-5.63 2524.62,-5.63 2524.62,-24.88"/>
<text text-anchor="middle" x="2445.75" y="-11.38" font-family="Helvetica,sans-Serif" font-size="10.00">Sandals/Tableau/Fehlberg45.hxx</text>
</a>
</g>
</g>
<!-- Node1&#45;&gt;Node23 -->
<g id="edge22_Node000001_Node000023" class="edge">
<title>Node1&#45;&gt;Node23</title>
<g id="a_edge22_Node000001_Node000023"><a xlink:title=" ">
<path fill="none" stroke="#63b8ff" d="M2525.47,-66.18C2510.7,-56.93 2487.38,-42.32 2469.76,-31.29"/>
<polygon fill="#63b8ff" stroke="#63b8ff" points="2471.78,-28.42 2461.44,-26.08 2468.06,-34.35 2471.78,-28.42"/>
</a>
</g>
</g>
<!-- Node24 -->
<g id="Node000024" class="node">
<title>Node24</title>
<g id="a_Node000024"><a xlink:href="_gauss_legendre2_8hxx.html" target="_top" xlink:title=" ">
<polygon fill="white" stroke="#666666" points="2726.38,-24.88 2543.12,-24.88 2543.12,-5.63 2726.38,-5.63 2726.38,-24.88"/>
<text text-anchor="middle" x="2634.75" y="-11.38" font-family="Helvetica,sans-Serif" font-size="10.00">Sandals/Tableau/GaussLegendre2.hxx</text>
</a>
</g>
</g>
<!-- Node1&#45;&gt;Node24 -->
<g id="edge23_Node000001_Node000024" class="edge">
<title>Node1&#45;&gt;Node24</title>
<g id="a_edge23_Node000001_Node000024"><a xlink:title=" ">
<path fill="none" stroke="#63b8ff" d="M2554.18,-66.18C2569.1,-56.93 2592.68,-42.32 2610.48,-31.29"/>
<polygon fill="#63b8ff" stroke="#63b8ff" points="2612.24,-34.32 2618.9,-26.07 2608.56,-28.37 2612.24,-34.32"/>
</a>
</g>
</g>
<!-- Node25 -->
<g id="Node000025" class="node">
<title>Node25</title>
<g id="a_Node000025"><a xlink:href="_gauss_legendre4_8hxx.html" target="_top" xlink:title=" ">
<polygon fill="white" stroke="#666666" points="2927.38,-24.88 2744.12,-24.88 2744.12,-5.63 2927.38,-5.63 2927.38,-24.88"/>
<text text-anchor="middle" x="2835.75" y="-11.38" font-family="Helvetica,sans-Serif" font-size="10.00">Sandals/Tableau/GaussLegendre4.hxx</text>
</a>
</g>
</g>
<!-- Node1&#45;&gt;Node25 -->
<g id="edge24_Node000001_Node000025" class="edge">
<title>Node1&#45;&gt;Node25</title>
<g id="a_edge24_Node000001_Node000025"><a xlink:title=" ">
<path fill="none" stroke="#63b8ff" d="M2585.35,-66.05C2637.39,-55.7 2722.56,-38.76 2778.89,-27.56"/>
<polygon fill="#63b8ff" stroke="#63b8ff" points="2779.49,-31.01 2788.61,-25.63 2778.12,-24.14 2779.49,-31.01"/>
</a>
</g>
</g>
<!-- Node26 -->
<g id="Node000026" class="node">
<title>Node26</title>
<g id="a_Node000026"><a xlink:href="_gauss_legendre6_8hxx.html" target="_top" xlink:title=" ">
<polygon fill="white" stroke="#666666" points="3128.38,-24.88 2945.12,-24.88 2945.12,-5.63 3128.38,-5.63 3128.38,-24.88"/>
<text text-anchor="middle" x="3036.75" y="-11.38" font-family="Helvetica,sans-Serif" font-size="10.00">Sandals/Tableau/GaussLegendre6.hxx</text>
</a>
</g>
</g>
<!-- Node1&#45;&gt;Node26 -->
<g id="edge25_Node000001_Node000026" class="edge">
<title>Node1&#45;&gt;Node26</title>
<g id="a_edge25_Node000001_Node000026"><a xlink:title=" ">
<path fill="none" stroke="#63b8ff" d="M2589.32,-70.03C2664.51,-62.19 2811.88,-46.41 2936.75,-30.5 2945.43,-29.39 2954.53,-28.18 2963.56,-26.93"/>
<polygon fill="#63b8ff" stroke="#63b8ff" points="2963.99,-30.41 2973.41,-25.56 2963.02,-23.48 2963.99,-30.41"/>
</a>
</g>
</g>
<!-- Node27 -->
<g id="Node000027" class="node">
<title>Node27</title>
<g id="a_Node000027"><a xlink:href="_heun2_8hxx.html" target="_top" xlink:title=" ">
<polygon fill="white" stroke="#666666" points="3284.88,-24.88 3146.62,-24.88 3146.62,-5.63 3284.88,-5.63 3284.88,-24.88"/>
<text text-anchor="middle" x="3215.75" y="-11.38" font-family="Helvetica,sans-Serif" font-size="10.00">Sandals/Tableau/Heun2.hxx</text>
</a>
</g>
</g>
<!-- Node1&#45;&gt;Node27 -->
<g id="edge26_Node000001_Node000027" class="edge">
<title>Node1&#45;&gt;Node27</title>
<g id="a_edge26_Node000001_Node000027"><a xlink:title=" ">
<path fill="none" stroke="#63b8ff" d="M2589.15,-73.22C2691.72,-68.86 2935.1,-56.5 3137.75,-30.5 3144.74,-29.6 3152.05,-28.5 3159.28,-27.3"/>
<polygon fill="#63b8ff" stroke="#63b8ff" points="3159.76,-30.77 3169.02,-25.61 3158.57,-23.87 3159.76,-30.77"/>
</a>
</g>
</g>
<!-- Node28 -->
<g id="Node000028" class="node">
<title>Node28</title>
<g id="a_Node000028"><a xlink:href="_heun3_8hxx.html" target="_top" xlink:title=" ">
<polygon fill="white" stroke="#666666" points="3440.88,-24.88 3302.62,-24.88 3302.62,-5.63 3440.88,-5.63 3440.88,-24.88"/>
<text text-anchor="middle" x="3371.75" y="-11.38" font-family="Helvetica,sans-Serif" font-size="10.00">Sandals/Tableau/Heun3.hxx</text>
</a>
</g>
</g>
<!-- Node1&#45;&gt;Node28 -->
<g id="edge27_Node000001_Node000028" class="edge">
<title>Node1&#45;&gt;Node28</title>
<g id="a_edge27_Node000001_Node000028"><a xlink:title=" ">
<path fill="none" stroke="#63b8ff" d="M2589.34,-74.27C2710.2,-71.75 3029.46,-62.34 3293.75,-30.5 3301.01,-29.63 3308.62,-28.5 3316.11,-27.27"/>
<polygon fill="#63b8ff" stroke="#63b8ff" points="3316.59,-30.73 3325.85,-25.58 3315.4,-23.84 3316.59,-30.73"/>
</a>
</g>
</g>
<!-- Node29 -->
<g id="Node000029" class="node">
<title>Node29</title>
<g id="a_Node000029"><a xlink:href="_lobatto_i_i_i_a2_8hxx.html" target="_top" xlink:title=" ">
<polygon fill="white" stroke="#666666" points="3622.25,-24.88 3459.25,-24.88 3459.25,-5.63 3622.25,-5.63 3622.25,-24.88"/>
<text text-anchor="middle" x="3540.75" y="-11.38" font-family="Helvetica,sans-Serif" font-size="10.00">Sandals/Tableau/LobattoIIIA2.hxx</text>
</a>
</g>
</g>
<!-- Node1&#45;&gt;Node29 -->
<g id="edge28_Node000001_Node000029" class="edge">
<title>Node1&#45;&gt;Node29</title>
<g id="a_edge28_Node000001_Node000029"><a xlink:title=" ">
<path fill="none" stroke="#63b8ff" d="M2589.21,-74.55C2726.27,-72.54 3122.46,-64.05 3449.75,-30.5 3458.8,-29.57 3468.32,-28.35 3477.65,-27.02"/>
<polygon fill="#63b8ff" stroke="#63b8ff" points="3478.03,-30.5 3487.4,-25.57 3477,-23.58 3478.03,-30.5"/>
</a>
</g>
</g>
<!-- Node30 -->
<g id="Node000030" class="node">
<title>Node30</title>
<g id="a_Node000030"><a xlink:href="_implicit_euler_8hxx.html" target="_top" xlink:title=" ">
<polygon fill="white" stroke="#666666" points="3763,-30.5 3640.5,-30.5 3640.5,0 3763,0 3763,-30.5"/>
<text text-anchor="start" x="3648.5" y="-17" font-family="Helvetica,sans-Serif" font-size="10.00">Sandals/Tableau/Implicit</text>
<text text-anchor="middle" x="3701.75" y="-5.75" font-family="Helvetica,sans-Serif" font-size="10.00">Euler.hxx</text>
</a>
</g>
</g>
<!-- Node1&#45;&gt;Node30 -->
<g id="edge29_Node000001_Node000030" class="edge">
<title>Node1&#45;&gt;Node30</title>
<g id="a_edge29_Node000001_Node000030"><a xlink:title=" ">
<path fill="none" stroke="#63b8ff" d="M2589.3,-74.15C2771.3,-70.43 3403.61,-56.02 3628.64,-30.71"/>
<polygon fill="#63b8ff" stroke="#63b8ff" points="3628.97,-34.19 3638.5,-29.55 3628.16,-27.24 3628.97,-34.19"/>
</a>
</g>
</g>
<!-- Node31 -->
<g id="Node000031" class="node">
<title>Node31</title>
<g id="a_Node000031"><a xlink:href="_m_t_e22_8hxx.html" target="_top" xlink:title=" ">
<polygon fill="white" stroke="#666666" points="3922.38,-24.88 3781.12,-24.88 3781.12,-5.63 3922.38,-5.63 3922.38,-24.88"/>
<text text-anchor="middle" x="3851.75" y="-11.38" font-family="Helvetica,sans-Serif" font-size="10.00">Sandals/Tableau/MTE22.hxx</text>
</a>
</g>
</g>
<!-- Node1&#45;&gt;Node31 -->
<g id="edge30_Node000001_Node000031" class="edge">
<title>Node1&#45;&gt;Node31</title>
<g id="a_edge30_Node000001_Node000031"><a xlink:title=" ">
<path fill="none" stroke="#63b8ff" d="M2589.35,-74.26C2789.29,-70.61 3536.58,-55.58 3771.75,-30.5 3779.57,-29.67 3787.77,-28.52 3795.83,-27.24"/>
<polygon fill="#63b8ff" stroke="#63b8ff" points="3796.28,-30.71 3805.57,-25.6 3795.12,-23.81 3796.28,-30.71"/>
</a>
</g>
</g>
<!-- Node32 -->
<g id="Node000032" class="node">
<title>Node32</title>
<g id="a_Node000032"><a xlink:href="_radau_i_i_a3_8hxx.html" target="_top" xlink:title=" ">
<polygon fill="white" stroke="#666666" points="4096.88,-24.88 3940.62,-24.88 3940.62,-5.63 4096.88,-5.63 4096.88,-24.88"/>
<text text-anchor="middle" x="4018.75" y="-11.38" font-family="Helvetica,sans-Serif" font-size="10.00">Sandals/Tableau/RadauIIA3.hxx</text>
</a>
</g>
</g>
<!-- Node1&#45;&gt;Node32 -->
<g id="edge31_Node000001_Node000032" class="edge">
<title>Node1&#45;&gt;Node32</title>
<g id="a_edge31_Node000001_Node000032"><a xlink:title=" ">
<path fill="none" stroke="#63b8ff" d="M2589.44,-74.4C2805.36,-71.12 3663.28,-56.68 3931.75,-30.5 3940.53,-29.64 3949.77,-28.45 3958.82,-27.11"/>
<polygon fill="#63b8ff" stroke="#63b8ff" points="3959.28,-30.59 3968.63,-25.59 3958.21,-23.67 3959.28,-30.59"/>
</a>
</g>
</g>
<!-- Node33 -->
<g id="Node000033" class="node">
<title>Node33</title>
<g id="a_Node000033"><a xlink:href="_radau_i_i_a5_8hxx.html" target="_top" xlink:title=" ">
<polygon fill="white" stroke="#666666" points="4270.88,-24.88 4114.62,-24.88 4114.62,-5.63 4270.88,-5.63 4270.88,-24.88"/>
<text text-anchor="middle" x="4192.75" y="-11.38" font-family="Helvetica,sans-Serif" font-size="10.00">Sandals/Tableau/RadauIIA5.hxx</text>
</a>
</g>
</g>
<!-- Node1&#45;&gt;Node33 -->
<g id="edge32_Node000001_Node000033" class="edge">
<title>Node1&#45;&gt;Node33</title>
<g id="a_edge32_Node000001_Node000033"><a xlink:title=" ">
<path fill="none" stroke="#63b8ff" d="M2589.29,-74.61C2821.2,-72.05 3800.99,-59.67 4105.75,-30.5 4114.74,-29.64 4124.21,-28.42 4133.46,-27.05"/>
<polygon fill="#63b8ff" stroke="#63b8ff" points="4133.74,-30.55 4143.09,-25.55 4132.67,-23.63 4133.74,-30.55"/>
</a>
</g>
</g>
<!-- Node34 -->
<g id="Node000034" class="node">
<title>Node34</title>
<g id="a_Node000034"><a xlink:href="_ralston2_8hxx.html" target="_top" xlink:title=" ">
<polygon fill="white" stroke="#666666" points="4438.12,-24.88 4289.38,-24.88 4289.38,-5.63 4438.12,-5.63 4438.12,-24.88"/>
<text text-anchor="middle" x="4363.75" y="-11.38" font-family="Helvetica,sans-Serif" font-size="10.00">Sandals/Tableau/Ralston2.hxx</text>
</a>
</g>
</g>
<!-- Node1&#45;&gt;Node34 -->
<g id="edge33_Node000001_Node000034" class="edge">
<title>Node1&#45;&gt;Node34</title>
<g id="a_edge33_Node000001_Node000034"><a xlink:title=" ">
<path fill="none" stroke="#63b8ff" d="M2589.35,-74.81C2836.73,-73.08 3938.76,-63.63 4279.75,-30.5 4288.25,-29.67 4297.18,-28.5 4305.92,-27.17"/>
<polygon fill="#63b8ff" stroke="#63b8ff" points="4306.44,-30.63 4315.76,-25.59 4305.33,-23.72 4306.44,-30.63"/>
</a>
</g>
</g>
<!-- Node35 -->
<g id="Node000035" class="node">
<title>Node35</title>
<g id="a_Node000035"><a xlink:href="_ralston3_8hxx.html" target="_top" xlink:title=" ">
<polygon fill="white" stroke="#666666" points="4605.12,-24.88 4456.38,-24.88 4456.38,-5.63 4605.12,-5.63 4605.12,-24.88"/>
<text text-anchor="middle" x="4530.75" y="-11.38" font-family="Helvetica,sans-Serif" font-size="10.00">Sandals/Tableau/Ralston3.hxx</text>
</a>
</g>
</g>
<!-- Node1&#45;&gt;Node35 -->
<g id="edge34_Node000001_Node000035" class="edge">
<title>Node1&#45;&gt;Node35</title>
<g id="a_edge34_Node000001_Node000035"><a xlink:title=" ">
<path fill="none" stroke="#63b8ff" d="M2589.28,-74.94C2850.55,-73.8 4070.74,-66.6 4446.75,-30.5 4455.25,-29.68 4464.18,-28.51 4472.93,-27.19"/>
<polygon fill="#63b8ff" stroke="#63b8ff" points="4473.44,-30.65 4482.76,-25.61 4472.33,-23.74 4473.44,-30.65"/>
</a>
</g>
</g>
<!-- Node36 -->
<g id="Node000036" class="node">
<title>Node36</title>
<g id="a_Node000036"><a xlink:href="_ralston4_8hxx.html" target="_top" xlink:title=" ">
<polygon fill="white" stroke="#666666" points="4772.12,-24.88 4623.38,-24.88 4623.38,-5.63 4772.12,-5.63 4772.12,-24.88"/>
<text text-anchor="middle" x="4697.75" y="-11.38" font-family="Helvetica,sans-Serif" font-size="10.00">Sandals/Tableau/Ralston4.hxx</text>
</a>
</g>
</g>
<!-- Node1&#45;&gt;Node36 -->
<g id="edge35_Node000001_Node000036" class="edge">
<title>Node1&#45;&gt;Node36</title>
<g id="a_edge35_Node000001_Node000036"><a xlink:title=" ">
<path fill="none" stroke="#63b8ff" d="M2589.49,-75.04C2864.65,-74.45 4202.78,-69.57 4613.75,-30.5 4622.45,-29.67 4631.6,-28.47 4640.54,-27.11"/>
<polygon fill="#63b8ff" stroke="#63b8ff" points="4640.89,-30.6 4650.2,-25.55 4639.77,-23.69 4640.89,-30.6"/>
</a>
</g>
</g>
<!-- Node37 -->
<g id="Node000037" class="node">
<title>Node37</title>
<g id="a_Node000037"><a xlink:href="_r_k4_8hxx.html" target="_top" xlink:title=" ">
<polygon fill="white" stroke="#666666" points="4919.38,-24.88 4790.12,-24.88 4790.12,-5.63 4919.38,-5.63 4919.38,-24.88"/>
<text text-anchor="middle" x="4854.75" y="-11.38" font-family="Helvetica,sans-Serif" font-size="10.00">Sandals/Tableau/RK4.hxx</text>
</a>
</g>
</g>
<!-- Node1&#45;&gt;Node37 -->
<g id="edge36_Node000001_Node000037" class="edge">
<title>Node1&#45;&gt;Node37</title>
<g id="a_edge36_Node000001_Node000037"><a xlink:title=" ">
<path fill="none" stroke="#63b8ff" d="M2589.22,-75.29C2876.69,-76.05 4334.98,-77.51 4780.75,-30.5 4788.01,-29.73 4795.62,-28.63 4803.08,-27.36"/>
<polygon fill="#63b8ff" stroke="#63b8ff" points="4803.52,-30.84 4812.73,-25.61 4802.27,-23.95 4803.52,-30.84"/>
</a>
</g>
</g>
<!-- Node38 -->
<g id="Node000038" class="node">
<title>Node38</title>
<g id="a_Node000038"><a xlink:href="_s_s_p_i_r_k33_8hxx.html" target="_top" xlink:title=" ">
<polygon fill="white" stroke="#666666" points="5095.62,-24.88 4937.88,-24.88 4937.88,-5.63 5095.62,-5.63 5095.62,-24.88"/>
<text text-anchor="middle" x="5016.75" y="-11.38" font-family="Helvetica,sans-Serif" font-size="10.00">Sandals/Tableau/SSPIRK33.hxx</text>
</a>
</g>
</g>
<!-- Node1&#45;&gt;Node38 -->
<g id="edge37_Node000001_Node000038" class="edge">
<title>Node1&#45;&gt;Node38</title>
<g id="a_edge37_Node000001_Node000038"><a xlink:title=" ">
<path fill="none" stroke="#63b8ff" d="M2589.03,-75.16C2886.98,-75.21 4451.03,-73.42 4928.75,-30.5 4937.96,-29.67 4947.65,-28.46 4957.12,-27.08"/>
<polygon fill="#63b8ff" stroke="#63b8ff" points="4957.64,-30.54 4967,-25.56 4956.58,-23.62 4957.64,-30.54"/>
</a>
</g>
</g>
<!-- Node39 -->
<g id="Node000039" class="node">
<title>Node39</title>
<g id="a_Node000039"><a xlink:href="_s_s_p_r_k22_8hxx.html" target="_top" xlink:title=" ">
<polygon fill="white" stroke="#666666" points="5268.12,-24.88 5113.38,-24.88 5113.38,-5.63 5268.12,-5.63 5268.12,-24.88"/>
<text text-anchor="middle" x="5190.75" y="-11.38" font-family="Helvetica,sans-Serif" font-size="10.00">Sandals/Tableau/SSPRK22.hxx</text>
</a>
</g>
</g>
<!-- Node1&#45;&gt;Node39 -->
<g id="edge38_Node000001_Node000039" class="edge">
<title>Node1&#45;&gt;Node39</title>
<g id="a_edge38_Node000001_Node000039"><a xlink:title=" ">
<path fill="none" stroke="#63b8ff" d="M2589.34,-75.26C2900.76,-75.93 4590.1,-77.36 5104.75,-30.5 5113.75,-29.68 5123.23,-28.47 5132.48,-27.09"/>
<polygon fill="#63b8ff" stroke="#63b8ff" points="5132.77,-30.59 5142.1,-25.58 5131.68,-23.67 5132.77,-30.59"/>
</a>
</g>
</g>
<!-- Node40 -->
<g id="Node000040" class="node">
<title>Node40</title>
<g id="a_Node000040"><a xlink:href="_s_s_p_r_k22star_8hxx.html" target="_top" xlink:title=" ">
<polygon fill="white" stroke="#666666" points="5457,-24.88 5286.5,-24.88 5286.5,-5.63 5457,-5.63 5457,-24.88"/>
<text text-anchor="middle" x="5371.75" y="-11.38" font-family="Helvetica,sans-Serif" font-size="10.00">Sandals/Tableau/SSPRK22star.hxx</text>
</a>
</g>
</g>
<!-- Node1&#45;&gt;Node40 -->
<g id="edge39_Node000001_Node000040" class="edge">
<title>Node1&#45;&gt;Node40</title>
<g id="a_edge39_Node000001_Node000040"><a xlink:title=" ">
<path fill="none" stroke="#63b8ff" d="M2589.48,-75.22C2913.24,-75.68 4725.43,-76.14 5276.75,-30.5 5287,-29.65 5297.83,-28.38 5308.36,-26.95"/>
<polygon fill="#63b8ff" stroke="#63b8ff" points="5308.73,-30.43 5318.13,-25.55 5307.74,-23.5 5308.73,-30.43"/>
</a>
</g>
</g>
<!-- Node41 -->
<g id="Node000041" class="node">
<title>Node41</title>
<g id="a_Node000041"><a xlink:href="_s_s_p_r_k33_8hxx.html" target="_top" xlink:title=" ">
<polygon fill="white" stroke="#666666" points="5630.12,-24.88 5475.38,-24.88 5475.38,-5.63 5630.12,-5.63 5630.12,-24.88"/>
<text text-anchor="middle" x="5552.75" y="-11.38" font-family="Helvetica,sans-Serif" font-size="10.00">Sandals/Tableau/SSPRK33.hxx</text>
</a>
</g>
</g>
<!-- Node1&#45;&gt;Node41 -->
<g id="edge40_Node000001_Node000041" class="edge">
<title>Node1&#45;&gt;Node41</title>
<g id="a_edge40_Node000001_Node000041"><a xlink:title=" ">
<path fill="none" stroke="#63b8ff" d="M2589.3,-74.81C2950.15,-72.45 5168.37,-56.98 5465.75,-30.5 5474.85,-29.69 5484.45,-28.48 5493.8,-27.11"/>
<polygon fill="#63b8ff" stroke="#63b8ff" points="5494.21,-30.58 5503.55,-25.59 5493.13,-23.67 5494.21,-30.58"/>
</a>
</g>
</g>
<!-- Node42 -->
<g id="Node000042" class="node">
<title>Node42</title>
<g id="a_Node000042"><a xlink:href="_s_s_p_r_k42_8hxx.html" target="_top" xlink:title=" ">
<polygon fill="white" stroke="#666666" points="5803.12,-24.88 5648.38,-24.88 5648.38,-5.63 5803.12,-5.63 5803.12,-24.88"/>
<text text-anchor="middle" x="5725.75" y="-11.38" font-family="Helvetica,sans-Serif" font-size="10.00">Sandals/Tableau/SSPRK42.hxx</text>
</a>
</g>
</g>
<!-- Node1&#45;&gt;Node42 -->
<g id="edge41_Node000001_Node000042" class="edge">
<title>Node1&#45;&gt;Node42</title>
<g id="a_edge41_Node000001_Node000042"><a xlink:title=" ">
<path fill="none" stroke="#63b8ff" d="M2589.22,-74.86C2961.91,-72.76 5322.94,-58.48 5638.75,-30.5 5647.85,-29.69 5657.45,-28.49 5666.8,-27.11"/>
<polygon fill="#63b8ff" stroke="#63b8ff" points="5667.21,-30.59 5676.55,-25.6 5666.13,-23.67 5667.21,-30.59"/>
</a>
</g>
</g>
<!-- Node43 -->
<g id="Node000043" class="node">
<title>Node43</title>
<g id="a_Node000043"><a xlink:href="_s_s_p_r_k43_8hxx.html" target="_top" xlink:title=" ">
<polygon fill="white" stroke="#666666" points="5976.12,-24.88 5821.38,-24.88 5821.38,-5.63 5976.12,-5.63 5976.12,-24.88"/>
<text text-anchor="middle" x="5898.75" y="-11.38" font-family="Helvetica,sans-Serif" font-size="10.00">Sandals/Tableau/SSPRK43.hxx</text>
</a>
</g>
</g>
<!-- Node1&#45;&gt;Node43 -->
<g id="edge42_Node000001_Node000043" class="edge">
<title>Node1&#45;&gt;Node43</title>
<g id="a_edge42_Node000001_Node000043"><a xlink:title=" ">
<path fill="none" stroke="#63b8ff" d="M2589.2,-74.9C2973.56,-73.05 5477.51,-59.99 5811.75,-30.5 5820.85,-29.7 5830.45,-28.49 5839.8,-27.12"/>
<polygon fill="#63b8ff" stroke="#63b8ff" points="5840.21,-30.6 5849.55,-25.61 5839.13,-23.68 5840.21,-30.6"/>
</a>
</g>
</g>
<!-- Node44 -->
<g id="Node000044" class="node">
<title>Node44</title>
<g id="a_Node000044"><a xlink:href="_s_s_p_r_k93_8hxx.html" target="_top" xlink:title=" ">
<polygon fill="white" stroke="#666666" points="6149.12,-24.88 5994.38,-24.88 5994.38,-5.63 6149.12,-5.63 6149.12,-24.88"/>
<text text-anchor="middle" x="6071.75" y="-11.38" font-family="Helvetica,sans-Serif" font-size="10.00">Sandals/Tableau/SSPRK93.hxx</text>
</a>
</g>
</g>
<!-- Node1&#45;&gt;Node44 -->
<g id="edge43_Node000001_Node000044" class="edge">
<title>Node1&#45;&gt;Node44</title>
<g id="a_edge43_Node000001_Node000044"><a xlink:title=" ">
<path fill="none" stroke="#63b8ff" d="M2589.28,-74.93C2985.33,-73.33 5632.08,-61.49 5984.75,-30.5 5993.96,-29.69 6003.68,-28.47 6013.14,-27.08"/>
<polygon fill="#63b8ff" stroke="#63b8ff" points="6013.66,-30.54 6023.01,-25.54 6012.59,-23.62 6013.66,-30.54"/>
</a>
</g>
</g>
<!-- Node45 -->
<g id="Node000045" class="node">
<title>Node45</title>
<g id="a_Node000045"><a xlink:href="_s_s_p_r_k104_8hxx.html" target="_top" xlink:title=" ">
<polygon fill="white" stroke="#666666" points="6326.75,-24.88 6166.75,-24.88 6166.75,-5.63 6326.75,-5.63 6326.75,-24.88"/>
<text text-anchor="middle" x="6246.75" y="-11.38" font-family="Helvetica,sans-Serif" font-size="10.00">Sandals/Tableau/SSPRK104.hxx</text>
</a>
</g>
</g>
<!-- Node1&#45;&gt;Node45 -->
<g id="edge44_Node000001_Node000045" class="edge">
<title>Node1&#45;&gt;Node45</title>
<g id="a_edge44_Node000001_Node000045"><a xlink:title=" ">
<path fill="none" stroke="#63b8ff" d="M2589.48,-74.95C2997.41,-73.49 5786.63,-62.33 6157.75,-30.5 6167.28,-29.68 6177.32,-28.44 6187.1,-27.03"/>
<polygon fill="#63b8ff" stroke="#63b8ff" points="6187.55,-30.5 6196.91,-25.54 6186.5,-23.58 6187.55,-30.5"/>
</a>
</g>
</g>
</g>
</svg>
