<?xml version="1.0" encoding="UTF-8" standalone="no"?>
<!DOCTYPE svg PUBLIC "-//W3C//DTD SVG 1.1//EN"
 "http://www.w3.org/Graphics/SVG/1.1/DTD/svg11.dtd">
<!-- Generated by graphviz version 12.2.0 (20241103.1931)
 -->
<!-- Title: include/Sandals.hh Pages: 1 -->
<svg width="1448pt" height="94pt"
 viewBox="0.00 0.00 1447.75 93.75" xmlns="http://www.w3.org/2000/svg" xmlns:xlink="http://www.w3.org/1999/xlink">
<g id="graph0" class="graph" transform="scale(1 1) rotate(0) translate(4 89.75)">
<title>include/Sandals.hh</title>
<!-- Node1 -->
<g id="Node000001" class="node">
<title>Node1</title>
<g id="a_Node000001"><a xlink:title=" ">
<polygon fill="#999999" stroke="#666666" points="571,-85.75 472.5,-85.75 472.5,-66.5 571,-66.5 571,-85.75"/>
<text text-anchor="middle" x="521.75" y="-72.25" font-family="Helvetica,sans-Serif" font-size="10.00">include/Sandals.hh</text>
</a>
</g>
</g>
<!-- Node2 -->
<g id="Node000002" class="node">
<title>Node2</title>
<g id="a_Node000002"><a xlink:title=" ">
<polygon fill="#e0e0e0" stroke="#999999" points="53.5,-24.88 0,-24.88 0,-5.63 53.5,-5.63 53.5,-24.88"/>
<text text-anchor="middle" x="26.75" y="-11.38" font-family="Helvetica,sans-Serif" font-size="10.00">iostream</text>
</a>
</g>
</g>
<!-- Node1&#45;&gt;Node2 -->
<g id="edge1_Node000001_Node000002" class="edge">
<title>Node1&#45;&gt;Node2</title>
<g id="a_edge1_Node000001_Node000002"><a xlink:title=" ">
<path fill="none" stroke="#63b8ff" d="M472.29,-74.99C387.16,-73.73 208.02,-66.55 61.75,-30.5 60.12,-30.1 58.46,-29.63 56.8,-29.12"/>
<polygon fill="#63b8ff" stroke="#63b8ff" points="58.06,-25.85 47.46,-25.78 55.7,-32.44 58.06,-25.85"/>
</a>
</g>
</g>
<!-- Node3 -->
<g id="Node000003" class="node">
<title>Node3</title>
<g id="a_Node000003"><a xlink:title=" ">
<polygon fill="#e0e0e0" stroke="#999999" points="108.25,-24.88 71.25,-24.88 71.25,-5.63 108.25,-5.63 108.25,-24.88"/>
<text text-anchor="middle" x="89.75" y="-11.38" font-family="Helvetica,sans-Serif" font-size="10.00">tuple</text>
</a>
</g>
</g>
<!-- Node1&#45;&gt;Node3 -->
<g id="edge2_Node000001_Node000003" class="edge">
<title>Node1&#45;&gt;Node3</title>
<g id="a_edge2_Node000001_Node000003"><a xlink:title=" ">
<path fill="none" stroke="#63b8ff" d="M472.12,-75.33C394.76,-74.39 241.48,-67.47 117.75,-30.5 116.95,-30.26 116.14,-30 115.33,-29.72"/>
<polygon fill="#63b8ff" stroke="#63b8ff" points="116.99,-26.62 106.42,-25.87 114.22,-33.05 116.99,-26.62"/>
</a>
</g>
</g>
<!-- Node4 -->
<g id="Node000004" class="node">
<title>Node4</title>
<g id="a_Node000004"><a xlink:title=" ">
<polygon fill="#e0e0e0" stroke="#999999" points="166.75,-24.88 126.75,-24.88 126.75,-5.63 166.75,-5.63 166.75,-24.88"/>
<text text-anchor="middle" x="146.75" y="-11.38" font-family="Helvetica,sans-Serif" font-size="10.00">string</text>
</a>
</g>
</g>
<!-- Node1&#45;&gt;Node4 -->
<g id="edge3_Node000001_Node000004" class="edge">
<title>Node1&#45;&gt;Node4</title>
<g id="a_edge3_Node000001_Node000004"><a xlink:title=" ">
<path fill="none" stroke="#63b8ff" d="M472.27,-73.82C404.15,-70.88 278.26,-61.37 175.75,-30.5 174.94,-30.26 174.13,-29.99 173.32,-29.71"/>
<polygon fill="#63b8ff" stroke="#63b8ff" points="174.9,-26.58 164.33,-25.95 172.2,-33.04 174.9,-26.58"/>
</a>
</g>
</g>
<!-- Node5 -->
<g id="Node000005" class="node">
<title>Node5</title>
<g id="a_Node000005"><a xlink:title=" ">
<polygon fill="#e0e0e0" stroke="#999999" points="228.25,-24.88 185.25,-24.88 185.25,-5.63 228.25,-5.63 228.25,-24.88"/>
<text text-anchor="middle" x="206.75" y="-11.38" font-family="Helvetica,sans-Serif" font-size="10.00">cmath</text>
</a>
</g>
</g>
<!-- Node1&#45;&gt;Node5 -->
<g id="edge4_Node000001_Node000005" class="edge">
<title>Node1&#45;&gt;Node5</title>
<g id="a_edge4_Node000001_Node000005"><a xlink:title=" ">
<path fill="none" stroke="#63b8ff" d="M472.09,-71.48C414.66,-66.32 317.78,-54.68 237.75,-30.5 236.76,-30.2 235.76,-29.87 234.75,-29.53"/>
<polygon fill="#63b8ff" stroke="#63b8ff" points="236.12,-26.31 225.53,-25.82 233.5,-32.8 236.12,-26.31"/>
</a>
</g>
</g>
<!-- Node6 -->
<g id="Node000006" class="node">
<title>Node6</title>
<g id="a_Node000006"><a xlink:title=" ">
<polygon fill="#e0e0e0" stroke="#999999" points="281.12,-24.88 246.38,-24.88 246.38,-5.63 281.12,-5.63 281.12,-24.88"/>
<text text-anchor="middle" x="263.75" y="-11.38" font-family="Helvetica,sans-Serif" font-size="10.00">map</text>
</a>
</g>
</g>
<!-- Node1&#45;&gt;Node6 -->
<g id="edge5_Node000001_Node000006" class="edge">
<title>Node1&#45;&gt;Node6</title>
<g id="a_edge5_Node000001_Node000006"><a xlink:title=" ">
<path fill="none" stroke="#63b8ff" d="M472.42,-69.87C424.89,-63.82 351.44,-51.85 290.75,-30.5 290.26,-30.33 289.77,-30.15 289.28,-29.96"/>
<polygon fill="#63b8ff" stroke="#63b8ff" points="291.03,-26.91 280.48,-25.97 288.14,-33.29 291.03,-26.91"/>
</a>
</g>
</g>
<!-- Node7 -->
<g id="Node000007" class="node">
<title>Node7</title>
<g id="a_Node000007"><a xlink:title=" ">
<polygon fill="#e0e0e0" stroke="#999999" points="371.88,-24.88 299.62,-24.88 299.62,-5.63 371.88,-5.63 371.88,-24.88"/>
<text text-anchor="middle" x="335.75" y="-11.38" font-family="Helvetica,sans-Serif" font-size="10.00">Eigen/Dense</text>
</a>
</g>
</g>
<!-- Node1&#45;&gt;Node7 -->
<g id="edge6_Node000001_Node000007" class="edge">
<title>Node1&#45;&gt;Node7</title>
<g id="a_edge6_Node000001_Node000007"><a xlink:title=" ">
<path fill="none" stroke="#63b8ff" d="M493.1,-66.05C461.56,-56.07 410.65,-39.96 375.32,-28.77"/>
<polygon fill="#63b8ff" stroke="#63b8ff" points="376.47,-25.47 365.88,-25.79 374.36,-32.14 376.47,-25.47"/>
</a>
</g>
</g>
<!-- Node8 -->
<g id="Node000008" class="node">
<title>Node8</title>
<g id="a_Node000008"><a xlink:href="_nonlinear_solver_8hxx.html" target="_top" xlink:title=" ">
<polygon fill="white" stroke="#666666" points="513.38,-30.5 390.12,-30.5 390.12,0 513.38,0 513.38,-30.5"/>
<text text-anchor="start" x="398.12" y="-17" font-family="Helvetica,sans-Serif" font-size="10.00">Sandals/NonlinearSolver</text>
<text text-anchor="middle" x="451.75" y="-5.75" font-family="Helvetica,sans-Serif" font-size="10.00">/NonlinearSolver.hxx</text>
</a>
</g>
</g>
<!-- Node1&#45;&gt;Node8 -->
<g id="edge7_Node000001_Node000008" class="edge">
<title>Node1&#45;&gt;Node8</title>
<g id="a_edge7_Node000001_Node000008"><a xlink:title=" ">
<path fill="none" stroke="#63b8ff" d="M511.12,-66.18C502.22,-58.7 489.15,-47.7 477.53,-37.93"/>
<polygon fill="#63b8ff" stroke="#63b8ff" points="480.09,-35.51 470.19,-31.76 475.59,-40.87 480.09,-35.51"/>
</a>
</g>
</g>
<!-- Node9 -->
<g id="Node000009" class="node">
<title>Node9</title>
<g id="a_Node000009"><a xlink:href="_newton_8hxx.html" target="_top" xlink:title=" ">
<polygon fill="white" stroke="#666666" points="654.38,-30.5 531.12,-30.5 531.12,0 654.38,0 654.38,-30.5"/>
<text text-anchor="start" x="539.12" y="-17" font-family="Helvetica,sans-Serif" font-size="10.00">Sandals/NonlinearSolver</text>
<text text-anchor="middle" x="592.75" y="-5.75" font-family="Helvetica,sans-Serif" font-size="10.00">/Newton.hxx</text>
</a>
</g>
</g>
<!-- Node1&#45;&gt;Node9 -->
<g id="edge8_Node000001_Node000009" class="edge">
<title>Node1&#45;&gt;Node9</title>
<g id="a_edge8_Node000001_Node000009"><a xlink:title=" ">
<path fill="none" stroke="#63b8ff" d="M532.53,-66.18C541.56,-58.7 554.82,-47.7 566.6,-37.93"/>
<polygon fill="#63b8ff" stroke="#63b8ff" points="568.6,-40.83 574.06,-31.75 564.13,-35.44 568.6,-40.83"/>
</a>
</g>
</g>
<!-- Node10 -->
<g id="Node000010" class="node">
<title>Node10</title>
<g id="a_Node000010"><a xlink:href="_broyden_8hxx.html" target="_top" xlink:title=" ">
<polygon fill="white" stroke="#666666" points="795.38,-30.5 672.12,-30.5 672.12,0 795.38,0 795.38,-30.5"/>
<text text-anchor="start" x="680.12" y="-17" font-family="Helvetica,sans-Serif" font-size="10.00">Sandals/NonlinearSolver</text>
<text text-anchor="middle" x="733.75" y="-5.75" font-family="Helvetica,sans-Serif" font-size="10.00">/Broyden.hxx</text>
</a>
</g>
</g>
<!-- Node1&#45;&gt;Node10 -->
<g id="edge9_Node000001_Node000010" class="edge">
<title>Node1&#45;&gt;Node10</title>
<g id="a_edge9_Node000001_Node000010"><a xlink:title=" ">
<path fill="none" stroke="#63b8ff" d="M554.41,-66.05C585.07,-57.54 631.78,-44.57 669.84,-34"/>
<polygon fill="#63b8ff" stroke="#63b8ff" points="670.68,-37.4 679.38,-31.35 668.81,-30.65 670.68,-37.4"/>
</a>
</g>
</g>
<!-- Node11 -->
<g id="Node000011" class="node">
<title>Node11</title>
<g id="a_Node000011"><a xlink:href="_implicit_8hxx.html" target="_top" xlink:title=" ">
<polygon fill="white" stroke="#666666" points="919.75,-30.5 813.75,-30.5 813.75,0 919.75,0 919.75,-30.5"/>
<text text-anchor="start" x="821.75" y="-17" font-family="Helvetica,sans-Serif" font-size="10.00">Sandals/RungeKutta</text>
<text text-anchor="middle" x="866.75" y="-5.75" font-family="Helvetica,sans-Serif" font-size="10.00">/System/Implicit.hxx</text>
</a>
</g>
</g>
<!-- Node1&#45;&gt;Node11 -->
<g id="edge10_Node000001_Node000011" class="edge">
<title>Node1&#45;&gt;Node11</title>
<g id="a_edge10_Node000001_Node000011"><a xlink:title=" ">
<path fill="none" stroke="#63b8ff" d="M571.27,-68.38C625.58,-60.75 715.56,-47.41 802.26,-30.9"/>
<polygon fill="#63b8ff" stroke="#63b8ff" points="802.72,-34.38 811.88,-29.05 801.4,-27.5 802.72,-34.38"/>
</a>
</g>
</g>
<!-- Node12 -->
<g id="Node000012" class="node">
<title>Node12</title>
<g id="a_Node000012"><a xlink:href="_explicit_8hxx.html" target="_top" xlink:title=" ">
<polygon fill="white" stroke="#666666" points="1044.12,-30.5 937.38,-30.5 937.38,0 1044.12,0 1044.12,-30.5"/>
<text text-anchor="start" x="945.38" y="-17" font-family="Helvetica,sans-Serif" font-size="10.00">Sandals/RungeKutta</text>
<text text-anchor="middle" x="990.75" y="-5.75" font-family="Helvetica,sans-Serif" font-size="10.00">/System/Explicit.hxx</text>
</a>
</g>
</g>
<!-- Node1&#45;&gt;Node12 -->
<g id="edge11_Node000001_Node000012" class="edge">
<title>Node1&#45;&gt;Node12</title>
<g id="a_edge11_Node000001_Node000012"><a xlink:title=" ">
<path fill="none" stroke="#63b8ff" d="M571.19,-71.58C645.94,-65.8 792.37,-52.9 925.84,-30.87"/>
<polygon fill="#63b8ff" stroke="#63b8ff" points="926.28,-34.35 935.57,-29.24 925.12,-27.44 926.28,-34.35"/>
</a>
</g>
</g>
<!-- Node13 -->
<g id="Node000013" class="node">
<title>Node13</title>
<g id="a_Node000013"><a xlink:href="_semi_explicit_8hxx.html" target="_top" xlink:title=" ">
<polygon fill="white" stroke="#666666" points="1191.38,-30.5 1062.12,-30.5 1062.12,0 1191.38,0 1191.38,-30.5"/>
<text text-anchor="start" x="1070.12" y="-17" font-family="Helvetica,sans-Serif" font-size="10.00">Sandals/RungeKutta</text>
<text text-anchor="middle" x="1126.75" y="-5.75" font-family="Helvetica,sans-Serif" font-size="10.00">/System/SemiExplicit.hxx</text>
</a>
</g>
</g>
<!-- Node1&#45;&gt;Node13 -->
<g id="edge12_Node000001_Node000013" class="edge">
<title>Node1&#45;&gt;Node13</title>
<g id="a_edge12_Node000001_Node000013"><a xlink:title=" ">
<path fill="none" stroke="#63b8ff" d="M571.36,-72.72C663.65,-67.87 868.16,-55.31 1050.69,-30.68"/>
<polygon fill="#63b8ff" stroke="#63b8ff" points="1050.91,-34.18 1060.34,-29.36 1049.96,-27.25 1050.91,-34.18"/>
</a>
</g>
</g>
<!-- Node14 -->
<g id="Node000014" class="node">
<title>Node14</title>
<g id="a_Node000014"><a xlink:href="_runge_kutta_8hxx.html" target="_top" xlink:title=" ">
<polygon fill="white" stroke="#666666" points="1315.75,-30.5 1209.75,-30.5 1209.75,0 1315.75,0 1315.75,-30.5"/>
<text text-anchor="start" x="1217.75" y="-17" font-family="Helvetica,sans-Serif" font-size="10.00">Sandals/RungeKutta</text>
<text text-anchor="middle" x="1262.75" y="-5.75" font-family="Helvetica,sans-Serif" font-size="10.00">/RungeKutta.hxx</text>
</a>
</g>
</g>
<!-- Node1&#45;&gt;Node14 -->
<g id="edge13_Node000001_Node000014" class="edge">
<title>Node1&#45;&gt;Node14</title>
<g id="a_edge13_Node000001_Node000014"><a xlink:title=" ">
<path fill="none" stroke="#63b8ff" d="M571.45,-74.58C682.29,-72.78 958.18,-65.07 1198.03,-30.73"/>
<polygon fill="#63b8ff" stroke="#63b8ff" points="1198.53,-34.2 1207.92,-29.3 1197.52,-27.27 1198.53,-34.2"/>
</a>
</g>
</g>
<!-- Node15 -->
<g id="Node000015" class="node">
<title>Node15</title>
<g id="a_Node000015"><a xlink:href="_r_k4_8hxx.html" target="_top" xlink:title=" ">
<polygon fill="white" stroke="#666666" points="1439.75,-30.5 1333.75,-30.5 1333.75,0 1439.75,0 1439.75,-30.5"/>
<text text-anchor="start" x="1341.75" y="-17" font-family="Helvetica,sans-Serif" font-size="10.00">Sandals/RungeKutta</text>
<text text-anchor="middle" x="1386.75" y="-5.75" font-family="Helvetica,sans-Serif" font-size="10.00">/Tableau/RK4.hxx</text>
</a>
</g>
</g>
<!-- Node1&#45;&gt;Node15 -->
<g id="edge14_Node000001_Node000015" class="edge">
<title>Node1&#45;&gt;Node15</title>
<g id="a_edge14_Node000001_Node000015"><a xlink:title=" ">
<path fill="none" stroke="#63b8ff" d="M571.38,-75.3C696.14,-75.1 1033,-70.71 1322.29,-30.68"/>
<polygon fill="#63b8ff" stroke="#63b8ff" points="1322.51,-34.18 1331.92,-29.32 1321.54,-27.25 1322.51,-34.18"/>
</a>
</g>
</g>
</g>
</svg>
