<?xml version="1.0" encoding="UTF-8" standalone="no"?>
<!DOCTYPE svg PUBLIC "-//W3C//DTD SVG 1.1//EN"
 "http://www.w3.org/Graphics/SVG/1.1/DTD/svg11.dtd">
<!-- Generated by graphviz version 12.2.1 (20241206.2353)
 -->
<!-- Title: include/Sandals/System/SemiExplicit.hh Pages: 1 -->
<svg width="4212pt" height="160pt"
 viewBox="0.00 0.00 4212.00 160.25" xmlns="http://www.w3.org/2000/svg" xmlns:xlink="http://www.w3.org/1999/xlink">
<g id="graph0" class="graph" transform="scale(1 1) rotate(0) translate(4 156.25)">
<title>include/Sandals/System/SemiExplicit.hh</title>
<!-- Node1 -->
<g id="Node000001" class="node">
<title>Node1</title>
<g id="a_Node000001"><a xlink:title=" ">
<polygon fill="#999999" stroke="#666666" points="2141,-152.25 2019.25,-152.25 2019.25,-121.75 2141,-121.75 2141,-152.25"/>
<text text-anchor="start" x="2027.25" y="-138.75" font-family="Helvetica,sans-Serif" font-size="10.00">include/Sandals/System</text>
<text text-anchor="middle" x="2080.12" y="-127.5" font-family="Helvetica,sans-Serif" font-size="10.00">/SemiExplicit.hh</text>
</a>
</g>
</g>
<!-- Node2 -->
<g id="Node000002" class="node">
<title>Node2</title>
<g id="a_Node000002"><a xlink:href="_runge_kutta_8hh.html" target="_top" xlink:title=" ">
<polygon fill="white" stroke="#666666" points="2156.75,-85.75 2003.5,-85.75 2003.5,-66.5 2156.75,-66.5 2156.75,-85.75"/>
<text text-anchor="middle" x="2080.12" y="-72.25" font-family="Helvetica,sans-Serif" font-size="10.00">include/Sandals/RungeKutta.hh</text>
</a>
</g>
</g>
<!-- Node1&#45;&gt;Node2 -->
<g id="edge1_Node000001_Node000002" class="edge">
<title>Node1&#45;&gt;Node2</title>
<g id="a_edge1_Node000001_Node000002"><a xlink:title=" ">
<path fill="none" stroke="#63b8ff" d="M2080.12,-109.98C2080.12,-101.48 2080.12,-92.59 2080.12,-86.2"/>
<polygon fill="#63b8ff" stroke="#63b8ff" points="2076.63,-109.93 2080.13,-119.93 2083.63,-109.93 2076.63,-109.93"/>
</a>
</g>
</g>
<!-- Node3 -->
<g id="Node000003" class="node">
<title>Node3</title>
<g id="a_Node000003"><a xlink:href="_b_v_p_8hh.html" target="_top" xlink:title=" ">
<polygon fill="white" stroke="#666666" points="120.25,-24.88 0,-24.88 0,-5.63 120.25,-5.63 120.25,-24.88"/>
<text text-anchor="middle" x="60.12" y="-11.38" font-family="Helvetica,sans-Serif" font-size="10.00">include/Sandals/BVP.hh</text>
</a>
</g>
</g>
<!-- Node2&#45;&gt;Node3 -->
<g id="edge2_Node000002_Node000003" class="edge">
<title>Node2&#45;&gt;Node3</title>
<g id="a_edge2_Node000002_Node000003"><a xlink:title=" ">
<path fill="none" stroke="#63b8ff" d="M1991.75,-75.23C1661.14,-75.27 497.37,-72.39 129.12,-30.5 118.92,-29.34 107.98,-27.41 97.89,-25.33"/>
<polygon fill="#63b8ff" stroke="#63b8ff" points="1991.64,-78.73 2001.64,-75.22 1991.64,-71.73 1991.64,-78.73"/>
</a>
</g>
</g>
<!-- Node4 -->
<g id="Node000004" class="node">
<title>Node4</title>
<g id="a_Node000004"><a xlink:href="_i_v_p_8hh.html" target="_top" xlink:title=" ">
<polygon fill="white" stroke="#666666" points="254.38,-24.88 137.88,-24.88 137.88,-5.63 254.38,-5.63 254.38,-24.88"/>
<text text-anchor="middle" x="196.12" y="-11.38" font-family="Helvetica,sans-Serif" font-size="10.00">include/Sandals/IVP.hh</text>
</a>
</g>
</g>
<!-- Node2&#45;&gt;Node4 -->
<g id="edge3_Node000002_Node000004" class="edge">
<title>Node2&#45;&gt;Node4</title>
<g id="a_edge3_Node000002_Node000004"><a xlink:title=" ">
<path fill="none" stroke="#63b8ff" d="M1991.78,-75.12C1675.99,-74.76 603.74,-70.56 263.12,-30.5 253.2,-29.33 242.58,-27.4 232.78,-25.32"/>
<polygon fill="#63b8ff" stroke="#63b8ff" points="1991.63,-78.62 2001.63,-75.13 1991.63,-71.62 1991.63,-78.62"/>
</a>
</g>
</g>
<!-- Node5 -->
<g id="Node000005" class="node">
<title>Node5</title>
<g id="a_Node000005"><a xlink:href="_chebyshev51_8hh.html" target="_top" xlink:title=" ">
<polygon fill="white" stroke="#666666" points="412,-30.5 272.25,-30.5 272.25,0 412,0 412,-30.5"/>
<text text-anchor="start" x="280.25" y="-17" font-family="Helvetica,sans-Serif" font-size="10.00">include/Sandals/RungeKutta</text>
<text text-anchor="middle" x="342.12" y="-5.75" font-family="Helvetica,sans-Serif" font-size="10.00">/Chebyshev51.hh</text>
</a>
</g>
</g>
<!-- Node2&#45;&gt;Node5 -->
<g id="edge4_Node000002_Node000005" class="edge">
<title>Node2&#45;&gt;Node5</title>
<g id="a_edge4_Node000002_Node000005"><a xlink:title=" ">
<path fill="none" stroke="#63b8ff" d="M1992.31,-74.52C1695.36,-72.2 730.09,-62.34 421.12,-30.5 418.21,-30.2 415.25,-29.85 412.26,-29.47"/>
<polygon fill="#63b8ff" stroke="#63b8ff" points="1991.89,-78.02 2001.92,-74.59 1991.94,-71.02 1991.89,-78.02"/>
</a>
</g>
</g>
<!-- Node6 -->
<g id="Node000006" class="node">
<title>Node6</title>
<g id="a_Node000006"><a xlink:href="_explicit_euler_8hh.html" target="_top" xlink:title=" ">
<polygon fill="white" stroke="#666666" points="570,-30.5 430.25,-30.5 430.25,0 570,0 570,-30.5"/>
<text text-anchor="start" x="438.25" y="-17" font-family="Helvetica,sans-Serif" font-size="10.00">include/Sandals/RungeKutta</text>
<text text-anchor="middle" x="500.12" y="-5.75" font-family="Helvetica,sans-Serif" font-size="10.00">/ExplicitEuler.hh</text>
</a>
</g>
</g>
<!-- Node2&#45;&gt;Node6 -->
<g id="edge5_Node000002_Node000006" class="edge">
<title>Node2&#45;&gt;Node6</title>
<g id="a_edge5_Node000002_Node000006"><a xlink:title=" ">
<path fill="none" stroke="#63b8ff" d="M1991.83,-74.23C1713.36,-71.12 855.65,-59.39 579.12,-30.5 576.21,-30.2 573.25,-29.85 570.26,-29.46"/>
<polygon fill="#63b8ff" stroke="#63b8ff" points="1991.52,-77.72 2001.56,-74.33 1991.6,-70.72 1991.52,-77.72"/>
</a>
</g>
</g>
<!-- Node7 -->
<g id="Node000007" class="node">
<title>Node7</title>
<g id="a_Node000007"><a xlink:href="_fehlberg45_8hh.html" target="_top" xlink:title=" ">
<polygon fill="white" stroke="#666666" points="728,-30.5 588.25,-30.5 588.25,0 728,0 728,-30.5"/>
<text text-anchor="start" x="596.25" y="-17" font-family="Helvetica,sans-Serif" font-size="10.00">include/Sandals/RungeKutta</text>
<text text-anchor="middle" x="658.12" y="-5.75" font-family="Helvetica,sans-Serif" font-size="10.00">/Fehlberg45.hh</text>
</a>
</g>
</g>
<!-- Node2&#45;&gt;Node7 -->
<g id="edge6_Node000002_Node000007" class="edge">
<title>Node2&#45;&gt;Node7</title>
<g id="a_edge6_Node000002_Node000007"><a xlink:title=" ">
<path fill="none" stroke="#63b8ff" d="M1991.96,-73.87C1733.67,-69.92 981.57,-56.47 737.12,-30.5 734.21,-30.19 731.25,-29.84 728.26,-29.45"/>
<polygon fill="#63b8ff" stroke="#63b8ff" points="1991.59,-77.36 2001.64,-74.02 1991.69,-70.36 1991.59,-77.36"/>
</a>
</g>
</g>
<!-- Node8 -->
<g id="Node000008" class="node">
<title>Node8</title>
<g id="a_Node000008"><a xlink:href="_gauss_legendre2_8hh.html" target="_top" xlink:title=" ">
<polygon fill="white" stroke="#666666" points="886,-30.5 746.25,-30.5 746.25,0 886,0 886,-30.5"/>
<text text-anchor="start" x="754.25" y="-17" font-family="Helvetica,sans-Serif" font-size="10.00">include/Sandals/RungeKutta</text>
<text text-anchor="middle" x="816.12" y="-5.75" font-family="Helvetica,sans-Serif" font-size="10.00">/GaussLegendre2.hh</text>
</a>
</g>
</g>
<!-- Node2&#45;&gt;Node8 -->
<g id="edge7_Node000002_Node000008" class="edge">
<title>Node2&#45;&gt;Node8</title>
<g id="a_edge7_Node000002_Node000008"><a xlink:title=" ">
<path fill="none" stroke="#63b8ff" d="M1991.85,-73.41C1754.74,-68.56 1107.58,-53.55 895.12,-30.5 892.22,-30.18 889.25,-29.82 886.26,-29.43"/>
<polygon fill="#63b8ff" stroke="#63b8ff" points="1991.59,-76.91 2001.65,-73.61 1991.73,-69.91 1991.59,-76.91"/>
</a>
</g>
</g>
<!-- Node9 -->
<g id="Node000009" class="node">
<title>Node9</title>
<g id="a_Node000009"><a xlink:href="_gauss_legendre4_8hh.html" target="_top" xlink:title=" ">
<polygon fill="white" stroke="#666666" points="1044,-30.5 904.25,-30.5 904.25,0 1044,0 1044,-30.5"/>
<text text-anchor="start" x="912.25" y="-17" font-family="Helvetica,sans-Serif" font-size="10.00">include/Sandals/RungeKutta</text>
<text text-anchor="middle" x="974.12" y="-5.75" font-family="Helvetica,sans-Serif" font-size="10.00">/GaussLegendre4.hh</text>
</a>
</g>
</g>
<!-- Node2&#45;&gt;Node9 -->
<g id="edge8_Node000002_Node000009" class="edge">
<title>Node2&#45;&gt;Node9</title>
<g id="a_edge8_Node000002_Node000009"><a xlink:title=" ">
<path fill="none" stroke="#63b8ff" d="M1991.81,-75.29C1813.7,-74.75 1398.94,-69.02 1053.12,-30.5 1050.22,-30.18 1047.25,-29.81 1044.26,-29.41"/>
<polygon fill="#63b8ff" stroke="#63b8ff" points="1991.67,-78.79 2001.68,-75.32 1991.69,-71.79 1991.67,-78.79"/>
</a>
</g>
</g>
<!-- Node10 -->
<g id="Node000010" class="node">
<title>Node10</title>
<g id="a_Node000010"><a xlink:href="_gauss_legendre6_8hh.html" target="_top" xlink:title=" ">
<polygon fill="white" stroke="#666666" points="1202,-30.5 1062.25,-30.5 1062.25,0 1202,0 1202,-30.5"/>
<text text-anchor="start" x="1070.25" y="-17" font-family="Helvetica,sans-Serif" font-size="10.00">include/Sandals/RungeKutta</text>
<text text-anchor="middle" x="1132.12" y="-5.75" font-family="Helvetica,sans-Serif" font-size="10.00">/GaussLegendre6.hh</text>
</a>
</g>
</g>
<!-- Node2&#45;&gt;Node10 -->
<g id="edge9_Node000002_Node000010" class="edge">
<title>Node2&#45;&gt;Node10</title>
<g id="a_edge9_Node000002_Node000010"><a xlink:title=" ">
<path fill="none" stroke="#63b8ff" d="M1991.65,-74.29C1834.19,-71.98 1495.15,-63.27 1211.12,-30.5 1208.22,-30.16 1205.26,-29.79 1202.27,-29.38"/>
<polygon fill="#63b8ff" stroke="#63b8ff" points="1991.57,-77.79 2001.62,-74.43 1991.67,-70.79 1991.57,-77.79"/>
</a>
</g>
</g>
<!-- Node11 -->
<g id="Node000011" class="node">
<title>Node11</title>
<g id="a_Node000011"><a xlink:href="_heun2_8hh.html" target="_top" xlink:title=" ">
<polygon fill="white" stroke="#666666" points="1360,-30.5 1220.25,-30.5 1220.25,0 1360,0 1360,-30.5"/>
<text text-anchor="start" x="1228.25" y="-17" font-family="Helvetica,sans-Serif" font-size="10.00">include/Sandals/RungeKutta</text>
<text text-anchor="middle" x="1290.12" y="-5.75" font-family="Helvetica,sans-Serif" font-size="10.00">/Heun2.hh</text>
</a>
</g>
</g>
<!-- Node2&#45;&gt;Node11 -->
<g id="edge10_Node000002_Node000011" class="edge">
<title>Node2&#45;&gt;Node11</title>
<g id="a_edge10_Node000002_Node000011"><a xlink:title=" ">
<path fill="none" stroke="#63b8ff" d="M1991.6,-72.86C1856.82,-68.67 1592.23,-57.53 1369.12,-30.5 1366.22,-30.15 1363.26,-29.76 1360.27,-29.34"/>
<polygon fill="#63b8ff" stroke="#63b8ff" points="1991.44,-76.36 2001.54,-73.16 1991.65,-69.36 1991.44,-76.36"/>
</a>
</g>
</g>
<!-- Node12 -->
<g id="Node000012" class="node">
<title>Node12</title>
<g id="a_Node000012"><a xlink:href="_heun3_8hh.html" target="_top" xlink:title=" ">
<polygon fill="white" stroke="#666666" points="1518,-30.5 1378.25,-30.5 1378.25,0 1518,0 1518,-30.5"/>
<text text-anchor="start" x="1386.25" y="-17" font-family="Helvetica,sans-Serif" font-size="10.00">include/Sandals/RungeKutta</text>
<text text-anchor="middle" x="1448.12" y="-5.75" font-family="Helvetica,sans-Serif" font-size="10.00">/Heun3.hh</text>
</a>
</g>
</g>
<!-- Node2&#45;&gt;Node12 -->
<g id="edge11_Node000002_Node000012" class="edge">
<title>Node2&#45;&gt;Node12</title>
<g id="a_edge11_Node000002_Node000012"><a xlink:title=" ">
<path fill="none" stroke="#63b8ff" d="M1992.1,-70.69C1882.75,-64.56 1690.63,-51.79 1527.12,-30.5 1524.22,-30.12 1521.27,-29.71 1518.28,-29.27"/>
<polygon fill="#63b8ff" stroke="#63b8ff" points="1991.7,-74.17 2001.88,-71.23 1992.09,-67.18 1991.7,-74.17"/>
</a>
</g>
</g>
<!-- Node13 -->
<g id="Node000013" class="node">
<title>Node13</title>
<g id="a_Node000013"><a xlink:href="_implicit_euler_8hh.html" target="_top" xlink:title=" ">
<polygon fill="white" stroke="#666666" points="1676,-30.5 1536.25,-30.5 1536.25,0 1676,0 1676,-30.5"/>
<text text-anchor="start" x="1544.25" y="-17" font-family="Helvetica,sans-Serif" font-size="10.00">include/Sandals/RungeKutta</text>
<text text-anchor="middle" x="1606.12" y="-5.75" font-family="Helvetica,sans-Serif" font-size="10.00">/ImplicitEuler.hh</text>
</a>
</g>
</g>
<!-- Node2&#45;&gt;Node13 -->
<g id="edge12_Node000002_Node000013" class="edge">
<title>Node2&#45;&gt;Node13</title>
<g id="a_edge12_Node000002_Node000013"><a xlink:title=" ">
<path fill="none" stroke="#63b8ff" d="M1992.06,-66.86C1911.87,-58.93 1790.29,-45.91 1685.12,-30.5 1682.23,-30.08 1679.28,-29.63 1676.3,-29.16"/>
<polygon fill="#63b8ff" stroke="#63b8ff" points="1991.3,-70.3 2001.59,-67.79 1991.98,-63.33 1991.3,-70.3"/>
</a>
</g>
</g>
<!-- Node14 -->
<g id="Node000014" class="node">
<title>Node14</title>
<g id="a_Node000014"><a xlink:href="_lobatto_i_i_i_a2_8hh.html" target="_top" xlink:title=" ">
<polygon fill="white" stroke="#666666" points="1834,-30.5 1694.25,-30.5 1694.25,0 1834,0 1834,-30.5"/>
<text text-anchor="start" x="1702.25" y="-17" font-family="Helvetica,sans-Serif" font-size="10.00">include/Sandals/RungeKutta</text>
<text text-anchor="middle" x="1764.12" y="-5.75" font-family="Helvetica,sans-Serif" font-size="10.00">/LobattoIIIA2.hh</text>
</a>
</g>
</g>
<!-- Node2&#45;&gt;Node14 -->
<g id="edge13_Node000002_Node000014" class="edge">
<title>Node2&#45;&gt;Node14</title>
<g id="a_edge13_Node000002_Node000014"><a xlink:title=" ">
<path fill="none" stroke="#63b8ff" d="M2020.2,-63.96C1967.28,-54.1 1890.07,-39.72 1834.28,-29.32"/>
<polygon fill="#63b8ff" stroke="#63b8ff" points="2019.48,-67.39 2029.95,-65.78 2020.76,-60.51 2019.48,-67.39"/>
</a>
</g>
</g>
<!-- Node15 -->
<g id="Node000015" class="node">
<title>Node15</title>
<g id="a_Node000015"><a xlink:href="_m_t_e22_8hh.html" target="_top" xlink:title=" ">
<polygon fill="white" stroke="#666666" points="1992,-30.5 1852.25,-30.5 1852.25,0 1992,0 1992,-30.5"/>
<text text-anchor="start" x="1860.25" y="-17" font-family="Helvetica,sans-Serif" font-size="10.00">include/Sandals/RungeKutta</text>
<text text-anchor="middle" x="1922.12" y="-5.75" font-family="Helvetica,sans-Serif" font-size="10.00">/MTE22.hh</text>
</a>
</g>
</g>
<!-- Node2&#45;&gt;Node15 -->
<g id="edge14_Node000002_Node000015" class="edge">
<title>Node2&#45;&gt;Node15</title>
<g id="a_edge14_Node000002_Node000015"><a xlink:title=" ">
<path fill="none" stroke="#63b8ff" d="M2045.07,-62.06C2020.35,-52.85 1987.21,-40.5 1961.56,-30.94"/>
<polygon fill="#63b8ff" stroke="#63b8ff" points="2043.77,-65.31 2054.37,-65.53 2046.22,-58.75 2043.77,-65.31"/>
</a>
</g>
</g>
<!-- Node16 -->
<g id="Node000016" class="node">
<title>Node16</title>
<g id="a_Node000016"><a xlink:href="_r_k4_8hh.html" target="_top" xlink:title=" ">
<polygon fill="white" stroke="#666666" points="2150,-30.5 2010.25,-30.5 2010.25,0 2150,0 2150,-30.5"/>
<text text-anchor="start" x="2018.25" y="-17" font-family="Helvetica,sans-Serif" font-size="10.00">include/Sandals/RungeKutta</text>
<text text-anchor="middle" x="2080.12" y="-5.75" font-family="Helvetica,sans-Serif" font-size="10.00">/RK4.hh</text>
</a>
</g>
</g>
<!-- Node2&#45;&gt;Node16 -->
<g id="edge15_Node000002_Node000016" class="edge">
<title>Node2&#45;&gt;Node16</title>
<g id="a_edge15_Node000002_Node000016"><a xlink:title=" ">
<path fill="none" stroke="#63b8ff" d="M2080.12,-54.92C2080.12,-46.99 2080.12,-38.06 2080.12,-30.78"/>
<polygon fill="#63b8ff" stroke="#63b8ff" points="2076.63,-54.67 2080.13,-64.67 2083.63,-54.67 2076.63,-54.67"/>
</a>
</g>
</g>
<!-- Node17 -->
<g id="Node000017" class="node">
<title>Node17</title>
<g id="a_Node000017"><a xlink:href="_radau_i_i_a3_8hh.html" target="_top" xlink:title=" ">
<polygon fill="white" stroke="#666666" points="2308,-30.5 2168.25,-30.5 2168.25,0 2308,0 2308,-30.5"/>
<text text-anchor="start" x="2176.25" y="-17" font-family="Helvetica,sans-Serif" font-size="10.00">include/Sandals/RungeKutta</text>
<text text-anchor="middle" x="2238.12" y="-5.75" font-family="Helvetica,sans-Serif" font-size="10.00">/RadauIIA3.hh</text>
</a>
</g>
</g>
<!-- Node2&#45;&gt;Node17 -->
<g id="edge16_Node000002_Node000017" class="edge">
<title>Node2&#45;&gt;Node17</title>
<g id="a_edge16_Node000002_Node000017"><a xlink:title=" ">
<path fill="none" stroke="#63b8ff" d="M2115.18,-62.06C2139.9,-52.85 2173.04,-40.5 2198.69,-30.94"/>
<polygon fill="#63b8ff" stroke="#63b8ff" points="2114.03,-58.75 2105.88,-65.53 2116.48,-65.31 2114.03,-58.75"/>
</a>
</g>
</g>
<!-- Node18 -->
<g id="Node000018" class="node">
<title>Node18</title>
<g id="a_Node000018"><a xlink:href="_radau_i_i_a5_8hh.html" target="_top" xlink:title=" ">
<polygon fill="white" stroke="#666666" points="2466,-30.5 2326.25,-30.5 2326.25,0 2466,0 2466,-30.5"/>
<text text-anchor="start" x="2334.25" y="-17" font-family="Helvetica,sans-Serif" font-size="10.00">include/Sandals/RungeKutta</text>
<text text-anchor="middle" x="2396.12" y="-5.75" font-family="Helvetica,sans-Serif" font-size="10.00">/RadauIIA5.hh</text>
</a>
</g>
</g>
<!-- Node2&#45;&gt;Node18 -->
<g id="edge17_Node000002_Node000018" class="edge">
<title>Node2&#45;&gt;Node18</title>
<g id="a_edge17_Node000002_Node000018"><a xlink:title=" ">
<path fill="none" stroke="#63b8ff" d="M2140.05,-63.96C2192.97,-54.1 2270.18,-39.72 2325.97,-29.32"/>
<polygon fill="#63b8ff" stroke="#63b8ff" points="2139.49,-60.51 2130.3,-65.78 2140.77,-67.39 2139.49,-60.51"/>
</a>
</g>
</g>
<!-- Node19 -->
<g id="Node000019" class="node">
<title>Node19</title>
<g id="a_Node000019"><a xlink:href="_ralston2_8hh.html" target="_top" xlink:title=" ">
<polygon fill="white" stroke="#666666" points="2624,-30.5 2484.25,-30.5 2484.25,0 2624,0 2624,-30.5"/>
<text text-anchor="start" x="2492.25" y="-17" font-family="Helvetica,sans-Serif" font-size="10.00">include/Sandals/RungeKutta</text>
<text text-anchor="middle" x="2554.12" y="-5.75" font-family="Helvetica,sans-Serif" font-size="10.00">/Ralston2.hh</text>
</a>
</g>
</g>
<!-- Node2&#45;&gt;Node19 -->
<g id="edge18_Node000002_Node000019" class="edge">
<title>Node2&#45;&gt;Node19</title>
<g id="a_edge18_Node000002_Node000019"><a xlink:title=" ">
<path fill="none" stroke="#63b8ff" d="M2168.19,-66.86C2248.38,-58.93 2369.96,-45.91 2475.12,-30.5 2478.02,-30.08 2480.97,-29.63 2483.95,-29.16"/>
<polygon fill="#63b8ff" stroke="#63b8ff" points="2168.27,-63.33 2158.66,-67.79 2168.95,-70.3 2168.27,-63.33"/>
</a>
</g>
</g>
<!-- Node20 -->
<g id="Node000020" class="node">
<title>Node20</title>
<g id="a_Node000020"><a xlink:href="_ralston3_8hh.html" target="_top" xlink:title=" ">
<polygon fill="white" stroke="#666666" points="2782,-30.5 2642.25,-30.5 2642.25,0 2782,0 2782,-30.5"/>
<text text-anchor="start" x="2650.25" y="-17" font-family="Helvetica,sans-Serif" font-size="10.00">include/Sandals/RungeKutta</text>
<text text-anchor="middle" x="2712.12" y="-5.75" font-family="Helvetica,sans-Serif" font-size="10.00">/Ralston3.hh</text>
</a>
</g>
</g>
<!-- Node2&#45;&gt;Node20 -->
<g id="edge19_Node000002_Node000020" class="edge">
<title>Node2&#45;&gt;Node20</title>
<g id="a_edge19_Node000002_Node000020"><a xlink:title=" ">
<path fill="none" stroke="#63b8ff" d="M2168.15,-70.69C2277.5,-64.56 2469.62,-51.79 2633.12,-30.5 2636.03,-30.12 2638.98,-29.71 2641.97,-29.27"/>
<polygon fill="#63b8ff" stroke="#63b8ff" points="2168.16,-67.18 2158.37,-71.23 2168.55,-74.17 2168.16,-67.18"/>
</a>
</g>
</g>
<!-- Node21 -->
<g id="Node000021" class="node">
<title>Node21</title>
<g id="a_Node000021"><a xlink:href="_ralston4_8hh.html" target="_top" xlink:title=" ">
<polygon fill="white" stroke="#666666" points="2940,-30.5 2800.25,-30.5 2800.25,0 2940,0 2940,-30.5"/>
<text text-anchor="start" x="2808.25" y="-17" font-family="Helvetica,sans-Serif" font-size="10.00">include/Sandals/RungeKutta</text>
<text text-anchor="middle" x="2870.12" y="-5.75" font-family="Helvetica,sans-Serif" font-size="10.00">/Ralston4.hh</text>
</a>
</g>
</g>
<!-- Node2&#45;&gt;Node21 -->
<g id="edge20_Node000002_Node000021" class="edge">
<title>Node2&#45;&gt;Node21</title>
<g id="a_edge20_Node000002_Node000021"><a xlink:title=" ">
<path fill="none" stroke="#63b8ff" d="M2168.65,-72.86C2303.43,-68.67 2568.02,-57.53 2791.12,-30.5 2794.03,-30.15 2796.99,-29.76 2799.98,-29.34"/>
<polygon fill="#63b8ff" stroke="#63b8ff" points="2168.6,-69.36 2158.71,-73.16 2168.81,-76.36 2168.6,-69.36"/>
</a>
</g>
</g>
<!-- Node22 -->
<g id="Node000022" class="node">
<title>Node22</title>
<g id="a_Node000022"><a xlink:href="_s_s_p_i_r_k33_8hh.html" target="_top" xlink:title=" ">
<polygon fill="white" stroke="#666666" points="3098,-30.5 2958.25,-30.5 2958.25,0 3098,0 3098,-30.5"/>
<text text-anchor="start" x="2966.25" y="-17" font-family="Helvetica,sans-Serif" font-size="10.00">include/Sandals/RungeKutta</text>
<text text-anchor="middle" x="3028.12" y="-5.75" font-family="Helvetica,sans-Serif" font-size="10.00">/SSPIRK33.hh</text>
</a>
</g>
</g>
<!-- Node2&#45;&gt;Node22 -->
<g id="edge21_Node000002_Node000022" class="edge">
<title>Node2&#45;&gt;Node22</title>
<g id="a_edge21_Node000002_Node000022"><a xlink:title=" ">
<path fill="none" stroke="#63b8ff" d="M2168.6,-74.29C2326.06,-71.98 2665.1,-63.27 2949.12,-30.5 2952.03,-30.16 2954.99,-29.79 2957.98,-29.38"/>
<polygon fill="#63b8ff" stroke="#63b8ff" points="2168.58,-70.79 2158.63,-74.43 2168.68,-77.79 2168.58,-70.79"/>
</a>
</g>
</g>
<!-- Node23 -->
<g id="Node000023" class="node">
<title>Node23</title>
<g id="a_Node000023"><a xlink:href="_s_s_p_r_k104_8hh.html" target="_top" xlink:title=" ">
<polygon fill="white" stroke="#666666" points="3256,-30.5 3116.25,-30.5 3116.25,0 3256,0 3256,-30.5"/>
<text text-anchor="start" x="3124.25" y="-17" font-family="Helvetica,sans-Serif" font-size="10.00">include/Sandals/RungeKutta</text>
<text text-anchor="middle" x="3186.12" y="-5.75" font-family="Helvetica,sans-Serif" font-size="10.00">/SSPRK104.hh</text>
</a>
</g>
</g>
<!-- Node2&#45;&gt;Node23 -->
<g id="edge22_Node000002_Node000023" class="edge">
<title>Node2&#45;&gt;Node23</title>
<g id="a_edge22_Node000002_Node000023"><a xlink:title=" ">
<path fill="none" stroke="#63b8ff" d="M2168.44,-75.29C2346.55,-74.75 2761.31,-69.02 3107.12,-30.5 3110.03,-30.18 3113,-29.81 3115.99,-29.41"/>
<polygon fill="#63b8ff" stroke="#63b8ff" points="2168.56,-71.79 2158.57,-75.32 2168.58,-78.79 2168.56,-71.79"/>
</a>
</g>
</g>
<!-- Node24 -->
<g id="Node000024" class="node">
<title>Node24</title>
<g id="a_Node000024"><a xlink:href="_s_s_p_r_k22_8hh.html" target="_top" xlink:title=" ">
<polygon fill="white" stroke="#666666" points="3414,-30.5 3274.25,-30.5 3274.25,0 3414,0 3414,-30.5"/>
<text text-anchor="start" x="3282.25" y="-17" font-family="Helvetica,sans-Serif" font-size="10.00">include/Sandals/RungeKutta</text>
<text text-anchor="middle" x="3344.12" y="-5.75" font-family="Helvetica,sans-Serif" font-size="10.00">/SSPRK22.hh</text>
</a>
</g>
</g>
<!-- Node2&#45;&gt;Node24 -->
<g id="edge23_Node000002_Node000024" class="edge">
<title>Node2&#45;&gt;Node24</title>
<g id="a_edge23_Node000002_Node000024"><a xlink:title=" ">
<path fill="none" stroke="#63b8ff" d="M2168.4,-73.41C2405.51,-68.56 3052.67,-53.55 3265.12,-30.5 3268.03,-30.18 3271,-29.82 3273.99,-29.43"/>
<polygon fill="#63b8ff" stroke="#63b8ff" points="2168.52,-69.91 2158.6,-73.61 2168.66,-76.91 2168.52,-69.91"/>
</a>
</g>
</g>
<!-- Node25 -->
<g id="Node000025" class="node">
<title>Node25</title>
<g id="a_Node000025"><a xlink:href="_s_s_p_r_k22star_8hh.html" target="_top" xlink:title=" ">
<polygon fill="white" stroke="#666666" points="3572,-30.5 3432.25,-30.5 3432.25,0 3572,0 3572,-30.5"/>
<text text-anchor="start" x="3440.25" y="-17" font-family="Helvetica,sans-Serif" font-size="10.00">include/Sandals/RungeKutta</text>
<text text-anchor="middle" x="3502.12" y="-5.75" font-family="Helvetica,sans-Serif" font-size="10.00">/SSPRK22star.hh</text>
</a>
</g>
</g>
<!-- Node2&#45;&gt;Node25 -->
<g id="edge24_Node000002_Node000025" class="edge">
<title>Node2&#45;&gt;Node25</title>
<g id="a_edge24_Node000002_Node000025"><a xlink:title=" ">
<path fill="none" stroke="#63b8ff" d="M2168.29,-73.87C2426.58,-69.92 3178.68,-56.47 3423.12,-30.5 3426.04,-30.19 3429,-29.84 3431.99,-29.45"/>
<polygon fill="#63b8ff" stroke="#63b8ff" points="2168.56,-70.36 2158.61,-74.02 2168.66,-77.36 2168.56,-70.36"/>
</a>
</g>
</g>
<!-- Node26 -->
<g id="Node000026" class="node">
<title>Node26</title>
<g id="a_Node000026"><a xlink:href="_s_s_p_r_k33_8hh.html" target="_top" xlink:title=" ">
<polygon fill="white" stroke="#666666" points="3730,-30.5 3590.25,-30.5 3590.25,0 3730,0 3730,-30.5"/>
<text text-anchor="start" x="3598.25" y="-17" font-family="Helvetica,sans-Serif" font-size="10.00">include/Sandals/RungeKutta</text>
<text text-anchor="middle" x="3660.12" y="-5.75" font-family="Helvetica,sans-Serif" font-size="10.00">/SSPRK33.hh</text>
</a>
</g>
</g>
<!-- Node2&#45;&gt;Node26 -->
<g id="edge25_Node000002_Node000026" class="edge">
<title>Node2&#45;&gt;Node26</title>
<g id="a_edge25_Node000002_Node000026"><a xlink:title=" ">
<path fill="none" stroke="#63b8ff" d="M2168.42,-74.23C2446.89,-71.12 3304.6,-59.39 3581.12,-30.5 3584.04,-30.2 3587,-29.85 3589.99,-29.46"/>
<polygon fill="#63b8ff" stroke="#63b8ff" points="2168.65,-70.72 2158.69,-74.33 2168.73,-77.72 2168.65,-70.72"/>
</a>
</g>
</g>
<!-- Node27 -->
<g id="Node000027" class="node">
<title>Node27</title>
<g id="a_Node000027"><a xlink:href="_s_s_p_r_k42_8hh.html" target="_top" xlink:title=" ">
<polygon fill="white" stroke="#666666" points="3888,-30.5 3748.25,-30.5 3748.25,0 3888,0 3888,-30.5"/>
<text text-anchor="start" x="3756.25" y="-17" font-family="Helvetica,sans-Serif" font-size="10.00">include/Sandals/RungeKutta</text>
<text text-anchor="middle" x="3818.12" y="-5.75" font-family="Helvetica,sans-Serif" font-size="10.00">/SSPRK42.hh</text>
</a>
</g>
</g>
<!-- Node2&#45;&gt;Node27 -->
<g id="edge26_Node000002_Node000027" class="edge">
<title>Node2&#45;&gt;Node27</title>
<g id="a_edge26_Node000002_Node000027"><a xlink:title=" ">
<path fill="none" stroke="#63b8ff" d="M2167.94,-74.52C2464.89,-72.2 3430.16,-62.34 3739.12,-30.5 3742.04,-30.2 3745,-29.85 3747.99,-29.47"/>
<polygon fill="#63b8ff" stroke="#63b8ff" points="2168.31,-71.02 2158.33,-74.59 2168.36,-78.02 2168.31,-71.02"/>
</a>
</g>
</g>
<!-- Node28 -->
<g id="Node000028" class="node">
<title>Node28</title>
<g id="a_Node000028"><a xlink:href="_s_s_p_r_k43_8hh.html" target="_top" xlink:title=" ">
<polygon fill="white" stroke="#666666" points="4046,-30.5 3906.25,-30.5 3906.25,0 4046,0 4046,-30.5"/>
<text text-anchor="start" x="3914.25" y="-17" font-family="Helvetica,sans-Serif" font-size="10.00">include/Sandals/RungeKutta</text>
<text text-anchor="middle" x="3976.12" y="-5.75" font-family="Helvetica,sans-Serif" font-size="10.00">/SSPRK43.hh</text>
</a>
</g>
</g>
<!-- Node2&#45;&gt;Node28 -->
<g id="edge27_Node000002_Node000028" class="edge">
<title>Node2&#45;&gt;Node28</title>
<g id="a_edge27_Node000002_Node000028"><a xlink:title=" ">
<path fill="none" stroke="#63b8ff" d="M2168.43,-74.76C2484.09,-73.16 3555.93,-65.25 3897.12,-30.5 3900.04,-30.2 3903,-29.86 3905.99,-29.48"/>
<polygon fill="#63b8ff" stroke="#63b8ff" points="2168.57,-71.26 2158.59,-74.81 2168.6,-78.26 2168.57,-71.26"/>
</a>
</g>
</g>
<!-- Node29 -->
<g id="Node000029" class="node">
<title>Node29</title>
<g id="a_Node000029"><a xlink:href="_s_s_p_r_k93_8hh.html" target="_top" xlink:title=" ">
<polygon fill="white" stroke="#666666" points="4204,-30.5 4064.25,-30.5 4064.25,0 4204,0 4204,-30.5"/>
<text text-anchor="start" x="4072.25" y="-17" font-family="Helvetica,sans-Serif" font-size="10.00">include/Sandals/RungeKutta</text>
<text text-anchor="middle" x="4134.12" y="-5.75" font-family="Helvetica,sans-Serif" font-size="10.00">/SSPRK93.hh</text>
</a>
</g>
</g>
<!-- Node2&#45;&gt;Node29 -->
<g id="edge28_Node000002_Node000029" class="edge">
<title>Node2&#45;&gt;Node29</title>
<g id="a_edge28_Node000002_Node000029"><a xlink:title=" ">
<path fill="none" stroke="#63b8ff" d="M2168.71,-74.96C2502.12,-74.05 3681.53,-68.18 4055.12,-30.5 4058.04,-30.21 4061,-29.86 4063.99,-29.49"/>
<polygon fill="#63b8ff" stroke="#63b8ff" points="2168.71,-71.46 2158.72,-74.99 2168.73,-78.46 2168.71,-71.46"/>
</a>
</g>
</g>
</g>
</svg>
