<?xml version="1.0" encoding="UTF-8" standalone="no"?>
<!DOCTYPE svg PUBLIC "-//W3C//DTD SVG 1.1//EN"
 "http://www.w3.org/Graphics/SVG/1.1/DTD/svg11.dtd">
<!-- Generated by graphviz version 12.2.1 (20241206.2353)
 -->
<!-- Title: include/Sandals/System/SemiExplicit.hh Pages: 1 -->
<svg width="4096pt" height="160pt"
 viewBox="0.00 0.00 4095.62 160.25" xmlns="http://www.w3.org/2000/svg" xmlns:xlink="http://www.w3.org/1999/xlink">
<g id="graph0" class="graph" transform="scale(1 1) rotate(0) translate(4 156.25)">
<title>include/Sandals/System/SemiExplicit.hh</title>
<!-- Node1 -->
<g id="Node000001" class="node">
<title>Node1</title>
<g id="a_Node000001"><a xlink:title=" ">
<polygon fill="#999999" stroke="#666666" points="2103.62,-152.25 1981.88,-152.25 1981.88,-121.75 2103.62,-121.75 2103.62,-152.25"/>
<text text-anchor="start" x="1989.88" y="-138.75" font-family="Helvetica,sans-Serif" font-size="10.00">include/Sandals/System</text>
<text text-anchor="middle" x="2042.75" y="-127.5" font-family="Helvetica,sans-Serif" font-size="10.00">/SemiExplicit.hh</text>
</a>
</g>
</g>
<!-- Node2 -->
<g id="Node000002" class="node">
<title>Node2</title>
<g id="a_Node000002"><a xlink:href="_runge_kutta_8hh.html" target="_top" xlink:title=" ">
<polygon fill="white" stroke="#666666" points="2119.38,-85.75 1966.12,-85.75 1966.12,-66.5 2119.38,-66.5 2119.38,-85.75"/>
<text text-anchor="middle" x="2042.75" y="-72.25" font-family="Helvetica,sans-Serif" font-size="10.00">include/Sandals/RungeKutta.hh</text>
</a>
</g>
</g>
<!-- Node1&#45;&gt;Node2 -->
<g id="edge1_Node000001_Node000002" class="edge">
<title>Node1&#45;&gt;Node2</title>
<g id="a_edge1_Node000001_Node000002"><a xlink:title=" ">
<path fill="none" stroke="#63b8ff" d="M2042.75,-109.98C2042.75,-101.48 2042.75,-92.59 2042.75,-86.2"/>
<polygon fill="#63b8ff" stroke="#63b8ff" points="2039.25,-109.93 2042.75,-119.93 2046.25,-109.93 2039.25,-109.93"/>
</a>
</g>
</g>
<!-- Node3 -->
<g id="Node000003" class="node">
<title>Node3</title>
<g id="a_Node000003"><a xlink:href="_problem_8hh.html" target="_top" xlink:title=" ">
<polygon fill="white" stroke="#666666" points="137.5,-24.88 0,-24.88 0,-5.63 137.5,-5.63 137.5,-24.88"/>
<text text-anchor="middle" x="68.75" y="-11.38" font-family="Helvetica,sans-Serif" font-size="10.00">include/Sandals/Problem.hh</text>
</a>
</g>
</g>
<!-- Node2&#45;&gt;Node3 -->
<g id="edge2_Node000002_Node000003" class="edge">
<title>Node2&#45;&gt;Node3</title>
<g id="a_edge2_Node000002_Node000003"><a xlink:title=" ">
<path fill="none" stroke="#63b8ff" d="M1954.43,-74.89C1629.96,-73.73 504.14,-67.12 146.75,-30.5 135.25,-29.32 122.89,-27.38 111.49,-25.31"/>
<polygon fill="#63b8ff" stroke="#63b8ff" points="1954.11,-78.39 1964.12,-74.92 1954.13,-71.39 1954.11,-78.39"/>
</a>
</g>
</g>
<!-- Node4 -->
<g id="Node000004" class="node">
<title>Node4</title>
<g id="a_Node000004"><a xlink:href="_chebyshev51_8hh.html" target="_top" xlink:title=" ">
<polygon fill="white" stroke="#666666" points="295.62,-30.5 155.88,-30.5 155.88,0 295.62,0 295.62,-30.5"/>
<text text-anchor="start" x="163.88" y="-17" font-family="Helvetica,sans-Serif" font-size="10.00">include/Sandals/RungeKutta</text>
<text text-anchor="middle" x="225.75" y="-5.75" font-family="Helvetica,sans-Serif" font-size="10.00">/Chebyshev51.hh</text>
</a>
</g>
</g>
<!-- Node2&#45;&gt;Node4 -->
<g id="edge3_Node000002_Node000004" class="edge">
<title>Node2&#45;&gt;Node4</title>
<g id="a_edge3_Node000002_Node000004"><a xlink:title=" ">
<path fill="none" stroke="#63b8ff" d="M1954.46,-74.64C1647.78,-72.69 629.74,-63.79 304.75,-30.5 301.84,-30.2 298.87,-29.86 295.88,-29.47"/>
<polygon fill="#63b8ff" stroke="#63b8ff" points="1954.4,-78.14 1964.42,-74.7 1954.44,-71.14 1954.4,-78.14"/>
</a>
</g>
</g>
<!-- Node5 -->
<g id="Node000005" class="node">
<title>Node5</title>
<g id="a_Node000005"><a xlink:href="_explicit_euler_8hh.html" target="_top" xlink:title=" ">
<polygon fill="white" stroke="#666666" points="453.62,-30.5 313.88,-30.5 313.88,0 453.62,0 453.62,-30.5"/>
<text text-anchor="start" x="321.88" y="-17" font-family="Helvetica,sans-Serif" font-size="10.00">include/Sandals/RungeKutta</text>
<text text-anchor="middle" x="383.75" y="-5.75" font-family="Helvetica,sans-Serif" font-size="10.00">/ExplicitEuler.hh</text>
</a>
</g>
</g>
<!-- Node2&#45;&gt;Node5 -->
<g id="edge4_Node000002_Node000005" class="edge">
<title>Node2&#45;&gt;Node5</title>
<g id="a_edge4_Node000002_Node000005"><a xlink:title=" ">
<path fill="none" stroke="#63b8ff" d="M1954.76,-74.38C1667,-71.67 755.5,-60.86 462.75,-30.5 459.84,-30.2 456.87,-29.85 453.88,-29.46"/>
<polygon fill="#63b8ff" stroke="#63b8ff" points="1954.41,-77.88 1964.45,-74.47 1954.48,-70.88 1954.41,-77.88"/>
</a>
</g>
</g>
<!-- Node6 -->
<g id="Node000006" class="node">
<title>Node6</title>
<g id="a_Node000006"><a xlink:href="_fehlberg45_8hh.html" target="_top" xlink:title=" ">
<polygon fill="white" stroke="#666666" points="611.62,-30.5 471.88,-30.5 471.88,0 611.62,0 611.62,-30.5"/>
<text text-anchor="start" x="479.88" y="-17" font-family="Helvetica,sans-Serif" font-size="10.00">include/Sandals/RungeKutta</text>
<text text-anchor="middle" x="541.75" y="-5.75" font-family="Helvetica,sans-Serif" font-size="10.00">/Fehlberg45.hh</text>
</a>
</g>
</g>
<!-- Node2&#45;&gt;Node6 -->
<g id="edge5_Node000002_Node000006" class="edge">
<title>Node2&#45;&gt;Node6</title>
<g id="a_edge5_Node000002_Node000006"><a xlink:title=" ">
<path fill="none" stroke="#63b8ff" d="M1954.54,-74.06C1686.05,-70.54 881.22,-57.93 620.75,-30.5 617.84,-30.19 614.87,-29.84 611.88,-29.45"/>
<polygon fill="#63b8ff" stroke="#63b8ff" points="1954.22,-77.55 1964.26,-74.18 1954.31,-70.55 1954.22,-77.55"/>
</a>
</g>
</g>
<!-- Node7 -->
<g id="Node000007" class="node">
<title>Node7</title>
<g id="a_Node000007"><a xlink:href="_gauss_legendre2_8hh.html" target="_top" xlink:title=" ">
<polygon fill="white" stroke="#666666" points="769.62,-30.5 629.88,-30.5 629.88,0 769.62,0 769.62,-30.5"/>
<text text-anchor="start" x="637.88" y="-17" font-family="Helvetica,sans-Serif" font-size="10.00">include/Sandals/RungeKutta</text>
<text text-anchor="middle" x="699.75" y="-5.75" font-family="Helvetica,sans-Serif" font-size="10.00">/GaussLegendre2.hh</text>
</a>
</g>
</g>
<!-- Node2&#45;&gt;Node7 -->
<g id="edge6_Node000002_Node000007" class="edge">
<title>Node2&#45;&gt;Node7</title>
<g id="a_edge6_Node000002_Node000007"><a xlink:title=" ">
<path fill="none" stroke="#63b8ff" d="M1954.29,-73.65C1706.21,-69.26 1007.1,-55 778.75,-30.5 775.84,-30.19 772.88,-29.83 769.89,-29.44"/>
<polygon fill="#63b8ff" stroke="#63b8ff" points="1954.19,-77.15 1964.25,-73.83 1954.31,-70.15 1954.19,-77.15"/>
</a>
</g>
</g>
<!-- Node8 -->
<g id="Node000008" class="node">
<title>Node8</title>
<g id="a_Node000008"><a xlink:href="_gauss_legendre4_8hh.html" target="_top" xlink:title=" ">
<polygon fill="white" stroke="#666666" points="927.62,-30.5 787.88,-30.5 787.88,0 927.62,0 927.62,-30.5"/>
<text text-anchor="start" x="795.88" y="-17" font-family="Helvetica,sans-Serif" font-size="10.00">include/Sandals/RungeKutta</text>
<text text-anchor="middle" x="857.75" y="-5.75" font-family="Helvetica,sans-Serif" font-size="10.00">/GaussLegendre4.hh</text>
</a>
</g>
</g>
<!-- Node2&#45;&gt;Node8 -->
<g id="edge7_Node000002_Node000008" class="edge">
<title>Node2&#45;&gt;Node8</title>
<g id="a_edge7_Node000002_Node000008"><a xlink:title=" ">
<path fill="none" stroke="#63b8ff" d="M1954.26,-75.69C1766.28,-75.99 1313.53,-71.88 936.75,-30.5 933.84,-30.18 930.88,-29.82 927.89,-29.42"/>
<polygon fill="#63b8ff" stroke="#63b8ff" points="1954.21,-79.19 1964.2,-75.67 1954.19,-72.19 1954.21,-79.19"/>
</a>
</g>
</g>
<!-- Node9 -->
<g id="Node000009" class="node">
<title>Node9</title>
<g id="a_Node000009"><a xlink:href="_gauss_legendre6_8hh.html" target="_top" xlink:title=" ">
<polygon fill="white" stroke="#666666" points="1085.62,-30.5 945.88,-30.5 945.88,0 1085.62,0 1085.62,-30.5"/>
<text text-anchor="start" x="953.88" y="-17" font-family="Helvetica,sans-Serif" font-size="10.00">include/Sandals/RungeKutta</text>
<text text-anchor="middle" x="1015.75" y="-5.75" font-family="Helvetica,sans-Serif" font-size="10.00">/GaussLegendre6.hh</text>
</a>
</g>
</g>
<!-- Node2&#45;&gt;Node9 -->
<g id="edge8_Node000002_Node000009" class="edge">
<title>Node2&#45;&gt;Node9</title>
<g id="a_edge8_Node000002_Node000009"><a xlink:title=" ">
<path fill="none" stroke="#63b8ff" d="M1954.18,-74.83C1786.09,-73.42 1409.48,-66.14 1094.75,-30.5 1091.84,-30.17 1088.88,-29.8 1085.89,-29.4"/>
<polygon fill="#63b8ff" stroke="#63b8ff" points="1954.14,-78.33 1964.16,-74.91 1954.19,-71.33 1954.14,-78.33"/>
</a>
</g>
</g>
<!-- Node10 -->
<g id="Node000010" class="node">
<title>Node10</title>
<g id="a_Node000010"><a xlink:href="_heun2_8hh.html" target="_top" xlink:title=" ">
<polygon fill="white" stroke="#666666" points="1243.62,-30.5 1103.88,-30.5 1103.88,0 1243.62,0 1243.62,-30.5"/>
<text text-anchor="start" x="1111.88" y="-17" font-family="Helvetica,sans-Serif" font-size="10.00">include/Sandals/RungeKutta</text>
<text text-anchor="middle" x="1173.75" y="-5.75" font-family="Helvetica,sans-Serif" font-size="10.00">/Heun2.hh</text>
</a>
</g>
</g>
<!-- Node2&#45;&gt;Node10 -->
<g id="edge9_Node000002_Node000010" class="edge">
<title>Node2&#45;&gt;Node10</title>
<g id="a_edge9_Node000002_Node000010"><a xlink:title=" ">
<path fill="none" stroke="#63b8ff" d="M1954.55,-73.65C1808.25,-70.42 1506.37,-60.42 1252.75,-30.5 1249.84,-30.16 1246.88,-29.77 1243.89,-29.36"/>
<polygon fill="#63b8ff" stroke="#63b8ff" points="1954.08,-77.14 1964.15,-73.86 1954.23,-70.14 1954.08,-77.14"/>
</a>
</g>
</g>
<!-- Node11 -->
<g id="Node000011" class="node">
<title>Node11</title>
<g id="a_Node000011"><a xlink:href="_heun3_8hh.html" target="_top" xlink:title=" ">
<polygon fill="white" stroke="#666666" points="1401.62,-30.5 1261.88,-30.5 1261.88,0 1401.62,0 1401.62,-30.5"/>
<text text-anchor="start" x="1269.88" y="-17" font-family="Helvetica,sans-Serif" font-size="10.00">include/Sandals/RungeKutta</text>
<text text-anchor="middle" x="1331.75" y="-5.75" font-family="Helvetica,sans-Serif" font-size="10.00">/Heun3.hh</text>
</a>
</g>
</g>
<!-- Node2&#45;&gt;Node11 -->
<g id="edge10_Node000002_Node000011" class="edge">
<title>Node2&#45;&gt;Node11</title>
<g id="a_edge10_Node000002_Node000011"><a xlink:title=" ">
<path fill="none" stroke="#63b8ff" d="M1954.48,-71.9C1832.04,-66.75 1603.91,-54.67 1410.75,-30.5 1407.85,-30.14 1404.89,-29.74 1401.9,-29.31"/>
<polygon fill="#63b8ff" stroke="#63b8ff" points="1953.98,-75.38 1964.12,-72.3 1954.27,-68.39 1953.98,-75.38"/>
</a>
</g>
</g>
<!-- Node12 -->
<g id="Node000012" class="node">
<title>Node12</title>
<g id="a_Node000012"><a xlink:href="_implicit_euler_8hh.html" target="_top" xlink:title=" ">
<polygon fill="white" stroke="#666666" points="1559.62,-30.5 1419.88,-30.5 1419.88,0 1559.62,0 1559.62,-30.5"/>
<text text-anchor="start" x="1427.88" y="-17" font-family="Helvetica,sans-Serif" font-size="10.00">include/Sandals/RungeKutta</text>
<text text-anchor="middle" x="1489.75" y="-5.75" font-family="Helvetica,sans-Serif" font-size="10.00">/ImplicitEuler.hh</text>
</a>
</g>
</g>
<!-- Node2&#45;&gt;Node12 -->
<g id="edge11_Node000002_Node000012" class="edge">
<title>Node2&#45;&gt;Node12</title>
<g id="a_edge11_Node000002_Node000012"><a xlink:title=" ">
<path fill="none" stroke="#63b8ff" d="M1954.43,-69.05C1859.04,-61.98 1702.72,-48.86 1568.75,-30.5 1565.85,-30.1 1562.89,-29.67 1559.91,-29.22"/>
<polygon fill="#63b8ff" stroke="#63b8ff" points="1954.02,-72.53 1964.25,-69.78 1954.53,-65.55 1954.02,-72.53"/>
</a>
</g>
</g>
<!-- Node13 -->
<g id="Node000013" class="node">
<title>Node13</title>
<g id="a_Node000013"><a xlink:href="_lobatto_i_i_i_a2_8hh.html" target="_top" xlink:title=" ">
<polygon fill="white" stroke="#666666" points="1717.62,-30.5 1577.88,-30.5 1577.88,0 1717.62,0 1717.62,-30.5"/>
<text text-anchor="start" x="1585.88" y="-17" font-family="Helvetica,sans-Serif" font-size="10.00">include/Sandals/RungeKutta</text>
<text text-anchor="middle" x="1647.75" y="-5.75" font-family="Helvetica,sans-Serif" font-size="10.00">/LobattoIIIA2.hh</text>
</a>
</g>
</g>
<!-- Node2&#45;&gt;Node13 -->
<g id="edge12_Node000002_Node000013" class="edge">
<title>Node2&#45;&gt;Node13</title>
<g id="a_edge12_Node000002_Node000013"><a xlink:title=" ">
<path fill="none" stroke="#63b8ff" d="M1961.46,-64.51C1897.56,-55.96 1806.35,-43.29 1726.75,-30.5 1723.86,-30.04 1720.91,-29.55 1717.94,-29.05"/>
<polygon fill="#63b8ff" stroke="#63b8ff" points="1960.79,-67.95 1971.16,-65.81 1961.71,-61.02 1960.79,-67.95"/>
</a>
</g>
</g>
<!-- Node14 -->
<g id="Node000014" class="node">
<title>Node14</title>
<g id="a_Node000014"><a xlink:href="_m_t_e22_8hh.html" target="_top" xlink:title=" ">
<polygon fill="white" stroke="#666666" points="1875.62,-30.5 1735.88,-30.5 1735.88,0 1875.62,0 1875.62,-30.5"/>
<text text-anchor="start" x="1743.88" y="-17" font-family="Helvetica,sans-Serif" font-size="10.00">include/Sandals/RungeKutta</text>
<text text-anchor="middle" x="1805.75" y="-5.75" font-family="Helvetica,sans-Serif" font-size="10.00">/MTE22.hh</text>
</a>
</g>
</g>
<!-- Node2&#45;&gt;Node14 -->
<g id="edge13_Node000002_Node000014" class="edge">
<title>Node2&#45;&gt;Node14</title>
<g id="a_edge13_Node000002_Node000014"><a xlink:title=" ">
<path fill="none" stroke="#63b8ff" d="M1995.11,-63.29C1957.59,-53.97 1905.11,-40.93 1864.9,-30.94"/>
<polygon fill="#63b8ff" stroke="#63b8ff" points="1994.22,-66.68 2004.77,-65.69 1995.91,-59.88 1994.22,-66.68"/>
</a>
</g>
</g>
<!-- Node15 -->
<g id="Node000015" class="node">
<title>Node15</title>
<g id="a_Node000015"><a xlink:href="_r_k4_8hh.html" target="_top" xlink:title=" ">
<polygon fill="white" stroke="#666666" points="2033.62,-30.5 1893.88,-30.5 1893.88,0 2033.62,0 2033.62,-30.5"/>
<text text-anchor="start" x="1901.88" y="-17" font-family="Helvetica,sans-Serif" font-size="10.00">include/Sandals/RungeKutta</text>
<text text-anchor="middle" x="1963.75" y="-5.75" font-family="Helvetica,sans-Serif" font-size="10.00">/RK4.hh</text>
</a>
</g>
</g>
<!-- Node2&#45;&gt;Node15 -->
<g id="edge14_Node000002_Node000015" class="edge">
<title>Node2&#45;&gt;Node15</title>
<g id="a_edge14_Node000002_Node000015"><a xlink:title=" ">
<path fill="none" stroke="#63b8ff" d="M2021.55,-59.32C2009.63,-50.45 1994.87,-39.44 1983.25,-30.78"/>
<polygon fill="#63b8ff" stroke="#63b8ff" points="2019.43,-62.11 2029.54,-65.28 2023.61,-56.5 2019.43,-62.11"/>
</a>
</g>
</g>
<!-- Node16 -->
<g id="Node000016" class="node">
<title>Node16</title>
<g id="a_Node000016"><a xlink:href="_radau_i_i_a3_8hh.html" target="_top" xlink:title=" ">
<polygon fill="white" stroke="#666666" points="2191.62,-30.5 2051.88,-30.5 2051.88,0 2191.62,0 2191.62,-30.5"/>
<text text-anchor="start" x="2059.88" y="-17" font-family="Helvetica,sans-Serif" font-size="10.00">include/Sandals/RungeKutta</text>
<text text-anchor="middle" x="2121.75" y="-5.75" font-family="Helvetica,sans-Serif" font-size="10.00">/RadauIIA3.hh</text>
</a>
</g>
</g>
<!-- Node2&#45;&gt;Node16 -->
<g id="edge15_Node000002_Node000016" class="edge">
<title>Node2&#45;&gt;Node16</title>
<g id="a_edge15_Node000002_Node000016"><a xlink:title=" ">
<path fill="none" stroke="#63b8ff" d="M2063.95,-59.32C2075.87,-50.45 2090.63,-39.44 2102.25,-30.78"/>
<polygon fill="#63b8ff" stroke="#63b8ff" points="2061.89,-56.5 2055.96,-65.28 2066.07,-62.11 2061.89,-56.5"/>
</a>
</g>
</g>
<!-- Node17 -->
<g id="Node000017" class="node">
<title>Node17</title>
<g id="a_Node000017"><a xlink:href="_radau_i_i_a5_8hh.html" target="_top" xlink:title=" ">
<polygon fill="white" stroke="#666666" points="2349.62,-30.5 2209.88,-30.5 2209.88,0 2349.62,0 2349.62,-30.5"/>
<text text-anchor="start" x="2217.88" y="-17" font-family="Helvetica,sans-Serif" font-size="10.00">include/Sandals/RungeKutta</text>
<text text-anchor="middle" x="2279.75" y="-5.75" font-family="Helvetica,sans-Serif" font-size="10.00">/RadauIIA5.hh</text>
</a>
</g>
</g>
<!-- Node2&#45;&gt;Node17 -->
<g id="edge16_Node000002_Node000017" class="edge">
<title>Node2&#45;&gt;Node17</title>
<g id="a_edge16_Node000002_Node000017"><a xlink:title=" ">
<path fill="none" stroke="#63b8ff" d="M2090.39,-63.29C2127.91,-53.97 2180.39,-40.93 2220.6,-30.94"/>
<polygon fill="#63b8ff" stroke="#63b8ff" points="2089.59,-59.88 2080.73,-65.69 2091.28,-66.68 2089.59,-59.88"/>
</a>
</g>
</g>
<!-- Node18 -->
<g id="Node000018" class="node">
<title>Node18</title>
<g id="a_Node000018"><a xlink:href="_ralston2_8hh.html" target="_top" xlink:title=" ">
<polygon fill="white" stroke="#666666" points="2507.62,-30.5 2367.88,-30.5 2367.88,0 2507.62,0 2507.62,-30.5"/>
<text text-anchor="start" x="2375.88" y="-17" font-family="Helvetica,sans-Serif" font-size="10.00">include/Sandals/RungeKutta</text>
<text text-anchor="middle" x="2437.75" y="-5.75" font-family="Helvetica,sans-Serif" font-size="10.00">/Ralston2.hh</text>
</a>
</g>
</g>
<!-- Node2&#45;&gt;Node18 -->
<g id="edge17_Node000002_Node000018" class="edge">
<title>Node2&#45;&gt;Node18</title>
<g id="a_edge17_Node000002_Node000018"><a xlink:title=" ">
<path fill="none" stroke="#63b8ff" d="M2124.04,-64.51C2187.94,-55.96 2279.15,-43.29 2358.75,-30.5 2361.64,-30.04 2364.59,-29.55 2367.56,-29.05"/>
<polygon fill="#63b8ff" stroke="#63b8ff" points="2123.79,-61.02 2114.34,-65.81 2124.71,-67.95 2123.79,-61.02"/>
</a>
</g>
</g>
<!-- Node19 -->
<g id="Node000019" class="node">
<title>Node19</title>
<g id="a_Node000019"><a xlink:href="_ralston3_8hh.html" target="_top" xlink:title=" ">
<polygon fill="white" stroke="#666666" points="2665.62,-30.5 2525.88,-30.5 2525.88,0 2665.62,0 2665.62,-30.5"/>
<text text-anchor="start" x="2533.88" y="-17" font-family="Helvetica,sans-Serif" font-size="10.00">include/Sandals/RungeKutta</text>
<text text-anchor="middle" x="2595.75" y="-5.75" font-family="Helvetica,sans-Serif" font-size="10.00">/Ralston3.hh</text>
</a>
</g>
</g>
<!-- Node2&#45;&gt;Node19 -->
<g id="edge18_Node000002_Node000019" class="edge">
<title>Node2&#45;&gt;Node19</title>
<g id="a_edge18_Node000002_Node000019"><a xlink:title=" ">
<path fill="none" stroke="#63b8ff" d="M2131.07,-69.05C2226.46,-61.98 2382.78,-48.86 2516.75,-30.5 2519.65,-30.1 2522.61,-29.67 2525.59,-29.22"/>
<polygon fill="#63b8ff" stroke="#63b8ff" points="2130.97,-65.55 2121.25,-69.78 2131.48,-72.53 2130.97,-65.55"/>
</a>
</g>
</g>
<!-- Node20 -->
<g id="Node000020" class="node">
<title>Node20</title>
<g id="a_Node000020"><a xlink:href="_ralston4_8hh.html" target="_top" xlink:title=" ">
<polygon fill="white" stroke="#666666" points="2823.62,-30.5 2683.88,-30.5 2683.88,0 2823.62,0 2823.62,-30.5"/>
<text text-anchor="start" x="2691.88" y="-17" font-family="Helvetica,sans-Serif" font-size="10.00">include/Sandals/RungeKutta</text>
<text text-anchor="middle" x="2753.75" y="-5.75" font-family="Helvetica,sans-Serif" font-size="10.00">/Ralston4.hh</text>
</a>
</g>
</g>
<!-- Node2&#45;&gt;Node20 -->
<g id="edge19_Node000002_Node000020" class="edge">
<title>Node2&#45;&gt;Node20</title>
<g id="a_edge19_Node000002_Node000020"><a xlink:title=" ">
<path fill="none" stroke="#63b8ff" d="M2131.02,-71.9C2253.46,-66.75 2481.59,-54.67 2674.75,-30.5 2677.65,-30.14 2680.61,-29.74 2683.6,-29.31"/>
<polygon fill="#63b8ff" stroke="#63b8ff" points="2131.23,-68.39 2121.38,-72.3 2131.52,-75.38 2131.23,-68.39"/>
</a>
</g>
</g>
<!-- Node21 -->
<g id="Node000021" class="node">
<title>Node21</title>
<g id="a_Node000021"><a xlink:href="_s_s_p_i_r_k33_8hh.html" target="_top" xlink:title=" ">
<polygon fill="white" stroke="#666666" points="2981.62,-30.5 2841.88,-30.5 2841.88,0 2981.62,0 2981.62,-30.5"/>
<text text-anchor="start" x="2849.88" y="-17" font-family="Helvetica,sans-Serif" font-size="10.00">include/Sandals/RungeKutta</text>
<text text-anchor="middle" x="2911.75" y="-5.75" font-family="Helvetica,sans-Serif" font-size="10.00">/SSPIRK33.hh</text>
</a>
</g>
</g>
<!-- Node2&#45;&gt;Node21 -->
<g id="edge20_Node000002_Node000021" class="edge">
<title>Node2&#45;&gt;Node21</title>
<g id="a_edge20_Node000002_Node000021"><a xlink:title=" ">
<path fill="none" stroke="#63b8ff" d="M2130.95,-73.65C2277.25,-70.42 2579.13,-60.42 2832.75,-30.5 2835.66,-30.16 2838.62,-29.77 2841.61,-29.36"/>
<polygon fill="#63b8ff" stroke="#63b8ff" points="2131.27,-70.14 2121.35,-73.86 2131.42,-77.14 2131.27,-70.14"/>
</a>
</g>
</g>
<!-- Node22 -->
<g id="Node000022" class="node">
<title>Node22</title>
<g id="a_Node000022"><a xlink:href="_s_s_p_r_k104_8hh.html" target="_top" xlink:title=" ">
<polygon fill="white" stroke="#666666" points="3139.62,-30.5 2999.88,-30.5 2999.88,0 3139.62,0 3139.62,-30.5"/>
<text text-anchor="start" x="3007.88" y="-17" font-family="Helvetica,sans-Serif" font-size="10.00">include/Sandals/RungeKutta</text>
<text text-anchor="middle" x="3069.75" y="-5.75" font-family="Helvetica,sans-Serif" font-size="10.00">/SSPRK104.hh</text>
</a>
</g>
</g>
<!-- Node2&#45;&gt;Node22 -->
<g id="edge21_Node000002_Node000022" class="edge">
<title>Node2&#45;&gt;Node22</title>
<g id="a_edge21_Node000002_Node000022"><a xlink:title=" ">
<path fill="none" stroke="#63b8ff" d="M2131.32,-74.83C2299.41,-73.42 2676.02,-66.14 2990.75,-30.5 2993.66,-30.17 2996.62,-29.8 2999.61,-29.4"/>
<polygon fill="#63b8ff" stroke="#63b8ff" points="2131.31,-71.33 2121.34,-74.91 2131.36,-78.33 2131.31,-71.33"/>
</a>
</g>
</g>
<!-- Node23 -->
<g id="Node000023" class="node">
<title>Node23</title>
<g id="a_Node000023"><a xlink:href="_s_s_p_r_k22_8hh.html" target="_top" xlink:title=" ">
<polygon fill="white" stroke="#666666" points="3297.62,-30.5 3157.88,-30.5 3157.88,0 3297.62,0 3297.62,-30.5"/>
<text text-anchor="start" x="3165.88" y="-17" font-family="Helvetica,sans-Serif" font-size="10.00">include/Sandals/RungeKutta</text>
<text text-anchor="middle" x="3227.75" y="-5.75" font-family="Helvetica,sans-Serif" font-size="10.00">/SSPRK22.hh</text>
</a>
</g>
</g>
<!-- Node2&#45;&gt;Node23 -->
<g id="edge22_Node000002_Node000023" class="edge">
<title>Node2&#45;&gt;Node23</title>
<g id="a_edge22_Node000002_Node000023"><a xlink:title=" ">
<path fill="none" stroke="#63b8ff" d="M2131.24,-75.69C2319.22,-75.99 2771.97,-71.88 3148.75,-30.5 3151.66,-30.18 3154.62,-29.82 3157.61,-29.42"/>
<polygon fill="#63b8ff" stroke="#63b8ff" points="2131.31,-72.19 2121.3,-75.67 2131.29,-79.19 2131.31,-72.19"/>
</a>
</g>
</g>
<!-- Node24 -->
<g id="Node000024" class="node">
<title>Node24</title>
<g id="a_Node000024"><a xlink:href="_s_s_p_r_k22star_8hh.html" target="_top" xlink:title=" ">
<polygon fill="white" stroke="#666666" points="3455.62,-30.5 3315.88,-30.5 3315.88,0 3455.62,0 3455.62,-30.5"/>
<text text-anchor="start" x="3323.88" y="-17" font-family="Helvetica,sans-Serif" font-size="10.00">include/Sandals/RungeKutta</text>
<text text-anchor="middle" x="3385.75" y="-5.75" font-family="Helvetica,sans-Serif" font-size="10.00">/SSPRK22star.hh</text>
</a>
</g>
</g>
<!-- Node2&#45;&gt;Node24 -->
<g id="edge23_Node000002_Node000024" class="edge">
<title>Node2&#45;&gt;Node24</title>
<g id="a_edge23_Node000002_Node000024"><a xlink:title=" ">
<path fill="none" stroke="#63b8ff" d="M2131.21,-73.65C2379.29,-69.26 3078.4,-55 3306.75,-30.5 3309.66,-30.19 3312.62,-29.83 3315.61,-29.44"/>
<polygon fill="#63b8ff" stroke="#63b8ff" points="2131.19,-70.15 2121.25,-73.83 2131.31,-77.15 2131.19,-70.15"/>
</a>
</g>
</g>
<!-- Node25 -->
<g id="Node000025" class="node">
<title>Node25</title>
<g id="a_Node000025"><a xlink:href="_s_s_p_r_k33_8hh.html" target="_top" xlink:title=" ">
<polygon fill="white" stroke="#666666" points="3613.62,-30.5 3473.88,-30.5 3473.88,0 3613.62,0 3613.62,-30.5"/>
<text text-anchor="start" x="3481.88" y="-17" font-family="Helvetica,sans-Serif" font-size="10.00">include/Sandals/RungeKutta</text>
<text text-anchor="middle" x="3543.75" y="-5.75" font-family="Helvetica,sans-Serif" font-size="10.00">/SSPRK33.hh</text>
</a>
</g>
</g>
<!-- Node2&#45;&gt;Node25 -->
<g id="edge24_Node000002_Node000025" class="edge">
<title>Node2&#45;&gt;Node25</title>
<g id="a_edge24_Node000002_Node000025"><a xlink:title=" ">
<path fill="none" stroke="#63b8ff" d="M2130.96,-74.06C2399.45,-70.54 3204.28,-57.93 3464.75,-30.5 3467.66,-30.19 3470.63,-29.84 3473.62,-29.45"/>
<polygon fill="#63b8ff" stroke="#63b8ff" points="2131.19,-70.55 2121.24,-74.18 2131.28,-77.55 2131.19,-70.55"/>
</a>
</g>
</g>
<!-- Node26 -->
<g id="Node000026" class="node">
<title>Node26</title>
<g id="a_Node000026"><a xlink:href="_s_s_p_r_k42_8hh.html" target="_top" xlink:title=" ">
<polygon fill="white" stroke="#666666" points="3771.62,-30.5 3631.88,-30.5 3631.88,0 3771.62,0 3771.62,-30.5"/>
<text text-anchor="start" x="3639.88" y="-17" font-family="Helvetica,sans-Serif" font-size="10.00">include/Sandals/RungeKutta</text>
<text text-anchor="middle" x="3701.75" y="-5.75" font-family="Helvetica,sans-Serif" font-size="10.00">/SSPRK42.hh</text>
</a>
</g>
</g>
<!-- Node2&#45;&gt;Node26 -->
<g id="edge25_Node000002_Node000026" class="edge">
<title>Node2&#45;&gt;Node26</title>
<g id="a_edge25_Node000002_Node000026"><a xlink:title=" ">
<path fill="none" stroke="#63b8ff" d="M2130.74,-74.38C2418.5,-71.67 3330,-60.86 3622.75,-30.5 3625.66,-30.2 3628.63,-29.85 3631.62,-29.46"/>
<polygon fill="#63b8ff" stroke="#63b8ff" points="2131.02,-70.88 2121.05,-74.47 2131.09,-77.88 2131.02,-70.88"/>
</a>
</g>
</g>
<!-- Node27 -->
<g id="Node000027" class="node">
<title>Node27</title>
<g id="a_Node000027"><a xlink:href="_s_s_p_r_k43_8hh.html" target="_top" xlink:title=" ">
<polygon fill="white" stroke="#666666" points="3929.62,-30.5 3789.88,-30.5 3789.88,0 3929.62,0 3929.62,-30.5"/>
<text text-anchor="start" x="3797.88" y="-17" font-family="Helvetica,sans-Serif" font-size="10.00">include/Sandals/RungeKutta</text>
<text text-anchor="middle" x="3859.75" y="-5.75" font-family="Helvetica,sans-Serif" font-size="10.00">/SSPRK43.hh</text>
</a>
</g>
</g>
<!-- Node2&#45;&gt;Node27 -->
<g id="edge26_Node000002_Node000027" class="edge">
<title>Node2&#45;&gt;Node27</title>
<g id="a_edge26_Node000002_Node000027"><a xlink:title=" ">
<path fill="none" stroke="#63b8ff" d="M2131.04,-74.64C2437.72,-72.69 3455.76,-63.79 3780.75,-30.5 3783.66,-30.2 3786.63,-29.86 3789.62,-29.47"/>
<polygon fill="#63b8ff" stroke="#63b8ff" points="2131.06,-71.14 2121.08,-74.7 2131.1,-78.14 2131.06,-71.14"/>
</a>
</g>
</g>
<!-- Node28 -->
<g id="Node000028" class="node">
<title>Node28</title>
<g id="a_Node000028"><a xlink:href="_s_s_p_r_k93_8hh.html" target="_top" xlink:title=" ">
<polygon fill="white" stroke="#666666" points="4087.62,-30.5 3947.88,-30.5 3947.88,0 4087.62,0 4087.62,-30.5"/>
<text text-anchor="start" x="3955.88" y="-17" font-family="Helvetica,sans-Serif" font-size="10.00">include/Sandals/RungeKutta</text>
<text text-anchor="middle" x="4017.75" y="-5.75" font-family="Helvetica,sans-Serif" font-size="10.00">/SSPRK93.hh</text>
</a>
</g>
</g>
<!-- Node2&#45;&gt;Node28 -->
<g id="edge27_Node000002_Node000028" class="edge">
<title>Node2&#45;&gt;Node28</title>
<g id="a_edge27_Node000002_Node000028"><a xlink:title=" ">
<path fill="none" stroke="#63b8ff" d="M2131.07,-74.86C2455.53,-73.62 3581.32,-66.72 3938.75,-30.5 3941.66,-30.2 3944.63,-29.86 3947.62,-29.48"/>
<polygon fill="#63b8ff" stroke="#63b8ff" points="2131.37,-71.36 2121.38,-74.9 2131.39,-78.36 2131.37,-71.36"/>
</a>
</g>
</g>
</g>
</svg>
