<?xml version="1.0" encoding="UTF-8" standalone="no"?>
<!DOCTYPE svg PUBLIC "-//W3C//DTD SVG 1.1//EN"
 "http://www.w3.org/Graphics/SVG/1.1/DTD/svg11.dtd">
<!-- Generated by graphviz version 12.2.1 (20241206.2353)
 -->
<!-- Title: include/Sandals/Solution.hh Pages: 1 -->
<svg width="3940pt" height="149pt"
 viewBox="0.00 0.00 3939.75 149.00" xmlns="http://www.w3.org/2000/svg" xmlns:xlink="http://www.w3.org/1999/xlink">
<g id="graph0" class="graph" transform="scale(1 1) rotate(0) translate(4 145)">
<title>include/Sandals/Solution.hh</title>
<!-- Node1 -->
<g id="Node000001" class="node">
<title>Node1</title>
<g id="a_Node000001"><a xlink:title=" ">
<polygon fill="#999999" stroke="#666666" points="2034.25,-141 1897.5,-141 1897.5,-121.75 2034.25,-121.75 2034.25,-141"/>
<text text-anchor="middle" x="1965.88" y="-127.5" font-family="Helvetica,sans-Serif" font-size="10.00">include/Sandals/Solution.hh</text>
</a>
</g>
</g>
<!-- Node2 -->
<g id="Node000002" class="node">
<title>Node2</title>
<g id="a_Node000002"><a xlink:href="_runge_kutta_8hh.html" target="_top" xlink:title=" ">
<polygon fill="white" stroke="#666666" points="2042.5,-85.75 1889.25,-85.75 1889.25,-66.5 2042.5,-66.5 2042.5,-85.75"/>
<text text-anchor="middle" x="1965.88" y="-72.25" font-family="Helvetica,sans-Serif" font-size="10.00">include/Sandals/RungeKutta.hh</text>
</a>
</g>
</g>
<!-- Node1&#45;&gt;Node2 -->
<g id="edge1_Node000001_Node000002" class="edge">
<title>Node1&#45;&gt;Node2</title>
<g id="a_edge1_Node000001_Node000002"><a xlink:title=" ">
<path fill="none" stroke="#63b8ff" d="M1965.88,-110.13C1965.88,-101.84 1965.88,-92.67 1965.88,-86.11"/>
<polygon fill="#63b8ff" stroke="#63b8ff" points="1962.38,-110.07 1965.88,-120.07 1969.38,-110.07 1962.38,-110.07"/>
</a>
</g>
</g>
<!-- Node3 -->
<g id="Node000003" class="node">
<title>Node3</title>
<g id="a_Node000003"><a xlink:href="_chebyshev51_8hh.html" target="_top" xlink:title=" ">
<polygon fill="white" stroke="#666666" points="139.75,-30.5 0,-30.5 0,0 139.75,0 139.75,-30.5"/>
<text text-anchor="start" x="8" y="-17" font-family="Helvetica,sans-Serif" font-size="10.00">include/Sandals/RungeKutta</text>
<text text-anchor="middle" x="69.88" y="-5.75" font-family="Helvetica,sans-Serif" font-size="10.00">/Chebyshev51.hh</text>
</a>
</g>
</g>
<!-- Node2&#45;&gt;Node3 -->
<g id="edge2_Node000002_Node000003" class="edge">
<title>Node2&#45;&gt;Node3</title>
<g id="a_edge2_Node000002_Node000003"><a xlink:title=" ">
<path fill="none" stroke="#63b8ff" d="M1877.57,-74.76C1561.91,-73.16 490.07,-65.25 148.88,-30.5 145.96,-30.2 143,-29.86 140.01,-29.48"/>
<polygon fill="#63b8ff" stroke="#63b8ff" points="1877.4,-78.26 1887.41,-74.81 1877.43,-71.26 1877.4,-78.26"/>
</a>
</g>
</g>
<!-- Node4 -->
<g id="Node000004" class="node">
<title>Node4</title>
<g id="a_Node000004"><a xlink:href="_explicit_euler_8hh.html" target="_top" xlink:title=" ">
<polygon fill="white" stroke="#666666" points="297.75,-30.5 158,-30.5 158,0 297.75,0 297.75,-30.5"/>
<text text-anchor="start" x="166" y="-17" font-family="Helvetica,sans-Serif" font-size="10.00">include/Sandals/RungeKutta</text>
<text text-anchor="middle" x="227.88" y="-5.75" font-family="Helvetica,sans-Serif" font-size="10.00">/ExplicitEuler.hh</text>
</a>
</g>
</g>
<!-- Node2&#45;&gt;Node4 -->
<g id="edge3_Node000002_Node000004" class="edge">
<title>Node2&#45;&gt;Node4</title>
<g id="a_edge3_Node000002_Node000004"><a xlink:title=" ">
<path fill="none" stroke="#63b8ff" d="M1878.06,-74.52C1581.11,-72.2 615.84,-62.34 306.88,-30.5 303.96,-30.2 301,-29.85 298.01,-29.47"/>
<polygon fill="#63b8ff" stroke="#63b8ff" points="1877.64,-78.02 1887.67,-74.59 1877.69,-71.02 1877.64,-78.02"/>
</a>
</g>
</g>
<!-- Node5 -->
<g id="Node000005" class="node">
<title>Node5</title>
<g id="a_Node000005"><a xlink:href="_fehlberg45_8hh.html" target="_top" xlink:title=" ">
<polygon fill="white" stroke="#666666" points="455.75,-30.5 316,-30.5 316,0 455.75,0 455.75,-30.5"/>
<text text-anchor="start" x="324" y="-17" font-family="Helvetica,sans-Serif" font-size="10.00">include/Sandals/RungeKutta</text>
<text text-anchor="middle" x="385.88" y="-5.75" font-family="Helvetica,sans-Serif" font-size="10.00">/Fehlberg45.hh</text>
</a>
</g>
</g>
<!-- Node2&#45;&gt;Node5 -->
<g id="edge4_Node000002_Node000005" class="edge">
<title>Node2&#45;&gt;Node5</title>
<g id="a_edge4_Node000002_Node000005"><a xlink:title=" ">
<path fill="none" stroke="#63b8ff" d="M1877.58,-74.23C1599.11,-71.12 741.4,-59.39 464.88,-30.5 461.96,-30.2 459,-29.85 456.01,-29.46"/>
<polygon fill="#63b8ff" stroke="#63b8ff" points="1877.27,-77.72 1887.31,-74.33 1877.35,-70.72 1877.27,-77.72"/>
</a>
</g>
</g>
<!-- Node6 -->
<g id="Node000006" class="node">
<title>Node6</title>
<g id="a_Node000006"><a xlink:href="_gauss_legendre2_8hh.html" target="_top" xlink:title=" ">
<polygon fill="white" stroke="#666666" points="613.75,-30.5 474,-30.5 474,0 613.75,0 613.75,-30.5"/>
<text text-anchor="start" x="482" y="-17" font-family="Helvetica,sans-Serif" font-size="10.00">include/Sandals/RungeKutta</text>
<text text-anchor="middle" x="543.88" y="-5.75" font-family="Helvetica,sans-Serif" font-size="10.00">/GaussLegendre2.hh</text>
</a>
</g>
</g>
<!-- Node2&#45;&gt;Node6 -->
<g id="edge5_Node000002_Node000006" class="edge">
<title>Node2&#45;&gt;Node6</title>
<g id="a_edge5_Node000002_Node000006"><a xlink:title=" ">
<path fill="none" stroke="#63b8ff" d="M1877.71,-73.87C1619.42,-69.92 867.32,-56.47 622.88,-30.5 619.96,-30.19 617,-29.84 614.01,-29.45"/>
<polygon fill="#63b8ff" stroke="#63b8ff" points="1877.34,-77.36 1887.39,-74.02 1877.44,-70.36 1877.34,-77.36"/>
</a>
</g>
</g>
<!-- Node7 -->
<g id="Node000007" class="node">
<title>Node7</title>
<g id="a_Node000007"><a xlink:href="_gauss_legendre4_8hh.html" target="_top" xlink:title=" ">
<polygon fill="white" stroke="#666666" points="771.75,-30.5 632,-30.5 632,0 771.75,0 771.75,-30.5"/>
<text text-anchor="start" x="640" y="-17" font-family="Helvetica,sans-Serif" font-size="10.00">include/Sandals/RungeKutta</text>
<text text-anchor="middle" x="701.88" y="-5.75" font-family="Helvetica,sans-Serif" font-size="10.00">/GaussLegendre4.hh</text>
</a>
</g>
</g>
<!-- Node2&#45;&gt;Node7 -->
<g id="edge6_Node000002_Node000007" class="edge">
<title>Node2&#45;&gt;Node7</title>
<g id="a_edge6_Node000002_Node000007"><a xlink:title=" ">
<path fill="none" stroke="#63b8ff" d="M1877.6,-73.41C1640.49,-68.56 993.33,-53.55 780.88,-30.5 777.97,-30.18 775,-29.82 772.01,-29.43"/>
<polygon fill="#63b8ff" stroke="#63b8ff" points="1877.34,-76.91 1887.4,-73.61 1877.48,-69.91 1877.34,-76.91"/>
</a>
</g>
</g>
<!-- Node8 -->
<g id="Node000008" class="node">
<title>Node8</title>
<g id="a_Node000008"><a xlink:href="_gauss_legendre6_8hh.html" target="_top" xlink:title=" ">
<polygon fill="white" stroke="#666666" points="929.75,-30.5 790,-30.5 790,0 929.75,0 929.75,-30.5"/>
<text text-anchor="start" x="798" y="-17" font-family="Helvetica,sans-Serif" font-size="10.00">include/Sandals/RungeKutta</text>
<text text-anchor="middle" x="859.88" y="-5.75" font-family="Helvetica,sans-Serif" font-size="10.00">/GaussLegendre6.hh</text>
</a>
</g>
</g>
<!-- Node2&#45;&gt;Node8 -->
<g id="edge7_Node000002_Node000008" class="edge">
<title>Node2&#45;&gt;Node8</title>
<g id="a_edge7_Node000002_Node000008"><a xlink:title=" ">
<path fill="none" stroke="#63b8ff" d="M1877.56,-75.29C1699.45,-74.75 1284.69,-69.02 938.88,-30.5 935.97,-30.18 933,-29.81 930.01,-29.41"/>
<polygon fill="#63b8ff" stroke="#63b8ff" points="1877.42,-78.79 1887.43,-75.32 1877.44,-71.79 1877.42,-78.79"/>
</a>
</g>
</g>
<!-- Node9 -->
<g id="Node000009" class="node">
<title>Node9</title>
<g id="a_Node000009"><a xlink:href="_heun2_8hh.html" target="_top" xlink:title=" ">
<polygon fill="white" stroke="#666666" points="1087.75,-30.5 948,-30.5 948,0 1087.75,0 1087.75,-30.5"/>
<text text-anchor="start" x="956" y="-17" font-family="Helvetica,sans-Serif" font-size="10.00">include/Sandals/RungeKutta</text>
<text text-anchor="middle" x="1017.88" y="-5.75" font-family="Helvetica,sans-Serif" font-size="10.00">/Heun2.hh</text>
</a>
</g>
</g>
<!-- Node2&#45;&gt;Node9 -->
<g id="edge8_Node000002_Node000009" class="edge">
<title>Node2&#45;&gt;Node9</title>
<g id="a_edge8_Node000002_Node000009"><a xlink:title=" ">
<path fill="none" stroke="#63b8ff" d="M1877.4,-74.29C1719.94,-71.98 1380.9,-63.27 1096.88,-30.5 1093.97,-30.16 1091.01,-29.79 1088.02,-29.38"/>
<polygon fill="#63b8ff" stroke="#63b8ff" points="1877.32,-77.79 1887.37,-74.43 1877.42,-70.79 1877.32,-77.79"/>
</a>
</g>
</g>
<!-- Node10 -->
<g id="Node000010" class="node">
<title>Node10</title>
<g id="a_Node000010"><a xlink:href="_heun3_8hh.html" target="_top" xlink:title=" ">
<polygon fill="white" stroke="#666666" points="1245.75,-30.5 1106,-30.5 1106,0 1245.75,0 1245.75,-30.5"/>
<text text-anchor="start" x="1114" y="-17" font-family="Helvetica,sans-Serif" font-size="10.00">include/Sandals/RungeKutta</text>
<text text-anchor="middle" x="1175.88" y="-5.75" font-family="Helvetica,sans-Serif" font-size="10.00">/Heun3.hh</text>
</a>
</g>
</g>
<!-- Node2&#45;&gt;Node10 -->
<g id="edge9_Node000002_Node000010" class="edge">
<title>Node2&#45;&gt;Node10</title>
<g id="a_edge9_Node000002_Node000010"><a xlink:title=" ">
<path fill="none" stroke="#63b8ff" d="M1877.35,-72.86C1742.57,-68.67 1477.98,-57.53 1254.88,-30.5 1251.97,-30.15 1249.01,-29.76 1246.02,-29.34"/>
<polygon fill="#63b8ff" stroke="#63b8ff" points="1877.19,-76.36 1887.29,-73.16 1877.4,-69.36 1877.19,-76.36"/>
</a>
</g>
</g>
<!-- Node11 -->
<g id="Node000011" class="node">
<title>Node11</title>
<g id="a_Node000011"><a xlink:href="_implicit_euler_8hh.html" target="_top" xlink:title=" ">
<polygon fill="white" stroke="#666666" points="1403.75,-30.5 1264,-30.5 1264,0 1403.75,0 1403.75,-30.5"/>
<text text-anchor="start" x="1272" y="-17" font-family="Helvetica,sans-Serif" font-size="10.00">include/Sandals/RungeKutta</text>
<text text-anchor="middle" x="1333.88" y="-5.75" font-family="Helvetica,sans-Serif" font-size="10.00">/ImplicitEuler.hh</text>
</a>
</g>
</g>
<!-- Node2&#45;&gt;Node11 -->
<g id="edge10_Node000002_Node000011" class="edge">
<title>Node2&#45;&gt;Node11</title>
<g id="a_edge10_Node000002_Node000011"><a xlink:title=" ">
<path fill="none" stroke="#63b8ff" d="M1877.85,-70.69C1768.5,-64.56 1576.38,-51.79 1412.88,-30.5 1409.97,-30.12 1407.02,-29.71 1404.03,-29.27"/>
<polygon fill="#63b8ff" stroke="#63b8ff" points="1877.45,-74.17 1887.63,-71.23 1877.84,-67.18 1877.45,-74.17"/>
</a>
</g>
</g>
<!-- Node12 -->
<g id="Node000012" class="node">
<title>Node12</title>
<g id="a_Node000012"><a xlink:href="_lobatto_i_i_i_a2_8hh.html" target="_top" xlink:title=" ">
<polygon fill="white" stroke="#666666" points="1561.75,-30.5 1422,-30.5 1422,0 1561.75,0 1561.75,-30.5"/>
<text text-anchor="start" x="1430" y="-17" font-family="Helvetica,sans-Serif" font-size="10.00">include/Sandals/RungeKutta</text>
<text text-anchor="middle" x="1491.88" y="-5.75" font-family="Helvetica,sans-Serif" font-size="10.00">/LobattoIIIA2.hh</text>
</a>
</g>
</g>
<!-- Node2&#45;&gt;Node12 -->
<g id="edge11_Node000002_Node000012" class="edge">
<title>Node2&#45;&gt;Node12</title>
<g id="a_edge11_Node000002_Node000012"><a xlink:title=" ">
<path fill="none" stroke="#63b8ff" d="M1877.81,-66.86C1797.62,-58.93 1676.04,-45.91 1570.88,-30.5 1567.98,-30.08 1565.03,-29.63 1562.05,-29.16"/>
<polygon fill="#63b8ff" stroke="#63b8ff" points="1877.05,-70.3 1887.34,-67.79 1877.73,-63.33 1877.05,-70.3"/>
</a>
</g>
</g>
<!-- Node13 -->
<g id="Node000013" class="node">
<title>Node13</title>
<g id="a_Node000013"><a xlink:href="_m_t_e22_8hh.html" target="_top" xlink:title=" ">
<polygon fill="white" stroke="#666666" points="1719.75,-30.5 1580,-30.5 1580,0 1719.75,0 1719.75,-30.5"/>
<text text-anchor="start" x="1588" y="-17" font-family="Helvetica,sans-Serif" font-size="10.00">include/Sandals/RungeKutta</text>
<text text-anchor="middle" x="1649.88" y="-5.75" font-family="Helvetica,sans-Serif" font-size="10.00">/MTE22.hh</text>
</a>
</g>
</g>
<!-- Node2&#45;&gt;Node13 -->
<g id="edge12_Node000002_Node000013" class="edge">
<title>Node2&#45;&gt;Node13</title>
<g id="a_edge12_Node000002_Node000013"><a xlink:title=" ">
<path fill="none" stroke="#63b8ff" d="M1905.95,-63.96C1853.03,-54.1 1775.82,-39.72 1720.03,-29.32"/>
<polygon fill="#63b8ff" stroke="#63b8ff" points="1905.23,-67.39 1915.7,-65.78 1906.51,-60.51 1905.23,-67.39"/>
</a>
</g>
</g>
<!-- Node14 -->
<g id="Node000014" class="node">
<title>Node14</title>
<g id="a_Node000014"><a xlink:href="_r_k4_8hh.html" target="_top" xlink:title=" ">
<polygon fill="white" stroke="#666666" points="1877.75,-30.5 1738,-30.5 1738,0 1877.75,0 1877.75,-30.5"/>
<text text-anchor="start" x="1746" y="-17" font-family="Helvetica,sans-Serif" font-size="10.00">include/Sandals/RungeKutta</text>
<text text-anchor="middle" x="1807.88" y="-5.75" font-family="Helvetica,sans-Serif" font-size="10.00">/RK4.hh</text>
</a>
</g>
</g>
<!-- Node2&#45;&gt;Node14 -->
<g id="edge13_Node000002_Node000014" class="edge">
<title>Node2&#45;&gt;Node14</title>
<g id="a_edge13_Node000002_Node000014"><a xlink:title=" ">
<path fill="none" stroke="#63b8ff" d="M1930.82,-62.06C1906.1,-52.85 1872.96,-40.5 1847.31,-30.94"/>
<polygon fill="#63b8ff" stroke="#63b8ff" points="1929.52,-65.31 1940.12,-65.53 1931.97,-58.75 1929.52,-65.31"/>
</a>
</g>
</g>
<!-- Node15 -->
<g id="Node000015" class="node">
<title>Node15</title>
<g id="a_Node000015"><a xlink:href="_radau_i_i_a3_8hh.html" target="_top" xlink:title=" ">
<polygon fill="white" stroke="#666666" points="2035.75,-30.5 1896,-30.5 1896,0 2035.75,0 2035.75,-30.5"/>
<text text-anchor="start" x="1904" y="-17" font-family="Helvetica,sans-Serif" font-size="10.00">include/Sandals/RungeKutta</text>
<text text-anchor="middle" x="1965.88" y="-5.75" font-family="Helvetica,sans-Serif" font-size="10.00">/RadauIIA3.hh</text>
</a>
</g>
</g>
<!-- Node2&#45;&gt;Node15 -->
<g id="edge14_Node000002_Node000015" class="edge">
<title>Node2&#45;&gt;Node15</title>
<g id="a_edge14_Node000002_Node000015"><a xlink:title=" ">
<path fill="none" stroke="#63b8ff" d="M1965.88,-54.92C1965.88,-46.99 1965.88,-38.06 1965.88,-30.78"/>
<polygon fill="#63b8ff" stroke="#63b8ff" points="1962.38,-54.67 1965.88,-64.67 1969.38,-54.67 1962.38,-54.67"/>
</a>
</g>
</g>
<!-- Node16 -->
<g id="Node000016" class="node">
<title>Node16</title>
<g id="a_Node000016"><a xlink:href="_radau_i_i_a5_8hh.html" target="_top" xlink:title=" ">
<polygon fill="white" stroke="#666666" points="2193.75,-30.5 2054,-30.5 2054,0 2193.75,0 2193.75,-30.5"/>
<text text-anchor="start" x="2062" y="-17" font-family="Helvetica,sans-Serif" font-size="10.00">include/Sandals/RungeKutta</text>
<text text-anchor="middle" x="2123.88" y="-5.75" font-family="Helvetica,sans-Serif" font-size="10.00">/RadauIIA5.hh</text>
</a>
</g>
</g>
<!-- Node2&#45;&gt;Node16 -->
<g id="edge15_Node000002_Node000016" class="edge">
<title>Node2&#45;&gt;Node16</title>
<g id="a_edge15_Node000002_Node000016"><a xlink:title=" ">
<path fill="none" stroke="#63b8ff" d="M2000.93,-62.06C2025.65,-52.85 2058.79,-40.5 2084.44,-30.94"/>
<polygon fill="#63b8ff" stroke="#63b8ff" points="1999.78,-58.75 1991.63,-65.53 2002.23,-65.31 1999.78,-58.75"/>
</a>
</g>
</g>
<!-- Node17 -->
<g id="Node000017" class="node">
<title>Node17</title>
<g id="a_Node000017"><a xlink:href="_ralston2_8hh.html" target="_top" xlink:title=" ">
<polygon fill="white" stroke="#666666" points="2351.75,-30.5 2212,-30.5 2212,0 2351.75,0 2351.75,-30.5"/>
<text text-anchor="start" x="2220" y="-17" font-family="Helvetica,sans-Serif" font-size="10.00">include/Sandals/RungeKutta</text>
<text text-anchor="middle" x="2281.88" y="-5.75" font-family="Helvetica,sans-Serif" font-size="10.00">/Ralston2.hh</text>
</a>
</g>
</g>
<!-- Node2&#45;&gt;Node17 -->
<g id="edge16_Node000002_Node000017" class="edge">
<title>Node2&#45;&gt;Node17</title>
<g id="a_edge16_Node000002_Node000017"><a xlink:title=" ">
<path fill="none" stroke="#63b8ff" d="M2025.8,-63.96C2078.72,-54.1 2155.93,-39.72 2211.72,-29.32"/>
<polygon fill="#63b8ff" stroke="#63b8ff" points="2025.24,-60.51 2016.05,-65.78 2026.52,-67.39 2025.24,-60.51"/>
</a>
</g>
</g>
<!-- Node18 -->
<g id="Node000018" class="node">
<title>Node18</title>
<g id="a_Node000018"><a xlink:href="_ralston3_8hh.html" target="_top" xlink:title=" ">
<polygon fill="white" stroke="#666666" points="2509.75,-30.5 2370,-30.5 2370,0 2509.75,0 2509.75,-30.5"/>
<text text-anchor="start" x="2378" y="-17" font-family="Helvetica,sans-Serif" font-size="10.00">include/Sandals/RungeKutta</text>
<text text-anchor="middle" x="2439.88" y="-5.75" font-family="Helvetica,sans-Serif" font-size="10.00">/Ralston3.hh</text>
</a>
</g>
</g>
<!-- Node2&#45;&gt;Node18 -->
<g id="edge17_Node000002_Node000018" class="edge">
<title>Node2&#45;&gt;Node18</title>
<g id="a_edge17_Node000002_Node000018"><a xlink:title=" ">
<path fill="none" stroke="#63b8ff" d="M2053.94,-66.86C2134.13,-58.93 2255.71,-45.91 2360.88,-30.5 2363.77,-30.08 2366.72,-29.63 2369.7,-29.16"/>
<polygon fill="#63b8ff" stroke="#63b8ff" points="2054.02,-63.33 2044.41,-67.79 2054.7,-70.3 2054.02,-63.33"/>
</a>
</g>
</g>
<!-- Node19 -->
<g id="Node000019" class="node">
<title>Node19</title>
<g id="a_Node000019"><a xlink:href="_ralston4_8hh.html" target="_top" xlink:title=" ">
<polygon fill="white" stroke="#666666" points="2667.75,-30.5 2528,-30.5 2528,0 2667.75,0 2667.75,-30.5"/>
<text text-anchor="start" x="2536" y="-17" font-family="Helvetica,sans-Serif" font-size="10.00">include/Sandals/RungeKutta</text>
<text text-anchor="middle" x="2597.88" y="-5.75" font-family="Helvetica,sans-Serif" font-size="10.00">/Ralston4.hh</text>
</a>
</g>
</g>
<!-- Node2&#45;&gt;Node19 -->
<g id="edge18_Node000002_Node000019" class="edge">
<title>Node2&#45;&gt;Node19</title>
<g id="a_edge18_Node000002_Node000019"><a xlink:title=" ">
<path fill="none" stroke="#63b8ff" d="M2053.9,-70.69C2163.25,-64.56 2355.37,-51.79 2518.88,-30.5 2521.78,-30.12 2524.73,-29.71 2527.72,-29.27"/>
<polygon fill="#63b8ff" stroke="#63b8ff" points="2053.91,-67.18 2044.12,-71.23 2054.3,-74.17 2053.91,-67.18"/>
</a>
</g>
</g>
<!-- Node20 -->
<g id="Node000020" class="node">
<title>Node20</title>
<g id="a_Node000020"><a xlink:href="_s_s_p_i_r_k33_8hh.html" target="_top" xlink:title=" ">
<polygon fill="white" stroke="#666666" points="2825.75,-30.5 2686,-30.5 2686,0 2825.75,0 2825.75,-30.5"/>
<text text-anchor="start" x="2694" y="-17" font-family="Helvetica,sans-Serif" font-size="10.00">include/Sandals/RungeKutta</text>
<text text-anchor="middle" x="2755.88" y="-5.75" font-family="Helvetica,sans-Serif" font-size="10.00">/SSPIRK33.hh</text>
</a>
</g>
</g>
<!-- Node2&#45;&gt;Node20 -->
<g id="edge19_Node000002_Node000020" class="edge">
<title>Node2&#45;&gt;Node20</title>
<g id="a_edge19_Node000002_Node000020"><a xlink:title=" ">
<path fill="none" stroke="#63b8ff" d="M2054.4,-72.86C2189.18,-68.67 2453.77,-57.53 2676.88,-30.5 2679.78,-30.15 2682.74,-29.76 2685.73,-29.34"/>
<polygon fill="#63b8ff" stroke="#63b8ff" points="2054.35,-69.36 2044.46,-73.16 2054.56,-76.36 2054.35,-69.36"/>
</a>
</g>
</g>
<!-- Node21 -->
<g id="Node000021" class="node">
<title>Node21</title>
<g id="a_Node000021"><a xlink:href="_s_s_p_r_k104_8hh.html" target="_top" xlink:title=" ">
<polygon fill="white" stroke="#666666" points="2983.75,-30.5 2844,-30.5 2844,0 2983.75,0 2983.75,-30.5"/>
<text text-anchor="start" x="2852" y="-17" font-family="Helvetica,sans-Serif" font-size="10.00">include/Sandals/RungeKutta</text>
<text text-anchor="middle" x="2913.88" y="-5.75" font-family="Helvetica,sans-Serif" font-size="10.00">/SSPRK104.hh</text>
</a>
</g>
</g>
<!-- Node2&#45;&gt;Node21 -->
<g id="edge20_Node000002_Node000021" class="edge">
<title>Node2&#45;&gt;Node21</title>
<g id="a_edge20_Node000002_Node000021"><a xlink:title=" ">
<path fill="none" stroke="#63b8ff" d="M2054.35,-74.29C2211.81,-71.98 2550.85,-63.27 2834.88,-30.5 2837.78,-30.16 2840.74,-29.79 2843.73,-29.38"/>
<polygon fill="#63b8ff" stroke="#63b8ff" points="2054.33,-70.79 2044.38,-74.43 2054.43,-77.79 2054.33,-70.79"/>
</a>
</g>
</g>
<!-- Node22 -->
<g id="Node000022" class="node">
<title>Node22</title>
<g id="a_Node000022"><a xlink:href="_s_s_p_r_k22_8hh.html" target="_top" xlink:title=" ">
<polygon fill="white" stroke="#666666" points="3141.75,-30.5 3002,-30.5 3002,0 3141.75,0 3141.75,-30.5"/>
<text text-anchor="start" x="3010" y="-17" font-family="Helvetica,sans-Serif" font-size="10.00">include/Sandals/RungeKutta</text>
<text text-anchor="middle" x="3071.88" y="-5.75" font-family="Helvetica,sans-Serif" font-size="10.00">/SSPRK22.hh</text>
</a>
</g>
</g>
<!-- Node2&#45;&gt;Node22 -->
<g id="edge21_Node000002_Node000022" class="edge">
<title>Node2&#45;&gt;Node22</title>
<g id="a_edge21_Node000002_Node000022"><a xlink:title=" ">
<path fill="none" stroke="#63b8ff" d="M2054.19,-75.29C2232.3,-74.75 2647.06,-69.02 2992.88,-30.5 2995.78,-30.18 2998.75,-29.81 3001.74,-29.41"/>
<polygon fill="#63b8ff" stroke="#63b8ff" points="2054.31,-71.79 2044.32,-75.32 2054.33,-78.79 2054.31,-71.79"/>
</a>
</g>
</g>
<!-- Node23 -->
<g id="Node000023" class="node">
<title>Node23</title>
<g id="a_Node000023"><a xlink:href="_s_s_p_r_k22star_8hh.html" target="_top" xlink:title=" ">
<polygon fill="white" stroke="#666666" points="3299.75,-30.5 3160,-30.5 3160,0 3299.75,0 3299.75,-30.5"/>
<text text-anchor="start" x="3168" y="-17" font-family="Helvetica,sans-Serif" font-size="10.00">include/Sandals/RungeKutta</text>
<text text-anchor="middle" x="3229.88" y="-5.75" font-family="Helvetica,sans-Serif" font-size="10.00">/SSPRK22star.hh</text>
</a>
</g>
</g>
<!-- Node2&#45;&gt;Node23 -->
<g id="edge22_Node000002_Node000023" class="edge">
<title>Node2&#45;&gt;Node23</title>
<g id="a_edge22_Node000002_Node000023"><a xlink:title=" ">
<path fill="none" stroke="#63b8ff" d="M2054.15,-73.41C2291.26,-68.56 2938.42,-53.55 3150.88,-30.5 3153.78,-30.18 3156.75,-29.82 3159.74,-29.43"/>
<polygon fill="#63b8ff" stroke="#63b8ff" points="2054.27,-69.91 2044.35,-73.61 2054.41,-76.91 2054.27,-69.91"/>
</a>
</g>
</g>
<!-- Node24 -->
<g id="Node000024" class="node">
<title>Node24</title>
<g id="a_Node000024"><a xlink:href="_s_s_p_r_k33_8hh.html" target="_top" xlink:title=" ">
<polygon fill="white" stroke="#666666" points="3457.75,-30.5 3318,-30.5 3318,0 3457.75,0 3457.75,-30.5"/>
<text text-anchor="start" x="3326" y="-17" font-family="Helvetica,sans-Serif" font-size="10.00">include/Sandals/RungeKutta</text>
<text text-anchor="middle" x="3387.88" y="-5.75" font-family="Helvetica,sans-Serif" font-size="10.00">/SSPRK33.hh</text>
</a>
</g>
</g>
<!-- Node2&#45;&gt;Node24 -->
<g id="edge23_Node000002_Node000024" class="edge">
<title>Node2&#45;&gt;Node24</title>
<g id="a_edge23_Node000002_Node000024"><a xlink:title=" ">
<path fill="none" stroke="#63b8ff" d="M2054.04,-73.87C2312.33,-69.92 3064.43,-56.47 3308.88,-30.5 3311.79,-30.19 3314.75,-29.84 3317.74,-29.45"/>
<polygon fill="#63b8ff" stroke="#63b8ff" points="2054.31,-70.36 2044.36,-74.02 2054.41,-77.36 2054.31,-70.36"/>
</a>
</g>
</g>
<!-- Node25 -->
<g id="Node000025" class="node">
<title>Node25</title>
<g id="a_Node000025"><a xlink:href="_s_s_p_r_k42_8hh.html" target="_top" xlink:title=" ">
<polygon fill="white" stroke="#666666" points="3615.75,-30.5 3476,-30.5 3476,0 3615.75,0 3615.75,-30.5"/>
<text text-anchor="start" x="3484" y="-17" font-family="Helvetica,sans-Serif" font-size="10.00">include/Sandals/RungeKutta</text>
<text text-anchor="middle" x="3545.88" y="-5.75" font-family="Helvetica,sans-Serif" font-size="10.00">/SSPRK42.hh</text>
</a>
</g>
</g>
<!-- Node2&#45;&gt;Node25 -->
<g id="edge24_Node000002_Node000025" class="edge">
<title>Node2&#45;&gt;Node25</title>
<g id="a_edge24_Node000002_Node000025"><a xlink:title=" ">
<path fill="none" stroke="#63b8ff" d="M2054.17,-74.23C2332.64,-71.12 3190.35,-59.39 3466.88,-30.5 3469.79,-30.2 3472.75,-29.85 3475.74,-29.46"/>
<polygon fill="#63b8ff" stroke="#63b8ff" points="2054.4,-70.72 2044.44,-74.33 2054.48,-77.72 2054.4,-70.72"/>
</a>
</g>
</g>
<!-- Node26 -->
<g id="Node000026" class="node">
<title>Node26</title>
<g id="a_Node000026"><a xlink:href="_s_s_p_r_k43_8hh.html" target="_top" xlink:title=" ">
<polygon fill="white" stroke="#666666" points="3773.75,-30.5 3634,-30.5 3634,0 3773.75,0 3773.75,-30.5"/>
<text text-anchor="start" x="3642" y="-17" font-family="Helvetica,sans-Serif" font-size="10.00">include/Sandals/RungeKutta</text>
<text text-anchor="middle" x="3703.88" y="-5.75" font-family="Helvetica,sans-Serif" font-size="10.00">/SSPRK43.hh</text>
</a>
</g>
</g>
<!-- Node2&#45;&gt;Node26 -->
<g id="edge25_Node000002_Node000026" class="edge">
<title>Node2&#45;&gt;Node26</title>
<g id="a_edge25_Node000002_Node000026"><a xlink:title=" ">
<path fill="none" stroke="#63b8ff" d="M2053.69,-74.52C2350.64,-72.2 3315.91,-62.34 3624.88,-30.5 3627.79,-30.2 3630.75,-29.85 3633.74,-29.47"/>
<polygon fill="#63b8ff" stroke="#63b8ff" points="2054.06,-71.02 2044.08,-74.59 2054.11,-78.02 2054.06,-71.02"/>
</a>
</g>
</g>
<!-- Node27 -->
<g id="Node000027" class="node">
<title>Node27</title>
<g id="a_Node000027"><a xlink:href="_s_s_p_r_k93_8hh.html" target="_top" xlink:title=" ">
<polygon fill="white" stroke="#666666" points="3931.75,-30.5 3792,-30.5 3792,0 3931.75,0 3931.75,-30.5"/>
<text text-anchor="start" x="3800" y="-17" font-family="Helvetica,sans-Serif" font-size="10.00">include/Sandals/RungeKutta</text>
<text text-anchor="middle" x="3861.88" y="-5.75" font-family="Helvetica,sans-Serif" font-size="10.00">/SSPRK93.hh</text>
</a>
</g>
</g>
<!-- Node2&#45;&gt;Node27 -->
<g id="edge26_Node000002_Node000027" class="edge">
<title>Node2&#45;&gt;Node27</title>
<g id="a_edge26_Node000002_Node000027"><a xlink:title=" ">
<path fill="none" stroke="#63b8ff" d="M2054.18,-74.76C2369.84,-73.16 3441.68,-65.25 3782.88,-30.5 3785.79,-30.2 3788.75,-29.86 3791.74,-29.48"/>
<polygon fill="#63b8ff" stroke="#63b8ff" points="2054.32,-71.26 2044.34,-74.81 2054.35,-78.26 2054.32,-71.26"/>
</a>
</g>
</g>
</g>
</svg>
