<?xml version="1.0" encoding="UTF-8" standalone="no"?>
<!DOCTYPE svg PUBLIC "-//W3C//DTD SVG 1.1//EN"
 "http://www.w3.org/Graphics/SVG/1.1/DTD/svg11.dtd">
<!-- Generated by graphviz version 12.2.1 (20241206.2353)
 -->
<!-- Title: Graphical Class Hierarchy Pages: 1 -->
<svg width="349pt" height="284pt"
 viewBox="0.00 0.00 349.00 283.50" xmlns="http://www.w3.org/2000/svg" xmlns:xlink="http://www.w3.org/1999/xlink">
<g id="graph0" class="graph" transform="scale(1 1) rotate(0) translate(4 279.5)">
<title>Graphical Class Hierarchy</title>
<!-- Node0 -->
<g id="Node000000" class="node">
<title>Node0</title>
<g id="a_Node000000"><a xlink:href="struct_sandals_1_1_tableau.html" target="_top" xlink:title=" ">
<polygon fill="white" stroke="#666666" points="140.5,-146.88 0,-146.88 0,-127.62 140.5,-127.62 140.5,-146.88"/>
<text text-anchor="middle" x="70.25" y="-133.38" font-family="Helvetica,sans-Serif" font-size="10.00">Sandals::Tableau&lt; Real, 3 &gt;</text>
</a>
</g>
</g>
<!-- Node1 -->
<g id="Node000001" class="node">
<title>Node1</title>
<g id="a_Node000001"><a xlink:href="class_sandals_1_1_gauss_legendre6_tableau.html" target="_top" xlink:title="Butcher tableau for the Gauss&#45;Legendre order 6 method.">
<polygon fill="white" stroke="#666666" points="341,-275.5 176.5,-275.5 176.5,-245 341,-245 341,-275.5"/>
<text text-anchor="start" x="184.5" y="-262" font-family="Helvetica,sans-Serif" font-size="10.00">Sandals::GaussLegendre6Tableau</text>
<text text-anchor="middle" x="258.75" y="-250.75" font-family="Helvetica,sans-Serif" font-size="10.00">&lt; Real &gt;</text>
</a>
</g>
</g>
<!-- Node0&#45;&gt;Node1 -->
<g id="edge49_Node000000_Node000001" class="edge">
<title>Node0&#45;&gt;Node1</title>
<g id="a_edge49_Node000000_Node000001"><a xlink:title=" ">
<path fill="none" stroke="#63b8ff" d="M86.51,-155.86C105.45,-177.82 139.78,-214.03 176.5,-235.25 182.63,-238.8 189.32,-241.89 196.14,-244.58"/>
<polygon fill="#63b8ff" stroke="#63b8ff" points="89.25,-153.68 80.13,-148.3 83.9,-158.2 89.25,-153.68"/>
</a>
</g>
</g>
<!-- Node2 -->
<g id="Node000002" class="node">
<title>Node2</title>
<g id="a_Node000002"><a xlink:href="class_sandals_1_1_heun3_tableau.html" target="_top" xlink:title="Butcher tableau for the Heun&#39;s order 3 method.">
<polygon fill="white" stroke="#666666" points="318.5,-226.5 199,-226.5 199,-196 318.5,-196 318.5,-226.5"/>
<text text-anchor="start" x="207" y="-213" font-family="Helvetica,sans-Serif" font-size="10.00">Sandals::Heun3Tableau</text>
<text text-anchor="middle" x="258.75" y="-201.75" font-family="Helvetica,sans-Serif" font-size="10.00">&lt; Real &gt;</text>
</a>
</g>
</g>
<!-- Node0&#45;&gt;Node2 -->
<g id="edge50_Node000000_Node000002" class="edge">
<title>Node0&#45;&gt;Node2</title>
<g id="a_edge50_Node000000_Node000002"><a xlink:title=" ">
<path fill="none" stroke="#63b8ff" d="M100.81,-152.34C121.65,-162.65 150.39,-176.21 176.5,-186.25 185.04,-189.53 194.21,-192.69 203.2,-195.6"/>
<polygon fill="#63b8ff" stroke="#63b8ff" points="102.55,-149.3 92.04,-147.96 99.42,-155.56 102.55,-149.3"/>
</a>
</g>
</g>
<!-- Node3 -->
<g id="Node000003" class="node">
<title>Node3</title>
<g id="a_Node000003"><a xlink:href="class_sandals_1_1_radau_i_i_a5_tableau.html" target="_top" xlink:title="Butcher tableau for the Radau IIA order 3 method.">
<polygon fill="white" stroke="#666666" points="327.5,-177.5 190,-177.5 190,-147 327.5,-147 327.5,-177.5"/>
<text text-anchor="start" x="198" y="-164" font-family="Helvetica,sans-Serif" font-size="10.00">Sandals::RadauIIA5Tableau</text>
<text text-anchor="middle" x="258.75" y="-152.75" font-family="Helvetica,sans-Serif" font-size="10.00">&lt; Real &gt;</text>
</a>
</g>
</g>
<!-- Node0&#45;&gt;Node3 -->
<g id="edge51_Node000000_Node000003" class="edge">
<title>Node0&#45;&gt;Node3</title>
<g id="a_edge51_Node000000_Node000003"><a xlink:title=" ">
<path fill="none" stroke="#63b8ff" d="M152.3,-148.11C164.76,-149.79 177.53,-151.5 189.67,-153.12"/>
<polygon fill="#63b8ff" stroke="#63b8ff" points="152.84,-144.66 142.46,-146.8 151.91,-151.59 152.84,-144.66"/>
</a>
</g>
</g>
<!-- Node4 -->
<g id="Node000004" class="node">
<title>Node4</title>
<g id="a_Node000004"><a xlink:href="class_sandals_1_1_ralston3_tableau.html" target="_top" xlink:title="Butcher tableau for the Ralston&#39;s order 3 method.">
<polygon fill="white" stroke="#666666" points="323.75,-128.5 193.75,-128.5 193.75,-98 323.75,-98 323.75,-128.5"/>
<text text-anchor="start" x="201.75" y="-115" font-family="Helvetica,sans-Serif" font-size="10.00">Sandals::Ralston3Tableau</text>
<text text-anchor="middle" x="258.75" y="-103.75" font-family="Helvetica,sans-Serif" font-size="10.00">&lt; Real &gt;</text>
</a>
</g>
</g>
<!-- Node0&#45;&gt;Node4 -->
<g id="edge52_Node000000_Node000004" class="edge">
<title>Node0&#45;&gt;Node4</title>
<g id="a_edge52_Node000000_Node000004"><a xlink:title=" ">
<path fill="none" stroke="#63b8ff" d="M152.37,-126.81C166.08,-125.05 180.15,-123.24 193.36,-121.54"/>
<polygon fill="#63b8ff" stroke="#63b8ff" points="151.93,-123.34 142.46,-128.09 152.83,-130.28 151.93,-123.34"/>
</a>
</g>
</g>
<!-- Node5 -->
<g id="Node000005" class="node">
<title>Node5</title>
<g id="a_Node000005"><a xlink:href="class_sandals_1_1_s_s_p_i_r_k33_tableau.html" target="_top" xlink:title="Butcher tableau for the 3&#45;stage diagonally&#45;implicit strong&#45;stability preserving Runge&#45;Kuttax order 3 ...">
<polygon fill="white" stroke="#666666" points="328.25,-79.5 189.25,-79.5 189.25,-49 328.25,-49 328.25,-79.5"/>
<text text-anchor="start" x="197.25" y="-66" font-family="Helvetica,sans-Serif" font-size="10.00">Sandals::SSPIRK33Tableau</text>
<text text-anchor="middle" x="258.75" y="-54.75" font-family="Helvetica,sans-Serif" font-size="10.00">&lt; Real &gt;</text>
</a>
</g>
</g>
<!-- Node0&#45;&gt;Node5 -->
<g id="edge53_Node000000_Node000005" class="edge">
<title>Node0&#45;&gt;Node5</title>
<g id="a_edge53_Node000000_Node000005"><a xlink:title=" ">
<path fill="none" stroke="#63b8ff" d="M101.23,-122.32C122.05,-112.27 150.6,-99.09 176.5,-89.25 185.05,-86 194.23,-82.86 203.22,-79.96"/>
<polygon fill="#63b8ff" stroke="#63b8ff" points="99.91,-119.07 92.46,-126.6 102.98,-125.36 99.91,-119.07"/>
</a>
</g>
</g>
<!-- Node6 -->
<g id="Node000006" class="node">
<title>Node6</title>
<g id="a_Node000006"><a xlink:href="class_sandals_1_1_s_s_p_r_k33_tableau.html" target="_top" xlink:title="Butcher tableau for the 3&#45;stage strong&#45;stability preserving Runge&#45;Kutta order 3 method.">
<polygon fill="white" stroke="#666666" points="326.75,-30.5 190.75,-30.5 190.75,0 326.75,0 326.75,-30.5"/>
<text text-anchor="start" x="198.75" y="-17" font-family="Helvetica,sans-Serif" font-size="10.00">Sandals::SSPRK33Tableau</text>
<text text-anchor="middle" x="258.75" y="-5.75" font-family="Helvetica,sans-Serif" font-size="10.00">&lt; Real &gt;</text>
</a>
</g>
</g>
<!-- Node0&#45;&gt;Node6 -->
<g id="edge54_Node000000_Node000006" class="edge">
<title>Node0&#45;&gt;Node6</title>
<g id="a_edge54_Node000000_Node000006"><a xlink:title=" ">
<path fill="none" stroke="#63b8ff" d="M86.84,-118.5C105.89,-96.74 140.09,-61.17 176.5,-40.25 182.64,-36.72 189.34,-33.64 196.16,-30.95"/>
<polygon fill="#63b8ff" stroke="#63b8ff" points="84.26,-116.14 80.41,-126.01 89.57,-120.69 84.26,-116.14"/>
</a>
</g>
</g>
</g>
</svg>
