<?xml version="1.0" encoding="UTF-8" standalone="no"?>
<!DOCTYPE svg PUBLIC "-//W3C//DTD SVG 1.1//EN"
 "http://www.w3.org/Graphics/SVG/1.1/DTD/svg11.dtd">
<!-- Generated by graphviz version 12.2.0 (20241103.1931)
 -->
<!-- Title: Graphical Class Hierarchy Pages: 1 -->
<svg width="296pt" height="101pt"
 viewBox="0.00 0.00 295.75 101.25" xmlns="http://www.w3.org/2000/svg" xmlns:xlink="http://www.w3.org/1999/xlink">
<g id="graph0" class="graph" transform="scale(1 1) rotate(0) translate(4 97.25)">
<title>Graphical Class Hierarchy</title>
<!-- Node0 -->
<g id="Node000000" class="node">
<title>Node0</title>
<g id="a_Node000000"><a xlink:href="class_sandals_1_1_implicit.html" target="_top" xlink:title="Class container for the system of implicit ODEs/DAEs.">
<polygon fill="white" stroke="#666666" points="114.25,-56.25 0,-56.25 0,-37 114.25,-37 114.25,-56.25"/>
<text text-anchor="middle" x="57.12" y="-42.75" font-family="Helvetica,sans-Serif" font-size="10.00">Sandals::Implicit&lt; N &gt;</text>
</a>
</g>
</g>
<!-- Node1 -->
<g id="Node000001" class="node">
<title>Node1</title>
<g id="a_Node000001"><a xlink:href="class_sandals_1_1_explicit.html" target="_top" xlink:title="Class container for the system of explicit ODEs.">
<polygon fill="white" stroke="#666666" points="276.5,-93.25 161.5,-93.25 161.5,-74 276.5,-74 276.5,-93.25"/>
<text text-anchor="middle" x="219" y="-79.75" font-family="Helvetica,sans-Serif" font-size="10.00">Sandals::Explicit&lt; N &gt;</text>
</a>
</g>
</g>
<!-- Node0&#45;&gt;Node1 -->
<g id="edge1_Node000000_Node000001" class="edge">
<title>Node0&#45;&gt;Node1</title>
<g id="a_edge1_Node000000_Node000001"><a xlink:title=" ">
<path fill="none" stroke="#63b8ff" d="M112.99,-59.32C133.04,-63.96 155.43,-69.14 174.37,-73.53"/>
<polygon fill="#63b8ff" stroke="#63b8ff" points="113.82,-55.92 103.29,-57.08 112.24,-62.74 113.82,-55.92"/>
</a>
</g>
</g>
<!-- Node2 -->
<g id="Node000002" class="node">
<title>Node2</title>
<g id="a_Node000002"><a xlink:href="class_sandals_1_1_linear.html" target="_top" xlink:title="Class container for the system of linear ODEs/DAEs.">
<polygon fill="white" stroke="#666666" points="273.5,-56.25 164.5,-56.25 164.5,-37 273.5,-37 273.5,-56.25"/>
<text text-anchor="middle" x="219" y="-42.75" font-family="Helvetica,sans-Serif" font-size="10.00">Sandals::Linear&lt; N &gt;</text>
</a>
</g>
</g>
<!-- Node0&#45;&gt;Node2 -->
<g id="edge2_Node000000_Node000002" class="edge">
<title>Node0&#45;&gt;Node2</title>
<g id="a_edge2_Node000000_Node000002"><a xlink:title=" ">
<path fill="none" stroke="#63b8ff" d="M126,-46.62C138.7,-46.62 151.81,-46.62 164.02,-46.62"/>
<polygon fill="#63b8ff" stroke="#63b8ff" points="126,-43.13 116,-46.63 126,-50.13 126,-43.13"/>
</a>
</g>
</g>
<!-- Node3 -->
<g id="Node000003" class="node">
<title>Node3</title>
<g id="a_Node000003"><a xlink:href="class_sandals_1_1_semi_explicit.html" target="_top" xlink:title="Class container for the system of explicit ODEs/DAEs.">
<polygon fill="white" stroke="#666666" points="287.75,-19.25 150.25,-19.25 150.25,0 287.75,0 287.75,-19.25"/>
<text text-anchor="middle" x="219" y="-5.75" font-family="Helvetica,sans-Serif" font-size="10.00">Sandals::SemiExplicit&lt; N &gt;</text>
</a>
</g>
</g>
<!-- Node0&#45;&gt;Node3 -->
<g id="edge3_Node000000_Node000003" class="edge">
<title>Node0&#45;&gt;Node3</title>
<g id="a_edge3_Node000000_Node000003"><a xlink:title=" ">
<path fill="none" stroke="#63b8ff" d="M112.99,-33.93C133.04,-29.29 155.43,-24.11 174.37,-19.72"/>
<polygon fill="#63b8ff" stroke="#63b8ff" points="112.24,-30.51 103.29,-36.17 113.82,-37.33 112.24,-30.51"/>
</a>
</g>
</g>
</g>
</svg>
