<?xml version="1.0" encoding="UTF-8" standalone="no"?>
<!DOCTYPE svg PUBLIC "-//W3C//DTD SVG 1.1//EN"
 "http://www.w3.org/Graphics/SVG/1.1/DTD/svg11.dtd">
<!-- Generated by graphviz version 12.2.0 (20241103.1931)
 -->
<!-- Title: Graphical Class Hierarchy Pages: 1 -->
<svg width="258pt" height="323pt"
 viewBox="0.00 0.00 258.25 323.25" xmlns="http://www.w3.org/2000/svg" xmlns:xlink="http://www.w3.org/1999/xlink">
<g id="graph0" class="graph" transform="scale(1 1) rotate(0) translate(4 319.25)">
<title>Graphical Class Hierarchy</title>
<!-- Node0 -->
<g id="Node000000" class="node">
<title>Node0</title>
<g id="a_Node000000"><a xlink:title=" ">
<polygon fill="#e0e0e0" stroke="#999999" points="49.75,-167.25 0,-167.25 0,-148 49.75,-148 49.75,-167.25"/>
<text text-anchor="middle" x="24.88" y="-153.75" font-family="Helvetica,sans-Serif" font-size="10.00">Tableau</text>
</a>
</g>
</g>
<!-- Node1 -->
<g id="Node000001" class="node">
<title>Node1</title>
<g id="a_Node000001"><a xlink:href="class_sandals_1_1_explicit_euler_tableau.html" target="_top" xlink:title=" ">
<polygon fill="white" stroke="#666666" points="240.88,-315.25 95.12,-315.25 95.12,-296 240.88,-296 240.88,-315.25"/>
<text text-anchor="middle" x="168" y="-301.75" font-family="Helvetica,sans-Serif" font-size="10.00">Sandals::ExplicitEulerTableau</text>
</a>
</g>
</g>
<!-- Node0&#45;&gt;Node1 -->
<g id="edge16_Node000000_Node000001" class="edge">
<title>Node0&#45;&gt;Node1</title>
<g id="a_edge16_Node000000_Node000001"><a xlink:title=" ">
<path fill="none" stroke="#63b8ff" d="M29.61,-178.89C35.87,-208.03 51.38,-259.91 85.75,-287.62 89.69,-290.8 94.07,-293.44 98.69,-295.64"/>
<polygon fill="#63b8ff" stroke="#63b8ff" points="33.04,-178.23 27.69,-169.08 26.17,-179.57 33.04,-178.23"/>
</a>
</g>
</g>
<!-- Node2 -->
<g id="Node000002" class="node">
<title>Node2</title>
<g id="a_Node000002"><a xlink:href="class_sandals_1_1_gauss_legendre2_tableau.html" target="_top" xlink:title=" ">
<polygon fill="white" stroke="#666666" points="250.25,-278.25 85.75,-278.25 85.75,-259 250.25,-259 250.25,-278.25"/>
<text text-anchor="middle" x="168" y="-264.75" font-family="Helvetica,sans-Serif" font-size="10.00">Sandals::GaussLegendre2Tableau</text>
</a>
</g>
</g>
<!-- Node0&#45;&gt;Node2 -->
<g id="edge17_Node000000_Node000002" class="edge">
<title>Node0&#45;&gt;Node2</title>
<g id="a_edge17_Node000000_Node000002"><a xlink:title=" ">
<path fill="none" stroke="#63b8ff" d="M33.56,-178.17C42.67,-199.65 59.96,-232.66 85.75,-250.62 90.26,-253.76 95.21,-256.37 100.39,-258.52"/>
<polygon fill="#63b8ff" stroke="#63b8ff" points="36.85,-176.99 29.89,-169.01 30.35,-179.59 36.85,-176.99"/>
</a>
</g>
</g>
<!-- Node3 -->
<g id="Node000003" class="node">
<title>Node3</title>
<g id="a_Node000003"><a xlink:href="class_sandals_1_1_gauss_legendre4_tableau.html" target="_top" xlink:title=" ">
<polygon fill="white" stroke="#666666" points="250.25,-241.25 85.75,-241.25 85.75,-222 250.25,-222 250.25,-241.25"/>
<text text-anchor="middle" x="168" y="-227.75" font-family="Helvetica,sans-Serif" font-size="10.00">Sandals::GaussLegendre4Tableau</text>
</a>
</g>
</g>
<!-- Node0&#45;&gt;Node3 -->
<g id="edge18_Node000000_Node000003" class="edge">
<title>Node0&#45;&gt;Node3</title>
<g id="a_edge18_Node000000_Node000003"><a xlink:title=" ">
<path fill="none" stroke="#63b8ff" d="M41.08,-176.34C52.18,-188.76 68.29,-204.42 85.75,-213.62 91.76,-216.79 98.3,-219.4 104.97,-221.55"/>
<polygon fill="#63b8ff" stroke="#63b8ff" points="43.77,-174.1 34.61,-168.78 38.45,-178.65 43.77,-174.1"/>
</a>
</g>
</g>
<!-- Node4 -->
<g id="Node000004" class="node">
<title>Node4</title>
<g id="a_Node000004"><a xlink:href="class_sandals_1_1_gauss_legendre6_tableau.html" target="_top" xlink:title=" ">
<polygon fill="white" stroke="#666666" points="250.25,-204.25 85.75,-204.25 85.75,-185 250.25,-185 250.25,-204.25"/>
<text text-anchor="middle" x="168" y="-190.75" font-family="Helvetica,sans-Serif" font-size="10.00">Sandals::GaussLegendre6Tableau</text>
</a>
</g>
</g>
<!-- Node0&#45;&gt;Node4 -->
<g id="edge19_Node000000_Node000004" class="edge">
<title>Node0&#45;&gt;Node4</title>
<g id="a_edge19_Node000000_Node000004"><a xlink:title=" ">
<path fill="none" stroke="#63b8ff" d="M61.14,-169.39C69.19,-171.92 77.73,-174.47 85.75,-176.62 96.21,-179.44 107.52,-182.15 118.28,-184.57"/>
<polygon fill="#63b8ff" stroke="#63b8ff" points="62.23,-166.07 51.64,-166.35 60.1,-172.73 62.23,-166.07"/>
</a>
</g>
</g>
<!-- Node5 -->
<g id="Node000005" class="node">
<title>Node5</title>
<g id="a_Node000005"><a xlink:href="class_sandals_1_1_implicit_euler_tableau.html" target="_top" xlink:title=" ">
<polygon fill="white" stroke="#666666" points="240.5,-167.25 95.5,-167.25 95.5,-148 240.5,-148 240.5,-167.25"/>
<text text-anchor="middle" x="168" y="-153.75" font-family="Helvetica,sans-Serif" font-size="10.00">Sandals::ImplicitEulerTableau</text>
</a>
</g>
</g>
<!-- Node0&#45;&gt;Node5 -->
<g id="edge20_Node000000_Node000005" class="edge">
<title>Node0&#45;&gt;Node5</title>
<g id="a_edge20_Node000000_Node000005"><a xlink:title=" ">
<path fill="none" stroke="#63b8ff" d="M61.54,-157.62C71.83,-157.62 83.45,-157.62 95.12,-157.62"/>
<polygon fill="#63b8ff" stroke="#63b8ff" points="61.65,-154.13 51.65,-157.63 61.65,-161.13 61.65,-154.13"/>
</a>
</g>
</g>
<!-- Node6 -->
<g id="Node000006" class="node">
<title>Node6</title>
<g id="a_Node000006"><a xlink:href="class_sandals_1_1_r_k4_tableau.html" target="_top" xlink:title=" ">
<polygon fill="white" stroke="#666666" points="223.25,-130.25 112.75,-130.25 112.75,-111 223.25,-111 223.25,-130.25"/>
<text text-anchor="middle" x="168" y="-116.75" font-family="Helvetica,sans-Serif" font-size="10.00">Sandals::RK4Tableau</text>
</a>
</g>
</g>
<!-- Node0&#45;&gt;Node6 -->
<g id="edge21_Node000000_Node000006" class="edge">
<title>Node0&#45;&gt;Node6</title>
<g id="a_edge21_Node000000_Node000006"><a xlink:title=" ">
<path fill="none" stroke="#63b8ff" d="M61.14,-145.86C69.19,-143.33 77.73,-140.78 85.75,-138.62 96.21,-135.81 107.52,-133.1 118.28,-130.68"/>
<polygon fill="#63b8ff" stroke="#63b8ff" points="60.1,-142.52 51.64,-148.9 62.23,-149.18 60.1,-142.52"/>
</a>
</g>
</g>
<!-- Node7 -->
<g id="Node000007" class="node">
<title>Node7</title>
<g id="a_Node000007"><a xlink:href="class_sandals_1_1_r_k_f45_tableau.html" target="_top" xlink:title=" ">
<polygon fill="white" stroke="#666666" points="228.88,-93.25 107.12,-93.25 107.12,-74 228.88,-74 228.88,-93.25"/>
<text text-anchor="middle" x="168" y="-79.75" font-family="Helvetica,sans-Serif" font-size="10.00">Sandals::RKF45Tableau</text>
</a>
</g>
</g>
<!-- Node0&#45;&gt;Node7 -->
<g id="edge22_Node000000_Node000007" class="edge">
<title>Node0&#45;&gt;Node7</title>
<g id="a_edge22_Node000000_Node000007"><a xlink:title=" ">
<path fill="none" stroke="#63b8ff" d="M41.08,-138.91C52.18,-126.49 68.29,-110.83 85.75,-101.62 92.27,-98.19 99.41,-95.41 106.68,-93.16"/>
<polygon fill="#63b8ff" stroke="#63b8ff" points="38.45,-136.6 34.61,-146.47 43.77,-141.15 38.45,-136.6"/>
</a>
</g>
</g>
<!-- Node8 -->
<g id="Node000008" class="node">
<title>Node8</title>
<g id="a_Node000008"><a xlink:href="class_sandals_1_1_radau_i_i_a3_tableau.html" target="_top" xlink:title=" ">
<polygon fill="white" stroke="#666666" points="236.75,-56.25 99.25,-56.25 99.25,-37 236.75,-37 236.75,-56.25"/>
<text text-anchor="middle" x="168" y="-42.75" font-family="Helvetica,sans-Serif" font-size="10.00">Sandals::RadauIIA3Tableau</text>
</a>
</g>
</g>
<!-- Node0&#45;&gt;Node8 -->
<g id="edge23_Node000000_Node000008" class="edge">
<title>Node0&#45;&gt;Node8</title>
<g id="a_edge23_Node000000_Node000008"><a xlink:title=" ">
<path fill="none" stroke="#63b8ff" d="M33.56,-137.08C42.67,-115.6 59.96,-82.59 85.75,-64.62 90.26,-61.49 95.21,-58.88 100.39,-56.73"/>
<polygon fill="#63b8ff" stroke="#63b8ff" points="30.35,-135.66 29.89,-146.24 36.85,-138.26 30.35,-135.66"/>
</a>
</g>
</g>
<!-- Node9 -->
<g id="Node000009" class="node">
<title>Node9</title>
<g id="a_Node000009"><a xlink:href="class_sandals_1_1_radau_i_i_a5_tableau.html" target="_top" xlink:title=" ">
<polygon fill="white" stroke="#666666" points="236.75,-19.25 99.25,-19.25 99.25,0 236.75,0 236.75,-19.25"/>
<text text-anchor="middle" x="168" y="-5.75" font-family="Helvetica,sans-Serif" font-size="10.00">Sandals::RadauIIA5Tableau</text>
</a>
</g>
</g>
<!-- Node0&#45;&gt;Node9 -->
<g id="edge24_Node000000_Node000009" class="edge">
<title>Node0&#45;&gt;Node9</title>
<g id="a_edge24_Node000000_Node000009"><a xlink:title=" ">
<path fill="none" stroke="#63b8ff" d="M29.61,-136.36C35.87,-107.22 51.38,-55.34 85.75,-27.62 89.8,-24.36 94.32,-21.66 99.09,-19.42"/>
<polygon fill="#63b8ff" stroke="#63b8ff" points="26.17,-135.68 27.69,-146.17 33.04,-137.02 26.17,-135.68"/>
</a>
</g>
</g>
</g>
</svg>
