<?xml version="1.0" encoding="UTF-8" standalone="no"?>
<!DOCTYPE svg PUBLIC "-//W3C//DTD SVG 1.1//EN"
 "http://www.w3.org/Graphics/SVG/1.1/DTD/svg11.dtd">
<!-- Generated by graphviz version 12.2.1 (20241206.2353)
 -->
<!-- Title: Graphical Class Hierarchy Pages: 1 -->
<svg width="349pt" height="382pt"
 viewBox="0.00 0.00 349.00 381.50" xmlns="http://www.w3.org/2000/svg" xmlns:xlink="http://www.w3.org/1999/xlink">
<g id="graph0" class="graph" transform="scale(1 1) rotate(0) translate(4 377.5)">
<title>Graphical Class Hierarchy</title>
<!-- Node0 -->
<g id="Node000000" class="node">
<title>Node0</title>
<g id="a_Node000000"><a xlink:href="struct_sandals_1_1_tableau.html" target="_top" xlink:title=" ">
<polygon fill="white" stroke="#666666" points="140.5,-195.88 0,-195.88 0,-176.62 140.5,-176.62 140.5,-195.88"/>
<text text-anchor="middle" x="70.25" y="-182.38" font-family="Helvetica,sans-Serif" font-size="10.00">Sandals::Tableau&lt; Real, 2 &gt;</text>
</a>
</g>
</g>
<!-- Node1 -->
<g id="Node000001" class="node">
<title>Node1</title>
<g id="a_Node000001"><a xlink:href="class_sandals_1_1_gauss_legendre4_tableau.html" target="_top" xlink:title="Butcher Tableau for the Gauss&#45;Legendre order 4 method.">
<polygon fill="white" stroke="#666666" points="341,-373.5 176.5,-373.5 176.5,-343 341,-343 341,-373.5"/>
<text text-anchor="start" x="184.5" y="-360" font-family="Helvetica,sans-Serif" font-size="10.00">Sandals::GaussLegendre4Tableau</text>
<text text-anchor="middle" x="258.75" y="-348.75" font-family="Helvetica,sans-Serif" font-size="10.00">&lt; Real &gt;</text>
</a>
</g>
</g>
<!-- Node0&#45;&gt;Node1 -->
<g id="edge41_Node000000_Node000001" class="edge">
<title>Node0&#45;&gt;Node1</title>
<g id="a_edge41_Node000000_Node000001"><a xlink:title=" ">
<path fill="none" stroke="#63b8ff" d="M80.33,-206.4C95.63,-238.09 129.54,-299.44 176.5,-333.25 181.53,-336.87 187.1,-339.98 192.89,-342.64"/>
<polygon fill="#63b8ff" stroke="#63b8ff" points="83.6,-205.12 76.19,-197.54 77.25,-208.08 83.6,-205.12"/>
</a>
</g>
</g>
<!-- Node2 -->
<g id="Node000002" class="node">
<title>Node2</title>
<g id="a_Node000002"><a xlink:href="class_sandals_1_1_heun2_tableau.html" target="_top" xlink:title="Butcher tableau for the Heun&#39;s (or 2&#45;stage strong&#45;stability preserving Runge&#45;Kutta) order 2 method.">
<polygon fill="white" stroke="#666666" points="318.5,-324.5 199,-324.5 199,-294 318.5,-294 318.5,-324.5"/>
<text text-anchor="start" x="207" y="-311" font-family="Helvetica,sans-Serif" font-size="10.00">Sandals::Heun2Tableau</text>
<text text-anchor="middle" x="258.75" y="-299.75" font-family="Helvetica,sans-Serif" font-size="10.00">&lt; Real &gt;</text>
</a>
</g>
</g>
<!-- Node0&#45;&gt;Node2 -->
<g id="edge42_Node000000_Node000002" class="edge">
<title>Node0&#45;&gt;Node2</title>
<g id="a_edge42_Node000000_Node000002"><a xlink:title=" ">
<path fill="none" stroke="#63b8ff" d="M86.51,-204.86C105.45,-226.82 139.78,-263.03 176.5,-284.25 183.4,-288.24 191,-291.66 198.71,-294.57"/>
<polygon fill="#63b8ff" stroke="#63b8ff" points="89.25,-202.68 80.13,-197.3 83.9,-207.2 89.25,-202.68"/>
</a>
</g>
</g>
<!-- Node3 -->
<g id="Node000003" class="node">
<title>Node3</title>
<g id="a_Node000003"><a xlink:href="class_sandals_1_1_lobatto_i_i_i_a2_tableau.html" target="_top" xlink:title="Butcher tableau for the Lobatto IIIA order 2 method.">
<polygon fill="white" stroke="#666666" points="330.88,-275.5 186.62,-275.5 186.62,-245 330.88,-245 330.88,-275.5"/>
<text text-anchor="start" x="194.62" y="-262" font-family="Helvetica,sans-Serif" font-size="10.00">Sandals::LobattoIIIA2Tableau</text>
<text text-anchor="middle" x="258.75" y="-250.75" font-family="Helvetica,sans-Serif" font-size="10.00">&lt; Real &gt;</text>
</a>
</g>
</g>
<!-- Node0&#45;&gt;Node3 -->
<g id="edge43_Node000000_Node000003" class="edge">
<title>Node0&#45;&gt;Node3</title>
<g id="a_edge43_Node000000_Node000003"><a xlink:title=" ">
<path fill="none" stroke="#63b8ff" d="M100.81,-201.34C121.65,-211.65 150.39,-225.21 176.5,-235.25 185.04,-238.53 194.21,-241.69 203.2,-244.6"/>
<polygon fill="#63b8ff" stroke="#63b8ff" points="102.55,-198.3 92.04,-196.96 99.42,-204.56 102.55,-198.3"/>
</a>
</g>
</g>
<!-- Node4 -->
<g id="Node000004" class="node">
<title>Node4</title>
<g id="a_Node000004"><a xlink:href="class_sandals_1_1_m_t_e22_tableau.html" target="_top" xlink:title="Butcher tableau for the minimal truncation error (or Ralston&#39;s) order 2 method.">
<polygon fill="white" stroke="#666666" points="320,-226.5 197.5,-226.5 197.5,-196 320,-196 320,-226.5"/>
<text text-anchor="start" x="205.5" y="-213" font-family="Helvetica,sans-Serif" font-size="10.00">Sandals::MTE22Tableau</text>
<text text-anchor="middle" x="258.75" y="-201.75" font-family="Helvetica,sans-Serif" font-size="10.00">&lt; Real &gt;</text>
</a>
</g>
</g>
<!-- Node0&#45;&gt;Node4 -->
<g id="edge44_Node000000_Node000004" class="edge">
<title>Node0&#45;&gt;Node4</title>
<g id="a_edge44_Node000000_Node000004"><a xlink:title=" ">
<path fill="none" stroke="#63b8ff" d="M152.32,-197.12C167.32,-199.13 182.74,-201.2 197,-203.11"/>
<polygon fill="#63b8ff" stroke="#63b8ff" points="152.84,-193.66 142.46,-195.8 151.91,-200.59 152.84,-193.66"/>
</a>
</g>
</g>
<!-- Node5 -->
<g id="Node000005" class="node">
<title>Node5</title>
<g id="a_Node000005"><a xlink:href="class_sandals_1_1_radau_i_i_a3_tableau.html" target="_top" xlink:title="Butcher tableau for the Radau IIA order 3 method.">
<polygon fill="white" stroke="#666666" points="327.5,-177.5 190,-177.5 190,-147 327.5,-147 327.5,-177.5"/>
<text text-anchor="start" x="198" y="-164" font-family="Helvetica,sans-Serif" font-size="10.00">Sandals::RadauIIA3Tableau</text>
<text text-anchor="middle" x="258.75" y="-152.75" font-family="Helvetica,sans-Serif" font-size="10.00">&lt; Real &gt;</text>
</a>
</g>
</g>
<!-- Node0&#45;&gt;Node5 -->
<g id="edge45_Node000000_Node000005" class="edge">
<title>Node0&#45;&gt;Node5</title>
<g id="a_edge45_Node000000_Node000005"><a xlink:title=" ">
<path fill="none" stroke="#63b8ff" d="M152.3,-175.82C164.76,-174.22 177.53,-172.57 189.67,-171.01"/>
<polygon fill="#63b8ff" stroke="#63b8ff" points="151.93,-172.34 142.46,-177.09 152.83,-179.28 151.93,-172.34"/>
</a>
</g>
</g>
<!-- Node6 -->
<g id="Node000006" class="node">
<title>Node6</title>
<g id="a_Node000006"><a xlink:href="class_sandals_1_1_ralston2_tableau.html" target="_top" xlink:title="Butcher tableau for the Ralston&#39;s (or minimal truncation error) order 2 method.">
<polygon fill="white" stroke="#666666" points="323.75,-128.5 193.75,-128.5 193.75,-98 323.75,-98 323.75,-128.5"/>
<text text-anchor="start" x="201.75" y="-115" font-family="Helvetica,sans-Serif" font-size="10.00">Sandals::Ralston2Tableau</text>
<text text-anchor="middle" x="258.75" y="-103.75" font-family="Helvetica,sans-Serif" font-size="10.00">&lt; Real &gt;</text>
</a>
</g>
</g>
<!-- Node0&#45;&gt;Node6 -->
<g id="edge46_Node000000_Node000006" class="edge">
<title>Node0&#45;&gt;Node6</title>
<g id="a_edge46_Node000000_Node000006"><a xlink:title=" ">
<path fill="none" stroke="#63b8ff" d="M101.23,-171.32C122.05,-161.27 150.6,-148.09 176.5,-138.25 185.05,-135 194.23,-131.86 203.22,-128.96"/>
<polygon fill="#63b8ff" stroke="#63b8ff" points="99.91,-168.07 92.46,-175.6 102.98,-174.36 99.91,-168.07"/>
</a>
</g>
</g>
<!-- Node7 -->
<g id="Node000007" class="node">
<title>Node7</title>
<g id="a_Node000007"><a xlink:href="class_sandals_1_1_s_s_p_r_k22_tableau.html" target="_top" xlink:title="Butcher tableau for the 2&#45;stage strong&#45;stability preserving Runge&#45;Kutta (or Heun) order 2 method.">
<polygon fill="white" stroke="#666666" points="326.75,-79.5 190.75,-79.5 190.75,-49 326.75,-49 326.75,-79.5"/>
<text text-anchor="start" x="198.75" y="-66" font-family="Helvetica,sans-Serif" font-size="10.00">Sandals::SSPRK22Tableau</text>
<text text-anchor="middle" x="258.75" y="-54.75" font-family="Helvetica,sans-Serif" font-size="10.00">&lt; Real &gt;</text>
</a>
</g>
</g>
<!-- Node0&#45;&gt;Node7 -->
<g id="edge47_Node000000_Node000007" class="edge">
<title>Node0&#45;&gt;Node7</title>
<g id="a_edge47_Node000000_Node000007"><a xlink:title=" ">
<path fill="none" stroke="#63b8ff" d="M86.84,-167.5C105.89,-145.74 140.09,-110.17 176.5,-89.25 182.64,-85.72 189.34,-82.64 196.16,-79.95"/>
<polygon fill="#63b8ff" stroke="#63b8ff" points="84.26,-165.14 80.41,-175.01 89.57,-169.69 84.26,-165.14"/>
</a>
</g>
</g>
<!-- Node8 -->
<g id="Node000008" class="node">
<title>Node8</title>
<g id="a_Node000008"><a xlink:href="class_sandals_1_1_s_s_p_r_k22star_tableau.html" target="_top" xlink:title="Butcher tableau for the optimal 2&#45;stage strong&#45;stability preserving Runge&#45;Kutta order 2 method.">
<polygon fill="white" stroke="#666666" points="335,-30.5 182.5,-30.5 182.5,0 335,0 335,-30.5"/>
<text text-anchor="start" x="190.5" y="-17" font-family="Helvetica,sans-Serif" font-size="10.00">Sandals::SSPRK22starTableau</text>
<text text-anchor="middle" x="258.75" y="-5.75" font-family="Helvetica,sans-Serif" font-size="10.00">&lt; Real &gt;</text>
</a>
</g>
</g>
<!-- Node0&#45;&gt;Node8 -->
<g id="edge48_Node000000_Node000008" class="edge">
<title>Node0&#45;&gt;Node8</title>
<g id="a_edge48_Node000000_Node000008"><a xlink:title=" ">
<path fill="none" stroke="#63b8ff" d="M80.37,-166.24C95.72,-134.76 129.69,-73.83 176.5,-40.25 181.54,-36.64 187.11,-33.54 192.9,-30.88"/>
<polygon fill="#63b8ff" stroke="#63b8ff" points="77.32,-164.49 76.21,-175.03 83.65,-167.48 77.32,-164.49"/>
</a>
</g>
</g>
</g>
</svg>
