<?xml version="1.0" encoding="UTF-8" standalone="no"?>
<!DOCTYPE svg PUBLIC "-//W3C//DTD SVG 1.1//EN"
 "http://www.w3.org/Graphics/SVG/1.1/DTD/svg11.dtd">
<!-- Generated by graphviz version 12.2.1 (20241206.2353)
 -->
<!-- Title: Graphical Class Hierarchy Pages: 1 -->
<svg width="382pt" height="88pt"
 viewBox="0.00 0.00 382.25 87.50" xmlns="http://www.w3.org/2000/svg" xmlns:xlink="http://www.w3.org/1999/xlink">
<g id="graph0" class="graph" transform="scale(1 1) rotate(0) translate(4 83.5)">
<title>Graphical Class Hierarchy</title>
<!-- Node0 -->
<g id="Node000000" class="node">
<title>Node0</title>
<g id="a_Node000000"><a xlink:href="class_sandals_1_1_implicit.html" target="_top" xlink:title="Class container for the system of implicit ODEs/DAEs.">
<polygon fill="white" stroke="#666666" points="94.75,-54.5 0,-54.5 0,-24 94.75,-24 94.75,-54.5"/>
<text text-anchor="start" x="8" y="-41" font-family="Helvetica,sans-Serif" font-size="10.00">Sandals::Implicit&lt;</text>
<text text-anchor="middle" x="47.38" y="-29.75" font-family="Helvetica,sans-Serif" font-size="10.00"> N, M &gt;</text>
</a>
</g>
</g>
<!-- Node1 -->
<g id="Node000001" class="node">
<title>Node1</title>
<g id="a_Node000001"><a xlink:href="class_sandals_1_1_explicit.html" target="_top" xlink:title=" ">
<polygon fill="white" stroke="#666666" points="226.25,-79.5 130.75,-79.5 130.75,-49 226.25,-49 226.25,-79.5"/>
<text text-anchor="start" x="138.75" y="-66" font-family="Helvetica,sans-Serif" font-size="10.00">Sandals::Explicit&lt;</text>
<text text-anchor="middle" x="178.5" y="-54.75" font-family="Helvetica,sans-Serif" font-size="10.00"> N, 0 &gt;</text>
</a>
</g>
</g>
<!-- Node0&#45;&gt;Node1 -->
<g id="edge1_Node000000_Node000001" class="edge">
<title>Node0&#45;&gt;Node1</title>
<g id="a_edge1_Node000000_Node000001"><a xlink:title=" ">
<path fill="none" stroke="#63b8ff" d="M106.02,-50.41C114.22,-52 122.56,-53.61 130.52,-55.15"/>
<polygon fill="#63b8ff" stroke="#63b8ff" points="106.96,-47.03 96.48,-48.56 105.63,-53.9 106.96,-47.03"/>
</a>
</g>
</g>
<!-- Node3 -->
<g id="Node000003" class="node">
<title>Node3</title>
<g id="a_Node000003"><a xlink:href="class_sandals_1_1_explicit.html" target="_top" xlink:title="Class container for the system of explicit ODEs.">
<polygon fill="white" stroke="#666666" points="226.25,-30.5 130.75,-30.5 130.75,0 226.25,0 226.25,-30.5"/>
<text text-anchor="start" x="138.75" y="-17" font-family="Helvetica,sans-Serif" font-size="10.00">Sandals::Explicit&lt;</text>
<text text-anchor="middle" x="178.5" y="-5.75" font-family="Helvetica,sans-Serif" font-size="10.00"> N, M &gt;</text>
</a>
</g>
</g>
<!-- Node0&#45;&gt;Node3 -->
<g id="edge3_Node000000_Node000003" class="edge">
<title>Node0&#45;&gt;Node3</title>
<g id="a_edge3_Node000000_Node000003"><a xlink:title=" ">
<path fill="none" stroke="#63b8ff" d="M106.3,-28.48C114.41,-26.98 122.65,-25.44 130.52,-23.98"/>
<polygon fill="#63b8ff" stroke="#63b8ff" points="105.67,-25.04 96.48,-30.31 106.95,-31.92 105.67,-25.04"/>
</a>
</g>
</g>
<!-- Node2 -->
<g id="Node000002" class="node">
<title>Node2</title>
<g id="a_Node000002"><a xlink:href="class_sandals_1_1_semi_explicit.html" target="_top" xlink:title="Class container for the system of explicit ODEs/DAEs.">
<polygon fill="white" stroke="#666666" points="374.25,-79.5 262.25,-79.5 262.25,-49 374.25,-49 374.25,-79.5"/>
<text text-anchor="start" x="270.25" y="-66" font-family="Helvetica,sans-Serif" font-size="10.00">Sandals::SemiExplicit</text>
<text text-anchor="middle" x="318.25" y="-54.75" font-family="Helvetica,sans-Serif" font-size="10.00">&lt; N, M &gt;</text>
</a>
</g>
</g>
<!-- Node1&#45;&gt;Node2 -->
<g id="edge2_Node000001_Node000002" class="edge">
<title>Node1&#45;&gt;Node2</title>
<g id="a_edge2_Node000001_Node000002"><a xlink:title=" ">
<path fill="none" stroke="#63b8ff" d="M237.96,-64.25C245.89,-64.25 254.01,-64.25 261.89,-64.25"/>
<polygon fill="#63b8ff" stroke="#63b8ff" points="238.03,-60.75 228.03,-64.25 238.03,-67.75 238.03,-60.75"/>
</a>
</g>
</g>
</g>
</svg>
