<?xml version="1.0" encoding="UTF-8" standalone="no"?>
<!DOCTYPE svg PUBLIC "-//W3C//DTD SVG 1.1//EN"
 "http://www.w3.org/Graphics/SVG/1.1/DTD/svg11.dtd">
<!-- Generated by graphviz version 12.2.0 (20241103.1931)
 -->
<!-- Title: Graphical Class Hierarchy Pages: 1 -->
<svg width="284pt" height="137pt"
 viewBox="0.00 0.00 283.75 136.50" xmlns="http://www.w3.org/2000/svg" xmlns:xlink="http://www.w3.org/1999/xlink">
<g id="graph0" class="graph" transform="scale(1 1) rotate(0) translate(4 132.5)">
<title>Graphical Class Hierarchy</title>
<!-- Node0 -->
<g id="Node000000" class="node">
<title>Node0</title>
<g id="a_Node000000"><a xlink:href="class_sandals_1_1_runge_kutta.html" target="_top" xlink:title=" ">
<polygon fill="white" stroke="#666666" points="109,-79.5 0,-79.5 0,-49 109,-49 109,-79.5"/>
<text text-anchor="start" x="8" y="-66" font-family="Helvetica,sans-Serif" font-size="10.00">Sandals::RungeKutta</text>
<text text-anchor="middle" x="54.5" y="-54.75" font-family="Helvetica,sans-Serif" font-size="10.00">&lt; 1, N, 0 &gt;</text>
</a>
</g>
</g>
<!-- Node1 -->
<g id="Node000001" class="node">
<title>Node1</title>
<g id="a_Node000001"><a xlink:href="class_sandals_1_1_explicit_euler.html" target="_top" xlink:title="Class container for the Explicit Euler method.">
<polygon fill="white" stroke="#666666" points="266.38,-128.5 154.38,-128.5 154.38,-98 266.38,-98 266.38,-128.5"/>
<text text-anchor="start" x="162.38" y="-115" font-family="Helvetica,sans-Serif" font-size="10.00">Sandals::ExplicitEuler</text>
<text text-anchor="middle" x="210.38" y="-103.75" font-family="Helvetica,sans-Serif" font-size="10.00">&lt; N, M &gt;</text>
</a>
</g>
</g>
<!-- Node0&#45;&gt;Node1 -->
<g id="edge6_Node000000_Node000001" class="edge">
<title>Node0&#45;&gt;Node1</title>
<g id="a_edge6_Node000000_Node000001"><a xlink:title=" ">
<path fill="none" stroke="#63b8ff" d="M115.19,-83.26C129.99,-87.97 145.69,-92.97 159.94,-97.51"/>
<polygon fill="#63b8ff" stroke="#63b8ff" points="116.64,-80.05 106.05,-80.35 114.52,-86.72 116.64,-80.05"/>
</a>
</g>
</g>
<!-- Node2 -->
<g id="Node000002" class="node">
<title>Node2</title>
<g id="a_Node000002"><a xlink:href="class_sandals_1_1_gauss_legendre2.html" target="_top" xlink:title="Class container for the Gauss&#45;Legendre order 2 method.">
<polygon fill="white" stroke="#666666" points="275.75,-79.5 145,-79.5 145,-49 275.75,-49 275.75,-79.5"/>
<text text-anchor="start" x="153" y="-66" font-family="Helvetica,sans-Serif" font-size="10.00">Sandals::GaussLegendre2</text>
<text text-anchor="middle" x="210.38" y="-54.75" font-family="Helvetica,sans-Serif" font-size="10.00">&lt; N, M &gt;</text>
</a>
</g>
</g>
<!-- Node0&#45;&gt;Node2 -->
<g id="edge7_Node000000_Node000002" class="edge">
<title>Node0&#45;&gt;Node2</title>
<g id="a_edge7_Node000000_Node000002"><a xlink:title=" ">
<path fill="none" stroke="#63b8ff" d="M120.78,-64.25C128.72,-64.25 136.82,-64.25 144.75,-64.25"/>
<polygon fill="#63b8ff" stroke="#63b8ff" points="120.83,-60.75 110.83,-64.25 120.83,-67.75 120.83,-60.75"/>
</a>
</g>
</g>
<!-- Node3 -->
<g id="Node000003" class="node">
<title>Node3</title>
<g id="a_Node000003"><a xlink:href="class_sandals_1_1_implicit_euler.html" target="_top" xlink:title="Class container for the Implicit Euler method.">
<polygon fill="white" stroke="#666666" points="266,-30.5 154.75,-30.5 154.75,0 266,0 266,-30.5"/>
<text text-anchor="start" x="162.75" y="-17" font-family="Helvetica,sans-Serif" font-size="10.00">Sandals::ImplicitEuler</text>
<text text-anchor="middle" x="210.38" y="-5.75" font-family="Helvetica,sans-Serif" font-size="10.00">&lt; N, M &gt;</text>
</a>
</g>
</g>
<!-- Node0&#45;&gt;Node3 -->
<g id="edge8_Node000000_Node000003" class="edge">
<title>Node0&#45;&gt;Node3</title>
<g id="a_edge8_Node000000_Node000003"><a xlink:title=" ">
<path fill="none" stroke="#63b8ff" d="M115.19,-45.24C129.99,-40.53 145.69,-35.53 159.94,-30.99"/>
<polygon fill="#63b8ff" stroke="#63b8ff" points="114.52,-41.78 106.05,-48.15 116.64,-48.45 114.52,-41.78"/>
</a>
</g>
</g>
</g>
</svg>
