<?xml version="1.0" encoding="UTF-8" standalone="no"?>
<!DOCTYPE svg PUBLIC "-//W3C//DTD SVG 1.1//EN"
 "http://www.w3.org/Graphics/SVG/1.1/DTD/svg11.dtd">
<!-- Generated by graphviz version 12.2.0 (20241103.1931)
 -->
<!-- Title: Graphical Class Hierarchy Pages: 1 -->
<svg width="323pt" height="101pt"
 viewBox="0.00 0.00 322.75 101.25" xmlns="http://www.w3.org/2000/svg" xmlns:xlink="http://www.w3.org/1999/xlink">
<g id="graph0" class="graph" transform="scale(1 1) rotate(0) translate(4 97.25)">
<title>Graphical Class Hierarchy</title>
<!-- Node0 -->
<g id="Node000000" class="node">
<title>Node0</title>
<g id="a_Node000000"><a xlink:href="struct_sandals_1_1_tableau.html" target="_top" xlink:title=" ">
<polygon fill="white" stroke="#666666" points="114.25,-56.25 0,-56.25 0,-37 114.25,-37 114.25,-56.25"/>
<text text-anchor="middle" x="57.12" y="-42.75" font-family="Helvetica,sans-Serif" font-size="10.00">Sandals::Tableau&lt; 1 &gt;</text>
</a>
</g>
</g>
<!-- Node1 -->
<g id="Node000001" class="node">
<title>Node1</title>
<g id="a_Node000001"><a xlink:href="class_sandals_1_1_explicit_euler_tableau.html" target="_top" xlink:title="Butcher tableau for the Explicit Euler method.">
<polygon fill="white" stroke="#666666" points="305.38,-93.25 159.62,-93.25 159.62,-74 305.38,-74 305.38,-93.25"/>
<text text-anchor="middle" x="232.5" y="-79.75" font-family="Helvetica,sans-Serif" font-size="10.00">Sandals::ExplicitEulerTableau</text>
</a>
</g>
</g>
<!-- Node0&#45;&gt;Node1 -->
<g id="edge34_Node000000_Node000001" class="edge">
<title>Node0&#45;&gt;Node1</title>
<g id="a_edge34_Node000000_Node000001"><a xlink:title=" ">
<path fill="none" stroke="#63b8ff" d="M116.71,-59.13C138.68,-63.82 163.36,-69.08 184.18,-73.53"/>
<polygon fill="#63b8ff" stroke="#63b8ff" points="117.49,-55.72 106.98,-57.05 116.03,-62.56 117.49,-55.72"/>
</a>
</g>
</g>
<!-- Node2 -->
<g id="Node000002" class="node">
<title>Node2</title>
<g id="a_Node000002"><a xlink:href="class_sandals_1_1_gauss_legendre2_tableau.html" target="_top" xlink:title="Butcher Tableau for the Gauss&#45;Legendre order 2 method.">
<polygon fill="white" stroke="#666666" points="314.75,-56.25 150.25,-56.25 150.25,-37 314.75,-37 314.75,-56.25"/>
<text text-anchor="middle" x="232.5" y="-42.75" font-family="Helvetica,sans-Serif" font-size="10.00">Sandals::GaussLegendre2Tableau</text>
</a>
</g>
</g>
<!-- Node0&#45;&gt;Node2 -->
<g id="edge35_Node000000_Node000002" class="edge">
<title>Node0&#45;&gt;Node2</title>
<g id="a_edge35_Node000000_Node000002"><a xlink:title=" ">
<path fill="none" stroke="#63b8ff" d="M125.83,-46.62C133.76,-46.62 141.9,-46.62 149.99,-46.62"/>
<polygon fill="#63b8ff" stroke="#63b8ff" points="125.93,-43.13 115.93,-46.63 125.93,-50.13 125.93,-43.13"/>
</a>
</g>
</g>
<!-- Node3 -->
<g id="Node000003" class="node">
<title>Node3</title>
<g id="a_Node000003"><a xlink:href="class_sandals_1_1_implicit_euler_tableau.html" target="_top" xlink:title="Butcher tableau for the Implicit Euler method.">
<polygon fill="white" stroke="#666666" points="305,-19.25 160,-19.25 160,0 305,0 305,-19.25"/>
<text text-anchor="middle" x="232.5" y="-5.75" font-family="Helvetica,sans-Serif" font-size="10.00">Sandals::ImplicitEulerTableau</text>
</a>
</g>
</g>
<!-- Node0&#45;&gt;Node3 -->
<g id="edge36_Node000000_Node000003" class="edge">
<title>Node0&#45;&gt;Node3</title>
<g id="a_edge36_Node000000_Node000003"><a xlink:title=" ">
<path fill="none" stroke="#63b8ff" d="M116.71,-34.12C138.68,-29.43 163.36,-24.17 184.18,-19.72"/>
<polygon fill="#63b8ff" stroke="#63b8ff" points="116.03,-30.69 106.98,-36.2 117.49,-37.53 116.03,-30.69"/>
</a>
</g>
</g>
</g>
</svg>
