<?xml version="1.0" encoding="UTF-8" standalone="no"?>
<!DOCTYPE svg PUBLIC "-//W3C//DTD SVG 1.1//EN"
 "http://www.w3.org/Graphics/SVG/1.1/DTD/svg11.dtd">
<!-- Generated by graphviz version 12.2.1 (20241206.2353)
 -->
<!-- Title: Graphical Class Hierarchy Pages: 1 -->
<svg width="321pt" height="186pt"
 viewBox="0.00 0.00 320.50 185.50" xmlns="http://www.w3.org/2000/svg" xmlns:xlink="http://www.w3.org/1999/xlink">
<g id="graph0" class="graph" transform="scale(1 1) rotate(0) translate(4 181.5)">
<title>Graphical Class Hierarchy</title>
<!-- Node0 -->
<g id="Node000000" class="node">
<title>Node0</title>
<g id="a_Node000000"><a xlink:href="struct_sandals_1_1_tableau.html" target="_top" xlink:title=" ">
<polygon fill="white" stroke="#666666" points="140.5,-97.88 0,-97.88 0,-78.62 140.5,-78.62 140.5,-97.88"/>
<text text-anchor="middle" x="70.25" y="-84.38" font-family="Helvetica,sans-Serif" font-size="10.00">Sandals::Tableau&lt; Real, 4 &gt;</text>
</a>
</g>
</g>
<!-- Node1 -->
<g id="Node000001" class="node">
<title>Node1</title>
<g id="a_Node000001"><a xlink:href="class_sandals_1_1_r_k4_tableau.html" target="_top" xlink:title="Butcher tableau for the Runge&#45;Kutta order 4 method.">
<polygon fill="white" stroke="#666666" points="299.75,-177.5 189.25,-177.5 189.25,-147 299.75,-147 299.75,-177.5"/>
<text text-anchor="start" x="197.25" y="-164" font-family="Helvetica,sans-Serif" font-size="10.00">Sandals::RK4Tableau</text>
<text text-anchor="middle" x="244.5" y="-152.75" font-family="Helvetica,sans-Serif" font-size="10.00">&lt; Real &gt;</text>
</a>
</g>
</g>
<!-- Node0&#45;&gt;Node1 -->
<g id="edge55_Node000000_Node000001" class="edge">
<title>Node0&#45;&gt;Node1</title>
<g id="a_edge55_Node000000_Node000001"><a xlink:title=" ">
<path fill="none" stroke="#63b8ff" d="M101.78,-103.24C122.63,-113.28 151.01,-126.58 176.5,-137.25 184.06,-140.41 192.17,-143.61 200.05,-146.61"/>
<polygon fill="#63b8ff" stroke="#63b8ff" points="103.5,-100.18 92.97,-98.97 100.44,-106.48 103.5,-100.18"/>
</a>
</g>
</g>
<!-- Node2 -->
<g id="Node000002" class="node">
<title>Node2</title>
<g id="a_Node000002"><a xlink:href="class_sandals_1_1_ralston4_tableau.html" target="_top" xlink:title="Butcher tableau for the Ralston&#39;s order 4 method.">
<polygon fill="white" stroke="#666666" points="309.5,-128.5 179.5,-128.5 179.5,-98 309.5,-98 309.5,-128.5"/>
<text text-anchor="start" x="187.5" y="-115" font-family="Helvetica,sans-Serif" font-size="10.00">Sandals::Ralston4Tableau</text>
<text text-anchor="middle" x="244.5" y="-103.75" font-family="Helvetica,sans-Serif" font-size="10.00">&lt; Real &gt;</text>
</a>
</g>
</g>
<!-- Node0&#45;&gt;Node2 -->
<g id="edge56_Node000000_Node000002" class="edge">
<title>Node0&#45;&gt;Node2</title>
<g id="a_edge56_Node000000_Node000002"><a xlink:title=" ">
<path fill="none" stroke="#63b8ff" d="M151.92,-99.96C161.09,-101.29 170.33,-102.63 179.25,-103.92"/>
<polygon fill="#63b8ff" stroke="#63b8ff" points="152.71,-96.54 142.31,-98.56 151.71,-103.46 152.71,-96.54"/>
</a>
</g>
</g>
<!-- Node3 -->
<g id="Node000003" class="node">
<title>Node3</title>
<g id="a_Node000003"><a xlink:href="class_sandals_1_1_s_s_p_r_k42_tableau.html" target="_top" xlink:title="Butcher tableau for the 4&#45;stage strong&#45;stability preserving Runge&#45;Kutta order 2 method.">
<polygon fill="white" stroke="#666666" points="312.5,-79.5 176.5,-79.5 176.5,-49 312.5,-49 312.5,-79.5"/>
<text text-anchor="start" x="184.5" y="-66" font-family="Helvetica,sans-Serif" font-size="10.00">Sandals::SSPRK42Tableau</text>
<text text-anchor="middle" x="244.5" y="-54.75" font-family="Helvetica,sans-Serif" font-size="10.00">&lt; Real &gt;</text>
</a>
</g>
</g>
<!-- Node0&#45;&gt;Node3 -->
<g id="edge57_Node000000_Node000003" class="edge">
<title>Node0&#45;&gt;Node3</title>
<g id="a_edge57_Node000000_Node000003"><a xlink:title=" ">
<path fill="none" stroke="#63b8ff" d="M152.13,-76.98C160.18,-75.86 168.3,-74.73 176.19,-73.63"/>
<polygon fill="#63b8ff" stroke="#63b8ff" points="151.73,-73.5 142.31,-78.35 152.7,-80.44 151.73,-73.5"/>
</a>
</g>
</g>
<!-- Node4 -->
<g id="Node000004" class="node">
<title>Node4</title>
<g id="a_Node000004"><a xlink:href="class_sandals_1_1_s_s_p_r_k43_tableau.html" target="_top" xlink:title="Butcher tableau for the 4&#45;stage strong&#45;stability preserving Runge&#45;Kutta order 3 method.">
<polygon fill="white" stroke="#666666" points="312.5,-30.5 176.5,-30.5 176.5,0 312.5,0 312.5,-30.5"/>
<text text-anchor="start" x="184.5" y="-17" font-family="Helvetica,sans-Serif" font-size="10.00">Sandals::SSPRK43Tableau</text>
<text text-anchor="middle" x="244.5" y="-5.75" font-family="Helvetica,sans-Serif" font-size="10.00">&lt; Real &gt;</text>
</a>
</g>
</g>
<!-- Node0&#45;&gt;Node4 -->
<g id="edge58_Node000000_Node000004" class="edge">
<title>Node0&#45;&gt;Node4</title>
<g id="a_edge58_Node000000_Node000004"><a xlink:title=" ">
<path fill="none" stroke="#63b8ff" d="M102.2,-73.44C123.03,-63.64 151.22,-50.72 176.5,-40.25 184.07,-37.12 192.19,-33.94 200.07,-30.94"/>
<polygon fill="#63b8ff" stroke="#63b8ff" points="100.94,-70.16 93.39,-77.6 103.93,-76.49 100.94,-70.16"/>
</a>
</g>
</g>
</g>
</svg>
