<?xml version="1.0" encoding="UTF-8" standalone="no"?>
<!DOCTYPE svg PUBLIC "-//W3C//DTD SVG 1.1//EN"
 "http://www.w3.org/Graphics/SVG/1.1/DTD/svg11.dtd">
<!-- Generated by graphviz version 12.2.0 (20241103.1931)
 -->
<!-- Title: Graphical Class Hierarchy Pages: 1 -->
<svg width="394pt" height="76pt"
 viewBox="0.00 0.00 393.50 75.88" xmlns="http://www.w3.org/2000/svg" xmlns:xlink="http://www.w3.org/1999/xlink">
<g id="graph0" class="graph" transform="scale(1 1) rotate(0) translate(4 71.88)">
<title>Graphical Class Hierarchy</title>
<!-- Node0 -->
<g id="Node000000" class="node">
<title>Node0</title>
<g id="a_Node000000"><a xlink:href="class_sandals_1_1_implicit.html" target="_top" xlink:title=" ">
<polygon fill="white" stroke="#666666" points="94.75,-51.5 0,-51.5 0,-21 94.75,-21 94.75,-51.5"/>
<text text-anchor="start" x="8" y="-38" font-family="Helvetica,sans-Serif" font-size="10.00">Sandals::Implicit&lt;</text>
<text text-anchor="middle" x="47.38" y="-26.75" font-family="Helvetica,sans-Serif" font-size="10.00"> N, M &gt;</text>
</a>
</g>
</g>
<!-- Node1 -->
<g id="Node000001" class="node">
<title>Node1</title>
<g id="a_Node000001"><a xlink:href="class_sandals_1_1_explicit.html" target="_top" xlink:title=" ">
<polygon fill="white" stroke="#666666" points="226.25,-51.5 130.75,-51.5 130.75,-21 226.25,-21 226.25,-51.5"/>
<text text-anchor="start" x="138.75" y="-38" font-family="Helvetica,sans-Serif" font-size="10.00">Sandals::Explicit&lt;</text>
<text text-anchor="middle" x="178.5" y="-26.75" font-family="Helvetica,sans-Serif" font-size="10.00"> N, 0 &gt;</text>
</a>
</g>
</g>
<!-- Node0&#45;&gt;Node1 -->
<g id="edge13_Node000000_Node000001" class="edge">
<title>Node0&#45;&gt;Node1</title>
<g id="a_edge13_Node000000_Node000001"><a xlink:title=" ">
<path fill="none" stroke="#63b8ff" d="M106.3,-36.25C114.41,-36.25 122.65,-36.25 130.52,-36.25"/>
<polygon fill="#63b8ff" stroke="#63b8ff" points="106.51,-32.75 96.51,-36.25 106.51,-39.75 106.51,-32.75"/>
</a>
</g>
</g>
<!-- Node2 -->
<g id="Node000002" class="node">
<title>Node2</title>
<g id="a_Node000002"><a xlink:href="class_sandals_1_1_linear.html" target="_top" xlink:title="Class container for the system of linear ODEs/DAEs.">
<polygon fill="white" stroke="#666666" points="385.5,-67.88 262.25,-67.88 262.25,-48.62 385.5,-48.62 385.5,-67.88"/>
<text text-anchor="middle" x="323.88" y="-54.38" font-family="Helvetica,sans-Serif" font-size="10.00">Sandals::Linear&lt; N, M &gt;</text>
</a>
</g>
</g>
<!-- Node1&#45;&gt;Node2 -->
<g id="edge14_Node000001_Node000002" class="edge">
<title>Node1&#45;&gt;Node2</title>
<g id="a_edge14_Node000001_Node000002"><a xlink:title=" ">
<path fill="none" stroke="#63b8ff" d="M237.6,-45.17C245.63,-46.4 253.9,-47.67 261.98,-48.91"/>
<polygon fill="#63b8ff" stroke="#63b8ff" points="238.36,-41.74 227.94,-43.68 237.3,-48.66 238.36,-41.74"/>
</a>
</g>
</g>
<!-- Node3 -->
<g id="Node000003" class="node">
<title>Node3</title>
<g id="a_Node000003"><a xlink:href="class_sandals_1_1_semi_explicit.html" target="_top" xlink:title="Class container for the system of explicit ODEs/DAEs.">
<polygon fill="white" stroke="#666666" points="379.88,-30.5 267.88,-30.5 267.88,0 379.88,0 379.88,-30.5"/>
<text text-anchor="start" x="275.88" y="-17" font-family="Helvetica,sans-Serif" font-size="10.00">Sandals::SemiExplicit</text>
<text text-anchor="middle" x="323.88" y="-5.75" font-family="Helvetica,sans-Serif" font-size="10.00">&lt; N, H &gt;</text>
</a>
</g>
</g>
<!-- Node1&#45;&gt;Node3 -->
<g id="edge15_Node000001_Node000003" class="edge">
<title>Node1&#45;&gt;Node3</title>
<g id="a_edge15_Node000001_Node000003"><a xlink:title=" ">
<path fill="none" stroke="#63b8ff" d="M237.79,-27.71C247.64,-26.27 257.83,-24.78 267.59,-23.35"/>
<polygon fill="#63b8ff" stroke="#63b8ff" points="237.33,-24.24 227.94,-29.15 238.35,-31.17 237.33,-24.24"/>
</a>
</g>
</g>
</g>
</svg>
