<?xml version="1.0" encoding="UTF-8" standalone="no"?>
<!DOCTYPE svg PUBLIC "-//W3C//DTD SVG 1.1//EN"
 "http://www.w3.org/Graphics/SVG/1.1/DTD/svg11.dtd">
<!-- Generated by graphviz version 12.2.0 (20241103.1931)
 -->
<!-- Title: Graphical Class Hierarchy Pages: 1 -->
<svg width="315pt" height="64pt"
 viewBox="0.00 0.00 314.50 64.25" xmlns="http://www.w3.org/2000/svg" xmlns:xlink="http://www.w3.org/1999/xlink">
<g id="graph0" class="graph" transform="scale(1 1) rotate(0) translate(4 60.25)">
<title>Graphical Class Hierarchy</title>
<!-- Node0 -->
<g id="Node000000" class="node">
<title>Node0</title>
<g id="a_Node000000"><a xlink:href="class_sandals_1_1_nonlinear_solver.html" target="_top" xlink:title="Class container for the nonlinear solver.">
<polygon fill="white" stroke="#666666" points="151.75,-37.25 0,-37.25 0,-18 151.75,-18 151.75,-37.25"/>
<text text-anchor="middle" x="75.88" y="-23.75" font-family="Helvetica,sans-Serif" font-size="10.00">Sandals::NonlinearSolver&lt; N &gt;</text>
</a>
</g>
</g>
<!-- Node1 -->
<g id="Node000001" class="node">
<title>Node1</title>
<g id="a_Node000001"><a xlink:href="class_sandals_1_1_broyden.html" target="_top" xlink:title="Class container for the (damped) Broyden&#39;s method.">
<polygon fill="white" stroke="#666666" points="306.5,-56.25 187.75,-56.25 187.75,-37 306.5,-37 306.5,-56.25"/>
<text text-anchor="middle" x="247.12" y="-42.75" font-family="Helvetica,sans-Serif" font-size="10.00">Sandals::Broyden&lt; N &gt;</text>
</a>
</g>
</g>
<!-- Node0&#45;&gt;Node1 -->
<g id="edge16_Node000000_Node000001" class="edge">
<title>Node0&#45;&gt;Node1</title>
<g id="a_edge16_Node000000_Node000001"><a xlink:title=" ">
<path fill="none" stroke="#63b8ff" d="M163.51,-37.35C171.59,-38.26 179.65,-39.16 187.39,-40.03"/>
<polygon fill="#63b8ff" stroke="#63b8ff" points="163.93,-33.88 153.6,-36.24 163.15,-40.83 163.93,-33.88"/>
</a>
</g>
</g>
<!-- Node2 -->
<g id="Node000002" class="node">
<title>Node2</title>
<g id="a_Node000002"><a xlink:href="class_sandals_1_1_newton.html" target="_top" xlink:title="Class container for the (damped) Newton&#39;s method with affine invariant step.">
<polygon fill="white" stroke="#666666" points="305.38,-19.25 188.88,-19.25 188.88,0 305.38,0 305.38,-19.25"/>
<text text-anchor="middle" x="247.12" y="-5.75" font-family="Helvetica,sans-Serif" font-size="10.00">Sandals::Newton&lt; N &gt;</text>
</a>
</g>
</g>
<!-- Node0&#45;&gt;Node2 -->
<g id="edge17_Node000000_Node000002" class="edge">
<title>Node0&#45;&gt;Node2</title>
<g id="a_edge17_Node000000_Node000002"><a xlink:title=" ">
<path fill="none" stroke="#63b8ff" d="M163.28,-18.44C171.79,-17.53 180.29,-16.63 188.41,-15.76"/>
<polygon fill="#63b8ff" stroke="#63b8ff" points="163.17,-14.93 153.6,-19.47 163.92,-21.89 163.17,-14.93"/>
</a>
</g>
</g>
</g>
</svg>
