<?xml version="1.0" encoding="UTF-8" standalone="no"?>
<!DOCTYPE svg PUBLIC "-//W3C//DTD SVG 1.1//EN"
 "http://www.w3.org/Graphics/SVG/1.1/DTD/svg11.dtd">
<!-- Generated by graphviz version 12.2.1 (20241206.2353)
 -->
<!-- Title: Graphical Class Hierarchy Pages: 1 -->
<svg width="264pt" height="88pt"
 viewBox="0.00 0.00 263.50 87.50" xmlns="http://www.w3.org/2000/svg" xmlns:xlink="http://www.w3.org/1999/xlink">
<g id="graph0" class="graph" transform="scale(1 1) rotate(0) translate(4 83.5)">
<title>Graphical Class Hierarchy</title>
<!-- Node0 -->
<g id="Node000000" class="node">
<title>Node0</title>
<g id="a_Node000000"><a xlink:href="class_sandals_1_1_implicit.html" target="_top" xlink:title=" ">
<polygon fill="white" stroke="#666666" points="94.75,-54.5 0,-54.5 0,-24 94.75,-24 94.75,-54.5"/>
<text text-anchor="start" x="8" y="-41" font-family="Helvetica,sans-Serif" font-size="10.00">Sandals::Implicit&lt;</text>
<text text-anchor="middle" x="47.38" y="-29.75" font-family="Helvetica,sans-Serif" font-size="10.00"> Real, N, 0 &gt;</text>
</a>
</g>
</g>
<!-- Node1 -->
<g id="Node000001" class="node">
<title>Node1</title>
<g id="a_Node000001"><a xlink:href="class_sandals_1_1_explicit.html" target="_top" xlink:title="Class container for the system of explicit ODEs.">
<polygon fill="white" stroke="#666666" points="240.88,-79.5 145.38,-79.5 145.38,-49 240.88,-49 240.88,-79.5"/>
<text text-anchor="start" x="153.38" y="-66" font-family="Helvetica,sans-Serif" font-size="10.00">Sandals::Explicit&lt;</text>
<text text-anchor="middle" x="193.12" y="-54.75" font-family="Helvetica,sans-Serif" font-size="10.00"> Real, N, M &gt;</text>
</a>
</g>
</g>
<!-- Node0&#45;&gt;Node1 -->
<g id="edge1_Node000000_Node000001" class="edge">
<title>Node0&#45;&gt;Node1</title>
<g id="a_edge1_Node000000_Node000001"><a xlink:title=" ">
<path fill="none" stroke="#63b8ff" d="M106.22,-49.31C119.17,-51.56 132.75,-53.92 145.2,-56.09"/>
<polygon fill="#63b8ff" stroke="#63b8ff" points="106.99,-45.89 96.54,-47.63 105.79,-52.79 106.99,-45.89"/>
</a>
</g>
</g>
<!-- Node2 -->
<g id="Node000002" class="node">
<title>Node2</title>
<g id="a_Node000002"><a xlink:href="class_sandals_1_1_implicit_wrapper.html" target="_top" xlink:title="Class container for the system of implicit ODEs/DAEs wrapper.">
<polygon fill="white" stroke="#666666" points="255.5,-30.5 130.75,-30.5 130.75,0 255.5,0 255.5,-30.5"/>
<text text-anchor="start" x="138.75" y="-17" font-family="Helvetica,sans-Serif" font-size="10.00">Sandals::ImplicitWrapper</text>
<text text-anchor="middle" x="193.12" y="-5.75" font-family="Helvetica,sans-Serif" font-size="10.00">&lt; Real, N, M &gt;</text>
</a>
</g>
</g>
<!-- Node0&#45;&gt;Node2 -->
<g id="edge2_Node000000_Node000002" class="edge">
<title>Node0&#45;&gt;Node2</title>
<g id="a_edge2_Node000000_Node000002"><a xlink:title=" ">
<path fill="none" stroke="#63b8ff" d="M106.36,-29.57C114.23,-28.26 122.32,-26.9 130.25,-25.58"/>
<polygon fill="#63b8ff" stroke="#63b8ff" points="105.83,-26.11 96.54,-31.21 106.98,-33.01 105.83,-26.11"/>
</a>
</g>
</g>
</g>
</svg>
