<?xml version="1.0" encoding="UTF-8" standalone="no"?>
<!DOCTYPE svg PUBLIC "-//W3C//DTD SVG 1.1//EN"
 "http://www.w3.org/Graphics/SVG/1.1/DTD/svg11.dtd">
<!-- Generated by graphviz version 12.2.0 (20241103.1931)
 -->
<!-- Title: Graphical Class Hierarchy Pages: 1 -->
<svg width="296pt" height="64pt"
 viewBox="0.00 0.00 295.75 64.25" xmlns="http://www.w3.org/2000/svg" xmlns:xlink="http://www.w3.org/1999/xlink">
<g id="graph0" class="graph" transform="scale(1 1) rotate(0) translate(4 60.25)">
<title>Graphical Class Hierarchy</title>
<!-- Node0 -->
<g id="Node000000" class="node">
<title>Node0</title>
<g id="a_Node000000"><a xlink:href="class_sandals_1_1_implicit.html" target="_top" xlink:title="Class container for the system of implicit ODEs/DAEs.">
<polygon fill="white" stroke="#666666" points="114.25,-37.25 0,-37.25 0,-18 114.25,-18 114.25,-37.25"/>
<text text-anchor="middle" x="57.12" y="-23.75" font-family="Helvetica,sans-Serif" font-size="10.00">Sandals::Implicit&lt; N &gt;</text>
</a>
</g>
</g>
<!-- Node1 -->
<g id="Node000001" class="node">
<title>Node1</title>
<g id="a_Node000001"><a xlink:href="class_sandals_1_1_explicit.html" target="_top" xlink:title="Class container for the system of explicit ODEs.">
<polygon fill="white" stroke="#666666" points="276.5,-56.25 161.5,-56.25 161.5,-37 276.5,-37 276.5,-56.25"/>
<text text-anchor="middle" x="219" y="-42.75" font-family="Helvetica,sans-Serif" font-size="10.00">Sandals::Explicit&lt; N &gt;</text>
</a>
</g>
</g>
<!-- Node0&#45;&gt;Node1 -->
<g id="edge1_Node000000_Node000001" class="edge">
<title>Node0&#45;&gt;Node1</title>
<g id="a_edge1_Node000000_Node000001"><a xlink:title=" ">
<path fill="none" stroke="#63b8ff" d="M125.65,-35.65C137.44,-37.05 149.6,-38.5 161.06,-39.86"/>
<polygon fill="#63b8ff" stroke="#63b8ff" points="126.34,-32.21 115.99,-34.5 125.51,-39.16 126.34,-32.21"/>
</a>
</g>
</g>
<!-- Node2 -->
<g id="Node000002" class="node">
<title>Node2</title>
<g id="a_Node000002"><a xlink:href="class_sandals_1_1_semi_explicit.html" target="_top" xlink:title="Class container for the system of explicit ODEs.">
<polygon fill="white" stroke="#666666" points="287.75,-19.25 150.25,-19.25 150.25,0 287.75,0 287.75,-19.25"/>
<text text-anchor="middle" x="219" y="-5.75" font-family="Helvetica,sans-Serif" font-size="10.00">Sandals::SemiExplicit&lt; N &gt;</text>
</a>
</g>
</g>
<!-- Node0&#45;&gt;Node2 -->
<g id="edge2_Node000000_Node000002" class="edge">
<title>Node0&#45;&gt;Node2</title>
<g id="a_edge2_Node000000_Node000002"><a xlink:title=" ">
<path fill="none" stroke="#63b8ff" d="M125.92,-19.99C133.83,-19.1 141.89,-18.19 149.8,-17.3"/>
<polygon fill="#63b8ff" stroke="#63b8ff" points="125.54,-16.51 115.99,-21.11 126.32,-23.47 125.54,-16.51"/>
</a>
</g>
</g>
</g>
</svg>
