<?xml version="1.0" encoding="UTF-8" standalone="no"?>
<!DOCTYPE svg PUBLIC "-//W3C//DTD SVG 1.1//EN"
 "http://www.w3.org/Graphics/SVG/1.1/DTD/svg11.dtd">
<!-- Generated by graphviz version 12.2.1 (20241206.2353)
 -->
<!-- Title: Graphical Class Hierarchy Pages: 1 -->
<svg width="580pt" height="235pt"
 viewBox="0.00 0.00 579.75 234.50" xmlns="http://www.w3.org/2000/svg" xmlns:xlink="http://www.w3.org/1999/xlink">
<g id="graph0" class="graph" transform="scale(1 1) rotate(0) translate(4 230.5)">
<title>Graphical Class Hierarchy</title>
<!-- Node0 -->
<g id="Node000000" class="node">
<title>Node0</title>
<g id="a_Node000000"><a xlink:href="class_sandals_1_1_implicit.html" target="_top" xlink:title=" ">
<polygon fill="white" stroke="#666666" points="94.75,-103.5 0,-103.5 0,-73 94.75,-73 94.75,-103.5"/>
<text text-anchor="start" x="8" y="-90" font-family="Helvetica,sans-Serif" font-size="10.00">Sandals::Implicit&lt;</text>
<text text-anchor="middle" x="47.38" y="-78.75" font-family="Helvetica,sans-Serif" font-size="10.00"> Real, N, M &gt;</text>
</a>
</g>
</g>
<!-- Node1 -->
<g id="Node000001" class="node">
<title>Node1</title>
<g id="a_Node000001"><a xlink:href="class_sandals_1_1_explicit.html" target="_top" xlink:title=" ">
<polygon fill="white" stroke="#666666" points="226.25,-152.5 130.75,-152.5 130.75,-122 226.25,-122 226.25,-152.5"/>
<text text-anchor="start" x="138.75" y="-139" font-family="Helvetica,sans-Serif" font-size="10.00">Sandals::Explicit&lt;</text>
<text text-anchor="middle" x="178.5" y="-127.75" font-family="Helvetica,sans-Serif" font-size="10.00"> Real, N, 0 &gt;</text>
</a>
</g>
</g>
<!-- Node0&#45;&gt;Node1 -->
<g id="edge3_Node000000_Node000001" class="edge">
<title>Node0&#45;&gt;Node1</title>
<g id="a_edge3_Node000000_Node000001"><a xlink:title=" ">
<path fill="none" stroke="#63b8ff" d="M100.34,-107.97C112.28,-112.5 124.82,-117.26 136.24,-121.59"/>
<polygon fill="#63b8ff" stroke="#63b8ff" points="101.59,-104.7 91,-104.43 99.11,-111.25 101.59,-104.7"/>
</a>
</g>
</g>
<!-- Node5 -->
<g id="Node000005" class="node">
<title>Node5</title>
<g id="a_Node000005"><a xlink:href="class_sandals_1_1_explicit.html" target="_top" xlink:title=" ">
<polygon fill="white" stroke="#666666" points="226.25,-79.5 130.75,-79.5 130.75,-49 226.25,-49 226.25,-79.5"/>
<text text-anchor="start" x="138.75" y="-66" font-family="Helvetica,sans-Serif" font-size="10.00">Sandals::Explicit&lt;</text>
<text text-anchor="middle" x="178.5" y="-54.75" font-family="Helvetica,sans-Serif" font-size="10.00"> Real, N, M &gt;</text>
</a>
</g>
</g>
<!-- Node0&#45;&gt;Node5 -->
<g id="edge7_Node000000_Node000005" class="edge">
<title>Node0&#45;&gt;Node5</title>
<g id="a_edge7_Node000000_Node000005"><a xlink:title=" ">
<path fill="none" stroke="#63b8ff" d="M106.3,-77.48C114.41,-75.98 122.65,-74.44 130.52,-72.98"/>
<polygon fill="#63b8ff" stroke="#63b8ff" points="105.67,-74.04 96.48,-79.31 106.95,-80.92 105.67,-74.04"/>
</a>
</g>
</g>
<!-- Node2 -->
<g id="Node000002" class="node">
<title>Node2</title>
<g id="a_Node000002"><a xlink:href="class_sandals_1_1_explicit_wrapper.html" target="_top" xlink:title="Class container for the system of explicit ODEs/DAEs wrapper.">
<polygon fill="white" stroke="#666666" points="387.75,-226.5 262.25,-226.5 262.25,-196 387.75,-196 387.75,-226.5"/>
<text text-anchor="start" x="270.25" y="-213" font-family="Helvetica,sans-Serif" font-size="10.00">Sandals::ExplicitWrapper</text>
<text text-anchor="middle" x="325" y="-201.75" font-family="Helvetica,sans-Serif" font-size="10.00">&lt; Real, N, M &gt;</text>
</a>
</g>
</g>
<!-- Node1&#45;&gt;Node2 -->
<g id="edge4_Node000001_Node000002" class="edge">
<title>Node1&#45;&gt;Node2</title>
<g id="a_edge4_Node000001_Node000002"><a xlink:title=" ">
<path fill="none" stroke="#63b8ff" d="M213.28,-158.81C228.04,-167.82 245.72,-178.07 262.25,-186.25 268.78,-189.48 275.84,-192.64 282.76,-195.56"/>
<polygon fill="#63b8ff" stroke="#63b8ff" points="215.22,-155.89 204.87,-153.61 211.54,-161.85 215.22,-155.89"/>
</a>
</g>
</g>
<!-- Node3 -->
<g id="Node000003" class="node">
<title>Node3</title>
<g id="a_Node000003"><a xlink:href="class_sandals_1_1_linear.html" target="_top" xlink:title="Class container for the system of linear ODEs/DAEs.">
<polygon fill="white" stroke="#666666" points="382.88,-177.5 267.12,-177.5 267.12,-147 382.88,-147 382.88,-177.5"/>
<text text-anchor="start" x="275.12" y="-164" font-family="Helvetica,sans-Serif" font-size="10.00">Sandals::Linear&lt; Real,</text>
<text text-anchor="middle" x="325" y="-152.75" font-family="Helvetica,sans-Serif" font-size="10.00"> N, M &gt;</text>
</a>
</g>
</g>
<!-- Node1&#45;&gt;Node3 -->
<g id="edge5_Node000001_Node000003" class="edge">
<title>Node1&#45;&gt;Node3</title>
<g id="a_edge5_Node000001_Node000003"><a xlink:title=" ">
<path fill="none" stroke="#63b8ff" d="M237.51,-147.29C247.13,-148.95 257.11,-150.68 266.72,-152.34"/>
<polygon fill="#63b8ff" stroke="#63b8ff" points="238.36,-143.88 227.91,-145.62 237.16,-150.78 238.36,-143.88"/>
</a>
</g>
</g>
<!-- Node4 -->
<g id="Node000004" class="node">
<title>Node4</title>
<g id="a_Node000004"><a xlink:href="class_sandals_1_1_semi_explicit.html" target="_top" xlink:title="Class container for the system of semi&#45;explicit ODEs/DAEs.">
<polygon fill="white" stroke="#666666" points="381,-128.5 269,-128.5 269,-98 381,-98 381,-128.5"/>
<text text-anchor="start" x="277" y="-115" font-family="Helvetica,sans-Serif" font-size="10.00">Sandals::SemiExplicit</text>
<text text-anchor="middle" x="325" y="-103.75" font-family="Helvetica,sans-Serif" font-size="10.00">&lt; Real, N, M &gt;</text>
</a>
</g>
</g>
<!-- Node1&#45;&gt;Node4 -->
<g id="edge6_Node000001_Node000004" class="edge">
<title>Node1&#45;&gt;Node4</title>
<g id="a_edge6_Node000001_Node000004"><a xlink:title=" ">
<path fill="none" stroke="#63b8ff" d="M237.69,-127.59C247.86,-125.9 258.42,-124.14 268.51,-122.47"/>
<polygon fill="#63b8ff" stroke="#63b8ff" points="237.2,-124.12 227.91,-129.21 238.35,-131.02 237.2,-124.12"/>
</a>
</g>
</g>
<!-- Node6 -->
<g id="Node000006" class="node">
<title>Node6</title>
<g id="a_Node000006"><a xlink:href="class_sandals_1_1_linear.html" target="_top" xlink:title=" ">
<polygon fill="white" stroke="#666666" points="382.88,-79.5 267.12,-79.5 267.12,-49 382.88,-49 382.88,-79.5"/>
<text text-anchor="start" x="275.12" y="-66" font-family="Helvetica,sans-Serif" font-size="10.00">Sandals::Linear&lt; Real,</text>
<text text-anchor="middle" x="325" y="-54.75" font-family="Helvetica,sans-Serif" font-size="10.00"> N, 0 &gt;</text>
</a>
</g>
</g>
<!-- Node5&#45;&gt;Node6 -->
<g id="edge8_Node000005_Node000006" class="edge">
<title>Node5&#45;&gt;Node6</title>
<g id="a_edge8_Node000005_Node000006"><a xlink:title=" ">
<path fill="none" stroke="#63b8ff" d="M237.82,-64.25C247.35,-64.25 257.22,-64.25 266.72,-64.25"/>
<polygon fill="#63b8ff" stroke="#63b8ff" points="237.93,-60.75 227.93,-64.25 237.93,-67.75 237.93,-60.75"/>
</a>
</g>
</g>
<!-- Node8 -->
<g id="Node000008" class="node">
<title>Node8</title>
<g id="a_Node000008"><a xlink:href="class_sandals_1_1_semi_explicit.html" target="_top" xlink:title=" ">
<polygon fill="white" stroke="#666666" points="381,-30.5 269,-30.5 269,0 381,0 381,-30.5"/>
<text text-anchor="start" x="277" y="-17" font-family="Helvetica,sans-Serif" font-size="10.00">Sandals::SemiExplicit</text>
<text text-anchor="middle" x="325" y="-5.75" font-family="Helvetica,sans-Serif" font-size="10.00">&lt; Real, N, 0 &gt;</text>
</a>
</g>
</g>
<!-- Node5&#45;&gt;Node8 -->
<g id="edge10_Node000005_Node000008" class="edge">
<title>Node5&#45;&gt;Node8</title>
<g id="a_edge10_Node000005_Node000008"><a xlink:title=" ">
<path fill="none" stroke="#63b8ff" d="M236.42,-44.95C250.15,-40.29 264.66,-35.37 277.82,-30.91"/>
<polygon fill="#63b8ff" stroke="#63b8ff" points="235.4,-41.6 227.05,-48.13 237.65,-48.23 235.4,-41.6"/>
</a>
</g>
</g>
<!-- Node7 -->
<g id="Node000007" class="node">
<title>Node7</title>
<g id="a_Node000007"><a xlink:href="class_sandals_1_1_linear_wrapper.html" target="_top" xlink:title="Class container for the system of linear ODEs/DAEs wrapper.">
<polygon fill="white" stroke="#666666" points="557.5,-79.5 438,-79.5 438,-49 557.5,-49 557.5,-79.5"/>
<text text-anchor="start" x="446" y="-66" font-family="Helvetica,sans-Serif" font-size="10.00">Sandals::LinearWrapper</text>
<text text-anchor="middle" x="497.75" y="-54.75" font-family="Helvetica,sans-Serif" font-size="10.00">&lt; Real, N, M &gt;</text>
</a>
</g>
</g>
<!-- Node6&#45;&gt;Node7 -->
<g id="edge9_Node000006_Node000007" class="edge">
<title>Node6&#45;&gt;Node7</title>
<g id="a_edge9_Node000006_Node000007"><a xlink:title=" ">
<path fill="none" stroke="#63b8ff" d="M394.57,-64.25C408.8,-64.25 423.67,-64.25 437.53,-64.25"/>
<polygon fill="#63b8ff" stroke="#63b8ff" points="394.85,-60.75 384.85,-64.25 394.85,-67.75 394.85,-60.75"/>
</a>
</g>
</g>
<!-- Node9 -->
<g id="Node000009" class="node">
<title>Node9</title>
<g id="a_Node000009"><a xlink:href="class_sandals_1_1_semi_explicit_wrapper.html" target="_top" xlink:title="Class container for the system of semi&#45;explicit ODEs/DAEs wrapper.">
<polygon fill="white" stroke="#666666" points="571.75,-30.5 423.75,-30.5 423.75,0 571.75,0 571.75,-30.5"/>
<text text-anchor="start" x="431.75" y="-17" font-family="Helvetica,sans-Serif" font-size="10.00">Sandals::SemiExplicitWrapper</text>
<text text-anchor="middle" x="497.75" y="-5.75" font-family="Helvetica,sans-Serif" font-size="10.00">&lt; Real, N, M &gt;</text>
</a>
</g>
</g>
<!-- Node8&#45;&gt;Node9 -->
<g id="edge11_Node000008_Node000009" class="edge">
<title>Node8&#45;&gt;Node9</title>
<g id="a_edge11_Node000008_Node000009"><a xlink:title=" ">
<path fill="none" stroke="#63b8ff" d="M392.92,-15.25C402.88,-15.25 413.18,-15.25 423.26,-15.25"/>
<polygon fill="#63b8ff" stroke="#63b8ff" points="392.95,-11.75 382.95,-15.25 392.95,-18.75 392.95,-11.75"/>
</a>
</g>
</g>
</g>
</svg>
