<?xml version="1.0" encoding="UTF-8" standalone="no"?>
<!DOCTYPE svg PUBLIC "-//W3C//DTD SVG 1.1//EN"
 "http://www.w3.org/Graphics/SVG/1.1/DTD/svg11.dtd">
<!-- Generated by graphviz version 12.2.1 (20241206.2353)
 -->
<!-- Title: Graphical Class Hierarchy Pages: 1 -->
<svg width="288pt" height="284pt"
 viewBox="0.00 0.00 287.50 283.50" xmlns="http://www.w3.org/2000/svg" xmlns:xlink="http://www.w3.org/1999/xlink">
<g id="graph0" class="graph" transform="scale(1 1) rotate(0) translate(4 279.5)">
<title>Graphical Class Hierarchy</title>
<!-- Node0 -->
<g id="Node000000" class="node">
<title>Node0</title>
<g id="a_Node000000"><a xlink:href="class_sandals_1_1_runge_kutta.html" target="_top" xlink:title=" ">
<polygon fill="white" stroke="#666666" points="109,-152.5 0,-152.5 0,-122 109,-122 109,-152.5"/>
<text text-anchor="start" x="8" y="-139" font-family="Helvetica,sans-Serif" font-size="10.00">Sandals::RungeKutta</text>
<text text-anchor="middle" x="54.5" y="-127.75" font-family="Helvetica,sans-Serif" font-size="10.00">&lt; Real, 3, N, 0 &gt;</text>
</a>
</g>
</g>
<!-- Node1 -->
<g id="Node000001" class="node">
<title>Node1</title>
<g id="a_Node000001"><a xlink:href="class_sandals_1_1_gauss_legendre6.html" target="_top" xlink:title="Class container for the Gauss&#45;Legendre order 6 method.">
<polygon fill="white" stroke="#666666" points="277.62,-275.5 146.88,-275.5 146.88,-245 277.62,-245 277.62,-275.5"/>
<text text-anchor="start" x="154.88" y="-262" font-family="Helvetica,sans-Serif" font-size="10.00">Sandals::GaussLegendre6</text>
<text text-anchor="middle" x="212.25" y="-250.75" font-family="Helvetica,sans-Serif" font-size="10.00">&lt; Real, N, M &gt;</text>
</a>
</g>
</g>
<!-- Node0&#45;&gt;Node1 -->
<g id="edge24_Node000000_Node000001" class="edge">
<title>Node0&#45;&gt;Node1</title>
<g id="a_edge24_Node000000_Node000001"><a xlink:title=" ">
<path fill="none" stroke="#63b8ff" d="M72.76,-161.96C89.14,-183.84 115.59,-215.31 145,-235.25 150.19,-238.77 155.94,-241.88 161.82,-244.6"/>
<polygon fill="#63b8ff" stroke="#63b8ff" points="75.79,-160.18 67.06,-154.17 70.14,-164.31 75.79,-160.18"/>
</a>
</g>
</g>
<!-- Node2 -->
<g id="Node000002" class="node">
<title>Node2</title>
<g id="a_Node000002"><a xlink:href="class_sandals_1_1_heun3.html" target="_top" xlink:title="Class container for the Heun&#39;s order 3 method.">
<polygon fill="white" stroke="#666666" points="271.25,-226.5 153.25,-226.5 153.25,-196 271.25,-196 271.25,-226.5"/>
<text text-anchor="start" x="161.25" y="-213" font-family="Helvetica,sans-Serif" font-size="10.00">Sandals::Heun3&lt; Real,</text>
<text text-anchor="middle" x="212.25" y="-201.75" font-family="Helvetica,sans-Serif" font-size="10.00"> N, M &gt;</text>
</a>
</g>
</g>
<!-- Node0&#45;&gt;Node2 -->
<g id="edge25_Node000000_Node000002" class="edge">
<title>Node0&#45;&gt;Node2</title>
<g id="a_edge25_Node000000_Node000002"><a xlink:title=" ">
<path fill="none" stroke="#63b8ff" d="M91.22,-158.3C107.37,-167.43 126.87,-177.92 145,-186.25 152.04,-189.48 159.62,-192.64 167.06,-195.56"/>
<polygon fill="#63b8ff" stroke="#63b8ff" points="93.36,-155.5 82.94,-153.57 89.89,-161.58 93.36,-155.5"/>
</a>
</g>
</g>
<!-- Node3 -->
<g id="Node000003" class="node">
<title>Node3</title>
<g id="a_Node000003"><a xlink:href="class_sandals_1_1_radau_i_i_a5.html" target="_top" xlink:title="Class container for the Radau IIA order 5 method.">
<polygon fill="white" stroke="#666666" points="264.12,-177.5 160.38,-177.5 160.38,-147 264.12,-147 264.12,-177.5"/>
<text text-anchor="start" x="168.38" y="-164" font-family="Helvetica,sans-Serif" font-size="10.00">Sandals::RadauIIA5</text>
<text text-anchor="middle" x="212.25" y="-152.75" font-family="Helvetica,sans-Serif" font-size="10.00">&lt; Real, N, M &gt;</text>
</a>
</g>
</g>
<!-- Node0&#45;&gt;Node3 -->
<g id="edge26_Node000000_Node000003" class="edge">
<title>Node0&#45;&gt;Node3</title>
<g id="a_edge26_Node000000_Node000003"><a xlink:title=" ">
<path fill="none" stroke="#63b8ff" d="M120.09,-147.62C133.37,-149.75 147.18,-151.97 159.92,-154.01"/>
<polygon fill="#63b8ff" stroke="#63b8ff" points="121.02,-144.22 110.59,-146.09 119.91,-151.13 121.02,-144.22"/>
</a>
</g>
</g>
<!-- Node4 -->
<g id="Node000004" class="node">
<title>Node4</title>
<g id="a_Node000004"><a xlink:href="class_sandals_1_1_ralston3.html" target="_top" xlink:title="Class container for the Ralston&#39;s order 3 method.">
<polygon fill="white" stroke="#666666" points="263.38,-128.5 161.12,-128.5 161.12,-98 263.38,-98 263.38,-128.5"/>
<text text-anchor="start" x="169.12" y="-115" font-family="Helvetica,sans-Serif" font-size="10.00">Sandals::Ralston3&lt;</text>
<text text-anchor="middle" x="212.25" y="-103.75" font-family="Helvetica,sans-Serif" font-size="10.00"> Real, N, M &gt;</text>
</a>
</g>
</g>
<!-- Node0&#45;&gt;Node4 -->
<g id="edge27_Node000000_Node000004" class="edge">
<title>Node0&#45;&gt;Node4</title>
<g id="a_edge27_Node000000_Node000004"><a xlink:title=" ">
<path fill="none" stroke="#63b8ff" d="M120.27,-127.27C133.77,-125.19 147.81,-123.03 160.7,-121.04"/>
<polygon fill="#63b8ff" stroke="#63b8ff" points="119.95,-123.78 110.6,-128.76 121.01,-130.7 119.95,-123.78"/>
</a>
</g>
</g>
<!-- Node5 -->
<g id="Node000005" class="node">
<title>Node5</title>
<g id="a_Node000005"><a xlink:href="class_sandals_1_1_s_s_p_i_r_k33.html" target="_top" xlink:title="Class container for the 3&#45;stage diagonally&#45;implicit strong&#45;stability preserving Runge&#45;Kutta order 3 m...">
<polygon fill="white" stroke="#666666" points="267.88,-79.5 156.62,-79.5 156.62,-49 267.88,-49 267.88,-79.5"/>
<text text-anchor="start" x="164.62" y="-66" font-family="Helvetica,sans-Serif" font-size="10.00">Sandals::SSPIRK33&lt;</text>
<text text-anchor="middle" x="212.25" y="-54.75" font-family="Helvetica,sans-Serif" font-size="10.00"> Real, N, M &gt;</text>
</a>
</g>
</g>
<!-- Node0&#45;&gt;Node5 -->
<g id="edge28_Node000000_Node000005" class="edge">
<title>Node0&#45;&gt;Node5</title>
<g id="a_edge28_Node000000_Node000005"><a xlink:title=" ">
<path fill="none" stroke="#63b8ff" d="M92.43,-116.03C108.36,-107.25 127.36,-97.27 145,-89.25 152.05,-86.05 159.64,-82.9 167.08,-79.99"/>
<polygon fill="#63b8ff" stroke="#63b8ff" points="90.8,-112.93 83.77,-120.86 94.21,-119.05 90.8,-112.93"/>
</a>
</g>
</g>
<!-- Node6 -->
<g id="Node000006" class="node">
<title>Node6</title>
<g id="a_Node000006"><a xlink:href="class_sandals_1_1_s_s_p_r_k33.html" target="_top" xlink:title="Class container for the 3&#45;stage strong&#45;stability preserving Runge&#45;Kutta order 3 method.">
<polygon fill="white" stroke="#666666" points="279.5,-30.5 145,-30.5 145,0 279.5,0 279.5,-30.5"/>
<text text-anchor="start" x="153" y="-17" font-family="Helvetica,sans-Serif" font-size="10.00">Sandals::SSPRK33&lt; Real,</text>
<text text-anchor="middle" x="212.25" y="-5.75" font-family="Helvetica,sans-Serif" font-size="10.00"> N, M &gt;</text>
</a>
</g>
</g>
<!-- Node0&#45;&gt;Node6 -->
<g id="edge29_Node000000_Node000006" class="edge">
<title>Node0&#45;&gt;Node6</title>
<g id="a_edge29_Node000000_Node000006"><a xlink:title=" ">
<path fill="none" stroke="#63b8ff" d="M73.03,-112.5C89.47,-90.87 115.84,-59.91 145,-40.25 150.2,-36.75 155.95,-33.64 161.84,-30.93"/>
<polygon fill="#63b8ff" stroke="#63b8ff" points="70.25,-110.38 67.1,-120.5 75.87,-114.55 70.25,-110.38"/>
</a>
</g>
</g>
</g>
</svg>
