<?xml version="1.0" encoding="UTF-8" standalone="no"?>
<!DOCTYPE svg PUBLIC "-//W3C//DTD SVG 1.1//EN"
 "http://www.w3.org/Graphics/SVG/1.1/DTD/svg11.dtd">
<!-- Generated by graphviz version 12.2.0 (20241103.1931)
 -->
<!-- Title: Graphical Class Hierarchy Pages: 1 -->
<svg width="326pt" height="101pt"
 viewBox="0.00 0.00 325.75 101.25" xmlns="http://www.w3.org/2000/svg" xmlns:xlink="http://www.w3.org/1999/xlink">
<g id="graph0" class="graph" transform="scale(1 1) rotate(0) translate(4 97.25)">
<title>Graphical Class Hierarchy</title>
<!-- Node0 -->
<g id="Node000000" class="node">
<title>Node0</title>
<g id="a_Node000000"><a xlink:href="class_sandals_1_1_nonlinear_solver.html" target="_top" xlink:title="Nonlinear solver base class container. Nonlinear solver base class container for a problem of the for...">
<polygon fill="white" stroke="#666666" points="151.75,-56.25 0,-56.25 0,-37 151.75,-37 151.75,-56.25"/>
<text text-anchor="middle" x="75.88" y="-42.75" font-family="Helvetica,sans-Serif" font-size="10.00">Sandals::NonlinearSolver&lt; N &gt;</text>
</a>
</g>
</g>
<!-- Node1 -->
<g id="Node000001" class="node">
<title>Node1</title>
<g id="a_Node000001"><a xlink:href="class_sandals_1_1_newton.html" target="_top" xlink:title=" ">
<polygon fill="white" stroke="#666666" points="317.75,-93.25 187.75,-93.25 187.75,-74 317.75,-74 317.75,-93.25"/>
<text text-anchor="middle" x="252.75" y="-79.75" font-family="Helvetica,sans-Serif" font-size="10.00">Sandals::Newton&lt; N *S &gt;</text>
</a>
</g>
</g>
<!-- Node0&#45;&gt;Node1 -->
<g id="edge2_Node000000_Node000001" class="edge">
<title>Node0&#45;&gt;Node1</title>
<g id="a_edge2_Node000000_Node000001"><a xlink:title=" ">
<path fill="none" stroke="#63b8ff" d="M135.66,-59.06C157.9,-63.77 182.92,-69.06 204.02,-73.53"/>
<polygon fill="#63b8ff" stroke="#63b8ff" points="136.65,-55.69 126.14,-57.05 135.2,-62.54 136.65,-55.69"/>
</a>
</g>
</g>
<!-- Node2 -->
<g id="Node000002" class="node">
<title>Node2</title>
<g id="a_Node000002"><a xlink:href="class_sandals_1_1_broyden.html" target="_top" xlink:title="Broyden solver class container.">
<polygon fill="white" stroke="#666666" points="312.12,-56.25 193.38,-56.25 193.38,-37 312.12,-37 312.12,-56.25"/>
<text text-anchor="middle" x="252.75" y="-42.75" font-family="Helvetica,sans-Serif" font-size="10.00">Sandals::Broyden&lt; N &gt;</text>
</a>
</g>
</g>
<!-- Node0&#45;&gt;Node2 -->
<g id="edge3_Node000000_Node000002" class="edge">
<title>Node0&#45;&gt;Node2</title>
<g id="a_edge3_Node000000_Node000002"><a xlink:title=" ">
<path fill="none" stroke="#63b8ff" d="M163.36,-46.62C173.4,-46.62 183.46,-46.62 193,-46.62"/>
<polygon fill="#63b8ff" stroke="#63b8ff" points="163.57,-43.13 153.57,-46.63 163.57,-50.13 163.57,-43.13"/>
</a>
</g>
</g>
<!-- Node3 -->
<g id="Node000003" class="node">
<title>Node3</title>
<g id="a_Node000003"><a xlink:href="class_sandals_1_1_newton.html" target="_top" xlink:title="Class container for a dumped Newton&#39;s method with affine invariant step. Class container for a dumped...">
<polygon fill="white" stroke="#666666" points="311,-19.25 194.5,-19.25 194.5,0 311,0 311,-19.25"/>
<text text-anchor="middle" x="252.75" y="-5.75" font-family="Helvetica,sans-Serif" font-size="10.00">Sandals::Newton&lt; N &gt;</text>
</a>
</g>
</g>
<!-- Node0&#45;&gt;Node3 -->
<g id="edge4_Node000000_Node000003" class="edge">
<title>Node0&#45;&gt;Node3</title>
<g id="a_edge4_Node000000_Node000003"><a xlink:title=" ">
<path fill="none" stroke="#63b8ff" d="M135.66,-34.19C157.9,-29.48 182.92,-24.19 204.02,-19.72"/>
<polygon fill="#63b8ff" stroke="#63b8ff" points="135.2,-30.71 126.14,-36.2 136.65,-37.56 135.2,-30.71"/>
</a>
</g>
</g>
</g>
</svg>
