<?xml version="1.0" encoding="UTF-8" standalone="no"?>
<!DOCTYPE svg PUBLIC "-//W3C//DTD SVG 1.1//EN"
 "http://www.w3.org/Graphics/SVG/1.1/DTD/svg11.dtd">
<!-- Generated by graphviz version 12.2.0 (20241103.1931)
 -->
<!-- Title: Graphical Class Hierarchy Pages: 1 -->
<svg width="328pt" height="138pt"
 viewBox="0.00 0.00 328.00 138.25" xmlns="http://www.w3.org/2000/svg" xmlns:xlink="http://www.w3.org/1999/xlink">
<g id="graph0" class="graph" transform="scale(1 1) rotate(0) translate(4 134.25)">
<title>Graphical Class Hierarchy</title>
<!-- Node0 -->
<g id="Node000000" class="node">
<title>Node0</title>
<g id="a_Node000000"><a xlink:href="class_sandals_1_1_nonlinear_solver.html" target="_top" xlink:title="Class container for the nonlinear solver.">
<polygon fill="white" stroke="#666666" points="151.75,-74.25 0,-74.25 0,-55 151.75,-55 151.75,-74.25"/>
<text text-anchor="middle" x="75.88" y="-60.75" font-family="Helvetica,sans-Serif" font-size="10.00">Sandals::NonlinearSolver&lt; N &gt;</text>
</a>
</g>
</g>
<!-- Node1 -->
<g id="Node000001" class="node">
<title>Node1</title>
<g id="a_Node000001"><a xlink:href="class_sandals_1_1_broyden.html" target="_top" xlink:title=" ">
<polygon fill="white" stroke="#666666" points="320,-130.25 187.75,-130.25 187.75,-111 320,-111 320,-130.25"/>
<text text-anchor="middle" x="253.88" y="-116.75" font-family="Helvetica,sans-Serif" font-size="10.00">Sandals::Broyden&lt; N *S &gt;</text>
</a>
</g>
</g>
<!-- Node0&#45;&gt;Node1 -->
<g id="edge4_Node000000_Node000001" class="edge">
<title>Node0&#45;&gt;Node1</title>
<g id="a_edge4_Node000000_Node000001"><a xlink:title=" ">
<path fill="none" stroke="#63b8ff" d="M115.08,-78.36C136.37,-85.85 163.42,-95.1 187.75,-102.62 196.49,-105.33 205.95,-108.06 214.88,-110.54"/>
<polygon fill="#63b8ff" stroke="#63b8ff" points="116.54,-75.16 105.94,-75.12 114.2,-81.76 116.54,-75.16"/>
</a>
</g>
</g>
<!-- Node2 -->
<g id="Node000002" class="node">
<title>Node2</title>
<g id="a_Node000002"><a xlink:href="class_sandals_1_1_newton.html" target="_top" xlink:title=" ">
<polygon fill="white" stroke="#666666" points="318.88,-93.25 188.88,-93.25 188.88,-74 318.88,-74 318.88,-93.25"/>
<text text-anchor="middle" x="253.88" y="-79.75" font-family="Helvetica,sans-Serif" font-size="10.00">Sandals::Newton&lt; N *S &gt;</text>
</a>
</g>
</g>
<!-- Node0&#45;&gt;Node2 -->
<g id="edge5_Node000000_Node000002" class="edge">
<title>Node0&#45;&gt;Node2</title>
<g id="a_edge5_Node000000_Node000002"><a xlink:title=" ">
<path fill="none" stroke="#63b8ff" d="M163.19,-73.94C171.72,-74.86 180.26,-75.79 188.51,-76.68"/>
<polygon fill="#63b8ff" stroke="#63b8ff" points="163.85,-70.49 153.53,-72.9 163.1,-77.45 163.85,-70.49"/>
</a>
</g>
</g>
<!-- Node3 -->
<g id="Node000003" class="node">
<title>Node3</title>
<g id="a_Node000003"><a xlink:href="class_sandals_1_1_broyden.html" target="_top" xlink:title="Class container for the (damped) Broyden&#39;s method.">
<polygon fill="white" stroke="#666666" points="313.25,-56.25 194.5,-56.25 194.5,-37 313.25,-37 313.25,-56.25"/>
<text text-anchor="middle" x="253.88" y="-42.75" font-family="Helvetica,sans-Serif" font-size="10.00">Sandals::Broyden&lt; N &gt;</text>
</a>
</g>
</g>
<!-- Node0&#45;&gt;Node3 -->
<g id="edge6_Node000000_Node000003" class="edge">
<title>Node0&#45;&gt;Node3</title>
<g id="a_edge6_Node000000_Node000003"><a xlink:title=" ">
<path fill="none" stroke="#63b8ff" d="M163.33,-55.78C173.79,-54.71 184.28,-53.64 194.21,-52.63"/>
<polygon fill="#63b8ff" stroke="#63b8ff" points="163.12,-52.29 153.53,-56.79 163.84,-59.25 163.12,-52.29"/>
</a>
</g>
</g>
<!-- Node4 -->
<g id="Node000004" class="node">
<title>Node4</title>
<g id="a_Node000004"><a xlink:href="class_sandals_1_1_newton.html" target="_top" xlink:title="Class container for the (damped) Newton&#39;s method with affine invariant step.">
<polygon fill="white" stroke="#666666" points="312.12,-19.25 195.62,-19.25 195.62,0 312.12,0 312.12,-19.25"/>
<text text-anchor="middle" x="253.88" y="-5.75" font-family="Helvetica,sans-Serif" font-size="10.00">Sandals::Newton&lt; N &gt;</text>
</a>
</g>
</g>
<!-- Node0&#45;&gt;Node4 -->
<g id="edge7_Node000000_Node000004" class="edge">
<title>Node0&#45;&gt;Node4</title>
<g id="a_edge7_Node000000_Node000004"><a xlink:title=" ">
<path fill="none" stroke="#63b8ff" d="M116.27,-50.92C137.39,-43.72 163.89,-34.9 187.75,-27.62 196.61,-24.92 206.21,-22.17 215.24,-19.67"/>
<polygon fill="#63b8ff" stroke="#63b8ff" points="115.21,-47.58 106.89,-54.14 117.49,-54.2 115.21,-47.58"/>
</a>
</g>
</g>
</g>
</svg>
