<?xml version="1.0" encoding="UTF-8" standalone="no"?>
<!DOCTYPE svg PUBLIC "-//W3C//DTD SVG 1.1//EN"
 "http://www.w3.org/Graphics/SVG/1.1/DTD/svg11.dtd">
<!-- Generated by graphviz version 12.2.1 (20241206.2353)
 -->
<!-- Title: Graphical Class Hierarchy Pages: 1 -->
<svg width="294pt" height="138pt"
 viewBox="0.00 0.00 294.25 138.25" xmlns="http://www.w3.org/2000/svg" xmlns:xlink="http://www.w3.org/1999/xlink">
<g id="graph0" class="graph" transform="scale(1 1) rotate(0) translate(4 134.25)">
<title>Graphical Class Hierarchy</title>
<!-- Node0 -->
<g id="Node000000" class="node">
<title>Node0</title>
<g id="a_Node000000"><a xlink:href="struct_sandals_1_1_tableau.html" target="_top" xlink:title=" ">
<polygon fill="white" stroke="#666666" points="114.25,-74.25 0,-74.25 0,-55 114.25,-55 114.25,-74.25"/>
<text text-anchor="middle" x="57.12" y="-60.75" font-family="Helvetica,sans-Serif" font-size="10.00">Sandals::Tableau&lt; 4 &gt;</text>
</a>
</g>
</g>
<!-- Node1 -->
<g id="Node000001" class="node">
<title>Node1</title>
<g id="a_Node000001"><a xlink:href="class_sandals_1_1_r_k4_tableau.html" target="_top" xlink:title="Butcher tableau for the Runge&#45;Kutta order 4 method.">
<polygon fill="white" stroke="#666666" points="273.5,-130.25 163,-130.25 163,-111 273.5,-111 273.5,-130.25"/>
<text text-anchor="middle" x="218.25" y="-116.75" font-family="Helvetica,sans-Serif" font-size="10.00">Sandals::RK4Tableau</text>
</a>
</g>
</g>
<!-- Node0&#45;&gt;Node1 -->
<g id="edge51_Node000000_Node000001" class="edge">
<title>Node0&#45;&gt;Node1</title>
<g id="a_edge51_Node000000_Node000001"><a xlink:title=" ">
<path fill="none" stroke="#63b8ff" d="M90.4,-79.13C107.9,-86.7 130.03,-95.77 150.25,-102.62 158.58,-105.45 167.6,-108.12 176.25,-110.51"/>
<polygon fill="#63b8ff" stroke="#63b8ff" points="92.11,-76.06 81.54,-75.26 89.3,-82.47 92.11,-76.06"/>
</a>
</g>
</g>
<!-- Node2 -->
<g id="Node000002" class="node">
<title>Node2</title>
<g id="a_Node000002"><a xlink:href="class_sandals_1_1_ralston4_tableau.html" target="_top" xlink:title="Butcher tableau for the Ralston&#39;s order 4 method.">
<polygon fill="white" stroke="#666666" points="283.25,-93.25 153.25,-93.25 153.25,-74 283.25,-74 283.25,-93.25"/>
<text text-anchor="middle" x="218.25" y="-79.75" font-family="Helvetica,sans-Serif" font-size="10.00">Sandals::Ralston4Tableau</text>
</a>
</g>
</g>
<!-- Node0&#45;&gt;Node2 -->
<g id="edge52_Node000000_Node000002" class="edge">
<title>Node0&#45;&gt;Node2</title>
<g id="a_edge52_Node000000_Node000002"><a xlink:title=" ">
<path fill="none" stroke="#63b8ff" d="M125.91,-72.72C134.9,-73.79 144.1,-74.89 153.02,-75.96"/>
<polygon fill="#63b8ff" stroke="#63b8ff" points="126.52,-69.27 116.18,-71.56 125.69,-76.22 126.52,-69.27"/>
</a>
</g>
</g>
<!-- Node3 -->
<g id="Node000003" class="node">
<title>Node3</title>
<g id="a_Node000003"><a xlink:href="class_sandals_1_1_s_s_p_r_k42_tableau.html" target="_top" xlink:title="Butcher tableau for the 4&#45;stage strong&#45;stability preserving Runge&#45;Kutta order 2 method.">
<polygon fill="white" stroke="#666666" points="286.25,-56.25 150.25,-56.25 150.25,-37 286.25,-37 286.25,-56.25"/>
<text text-anchor="middle" x="218.25" y="-42.75" font-family="Helvetica,sans-Serif" font-size="10.00">Sandals::SSPRK42Tableau</text>
</a>
</g>
</g>
<!-- Node0&#45;&gt;Node3 -->
<g id="edge53_Node000000_Node000003" class="edge">
<title>Node0&#45;&gt;Node3</title>
<g id="a_edge53_Node000000_Node000003"><a xlink:title=" ">
<path fill="none" stroke="#63b8ff" d="M125.84,-56.97C133.84,-56.06 142,-55.14 150,-54.23"/>
<polygon fill="#63b8ff" stroke="#63b8ff" points="125.72,-53.46 116.18,-58.06 126.51,-60.41 125.72,-53.46"/>
</a>
</g>
</g>
<!-- Node4 -->
<g id="Node000004" class="node">
<title>Node4</title>
<g id="a_Node000004"><a xlink:href="class_sandals_1_1_s_s_p_r_k43_tableau.html" target="_top" xlink:title="Butcher tableau for the 4&#45;stage strong&#45;stability preserving Runge&#45;Kutta order 3 method.">
<polygon fill="white" stroke="#666666" points="286.25,-19.25 150.25,-19.25 150.25,0 286.25,0 286.25,-19.25"/>
<text text-anchor="middle" x="218.25" y="-5.75" font-family="Helvetica,sans-Serif" font-size="10.00">Sandals::SSPRK43Tableau</text>
</a>
</g>
</g>
<!-- Node0&#45;&gt;Node4 -->
<g id="edge54_Node000000_Node000004" class="edge">
<title>Node0&#45;&gt;Node4</title>
<g id="a_edge54_Node000000_Node000004"><a xlink:title=" ">
<path fill="none" stroke="#63b8ff" d="M91.14,-50.25C108.54,-42.96 130.35,-34.27 150.25,-27.62 158.7,-24.8 167.87,-22.11 176.63,-19.7"/>
<polygon fill="#63b8ff" stroke="#63b8ff" points="90.17,-46.86 82.33,-53.99 92.9,-53.31 90.17,-46.86"/>
</a>
</g>
</g>
</g>
</svg>
