<?xml version="1.0" encoding="UTF-8" standalone="no"?>
<!DOCTYPE svg PUBLIC "-//W3C//DTD SVG 1.1//EN"
 "http://www.w3.org/Graphics/SVG/1.1/DTD/svg11.dtd">
<!-- Generated by graphviz version 12.2.1 (20241206.2353)
 -->
<!-- Title: Graphical Class Hierarchy Pages: 1 -->
<svg width="288pt" height="186pt"
 viewBox="0.00 0.00 287.50 185.50" xmlns="http://www.w3.org/2000/svg" xmlns:xlink="http://www.w3.org/1999/xlink">
<g id="graph0" class="graph" transform="scale(1 1) rotate(0) translate(4 181.5)">
<title>Graphical Class Hierarchy</title>
<!-- Node0 -->
<g id="Node000000" class="node">
<title>Node0</title>
<g id="a_Node000000"><a xlink:href="class_sandals_1_1_runge_kutta.html" target="_top" xlink:title=" ">
<polygon fill="white" stroke="#666666" points="109,-103.5 0,-103.5 0,-73 109,-73 109,-103.5"/>
<text text-anchor="start" x="8" y="-90" font-family="Helvetica,sans-Serif" font-size="10.00">Sandals::RungeKutta</text>
<text text-anchor="middle" x="54.5" y="-78.75" font-family="Helvetica,sans-Serif" font-size="10.00">&lt; Real, 4, N, 0 &gt;</text>
</a>
</g>
</g>
<!-- Node1 -->
<g id="Node000001" class="node">
<title>Node1</title>
<g id="a_Node000001"><a xlink:href="class_sandals_1_1_r_k4.html" target="_top" xlink:title="Class container for the Runge&#45;Kutta order 4 method.">
<polygon fill="white" stroke="#666666" points="266.75,-177.5 157.75,-177.5 157.75,-147 266.75,-147 266.75,-177.5"/>
<text text-anchor="start" x="165.75" y="-164" font-family="Helvetica,sans-Serif" font-size="10.00">Sandals::RK4&lt; Real,</text>
<text text-anchor="middle" x="212.25" y="-152.75" font-family="Helvetica,sans-Serif" font-size="10.00"> N, M &gt;</text>
</a>
</g>
</g>
<!-- Node0&#45;&gt;Node1 -->
<g id="edge30_Node000000_Node000001" class="edge">
<title>Node0&#45;&gt;Node1</title>
<g id="a_edge30_Node000000_Node000001"><a xlink:title=" ">
<path fill="none" stroke="#63b8ff" d="M91.22,-109.3C107.37,-118.43 126.87,-128.92 145,-137.25 152.04,-140.48 159.62,-143.64 167.06,-146.56"/>
<polygon fill="#63b8ff" stroke="#63b8ff" points="93.36,-106.5 82.94,-104.57 89.89,-112.58 93.36,-106.5"/>
</a>
</g>
</g>
<!-- Node2 -->
<g id="Node000002" class="node">
<title>Node2</title>
<g id="a_Node000002"><a xlink:href="class_sandals_1_1_ralston4.html" target="_top" xlink:title="Class container for the Ralston&#39;s order 4 method.">
<polygon fill="white" stroke="#666666" points="263.38,-128.5 161.12,-128.5 161.12,-98 263.38,-98 263.38,-128.5"/>
<text text-anchor="start" x="169.12" y="-115" font-family="Helvetica,sans-Serif" font-size="10.00">Sandals::Ralston4&lt;</text>
<text text-anchor="middle" x="212.25" y="-103.75" font-family="Helvetica,sans-Serif" font-size="10.00"> Real, N, M &gt;</text>
</a>
</g>
</g>
<!-- Node0&#45;&gt;Node2 -->
<g id="edge31_Node000000_Node000002" class="edge">
<title>Node0&#45;&gt;Node2</title>
<g id="a_edge31_Node000000_Node000002"><a xlink:title=" ">
<path fill="none" stroke="#63b8ff" d="M120.27,-98.65C133.77,-100.81 147.81,-103.07 160.7,-105.14"/>
<polygon fill="#63b8ff" stroke="#63b8ff" points="121.02,-95.22 110.59,-97.09 119.91,-102.13 121.02,-95.22"/>
</a>
</g>
</g>
<!-- Node3 -->
<g id="Node000003" class="node">
<title>Node3</title>
<g id="a_Node000003"><a xlink:href="class_sandals_1_1_s_s_p_r_k42.html" target="_top" xlink:title="Class container for the 4&#45;stage strong&#45;stability preserving Runge&#45;Kutta order 2 method.">
<polygon fill="white" stroke="#666666" points="279.5,-79.5 145,-79.5 145,-49 279.5,-49 279.5,-79.5"/>
<text text-anchor="start" x="153" y="-66" font-family="Helvetica,sans-Serif" font-size="10.00">Sandals::SSPRK42&lt; Real,</text>
<text text-anchor="middle" x="212.25" y="-54.75" font-family="Helvetica,sans-Serif" font-size="10.00"> N, M &gt;</text>
</a>
</g>
</g>
<!-- Node0&#45;&gt;Node3 -->
<g id="edge32_Node000000_Node000003" class="edge">
<title>Node0&#45;&gt;Node3</title>
<g id="a_edge32_Node000000_Node000003"><a xlink:title=" ">
<path fill="none" stroke="#63b8ff" d="M120.29,-78.27C128.33,-77.03 136.55,-75.76 144.62,-74.52"/>
<polygon fill="#63b8ff" stroke="#63b8ff" points="119.95,-74.78 110.6,-79.76 121.01,-81.7 119.95,-74.78"/>
</a>
</g>
</g>
<!-- Node4 -->
<g id="Node000004" class="node">
<title>Node4</title>
<g id="a_Node000004"><a xlink:href="class_sandals_1_1_s_s_p_r_k43.html" target="_top" xlink:title="Class container for the 4&#45;stage strong&#45;stability preserving Runge&#45;Kutta order 3 method.">
<polygon fill="white" stroke="#666666" points="279.5,-30.5 145,-30.5 145,0 279.5,0 279.5,-30.5"/>
<text text-anchor="start" x="153" y="-17" font-family="Helvetica,sans-Serif" font-size="10.00">Sandals::SSPRK43&lt; Real,</text>
<text text-anchor="middle" x="212.25" y="-5.75" font-family="Helvetica,sans-Serif" font-size="10.00"> N, M &gt;</text>
</a>
</g>
</g>
<!-- Node0&#45;&gt;Node4 -->
<g id="edge33_Node000000_Node000004" class="edge">
<title>Node0&#45;&gt;Node4</title>
<g id="a_edge33_Node000000_Node000004"><a xlink:title=" ">
<path fill="none" stroke="#63b8ff" d="M92.43,-67.03C108.36,-58.25 127.36,-48.27 145,-40.25 152.05,-37.05 159.64,-33.9 167.08,-30.99"/>
<polygon fill="#63b8ff" stroke="#63b8ff" points="90.8,-63.93 83.77,-71.86 94.21,-70.05 90.8,-63.93"/>
</a>
</g>
</g>
</g>
</svg>
