<?xml version="1.0" encoding="UTF-8" standalone="no"?>
<!DOCTYPE svg PUBLIC "-//W3C//DTD SVG 1.1//EN"
 "http://www.w3.org/Graphics/SVG/1.1/DTD/svg11.dtd">
<!-- Generated by graphviz version 12.2.1 (20241206.2353)
 -->
<!-- Title: Graphical Class Hierarchy Pages: 1 -->
<svg width="323pt" height="212pt"
 viewBox="0.00 0.00 322.75 212.25" xmlns="http://www.w3.org/2000/svg" xmlns:xlink="http://www.w3.org/1999/xlink">
<g id="graph0" class="graph" transform="scale(1 1) rotate(0) translate(4 208.25)">
<title>Graphical Class Hierarchy</title>
<!-- Node0 -->
<g id="Node000000" class="node">
<title>Node0</title>
<g id="a_Node000000"><a xlink:href="struct_sandals_1_1_tableau.html" target="_top" xlink:title=" ">
<polygon fill="white" stroke="#666666" points="114.25,-111.25 0,-111.25 0,-92 114.25,-92 114.25,-111.25"/>
<text text-anchor="middle" x="57.12" y="-97.75" font-family="Helvetica,sans-Serif" font-size="10.00">Sandals::Tableau&lt; 3 &gt;</text>
</a>
</g>
</g>
<!-- Node1 -->
<g id="Node000001" class="node">
<title>Node1</title>
<g id="a_Node000001"><a xlink:href="class_sandals_1_1_gauss_legendre6_tableau.html" target="_top" xlink:title="Butcher tableau for the Gauss&#45;Legendre order 6 method.">
<polygon fill="white" stroke="#666666" points="314.75,-204.25 150.25,-204.25 150.25,-185 314.75,-185 314.75,-204.25"/>
<text text-anchor="middle" x="232.5" y="-190.75" font-family="Helvetica,sans-Serif" font-size="10.00">Sandals::GaussLegendre6Tableau</text>
</a>
</g>
</g>
<!-- Node0&#45;&gt;Node1 -->
<g id="edge46_Node000000_Node000001" class="edge">
<title>Node0&#45;&gt;Node1</title>
<g id="a_edge46_Node000000_Node000001"><a xlink:title=" ">
<path fill="none" stroke="#63b8ff" d="M75.27,-119.82C92.56,-137.06 120.84,-162.4 150.25,-176.62 156.75,-179.77 163.81,-182.38 170.97,-184.53"/>
<polygon fill="#63b8ff" stroke="#63b8ff" points="77.82,-117.43 68.33,-112.72 72.82,-122.32 77.82,-117.43"/>
</a>
</g>
</g>
<!-- Node2 -->
<g id="Node000002" class="node">
<title>Node2</title>
<g id="a_Node000002"><a xlink:href="class_sandals_1_1_heun3_tableau.html" target="_top" xlink:title="Butcher tableau for the Heun&#39;s order 3 method.">
<polygon fill="white" stroke="#666666" points="292.25,-167.25 172.75,-167.25 172.75,-148 292.25,-148 292.25,-167.25"/>
<text text-anchor="middle" x="232.5" y="-153.75" font-family="Helvetica,sans-Serif" font-size="10.00">Sandals::Heun3Tableau</text>
</a>
</g>
</g>
<!-- Node0&#45;&gt;Node2 -->
<g id="edge47_Node000000_Node000002" class="edge">
<title>Node0&#45;&gt;Node2</title>
<g id="a_edge47_Node000000_Node000002"><a xlink:title=" ">
<path fill="none" stroke="#63b8ff" d="M89.58,-116.19C107.15,-123.92 129.61,-133.14 150.25,-139.62 159.62,-142.57 169.75,-145.22 179.57,-147.53"/>
<polygon fill="#63b8ff" stroke="#63b8ff" points="91.27,-113.11 80.71,-112.22 88.41,-119.5 91.27,-113.11"/>
</a>
</g>
</g>
<!-- Node3 -->
<g id="Node000003" class="node">
<title>Node3</title>
<g id="a_Node000003"><a xlink:href="class_sandals_1_1_radau_i_i_a5_tableau.html" target="_top" xlink:title="Butcher tableau for the Radau IIA order 3 method.">
<polygon fill="white" stroke="#666666" points="301.25,-130.25 163.75,-130.25 163.75,-111 301.25,-111 301.25,-130.25"/>
<text text-anchor="middle" x="232.5" y="-116.75" font-family="Helvetica,sans-Serif" font-size="10.00">Sandals::RadauIIA5Tableau</text>
</a>
</g>
</g>
<!-- Node0&#45;&gt;Node3 -->
<g id="edge48_Node000000_Node000003" class="edge">
<title>Node0&#45;&gt;Node3</title>
<g id="a_edge48_Node000000_Node000003"><a xlink:title=" ">
<path fill="none" stroke="#63b8ff" d="M125.62,-109.02C138.02,-110.38 150.97,-111.8 163.39,-113.16"/>
<polygon fill="#63b8ff" stroke="#63b8ff" points="126.24,-105.57 115.92,-107.96 125.48,-112.53 126.24,-105.57"/>
</a>
</g>
</g>
<!-- Node4 -->
<g id="Node000004" class="node">
<title>Node4</title>
<g id="a_Node000004"><a xlink:href="class_sandals_1_1_ralston3_tableau.html" target="_top" xlink:title="Butcher tableau for the Ralston&#39;s order 3 method.">
<polygon fill="white" stroke="#666666" points="297.5,-93.25 167.5,-93.25 167.5,-74 297.5,-74 297.5,-93.25"/>
<text text-anchor="middle" x="232.5" y="-79.75" font-family="Helvetica,sans-Serif" font-size="10.00">Sandals::Ralston3Tableau</text>
</a>
</g>
</g>
<!-- Node0&#45;&gt;Node4 -->
<g id="edge49_Node000000_Node000004" class="edge">
<title>Node0&#45;&gt;Node4</title>
<g id="a_edge49_Node000000_Node000004"><a xlink:title=" ">
<path fill="none" stroke="#63b8ff" d="M125.66,-94.61C139.28,-93.2 153.56,-91.72 167.07,-90.31"/>
<polygon fill="#63b8ff" stroke="#63b8ff" points="125.51,-91.11 115.92,-95.62 126.23,-98.07 125.51,-91.11"/>
</a>
</g>
</g>
<!-- Node5 -->
<g id="Node000005" class="node">
<title>Node5</title>
<g id="a_Node000005"><a xlink:href="class_sandals_1_1_s_s_p_i_r_k33_tableau.html" target="_top" xlink:title="Butcher tableau for the 3&#45;stage diagonally&#45;implicit strong&#45;stability preserving Runge&#45;Kuttax order 3 ...">
<polygon fill="white" stroke="#666666" points="302,-56.25 163,-56.25 163,-37 302,-37 302,-56.25"/>
<text text-anchor="middle" x="232.5" y="-42.75" font-family="Helvetica,sans-Serif" font-size="10.00">Sandals::SSPIRK33Tableau</text>
</a>
</g>
</g>
<!-- Node0&#45;&gt;Node5 -->
<g id="edge50_Node000000_Node000005" class="edge">
<title>Node0&#45;&gt;Node5</title>
<g id="a_edge50_Node000000_Node000005"><a xlink:title=" ">
<path fill="none" stroke="#63b8ff" d="M90.32,-87.18C107.8,-79.73 129.93,-70.91 150.25,-64.62 159.77,-61.68 170.07,-59.01 180.02,-56.69"/>
<polygon fill="#63b8ff" stroke="#63b8ff" points="89.27,-83.83 81.48,-91.01 92.05,-90.25 89.27,-83.83"/>
</a>
</g>
</g>
<!-- Node6 -->
<g id="Node000006" class="node">
<title>Node6</title>
<g id="a_Node000006"><a xlink:href="class_sandals_1_1_s_s_p_r_k33_tableau.html" target="_top" xlink:title="Butcher tableau for the 3&#45;stage strong&#45;stability preserving Runge&#45;Kutta order 3 method.">
<polygon fill="white" stroke="#666666" points="300.5,-19.25 164.5,-19.25 164.5,0 300.5,0 300.5,-19.25"/>
<text text-anchor="middle" x="232.5" y="-5.75" font-family="Helvetica,sans-Serif" font-size="10.00">Sandals::SSPRK33Tableau</text>
</a>
</g>
</g>
<!-- Node0&#45;&gt;Node6 -->
<g id="edge51_Node000000_Node000006" class="edge">
<title>Node0&#45;&gt;Node6</title>
<g id="a_edge51_Node000000_Node000006"><a xlink:title=" ">
<path fill="none" stroke="#63b8ff" d="M75.31,-83.69C92.64,-66.67 120.95,-41.68 150.25,-27.62 156.89,-24.44 164.11,-21.81 171.42,-19.63"/>
<polygon fill="#63b8ff" stroke="#63b8ff" points="72.93,-81.12 68.37,-90.68 77.9,-86.05 72.93,-81.12"/>
</a>
</g>
</g>
</g>
</svg>
