<?xml version="1.0" encoding="UTF-8" standalone="no"?>
<!DOCTYPE svg PUBLIC "-//W3C//DTD SVG 1.1//EN"
 "http://www.w3.org/Graphics/SVG/1.1/DTD/svg11.dtd">
<!-- Generated by graphviz version 12.2.0 (20241103.1931)
 -->
<!-- Title: Graphical Class Hierarchy Pages: 1 -->
<svg width="295pt" height="150pt"
 viewBox="0.00 0.00 295.00 150.25" xmlns="http://www.w3.org/2000/svg" xmlns:xlink="http://www.w3.org/1999/xlink">
<g id="graph0" class="graph" transform="scale(1 1) rotate(0) translate(4 146.25)">
<title>Graphical Class Hierarchy</title>
<!-- Node0 -->
<g id="Node000000" class="node">
<title>Node0</title>
<g id="a_Node000000"><a xlink:href="class_sandals_1_1_runge_kutta.html" target="_top" xlink:title=" ">
<polygon fill="white" stroke="#666666" points="109,-82.88 0,-82.88 0,-52.38 109,-52.38 109,-82.88"/>
<text text-anchor="start" x="8" y="-69.38" font-family="Helvetica,sans-Serif" font-size="10.00">Sandals::RungeKutta</text>
<text text-anchor="middle" x="54.5" y="-58.12" font-family="Helvetica,sans-Serif" font-size="10.00">&lt; 4, N, 0 &gt;</text>
</a>
</g>
</g>
<!-- Node1 -->
<g id="Node000001" class="node">
<title>Node1</title>
<g id="a_Node000001"><a xlink:href="class_sandals_1_1_r_k4.html" target="_top" xlink:title="Class container for the Runge&#45;Kutta order 4 method.">
<polygon fill="white" stroke="#666666" points="274.25,-142.25 157.75,-142.25 157.75,-123 274.25,-123 274.25,-142.25"/>
<text text-anchor="middle" x="216" y="-128.75" font-family="Helvetica,sans-Serif" font-size="10.00">Sandals::RK4&lt; N, M &gt;</text>
</a>
</g>
</g>
<!-- Node0&#45;&gt;Node1 -->
<g id="edge27_Node000000_Node000001" class="edge">
<title>Node0&#45;&gt;Node1</title>
<g id="a_edge27_Node000000_Node000001"><a xlink:title=" ">
<path fill="none" stroke="#63b8ff" d="M92.18,-88.68C108.07,-97.22 127.1,-106.68 145,-113.62 153.69,-116.99 163.2,-120 172.34,-122.58"/>
<polygon fill="#63b8ff" stroke="#63b8ff" points="94.01,-85.7 83.56,-83.97 90.65,-91.84 94.01,-85.7"/>
</a>
</g>
</g>
<!-- Node2 -->
<g id="Node000002" class="node">
<title>Node2</title>
<g id="a_Node000002"><a xlink:href="class_sandals_1_1_ralston4.html" target="_top" xlink:title="Class container for the Ralston&#39;s order 4 method.">
<polygon fill="white" stroke="#666666" points="267.12,-104.88 164.88,-104.88 164.88,-74.38 267.12,-74.38 267.12,-104.88"/>
<text text-anchor="start" x="172.88" y="-91.38" font-family="Helvetica,sans-Serif" font-size="10.00">Sandals::Ralston4&lt;</text>
<text text-anchor="middle" x="216" y="-80.12" font-family="Helvetica,sans-Serif" font-size="10.00"> N, M &gt;</text>
</a>
</g>
</g>
<!-- Node0&#45;&gt;Node2 -->
<g id="edge28_Node000000_Node000002" class="edge">
<title>Node0&#45;&gt;Node2</title>
<g id="a_edge28_Node000000_Node000002"><a xlink:title=" ">
<path fill="none" stroke="#63b8ff" d="M120.55,-76.6C135.22,-78.62 150.59,-80.74 164.55,-82.67"/>
<polygon fill="#63b8ff" stroke="#63b8ff" points="121.38,-73.18 111,-75.28 120.43,-80.11 121.38,-73.18"/>
</a>
</g>
</g>
<!-- Node3 -->
<g id="Node000003" class="node">
<title>Node3</title>
<g id="a_Node000003"><a xlink:href="class_sandals_1_1_s_s_p_r_k42.html" target="_top" xlink:title="Class container for the 4&#45;stage strong&#45;stability preserving Runge&#45;Kutta order 2 method.">
<polygon fill="white" stroke="#666666" points="287,-56.25 145,-56.25 145,-37 287,-37 287,-56.25"/>
<text text-anchor="middle" x="216" y="-42.75" font-family="Helvetica,sans-Serif" font-size="10.00">Sandals::SSPRK42&lt; N, M &gt;</text>
</a>
</g>
</g>
<!-- Node0&#45;&gt;Node3 -->
<g id="edge29_Node000000_Node000003" class="edge">
<title>Node0&#45;&gt;Node3</title>
<g id="a_edge29_Node000000_Node000003"><a xlink:title=" ">
<path fill="none" stroke="#63b8ff" d="M120.83,-59.02C128.69,-57.99 136.73,-56.93 144.66,-55.89"/>
<polygon fill="#63b8ff" stroke="#63b8ff" points="120.46,-55.54 111,-60.32 121.37,-62.48 120.46,-55.54"/>
</a>
</g>
</g>
<!-- Node4 -->
<g id="Node000004" class="node">
<title>Node4</title>
<g id="a_Node000004"><a xlink:href="class_sandals_1_1_s_s_p_r_k43.html" target="_top" xlink:title="Class container for the 4&#45;stage strong&#45;stability preserving Runge&#45;Kutta order 3 method.">
<polygon fill="white" stroke="#666666" points="287,-19.25 145,-19.25 145,0 287,0 287,-19.25"/>
<text text-anchor="middle" x="216" y="-5.75" font-family="Helvetica,sans-Serif" font-size="10.00">Sandals::SSPRK43&lt; N, M &gt;</text>
</a>
</g>
</g>
<!-- Node0&#45;&gt;Node4 -->
<g id="edge30_Node000000_Node000004" class="edge">
<title>Node0&#45;&gt;Node4</title>
<g id="a_edge30_Node000000_Node000004"><a xlink:title=" ">
<path fill="none" stroke="#63b8ff" d="M97.26,-47.21C112.11,-40.42 129.1,-33.18 145,-27.62 153.29,-24.73 162.28,-22.07 170.97,-19.74"/>
<polygon fill="#63b8ff" stroke="#63b8ff" points="95.83,-44.01 88.24,-51.4 98.78,-50.36 95.83,-44.01"/>
</a>
</g>
</g>
</g>
</svg>
