<?xml version="1.0" encoding="UTF-8" standalone="no"?>
<!DOCTYPE svg PUBLIC "-//W3C//DTD SVG 1.1//EN"
 "http://www.w3.org/Graphics/SVG/1.1/DTD/svg11.dtd">
<!-- Generated by graphviz version 12.2.0 (20241103.1931)
 -->
<!-- Title: Graphical Class Hierarchy Pages: 1 -->
<svg width="268pt" height="397pt"
 viewBox="0.00 0.00 268.00 397.25" xmlns="http://www.w3.org/2000/svg" xmlns:xlink="http://www.w3.org/1999/xlink">
<g id="graph0" class="graph" transform="scale(1 1) rotate(0) translate(4 393.25)">
<title>Graphical Class Hierarchy</title>
<!-- Node0 -->
<g id="Node000000" class="node">
<title>Node0</title>
<g id="a_Node000000"><a xlink:title=" ">
<polygon fill="#e0e0e0" stroke="#999999" points="67.75,-204.25 0,-204.25 0,-185 67.75,-185 67.75,-204.25"/>
<text text-anchor="middle" x="33.88" y="-190.75" font-family="Helvetica,sans-Serif" font-size="10.00">RungeKutta</text>
</a>
</g>
</g>
<!-- Node1 -->
<g id="Node000001" class="node">
<title>Node1</title>
<g id="a_Node000001"><a xlink:href="class_sandals_1_1_explicit_euler.html" target="_top" xlink:title="Class container for the Explicit Euler method.">
<polygon fill="white" stroke="#666666" points="250.62,-389.25 113.12,-389.25 113.12,-370 250.62,-370 250.62,-389.25"/>
<text text-anchor="middle" x="181.88" y="-375.75" font-family="Helvetica,sans-Serif" font-size="10.00">Sandals::ExplicitEuler&lt; N &gt;</text>
</a>
</g>
</g>
<!-- Node0&#45;&gt;Node1 -->
<g id="edge1_Node000000_Node000001" class="edge">
<title>Node0&#45;&gt;Node1</title>
<g id="a_edge1_Node000000_Node000001"><a xlink:title=" ">
<path fill="none" stroke="#63b8ff" d="M37.38,-215.72C42.76,-251.39 58.86,-323.47 103.75,-361.62 107.42,-364.74 111.52,-367.34 115.88,-369.51"/>
<polygon fill="#63b8ff" stroke="#63b8ff" points="40.9,-215.67 36.09,-206.23 33.96,-216.61 40.9,-215.67"/>
</a>
</g>
</g>
<!-- Node2 -->
<g id="Node000002" class="node">
<title>Node2</title>
<g id="a_Node000002"><a xlink:href="class_sandals_1_1_gauss_legendre2.html" target="_top" xlink:title="Class container for the Gauss&#45;Legendre order 2 method.">
<polygon fill="white" stroke="#666666" points="260,-352.25 103.75,-352.25 103.75,-333 260,-333 260,-352.25"/>
<text text-anchor="middle" x="181.88" y="-338.75" font-family="Helvetica,sans-Serif" font-size="10.00">Sandals::GaussLegendre2&lt; N &gt;</text>
</a>
</g>
</g>
<!-- Node0&#45;&gt;Node2 -->
<g id="edge2_Node000000_Node000002" class="edge">
<title>Node0&#45;&gt;Node2</title>
<g id="a_edge2_Node000000_Node000002"><a xlink:title=" ">
<path fill="none" stroke="#63b8ff" d="M40.06,-215.5C48.4,-244.57 67.63,-296.8 103.75,-324.62 107.89,-327.81 112.5,-330.45 117.35,-332.63"/>
<polygon fill="#63b8ff" stroke="#63b8ff" points="43.5,-214.82 37.53,-206.06 36.74,-216.63 43.5,-214.82"/>
</a>
</g>
</g>
<!-- Node3 -->
<g id="Node000003" class="node">
<title>Node3</title>
<g id="a_Node000003"><a xlink:href="class_sandals_1_1_gauss_legendre4.html" target="_top" xlink:title="Class container for the Gauss&#45;Legendre order 4 method.">
<polygon fill="white" stroke="#666666" points="260,-315.25 103.75,-315.25 103.75,-296 260,-296 260,-315.25"/>
<text text-anchor="middle" x="181.88" y="-301.75" font-family="Helvetica,sans-Serif" font-size="10.00">Sandals::GaussLegendre4&lt; N &gt;</text>
</a>
</g>
</g>
<!-- Node0&#45;&gt;Node3 -->
<g id="edge3_Node000000_Node000003" class="edge">
<title>Node0&#45;&gt;Node3</title>
<g id="a_edge3_Node000000_Node000003"><a xlink:title=" ">
<path fill="none" stroke="#63b8ff" d="M44.41,-214.84C55.58,-236.27 76.14,-269.48 103.75,-287.62 108.58,-290.8 113.89,-293.41 119.41,-295.57"/>
<polygon fill="#63b8ff" stroke="#63b8ff" points="47.57,-213.33 39.98,-205.94 41.3,-216.45 47.57,-213.33"/>
</a>
</g>
</g>
<!-- Node4 -->
<g id="Node000004" class="node">
<title>Node4</title>
<g id="a_Node000004"><a xlink:href="class_sandals_1_1_gauss_legendre6.html" target="_top" xlink:title="Class container for the Gauss&#45;Legendre order 6 method.">
<polygon fill="white" stroke="#666666" points="260,-278.25 103.75,-278.25 103.75,-259 260,-259 260,-278.25"/>
<text text-anchor="middle" x="181.88" y="-264.75" font-family="Helvetica,sans-Serif" font-size="10.00">Sandals::GaussLegendre6&lt; N &gt;</text>
</a>
</g>
</g>
<!-- Node0&#45;&gt;Node4 -->
<g id="edge4_Node000000_Node000004" class="edge">
<title>Node0&#45;&gt;Node4</title>
<g id="a_edge4_Node000000_Node000004"><a xlink:title=" ">
<path fill="none" stroke="#63b8ff" d="M52.17,-212.48C65.23,-224.96 84.19,-241.03 103.75,-250.62 110.17,-253.77 117.16,-256.39 124.23,-258.55"/>
<polygon fill="#63b8ff" stroke="#63b8ff" points="54.79,-210.15 45.21,-205.61 49.87,-215.13 54.79,-210.15"/>
</a>
</g>
</g>
<!-- Node5 -->
<g id="Node000005" class="node">
<title>Node5</title>
<g id="a_Node000005"><a xlink:href="class_sandals_1_1_heun2.html" target="_top" xlink:title="Class container for the Heun&#39;s order 2 method.">
<polygon fill="white" stroke="#666666" points="237.5,-241.25 126.25,-241.25 126.25,-222 237.5,-222 237.5,-241.25"/>
<text text-anchor="middle" x="181.88" y="-227.75" font-family="Helvetica,sans-Serif" font-size="10.00">Sandals::Heun2&lt; N &gt;</text>
</a>
</g>
</g>
<!-- Node0&#45;&gt;Node5 -->
<g id="edge5_Node000000_Node000005" class="edge">
<title>Node0&#45;&gt;Node5</title>
<g id="a_edge5_Node000000_Node000005"><a xlink:title=" ">
<path fill="none" stroke="#63b8ff" d="M79.01,-207.08C87.22,-209.32 95.73,-211.58 103.75,-213.62 114.28,-216.3 125.65,-219.04 136.35,-221.55"/>
<polygon fill="#63b8ff" stroke="#63b8ff" points="80.11,-203.75 69.54,-204.48 78.26,-210.5 80.11,-203.75"/>
</a>
</g>
</g>
<!-- Node6 -->
<g id="Node000006" class="node">
<title>Node6</title>
<g id="a_Node000006"><a xlink:href="class_sandals_1_1_heun3.html" target="_top" xlink:title="Class container for the Heun&#39;s order 3 method.">
<polygon fill="white" stroke="#666666" points="237.5,-204.25 126.25,-204.25 126.25,-185 237.5,-185 237.5,-204.25"/>
<text text-anchor="middle" x="181.88" y="-190.75" font-family="Helvetica,sans-Serif" font-size="10.00">Sandals::Heun3&lt; N &gt;</text>
</a>
</g>
</g>
<!-- Node0&#45;&gt;Node6 -->
<g id="edge6_Node000000_Node000006" class="edge">
<title>Node0&#45;&gt;Node6</title>
<g id="a_edge6_Node000000_Node000006"><a xlink:title=" ">
<path fill="none" stroke="#63b8ff" d="M79.32,-194.62C93.98,-194.62 110.47,-194.62 125.83,-194.62"/>
<polygon fill="#63b8ff" stroke="#63b8ff" points="79.52,-191.13 69.52,-194.63 79.52,-198.13 79.52,-191.13"/>
</a>
</g>
</g>
<!-- Node7 -->
<g id="Node000007" class="node">
<title>Node7</title>
<g id="a_Node000007"><a xlink:href="class_sandals_1_1_implicit_euler.html" target="_top" xlink:title="Class container for the Implicit Euler method.">
<polygon fill="white" stroke="#666666" points="250.25,-167.25 113.5,-167.25 113.5,-148 250.25,-148 250.25,-167.25"/>
<text text-anchor="middle" x="181.88" y="-153.75" font-family="Helvetica,sans-Serif" font-size="10.00">Sandals::ImplicitEuler&lt; N &gt;</text>
</a>
</g>
</g>
<!-- Node0&#45;&gt;Node7 -->
<g id="edge7_Node000000_Node000007" class="edge">
<title>Node0&#45;&gt;Node7</title>
<g id="a_edge7_Node000000_Node000007"><a xlink:title=" ">
<path fill="none" stroke="#63b8ff" d="M79.01,-182.17C87.22,-179.93 95.73,-177.67 103.75,-175.62 114.28,-172.95 125.65,-170.21 136.35,-167.7"/>
<polygon fill="#63b8ff" stroke="#63b8ff" points="78.26,-178.75 69.54,-184.77 80.11,-185.5 78.26,-178.75"/>
</a>
</g>
</g>
<!-- Node8 -->
<g id="Node000008" class="node">
<title>Node8</title>
<g id="a_Node000008"><a xlink:href="class_sandals_1_1_r_k4.html" target="_top" xlink:title="Class container for the Runge&#45;Kutta order 4 method.">
<polygon fill="white" stroke="#666666" points="233,-130.25 130.75,-130.25 130.75,-111 233,-111 233,-130.25"/>
<text text-anchor="middle" x="181.88" y="-116.75" font-family="Helvetica,sans-Serif" font-size="10.00">Sandals::RK4&lt; N &gt;</text>
</a>
</g>
</g>
<!-- Node0&#45;&gt;Node8 -->
<g id="edge8_Node000000_Node000008" class="edge">
<title>Node0&#45;&gt;Node8</title>
<g id="a_edge8_Node000000_Node000008"><a xlink:title=" ">
<path fill="none" stroke="#63b8ff" d="M52.17,-176.77C65.23,-164.29 84.19,-148.22 103.75,-138.62 112.02,-134.57 121.25,-131.4 130.36,-128.94"/>
<polygon fill="#63b8ff" stroke="#63b8ff" points="49.87,-174.12 45.21,-183.64 54.79,-179.1 49.87,-174.12"/>
</a>
</g>
</g>
<!-- Node9 -->
<g id="Node000009" class="node">
<title>Node9</title>
<g id="a_Node000009"><a xlink:href="class_sandals_1_1_r_k_f45.html" target="_top" xlink:title="Class container for the Runge&#45;Kutta&#45;Fehlberg 4(5) method.">
<polygon fill="white" stroke="#666666" points="238.62,-93.25 125.12,-93.25 125.12,-74 238.62,-74 238.62,-93.25"/>
<text text-anchor="middle" x="181.88" y="-79.75" font-family="Helvetica,sans-Serif" font-size="10.00">Sandals::RKF45&lt; N &gt;</text>
</a>
</g>
</g>
<!-- Node0&#45;&gt;Node9 -->
<g id="edge9_Node000000_Node000009" class="edge">
<title>Node0&#45;&gt;Node9</title>
<g id="a_edge9_Node000000_Node000009"><a xlink:title=" ">
<path fill="none" stroke="#63b8ff" d="M44.41,-174.41C55.58,-152.98 76.14,-119.77 103.75,-101.62 110.19,-97.4 117.5,-94.16 124.99,-91.68"/>
<polygon fill="#63b8ff" stroke="#63b8ff" points="41.3,-172.8 39.98,-183.31 47.57,-175.92 41.3,-172.8"/>
</a>
</g>
</g>
<!-- Node10 -->
<g id="Node000010" class="node">
<title>Node10</title>
<g id="a_Node000010"><a xlink:href="class_sandals_1_1_radau_i_i_a3.html" target="_top" xlink:title="Class container for the RadauIIA order 3 method.">
<polygon fill="white" stroke="#666666" points="246.5,-56.25 117.25,-56.25 117.25,-37 246.5,-37 246.5,-56.25"/>
<text text-anchor="middle" x="181.88" y="-42.75" font-family="Helvetica,sans-Serif" font-size="10.00">Sandals::RadauIIA3&lt; N &gt;</text>
</a>
</g>
</g>
<!-- Node0&#45;&gt;Node10 -->
<g id="edge10_Node000000_Node000010" class="edge">
<title>Node0&#45;&gt;Node10</title>
<g id="a_edge10_Node000000_Node000010"><a xlink:title=" ">
<path fill="none" stroke="#63b8ff" d="M40.06,-173.75C48.4,-144.68 67.63,-92.45 103.75,-64.62 107.89,-61.44 112.5,-58.8 117.35,-56.62"/>
<polygon fill="#63b8ff" stroke="#63b8ff" points="36.74,-172.62 37.53,-183.19 43.5,-174.43 36.74,-172.62"/>
</a>
</g>
</g>
<!-- Node11 -->
<g id="Node000011" class="node">
<title>Node11</title>
<g id="a_Node000011"><a xlink:href="class_sandals_1_1_radau_i_i_a5.html" target="_top" xlink:title="Class container for the RadauIIA order 5 method.">
<polygon fill="white" stroke="#666666" points="246.5,-19.25 117.25,-19.25 117.25,0 246.5,0 246.5,-19.25"/>
<text text-anchor="middle" x="181.88" y="-5.75" font-family="Helvetica,sans-Serif" font-size="10.00">Sandals::RadauIIA5&lt; N &gt;</text>
</a>
</g>
</g>
<!-- Node0&#45;&gt;Node11 -->
<g id="edge11_Node000000_Node000011" class="edge">
<title>Node0&#45;&gt;Node11</title>
<g id="a_edge11_Node000000_Node000011"><a xlink:title=" ">
<path fill="none" stroke="#63b8ff" d="M37.38,-173.53C42.76,-137.86 58.86,-65.78 103.75,-27.62 107.73,-24.24 112.23,-21.47 117,-19.19"/>
<polygon fill="#63b8ff" stroke="#63b8ff" points="33.96,-172.64 36.09,-183.02 40.9,-173.58 33.96,-172.64"/>
</a>
</g>
</g>
</g>
</svg>
