<?xml version="1.0" encoding="UTF-8" standalone="no"?>
<!DOCTYPE svg PUBLIC "-//W3C//DTD SVG 1.1//EN"
 "http://www.w3.org/Graphics/SVG/1.1/DTD/svg11.dtd">
<!-- Generated by graphviz version 12.2.1 (20241206.2353)
 -->
<!-- Title: Graphical Class Hierarchy Pages: 1 -->
<svg width="349pt" height="137pt"
 viewBox="0.00 0.00 349.00 136.50" xmlns="http://www.w3.org/2000/svg" xmlns:xlink="http://www.w3.org/1999/xlink">
<g id="graph0" class="graph" transform="scale(1 1) rotate(0) translate(4 132.5)">
<title>Graphical Class Hierarchy</title>
<!-- Node0 -->
<g id="Node000000" class="node">
<title>Node0</title>
<g id="a_Node000000"><a xlink:href="struct_sandals_1_1_tableau.html" target="_top" xlink:title=" ">
<polygon fill="white" stroke="#666666" points="140.5,-73.88 0,-73.88 0,-54.62 140.5,-54.62 140.5,-73.88"/>
<text text-anchor="middle" x="70.25" y="-60.38" font-family="Helvetica,sans-Serif" font-size="10.00">Sandals::Tableau&lt; Real, 1 &gt;</text>
</a>
</g>
</g>
<!-- Node1 -->
<g id="Node000001" class="node">
<title>Node1</title>
<g id="a_Node000001"><a xlink:href="class_sandals_1_1_explicit_euler_tableau.html" target="_top" xlink:title="Butcher tableau for the Explicit Euler method.">
<polygon fill="white" stroke="#666666" points="331.62,-128.5 185.88,-128.5 185.88,-98 331.62,-98 331.62,-128.5"/>
<text text-anchor="start" x="193.88" y="-115" font-family="Helvetica,sans-Serif" font-size="10.00">Sandals::ExplicitEulerTableau</text>
<text text-anchor="middle" x="258.75" y="-103.75" font-family="Helvetica,sans-Serif" font-size="10.00">&lt; Real &gt;</text>
</a>
</g>
</g>
<!-- Node0&#45;&gt;Node1 -->
<g id="edge37_Node000000_Node000001" class="edge">
<title>Node0&#45;&gt;Node1</title>
<g id="a_edge37_Node000000_Node000001"><a xlink:title=" ">
<path fill="none" stroke="#63b8ff" d="M120.33,-77.15C144.12,-83.39 172.89,-90.95 197.94,-97.54"/>
<polygon fill="#63b8ff" stroke="#63b8ff" points="121.47,-73.82 110.9,-74.67 119.69,-80.6 121.47,-73.82"/>
</a>
</g>
</g>
<!-- Node2 -->
<g id="Node000002" class="node">
<title>Node2</title>
<g id="a_Node000002"><a xlink:href="class_sandals_1_1_gauss_legendre2_tableau.html" target="_top" xlink:title="Butcher Tableau for the Gauss&#45;Legendre order 2 method.">
<polygon fill="white" stroke="#666666" points="341,-79.5 176.5,-79.5 176.5,-49 341,-49 341,-79.5"/>
<text text-anchor="start" x="184.5" y="-66" font-family="Helvetica,sans-Serif" font-size="10.00">Sandals::GaussLegendre2Tableau</text>
<text text-anchor="middle" x="258.75" y="-54.75" font-family="Helvetica,sans-Serif" font-size="10.00">&lt; Real &gt;</text>
</a>
</g>
</g>
<!-- Node0&#45;&gt;Node2 -->
<g id="edge38_Node000000_Node000002" class="edge">
<title>Node0&#45;&gt;Node2</title>
<g id="a_edge38_Node000000_Node000002"><a xlink:title=" ">
<path fill="none" stroke="#63b8ff" d="M152.4,-64.25C160.29,-64.25 168.29,-64.25 176.18,-64.25"/>
<polygon fill="#63b8ff" stroke="#63b8ff" points="152.47,-60.75 142.47,-64.25 152.47,-67.75 152.47,-60.75"/>
</a>
</g>
</g>
<!-- Node3 -->
<g id="Node000003" class="node">
<title>Node3</title>
<g id="a_Node000003"><a xlink:href="class_sandals_1_1_implicit_euler_tableau.html" target="_top" xlink:title="Butcher tableau for the Implicit Euler method.">
<polygon fill="white" stroke="#666666" points="331.25,-30.5 186.25,-30.5 186.25,0 331.25,0 331.25,-30.5"/>
<text text-anchor="start" x="194.25" y="-17" font-family="Helvetica,sans-Serif" font-size="10.00">Sandals::ImplicitEulerTableau</text>
<text text-anchor="middle" x="258.75" y="-5.75" font-family="Helvetica,sans-Serif" font-size="10.00">&lt; Real &gt;</text>
</a>
</g>
</g>
<!-- Node0&#45;&gt;Node3 -->
<g id="edge39_Node000000_Node000003" class="edge">
<title>Node0&#45;&gt;Node3</title>
<g id="a_edge39_Node000000_Node000003"><a xlink:title=" ">
<path fill="none" stroke="#63b8ff" d="M120.33,-51.35C144.12,-45.11 172.89,-37.55 197.94,-30.96"/>
<polygon fill="#63b8ff" stroke="#63b8ff" points="119.69,-47.9 110.9,-53.83 121.47,-54.68 119.69,-47.9"/>
</a>
</g>
</g>
</g>
</svg>
