<?xml version="1.0" encoding="UTF-8" standalone="no"?>
<!DOCTYPE svg PUBLIC "-//W3C//DTD SVG 1.1//EN"
 "http://www.w3.org/Graphics/SVG/1.1/DTD/svg11.dtd">
<!-- Generated by graphviz version 12.2.1 (20241206.2353)
 -->
<!-- Title: Graphical Class Hierarchy Pages: 1 -->
<svg width="288pt" height="382pt"
 viewBox="0.00 0.00 287.50 381.50" xmlns="http://www.w3.org/2000/svg" xmlns:xlink="http://www.w3.org/1999/xlink">
<g id="graph0" class="graph" transform="scale(1 1) rotate(0) translate(4 377.5)">
<title>Graphical Class Hierarchy</title>
<!-- Node0 -->
<g id="Node000000" class="node">
<title>Node0</title>
<g id="a_Node000000"><a xlink:href="class_sandals_1_1_runge_kutta.html" target="_top" xlink:title=" ">
<polygon fill="white" stroke="#666666" points="109,-201.5 0,-201.5 0,-171 109,-171 109,-201.5"/>
<text text-anchor="start" x="8" y="-188" font-family="Helvetica,sans-Serif" font-size="10.00">Sandals::RungeKutta</text>
<text text-anchor="middle" x="54.5" y="-176.75" font-family="Helvetica,sans-Serif" font-size="10.00">&lt; Real, 2, N, 0 &gt;</text>
</a>
</g>
</g>
<!-- Node1 -->
<g id="Node000001" class="node">
<title>Node1</title>
<g id="a_Node000001"><a xlink:href="class_sandals_1_1_gauss_legendre4.html" target="_top" xlink:title="Class container for the Gauss&#45;Legendre order 4 method.">
<polygon fill="white" stroke="#666666" points="277.62,-373.5 146.88,-373.5 146.88,-343 277.62,-343 277.62,-373.5"/>
<text text-anchor="start" x="154.88" y="-360" font-family="Helvetica,sans-Serif" font-size="10.00">Sandals::GaussLegendre4</text>
<text text-anchor="middle" x="212.25" y="-348.75" font-family="Helvetica,sans-Serif" font-size="10.00">&lt; Real, N, M &gt;</text>
</a>
</g>
</g>
<!-- Node0&#45;&gt;Node1 -->
<g id="edge16_Node000000_Node000001" class="edge">
<title>Node0&#45;&gt;Node1</title>
<g id="a_edge16_Node000000_Node000001"><a xlink:title=" ">
<path fill="none" stroke="#63b8ff" d="M65.16,-212.38C78.44,-244.95 105.29,-300.32 145,-333.25 149.35,-336.86 154.28,-339.98 159.44,-342.67"/>
<polygon fill="#63b8ff" stroke="#63b8ff" points="68.5,-211.32 61.58,-203.3 61.99,-213.88 68.5,-211.32"/>
</a>
</g>
</g>
<!-- Node2 -->
<g id="Node000002" class="node">
<title>Node2</title>
<g id="a_Node000002"><a xlink:href="class_sandals_1_1_heun2.html" target="_top" xlink:title="Class container for the Heun&#39;s (or 2&#45;stage strong&#45;stability preserving Runge&#45;Kutta) order 2 method.">
<polygon fill="white" stroke="#666666" points="271.25,-324.5 153.25,-324.5 153.25,-294 271.25,-294 271.25,-324.5"/>
<text text-anchor="start" x="161.25" y="-311" font-family="Helvetica,sans-Serif" font-size="10.00">Sandals::Heun2&lt; Real,</text>
<text text-anchor="middle" x="212.25" y="-299.75" font-family="Helvetica,sans-Serif" font-size="10.00"> N, M &gt;</text>
</a>
</g>
</g>
<!-- Node0&#45;&gt;Node2 -->
<g id="edge17_Node000000_Node000002" class="edge">
<title>Node0&#45;&gt;Node2</title>
<g id="a_edge17_Node000000_Node000002"><a xlink:title=" ">
<path fill="none" stroke="#63b8ff" d="M72.76,-210.96C89.14,-232.84 115.59,-264.31 145,-284.25 150.19,-287.77 155.94,-290.88 161.82,-293.6"/>
<polygon fill="#63b8ff" stroke="#63b8ff" points="75.79,-209.18 67.06,-203.17 70.14,-213.31 75.79,-209.18"/>
</a>
</g>
</g>
<!-- Node3 -->
<g id="Node000003" class="node">
<title>Node3</title>
<g id="a_Node000003"><a xlink:href="class_sandals_1_1_lobatto_i_i_i_a2.html" target="_top" xlink:title="Class container for the Lobatto IIIA order 2 method.">
<polygon fill="white" stroke="#666666" points="267.5,-275.5 157,-275.5 157,-245 267.5,-245 267.5,-275.5"/>
<text text-anchor="start" x="165" y="-262" font-family="Helvetica,sans-Serif" font-size="10.00">Sandals::LobattoIIIA2</text>
<text text-anchor="middle" x="212.25" y="-250.75" font-family="Helvetica,sans-Serif" font-size="10.00">&lt; Real, N, M &gt;</text>
</a>
</g>
</g>
<!-- Node0&#45;&gt;Node3 -->
<g id="edge18_Node000000_Node000003" class="edge">
<title>Node0&#45;&gt;Node3</title>
<g id="a_edge18_Node000000_Node000003"><a xlink:title=" ">
<path fill="none" stroke="#63b8ff" d="M91.22,-207.3C107.37,-216.43 126.87,-226.92 145,-235.25 152.04,-238.48 159.62,-241.64 167.06,-244.56"/>
<polygon fill="#63b8ff" stroke="#63b8ff" points="93.36,-204.5 82.94,-202.57 89.89,-210.58 93.36,-204.5"/>
</a>
</g>
</g>
<!-- Node4 -->
<g id="Node000004" class="node">
<title>Node4</title>
<g id="a_Node000004"><a xlink:href="class_sandals_1_1_m_t_e22.html" target="_top" xlink:title="Class container for the minimal truncation error (or Ralston&#39;s) order 2 method.">
<polygon fill="white" stroke="#666666" points="272.75,-226.5 151.75,-226.5 151.75,-196 272.75,-196 272.75,-226.5"/>
<text text-anchor="start" x="159.75" y="-213" font-family="Helvetica,sans-Serif" font-size="10.00">Sandals::MTE22&lt; Real,</text>
<text text-anchor="middle" x="212.25" y="-201.75" font-family="Helvetica,sans-Serif" font-size="10.00"> N, M &gt;</text>
</a>
</g>
</g>
<!-- Node0&#45;&gt;Node4 -->
<g id="edge19_Node000000_Node000004" class="edge">
<title>Node0&#45;&gt;Node4</title>
<g id="a_edge19_Node000000_Node000004"><a xlink:title=" ">
<path fill="none" stroke="#63b8ff" d="M120.17,-196.63C130.51,-198.29 141.18,-200 151.41,-201.64"/>
<polygon fill="#63b8ff" stroke="#63b8ff" points="121.02,-193.22 110.59,-195.09 119.91,-200.13 121.02,-193.22"/>
</a>
</g>
</g>
<!-- Node5 -->
<g id="Node000005" class="node">
<title>Node5</title>
<g id="a_Node000005"><a xlink:href="class_sandals_1_1_radau_i_i_a3.html" target="_top" xlink:title="Class container for the Radau IIA order 3 method.">
<polygon fill="white" stroke="#666666" points="264.12,-177.5 160.38,-177.5 160.38,-147 264.12,-147 264.12,-177.5"/>
<text text-anchor="start" x="168.38" y="-164" font-family="Helvetica,sans-Serif" font-size="10.00">Sandals::RadauIIA3</text>
<text text-anchor="middle" x="212.25" y="-152.75" font-family="Helvetica,sans-Serif" font-size="10.00">&lt; Real, N, M &gt;</text>
</a>
</g>
</g>
<!-- Node0&#45;&gt;Node5 -->
<g id="edge20_Node000000_Node000005" class="edge">
<title>Node0&#45;&gt;Node5</title>
<g id="a_edge20_Node000000_Node000005"><a xlink:title=" ">
<path fill="none" stroke="#63b8ff" d="M120.09,-176.3C133.37,-174.25 147.18,-172.12 159.92,-170.16"/>
<polygon fill="#63b8ff" stroke="#63b8ff" points="119.95,-172.78 110.6,-177.76 121.01,-179.7 119.95,-172.78"/>
</a>
</g>
</g>
<!-- Node6 -->
<g id="Node000006" class="node">
<title>Node6</title>
<g id="a_Node000006"><a xlink:href="class_sandals_1_1_ralston2.html" target="_top" xlink:title="Class container for the Ralston&#39;s (or minimal truncation error) order 2 method.">
<polygon fill="white" stroke="#666666" points="263.38,-128.5 161.12,-128.5 161.12,-98 263.38,-98 263.38,-128.5"/>
<text text-anchor="start" x="169.12" y="-115" font-family="Helvetica,sans-Serif" font-size="10.00">Sandals::Ralston2&lt;</text>
<text text-anchor="middle" x="212.25" y="-103.75" font-family="Helvetica,sans-Serif" font-size="10.00"> Real, N, M &gt;</text>
</a>
</g>
</g>
<!-- Node0&#45;&gt;Node6 -->
<g id="edge21_Node000000_Node000006" class="edge">
<title>Node0&#45;&gt;Node6</title>
<g id="a_edge21_Node000000_Node000006"><a xlink:title=" ">
<path fill="none" stroke="#63b8ff" d="M92.43,-165.03C108.36,-156.25 127.36,-146.27 145,-138.25 152.05,-135.05 159.64,-131.9 167.08,-128.99"/>
<polygon fill="#63b8ff" stroke="#63b8ff" points="90.8,-161.93 83.77,-169.86 94.21,-168.05 90.8,-161.93"/>
</a>
</g>
</g>
<!-- Node7 -->
<g id="Node000007" class="node">
<title>Node7</title>
<g id="a_Node000007"><a xlink:href="class_sandals_1_1_s_s_p_r_k22.html" target="_top" xlink:title="Class container for the 2&#45;stage strong&#45;stability preserving Runge&#45;Kutta (or Heun) order 2 method.">
<polygon fill="white" stroke="#666666" points="279.5,-79.5 145,-79.5 145,-49 279.5,-49 279.5,-79.5"/>
<text text-anchor="start" x="153" y="-66" font-family="Helvetica,sans-Serif" font-size="10.00">Sandals::SSPRK22&lt; Real,</text>
<text text-anchor="middle" x="212.25" y="-54.75" font-family="Helvetica,sans-Serif" font-size="10.00"> N, M &gt;</text>
</a>
</g>
</g>
<!-- Node0&#45;&gt;Node7 -->
<g id="edge22_Node000000_Node000007" class="edge">
<title>Node0&#45;&gt;Node7</title>
<g id="a_edge22_Node000000_Node000007"><a xlink:title=" ">
<path fill="none" stroke="#63b8ff" d="M73.03,-161.5C89.47,-139.87 115.84,-108.91 145,-89.25 150.2,-85.75 155.95,-82.64 161.84,-79.93"/>
<polygon fill="#63b8ff" stroke="#63b8ff" points="70.25,-159.38 67.1,-169.5 75.87,-163.55 70.25,-159.38"/>
</a>
</g>
</g>
<!-- Node8 -->
<g id="Node000008" class="node">
<title>Node8</title>
<g id="a_Node000008"><a xlink:href="class_sandals_1_1_s_s_p_r_k22star.html" target="_top" xlink:title="Class container for the optimal 2&#45;stage strong&#45;stability preserving Runge&#45;Kutta order 2 method.">
<polygon fill="white" stroke="#666666" points="271.62,-30.5 152.88,-30.5 152.88,0 271.62,0 271.62,-30.5"/>
<text text-anchor="start" x="160.88" y="-17" font-family="Helvetica,sans-Serif" font-size="10.00">Sandals::SSPRK22star</text>
<text text-anchor="middle" x="212.25" y="-5.75" font-family="Helvetica,sans-Serif" font-size="10.00">&lt; Real, N, M &gt;</text>
</a>
</g>
</g>
<!-- Node0&#45;&gt;Node8 -->
<g id="edge23_Node000000_Node000008" class="edge">
<title>Node0&#45;&gt;Node8</title>
<g id="a_edge23_Node000000_Node000008"><a xlink:title=" ">
<path fill="none" stroke="#63b8ff" d="M65.2,-160.3C78.53,-127.95 105.44,-72.96 145,-40.25 149.36,-36.65 154.29,-33.53 159.45,-30.84"/>
<polygon fill="#63b8ff" stroke="#63b8ff" points="62.06,-158.73 61.62,-169.31 68.57,-161.31 62.06,-158.73"/>
</a>
</g>
</g>
</g>
</svg>
