<?xml version="1.0" encoding="UTF-8" standalone="no"?>
<!DOCTYPE svg PUBLIC "-//W3C//DTD SVG 1.1//EN"
 "http://www.w3.org/Graphics/SVG/1.1/DTD/svg11.dtd">
<!-- Generated by graphviz version 12.2.0 (20241103.1931)
 -->
<!-- Title: Graphical Class Hierarchy Pages: 1 -->
<svg width="268pt" height="323pt"
 viewBox="0.00 0.00 268.00 323.25" xmlns="http://www.w3.org/2000/svg" xmlns:xlink="http://www.w3.org/1999/xlink">
<g id="graph0" class="graph" transform="scale(1 1) rotate(0) translate(4 319.25)">
<title>Graphical Class Hierarchy</title>
<!-- Node0 -->
<g id="Node000000" class="node">
<title>Node0</title>
<g id="a_Node000000"><a xlink:title=" ">
<polygon fill="#e0e0e0" stroke="#999999" points="67.75,-167.25 0,-167.25 0,-148 67.75,-148 67.75,-167.25"/>
<text text-anchor="middle" x="33.88" y="-153.75" font-family="Helvetica,sans-Serif" font-size="10.00">RungeKutta</text>
</a>
</g>
</g>
<!-- Node1 -->
<g id="Node000001" class="node">
<title>Node1</title>
<g id="a_Node000001"><a xlink:href="class_sandals_1_1_explicit_euler.html" target="_top" xlink:title="Class container for the Explicit Euler method.">
<polygon fill="white" stroke="#666666" points="250.62,-315.25 113.12,-315.25 113.12,-296 250.62,-296 250.62,-315.25"/>
<text text-anchor="middle" x="181.88" y="-301.75" font-family="Helvetica,sans-Serif" font-size="10.00">Sandals::ExplicitEuler&lt; N &gt;</text>
</a>
</g>
</g>
<!-- Node0&#45;&gt;Node1 -->
<g id="edge1_Node000000_Node000001" class="edge">
<title>Node0&#45;&gt;Node1</title>
<g id="a_edge1_Node000000_Node000001"><a xlink:title=" ">
<path fill="none" stroke="#63b8ff" d="M40.06,-178.5C48.4,-207.57 67.63,-259.8 103.75,-287.62 107.89,-290.81 112.5,-293.45 117.35,-295.63"/>
<polygon fill="#63b8ff" stroke="#63b8ff" points="43.5,-177.82 37.53,-169.06 36.74,-179.63 43.5,-177.82"/>
</a>
</g>
</g>
<!-- Node2 -->
<g id="Node000002" class="node">
<title>Node2</title>
<g id="a_Node000002"><a xlink:href="class_sandals_1_1_gauss_legendre2.html" target="_top" xlink:title="Class container for the Gauss&#45;Legendre 2 method.">
<polygon fill="white" stroke="#666666" points="260,-278.25 103.75,-278.25 103.75,-259 260,-259 260,-278.25"/>
<text text-anchor="middle" x="181.88" y="-264.75" font-family="Helvetica,sans-Serif" font-size="10.00">Sandals::GaussLegendre2&lt; N &gt;</text>
</a>
</g>
</g>
<!-- Node0&#45;&gt;Node2 -->
<g id="edge2_Node000000_Node000002" class="edge">
<title>Node0&#45;&gt;Node2</title>
<g id="a_edge2_Node000000_Node000002"><a xlink:title=" ">
<path fill="none" stroke="#63b8ff" d="M44.41,-177.84C55.58,-199.27 76.14,-232.48 103.75,-250.62 108.58,-253.8 113.89,-256.41 119.41,-258.57"/>
<polygon fill="#63b8ff" stroke="#63b8ff" points="47.57,-176.33 39.98,-168.94 41.3,-179.45 47.57,-176.33"/>
</a>
</g>
</g>
<!-- Node3 -->
<g id="Node000003" class="node">
<title>Node3</title>
<g id="a_Node000003"><a xlink:href="class_sandals_1_1_gauss_legendre4.html" target="_top" xlink:title="Class container for the Gauss&#45;Legendre 4 method.">
<polygon fill="white" stroke="#666666" points="260,-241.25 103.75,-241.25 103.75,-222 260,-222 260,-241.25"/>
<text text-anchor="middle" x="181.88" y="-227.75" font-family="Helvetica,sans-Serif" font-size="10.00">Sandals::GaussLegendre4&lt; N &gt;</text>
</a>
</g>
</g>
<!-- Node0&#45;&gt;Node3 -->
<g id="edge3_Node000000_Node000003" class="edge">
<title>Node0&#45;&gt;Node3</title>
<g id="a_edge3_Node000000_Node000003"><a xlink:title=" ">
<path fill="none" stroke="#63b8ff" d="M52.17,-175.48C65.23,-187.96 84.19,-204.03 103.75,-213.62 110.17,-216.77 117.16,-219.39 124.23,-221.55"/>
<polygon fill="#63b8ff" stroke="#63b8ff" points="54.79,-173.15 45.21,-168.61 49.87,-178.13 54.79,-173.15"/>
</a>
</g>
</g>
<!-- Node4 -->
<g id="Node000004" class="node">
<title>Node4</title>
<g id="a_Node000004"><a xlink:href="class_sandals_1_1_gauss_legendre6.html" target="_top" xlink:title="Class container for the Gauss&#45;Legendre 6 method.">
<polygon fill="white" stroke="#666666" points="260,-204.25 103.75,-204.25 103.75,-185 260,-185 260,-204.25"/>
<text text-anchor="middle" x="181.88" y="-190.75" font-family="Helvetica,sans-Serif" font-size="10.00">Sandals::GaussLegendre6&lt; N &gt;</text>
</a>
</g>
</g>
<!-- Node0&#45;&gt;Node4 -->
<g id="edge4_Node000000_Node000004" class="edge">
<title>Node0&#45;&gt;Node4</title>
<g id="a_edge4_Node000000_Node000004"><a xlink:title=" ">
<path fill="none" stroke="#63b8ff" d="M79.01,-170.08C87.22,-172.32 95.73,-174.58 103.75,-176.62 114.28,-179.3 125.65,-182.04 136.35,-184.55"/>
<polygon fill="#63b8ff" stroke="#63b8ff" points="80.11,-166.75 69.54,-167.48 78.26,-173.5 80.11,-166.75"/>
</a>
</g>
</g>
<!-- Node5 -->
<g id="Node000005" class="node">
<title>Node5</title>
<g id="a_Node000005"><a xlink:href="class_sandals_1_1_implicit_euler.html" target="_top" xlink:title="Class container for the Implicit Euler method.">
<polygon fill="white" stroke="#666666" points="250.25,-167.25 113.5,-167.25 113.5,-148 250.25,-148 250.25,-167.25"/>
<text text-anchor="middle" x="181.88" y="-153.75" font-family="Helvetica,sans-Serif" font-size="10.00">Sandals::ImplicitEuler&lt; N &gt;</text>
</a>
</g>
</g>
<!-- Node0&#45;&gt;Node5 -->
<g id="edge5_Node000000_Node000005" class="edge">
<title>Node0&#45;&gt;Node5</title>
<g id="a_edge5_Node000000_Node000005"><a xlink:title=" ">
<path fill="none" stroke="#63b8ff" d="M79.23,-157.62C89.98,-157.62 101.72,-157.62 113.27,-157.62"/>
<polygon fill="#63b8ff" stroke="#63b8ff" points="79.52,-154.13 69.52,-157.63 79.52,-161.13 79.52,-154.13"/>
</a>
</g>
</g>
<!-- Node6 -->
<g id="Node000006" class="node">
<title>Node6</title>
<g id="a_Node000006"><a xlink:href="class_sandals_1_1_r_k4.html" target="_top" xlink:title="Class container for the Runge&#45;Kutta 4 method.">
<polygon fill="white" stroke="#666666" points="233,-130.25 130.75,-130.25 130.75,-111 233,-111 233,-130.25"/>
<text text-anchor="middle" x="181.88" y="-116.75" font-family="Helvetica,sans-Serif" font-size="10.00">Sandals::RK4&lt; N &gt;</text>
</a>
</g>
</g>
<!-- Node0&#45;&gt;Node6 -->
<g id="edge6_Node000000_Node000006" class="edge">
<title>Node0&#45;&gt;Node6</title>
<g id="a_edge6_Node000000_Node000006"><a xlink:title=" ">
<path fill="none" stroke="#63b8ff" d="M79.01,-145.17C87.22,-142.93 95.73,-140.67 103.75,-138.62 114.28,-135.95 125.65,-133.21 136.35,-130.7"/>
<polygon fill="#63b8ff" stroke="#63b8ff" points="78.26,-141.75 69.54,-147.77 80.11,-148.5 78.26,-141.75"/>
</a>
</g>
</g>
<!-- Node7 -->
<g id="Node000007" class="node">
<title>Node7</title>
<g id="a_Node000007"><a xlink:href="class_sandals_1_1_r_k_f45.html" target="_top" xlink:title="Class container for the Runge&#45;Kutta&#45;Fehlberg 4(5) method.">
<polygon fill="white" stroke="#666666" points="238.62,-93.25 125.12,-93.25 125.12,-74 238.62,-74 238.62,-93.25"/>
<text text-anchor="middle" x="181.88" y="-79.75" font-family="Helvetica,sans-Serif" font-size="10.00">Sandals::RKF45&lt; N &gt;</text>
</a>
</g>
</g>
<!-- Node0&#45;&gt;Node7 -->
<g id="edge7_Node000000_Node000007" class="edge">
<title>Node0&#45;&gt;Node7</title>
<g id="a_edge7_Node000000_Node000007"><a xlink:title=" ">
<path fill="none" stroke="#63b8ff" d="M52.17,-139.77C65.23,-127.29 84.19,-111.22 103.75,-101.62 110.29,-98.42 117.43,-95.76 124.64,-93.58"/>
<polygon fill="#63b8ff" stroke="#63b8ff" points="49.87,-137.12 45.21,-146.64 54.79,-142.1 49.87,-137.12"/>
</a>
</g>
</g>
<!-- Node8 -->
<g id="Node000008" class="node">
<title>Node8</title>
<g id="a_Node000008"><a xlink:href="class_sandals_1_1_radau_i_i_a3.html" target="_top" xlink:title="Class container for the RadauIIA3 method.">
<polygon fill="white" stroke="#666666" points="246.5,-56.25 117.25,-56.25 117.25,-37 246.5,-37 246.5,-56.25"/>
<text text-anchor="middle" x="181.88" y="-42.75" font-family="Helvetica,sans-Serif" font-size="10.00">Sandals::RadauIIA3&lt; N &gt;</text>
</a>
</g>
</g>
<!-- Node0&#45;&gt;Node8 -->
<g id="edge8_Node000000_Node000008" class="edge">
<title>Node0&#45;&gt;Node8</title>
<g id="a_edge8_Node000000_Node000008"><a xlink:title=" ">
<path fill="none" stroke="#63b8ff" d="M44.41,-137.41C55.58,-115.98 76.14,-82.77 103.75,-64.62 108.58,-61.45 113.89,-58.84 119.41,-56.68"/>
<polygon fill="#63b8ff" stroke="#63b8ff" points="41.3,-135.8 39.98,-146.31 47.57,-138.92 41.3,-135.8"/>
</a>
</g>
</g>
<!-- Node9 -->
<g id="Node000009" class="node">
<title>Node9</title>
<g id="a_Node000009"><a xlink:href="class_sandals_1_1_radau_i_i_a5.html" target="_top" xlink:title="Class container for the RadauIIA5 method.">
<polygon fill="white" stroke="#666666" points="246.5,-19.25 117.25,-19.25 117.25,0 246.5,0 246.5,-19.25"/>
<text text-anchor="middle" x="181.88" y="-5.75" font-family="Helvetica,sans-Serif" font-size="10.00">Sandals::RadauIIA5&lt; N &gt;</text>
</a>
</g>
</g>
<!-- Node0&#45;&gt;Node9 -->
<g id="edge9_Node000000_Node000009" class="edge">
<title>Node0&#45;&gt;Node9</title>
<g id="a_edge9_Node000000_Node000009"><a xlink:title=" ">
<path fill="none" stroke="#63b8ff" d="M40.06,-136.75C48.4,-107.68 67.63,-55.45 103.75,-27.62 107.89,-24.44 112.5,-21.8 117.35,-19.62"/>
<polygon fill="#63b8ff" stroke="#63b8ff" points="36.74,-135.62 37.53,-146.19 43.5,-137.43 36.74,-135.62"/>
</a>
</g>
</g>
</g>
</svg>
