<?xml version="1.0" encoding="UTF-8" standalone="no"?>
<!DOCTYPE svg PUBLIC "-//W3C//DTD SVG 1.1//EN"
 "http://www.w3.org/Graphics/SVG/1.1/DTD/svg11.dtd">
<!-- Generated by graphviz version 12.2.1 (20241206.2353)
 -->
<!-- Title: Graphical Class Hierarchy Pages: 1 -->
<svg width="295pt" height="260pt"
 viewBox="0.00 0.00 295.00 259.88" xmlns="http://www.w3.org/2000/svg" xmlns:xlink="http://www.w3.org/1999/xlink">
<g id="graph0" class="graph" transform="scale(1 1) rotate(0) translate(4 255.88)">
<title>Graphical Class Hierarchy</title>
<!-- Node0 -->
<g id="Node000000" class="node">
<title>Node0</title>
<g id="a_Node000000"><a xlink:href="class_sandals_1_1_runge_kutta.html" target="_top" xlink:title=" ">
<polygon fill="white" stroke="#666666" points="109,-140.88 0,-140.88 0,-110.38 109,-110.38 109,-140.88"/>
<text text-anchor="start" x="8" y="-127.38" font-family="Helvetica,sans-Serif" font-size="10.00">Sandals::RungeKutta</text>
<text text-anchor="middle" x="54.5" y="-116.12" font-family="Helvetica,sans-Serif" font-size="10.00">&lt; 3, N, 0 &gt;</text>
</a>
</g>
</g>
<!-- Node1 -->
<g id="Node000001" class="node">
<title>Node1</title>
<g id="a_Node000001"><a xlink:href="class_sandals_1_1_gauss_legendre6.html" target="_top" xlink:title="Class container for the Gauss&#45;Legendre order 6 method.">
<polygon fill="white" stroke="#666666" points="281.38,-251.88 150.62,-251.88 150.62,-221.38 281.38,-221.38 281.38,-251.88"/>
<text text-anchor="start" x="158.62" y="-238.38" font-family="Helvetica,sans-Serif" font-size="10.00">Sandals::GaussLegendre6</text>
<text text-anchor="middle" x="216" y="-227.12" font-family="Helvetica,sans-Serif" font-size="10.00">&lt; N, M &gt;</text>
</a>
</g>
</g>
<!-- Node0&#45;&gt;Node1 -->
<g id="edge20_Node000000_Node000001" class="edge">
<title>Node0&#45;&gt;Node1</title>
<g id="a_edge20_Node000000_Node000001"><a xlink:title=" ">
<path fill="none" stroke="#63b8ff" d="M75.09,-149.86C91.86,-169.21 117.58,-195.79 145,-212.62 150.04,-215.72 155.52,-218.47 161.13,-220.91"/>
<polygon fill="#63b8ff" stroke="#63b8ff" points="77.94,-147.81 68.8,-142.43 72.59,-152.33 77.94,-147.81"/>
</a>
</g>
</g>
<!-- Node2 -->
<g id="Node000002" class="node">
<title>Node2</title>
<g id="a_Node000002"><a xlink:href="class_sandals_1_1_heun3.html" target="_top" xlink:title="Class container for the Heun&#39;s order 3 method.">
<polygon fill="white" stroke="#666666" points="278.75,-203.25 153.25,-203.25 153.25,-184 278.75,-184 278.75,-203.25"/>
<text text-anchor="middle" x="216" y="-189.75" font-family="Helvetica,sans-Serif" font-size="10.00">Sandals::Heun3&lt; N, M &gt;</text>
</a>
</g>
</g>
<!-- Node0&#45;&gt;Node2 -->
<g id="edge21_Node000000_Node000002" class="edge">
<title>Node0&#45;&gt;Node2</title>
<g id="a_edge21_Node000000_Node000002"><a xlink:title=" ">
<path fill="none" stroke="#63b8ff" d="M89.8,-146.89C106.09,-156.33 126.09,-167.01 145,-174.62 153.41,-178.01 162.63,-181 171.53,-183.54"/>
<polygon fill="#63b8ff" stroke="#63b8ff" points="91.88,-144.05 81.49,-141.98 88.32,-150.08 91.88,-144.05"/>
</a>
</g>
</g>
<!-- Node3 -->
<g id="Node000003" class="node">
<title>Node3</title>
<g id="a_Node000003"><a xlink:href="class_sandals_1_1_radau_i_i_a5.html" target="_top" xlink:title="Class container for the Radau IIA order 5 method.">
<polygon fill="white" stroke="#666666" points="267.88,-165.88 164.12,-165.88 164.12,-135.38 267.88,-135.38 267.88,-165.88"/>
<text text-anchor="start" x="172.12" y="-152.38" font-family="Helvetica,sans-Serif" font-size="10.00">Sandals::RadauIIA5</text>
<text text-anchor="middle" x="216" y="-141.12" font-family="Helvetica,sans-Serif" font-size="10.00">&lt; N, M &gt;</text>
</a>
</g>
</g>
<!-- Node0&#45;&gt;Node3 -->
<g id="edge22_Node000000_Node000003" class="edge">
<title>Node0&#45;&gt;Node3</title>
<g id="a_edge22_Node000000_Node000003"><a xlink:title=" ">
<path fill="none" stroke="#63b8ff" d="M120.81,-135.86C135.12,-138.1 150.08,-140.45 163.75,-142.59"/>
<polygon fill="#63b8ff" stroke="#63b8ff" points="121.42,-132.41 110.99,-134.32 120.33,-139.33 121.42,-132.41"/>
</a>
</g>
</g>
<!-- Node4 -->
<g id="Node000004" class="node">
<title>Node4</title>
<g id="a_Node000004"><a xlink:href="class_sandals_1_1_ralston3.html" target="_top" xlink:title="Class container for the Ralston&#39;s order 3 method.">
<polygon fill="white" stroke="#666666" points="267.12,-116.88 164.88,-116.88 164.88,-86.38 267.12,-86.38 267.12,-116.88"/>
<text text-anchor="start" x="172.88" y="-103.38" font-family="Helvetica,sans-Serif" font-size="10.00">Sandals::Ralston3&lt;</text>
<text text-anchor="middle" x="216" y="-92.12" font-family="Helvetica,sans-Serif" font-size="10.00"> N, M &gt;</text>
</a>
</g>
</g>
<!-- Node0&#45;&gt;Node4 -->
<g id="edge23_Node000000_Node000004" class="edge">
<title>Node0&#45;&gt;Node4</title>
<g id="a_edge23_Node000000_Node000004"><a xlink:title=" ">
<path fill="none" stroke="#63b8ff" d="M120.55,-115.84C135.22,-113.63 150.59,-111.32 164.55,-109.22"/>
<polygon fill="#63b8ff" stroke="#63b8ff" points="120.36,-112.33 111,-117.27 121.41,-119.25 120.36,-112.33"/>
</a>
</g>
</g>
<!-- Node5 -->
<g id="Node000005" class="node">
<title>Node5</title>
<g id="a_Node000005"><a xlink:href="class_sandals_1_1_s_s_p_i_r_k33.html" target="_top" xlink:title="Class container for the 3&#45;stage diagonally&#45;implicit strong&#45;stability preserving Runge&#45;Kutta order 3 m...">
<polygon fill="white" stroke="#666666" points="271.62,-67.88 160.38,-67.88 160.38,-37.38 271.62,-37.38 271.62,-67.88"/>
<text text-anchor="start" x="168.38" y="-54.38" font-family="Helvetica,sans-Serif" font-size="10.00">Sandals::SSPIRK33&lt;</text>
<text text-anchor="middle" x="216" y="-43.12" font-family="Helvetica,sans-Serif" font-size="10.00"> N, M &gt;</text>
</a>
</g>
</g>
<!-- Node0&#45;&gt;Node5 -->
<g id="edge24_Node000000_Node000005" class="edge">
<title>Node0&#45;&gt;Node5</title>
<g id="a_edge24_Node000000_Node000005"><a xlink:title=" ">
<path fill="none" stroke="#63b8ff" d="M92.01,-104.45C108,-95.6 127.15,-85.54 145,-77.62 152.31,-74.38 160.19,-71.24 167.93,-68.35"/>
<polygon fill="#63b8ff" stroke="#63b8ff" points="90.33,-101.38 83.32,-109.32 93.76,-107.48 90.33,-101.38"/>
</a>
</g>
</g>
<!-- Node6 -->
<g id="Node000006" class="node">
<title>Node6</title>
<g id="a_Node000006"><a xlink:href="class_sandals_1_1_s_s_p_r_k33.html" target="_top" xlink:title="Class container for the 3&#45;stage strong&#45;stability preserving Runge&#45;Kutta order 3 method.">
<polygon fill="white" stroke="#666666" points="287,-19.25 145,-19.25 145,0 287,0 287,-19.25"/>
<text text-anchor="middle" x="216" y="-5.75" font-family="Helvetica,sans-Serif" font-size="10.00">Sandals::SSPRK33&lt; N, M &gt;</text>
</a>
</g>
</g>
<!-- Node0&#45;&gt;Node6 -->
<g id="edge25_Node000000_Node000006" class="edge">
<title>Node0&#45;&gt;Node6</title>
<g id="a_edge25_Node000000_Node000006"><a xlink:title=" ">
<path fill="none" stroke="#63b8ff" d="M72.1,-100.87C88.21,-78.74 114.62,-47.05 145,-28.62 150.92,-25.03 157.53,-22.11 164.26,-19.73"/>
<polygon fill="#63b8ff" stroke="#63b8ff" points="69.44,-98.57 66.53,-108.75 75.16,-102.61 69.44,-98.57"/>
</a>
</g>
</g>
</g>
</svg>
